<svg width="113" height="117" viewBox="0 0 113 117" fill="none" xmlns="http://www.w3.org/2000/svg">
<path d="M35.7082 0.68457L1.00854 19.5861V75.5008L35.7082 56.5992V0.68457Z" fill="#187259"/>
<path opacity="0.35" d="M35.7082 0.68457L1.00854 19.5861V75.5008L35.7082 56.5992V0.68457Z" fill="black"/>
<path d="M1.99707 20.5166L35.7095 2.26392C37.2385 3.95659 39.5048 5.13206 42.5084 5.79032L9.05574 24.0007C9.05574 24.0007 7.1482 23.5775 1.99707 20.5166Z" fill="#F5F5F5"/>
<path d="M11.9121 23.902C11.0266 24.3294 10.0476 24.5522 9.05443 24.5522C8.06131 24.5522 7.08222 24.3294 6.19681 23.902L1.1867 21.1514C-0.394265 20.2909 -0.394265 18.8874 1.1867 18.0199L34.4613 0L35.7082 0.705281L2.9087 18.5559C1.95864 19.0708 1.96606 19.9171 2.9087 20.432L7.56996 22.9569C8.10085 23.2144 8.68844 23.3487 9.28452 23.3487C9.88061 23.3487 10.4682 23.2144 10.9991 22.9569L43.7838 5.13444L45.194 5.91026L11.9121 23.902Z" fill="#187259"/>
<path opacity="0.25" d="M11.9121 23.902C11.0266 24.3294 10.0476 24.5522 9.05443 24.5522C8.06131 24.5522 7.08222 24.3294 6.19681 23.902L1.1867 21.1514C-0.394265 20.2909 -0.394265 18.8874 1.1867 18.0199L34.4613 0L35.7082 0.705281L2.9087 18.5559C1.95864 19.0708 1.96606 19.9171 2.9087 20.432L7.56996 22.9569C8.10085 23.2144 8.68844 23.3487 9.28452 23.3487C9.88061 23.3487 10.4682 23.2144 10.9991 22.9569L43.7838 5.13444L45.194 5.91026L11.9121 23.902Z" fill="black"/>
<path d="M45.1875 5.88928V61.8039L11.9129 79.8168C11.0265 80.241 10.0478 80.4619 9.05529 80.4619C8.0628 80.4619 7.08411 80.241 6.19767 79.8168L1.18016 77.0662C0.855196 76.9279 0.574704 76.71 0.367359 76.4349C0.160015 76.1598 0.0332536 75.8374 0 75.5005V19.5858C0.0332536 19.9227 0.160015 20.2452 0.367359 20.5203C0.574704 20.7953 0.855196 21.0132 1.18016 21.1516L6.19767 23.9092C7.08411 24.3334 8.0628 24.5543 9.05529 24.5543C10.0478 24.5543 11.0265 24.3334 11.9129 23.9092L45.1875 5.88928Z" fill="#187259"/>
<path opacity="0.05" d="M45.1875 5.88928V61.8039L11.9129 79.8168C11.0265 80.241 10.0478 80.4619 9.05529 80.4619C8.0628 80.4619 7.08411 80.241 6.19767 79.8168L1.18016 77.0662C0.855196 76.9279 0.574704 76.71 0.367359 76.4349C0.160015 76.1598 0.0332536 75.8374 0 75.5005V19.5858C0.0332536 19.9227 0.160015 20.2452 0.367359 20.5203C0.574704 20.7953 0.855196 21.0132 1.18016 21.1516L6.19767 23.9092C7.08411 24.3334 8.0628 24.5543 9.05529 24.5543C10.0478 24.5543 11.0265 24.3334 11.9129 23.9092L45.1875 5.88928Z" fill="black"/>
<path d="M9.05529 24.5583C8.0602 24.5763 7.07671 24.3529 6.19767 23.9094L1.18016 21.1518C0.855196 21.0134 0.574703 20.7956 0.367359 20.5205C0.160015 20.2454 0.0332536 19.9229 0 19.5861V75.5007C0.0332536 75.8376 0.160015 76.1601 0.367359 76.4351C0.574703 76.7102 0.855196 76.9281 1.18016 77.0664L6.19767 79.817C7.07671 80.2605 8.0602 80.4838 9.05529 80.4659V24.5583Z" fill="#187259"/>
<path opacity="0.2" d="M9.05529 24.5583C8.0602 24.5763 7.07671 24.3529 6.19767 23.9094L1.18016 21.1518C0.855196 21.0134 0.574703 20.7956 0.367359 20.5205C0.160015 20.2454 0.0332536 19.9229 0 19.5861V75.5007C0.0332536 75.8376 0.160015 76.1601 0.367359 76.4351C0.574703 76.7102 0.855196 76.9281 1.18016 77.0664L6.19767 79.817C7.07671 80.2605 8.0602 80.4838 9.05529 80.4659V24.5583Z" fill="black"/>
<path d="M44.1549 13.3789L15.0889 29.4311V82.2919L44.1549 66.2467V13.3789Z" fill="#187259"/>
<path opacity="0.55" d="M44.1549 13.3789L15.0889 29.4311V82.2919L44.1549 66.2467V13.3789Z" fill="white"/>
<path d="M16.0254 30.306L44.1562 14.8745C45.8714 16.6162 48.1251 17.7944 50.5914 18.2387L22.6981 33.5927C22.6981 33.5927 20.8945 33.2048 16.0254 30.306Z" fill="#F5F5F5"/>
<path d="M25.3998 33.515C24.5633 33.9211 23.6374 34.1329 22.698 34.1329C21.7587 34.1329 20.8328 33.9211 19.9963 33.515L15.2608 30.9125C13.7763 30.0944 13.7763 28.7967 15.2608 27.9503L42.9834 12.7374L44.1561 13.3792L16.8863 28.437C16.6907 28.4998 16.5207 28.6193 16.4003 28.7787C16.2799 28.9381 16.2152 29.1294 16.2152 29.3256C16.2152 29.5218 16.2799 29.7131 16.4003 29.8725C16.5207 30.0319 16.6907 30.1515 16.8863 30.2143L21.2878 32.5981C21.79 32.8415 22.3458 32.9684 22.9096 32.9684C23.4734 32.9684 24.0291 32.8415 24.5314 32.5981L51.7864 17.5757L53.1224 18.2809L25.3998 33.515Z" fill="#187259"/>
<path opacity="0.8" d="M25.3998 33.515C24.5633 33.9211 23.6374 34.1329 22.698 34.1329C21.7587 34.1329 20.8328 33.9211 19.9963 33.515L15.2608 30.9125C13.7763 30.0944 13.7763 28.7967 15.2608 27.9503L42.9834 12.7374L44.1561 13.3792L16.8863 28.437C16.6907 28.4998 16.5207 28.6193 16.4003 28.7787C16.2799 28.9381 16.2152 29.1294 16.2152 29.3256C16.2152 29.5218 16.2799 29.7131 16.4003 29.8725C16.5207 30.0319 16.6907 30.1515 16.8863 30.2143L21.2878 32.5981C21.79 32.8415 22.3458 32.9684 22.9096 32.9684C23.4734 32.9684 24.0291 32.8415 24.5314 32.5981L51.7864 17.5757L53.1224 18.2809L25.3998 33.515Z" fill="white"/>
<path d="M53.121 18.3022V71.163L25.3984 86.3759C24.562 86.7821 23.636 86.9938 22.6967 86.9938C21.7573 86.9938 20.8314 86.7821 19.9949 86.3759L15.252 83.7734C14.9441 83.6436 14.6785 83.4377 14.4827 83.1773C14.2869 82.9168 14.1681 82.6112 14.1387 82.2924V29.3963C14.1696 29.7148 14.289 30.0197 14.4846 30.2799C14.6802 30.5401 14.945 30.7463 15.252 30.8774L19.9949 33.4799C20.8314 33.886 21.7573 34.0978 22.6967 34.0978C23.636 34.0978 24.562 33.886 25.3984 33.4799L53.121 18.3022Z" fill="#187259"/>
<path opacity="0.7" d="M53.121 18.3022V71.163L25.3984 86.3759C24.562 86.7821 23.636 86.9938 22.6967 86.9938C21.7573 86.9938 20.8314 86.7821 19.9949 86.3759L15.252 83.7734C14.9441 83.6436 14.6785 83.4377 14.4827 83.1773C14.2869 82.9168 14.1681 82.6112 14.1387 82.2924V29.3963C14.1696 29.7148 14.289 30.0197 14.4846 30.2799C14.6802 30.5401 14.945 30.7463 15.252 30.8774L19.9949 33.4799C20.8314 33.886 21.7573 34.0978 22.6967 34.0978C23.636 34.0978 24.562 33.886 25.3984 33.4799L53.121 18.3022Z" fill="white"/>
<path d="M22.6967 34.1288C21.7557 34.147 20.8256 33.9357 19.9949 33.5152L15.252 30.9127C14.945 30.7817 14.6802 30.5755 14.4846 30.3152C14.289 30.055 14.1696 29.7501 14.1387 29.4316V82.3277C14.1681 82.6466 14.2869 82.9521 14.4827 83.2126C14.6785 83.4731 14.9441 83.679 15.252 83.8088L19.9949 86.4113C20.8256 86.8318 21.7557 87.0431 22.6967 87.0249V34.1288Z" fill="#187259"/>
<path opacity="0.55" d="M22.6967 34.1288C21.7557 34.147 20.8256 33.9357 19.9949 33.5152L15.252 30.9127C14.945 30.7817 14.6802 30.5755 14.4846 30.3152C14.289 30.055 14.1696 29.7501 14.1387 29.4316V82.3277C14.1681 82.6466 14.2869 82.9521 14.4827 83.2126C14.6785 83.4731 14.9441 83.679 15.252 83.8088L19.9949 86.4113C20.8256 86.8318 21.7557 87.0431 22.6967 87.0249V34.1288Z" fill="white"/>
<path d="M80.6004 22.7312L80.9122 26.7513L43.5034 45.8221L42.6572 43.4806L80.6004 22.7312Z" fill="#187259"/>
<path opacity="0.35" d="M80.6004 22.7312L80.9122 26.7513L43.5034 45.8221L42.6572 43.4806L80.6004 22.7312Z" fill="black"/>
<path d="M43.1533 44.4114L79.3894 24.5366L85.691 27.9925L48.7424 48.5303L43.1533 44.4114Z" fill="#F5F5F5"/>
<path d="M55.549 46.4004L60.0543 80.7899C60.0285 81.2322 59.8935 81.6626 59.6601 82.0461C59.4267 82.4296 59.1015 82.7555 58.7109 82.9974L37.6907 94.557C37.3544 94.7309 36.9818 94.832 36.5996 94.8532L48.7426 49.8139C49.1245 49.7962 49.4973 49.6974 49.8337 49.5248L51.3182 48.6926L55.549 46.4004Z" fill="#187259"/>
<path opacity="0.35" d="M55.549 46.4004L60.0543 80.7899C60.0285 81.2322 59.8935 81.6626 59.6601 82.0461C59.4267 82.4296 59.1015 82.7555 58.7109 82.9974L37.6907 94.557C37.3544 94.7309 36.9818 94.832 36.5996 94.8532L48.7426 49.8139C49.1245 49.7962 49.4973 49.6974 49.8337 49.5248L51.3182 48.6926L55.549 46.4004Z" fill="black"/>
<path d="M47.1473 49.539L43.399 46.4922L40.6453 44.2494C40.3632 43.8263 40.0367 43.5089 40.2148 43.1562L28.2425 87.8146V87.8569C28.0643 88.2096 28.0124 88.9995 28.5245 89.2675L35.0191 94.5501C35.51 94.7997 36.0688 94.903 36.6224 94.8463L48.7431 49.8141C48.1942 49.875 47.6387 49.7792 47.1473 49.539Z" fill="#187259"/>
<path opacity="0.25" d="M47.1473 49.539L43.399 46.4922L40.6453 44.2494C40.3632 43.8263 40.0367 43.5089 40.2148 43.1562L28.2425 87.8146V87.8569C28.0643 88.2096 28.0124 88.9995 28.5245 89.2675L35.0191 94.5501C35.51 94.7997 36.0688 94.903 36.6224 94.8463L48.7431 49.8141C48.1942 49.875 47.6387 49.7792 47.1473 49.539Z" fill="black"/>
<path d="M40.6448 42.7612C39.9026 43.1702 40.0881 43.6216 40.6448 44.2352L47.1468 49.5248C47.5632 49.7256 48.0234 49.8302 48.4903 49.8302C48.9571 49.8302 49.4174 49.7256 49.8337 49.5248L55.549 46.3863C56.2912 45.9843 56.4248 45.3919 55.8384 45.0745C55.4541 44.9234 55.0381 44.8595 54.6233 44.8876C54.2085 44.9158 53.8062 45.0353 53.4484 45.2367L48.9356 47.6981C48.7961 47.764 48.6424 47.7983 48.4866 47.7983C48.3308 47.7983 48.1771 47.764 48.0375 47.6981L43.2872 43.7768C43.0423 43.6428 43.0423 43.4241 43.2872 43.2831L80.5995 22.703L78.8107 21.7227L40.6448 42.7612Z" fill="#187259"/>
<path opacity="0.15" d="M40.6448 42.7612C39.9026 43.1702 40.0881 43.6216 40.6448 44.2352L47.1468 49.5248C47.5632 49.7256 48.0234 49.8302 48.4903 49.8302C48.9571 49.8302 49.4174 49.7256 49.8337 49.5248L55.549 46.3863C56.2912 45.9843 56.4248 45.3919 55.8384 45.0745C55.4541 44.9234 55.0381 44.8595 54.6233 44.8876C54.2085 44.9158 53.8062 45.0353 53.4484 45.2367L48.9356 47.6981C48.7961 47.764 48.6424 47.7983 48.4866 47.7983C48.3308 47.7983 48.1771 47.764 48.0375 47.6981L43.2872 43.7768C43.0423 43.6428 43.0423 43.4241 43.2872 43.2831L80.5995 22.703L78.8107 21.7227L40.6448 42.7612Z" fill="black"/>
<path d="M87.8285 23.338L53.8489 42.0985V103.881L87.8285 85.1277V23.338Z" fill="#455A64"/>
<path d="M54.9629 43.1209L87.844 25.0869C89.5363 26.9677 92.0426 28.2771 95.3629 29.0153L62.7416 46.9929C62.7416 46.9929 60.641 46.5063 54.9629 43.1209Z" fill="#F5F5F5"/>
<path d="M65.9032 46.8657C64.9247 47.3383 63.8426 47.5847 62.745 47.5847C61.6473 47.5847 60.5652 47.3383 59.5868 46.8657L54.0496 43.833C52.3054 42.8738 52.3054 41.3222 54.0496 40.363L86.4558 22.5829L87.8289 23.3375L55.9572 40.9343C54.9107 41.5056 54.9107 42.4365 55.9572 43.0078L61.1009 45.8289C61.6892 46.1105 62.3387 46.2571 62.9973 46.2571C63.656 46.2571 64.3055 46.1105 64.8938 45.8289L96.758 28.2674L98.3093 29.1208L65.9032 46.8657Z" fill="#263238"/>
<path d="M98.3092 29.0859V90.8756L65.903 108.649C64.9246 109.121 63.8424 109.368 62.7448 109.368C61.6472 109.368 60.5651 109.121 59.5866 108.649L54.0495 105.616C53.6895 105.463 53.3789 105.221 53.1494 104.916C52.9198 104.612 52.7797 104.254 52.7432 103.881V42.0984C52.7809 42.4703 52.9217 42.8262 53.1511 43.1297C53.3806 43.4332 53.6905 43.6736 54.0495 43.8263L59.5866 46.8731C60.5661 47.3425 61.6478 47.587 62.7448 47.587C63.8418 47.587 64.9235 47.3425 65.903 46.8731L98.3092 29.0859Z" fill="#455A64"/>
<path d="M62.7411 47.5923C61.6434 47.6174 60.5573 47.3746 59.5866 46.8871L54.0495 43.8402C53.6905 43.6875 53.3806 43.4472 53.1511 43.1436C52.9217 42.8401 52.7809 42.4843 52.7432 42.1123V103.895C52.7797 104.268 52.9198 104.625 53.1494 104.93C53.3789 105.235 53.6895 105.477 54.0495 105.63L59.5866 108.663C60.5573 109.15 61.6434 109.393 62.7411 109.368V47.5923Z" fill="#37474F"/>
<path d="M101.724 30.9614L67.7441 49.7219V111.512L101.724 92.7511V30.9614Z" fill="#187259"/>
<path opacity="0.35" d="M101.724 30.9614L67.7441 49.7219V111.512L101.724 92.7511V30.9614Z" fill="black"/>
<path d="M68.8425 50.745L101.724 32.7109C103.416 34.5917 105.922 35.9012 109.243 36.6394L76.636 54.6029C76.636 54.6029 74.5281 54.1303 68.8425 50.745Z" fill="#EBEBEB"/>
<path d="M68.8425 50.745L101.724 32.7109C103.416 34.5917 105.922 35.9012 109.243 36.6394L76.636 54.6029C76.636 54.6029 74.5281 54.1303 68.8425 50.745Z" fill="#F5F5F5"/>
<path d="M79.7965 54.4896C78.818 54.9622 77.7359 55.2086 76.6383 55.2086C75.5406 55.2086 74.4585 54.9622 73.4801 54.4896L67.943 51.4569C66.1987 50.4977 66.1987 48.9461 67.943 47.9869L100.349 30.2139L101.722 30.9615L69.8505 48.5935C68.804 49.1647 68.804 50.0957 69.8505 50.667L74.9942 53.4881C75.5825 53.7697 76.232 53.9163 76.8907 53.9163C77.5493 53.9163 78.1988 53.7697 78.7871 53.4881L110.629 35.8632L112.188 36.7165L79.7965 54.4896Z" fill="#187259"/>
<path opacity="0.25" d="M79.7965 54.4896C78.818 54.9622 77.7359 55.2086 76.6383 55.2086C75.5406 55.2086 74.4585 54.9622 73.4801 54.4896L67.943 51.4569C66.1987 50.4977 66.1987 48.9461 67.943 47.9869L100.349 30.2139L101.722 30.9615L69.8505 48.5935C68.804 49.1647 68.804 50.0957 69.8505 50.667L74.9942 53.4881C75.5825 53.7697 76.232 53.9163 76.8907 53.9163C77.5493 53.9163 78.1988 53.7697 78.7871 53.4881L110.629 35.8632L112.188 36.7165L79.7965 54.4896Z" fill="black"/>
<path d="M112.197 36.7096V98.4781L79.7983 116.258C78.8188 116.728 77.7371 116.972 76.6401 116.972C75.5431 116.972 74.4614 116.728 73.4819 116.258L67.9448 113.218C67.5848 113.065 67.2742 112.824 67.0446 112.519C66.8151 112.214 66.6749 111.857 66.6384 111.483V49.7009C66.6762 50.0728 66.8169 50.4287 67.0464 50.7322C67.2759 51.0357 67.5858 51.2761 67.9448 51.4288L73.4819 54.4756C74.4603 54.9482 75.5424 55.1946 76.6401 55.1946C77.7377 55.1946 78.8198 54.9482 79.7983 54.4756L112.197 36.7096Z" fill="#187259"/>
<path opacity="0.15" d="M76.6364 55.216C75.5387 55.2411 74.4526 54.9982 73.4819 54.5107L67.9448 51.4639C67.5858 51.3111 67.2759 51.0708 67.0464 50.7673C66.8169 50.4638 66.6762 50.1079 66.6384 49.736V111.519C66.6749 111.892 66.8151 112.249 67.0446 112.554C67.2742 112.859 67.5848 113.1 67.9448 113.254L73.4819 116.293C74.4538 116.778 75.539 117.021 76.6364 116.999V55.216Z" fill="black"/>
</svg>
