<svg width="121" height="96" viewBox="0 0 121 96" fill="none" xmlns="http://www.w3.org/2000/svg">
<path d="M10.8365 27.3897V29.3664C10.8344 29.3908 10.8344 29.4153 10.8365 29.4397C10.8537 29.8195 11.0044 30.1811 11.262 30.4608C11.5196 30.7404 11.8676 30.9202 12.2448 30.9685L20.8969 32.0796V25.0469L12.3137 25.779C11.9648 25.809 11.635 25.9511 11.3734 26.1839C11.1119 26.4168 10.9326 26.7279 10.8624 27.071C10.8429 27.1761 10.8342 27.2829 10.8365 27.3897Z" fill="#263238"/>
<path opacity="0.4" d="M10.8365 27.39V29.3667C10.8344 29.3911 10.8344 29.4156 10.8365 29.4399H14.9408C15.1323 29.4388 15.3157 29.3622 15.4511 29.2268C15.5866 29.0913 15.6631 28.908 15.6643 28.7164V27.7948C15.6643 27.6029 15.5881 27.4189 15.4524 27.2832C15.3167 27.1475 15.1326 27.0713 14.9408 27.0713H10.8581C10.84 27.1765 10.8328 27.2833 10.8365 27.39Z" fill="white"/>
<path d="M110.118 27.3897V29.3664C110.12 29.3908 110.12 29.4153 110.118 29.4397C110.101 29.8195 109.95 30.1811 109.692 30.4608C109.435 30.7404 109.087 30.9202 108.71 30.9685L100.058 32.0796V25.0469L108.641 25.779C108.99 25.809 109.319 25.9511 109.581 26.1839C109.843 26.4168 110.022 26.7279 110.092 27.071C110.112 27.1761 110.12 27.2829 110.118 27.3897Z" fill="#263238"/>
<path opacity="0.4" d="M110.117 27.39V29.3667C110.119 29.3911 110.119 29.4156 110.117 29.4399H106.009C105.817 29.4388 105.634 29.3622 105.498 29.2268C105.363 29.0913 105.286 28.908 105.285 28.7164V27.7948C105.285 27.6998 105.304 27.6057 105.34 27.5179C105.377 27.4301 105.43 27.3504 105.497 27.2832C105.564 27.216 105.644 27.1627 105.732 27.1264C105.82 27.09 105.914 27.0713 106.009 27.0713H110.091C110.111 27.1764 110.119 27.2831 110.117 27.39Z" fill="white"/>
<path d="M17.3691 32.9888L17.7697 31.4815C21.7619 16.4642 26.9127 6.14111 26.9644 6.03775L27.1237 5.72336L27.4252 5.54679C27.718 5.37022 34.8757 1.2832 60.4701 1.2832C86.0646 1.2832 93.2007 5.37022 93.5151 5.54679L93.8166 5.72336L93.9716 6.03775C94.0233 6.14111 99.174 16.4642 103.166 31.4815L103.567 32.9888H17.3691Z" fill="#187259"/>
<path opacity="0.2" d="M17.3691 32.9888L17.7697 31.4815C21.7619 16.4642 26.9127 6.14111 26.9644 6.03775L27.1237 5.72336L27.4252 5.54679C27.718 5.37022 34.8757 1.2832 60.4701 1.2832C86.0646 1.2832 93.2007 5.37022 93.5151 5.54679L93.8166 5.72336L93.9716 6.03775C94.0233 6.14111 99.174 16.4642 103.166 31.4815L103.567 32.9888H17.3691Z" fill="black"/>
<path d="M92.8001 8.31167C92.8001 8.31167 90.4056 1.64067 89.0404 0.391736L87.0895 0.0127482C86.9841 -0.00800132 86.8753 -0.00234474 86.7727 0.029203C86.6701 0.0607508 86.5768 0.117209 86.5014 0.193548C86.4259 0.269887 86.3705 0.36373 86.3401 0.466696C86.3097 0.569662 86.3053 0.678549 86.3272 0.783643L87.5632 6.5804L90.1946 10.0257L92.8001 8.31167Z" fill="#263238"/>
<path d="M28.136 8.31149C28.136 8.31149 30.5348 1.64048 31.8957 0.391546L33.8509 0.0125582C33.9561 -0.00849486 34.0649 -0.00301031 34.1675 0.028507C34.27 0.0600244 34.3631 0.116587 34.4383 0.193089C34.5135 0.26959 34.5685 0.36362 34.5983 0.46669C34.6281 0.569761 34.6317 0.678624 34.6089 0.783453L33.3772 6.58021L30.7458 10.0255L28.136 8.31149Z" fill="#263238"/>
<path d="M102.004 33.5267H18.9326C22.9378 18.4534 28.0412 8.31122 28.0412 8.31122C28.0412 8.31122 34.7208 4.33618 59.3893 4.22852C59.7425 4.22852 60.1042 4.22852 60.4703 4.22852C62.8045 4.22852 64.988 4.26727 67.0164 4.32757C71.2111 4.45246 74.7684 4.69794 77.7831 5.01232C81.4328 5.34353 85.0522 5.95107 88.61 6.82973C89.2474 6.99339 89.7943 7.14843 90.2767 7.29916C91.1694 7.55384 92.0349 7.89571 92.8607 8.31984C92.8607 8.31984 97.9985 18.4577 102.004 33.5267Z" fill="#263238"/>
<path opacity="0.2" d="M59.3898 4.22864L30.9659 33.5139H18.9072C22.9124 18.4406 28.0158 8.29843 28.0158 8.29843C28.0158 8.29843 34.7213 4.3363 59.3898 4.22864Z" fill="white"/>
<path opacity="0.2" d="M77.8178 4.9953L51.6377 33.5183H39.2646L67.0167 4.31055C71.2114 4.44405 74.7773 4.68953 77.8178 4.9953Z" fill="white"/>
<path opacity="0.2" d="M90.3073 7.2908L68.6922 33.5269H66.134L88.6406 6.82568C89.2651 6.98503 89.812 7.14868 90.3073 7.2908Z" fill="white"/>
<path opacity="0.4" d="M102.004 33.5267H18.9326C22.9378 18.4534 28.0412 8.31122 28.0412 8.31122C28.0412 8.31122 34.7208 4.33618 59.3893 4.22852C59.7425 4.22852 60.1042 4.22852 60.4703 4.22852C62.8045 4.22852 64.988 4.26727 67.0164 4.32757C71.2111 4.45246 74.7684 4.69794 77.7831 5.01232C81.4328 5.34353 85.0522 5.95107 88.61 6.82973C89.2474 6.99339 89.7943 7.14843 90.2767 7.29916C91.1694 7.55384 92.0349 7.89571 92.8607 8.31984C92.8607 8.31984 97.9985 18.4577 102.004 33.5267Z" fill="white"/>
<path opacity="0.2" d="M98.6923 31.7655C98.5462 31.0578 98.1724 30.4174 97.628 29.9422C97.0836 29.467 96.3986 29.1832 95.6776 29.1341C82.416 28.4738 69.1414 28.1867 55.854 28.2728C55.643 27.8421 55.4233 27.4115 55.2166 27.0024C54.9508 26.4245 54.5263 25.9339 53.9927 25.5878C53.459 25.2417 52.838 25.0542 52.2019 25.0471C50.5309 25.073 48.86 25.1074 47.189 25.1505C46.6128 24.2677 45.8143 23.5522 44.8739 23.0759C43.9334 22.5996 42.8841 22.3794 41.8315 22.4373C40.7563 22.491 39.7094 22.8003 38.7776 23.3395C37.8459 23.8788 37.0562 24.6325 36.474 25.5381C34.8059 25.6156 33.1364 25.7017 31.4654 25.7965C30.8326 25.847 30.2233 26.0588 29.6956 26.4116C29.1678 26.7645 28.7393 27.2466 28.4507 27.812C28.2397 28.2125 28.0201 28.613 27.8133 29.0136L25.2681 29.1341C24.5472 29.1832 23.8621 29.467 23.3177 29.9422C22.7733 30.4174 22.3995 31.0578 22.2535 31.7655C21.8831 33.5829 21.5127 35.3874 21.1423 37.179H99.8034C99.433 35.3874 99.0627 33.5829 98.6923 31.7655ZM41.8229 23.7724C42.5147 23.737 43.2064 23.8454 43.8542 24.0908C44.5021 24.3361 45.0921 24.7131 45.5869 25.1979C43.0776 25.2668 40.5697 25.3572 38.0632 25.4692C39.0504 24.4395 40.3976 23.8314 41.8229 23.7724Z" fill="black"/>
<path d="M96.6726 76.7313C96.4917 76.342 96.2339 75.9933 95.9146 75.7063V64.0784H91.5993V75.7063C91.2814 75.9945 91.0237 76.3429 90.8414 76.7313H75.0919V75.3661H69.9584V73.7727H66.5949C65.9038 72.7899 64.9864 71.9878 63.9202 71.4341C62.8539 70.8804 61.6701 70.5914 60.4687 70.5914C59.2672 70.5914 58.0834 70.8804 57.0172 71.4341C55.9509 71.9878 55.0336 72.7899 54.3425 73.7727H50.979V75.3661H45.8454V76.7313H30.1089C29.9251 76.3437 29.6677 75.9956 29.3509 75.7063V64.0784H25.0443V75.7063C24.725 75.9933 24.4672 76.342 24.2863 76.7313H21.3879V79.4445H24.2863C24.5441 80.0019 24.956 80.4738 25.4734 80.8046C25.9909 81.1354 26.5921 81.3112 27.2062 81.3112C27.8203 81.3112 28.4216 81.1354 28.939 80.8046C29.4564 80.4738 29.8684 80.0019 30.1261 79.4445H45.8627V80.7925H50.9962V82.386H54.3597C55.0508 83.3687 55.9682 84.1708 57.0344 84.7245C58.1007 85.2782 59.2845 85.5672 60.4859 85.5672C61.6874 85.5672 62.8712 85.2782 63.9374 84.7245C65.0036 84.1708 65.921 83.3687 66.6121 82.386H69.9756V80.7925H75.1092V79.4273H90.85C91.1078 79.9847 91.5197 80.4566 92.0371 80.7874C92.5545 81.1182 93.1558 81.2939 93.7699 81.2939C94.384 81.2939 94.9853 81.1182 95.5027 80.7874C96.0201 80.4566 96.432 79.9847 96.6898 79.4273H99.5882V76.7141L96.6726 76.7313Z" fill="black"/>
<path d="M24.3243 55.4781V92.7995C24.33 93.2096 24.2549 93.6167 24.1032 93.9977C23.9515 94.3787 23.7263 94.7261 23.4403 95.0201C23.1544 95.314 22.8133 95.5487 22.4367 95.7109C22.06 95.873 21.6551 95.9593 21.245 95.9649H3.07956C2.66952 95.9593 2.2646 95.873 1.88793 95.7109C1.51126 95.5487 1.17021 95.314 0.884271 95.0201C0.598328 94.7261 0.373089 94.3787 0.221417 93.9977C0.0697443 93.6167 -0.00539365 93.2096 0.000301088 92.7995V55.4781C-0.00889888 54.6514 0.310103 53.8549 0.887346 53.2631C1.46459 52.6713 2.25296 52.3326 3.07956 52.3213H21.245C22.0716 52.3326 22.86 52.6713 23.4373 53.2631C24.0145 53.8549 24.3335 54.6514 24.3243 55.4781Z" fill="#263238"/>
<path opacity="0.1" d="M22.8087 55.4779V92.7994C22.8087 94.5479 22.9465 95.9648 21.2454 95.9648H3.0799C1.35723 95.9648 1.51658 94.5479 1.51658 92.7994V55.4779C1.51658 53.7553 1.37877 52.3212 3.0799 52.3212H21.2454C22.9465 52.3212 22.8087 53.7381 22.8087 55.4779Z" fill="white"/>
<path d="M4.9622 94.238C4.9168 94.2873 4.8916 94.3519 4.8916 94.4189C4.8916 94.4859 4.9168 94.5505 4.9622 94.5997L6.29295 95.965H7.00356L5.32396 94.2423C5.30092 94.2175 5.27309 94.1977 5.24215 94.184C5.21122 94.1703 5.17783 94.163 5.144 94.1626C5.11017 94.1622 5.07661 94.1687 5.04536 94.1816C5.01411 94.1946 4.98582 94.2138 4.9622 94.238Z" fill="#263238"/>
<path d="M19.006 90.9475L14.1179 95.9648H14.8371L19.3634 91.3093C19.3879 91.286 19.4074 91.2579 19.4208 91.2268C19.4341 91.1957 19.4409 91.1622 19.4409 91.1284C19.4409 91.0946 19.4341 91.0611 19.4208 91.03C19.4074 90.9989 19.3879 90.9708 19.3634 90.9475C19.3412 90.9219 19.3137 90.9015 19.2829 90.8874C19.2521 90.8734 19.2186 90.8661 19.1847 90.8661C19.1508 90.8661 19.1173 90.8734 19.0865 90.8874C19.0557 90.9015 19.0282 90.9219 19.006 90.9475Z" fill="#263238"/>
<path d="M19.3638 64.6124C19.3409 64.588 19.3132 64.5686 19.2824 64.5553C19.2517 64.542 19.2186 64.5352 19.1851 64.5352C19.1516 64.5352 19.1185 64.542 19.0877 64.5553C19.057 64.5686 19.0293 64.588 19.0063 64.6124L13.7652 69.9914L10.9185 67.0715L19.3638 58.3979C19.3885 58.3738 19.4082 58.345 19.4216 58.3132C19.4351 58.2814 19.442 58.2472 19.442 58.2127C19.442 58.1782 19.4351 58.144 19.4216 58.1122C19.4082 58.0804 19.3885 58.0516 19.3638 58.0275C19.3409 58.0031 19.3132 57.9837 19.2824 57.9704C19.2517 57.9571 19.2186 57.9503 19.1851 57.9503C19.1516 57.9503 19.1185 57.9571 19.0877 57.9704C19.057 57.9837 19.0293 58.0031 19.0063 58.0275L13.7652 63.4108L10.9185 60.4866L18.8685 52.304H18.1536L13.7652 56.8087L10.9185 53.8845L12.4602 52.304H11.741L10.561 53.5184L9.38097 52.304H8.66176L13.3991 57.1791L10.561 60.1205L5.3241 54.7372C5.30077 54.7127 5.27271 54.6932 5.24162 54.6799C5.21053 54.6666 5.17705 54.6597 5.14323 54.6597C5.1094 54.6597 5.07592 54.6666 5.04483 54.6799C5.01374 54.6932 4.98568 54.7127 4.96235 54.7372C4.91635 54.7879 4.89087 54.8539 4.89087 54.9224C4.89087 54.9909 4.91635 55.0569 4.96235 55.1076L13.4077 63.7769L10.561 66.7011L5.3241 61.3221C5.30077 61.2976 5.27271 61.2781 5.24162 61.2648C5.21053 61.2514 5.17705 61.2446 5.14323 61.2446C5.1094 61.2446 5.07592 61.2514 5.04483 61.2648C5.01374 61.2781 4.98568 61.2976 4.96235 61.3221C4.91665 61.3721 4.89131 61.4374 4.89131 61.5051C4.89131 61.5729 4.91665 61.6382 4.96235 61.6882L13.4077 70.3618L10.561 73.286L5.3241 67.9027C5.30077 67.8782 5.27271 67.8587 5.24162 67.8453C5.21053 67.832 5.17705 67.8251 5.14323 67.8251C5.1094 67.8251 5.07592 67.832 5.04483 67.8453C5.01374 67.8587 4.98568 67.8782 4.96235 67.9027C4.91635 67.9534 4.89087 68.0194 4.89087 68.0878C4.89087 68.1563 4.91635 68.2223 4.96235 68.273L13.4077 76.9466L10.561 79.8665L5.3241 74.4875C5.30077 74.463 5.27271 74.4435 5.24162 74.4302C5.21053 74.4169 5.17705 74.41 5.14323 74.41C5.1094 74.41 5.07592 74.4169 5.04483 74.4302C5.01374 74.4435 4.98568 74.463 4.96235 74.4875C4.91665 74.5375 4.89131 74.6028 4.89131 74.6706C4.89131 74.7383 4.91665 74.8036 4.96235 74.8536L13.4077 83.5272L10.561 86.4514L5.3241 81.0724C5.30077 81.0479 5.27271 81.0284 5.24162 81.0151C5.21053 81.0018 5.17705 80.9949 5.14323 80.9949C5.1094 80.9949 5.07592 81.0018 5.04483 81.0151C5.01374 81.0284 4.98568 81.0479 4.96235 81.0724C4.91695 81.1217 4.89175 81.1863 4.89175 81.2533C4.89175 81.3203 4.91695 81.3849 4.96235 81.4342L13.4077 90.1121L10.561 93.0363L5.3241 87.653C5.30077 87.6285 5.27271 87.609 5.24162 87.5957C5.21053 87.5823 5.17705 87.5755 5.14323 87.5755C5.1094 87.5755 5.07592 87.5823 5.04483 87.5957C5.01374 87.609 4.98568 87.6285 4.96235 87.653C4.91695 87.7023 4.89175 87.7668 4.89175 87.8339C4.89175 87.9009 4.91695 87.9654 4.96235 88.0147L12.7143 95.9648H13.4292L10.9357 93.3808L19.381 84.7029C19.4055 84.6796 19.425 84.6515 19.4383 84.6204C19.4517 84.5893 19.4585 84.5559 19.4585 84.522C19.4585 84.4882 19.4517 84.4547 19.4383 84.4236C19.425 84.3925 19.4055 84.3645 19.381 84.3412C19.3581 84.3168 19.3304 84.2974 19.2996 84.2841C19.2689 84.2708 19.2358 84.264 19.2023 84.264C19.1688 84.264 19.1357 84.2708 19.105 84.2841C19.0742 84.2974 19.0465 84.3168 19.0236 84.3412L13.7824 89.7202L10.9185 86.8218L19.3638 78.1482C19.3884 78.1245 19.408 78.0961 19.4214 78.0646C19.4348 78.0332 19.4416 77.9993 19.4416 77.9652C19.4416 77.931 19.4348 77.8972 19.4214 77.8657C19.408 77.8343 19.3884 77.8058 19.3638 77.7821C19.3409 77.7578 19.3132 77.7383 19.2824 77.725C19.2517 77.7118 19.2186 77.7049 19.1851 77.7049C19.1516 77.7049 19.1185 77.7118 19.0877 77.725C19.057 77.7383 19.0293 77.7578 19.0063 77.7821L13.7652 83.1654L10.9185 80.2412L19.3638 71.5633C19.3883 71.54 19.4078 71.5119 19.4211 71.4808C19.4345 71.4497 19.4413 71.4163 19.4413 71.3824C19.4413 71.3486 19.4345 71.3151 19.4211 71.284C19.4078 71.253 19.3883 71.2249 19.3638 71.2016C19.3409 71.1772 19.3132 71.1578 19.2824 71.1445C19.2517 71.1312 19.2186 71.1244 19.1851 71.1244C19.1516 71.1244 19.1185 71.1312 19.0877 71.1445C19.057 71.1578 19.0293 71.1772 19.0063 71.2016L13.7652 76.5806L10.9185 73.6563L19.3638 64.9827C19.3891 64.959 19.4092 64.9303 19.423 64.8985C19.4368 64.8666 19.4439 64.8323 19.4439 64.7976C19.4439 64.7629 19.4368 64.7285 19.423 64.6967C19.4092 64.6648 19.3891 64.6361 19.3638 64.6124Z" fill="#263238"/>
<path d="M96.6126 55.4781V92.7995C96.6069 93.2096 96.682 93.6167 96.8337 93.9977C96.9854 94.3787 97.2106 94.7261 97.4966 95.0201C97.7825 95.314 98.1236 95.5487 98.5002 95.7109C98.8769 95.873 99.2818 95.9593 99.6919 95.9649H117.87C118.28 95.9593 118.685 95.873 119.062 95.7109C119.439 95.5487 119.78 95.314 120.066 95.0201C120.351 94.7261 120.577 94.3787 120.728 93.9977C120.88 93.6167 120.955 93.2096 120.95 92.7995V55.4781C120.959 54.6514 120.64 53.8549 120.062 53.2631C119.485 52.6713 118.697 52.3326 117.87 52.3213H99.6919C98.8653 52.3326 98.0769 52.6713 97.4996 53.2631C96.9224 53.8549 96.6034 54.6514 96.6126 55.4781Z" fill="#263238"/>
<path opacity="0.1" d="M98.1277 55.4779V92.7994C98.1277 94.5479 97.9899 95.9648 99.691 95.9648H117.869C119.571 95.9648 119.433 94.5479 119.433 92.7994V55.4779C119.433 53.7553 119.571 52.3212 117.869 52.3212H99.691C97.9899 52.3212 98.1277 53.7381 98.1277 55.4779Z" fill="white"/>
<path d="M115.975 94.2378C116.022 94.2861 116.048 94.351 116.048 94.4187C116.048 94.4863 116.022 94.5513 115.975 94.5996L114.648 95.9648H113.938L115.617 94.2421C115.64 94.2175 115.667 94.1977 115.698 94.184C115.728 94.1704 115.761 94.1631 115.795 94.1627C115.828 94.1623 115.862 94.1688 115.892 94.1817C115.923 94.1946 115.951 94.2137 115.975 94.2378Z" fill="#263238"/>
<path d="M101.935 90.9474L106.818 95.9646H106.103L101.573 91.3091C101.526 91.2608 101.499 91.1959 101.499 91.1283C101.499 91.0606 101.526 90.9957 101.573 90.9474C101.596 90.9217 101.623 90.9012 101.655 90.8871C101.686 90.873 101.72 90.8657 101.754 90.8657C101.788 90.8657 101.822 90.873 101.853 90.8871C101.884 90.9012 101.912 90.9217 101.935 90.9474Z" fill="#263238"/>
<path d="M101.573 64.6126C101.596 64.5881 101.624 64.5686 101.655 64.5553C101.686 64.542 101.72 64.5351 101.754 64.5351C101.787 64.5351 101.821 64.542 101.852 64.5553C101.883 64.5686 101.911 64.5881 101.934 64.6126L107.171 69.9916L110.018 67.0717L101.573 58.3981C101.525 58.3484 101.498 58.282 101.498 58.2129C101.498 58.1439 101.525 58.0775 101.573 58.0277C101.596 58.0033 101.624 57.9837 101.655 57.9704C101.686 57.9571 101.72 57.9502 101.754 57.9502C101.787 57.9502 101.821 57.9571 101.852 57.9704C101.883 57.9837 101.911 58.0033 101.934 58.0277L107.171 63.4111L110.018 60.4868L102.068 52.3042H102.796L107.18 56.809L110.027 53.8847L108.489 52.3042H109.204L110.384 53.5187L111.568 52.3042H112.27L107.533 57.1793L110.376 60.1208L115.617 54.7418C115.64 54.7174 115.667 54.698 115.698 54.6847C115.729 54.6714 115.762 54.6646 115.795 54.6646C115.829 54.6646 115.862 54.6714 115.893 54.6847C115.924 54.698 115.951 54.7174 115.974 54.7418C116.022 54.7915 116.049 54.8579 116.049 54.927C116.049 54.996 116.022 55.0624 115.974 55.1121L107.533 63.7771L110.38 66.7013L115.621 61.3223C115.644 61.298 115.672 61.2785 115.702 61.2653C115.733 61.252 115.766 61.2451 115.8 61.2451C115.833 61.2451 115.866 61.252 115.897 61.2653C115.928 61.2785 115.956 61.298 115.978 61.3223C116.026 61.3714 116.053 61.437 116.053 61.5054C116.053 61.5737 116.026 61.6394 115.978 61.6884L107.533 70.362L110.38 73.2862L115.621 67.9029C115.644 67.8785 115.672 67.8591 115.702 67.8458C115.733 67.8325 115.766 67.8257 115.8 67.8257C115.833 67.8257 115.866 67.8325 115.897 67.8458C115.928 67.8591 115.956 67.8785 115.978 67.9029C116.026 67.9527 116.053 68.019 116.053 68.0881C116.053 68.1571 116.026 68.2235 115.978 68.2733L107.533 76.9469L110.38 79.8668L115.621 74.4878C115.644 74.4634 115.672 74.444 115.702 74.4307C115.733 74.4174 115.766 74.4106 115.8 74.4106C115.833 74.4106 115.866 74.4174 115.897 74.4307C115.928 74.444 115.956 74.4634 115.978 74.4878C116.026 74.5368 116.053 74.6025 116.053 74.6708C116.053 74.7392 116.026 74.8048 115.978 74.8538L107.533 83.5275L110.38 86.4517L115.621 81.0727C115.644 81.0483 115.672 81.0288 115.702 81.0156C115.733 81.0023 115.766 80.9954 115.8 80.9954C115.833 80.9954 115.866 81.0023 115.897 81.0156C115.928 81.0288 115.956 81.0483 115.978 81.0727C116.026 81.121 116.052 81.1859 116.052 81.2535C116.052 81.3212 116.026 81.3861 115.978 81.4344L107.533 90.1123L110.38 93.0365L115.621 87.6532C115.644 87.6288 115.672 87.6094 115.702 87.5961C115.733 87.5829 115.766 87.576 115.8 87.576C115.833 87.576 115.866 87.5829 115.897 87.5961C115.928 87.6094 115.956 87.6288 115.978 87.6532C116.026 87.7015 116.052 87.7665 116.052 87.8341C116.052 87.9017 116.026 87.9667 115.978 88.015L108.226 95.9651H107.533L110.027 93.3811L101.581 84.7032C101.534 84.6549 101.507 84.5899 101.507 84.5223C101.507 84.4547 101.534 84.3897 101.581 84.3414C101.605 84.3169 101.633 84.2974 101.664 84.2841C101.695 84.2708 101.728 84.2639 101.762 84.2639C101.796 84.2639 101.829 84.2708 101.861 84.2841C101.892 84.2974 101.92 84.3169 101.943 84.3414L107.18 89.7204L110.027 86.7962L101.581 78.1226C101.534 78.0736 101.507 78.0079 101.507 77.9396C101.507 77.8712 101.534 77.8056 101.581 77.7565C101.605 77.732 101.633 77.7125 101.664 77.6992C101.695 77.6859 101.728 77.679 101.762 77.679C101.796 77.679 101.829 77.6859 101.861 77.6992C101.892 77.7125 101.92 77.732 101.943 77.7565L107.18 83.1399L110.027 80.2156L101.581 71.5377C101.534 71.4894 101.507 71.4245 101.507 71.3568C101.507 71.2892 101.534 71.2243 101.581 71.176C101.605 71.1515 101.633 71.132 101.664 71.1186C101.695 71.1053 101.728 71.0984 101.762 71.0984C101.796 71.0984 101.829 71.1053 101.861 71.1186C101.892 71.132 101.92 71.1515 101.943 71.176L107.18 76.555L110.027 73.6308L101.581 64.9572C101.539 64.9104 101.514 64.8498 101.513 64.7865C101.511 64.7232 101.532 64.6614 101.573 64.6126Z" fill="#263238"/>
<path d="M12.3175 38.1565L2.90314 42.4631C2.51863 42.631 2.19151 42.9074 1.96199 43.2586C1.73246 43.6098 1.61052 44.0204 1.61114 44.4399V62.446C1.60777 62.9184 1.75983 63.3788 2.04388 63.7562C2.32793 64.1337 2.72822 64.4072 3.18307 64.5348L9.92729 66.4814L12.3175 38.1565Z" fill="#187259"/>
<path opacity="0.1" d="M12.3175 38.1565L2.90314 42.4631C2.51863 42.631 2.19151 42.9074 1.96199 43.2586C1.73246 43.6098 1.61052 44.0204 1.61114 44.4399V62.446C1.60777 62.9184 1.75983 63.3788 2.04388 63.7562C2.32793 64.1337 2.72822 64.4072 3.18307 64.5348L9.92729 66.4814L12.3175 38.1565Z" fill="black"/>
<path opacity="0.4" d="M9.5181 41.1626H9.13481L8.94531 41.4899L9.13481 41.8215H9.5181L9.70759 41.4899L9.5181 41.1626Z" fill="white"/>
<path opacity="0.4" d="M8.40286 48.2384H8.02388L7.83008 48.57L8.02388 48.8973H8.40286L8.59235 48.57L8.40286 48.2384Z" fill="white"/>
<path opacity="0.4" d="M7.28723 55.3188H6.90824L6.71875 55.6461L6.90824 55.9778H7.28723L7.47672 55.6461L7.28723 55.3188Z" fill="white"/>
<path opacity="0.4" d="M6.17199 62.3944H5.793L5.60352 62.726L5.793 63.0533H6.17199L6.36579 62.726L6.17199 62.3944Z" fill="white"/>
<path d="M108.619 38.1565L118.038 42.4631C118.417 42.6348 118.739 42.9129 118.964 43.2638C119.189 43.6147 119.307 44.0232 119.304 44.4399V62.446C119.307 62.9184 119.155 63.3788 118.871 63.7562C118.587 64.1337 118.187 64.4072 117.732 64.5348L110.979 66.4814L108.619 38.1565Z" fill="#187259"/>
<path opacity="0.1" d="M108.619 38.1565L118.038 42.4631C118.417 42.6348 118.739 42.9129 118.964 43.2638C119.189 43.6147 119.307 44.0232 119.304 44.4399V62.446C119.307 62.9184 119.155 63.3788 118.871 63.7562C118.587 64.1337 118.187 64.4072 117.732 64.5348L110.979 66.4814L108.619 38.1565Z" fill="black"/>
<path opacity="0.4" d="M111.423 41.1626H111.802L111.996 41.4899L111.802 41.8215H111.423L111.233 41.4899L111.423 41.1626Z" fill="white"/>
<path opacity="0.4" d="M112.539 48.2383H112.918L113.107 48.5699L112.918 48.8972H112.539L112.345 48.5699L112.539 48.2383Z" fill="white"/>
<path opacity="0.4" d="M113.648 55.3188H114.032L114.221 55.6461L114.032 55.9778H113.648L113.459 55.6461L113.648 55.3188Z" fill="white"/>
<path opacity="0.4" d="M114.765 62.3945H115.148L115.337 62.7261L115.148 63.0534H114.765L114.575 62.7261L114.765 62.3945Z" fill="white"/>
<path d="M7.00293 64.0827H113.937C112.215 54.5794 110.483 44.9856 108.743 35.3013C108.513 34.0078 107.852 32.8302 106.867 31.96C105.883 31.0898 104.633 30.578 103.321 30.508C74.7719 29.0696 46.1682 29.0696 17.6188 30.508C16.3068 30.578 15.057 31.0898 14.0726 31.96C13.0883 32.8302 12.4272 34.0078 12.1968 35.3013C10.4655 44.9827 8.73421 54.5765 7.00293 64.0827Z" fill="#187259"/>
<path opacity="0.1" d="M7.00293 64.0868H113.933C112.21 54.5777 110.48 44.9825 108.743 35.3011C108.513 34.0076 107.852 32.83 106.867 31.9598C105.883 31.0896 104.633 30.5778 103.321 30.5078C95.4516 30.1116 87.5805 29.8245 79.7079 29.6465C80.0135 29.7106 80.2923 29.866 80.5077 30.0921C80.723 30.3182 80.8646 30.6043 80.9137 30.9126L84.1567 58.4365H36.7834L40.0221 30.9126C40.074 30.6055 40.2166 30.3208 40.4314 30.0952C40.6463 29.8696 40.9236 29.7134 41.2279 29.6465C33.3553 29.8188 25.4857 30.1059 17.6188 30.5078C16.3068 30.5778 15.057 31.0896 14.0726 31.9598C13.0883 32.83 12.4272 34.0076 12.1968 35.3011C10.4712 44.9767 8.73995 54.572 7.00293 64.0868Z" fill="white"/>
<path d="M39.002 58.4495H81.9393L79.0022 29.2116C78.9634 28.8314 78.7871 28.4784 78.5063 28.219C78.2256 27.9597 77.8597 27.8119 77.4776 27.8033C66.1396 27.5708 54.7988 27.5708 43.455 27.8033C43.0726 27.8109 42.7063 27.9585 42.4253 28.218C42.1444 28.4775 41.9683 28.831 41.9305 29.2116L39.002 58.4495Z" fill="#187259"/>
<path opacity="0.1" d="M39.002 58.4495H81.9393L79.0022 29.2116C78.9634 28.8314 78.7871 28.4784 78.5063 28.219C78.2256 27.9597 77.8597 27.8119 77.4776 27.8033C66.1396 27.5708 54.7988 27.5708 43.455 27.8033C43.0726 27.8109 42.7063 27.9585 42.4253 28.218C42.1444 28.4775 41.9683 28.831 41.9305 29.2116L39.002 58.4495Z" fill="white"/>
<path d="M85.2678 37.0498L86.2238 49.7243L77.6665 55.267H42.9721L35.2158 48.7553L37.55 38.1394L43.8421 41.49H78.5365L85.2678 37.0498Z" fill="black"/>
<path d="M37.4601 34.9913L42.9252 38.9104H59.7944H61.1467H78.0159L83.481 34.9913L87.6628 36.6537L87.1244 36.7441L78.2527 43.0362H61.1467H59.7944H42.6884L33.8167 36.7441L33.2783 36.6537L37.4601 34.9913Z" fill="#187259"/>
<path d="M36.6977 48.1652L42.3438 52.2134H59.7728H61.1682H78.5972L84.2432 48.1652L88.5628 49.8835L88.0072 49.9783L78.8427 56.477H61.1682H59.7728H42.0983L32.9337 49.9783L32.3782 49.8835L36.6977 48.1652Z" fill="#187259"/>
<g opacity="0.4">
<path d="M37.4603 34.9915L42.9255 38.9105H59.7946H61.1469H78.0161L83.4812 34.9915L87.663 36.6538L87.1247 36.7443L78.253 43.0363H61.1469H59.7946H42.6886L33.8169 36.7443L33.2786 36.6538L37.4603 34.9915Z" fill="white"/>
<path d="M36.698 48.1655L42.344 52.2138H59.7731H61.1684H78.5974L84.2435 48.1655L88.563 49.8839L88.0075 49.9786L78.8429 56.4774H61.1684H59.7731H42.0985L32.934 49.9786L32.3784 49.8839L36.698 48.1655Z" fill="white"/>
</g>
<path opacity="0.4" d="M33.2783 38.458L33.8167 38.5484L42.6884 44.8447H78.2527L87.1287 38.5484L87.6628 38.458L86.8574 38.1393L78.2527 44.2418H42.6884L34.0794 38.1393L33.2783 38.458Z" fill="white"/>
<path opacity="0.4" d="M33.2783 41.4641L33.8167 41.5545L42.6884 47.8465H78.2527L87.1287 41.5545L87.6628 41.4641L86.8574 41.1454L78.2527 47.2479H42.6884L34.0794 41.1454L33.2783 41.4641Z" fill="white"/>
<path opacity="0.4" d="M33.2783 44.4702L33.8167 44.5606L42.6884 50.8526H78.2527L87.1287 44.5606L87.6628 44.4702L86.8574 44.1515L78.2527 50.254H42.6884L34.0794 44.1515L33.2783 44.4702Z" fill="white"/>
<path d="M85.4836 52.6228C85.7563 52.6228 86.0275 52.5836 86.289 52.5065L105.811 46.8734C106.506 46.6745 107.102 46.2234 107.482 45.6085C107.861 44.9937 107.998 44.2591 107.865 43.5487L106.802 37.8294C106.679 37.1618 106.326 36.5584 105.804 36.1241C105.282 35.6898 104.625 35.452 103.946 35.4521H87.6628C86.9826 35.4529 86.3243 35.6922 85.8023 36.1283L81.9264 39.3583C81.5221 39.696 81.2171 40.1373 81.0442 40.6349C80.8712 41.1325 80.8368 41.6678 80.9444 42.1835L82.6413 50.3101C82.7799 50.9621 83.1374 51.5471 83.6545 51.9678C84.1716 52.3885 84.817 52.6197 85.4836 52.6228Z" fill="#263238"/>
<path d="M35.4575 52.6228C36.1241 52.6197 36.7696 52.3885 37.2867 51.9678C37.8037 51.5471 38.1613 50.9621 38.2999 50.3101L39.9924 42.1835C40.1006 41.6678 40.0663 41.1324 39.8934 40.6347C39.7204 40.137 39.4152 39.6957 39.0105 39.3583L35.1345 36.1283C34.6126 35.6922 33.9542 35.4529 33.274 35.4521H16.9777C16.2984 35.4518 15.6404 35.6895 15.118 36.1237C14.5956 36.558 14.2418 37.1615 14.118 37.8294L13.0586 43.5487C12.9256 44.2591 13.0624 44.9937 13.4424 45.6085C13.8223 46.2234 14.418 46.6745 15.1129 46.8734L34.6479 52.5065C34.9108 52.5839 35.1835 52.6231 35.4575 52.6228Z" fill="#263238"/>
<path opacity="0.4" d="M106.698 43.7552L105.638 38.036C105.563 37.6459 105.355 37.2938 105.049 37.0395C104.744 36.7852 104.36 36.6443 103.963 36.6406H87.6623C87.2627 36.6418 86.876 36.7819 86.5684 37.0368L82.6924 40.2668C82.4564 40.4661 82.2783 40.7251 82.1768 41.0168C82.0752 41.3085 82.054 41.6222 82.1153 41.9249L83.8121 50.0515C83.862 50.2815 83.9585 50.4988 84.0956 50.69C84.2327 50.8812 84.4075 51.0423 84.6093 51.1634C84.8111 51.2844 85.0355 51.3629 85.2687 51.3939C85.502 51.4248 85.7391 51.4077 85.9655 51.3435L105.505 45.7061C105.908 45.5831 106.252 45.3167 106.472 44.9572C106.691 44.5976 106.772 44.17 106.698 43.7552Z" fill="white"/>
<path opacity="0.2" d="M91.9871 48.1836C94.5103 47.5881 96.073 45.0598 95.4775 42.5366C94.8819 40.0134 92.3537 38.4507 89.8304 39.0462C87.3072 39.6417 85.7445 42.17 86.34 44.6932C86.9356 47.2165 89.4638 48.7792 91.9871 48.1836Z" fill="white"/>
<path opacity="0.2" d="M97.0984 40.3658C97.0975 40.8949 97.2537 41.4124 97.547 41.8528C97.8404 42.2932 98.2578 42.6367 98.7464 42.8397C99.235 43.0428 99.7729 43.0964 100.292 42.9937C100.811 42.891 101.288 42.6366 101.662 42.2627C102.037 41.8889 102.292 41.4124 102.396 40.8935C102.499 40.3746 102.446 39.8366 102.244 39.3476C102.042 38.8587 101.699 38.4408 101.259 38.1467C100.819 37.8526 100.302 37.6957 99.7728 37.6957C99.0643 37.6957 98.3847 37.9769 97.8832 38.4775C97.3818 38.9781 97.0995 39.6573 97.0984 40.3658Z" fill="white"/>
<path opacity="0.4" d="M14.2426 43.7551L15.3021 38.0359C15.3775 37.6457 15.5856 37.2937 15.8909 37.0394C16.1962 36.7851 16.58 36.6442 16.9773 36.6405H33.278C33.6761 36.6427 34.0611 36.7827 34.3676 37.0367L38.2436 40.2667C38.4788 40.4664 38.6561 40.7257 38.7569 41.0174C38.8576 41.309 38.8782 41.6224 38.8164 41.9248L37.1239 50.0514C37.074 50.2814 36.9775 50.4986 36.8404 50.6899C36.7033 50.8811 36.5285 51.0422 36.3267 51.1632C36.1249 51.2843 35.9005 51.3627 35.6673 51.3937C35.434 51.4247 35.1969 51.4076 34.9705 51.3434L15.4313 45.706C15.0258 45.5872 14.6793 45.3214 14.4594 44.9605C14.2396 44.5997 14.1623 44.1699 14.2426 43.7551Z" fill="white"/>
<path opacity="0.2" d="M33.3408 46.9263C35.174 45.093 35.174 42.1208 33.3408 40.2876C31.5076 38.4544 28.5354 38.4544 26.7022 40.2876C24.8689 42.1208 24.8689 45.0931 26.7021 46.9263C28.5354 48.7595 31.5076 48.7595 33.3408 46.9263Z" fill="white"/>
<path opacity="0.2" d="M23.8383 40.3658C23.8383 40.8939 23.6817 41.4101 23.3883 41.8492C23.0949 42.2883 22.6779 42.6306 22.19 42.8327C21.7021 43.0348 21.1652 43.0877 20.6473 42.9846C20.1293 42.8816 19.6535 42.6273 19.2801 42.2539C18.9067 41.8805 18.6524 41.4047 18.5494 40.8867C18.4463 40.3688 18.4992 39.8319 18.7013 39.344C18.9034 38.8561 19.2456 38.4391 19.6847 38.1457C20.1238 37.8523 20.6401 37.6957 21.1682 37.6957C21.8763 37.6957 22.5555 37.977 23.0562 38.4777C23.557 38.9785 23.8383 39.6576 23.8383 40.3658Z" fill="white"/>
<path d="M82.4694 64.5262H38.4727L44.1833 42.6355C44.4036 41.7891 44.8987 41.0398 45.5908 40.5051C46.2829 39.9704 47.133 39.6806 48.0076 39.6812H72.9345C73.8095 39.6816 74.6596 39.9723 75.3517 40.5077C76.0438 41.0431 76.5386 41.793 76.7588 42.6398L82.4694 64.5262ZM40.8026 62.7261H80.1352L75.0146 43.092C74.8947 42.6314 74.6255 42.2235 74.2491 41.9321C73.8728 41.6407 73.4105 41.4822 72.9345 41.4813H48.0076C47.5309 41.4812 47.0676 41.6393 46.6904 41.9308C46.3131 42.2223 46.0433 42.6307 45.9232 43.092L40.8026 62.7261Z" fill="#263238"/>
<g opacity="0.5">
<path d="M82.4694 64.5262H38.4727L44.1833 42.6355C44.4036 41.7891 44.8987 41.0398 45.5908 40.5051C46.2829 39.9704 47.133 39.6806 48.0076 39.6812H72.9345C73.8095 39.6816 74.6596 39.9723 75.3517 40.5077C76.0438 41.0431 76.5386 41.793 76.7588 42.6398L82.4694 64.5262ZM40.8026 62.7261H80.1352L75.0146 43.092C74.8947 42.6314 74.6255 42.2235 74.2491 41.9321C73.8728 41.6407 73.4105 41.4822 72.9345 41.4813H48.0076C47.5309 41.4812 47.0676 41.6393 46.6904 41.9308C46.3131 42.2223 46.0433 42.6307 45.9232 43.092L40.8026 62.7261Z" fill="white"/>
</g>
<path d="M88.4764 58.3633H32.4598H4.33301V65.1893L32.4598 77.2092H88.4764L116.608 65.1893V58.3633H88.4764Z" fill="#263238"/>
<path opacity="0.5" d="M88.4764 58.3633H32.4598H4.33301V65.1893L32.4598 77.2092H88.4764L116.608 65.1893V58.3633H88.4764Z" fill="white"/>
<path d="M18.4854 64.1689H27.8523L26.8618 68.9666L18.9849 67.2267L18.4854 64.1689Z" fill="#263238"/>
<path d="M99.4805 64.1688H90.1135L91.1084 68.9664L98.9852 67.2266L99.4805 64.1688Z" fill="#263238"/>
<path opacity="0.1" d="M32.46 77.2093L36.5857 60.577H84.3552L88.4766 77.2093H32.46Z" fill="white"/>
<path opacity="0.2" d="M36.5855 60.5769H4.33301V58.3633H116.608V60.5769H84.355H36.5855Z" fill="white"/>
<path d="M41.1553 70.3059C41.1553 70.547 41.0839 70.7826 40.9499 70.9831C40.816 71.1835 40.6257 71.3397 40.403 71.432C40.1803 71.5242 39.9352 71.5483 39.6988 71.5013C39.4624 71.4543 39.2452 71.3382 39.0748 71.1678C38.9043 70.9973 38.7882 70.7801 38.7412 70.5437C38.6942 70.3073 38.7183 70.0622 38.8105 69.8395C38.9028 69.6168 39.059 69.4265 39.2594 69.2926C39.4599 69.1586 39.6955 69.0872 39.9366 69.0872C40.0966 69.0872 40.2551 69.1187 40.403 69.1799C40.5508 69.2412 40.6852 69.331 40.7984 69.4441C40.9115 69.5573 41.0013 69.6917 41.0626 69.8395C41.1238 69.9874 41.1553 70.1459 41.1553 70.3059Z" fill="#263238"/>
<path d="M46.2889 70.3059C46.2889 70.547 46.2174 70.7826 46.0835 70.9831C45.9496 71.1835 45.7592 71.3397 45.5365 71.432C45.3138 71.5242 45.0688 71.5483 44.8323 71.5013C44.5959 71.4543 44.3787 71.3382 44.2083 71.1678C44.0378 70.9973 43.9218 70.7801 43.8747 70.5437C43.8277 70.3073 43.8519 70.0622 43.9441 69.8395C44.0363 69.6168 44.1926 69.4265 44.393 69.2926C44.5934 69.1586 44.8291 69.0872 45.0701 69.0872C45.3933 69.0872 45.7033 69.2156 45.9319 69.4441C46.1605 69.6727 46.2889 69.9827 46.2889 70.3059Z" fill="#263238"/>
<path d="M51.4219 70.3059C51.4219 70.547 51.3505 70.7826 51.2165 70.9831C51.0826 71.1835 50.8923 71.3397 50.6696 71.432C50.4469 71.5242 50.2018 71.5483 49.9654 71.5013C49.729 71.4543 49.5118 71.3382 49.3413 71.1678C49.1709 70.9973 49.0548 70.7801 49.0078 70.5437C48.9608 70.3073 48.9849 70.0622 49.0771 69.8395C49.1694 69.6168 49.3256 69.4265 49.526 69.2926C49.7265 69.1586 49.9621 69.0872 50.2032 69.0872C50.5264 69.0872 50.8364 69.2156 51.065 69.4441C51.2935 69.6727 51.4219 69.9827 51.4219 70.3059Z" fill="#263238"/>
<path d="M56.5557 70.3059C56.5557 70.547 56.4842 70.7826 56.3503 70.9831C56.2164 71.1835 56.0261 71.3397 55.8034 71.432C55.5807 71.5242 55.3356 71.5483 55.0992 71.5013C54.8628 71.4543 54.6456 71.3382 54.4751 71.1678C54.3047 70.9973 54.1886 70.7801 54.1416 70.5437C54.0946 70.3073 54.1187 70.0622 54.2109 69.8395C54.3032 69.6168 54.4594 69.4265 54.6598 69.2926C54.8602 69.1586 55.0959 69.0872 55.3369 69.0872C55.6602 69.0872 55.9702 69.2156 56.1988 69.4441C56.4273 69.6727 56.5557 69.9827 56.5557 70.3059Z" fill="#263238"/>
<path d="M61.6893 70.3059C61.6893 70.547 61.6178 70.7826 61.4839 70.9831C61.35 71.1835 61.1596 71.3397 60.9369 71.432C60.7142 71.5242 60.4692 71.5483 60.2327 71.5013C59.9963 71.4543 59.7791 71.3382 59.6087 71.1678C59.4382 70.9973 59.3222 70.7801 59.2751 70.5437C59.2281 70.3073 59.2522 70.0622 59.3445 69.8395C59.4367 69.6168 59.593 69.4265 59.7934 69.2926C59.9938 69.1586 60.2294 69.0872 60.4705 69.0872C60.7937 69.0872 61.1037 69.2156 61.3323 69.4441C61.5609 69.6727 61.6893 69.9827 61.6893 70.3059Z" fill="#263238"/>
<path d="M66.8233 70.3057C66.8233 70.5467 66.7518 70.7824 66.6179 70.9828C66.484 71.1832 66.2936 71.3395 66.0709 71.4317C65.8482 71.524 65.6032 71.5481 65.3668 71.5011C65.1303 71.454 64.9132 71.338 64.7427 71.1675C64.5723 70.9971 64.4562 70.7799 64.4092 70.5435C64.3621 70.3071 64.3863 70.062 64.4785 69.8393C64.5708 69.6166 64.727 69.4262 64.9274 69.2923C65.1278 69.1584 65.3635 69.0869 65.6045 69.0869C65.9278 69.0869 66.2378 69.2153 66.4663 69.4439C66.6949 69.6725 66.8233 69.9825 66.8233 70.3057Z" fill="#263238"/>
<path d="M71.9561 70.3059C71.9561 70.547 71.8846 70.7826 71.7507 70.9831C71.6168 71.1835 71.4265 71.3397 71.2038 71.432C70.9811 71.5242 70.736 71.5483 70.4996 71.5013C70.2632 71.4543 70.046 71.3382 69.8755 71.1678C69.7051 70.9973 69.589 70.7801 69.542 70.5437C69.4949 70.3073 69.5191 70.0622 69.6113 69.8395C69.7036 69.6168 69.8598 69.4265 70.0602 69.2926C70.2606 69.1586 70.4963 69.0872 70.7373 69.0872C71.0606 69.0872 71.3706 69.2156 71.5992 69.4441C71.8277 69.6727 71.9561 69.9827 71.9561 70.3059Z" fill="#263238"/>
<path d="M77.0897 70.3059C77.0897 70.547 77.0182 70.7826 76.8843 70.9831C76.7503 71.1835 76.56 71.3397 76.3373 71.432C76.1146 71.5242 75.8695 71.5483 75.6331 71.5013C75.3967 71.4543 75.1795 71.3382 75.0091 71.1678C74.8386 70.9973 74.7225 70.7801 74.6755 70.5437C74.6285 70.3073 74.6526 70.0622 74.7449 69.8395C74.8371 69.6168 74.9933 69.4265 75.1938 69.2926C75.3942 69.1586 75.6298 69.0872 75.8709 69.0872C76.1941 69.0872 76.5041 69.2156 76.7327 69.4441C76.9613 69.6727 77.0897 69.9827 77.0897 70.3059Z" fill="#263238"/>
<path d="M82.2237 70.3057C82.2237 70.5467 82.1522 70.7824 82.0183 70.9828C81.8844 71.1832 81.694 71.3395 81.4713 71.4317C81.2486 71.524 81.0036 71.5481 80.7671 71.5011C80.5307 71.454 80.3136 71.338 80.1431 71.1675C79.9727 70.9971 79.8566 70.7799 79.8096 70.5435C79.7625 70.3071 79.7867 70.062 79.8789 69.8393C79.9712 69.6166 80.1274 69.4262 80.3278 69.2923C80.5282 69.1584 80.7639 69.0869 81.0049 69.0869C81.3282 69.0869 81.6382 69.2153 81.8667 69.4439C82.0953 69.6725 82.2237 69.9825 82.2237 70.3057Z" fill="#263238"/>
<path d="M43.7217 65.1465C43.7217 65.3876 43.6503 65.6232 43.5163 65.8236C43.3824 66.0241 43.1921 66.1803 42.9694 66.2725C42.7467 66.3648 42.5016 66.3889 42.2652 66.3419C42.0288 66.2949 41.8116 66.1788 41.6412 66.0083C41.4707 65.8379 41.3546 65.6207 41.3076 65.3843C41.2606 65.1479 41.2847 64.9028 41.377 64.6801C41.4692 64.4574 41.6254 64.2671 41.8258 64.1331C42.0263 63.9992 42.2619 63.9277 42.503 63.9277C42.8262 63.9277 43.1362 64.0561 43.3648 64.2847C43.5933 64.5133 43.7217 64.8233 43.7217 65.1465Z" fill="#263238"/>
<path d="M48.8555 65.1465C48.8555 65.3876 48.7841 65.6232 48.6501 65.8236C48.5162 66.0241 48.3259 66.1803 48.1032 66.2725C47.8805 66.3648 47.6354 66.3889 47.399 66.3419C47.1626 66.2949 46.9454 66.1788 46.7749 66.0083C46.6045 65.8379 46.4884 65.6207 46.4414 65.3843C46.3944 65.1479 46.4185 64.9028 46.5107 64.6801C46.603 64.4574 46.7592 64.2671 46.9596 64.1331C47.1601 63.9992 47.3957 63.9277 47.6368 63.9277C47.96 63.9277 48.27 64.0561 48.4986 64.2847C48.7271 64.5133 48.8555 64.8233 48.8555 65.1465Z" fill="#263238"/>
<path d="M53.9893 65.1465C53.9893 65.3876 53.9178 65.6232 53.7839 65.8236C53.65 66.0241 53.4597 66.1803 53.2369 66.2725C53.0142 66.3648 52.7692 66.3889 52.5328 66.3419C52.2963 66.2949 52.0792 66.1788 51.9087 66.0083C51.7383 65.8379 51.6222 65.6207 51.5752 65.3843C51.5282 65.1479 51.5523 64.9028 51.6445 64.6801C51.7368 64.4574 51.893 64.2671 52.0934 64.1331C52.2938 63.9992 52.5295 63.9277 52.7705 63.9277C53.0938 63.9277 53.4038 64.0561 53.6324 64.2847C53.8609 64.5133 53.9893 64.8233 53.9893 65.1465Z" fill="#263238"/>
<path d="M59.1221 65.1465C59.1221 65.3876 59.0507 65.6232 58.9167 65.8236C58.7828 66.0241 58.5925 66.1803 58.3698 66.2725C58.1471 66.3648 57.902 66.3889 57.6656 66.3419C57.4292 66.2949 57.212 66.1788 57.0415 66.0083C56.8711 65.8379 56.755 65.6207 56.708 65.3843C56.661 65.1479 56.6851 64.9028 56.7773 64.6801C56.8696 64.4574 57.0258 64.2671 57.2262 64.1331C57.4267 63.9992 57.6623 63.9277 57.9034 63.9277C58.2266 63.9277 58.5366 64.0561 58.7652 64.2847C58.9937 64.5133 59.1221 64.8233 59.1221 65.1465Z" fill="#263238"/>
<path d="M64.2562 65.1464C64.2562 65.3875 64.1847 65.6231 64.0508 65.8235C63.9168 66.0239 63.7265 66.1802 63.5038 66.2724C63.2811 66.3647 63.036 66.3888 62.7996 66.3418C62.5632 66.2947 62.346 66.1787 62.1756 66.0082C62.0051 65.8378 61.889 65.6206 61.842 65.3842C61.795 65.1477 61.8191 64.9027 61.9114 64.68C62.0036 64.4573 62.1598 64.2669 62.3603 64.133C62.5607 63.9991 62.7963 63.9276 63.0374 63.9276C63.3606 63.9276 63.6706 64.056 63.8992 64.2846C64.1278 64.5132 64.2562 64.8232 64.2562 65.1464Z" fill="#263238"/>
<path d="M69.3897 65.1464C69.3897 65.3875 69.3182 65.6231 69.1843 65.8235C69.0504 66.0239 68.86 66.1802 68.6373 66.2724C68.4146 66.3647 68.1696 66.3888 67.9332 66.3418C67.6967 66.2947 67.4796 66.1787 67.3091 66.0082C67.1387 65.8378 67.0226 65.6206 66.9756 65.3842C66.9285 65.1477 66.9527 64.9027 67.0449 64.68C67.1372 64.4573 67.2934 64.2669 67.4938 64.133C67.6942 63.9991 67.9299 63.9276 68.1709 63.9276C68.4942 63.9276 68.8042 64.056 69.0327 64.2846C69.2613 64.5132 69.3897 64.8232 69.3897 65.1464Z" fill="#263238"/>
<path d="M74.5225 65.1465C74.5225 65.3876 74.451 65.6232 74.3171 65.8236C74.1832 66.0241 73.9929 66.1803 73.7702 66.2725C73.5474 66.3648 73.3024 66.3889 73.066 66.3419C72.8295 66.2949 72.6124 66.1788 72.4419 66.0083C72.2715 65.8379 72.1554 65.6207 72.1084 65.3843C72.0614 65.1479 72.0855 64.9028 72.1777 64.6801C72.27 64.4574 72.4262 64.2671 72.6266 64.1331C72.827 63.9992 73.0627 63.9277 73.3037 63.9277C73.627 63.9277 73.937 64.0561 74.1656 64.2847C74.3941 64.5133 74.5225 64.8233 74.5225 65.1465Z" fill="#263238"/>
<path d="M79.6563 65.1465C79.6563 65.3876 79.5848 65.6232 79.4509 65.8236C79.317 66.0241 79.1266 66.1803 78.9039 66.2725C78.6812 66.3648 78.4362 66.3889 78.1998 66.3419C77.9634 66.2949 77.7462 66.1788 77.5757 66.0083C77.4053 65.8379 77.2892 65.6207 77.2422 65.3843C77.1951 65.1479 77.2193 64.9028 77.3115 64.6801C77.4038 64.4574 77.56 64.2671 77.7604 64.1331C77.9608 63.9992 78.1965 63.9277 78.4375 63.9277C78.7608 63.9277 79.0708 64.0561 79.2993 64.2847C79.5279 64.5133 79.6563 64.8233 79.6563 65.1465Z" fill="#263238"/>
</svg>
