<svg width="43" height="24" viewBox="0 0 43 24" fill="none" xmlns="http://www.w3.org/2000/svg">
<path d="M29.3175 4.83411C28.8832 3.88527 28.2659 3.03256 27.4779 2.30388C25.8772 0.818605 23.7522 0 21.5 0C19.2478 0 17.1228 0.818605 15.5221 2.30078C14.7341 3.03256 14.1168 3.88217 13.6825 4.83411C13.2296 5.82636 13 6.87752 13 7.96279V8.8C13 8.99225 13.1551 9.14729 13.3474 9.14729H15.0226C15.215 9.14729 15.3701 8.99225 15.3701 8.8V7.96279C15.3701 4.87752 18.1186 2.36899 21.5 2.36899C24.8814 2.36899 27.6299 4.87752 27.6299 7.96279C27.6299 9.22791 27.1801 10.4186 26.327 11.4109C25.4832 12.3938 24.292 13.0977 22.9735 13.3953C22.2197 13.5659 21.5403 13.9907 21.0595 14.5984C20.5803 15.2041 20.3192 15.9534 20.3181 16.7256V17.6992C20.3181 17.8915 20.4732 18.0465 20.6655 18.0465H22.3407C22.533 18.0465 22.6881 17.8915 22.6881 17.6992V16.7256C22.6881 16.2388 23.0263 15.8109 23.4947 15.7054C25.3064 15.2961 26.9505 14.3194 28.1263 12.955C28.7188 12.2636 29.181 11.4946 29.5005 10.6605C29.8325 9.79535 30 8.88682 30 7.96279C30 6.87752 29.7704 5.82326 29.3175 4.83411ZM21.5 20.5271C20.5414 20.5271 19.7628 21.3054 19.7628 22.2636C19.7628 23.2217 20.5414 24 21.5 24C22.4586 24 23.2372 23.2217 23.2372 22.2636C23.2372 21.3054 22.4586 20.5271 21.5 20.5271Z" fill="#187259"/>
</svg>
