<svg width="96" height="103" viewBox="0 0 96 103" fill="none" xmlns="http://www.w3.org/2000/svg">
<path d="M47.7129 102.092L94.4457 75.0886V41.8835L95.4259 41.3159V27.5406L47.7129 55.0912V102.092Z" fill="#187259"/>
<g opacity="0.45">
<path d="M47.7129 102.092L94.4457 75.0887V41.8836L95.4259 41.3161V27.5408L47.7129 55.0914V102.092Z" fill="white"/>
</g>
<path opacity="0.15" d="M47.7129 68.8657L65.6053 58.5369L94.4457 41.8827V43.8639L47.7129 70.8366V68.8657Z" fill="black"/>
<path d="M47.7131 102.092L1.24855 75.2847V42.0279L0 41.3159V27.5406L47.7131 55.0912V102.092Z" fill="#187259"/>
<path opacity="0.3" d="M47.7131 102.092L1.24855 75.2847V42.0279L0 41.3159V27.5406L47.7131 55.0912V102.092Z" fill="white"/>
<path opacity="0.1" d="M1.23853 42.028L47.7133 68.8665V70.8374L1.23853 44.0297V42.028Z" fill="black"/>
<path d="M0 27.5403L47.7131 0L95.4261 27.5403L47.7131 55.0908L0 27.5403Z" fill="#187259"/>
<g opacity="0.6">
<path d="M0 27.5403L47.7131 0L95.4261 27.5403L47.7131 55.0908L0 27.5403Z" fill="white"/>
</g>
<path d="M28.3342 90.9169V43.8952L20.585 39.4272V86.4386L28.3342 90.9169Z" fill="#EBEBEB"/>
<path d="M28.3342 90.9169V43.8952L20.585 39.4272V86.4386L28.3342 90.9169Z" fill="#187259"/>
<path opacity="0.4" d="M28.3342 90.9169V43.8952L20.585 39.4272V86.4386L28.3342 90.9169Z" fill="black"/>
<path d="M67.0928 90.9169V43.8952L74.842 39.4272V86.4386L67.0928 90.9169Z" fill="#187259"/>
<path opacity="0.15" d="M67.0928 90.9169V43.8952L74.842 39.4272V86.4386L67.0928 90.9169Z" fill="black"/>
<path d="M20.585 39.427L68.298 11.8765L76.0472 16.3547L28.3342 43.895L20.585 39.427Z" fill="#187259"/>
<path opacity="0.25" d="M47.084 33.0811L39.3347 28.6029L47.084 24.1246L54.8332 28.6029L47.084 33.0811Z" fill="black"/>
<path d="M67.092 43.895L19.3789 16.3547L27.1281 11.8765L74.8412 39.427L67.092 43.895Z" fill="#187259"/>
<path d="M70.0529 14.5898C69.2893 17.8401 64.5634 27.2816 49.5086 28.3032L47.9814 26.9618C47.9814 26.9618 65.4508 22.5867 61.6536 7.27393L70.0529 14.5898Z" fill="#187259"/>
<path opacity="0.4" d="M70.0529 14.5898C69.2893 17.8401 64.5634 27.2816 49.5086 28.3032L47.9814 26.9618C47.9814 26.9618 65.4508 22.5867 61.6536 7.27393L70.0529 14.5898Z" fill="black"/>
<path d="M47.8066 30.0782C47.8066 30.0782 47.8066 20.7915 51.315 15.3639C54.8233 9.93636 61.6335 7.27417 61.6335 7.27417C65.0229 8.93924 67.9184 11.4612 70.0328 14.59C65.8187 14.712 61.6844 15.7693 57.9292 17.6856C52.0373 20.7812 49.4886 28.3344 49.4886 28.3344L47.8066 30.0782Z" fill="#187259"/>
<path opacity="0.15" d="M47.8066 30.0782C47.8066 30.0782 47.8066 20.7915 51.315 15.3639C54.8233 9.93636 61.6335 7.27417 61.6335 7.27417C65.0229 8.93924 67.9184 11.4612 70.0328 14.59C65.8187 14.712 61.6844 15.7693 57.9292 17.6856C52.0373 20.7812 49.4886 28.3344 49.4886 28.3344L47.8066 30.0782Z" fill="black"/>
<path d="M58.1044 17.5824L52.0061 14.3836C53.0029 13.0892 54.1611 11.9276 55.4525 10.9269L63.4907 15.529C61.6255 16.0143 59.8193 16.7029 58.1044 17.5824Z" fill="#187259"/>
<path d="M71.1679 31.5949C71.1679 31.5949 60.8493 34.2983 47.8066 30.078L48.8385 28.3032C48.8385 28.3032 55.6488 29.4486 60.4572 28.3032C65.2657 27.1579 69.3724 20.3167 69.3724 20.3167L71.1679 31.5949Z" fill="#187259"/>
<path opacity="0.4" d="M71.1679 31.5949C71.1679 31.5949 60.8493 34.2983 47.8066 30.078L48.8385 28.3032C48.8385 28.3032 55.6488 29.4486 60.4572 28.3032C65.2657 27.1579 69.3724 20.3167 69.3724 20.3167L71.1679 31.5949Z" fill="black"/>
<path d="M47.8066 30.0782C47.8066 30.0782 47.9201 27.5501 51.5007 24.2275C56.1853 19.8731 65.3379 19.8731 69.3312 20.3168C70.9656 21.5543 72.0714 23.3642 72.4268 25.3832C72.9117 27.8597 71.1782 31.5744 71.1782 31.5744C69.8583 29.9894 68.2261 28.6932 66.3834 27.7666C64.5407 26.8399 62.527 26.3026 60.4675 26.1881C56.6914 25.8644 52.9361 27.0102 49.9839 29.3868L47.8066 30.0782Z" fill="#187259"/>
<path opacity="0.15" d="M47.8066 30.0782C47.8066 30.0782 47.9201 27.5501 51.5007 24.2275C56.1853 19.8731 65.3379 19.8731 69.3312 20.3168C70.9656 21.5543 72.0714 23.3642 72.4268 25.3832C72.9117 27.8597 71.1782 31.5744 71.1782 31.5744C69.8583 29.9894 68.2261 28.6932 66.3834 27.7666C64.5407 26.8399 62.527 26.3026 60.4675 26.1881C56.6914 25.8644 52.9361 27.0102 49.9839 29.3868L47.8066 30.0782Z" fill="black"/>
<path d="M61.6748 20.3688C63.1921 20.196 64.7189 20.1202 66.2459 20.1418C67.364 21.2894 68.1472 22.7206 68.5109 24.281C68.8746 25.8414 68.805 27.4714 68.3096 28.9951C66.8586 27.9805 65.2419 27.2263 63.5321 26.7663C63.6421 24.4865 62.9885 22.2352 61.6748 20.3688Z" fill="#187259"/>
<path d="M61.293 43.586C61.293 43.586 55.7313 42.905 52.2333 38.8807C50.0284 36.3743 48.5041 33.3436 47.8066 30.079L49.5092 28.3042C50.8088 31.3333 53.1727 33.7817 56.1544 35.1867C60.1064 36.9305 67.5048 36.9099 67.5048 36.9099L61.293 43.586Z" fill="#187259"/>
<path opacity="0.4" d="M61.293 43.586C61.293 43.586 55.7313 42.905 52.2333 38.8807C50.0284 36.3743 48.5041 33.3436 47.8066 30.079L49.5092 28.3042C50.8088 31.3333 53.1727 33.7817 56.1544 35.1867C60.1064 36.9305 67.5048 36.9099 67.5048 36.9099L61.293 43.586Z" fill="black"/>
<path d="M47.8066 30.079L49.5092 28.3042C49.5092 28.3042 56.1131 26.9628 59.673 28.3042C63.2329 29.6456 67.3913 35.2073 67.4635 36.9099C67.0013 38.4172 66.2043 39.8006 65.1322 40.9567C64.0601 42.1127 62.7407 43.0116 61.2724 43.586C61.2724 43.586 61.6129 37.5083 57.0314 33.9381C54.3687 31.8299 51.1774 30.4948 47.8066 30.079Z" fill="#187259"/>
<path opacity="0.15" d="M47.8066 30.079L49.5092 28.3042C49.5092 28.3042 56.1131 26.9628 59.673 28.3042C63.2329 29.6456 67.3913 35.2073 67.4635 36.9099C67.0013 38.4172 66.2043 39.8006 65.1322 40.9567C64.0601 42.1127 62.7407 43.0116 61.2724 43.586C61.2724 43.586 61.6129 37.5083 57.0314 33.9381C54.3687 31.8299 51.1774 30.4948 47.8066 30.079Z" fill="black"/>
<path d="M54.6892 32.3795L60.4882 28.7061C61.7945 29.4392 62.9754 30.3763 63.9862 31.4818L58.2801 35.0829C57.9061 34.6618 57.4952 34.275 57.0521 33.9272C56.3027 33.3552 55.5131 32.8379 54.6892 32.3795Z" fill="#187259"/>
<path d="M31.0902 13.6821C30.7291 15.4569 32.0292 20.3479 36.3527 23.5776C40.6762 26.8073 47.9817 28.0146 47.9817 28.0146L49.0135 27.3852C49.0135 27.3852 41.7906 22.8347 39.4173 18.6763C37.044 14.5179 38.7982 7.8418 38.7982 7.8418L31.0902 13.6821Z" fill="#187259"/>
<path opacity="0.4" d="M31.0902 13.6821C30.7291 15.4569 32.0292 20.3479 36.3527 23.5776C40.6762 26.8073 47.9817 28.0146 47.9817 28.0146L49.0135 27.3852C49.0135 27.3852 41.7906 22.8347 39.4173 18.6763C37.044 14.5179 38.7982 7.8418 38.7982 7.8418L31.0902 13.6821Z" fill="black"/>
<path d="M47.9812 28.0146C46.6705 23.9503 44.1506 20.3828 40.7582 17.7889C35.341 13.9401 31.1104 13.6615 31.1104 13.6615C31.9461 12.2255 33.0587 10.9697 34.3837 9.96715C35.7086 8.96458 37.2195 8.23514 38.8286 7.82117C38.8286 7.82117 45.0198 11.4636 47.3621 17.0253C48.7395 20.281 49.3162 23.8194 49.044 27.3439L47.9812 28.0146Z" fill="#187259"/>
<path opacity="0.15" d="M47.9812 28.0146C46.6705 23.9503 44.1506 20.3828 40.7582 17.7889C35.341 13.9401 31.1104 13.6615 31.1104 13.6615C31.9461 12.2255 33.0587 10.9697 34.3837 9.96715C35.7086 8.96458 37.2195 8.23514 38.8286 7.82117C38.8286 7.82117 45.0198 11.4636 47.3621 17.0253C48.7395 20.281 49.3162 23.8194 49.044 27.3439L47.9812 28.0146Z" fill="black"/>
<path d="M37.9832 16.0859C36.7957 15.4252 35.5527 14.8693 34.2686 14.4246C36.1962 12.3114 38.5629 10.6455 41.2026 9.54395C42.5395 10.594 43.7637 11.7801 44.8554 13.0832C42.3428 13.4706 39.9745 14.5054 37.9832 16.0859Z" fill="#187259"/>
<path d="M24.8779 25.2495C27.0036 28.1181 34.3401 32.8853 47.1867 28.9952L47.9812 27.4886C47.9812 27.4886 40.6757 28.0665 34.6496 24.9916C28.6236 21.9166 28.1902 17.7686 28.1902 17.7686L24.8779 25.2495Z" fill="#187259"/>
<path opacity="0.4" d="M24.8779 25.2495C27.0036 28.1181 34.3401 32.8853 47.1867 28.9952L47.9812 27.4886C47.9812 27.4886 40.6757 28.0665 34.6496 24.9916C28.6236 21.9166 28.1902 17.7686 28.1902 17.7686L24.8779 25.2495Z" fill="black"/>
<path d="M47.9805 27.4883C46.011 23.8318 42.8873 20.9294 39.0962 19.2334C35.6751 17.7138 31.8904 17.2053 28.1895 17.7682C28.1895 17.7682 24.3819 20.7503 24.8772 25.2285C28.1902 23.6411 31.9012 23.0771 35.5363 23.6085C41.6552 24.4959 46.4327 27.2613 47.186 28.9742L47.9805 27.4883Z" fill="#187259"/>
<path opacity="0.15" d="M47.9805 27.4883C46.011 23.8318 42.8873 20.9294 39.0962 19.2334C35.6751 17.7138 31.8904 17.2053 28.1895 17.7682C28.1895 17.7682 24.3819 20.7503 24.8772 25.2285C28.1902 23.6411 31.9012 23.0771 35.5363 23.6085C41.6552 24.4959 46.4327 27.2613 47.186 28.9742L47.9805 27.4883Z" fill="black"/>
<path d="M31.1832 23.5266C29.6901 23.6632 28.2182 23.9749 26.7979 24.4553C27.4729 21.7783 28.9575 19.3748 31.0491 17.5728C31.9683 17.5813 32.8857 17.6572 33.7938 17.7998C32.4489 19.4545 31.5501 21.426 31.1832 23.5266Z" fill="#187259"/>
<path d="M32.9772 45.0306C36.2998 45.1131 46.6802 40.4182 47.805 30.079L46.6906 27.6025C46.6906 27.6025 44.2348 33.3293 39.5604 35.9399C34.8861 38.5505 28.0449 38.5093 28.0449 38.5093L32.9772 45.0306Z" fill="#187259"/>
<path opacity="0.4" d="M32.9772 45.0306C36.2998 45.1131 46.6802 40.4182 47.805 30.079L46.6906 27.6025C46.6906 27.6025 44.2348 33.3293 39.5604 35.9399C34.8861 38.5505 28.0449 38.5093 28.0449 38.5093L32.9772 45.0306Z" fill="black"/>
<path d="M47.9804 27.4886C47.9804 27.4886 42.0679 27.3441 37.992 28.9951C30.769 31.9049 28.3648 35.3204 28.0449 38.5088C28.8859 41.1873 30.6288 43.4918 32.9772 45.0301C32.9772 45.0301 35.9283 37.3428 39.5604 34.1131C44.3999 29.7999 47.8153 30.0785 47.8153 30.0785L47.9804 27.4886Z" fill="#187259"/>
<path opacity="0.15" d="M47.9804 27.4886C47.9804 27.4886 42.0679 27.3441 37.992 28.9951C30.769 31.9049 28.3648 35.3204 28.0449 38.5088C28.8859 41.1873 30.6288 43.4918 32.9772 45.0301C32.9772 45.0301 35.9283 37.3428 39.5604 34.1131C44.3999 29.7999 47.8153 30.0785 47.8153 30.0785L47.9804 27.4886Z" fill="black"/>
<path d="M33.8754 42.9353C31.7276 41.1843 29.9104 39.0631 28.5098 36.6719C29.2093 34.9471 30.3782 33.4529 31.8839 32.3588C33.6316 33.9877 35.7604 35.1515 38.0751 35.7433C36.405 37.9722 34.9959 40.3853 33.8754 42.9353Z" fill="#187259"/>
</svg>
