<svg width="49" height="47" viewBox="0 0 49 47" fill="none" xmlns="http://www.w3.org/2000/svg">
<rect x="47" y="47" width="47" height="47" rx="23.5" transform="rotate(180 47 47)" fill="#ECFDF5"/>
<path d="M34.5993 23.201H12.9731V30.0253H34.5993V23.201Z" fill="white"/>
<path d="M34.5995 30.065H12.9733C12.9628 30.065 12.9527 30.0608 12.9452 30.0534C12.9378 30.0459 12.9336 30.0358 12.9336 30.0253V23.1994C12.9336 23.1889 12.9378 23.1788 12.9452 23.1714C12.9527 23.1639 12.9628 23.1597 12.9733 23.1597H34.5995C34.61 23.1597 34.6201 23.1639 34.6275 23.1714C34.635 23.1788 34.6391 23.1889 34.6391 23.1994V30.0253C34.6391 30.0358 34.635 30.0459 34.6275 30.0534C34.6201 30.0608 34.61 30.065 34.5995 30.065ZM13.0106 29.9856H34.5598V23.2391H13.013L13.0106 29.9856Z" fill="#263238"/>
<path d="M23.8152 16.9744L13.0303 23.2011H34.5993L23.8152 16.9744Z" fill="#187259"/>
<path d="M34.599 23.2407H13.03C13.0213 23.2406 13.0129 23.2377 13.0061 23.2324C12.9993 23.2271 12.9943 23.2197 12.9921 23.2113C12.9898 23.203 12.9904 23.1941 12.9936 23.1861C12.9969 23.1781 13.0027 23.1713 13.0102 23.1669L23.7951 16.9403C23.8011 16.9368 23.808 16.9349 23.8149 16.9349C23.8219 16.9349 23.8287 16.9368 23.8348 16.9403L34.6189 23.1677C34.6266 23.1719 34.6327 23.1785 34.6362 23.1866C34.6396 23.1947 34.6402 23.2037 34.6379 23.2121C34.6355 23.2205 34.6304 23.2279 34.6233 23.233C34.6163 23.2382 34.6078 23.2409 34.599 23.2407ZM13.1784 23.1613H34.4498L23.8141 17.0204L13.1784 23.1613Z" fill="#263238"/>
<path d="M28.1689 22.6463H22.8169V30.0254H28.1689V22.6463Z" fill="white"/>
<path d="M28.1685 30.065H22.8165C22.806 30.065 22.7959 30.0609 22.7885 30.0534C22.781 30.046 22.7769 30.0359 22.7769 30.0254V22.6439C22.7769 22.6333 22.781 22.6233 22.7885 22.6158C22.7959 22.6084 22.806 22.6042 22.8165 22.6042H28.1685C28.179 22.6044 28.189 22.6086 28.1964 22.616C28.2038 22.6234 28.208 22.6334 28.2082 22.6439V30.0254C28.2082 30.0359 28.204 30.046 28.1966 30.0534C28.1891 30.0609 28.179 30.065 28.1685 30.065ZM22.8562 29.9857H28.1257V22.6836H22.8562V29.9857Z" fill="#263238"/>
<path d="M28.1689 22.6463H22.8169V22.9598H28.1689V22.6463Z" fill="#263238"/>
<path d="M28.1685 23.0003H22.8165C22.806 23.0003 22.7959 22.9961 22.7885 22.9887C22.781 22.9812 22.7769 22.9711 22.7769 22.9606V22.6431C22.7769 22.6326 22.781 22.6225 22.7885 22.6151C22.7959 22.6076 22.806 22.6035 22.8165 22.6035H28.1685C28.179 22.6037 28.189 22.6079 28.1964 22.6153C28.2038 22.6227 28.208 22.6327 28.2082 22.6431V22.9606C28.208 22.9711 28.2038 22.9811 28.1964 22.9885C28.189 22.9959 28.179 23.0001 28.1685 23.0003ZM22.8562 22.9209H28.1257V22.6828H22.8562V22.9209Z" fill="#263238"/>
<path d="M26.8289 30.0253H24.1572V25.413C24.1571 25.2375 24.1916 25.0637 24.2587 24.9016C24.3258 24.7394 24.4241 24.5921 24.5482 24.4679C24.6722 24.3438 24.8195 24.2454 24.9817 24.1782C25.1438 24.111 25.3175 24.0764 25.493 24.0764C25.8475 24.0764 26.1875 24.2172 26.4382 24.4679C26.6888 24.7186 26.8296 25.0585 26.8296 25.413L26.8289 30.0253Z" fill="#263238"/>
<path d="M26.8289 30.065H24.1573C24.1467 30.065 24.1367 30.0608 24.1292 30.0534C24.1218 30.0459 24.1176 30.0358 24.1176 30.0253V25.4131C24.1132 25.2296 24.1455 25.0471 24.2127 24.8763C24.2798 24.7055 24.3805 24.5499 24.5087 24.4186C24.6369 24.2873 24.79 24.1829 24.9592 24.1117C25.1283 24.0404 25.31 24.0037 25.4935 24.0037C25.677 24.0037 25.8587 24.0404 26.0278 24.1117C26.1969 24.1829 26.3501 24.2873 26.4783 24.4186C26.6065 24.5499 26.7071 24.7055 26.7743 24.8763C26.8414 25.0471 26.8738 25.2296 26.8694 25.4131V30.0253C26.8694 30.0306 26.8683 30.0358 26.8663 30.0407C26.8642 30.0455 26.8612 30.05 26.8575 30.0537C26.8537 30.0573 26.8492 30.0603 26.8443 30.0622C26.8394 30.0641 26.8342 30.0651 26.8289 30.065ZM24.1962 29.9856H26.7892V25.4131C26.7935 25.2401 26.7631 25.068 26.6999 24.907C26.6367 24.7459 26.5418 24.5992 26.421 24.4753C26.3002 24.3515 26.1558 24.2531 25.9964 24.1859C25.837 24.1187 25.6657 24.0841 25.4927 24.0841C25.3197 24.0841 25.1484 24.1187 24.989 24.1859C24.8295 24.2531 24.6852 24.3515 24.5644 24.4753C24.4435 24.5992 24.3487 24.7459 24.2855 24.907C24.2223 25.068 24.1919 25.2401 24.1962 25.4131V29.9856Z" fill="#263238"/>
<path d="M23.817 24.3964H11.4209V30.0253H23.817V24.3964Z" fill="white"/>
<path d="M23.8167 30.065H11.4205C11.41 30.065 11.3999 30.0608 11.3925 30.0534C11.385 30.0459 11.3809 30.0358 11.3809 30.0253V24.3963C11.3809 24.3858 11.385 24.3757 11.3925 24.3683C11.3999 24.3608 11.41 24.3566 11.4205 24.3566H23.8167C23.8272 24.3566 23.8373 24.3608 23.8447 24.3683C23.8522 24.3757 23.8564 24.3858 23.8564 24.3963V30.0253C23.8564 30.0358 23.8522 30.0459 23.8447 30.0534C23.8373 30.0608 23.8272 30.065 23.8167 30.065ZM11.4578 29.9856H23.777V24.4376H11.4578V29.9856Z" fill="#263238"/>
<path d="M23.817 24.3964H11.4209V24.6472H23.817V24.3964Z" fill="#263238"/>
<path d="M23.8167 24.6868H11.4205C11.41 24.6868 11.3999 24.6826 11.3925 24.6752C11.385 24.6677 11.3809 24.6577 11.3809 24.6471V24.3963C11.3809 24.3858 11.385 24.3757 11.3925 24.3683C11.3999 24.3608 11.41 24.3566 11.4205 24.3566H23.8167C23.8272 24.3566 23.8373 24.3608 23.8447 24.3683C23.8522 24.3757 23.8564 24.3858 23.8564 24.3963V24.6471C23.8564 24.6577 23.8522 24.6677 23.8447 24.6752C23.8373 24.6826 23.8272 24.6868 23.8167 24.6868ZM11.4578 24.6074H23.777V24.4376H11.4578V24.6074Z" fill="#263238"/>
<path d="M22.4523 24.8606H12.7842V30.0253H22.4523V24.8606Z" fill="#187259"/>
<path d="M22.4525 30.065H12.7843C12.7738 30.065 12.7637 30.0608 12.7563 30.0534C12.7488 30.046 12.7446 30.0359 12.7446 30.0253V24.8607C12.7446 24.8501 12.7488 24.8401 12.7563 24.8326C12.7637 24.8252 12.7738 24.821 12.7843 24.821H22.4525C22.463 24.821 22.4731 24.8252 22.4805 24.8326C22.488 24.8401 22.4922 24.8501 22.4922 24.8607V30.0253C22.4922 30.0359 22.488 30.046 22.4805 30.0534C22.4731 30.0608 22.463 30.065 22.4525 30.065ZM12.824 29.9856H22.4112V24.9004H12.824V29.9856Z" fill="#263238"/>
<path d="M17.6186 20.2778L11.0396 24.0765H24.1977L17.6186 20.2778Z" fill="#187259"/>
<path d="M24.1979 24.1202H11.0398C11.0311 24.1201 11.0227 24.1172 11.0159 24.1119C11.009 24.1066 11.0041 24.0992 11.0018 24.0908C10.9996 24.0824 11.0002 24.0736 11.0034 24.0656C11.0067 24.0575 11.0125 24.0508 11.0199 24.0464L17.599 20.2477C17.605 20.2442 17.6119 20.2424 17.6188 20.2424C17.6258 20.2424 17.6326 20.2442 17.6387 20.2477L24.2177 24.0408C24.2252 24.0452 24.231 24.052 24.2342 24.06C24.2375 24.068 24.238 24.0769 24.2358 24.0853C24.2335 24.0936 24.2286 24.101 24.2218 24.1063C24.2149 24.1116 24.2065 24.1145 24.1979 24.1146V24.1202ZM11.1882 24.0408H24.0463L17.6172 20.3279L11.1882 24.0408Z" fill="#263238"/>
<path d="M24.1969 24.0764H11.0396V24.3963H24.1969V24.0764Z" fill="white"/>
<path d="M24.1978 24.4377H11.0397C11.0292 24.4377 11.0191 24.4335 11.0116 24.4261C11.0042 24.4186 11 24.4085 11 24.398V24.0805C11 24.07 11.0042 24.0599 11.0116 24.0525C11.0191 24.045 11.0292 24.0408 11.0397 24.0408H24.1978C24.2083 24.0408 24.2184 24.045 24.2259 24.0525C24.2333 24.0599 24.2375 24.07 24.2375 24.0805V24.398C24.2375 24.4085 24.2333 24.4186 24.2259 24.4261C24.2184 24.4335 24.2083 24.4377 24.1978 24.4377ZM11.0794 24.3583H24.1573V24.1202H11.0794V24.3583Z" fill="#263238"/>
<path d="M25.492 20.5048L22.0854 22.4716H28.8994L25.492 20.5048Z" fill="#187259"/>
<path d="M28.8997 22.5113H22.0857C22.0768 22.5114 22.0682 22.5086 22.0612 22.5033C22.0541 22.4979 22.0491 22.4904 22.0468 22.4819C22.0445 22.4734 22.0451 22.4644 22.0486 22.4564C22.052 22.4483 22.0581 22.4416 22.0658 22.4375L25.4724 20.4691C25.4786 20.4659 25.4854 20.4643 25.4923 20.4643C25.4992 20.4643 25.506 20.4659 25.5121 20.4691L28.9195 22.4375C28.9269 22.4419 28.9327 22.4486 28.936 22.4566C28.9393 22.4647 28.9398 22.4735 28.9376 22.4819C28.9353 22.4903 28.9304 22.4977 28.9236 22.503C28.9167 22.5083 28.9083 22.5112 28.8997 22.5113ZM22.2325 22.4319H28.7504L25.4923 20.5484L22.2325 22.4319Z" fill="#263238"/>
<path d="M28.8994 22.4716H22.0854V22.7875H28.8994V22.4716Z" fill="white"/>
<path d="M28.8996 22.8272H22.0856C22.0751 22.8272 22.065 22.823 22.0575 22.8156C22.0501 22.8081 22.0459 22.7981 22.0459 22.7875V22.47C22.0459 22.4595 22.0501 22.4494 22.0575 22.442C22.065 22.4345 22.0751 22.4304 22.0856 22.4304H28.8996C28.9101 22.4304 28.9202 22.4345 28.9276 22.442C28.9351 22.4494 28.9393 22.4595 28.9393 22.47V22.7875C28.9393 22.7981 28.9351 22.8081 28.9276 22.8156C28.9202 22.823 28.9101 22.8272 28.8996 22.8272ZM22.1253 22.7478H28.8599V22.5097H22.1253V22.7478Z" fill="#263238"/>
<path d="M13.9193 25.2758H13.1367V26.0584H13.9193V25.2758Z" fill="white"/>
<path d="M13.9185 26.0981H13.1359C13.1254 26.0981 13.1153 26.0939 13.1078 26.0864C13.1004 26.079 13.0962 26.0689 13.0962 26.0584V25.2758C13.0962 25.2652 13.1004 25.2552 13.1078 25.2477C13.1153 25.2403 13.1254 25.2361 13.1359 25.2361H13.9185C13.929 25.2361 13.9391 25.2403 13.9465 25.2477C13.954 25.2552 13.9582 25.2652 13.9582 25.2758V26.0584C13.9582 26.0689 13.954 26.079 13.9465 26.0864C13.9391 26.0939 13.929 26.0981 13.9185 26.0981ZM13.1756 26.0187H13.8788V25.3155H13.1756V26.0187Z" fill="#263238"/>
<path d="M15.0941 25.2758H14.3115V26.0584H15.0941V25.2758Z" fill="white"/>
<path d="M15.0942 26.0981H14.3156C14.305 26.0981 14.2949 26.0939 14.2875 26.0864C14.2801 26.079 14.2759 26.0689 14.2759 26.0584V25.2758C14.2759 25.2652 14.2801 25.2552 14.2875 25.2477C14.2949 25.2403 14.305 25.2361 14.3156 25.2361H15.0982C15.1087 25.2361 15.1188 25.2403 15.1262 25.2477C15.1337 25.2552 15.1378 25.2652 15.1378 25.2758V26.0584C15.1379 26.0639 15.1367 26.0694 15.1345 26.0745C15.1323 26.0796 15.129 26.0842 15.1249 26.0879C15.1207 26.0917 15.1159 26.0945 15.1106 26.0963C15.1053 26.098 15.0997 26.0986 15.0942 26.0981ZM14.3513 26.0187H15.0545V25.3155H14.3513V26.0187Z" fill="#263238"/>
<path d="M16.2679 25.2758H15.4854V26.0584H16.2679V25.2758Z" fill="white"/>
<path d="M16.2689 26.0981H15.4855C15.475 26.0981 15.4649 26.0939 15.4574 26.0864C15.45 26.079 15.4458 26.0689 15.4458 26.0584V25.2758C15.4458 25.2652 15.45 25.2552 15.4574 25.2477C15.4649 25.2403 15.475 25.2361 15.4855 25.2361H16.2689C16.2794 25.2361 16.2895 25.2403 16.2969 25.2477C16.3044 25.2552 16.3086 25.2652 16.3086 25.2758V26.0584C16.3086 26.0689 16.3044 26.079 16.2969 26.0864C16.2895 26.0939 16.2794 26.0981 16.2689 26.0981ZM15.5252 26.0187H16.2292V25.3155H15.5252V26.0187Z" fill="#263238"/>
<path d="M17.4423 25.2758H16.6597V26.0584H17.4423V25.2758Z" fill="white"/>
<path d="M17.4432 26.0981H16.6598C16.6493 26.0981 16.6392 26.0939 16.6317 26.0864C16.6243 26.079 16.6201 26.0689 16.6201 26.0584V25.2758C16.6201 25.2652 16.6243 25.2552 16.6317 25.2477C16.6392 25.2403 16.6493 25.2361 16.6598 25.2361H17.4432C17.4537 25.2361 17.4638 25.2403 17.4713 25.2477C17.4787 25.2552 17.4829 25.2652 17.4829 25.2758V26.0584C17.4829 26.0689 17.4787 26.079 17.4713 26.0864C17.4638 26.0939 17.4537 26.0981 17.4432 26.0981ZM16.6995 26.0187H17.4035V25.3155H16.6963L16.6995 26.0187Z" fill="#263238"/>
<path d="M18.6171 25.2758H17.8345V26.0584H18.6171V25.2758Z" fill="white"/>
<path d="M18.6172 26.0981H17.8346C17.8241 26.0981 17.814 26.0939 17.8065 26.0864C17.7991 26.079 17.7949 26.0689 17.7949 26.0584V25.2758C17.7949 25.2652 17.7991 25.2552 17.8065 25.2477C17.814 25.2403 17.8241 25.2361 17.8346 25.2361H18.6172C18.6277 25.2361 18.6378 25.2403 18.6453 25.2477C18.6527 25.2552 18.6569 25.2652 18.6569 25.2758V26.0584C18.6569 26.0689 18.6527 26.079 18.6453 26.0864C18.6378 26.0939 18.6277 26.0981 18.6172 26.0981ZM17.8743 26.0187H18.5775V25.3155H17.8743V26.0187Z" fill="#263238"/>
<path d="M19.7909 25.2758H19.0083V26.0584H19.7909V25.2758Z" fill="white"/>
<path d="M19.7918 26.0981H19.0084C18.9979 26.0981 18.9878 26.0939 18.9804 26.0864C18.9729 26.079 18.9688 26.0689 18.9688 26.0584V25.2758C18.9688 25.2652 18.9729 25.2552 18.9804 25.2477C18.9878 25.2403 18.9979 25.2361 19.0084 25.2361H19.7918C19.8024 25.2361 19.8124 25.2403 19.8199 25.2477C19.8273 25.2552 19.8315 25.2652 19.8315 25.2758V26.0584C19.8315 26.0689 19.8273 26.079 19.8199 26.0864C19.8124 26.0939 19.8024 26.0981 19.7918 26.0981ZM19.0481 26.0187H19.7521V25.3155H19.0481V26.0187Z" fill="#263238"/>
<path d="M20.9657 25.2758H20.1831V26.0584H20.9657V25.2758Z" fill="white"/>
<path d="M20.9666 26.0981H20.1832C20.1727 26.0981 20.1626 26.0939 20.1552 26.0864C20.1477 26.079 20.1436 26.0689 20.1436 26.0584V25.2758C20.1436 25.2652 20.1477 25.2552 20.1552 25.2477C20.1626 25.2403 20.1727 25.2361 20.1832 25.2361H20.9666C20.9772 25.2361 20.9873 25.2403 20.9947 25.2477C21.0021 25.2552 21.0063 25.2652 21.0063 25.2758V26.0584C21.0063 26.0689 21.0021 26.079 20.9947 26.0864C20.9873 26.0939 20.9772 26.0981 20.9666 26.0981ZM20.2229 26.0187H20.9269V25.3155H20.2229V26.0187Z" fill="#263238"/>
<path d="M22.1405 25.2758H21.3579V26.0584H22.1405V25.2758Z" fill="white"/>
<path d="M22.1406 26.0981H21.358C21.3475 26.0981 21.3374 26.0939 21.33 26.0864C21.3225 26.079 21.3184 26.0689 21.3184 26.0584V25.2758C21.3184 25.2652 21.3225 25.2552 21.33 25.2477C21.3374 25.2403 21.3475 25.2361 21.358 25.2361H22.1406C22.1512 25.2361 22.1613 25.2403 22.1687 25.2477C22.1761 25.2552 22.1803 25.2652 22.1803 25.2758V26.0584C22.1803 26.0636 22.1793 26.0687 22.1773 26.0736C22.1753 26.0784 22.1724 26.0827 22.1687 26.0864C22.165 26.0901 22.1606 26.093 22.1558 26.095C22.151 26.097 22.1459 26.0981 22.1406 26.0981ZM21.3977 26.0187H22.101V25.3155H21.3977V26.0187Z" fill="#263238"/>
<path d="M13.9193 26.4283H13.1367V27.2109H13.9193V26.4283Z" fill="white"/>
<path d="M13.9185 27.2505H13.1359C13.1254 27.2505 13.1153 27.2463 13.1078 27.2388C13.1004 27.2314 13.0962 27.2213 13.0962 27.2108V26.4282C13.0962 26.4176 13.1004 26.4076 13.1078 26.4001C13.1153 26.3927 13.1254 26.3885 13.1359 26.3885H13.9185C13.929 26.3885 13.9391 26.3927 13.9465 26.4001C13.954 26.4076 13.9582 26.4176 13.9582 26.4282V27.2108C13.9582 27.2213 13.954 27.2314 13.9465 27.2388C13.9391 27.2463 13.929 27.2505 13.9185 27.2505ZM13.1756 27.1711H13.8788V26.4679H13.1756V27.1711Z" fill="#263238"/>
<path d="M15.0941 26.4283H14.3115V27.2109H15.0941V26.4283Z" fill="white"/>
<path d="M15.0942 27.2505H14.3156C14.305 27.2505 14.2949 27.2463 14.2875 27.2388C14.2801 27.2314 14.2759 27.2213 14.2759 27.2108V26.4282C14.2759 26.4176 14.2801 26.4076 14.2875 26.4001C14.2949 26.3927 14.305 26.3885 14.3156 26.3885H15.0982C15.1087 26.3885 15.1188 26.3927 15.1262 26.4001C15.1337 26.4076 15.1378 26.4176 15.1378 26.4282V27.2108C15.1379 27.2163 15.1367 27.2218 15.1345 27.2269C15.1323 27.232 15.129 27.2366 15.1249 27.2403C15.1207 27.2441 15.1159 27.2469 15.1106 27.2487C15.1053 27.2504 15.0997 27.251 15.0942 27.2505ZM14.3513 27.1711H15.0545V26.4679H14.3513V27.1711Z" fill="#263238"/>
<path d="M16.2679 26.4283H15.4854V27.2109H16.2679V26.4283Z" fill="white"/>
<path d="M16.2689 27.2505H15.4855C15.475 27.2505 15.4649 27.2463 15.4574 27.2388C15.45 27.2314 15.4458 27.2213 15.4458 27.2108V26.4282C15.4458 26.4176 15.45 26.4076 15.4574 26.4001C15.4649 26.3927 15.475 26.3885 15.4855 26.3885H16.2689C16.2794 26.3885 16.2895 26.3927 16.2969 26.4001C16.3044 26.4076 16.3086 26.4176 16.3086 26.4282V27.2108C16.3086 27.2213 16.3044 27.2314 16.2969 27.2388C16.2895 27.2463 16.2794 27.2505 16.2689 27.2505ZM15.5252 27.1711H16.2292V26.4679H15.5252V27.1711Z" fill="#263238"/>
<path d="M17.4423 26.4283H16.6597V27.2109H17.4423V26.4283Z" fill="white"/>
<path d="M17.4432 27.2505H16.6598C16.6493 27.2505 16.6392 27.2463 16.6317 27.2388C16.6243 27.2314 16.6201 27.2213 16.6201 27.2108V26.4282C16.6201 26.4176 16.6243 26.4076 16.6317 26.4001C16.6392 26.3927 16.6493 26.3885 16.6598 26.3885H17.4432C17.4537 26.3885 17.4638 26.3927 17.4713 26.4001C17.4787 26.4076 17.4829 26.4176 17.4829 26.4282V27.2108C17.4829 27.2213 17.4787 27.2314 17.4713 27.2388C17.4638 27.2463 17.4537 27.2505 17.4432 27.2505ZM16.6995 27.1711H17.4035V26.4679H16.6963L16.6995 27.1711Z" fill="#263238"/>
<path d="M18.6171 26.4283H17.8345V27.2109H18.6171V26.4283Z" fill="white"/>
<path d="M18.6172 27.2505H17.8346C17.8241 27.2505 17.814 27.2463 17.8065 27.2388C17.7991 27.2314 17.7949 27.2213 17.7949 27.2108V26.4282C17.7949 26.4176 17.7991 26.4076 17.8065 26.4001C17.814 26.3927 17.8241 26.3885 17.8346 26.3885H18.6172C18.6277 26.3885 18.6378 26.3927 18.6453 26.4001C18.6527 26.4076 18.6569 26.4176 18.6569 26.4282V27.2108C18.6569 27.2213 18.6527 27.2314 18.6453 27.2388C18.6378 27.2463 18.6277 27.2505 18.6172 27.2505ZM17.8743 27.1711H18.5775V26.4679H17.8743V27.1711Z" fill="#263238"/>
<path d="M19.7909 26.4283H19.0083V27.2109H19.7909V26.4283Z" fill="white"/>
<path d="M19.7918 27.2505H19.0084C18.9979 27.2505 18.9878 27.2463 18.9804 27.2388C18.9729 27.2314 18.9688 27.2213 18.9688 27.2108V26.4282C18.9688 26.4176 18.9729 26.4076 18.9804 26.4001C18.9878 26.3927 18.9979 26.3885 19.0084 26.3885H19.7918C19.8024 26.3885 19.8124 26.3927 19.8199 26.4001C19.8273 26.4076 19.8315 26.4176 19.8315 26.4282V27.2108C19.8315 27.2213 19.8273 27.2314 19.8199 27.2388C19.8124 27.2463 19.8024 27.2505 19.7918 27.2505ZM19.0481 27.1711H19.7521V26.4679H19.0481V27.1711Z" fill="#263238"/>
<path d="M20.9657 26.4283H20.1831V27.2109H20.9657V26.4283Z" fill="white"/>
<path d="M20.9666 27.2505H20.1832C20.1727 27.2505 20.1626 27.2463 20.1552 27.2388C20.1477 27.2314 20.1436 27.2213 20.1436 27.2108V26.4282C20.1436 26.4176 20.1477 26.4076 20.1552 26.4001C20.1626 26.3927 20.1727 26.3885 20.1832 26.3885H20.9666C20.9772 26.3885 20.9873 26.3927 20.9947 26.4001C21.0021 26.4076 21.0063 26.4176 21.0063 26.4282V27.2108C21.0063 27.2213 21.0021 27.2314 20.9947 27.2388C20.9873 27.2463 20.9772 27.2505 20.9666 27.2505ZM20.2229 27.1711H20.9269V26.4679H20.2229V27.1711Z" fill="#263238"/>
<path d="M22.1405 26.4283H21.3579V27.2109H22.1405V26.4283Z" fill="white"/>
<path d="M22.1406 27.2505H21.358C21.3475 27.2505 21.3374 27.2463 21.33 27.2388C21.3225 27.2314 21.3184 27.2213 21.3184 27.2108V26.4282C21.3184 26.4176 21.3225 26.4076 21.33 26.4001C21.3374 26.3927 21.3475 26.3885 21.358 26.3885H22.1406C22.1512 26.3885 22.1613 26.3927 22.1687 26.4001C22.1761 26.4076 22.1803 26.4176 22.1803 26.4282V27.2108C22.1803 27.216 22.1793 27.2211 22.1773 27.226C22.1753 27.2308 22.1724 27.2351 22.1687 27.2388C22.165 27.2425 22.1606 27.2454 22.1558 27.2474C22.151 27.2494 22.1459 27.2505 22.1406 27.2505ZM21.3977 27.1711H22.101V26.4679H21.3977V27.1711Z" fill="#263238"/>
<path d="M13.9193 27.58H13.1367V28.3626H13.9193V27.58Z" fill="white"/>
<path d="M13.9185 28.4062H13.1359C13.1254 28.4062 13.1153 28.402 13.1078 28.3945C13.1004 28.3871 13.0962 28.377 13.0962 28.3665V27.5831C13.0962 27.5726 13.1004 27.5625 13.1078 27.555C13.1153 27.5476 13.1254 27.5434 13.1359 27.5434H13.9185C13.929 27.5434 13.9391 27.5476 13.9465 27.555C13.954 27.5625 13.9582 27.5726 13.9582 27.5831V28.3665C13.9582 28.377 13.954 28.3871 13.9465 28.3945C13.9391 28.402 13.929 28.4062 13.9185 28.4062ZM13.1756 28.3268H13.8788V27.6228H13.1756V28.3268Z" fill="#263238"/>
<path d="M15.0941 27.58H14.3115V28.3626H15.0941V27.58Z" fill="white"/>
<path d="M15.0942 28.4062H14.3156C14.305 28.4062 14.2949 28.402 14.2875 28.3945C14.2801 28.3871 14.2759 28.377 14.2759 28.3665V27.5831C14.2759 27.5726 14.2801 27.5625 14.2875 27.555C14.2949 27.5476 14.305 27.5434 14.3156 27.5434H15.0982C15.1087 27.5434 15.1188 27.5476 15.1262 27.555C15.1337 27.5625 15.1378 27.5726 15.1378 27.5831V28.3665C15.1379 28.372 15.1367 28.3775 15.1345 28.3826C15.1323 28.3877 15.129 28.3923 15.1249 28.396C15.1207 28.3998 15.1159 28.4026 15.1106 28.4044C15.1053 28.4061 15.0997 28.4067 15.0942 28.4062ZM14.3513 28.3268H15.0545V27.6228H14.3513V28.3268Z" fill="#263238"/>
<path d="M16.2679 27.58H15.4854V28.3626H16.2679V27.58Z" fill="white"/>
<path d="M16.2689 28.4062H15.4855C15.475 28.406 15.465 28.4017 15.4576 28.3943C15.4503 28.3869 15.446 28.3769 15.4458 28.3665V27.5831C15.4458 27.5726 15.45 27.5625 15.4574 27.555C15.4649 27.5476 15.475 27.5434 15.4855 27.5434H16.2689C16.2794 27.5434 16.2895 27.5476 16.2969 27.555C16.3044 27.5625 16.3086 27.5726 16.3086 27.5831V28.3665C16.3086 28.377 16.3044 28.3871 16.2969 28.3945C16.2895 28.402 16.2794 28.4062 16.2689 28.4062ZM15.5252 28.3268H16.2292V27.6228H15.5252V28.3268Z" fill="#263238"/>
<path d="M17.4423 27.58H16.6597V28.3626H17.4423V27.58Z" fill="white"/>
<path d="M17.4432 28.4062H16.6598C16.6493 28.4062 16.6392 28.402 16.6317 28.3945C16.6243 28.3871 16.6201 28.377 16.6201 28.3665V27.5831C16.6201 27.5726 16.6243 27.5625 16.6317 27.555C16.6392 27.5476 16.6493 27.5434 16.6598 27.5434H17.4432C17.4537 27.5434 17.4638 27.5476 17.4713 27.555C17.4787 27.5625 17.4829 27.5726 17.4829 27.5831V28.3665C17.4827 28.3769 17.4784 28.3869 17.471 28.3943C17.4636 28.4017 17.4537 28.406 17.4432 28.4062ZM16.6963 28.3268H17.4003V27.6228H16.6963V28.3268Z" fill="#263238"/>
<path d="M18.6171 27.58H17.8345V28.3626H18.6171V27.58Z" fill="white"/>
<path d="M18.6172 28.4062H17.8346C17.8241 28.4062 17.814 28.402 17.8065 28.3945C17.7991 28.3871 17.7949 28.377 17.7949 28.3665V27.5831C17.7949 27.5726 17.7991 27.5625 17.8065 27.555C17.814 27.5476 17.8241 27.5434 17.8346 27.5434H18.6172C18.6277 27.5434 18.6378 27.5476 18.6453 27.555C18.6527 27.5625 18.6569 27.5726 18.6569 27.5831V28.3665C18.6569 28.377 18.6527 28.3871 18.6453 28.3945C18.6378 28.402 18.6277 28.4062 18.6172 28.4062ZM17.8743 28.3268H18.5775V27.6228H17.8743V28.3268Z" fill="#263238"/>
<path d="M19.7909 27.58H19.0083V28.3626H19.7909V27.58Z" fill="white"/>
<path d="M19.7918 28.4062H19.0084C18.998 28.406 18.988 28.4017 18.9806 28.3943C18.9732 28.3869 18.969 28.3769 18.9688 28.3665V27.5831C18.9688 27.5726 18.9729 27.5625 18.9804 27.555C18.9878 27.5476 18.9979 27.5434 19.0084 27.5434H19.7918C19.8024 27.5434 19.8124 27.5476 19.8199 27.555C19.8273 27.5625 19.8315 27.5726 19.8315 27.5831V28.3665C19.8315 28.377 19.8273 28.3871 19.8199 28.3945C19.8124 28.402 19.8024 28.4062 19.7918 28.4062ZM19.0481 28.3268H19.7521V27.6228H19.0481V28.3268Z" fill="#263238"/>
<path d="M20.9657 27.58H20.1831V28.3626H20.9657V27.58Z" fill="white"/>
<path d="M20.9666 28.4062H20.1832C20.1728 28.406 20.1628 28.4017 20.1554 28.3943C20.148 28.3869 20.1438 28.3769 20.1436 28.3665V27.5831C20.1436 27.5726 20.1477 27.5625 20.1552 27.555C20.1626 27.5476 20.1727 27.5434 20.1832 27.5434H20.9666C20.9772 27.5434 20.9873 27.5476 20.9947 27.555C21.0021 27.5625 21.0063 27.5726 21.0063 27.5831V28.3665C21.0061 28.3769 21.0019 28.3869 20.9945 28.3943C20.9871 28.4017 20.9771 28.406 20.9666 28.4062ZM20.2229 28.3268H20.9269V27.6228H20.2229V28.3268Z" fill="#263238"/>
<path d="M22.1405 27.58H21.3579V28.3626H22.1405V27.58Z" fill="white"/>
<path d="M22.1406 28.4062H21.358C21.3475 28.4062 21.3374 28.402 21.33 28.3945C21.3225 28.3871 21.3184 28.377 21.3184 28.3665V27.5831C21.3184 27.5726 21.3225 27.5625 21.33 27.555C21.3374 27.5476 21.3475 27.5434 21.358 27.5434H22.1406C22.1512 27.5434 22.1613 27.5476 22.1687 27.555C22.1761 27.5625 22.1803 27.5726 22.1803 27.5831V28.3665C22.1803 28.3717 22.1793 28.3768 22.1773 28.3817C22.1753 28.3865 22.1724 28.3908 22.1687 28.3945C22.165 28.3982 22.1606 28.4011 22.1558 28.4031C22.151 28.4051 22.1459 28.4062 22.1406 28.4062ZM21.3977 28.3268H22.101V27.6228H21.3977V28.3268Z" fill="#263238"/>
<path d="M13.9193 28.7324H13.1367V29.515H13.9193V28.7324Z" fill="white"/>
<path d="M13.9185 29.5547H13.1359C13.1254 29.5547 13.1153 29.5505 13.1078 29.5431C13.1004 29.5357 13.0962 29.5256 13.0962 29.515V28.7324C13.0962 28.7219 13.1004 28.7118 13.1078 28.7044C13.1153 28.6969 13.1254 28.6927 13.1359 28.6927H13.9185C13.929 28.6927 13.9391 28.6969 13.9465 28.7044C13.954 28.7118 13.9582 28.7219 13.9582 28.7324V29.5174C13.9576 29.5275 13.9531 29.537 13.9457 29.5439C13.9383 29.5509 13.9286 29.5547 13.9185 29.5547ZM13.1756 29.4753H13.8788V28.7721H13.1756V29.4753Z" fill="#263238"/>
<path d="M15.0941 28.7324H14.3115V29.515H15.0941V28.7324Z" fill="white"/>
<path d="M15.0942 29.5547H14.3156C14.305 29.5547 14.2949 29.5505 14.2875 29.5431C14.2801 29.5357 14.2759 29.5256 14.2759 29.515V28.7324C14.2759 28.7219 14.2801 28.7118 14.2875 28.7044C14.2949 28.6969 14.305 28.6927 14.3156 28.6927H15.0982C15.1087 28.6927 15.1188 28.6969 15.1262 28.7044C15.1337 28.7118 15.1378 28.7219 15.1378 28.7324V29.5174C15.1376 29.5228 15.1362 29.528 15.1338 29.5328C15.1314 29.5376 15.1281 29.5419 15.124 29.5454C15.1199 29.5489 15.1152 29.5515 15.1101 29.5531C15.1049 29.5547 15.0995 29.5553 15.0942 29.5547ZM14.3513 29.4753H15.0545V28.7721H14.3513V29.4753Z" fill="#263238"/>
<path d="M16.2679 28.7324H15.4854V29.515H16.2679V28.7324Z" fill="white"/>
<path d="M16.2689 29.5547H15.4855C15.475 29.5547 15.4649 29.5505 15.4574 29.5431C15.45 29.5357 15.4458 29.5256 15.4458 29.515V28.7324C15.4458 28.7219 15.45 28.7118 15.4574 28.7044C15.4649 28.6969 15.475 28.6927 15.4855 28.6927H16.2689C16.2794 28.6927 16.2895 28.6969 16.2969 28.7044C16.3044 28.7118 16.3086 28.7219 16.3086 28.7324V29.5174C16.308 29.5275 16.3035 29.537 16.2961 29.5439C16.2888 29.5509 16.279 29.5547 16.2689 29.5547ZM15.5252 29.4753H16.2292V28.7721H15.5252V29.4753Z" fill="#263238"/>
<path d="M17.4423 28.7324H16.6597V29.515H17.4423V28.7324Z" fill="white"/>
<path d="M17.4432 29.5547H16.6598C16.6493 29.5547 16.6392 29.5505 16.6317 29.5431C16.6243 29.5357 16.6201 29.5256 16.6201 29.515V28.7324C16.6201 28.7219 16.6243 28.7118 16.6317 28.7044C16.6392 28.6969 16.6493 28.6927 16.6598 28.6927H17.4432C17.4537 28.6927 17.4638 28.6969 17.4713 28.7044C17.4787 28.7118 17.4829 28.7219 17.4829 28.7324V29.5174C17.4823 29.5275 17.4778 29.537 17.4704 29.5439C17.4631 29.5509 17.4533 29.5547 17.4432 29.5547ZM16.6995 29.4753H17.4035V28.7721H16.6963L16.6995 29.4753Z" fill="#263238"/>
<path d="M18.6171 28.7324H17.8345V29.515H18.6171V28.7324Z" fill="white"/>
<path d="M18.6172 29.5547H17.8346C17.8241 29.5547 17.814 29.5505 17.8065 29.5431C17.7991 29.5357 17.7949 29.5256 17.7949 29.515V28.7324C17.7949 28.7219 17.7991 28.7118 17.8065 28.7044C17.814 28.6969 17.8241 28.6927 17.8346 28.6927H18.6172C18.6277 28.6927 18.6378 28.6969 18.6453 28.7044C18.6527 28.7118 18.6569 28.7219 18.6569 28.7324V29.5174C18.6563 29.5275 18.6518 29.537 18.6445 29.5439C18.6371 29.5509 18.6273 29.5547 18.6172 29.5547ZM17.8743 29.4753H18.5775V28.7721H17.8743V29.4753Z" fill="#263238"/>
<path d="M19.7909 28.7324H19.0083V29.515H19.7909V28.7324Z" fill="white"/>
<path d="M19.7918 29.5547H19.0084C18.9979 29.5547 18.9878 29.5505 18.9804 29.5431C18.9729 29.5357 18.9688 29.5256 18.9688 29.515V28.7324C18.9688 28.7219 18.9729 28.7118 18.9804 28.7044C18.9878 28.6969 18.9979 28.6927 19.0084 28.6927H19.7918C19.8024 28.6927 19.8124 28.6969 19.8199 28.7044C19.8273 28.7118 19.8315 28.7219 19.8315 28.7324V29.5174C19.8309 29.5275 19.8265 29.537 19.8191 29.5439C19.8117 29.5509 19.802 29.5547 19.7918 29.5547ZM19.0481 29.4753H19.7521V28.7721H19.0481V29.4753Z" fill="#263238"/>
<path d="M20.9657 28.7324H20.1831V29.515H20.9657V28.7324Z" fill="white"/>
<path d="M20.9666 29.5547H20.1832C20.1727 29.5547 20.1626 29.5505 20.1552 29.5431C20.1477 29.5357 20.1436 29.5256 20.1436 29.515V28.7324C20.1436 28.7219 20.1477 28.7118 20.1552 28.7044C20.1626 28.6969 20.1727 28.6927 20.1832 28.6927H20.9666C20.9772 28.6927 20.9873 28.6969 20.9947 28.7044C21.0021 28.7118 21.0063 28.7219 21.0063 28.7324V29.5174C21.0057 29.5275 21.0013 29.537 20.9939 29.5439C20.9865 29.5509 20.9768 29.5547 20.9666 29.5547ZM20.2229 29.4753H20.9269V28.7721H20.2229V29.4753Z" fill="#263238"/>
<path d="M22.1405 28.7324H21.3579V29.515H22.1405V28.7324Z" fill="white"/>
<path d="M22.1406 29.5547H21.358C21.3475 29.5547 21.3374 29.5505 21.33 29.5431C21.3225 29.5357 21.3184 29.5256 21.3184 29.515V28.7324C21.3184 28.7219 21.3225 28.7118 21.33 28.7044C21.3374 28.6969 21.3475 28.6927 21.358 28.6927H22.1406C22.1512 28.6927 22.1613 28.6969 22.1687 28.7044C22.1761 28.7118 22.1803 28.7219 22.1803 28.7324V29.5174C22.1797 29.5275 22.1753 29.537 22.1679 29.5439C22.1605 29.5509 22.1508 29.5547 22.1406 29.5547ZM21.3977 29.4753H22.101V28.7721H21.3977V29.4753Z" fill="#263238"/>
<path d="M24.6954 30.0649C24.6849 30.0649 24.6748 30.0607 24.6674 30.0533C24.6599 30.0459 24.6558 30.0358 24.6558 30.0252V29.2061C24.6558 29.1956 24.6599 29.1855 24.6674 29.1781C24.6748 29.1706 24.6849 29.1664 24.6954 29.1664C24.706 29.1664 24.7161 29.1706 24.7235 29.1781C24.731 29.1855 24.7351 29.1956 24.7351 29.2061V30.0252C24.7351 30.0358 24.731 30.0459 24.7235 30.0533C24.7161 30.0607 24.706 30.0649 24.6954 30.0649Z" fill="white"/>
<path d="M26.1343 30.0254V25.6671H24.6953V28.8451" fill="#263238"/>
<path d="M26.1344 30.0651C26.1239 30.0651 26.1138 30.0609 26.1064 30.0534C26.0989 30.046 26.0948 30.0359 26.0948 30.0254V25.7076H24.7351V28.8459C24.7351 28.8565 24.731 28.8665 24.7235 28.874C24.7161 28.8814 24.706 28.8856 24.6954 28.8856C24.6849 28.8856 24.6748 28.8814 24.6674 28.874C24.6599 28.8665 24.6558 28.8565 24.6558 28.8459V25.6711C24.656 25.6606 24.6602 25.6507 24.6676 25.6433C24.675 25.6359 24.685 25.6316 24.6954 25.6314H26.1344C26.1449 25.6316 26.1549 25.6359 26.1623 25.6433C26.1697 25.6507 26.1739 25.6606 26.1741 25.6711V30.0254C26.1741 30.0359 26.1699 30.046 26.1625 30.0534C26.1551 30.0609 26.145 30.0651 26.1344 30.0651Z" fill="white"/>
<path d="M35.2131 30.0254H27.3062V22.6462L31.2596 20.5048L35.2131 22.6462V30.0254Z" fill="white"/>
<path d="M35.2127 30.0649H27.3058C27.2953 30.0649 27.2852 30.0608 27.2777 30.0533C27.2703 30.0459 27.2661 30.0358 27.2661 30.0253V22.6438C27.2662 22.6366 27.2681 22.6297 27.2717 22.6235C27.2754 22.6174 27.2805 22.6123 27.2867 22.6088L31.2402 20.4658C31.2461 20.4627 31.2526 20.4611 31.2593 20.4611C31.2659 20.4611 31.2724 20.4627 31.2783 20.4658L35.2318 22.6088C35.238 22.6123 35.2432 22.6174 35.2468 22.6235C35.2504 22.6297 35.2523 22.6366 35.2524 22.6438V30.0253C35.2524 30.0358 35.2482 30.0459 35.2408 30.0533C35.2333 30.0608 35.2232 30.0649 35.2127 30.0649ZM27.3455 29.9856H35.173V22.67L31.2593 20.5484L27.3455 22.6684V29.9856Z" fill="#263238"/>
<path d="M35.8166 22.9605L31.2591 20.4913L26.7016 22.9605L26.5596 22.6986L31.2591 20.1523L35.9587 22.6986L35.8166 22.9605Z" fill="white"/>
<path d="M35.8169 23.0002C35.8105 23.0002 35.8042 22.9986 35.7986 22.9954L31.2594 20.5349L26.7202 22.9954C26.7104 22.999 26.6997 22.999 26.69 22.9954C26.68 22.992 26.6718 22.9849 26.667 22.9756L26.5249 22.7144C26.5224 22.7099 26.5208 22.7048 26.5202 22.6996C26.5197 22.6944 26.5202 22.6892 26.5216 22.6842C26.5231 22.6791 26.5256 22.6745 26.5288 22.6704C26.5321 22.6663 26.5362 22.663 26.5408 22.6605L31.2403 20.1143C31.2462 20.1111 31.2527 20.1095 31.2594 20.1095C31.266 20.1095 31.2726 20.1111 31.2784 20.1143L35.978 22.6605C35.9871 22.6657 35.994 22.6742 35.997 22.6843C36.0009 22.694 36.0009 22.7048 35.997 22.7144L35.855 22.9756C35.8519 22.9831 35.8466 22.9895 35.8398 22.9939C35.833 22.9983 35.825 23.0005 35.8169 23.0002ZM31.2594 20.4516C31.266 20.4516 31.2725 20.4533 31.2784 20.4563L35.8026 22.9065L35.9065 22.7144L31.261 20.1976L26.6178 22.7144L26.7218 22.9065L31.2459 20.4563C31.2501 20.454 31.2546 20.4524 31.2594 20.4516Z" fill="#263238"/>
<path d="M27.3062 22.6462V22.8256L31.2596 20.6842L35.2131 22.8256V22.6462L31.2596 20.5048L27.3062 22.6462Z" fill="#263238"/>
<path d="M35.2127 22.8653C35.2061 22.8652 35.1996 22.8636 35.1937 22.8605L31.2593 20.7294L27.3249 22.8605C27.319 22.864 27.3123 22.8658 27.3054 22.8658C27.2986 22.8658 27.2918 22.864 27.286 22.8605C27.2799 22.8572 27.2748 22.8522 27.2713 22.8462C27.2678 22.8402 27.266 22.8333 27.2661 22.8264V22.647C27.2662 22.6399 27.2681 22.6329 27.2717 22.6268C27.2754 22.6206 27.2805 22.6156 27.2868 22.6121L31.2402 20.4691C31.2461 20.4659 31.2526 20.4643 31.2593 20.4643C31.2659 20.4643 31.2725 20.4659 31.2783 20.4691L35.2318 22.6121C35.238 22.6156 35.2432 22.6206 35.2468 22.6268C35.2504 22.6329 35.2524 22.6399 35.2524 22.647V22.8264C35.2525 22.8332 35.2507 22.84 35.2474 22.8459C35.244 22.8519 35.2392 22.8569 35.2334 22.8605C35.2271 22.864 35.2199 22.8657 35.2127 22.8653ZM31.2593 20.6429C31.2659 20.6429 31.2724 20.6446 31.2783 20.6476L35.173 22.7573V22.6684L31.2593 20.5484L27.3455 22.6684V22.7573L31.2402 20.6476C31.2462 20.6451 31.2528 20.644 31.2593 20.6445V20.6429Z" fill="#263238"/>
<path d="M29.5298 24.4384V23.6606H32.9411V27.5378" fill="white"/>
<path d="M32.9414 27.5776C32.9309 27.5776 32.9208 27.5734 32.9133 27.566C32.9059 27.5585 32.9017 27.5484 32.9017 27.5379V23.7003H29.5681V24.4377C29.5681 24.4482 29.564 24.4583 29.5565 24.4658C29.5491 24.4732 29.539 24.4774 29.5285 24.4774C29.5179 24.4774 29.5078 24.4732 29.5004 24.4658C29.4929 24.4583 29.4888 24.4482 29.4888 24.4377V23.6599C29.4888 23.6493 29.4929 23.6392 29.5004 23.6318C29.5078 23.6244 29.5179 23.6202 29.5285 23.6202H32.9414C32.9519 23.6202 32.962 23.6244 32.9695 23.6318C32.9769 23.6392 32.9811 23.6493 32.9811 23.6599V27.5371C32.9812 27.5424 32.9802 27.5477 32.9783 27.5526C32.9764 27.5575 32.9734 27.5619 32.9697 27.5657C32.9661 27.5695 32.9616 27.5725 32.9568 27.5745C32.9519 27.5766 32.9467 27.5776 32.9414 27.5776Z" fill="#263238"/>
<path d="M32.9411 27.9386V28.7022H29.5298V24.7344" fill="white"/>
<path d="M32.9414 28.742H29.5285C29.5179 28.742 29.5078 28.7378 29.5004 28.7304C29.4929 28.7229 29.4888 28.7128 29.4888 28.7023V24.7338C29.4888 24.7233 29.4929 24.7132 29.5004 24.7057C29.5078 24.6983 29.5179 24.6941 29.5285 24.6941C29.539 24.6941 29.5491 24.6983 29.5565 24.7057C29.564 24.7132 29.5681 24.7233 29.5681 24.7338V28.6618H32.9017V27.938C32.9017 27.9275 32.9059 27.9174 32.9133 27.9099C32.9208 27.9025 32.9309 27.8983 32.9414 27.8983C32.9519 27.8983 32.962 27.9025 32.9695 27.9099C32.9769 27.9174 32.9811 27.9275 32.9811 27.938V28.7015C32.9811 28.7121 32.9769 28.7223 32.9695 28.7299C32.9621 28.7374 32.952 28.7418 32.9414 28.742Z" fill="#263238"/>
<path d="M32.7143 25.1758H31.3872V26.0981H32.7143V25.1758Z" fill="#263238"/>
<path d="M32.7136 26.1378H31.3873C31.3768 26.1378 31.3667 26.1337 31.3593 26.1262C31.3518 26.1188 31.3477 26.1087 31.3477 26.0981V25.1759C31.3477 25.1653 31.3518 25.1552 31.3593 25.1478C31.3667 25.1404 31.3768 25.1362 31.3873 25.1362H32.7136C32.7242 25.1362 32.7342 25.1404 32.7417 25.1478C32.7491 25.1552 32.7533 25.1653 32.7533 25.1759V26.0981C32.7533 26.1087 32.7491 26.1188 32.7417 26.1262C32.7342 26.1337 32.7242 26.1378 32.7136 26.1378ZM31.427 26.0585H32.6739V25.2155H31.427V26.0585Z" fill="#263238"/>
<path d="M32.7143 26.4012H31.3872V27.3235H32.7143V26.4012Z" fill="#263238"/>
<path d="M32.7136 27.3624H31.3873C31.3768 27.3624 31.3667 27.3583 31.3593 27.3508C31.3518 27.3434 31.3477 27.3333 31.3477 27.3228V26.4013C31.3477 26.3907 31.3518 26.3806 31.3593 26.3732C31.3667 26.3658 31.3768 26.3616 31.3873 26.3616H32.7136C32.7242 26.3616 32.7342 26.3658 32.7417 26.3732C32.7491 26.3806 32.7533 26.3907 32.7533 26.4013V27.3228C32.7533 27.3333 32.7491 27.3434 32.7417 27.3508C32.7342 27.3583 32.7242 27.3624 32.7136 27.3624ZM31.427 27.2831H32.6739V26.4409H31.427V27.2831Z" fill="#263238"/>
<path d="M32.7143 23.8876H31.3872V24.8718H32.7143V23.8876Z" fill="#263238"/>
<path d="M32.7136 24.9139H31.3873C31.3768 24.9139 31.3667 24.9097 31.3593 24.9023C31.3518 24.8948 31.3477 24.8848 31.3477 24.8742V23.8876C31.3477 23.8771 31.3518 23.867 31.3593 23.8596C31.3667 23.8521 31.3768 23.848 31.3873 23.848H32.7136C32.7242 23.848 32.7342 23.8521 32.7417 23.8596C32.7491 23.867 32.7533 23.8771 32.7533 23.8876V24.8726C32.7535 24.878 32.7527 24.8833 32.7508 24.8883C32.7489 24.8933 32.746 24.8979 32.7423 24.9017C32.7386 24.9056 32.7341 24.9087 32.7292 24.9107C32.7243 24.9128 32.719 24.9139 32.7136 24.9139ZM31.427 24.8345H32.6739V23.9273H31.427V24.8345Z" fill="#263238"/>
<path d="M31.0839 23.8876H29.7568V24.8718H31.0839V23.8876Z" fill="#263238"/>
<path d="M31.0841 24.9139H29.757C29.7464 24.9139 29.7364 24.9097 29.7289 24.9023C29.7215 24.8948 29.7173 24.8848 29.7173 24.8742V23.8876C29.7173 23.8771 29.7215 23.867 29.7289 23.8596C29.7364 23.8521 29.7464 23.848 29.757 23.848H31.0841C31.0945 23.8482 31.1045 23.8524 31.1119 23.8598C31.1193 23.8672 31.1235 23.8772 31.1237 23.8876V24.8726C31.1238 24.878 31.1229 24.8832 31.121 24.8882C31.119 24.8931 31.1161 24.8977 31.1124 24.9015C31.1088 24.9053 31.1044 24.9084 31.0995 24.9105C31.0946 24.9127 31.0894 24.9138 31.0841 24.9139ZM29.7967 24.8345H31.0444V23.9273H29.7967V24.8345Z" fill="#263238"/>
<path d="M31.0839 26.4012H29.7568V27.3235H31.0839V26.4012Z" fill="#263238"/>
<path d="M31.0841 27.3624H29.757C29.7464 27.3624 29.7364 27.3583 29.7289 27.3508C29.7215 27.3434 29.7173 27.3333 29.7173 27.3228V26.4013C29.7173 26.3907 29.7215 26.3806 29.7289 26.3732C29.7364 26.3658 29.7464 26.3616 29.757 26.3616H31.0841C31.0946 26.3616 31.1047 26.3658 31.1121 26.3732C31.1196 26.3806 31.1237 26.3907 31.1237 26.4013V27.3228C31.1237 27.3333 31.1196 27.3434 31.1121 27.3508C31.1047 27.3583 31.0946 27.3624 31.0841 27.3624ZM29.7967 27.2831H31.0444V26.4409H29.7967V27.2831Z" fill="#263238"/>
<path d="M31.0839 25.1758H29.7568V26.0981H31.0839V25.1758Z" fill="#263238"/>
<path d="M31.0841 26.1378H29.757C29.7464 26.1378 29.7364 26.1337 29.7289 26.1262C29.7215 26.1188 29.7173 26.1087 29.7173 26.0981V25.1759C29.7173 25.1653 29.7215 25.1552 29.7289 25.1478C29.7364 25.1404 29.7464 25.1362 29.757 25.1362H31.0841C31.0946 25.1362 31.1047 25.1404 31.1121 25.1478C31.1196 25.1552 31.1237 25.1653 31.1237 25.1759V26.0981C31.1235 26.1086 31.1193 26.1186 31.1119 26.126C31.1045 26.1334 31.0945 26.1376 31.0841 26.1378ZM29.7967 26.0585H31.0444V25.2155H29.7967V26.0585Z" fill="#263238"/>
<path d="M32.7143 27.6259H31.3872V28.4743H32.7143V27.6259Z" fill="#263238"/>
<path d="M32.7136 28.5141H31.3873C31.3768 28.5141 31.3667 28.5099 31.3593 28.5025C31.3518 28.495 31.3477 28.4849 31.3477 28.4744V27.6259C31.3477 27.6154 31.3518 27.6053 31.3593 27.5979C31.3667 27.5904 31.3768 27.5862 31.3873 27.5862H32.7136C32.7242 27.5862 32.7342 27.5904 32.7417 27.5979C32.7491 27.6053 32.7533 27.6154 32.7533 27.6259V28.4744C32.7533 28.4849 32.7491 28.495 32.7417 28.5025C32.7342 28.5099 32.7242 28.5141 32.7136 28.5141ZM31.427 28.4347H32.6739V27.6656H31.427V28.4347Z" fill="#263238"/>
<path d="M31.0839 27.6259H29.7568V28.4743H31.0839V27.6259Z" fill="#263238"/>
<path d="M31.0841 28.5141H29.757C29.7464 28.5141 29.7364 28.5099 29.7289 28.5025C29.7215 28.495 29.7173 28.4849 29.7173 28.4744V27.6259C29.7173 27.6154 29.7215 27.6053 29.7289 27.5979C29.7364 27.5904 29.7464 27.5862 29.757 27.5862H31.0841C31.0945 27.5864 31.1045 27.5907 31.1119 27.5981C31.1193 27.6055 31.1235 27.6155 31.1237 27.6259V28.4744C31.1237 28.4849 31.1196 28.495 31.1121 28.5025C31.1047 28.5099 31.0946 28.5141 31.0841 28.5141ZM29.7967 28.4347H31.0444V27.6656H29.7967V28.4347Z" fill="#263238"/>
<rect x="29" y="27" width="20" height="20" rx="10" fill="#61C8AB"/>
<path d="M42.3734 39.3767L44.75 37L42.3734 34.6234" stroke="white" stroke-linecap="round" stroke-linejoin="round"/>
<path d="M33.25 37.0002H44.75" stroke="white" stroke-linecap="round" stroke-linejoin="round"/>
</svg>
