<svg width="42" height="14" viewBox="0 0 42 14" fill="none" xmlns="http://www.w3.org/2000/svg">
<path fill-rule="evenodd" clip-rule="evenodd" d="M6.97879 2.48101C6.97215 2.48101 6.96551 2.48098 6.95888 2.48096C6.94562 2.4809 6.93237 2.48084 6.91914 2.48101H6.97879Z" fill="#187259"/>
<path d="M12.3769 10.8249C12.3769 10.1316 11.8094 9.56962 11.1094 9.56962C10.829 9.56962 10.57 9.65976 10.3601 9.81237C10.2636 9.92256 10.1617 10.028 10.0548 10.1283C9.25308 10.8804 8.17034 11.3418 6.97879 11.3418C4.5081 11.3418 2.50521 9.35822 2.50521 6.91139C2.50521 4.46456 4.5081 2.48101 6.97879 2.48101H6.91914C6.93237 2.48084 6.94562 2.4809 6.95888 2.48096C6.96551 2.48098 6.97215 2.48101 6.97879 2.48101H14.0172C14.709 2.48101 15.2698 1.92562 15.2698 1.24051C15.2698 0.555394 14.709 0 14.0172 0H7.00861C6.97875 0 6.94892 0.000185026 6.91914 0.000553991C3.08963 0.048001 0 3.13714 0 6.94093C0 10.7743 3.16133 13.9409 7.00861 13.8819C10.8559 13.8228 12.3791 14.4135 12.3769 10.8249Z" fill="#187259"/>
<path d="M9.54364 6.2616C9.54364 7.20771 8.76919 7.97468 7.81386 7.97468C6.85853 7.97468 6.08407 7.20771 6.08407 6.2616C6.08407 5.3155 6.85853 4.54852 7.81386 4.54852C8.76919 4.54852 9.54364 5.3155 9.54364 6.2616Z" fill="#187259"/>
<path d="M11.3664 7.77997C11.6061 7.90434 11.8788 7.97468 12.1681 7.97468C13.1235 7.97468 13.8979 7.20771 13.8979 6.2616C13.8979 5.3155 13.1235 4.54852 12.1681 4.54852C11.7229 4.54852 11.3169 4.71513 11.0103 4.98883C10.6591 5.30237 10.4384 5.75645 10.4384 6.2616C10.4384 6.92118 10.8148 7.4937 11.3664 7.77997Z" fill="#187259"/>
<path d="M17.775 4.60759C16.3915 4.60759 15.2698 5.71838 15.2698 7.08861V12.7595C15.2698 13.4446 15.8306 14 16.5224 14C17.2142 14 17.775 13.4446 17.775 12.7595V6.97046C17.775 6.97046 17.7246 5.93517 17.9838 5.46414C18.243 4.9931 19.1171 4.60759 19.1171 4.60759H17.775Z" fill="#187259"/>
<path fill-rule="evenodd" clip-rule="evenodd" d="M23.7995 14C26.4019 14 28.5116 11.9107 28.5116 9.33333C28.5116 6.756 26.4019 4.66667 23.7995 4.66667C21.197 4.66667 19.0873 6.756 19.0873 9.33333C19.0873 11.9107 21.197 14 23.7995 14ZM23.7995 11.519C25.0183 11.519 26.0064 10.5404 26.0064 9.33333C26.0064 8.12623 25.0183 7.14768 23.7995 7.14768C22.5806 7.14768 21.5925 8.12623 21.5925 9.33333C21.5925 10.5404 22.5806 11.519 23.7995 11.519Z" fill="#187259"/>
<path d="M32.9872 13.6249C33.6234 13.3557 33.9188 12.6268 33.647 11.9968L32.508 9.35606L31.369 11.9968C31.0973 12.6268 31.3927 13.3557 32.0289 13.6249C32.1854 13.6911 32.3479 13.7233 32.508 13.7248C32.6682 13.7233 32.8307 13.6911 32.9872 13.6249Z" fill="#187259"/>
<path fill-rule="evenodd" clip-rule="evenodd" d="M28.6252 6.66987C28.3535 6.03983 28.6489 5.31092 29.2851 5.04179C29.9213 4.77267 30.6573 5.06525 30.9291 5.69529L32.508 9.35606L31.369 11.9968C31.0973 12.6268 31.3927 13.3557 32.0289 13.6249C32.1854 13.6911 32.3479 13.7233 32.508 13.7248C32.017 13.7297 31.5481 13.4465 31.3432 12.9714L28.6252 6.66987ZM35.2507 9.31332L33.6729 12.9714C33.468 13.4465 32.9991 13.7297 32.508 13.7248C32.6682 13.7233 32.8307 13.6911 32.9872 13.6249C33.6234 13.3557 33.9188 12.6268 33.647 11.9968L32.508 9.35606L34.087 5.69529C34.3588 5.06525 35.0948 4.77267 35.731 5.04179C35.9233 5.12315 36.0845 5.24654 36.2083 5.39651C35.8591 5.01983 35.2951 4.88259 34.7933 5.09489C34.1571 5.36401 33.8616 6.09293 34.1334 6.72297L35.2507 9.31332ZM38.0162 13.7779C37.5252 13.7828 37.0563 13.4996 36.8514 13.0245L35.2507 9.31332L36.3908 6.66987C36.5804 6.23031 36.4939 5.74261 36.2083 5.39651C36.3018 5.49735 36.3798 5.61534 36.4372 5.74838L38.0162 9.40916L36.8772 12.0499C36.6054 12.6799 36.9009 13.4088 37.5371 13.678C37.6935 13.7442 37.856 13.7764 38.0162 13.7779ZM38.0162 13.7779C38.5072 13.7828 38.9761 13.4996 39.181 13.0245L41.899 6.72297C42.1707 6.09293 41.8753 5.36401 41.2391 5.09489C40.6029 4.82576 39.8669 5.11834 39.5952 5.74838L38.0162 9.40916L39.1552 12.0499C39.4269 12.6799 39.1315 13.4088 38.4953 13.678C38.3389 13.7442 38.1763 13.7764 38.0162 13.7779Z" fill="#187259"/>
<path d="M34.7933 5.09489C34.1571 5.36401 33.8616 6.09293 34.1334 6.72297L35.2507 9.31332L36.3908 6.66987C36.5804 6.23031 36.4939 5.74261 36.2083 5.39651C35.8591 5.01983 35.2951 4.88259 34.7933 5.09489Z" fill="#187259"/>
<path d="M38.4953 13.678C39.1315 13.4088 39.4269 12.6799 39.1552 12.0499L38.0162 9.40916L36.8772 12.0499C36.6054 12.6799 36.9009 13.4088 37.5371 13.678C37.6935 13.7442 37.856 13.7764 38.0162 13.7779C38.1763 13.7764 38.3389 13.7442 38.4953 13.678Z" fill="#187259"/>
</svg>
