<svg width="163" height="86" viewBox="0 0 163 86" fill="none" xmlns="http://www.w3.org/2000/svg">
<path d="M153.369 40.7228H12.8232V85.0732H153.369V40.7228Z" fill="white"/>
<path d="M153.37 85.331H12.8233C12.7549 85.331 12.6893 85.3039 12.641 85.2555C12.5926 85.2071 12.5654 85.1415 12.5654 85.0731V40.7124C12.5654 40.644 12.5926 40.5784 12.641 40.53C12.6893 40.4816 12.7549 40.4545 12.8233 40.4545H153.37C153.438 40.4545 153.504 40.4816 153.552 40.53C153.6 40.5784 153.627 40.644 153.627 40.7124V85.0731C153.627 85.1415 153.6 85.2071 153.552 85.2555C153.504 85.3039 153.438 85.331 153.37 85.331ZM13.0658 84.8152H153.112V40.9703H13.0813L13.0658 84.8152Z" fill="#263238"/>
<path d="M83.2846 0.25647L13.1946 40.7228H153.369L83.2846 0.25647Z" fill="#187259"/>
<path d="M153.37 40.9806H13.1947C13.1384 40.98 13.0839 40.961 13.0394 40.9265C12.9949 40.8921 12.9629 40.844 12.9483 40.7896C12.9337 40.7353 12.9373 40.6776 12.9585 40.6255C12.9797 40.5733 13.0174 40.5296 13.0658 40.5009L83.1558 0.0345529C83.195 0.0119165 83.2394 0 83.2847 0C83.33 0 83.3745 0.0119165 83.4137 0.0345529L153.498 40.506C153.549 40.5331 153.588 40.5764 153.611 40.6289C153.633 40.6813 153.637 40.7398 153.622 40.7949C153.606 40.8493 153.573 40.897 153.527 40.9305C153.482 40.9641 153.426 40.9817 153.37 40.9806ZM14.1593 40.4647H152.4L83.2795 0.555539L14.1593 40.4647Z" fill="#263238"/>
<path d="M111.577 37.1172H76.7954V85.0732H111.577V37.1172Z" fill="white"/>
<path d="M111.578 85.3307H76.7958C76.7274 85.3307 76.6617 85.3035 76.6134 85.2552C76.565 85.2068 76.5378 85.1412 76.5378 85.0728V37.1013C76.5378 37.0329 76.565 36.9673 76.6134 36.9189C76.6617 36.8706 76.7274 36.8434 76.7958 36.8434H111.578C111.646 36.8447 111.71 36.8723 111.759 36.9204C111.807 36.9685 111.834 37.0333 111.836 37.1013V85.0728C111.836 85.1412 111.808 85.2068 111.76 85.2552C111.712 85.3035 111.646 85.3307 111.578 85.3307ZM77.0537 84.8149H111.299V37.3592H77.0537V84.8149Z" fill="#263238"/>
<path d="M111.577 37.1172H76.7954V39.1547H111.577V37.1172Z" fill="#263238"/>
<path d="M111.578 39.418H76.7958C76.7274 39.418 76.6617 39.3908 76.6134 39.3424C76.565 39.2941 76.5378 39.2285 76.5378 39.1601V37.0968C76.5378 37.0284 76.565 36.9628 76.6134 36.9144C76.6617 36.866 76.7274 36.8389 76.7958 36.8389H111.578C111.646 36.8402 111.71 36.8678 111.759 36.9159C111.807 36.964 111.834 37.0288 111.836 37.0968V39.1601C111.834 39.2281 111.807 39.2929 111.759 39.341C111.71 39.3891 111.646 39.4167 111.578 39.418ZM77.0537 38.9022H111.299V37.3547H77.0537V38.9022Z" fill="#263238"/>
<path d="M102.87 85.073H85.5078V55.0986C85.5071 53.9581 85.7312 52.8287 86.1672 51.7748C86.6031 50.7209 87.2425 49.7633 88.0487 48.9566C88.8549 48.15 89.8121 47.51 90.8657 47.0734C91.9193 46.6368 93.0486 46.4121 94.1891 46.4121C96.4929 46.4121 98.7023 47.3273 100.331 48.9563C101.96 50.5853 102.876 52.7948 102.876 55.0986L102.87 85.073Z" fill="#263238"/>
<path d="M102.87 85.3311H85.5078C85.4394 85.3311 85.3738 85.3039 85.3254 85.2555C85.2771 85.2072 85.2499 85.1416 85.2499 85.0732V55.0987C85.2213 53.9064 85.4314 52.7204 85.8679 51.6105C86.3044 50.5005 86.9584 49.4891 87.7916 48.6357C88.6247 47.7823 89.6201 47.1041 90.7193 46.6411C91.8184 46.1781 92.999 45.9396 94.1917 45.9396C95.3843 45.9396 96.565 46.1781 97.6641 46.6411C98.7632 47.1041 99.7586 47.7823 100.592 48.6357C101.425 49.4891 102.079 50.5005 102.516 51.6105C102.952 52.7204 103.162 53.9064 103.133 55.0987V85.0732C103.133 85.1075 103.127 85.1415 103.113 85.1731C103.1 85.2047 103.081 85.2334 103.056 85.2574C103.032 85.2814 103.003 85.3003 102.971 85.313C102.939 85.3256 102.905 85.3318 102.87 85.3311ZM85.7606 84.8153H102.612V55.0987C102.64 53.9747 102.443 52.8564 102.032 51.8098C101.621 50.7632 101.005 49.8094 100.22 49.0045C99.4345 48.1997 98.4962 47.5601 97.4601 47.1234C96.424 46.6867 95.3109 46.4617 94.1865 46.4617C93.0621 46.4617 91.9491 46.6867 90.913 47.1234C89.8768 47.5601 88.9386 48.1997 88.1534 49.0045C87.3682 49.8094 86.752 50.7632 86.3411 51.8098C85.9301 52.8564 85.7327 53.9747 85.7606 55.0987V84.8153Z" fill="#263238"/>
<path d="M83.2951 48.491H2.73389V85.0731H83.2951V48.491Z" fill="white"/>
<path d="M83.2949 85.331H2.73374C2.66534 85.331 2.59974 85.3038 2.55137 85.2555C2.503 85.2071 2.47583 85.1415 2.47583 85.0731V48.4909C2.47583 48.4225 2.503 48.3569 2.55137 48.3086C2.59974 48.2602 2.66534 48.233 2.73374 48.233H83.2949C83.3633 48.233 83.4289 48.2602 83.4773 48.3086C83.5257 48.3569 83.5528 48.4225 83.5528 48.4909V85.0731C83.5528 85.1415 83.5257 85.2071 83.4773 85.2555C83.4289 85.3038 83.3633 85.331 83.2949 85.331ZM2.97618 84.8152H83.037V48.7592H2.97618V84.8152Z" fill="#263238"/>
<path d="M83.2951 48.491H2.73389V50.121H83.2951V48.491Z" fill="#263238"/>
<path d="M83.2949 50.3789H2.73374C2.66534 50.3789 2.59974 50.3517 2.55137 50.3033C2.503 50.255 2.47583 50.1894 2.47583 50.121V48.4909C2.47583 48.4225 2.503 48.3569 2.55137 48.3086C2.59974 48.2602 2.66534 48.233 2.73374 48.233H83.2949C83.3633 48.233 83.4289 48.2602 83.4773 48.3086C83.5257 48.3569 83.5528 48.4225 83.5528 48.4909V50.121C83.5528 50.1894 83.5257 50.255 83.4773 50.3033C83.4289 50.3517 83.3633 50.3789 83.2949 50.3789ZM2.97618 49.863H83.037V48.7592H2.97618V49.863Z" fill="#263238"/>
<path d="M74.4278 51.5087H11.5955V85.0732H74.4278V51.5087Z" fill="#187259"/>
<path d="M74.4282 85.3311H11.5958C11.5274 85.3311 11.4618 85.304 11.4134 85.2556C11.3651 85.2072 11.3379 85.1416 11.3379 85.0732V51.5086C11.3379 51.4402 11.3651 51.3746 11.4134 51.3263C11.4618 51.2779 11.5274 51.2507 11.5958 51.2507H74.4282C74.4966 51.2507 74.5622 51.2779 74.6105 51.3263C74.6589 51.3746 74.6861 51.4402 74.6861 51.5086V85.0732C74.6861 85.1416 74.6589 85.2072 74.6105 85.2556C74.5622 85.304 74.4966 85.3311 74.4282 85.3311ZM11.8537 84.8153H74.1599V51.7666H11.8537V84.8153Z" fill="#263238"/>
<path d="M43.0146 21.7251L0.258057 46.4124H85.7711L43.0146 21.7251Z" fill="#187259"/>
<path d="M85.771 46.6961H0.257967C0.201681 46.6955 0.147128 46.6765 0.102632 46.642C0.0581367 46.6076 0.0261399 46.5595 0.0115272 46.5051C-0.00308538 46.4507 0.000488484 46.3931 0.0217003 46.341C0.0429121 46.2888 0.0805999 46.2451 0.129011 46.2163L42.8856 21.5291C42.9248 21.5064 42.9692 21.4945 43.0145 21.4945C43.0598 21.4945 43.1043 21.5064 43.1435 21.5291L85.9 46.1802C85.9484 46.209 85.9861 46.2527 86.0073 46.3049C86.0285 46.357 86.0321 46.4146 86.0175 46.469C86.0029 46.5234 85.9709 46.5714 85.9264 46.6059C85.8819 46.6404 85.8273 46.6594 85.771 46.6599V46.6961ZM1.22255 46.1802H84.7858L43.0042 22.05L1.22255 46.1802Z" fill="#263238"/>
<path d="M85.766 46.4121H0.258057V48.4909H85.766V46.4121Z" fill="white"/>
<path d="M85.771 48.7593H0.257911C0.189509 48.7593 0.123908 48.7321 0.0755403 48.6837C0.0271725 48.6354 0 48.5698 0 48.5014V46.4381C0 46.3697 0.0271725 46.3041 0.0755403 46.2557C0.123908 46.2074 0.189509 46.1802 0.257911 46.1802H85.771C85.8394 46.1802 85.905 46.2074 85.9534 46.2557C86.0017 46.3041 86.0289 46.3697 86.0289 46.4381V48.5014C86.0289 48.5698 86.0017 48.6354 85.9534 48.6837C85.905 48.7321 85.8394 48.7593 85.771 48.7593ZM0.515823 48.2435H85.5079V46.696H0.515823V48.2435Z" fill="#263238"/>
<path d="M94.1838 23.2002L72.0447 35.9823H116.328L94.1838 23.2002Z" fill="#187259"/>
<path d="M116.328 36.2404H72.0451C71.9877 36.2412 71.9317 36.2229 71.886 36.1883C71.8402 36.1538 71.8072 36.1049 71.7923 36.0495C71.7773 35.9945 71.7814 35.936 71.8039 35.8835C71.8264 35.8311 71.8659 35.7878 71.9161 35.7607L94.0552 22.9683C94.0952 22.9479 94.1394 22.9373 94.1842 22.9373C94.229 22.9373 94.2732 22.9479 94.3132 22.9683L116.457 35.7607C116.506 35.7894 116.544 35.8332 116.565 35.8853C116.586 35.9374 116.59 35.9951 116.575 36.0494C116.56 36.1038 116.528 36.1519 116.484 36.1864C116.439 36.2208 116.385 36.2398 116.328 36.2404ZM72.9994 35.7246H115.359L94.1842 23.4841L72.9994 35.7246Z" fill="#263238"/>
<path d="M116.328 35.9822H72.0447V38.0352H116.328V35.9822Z" fill="white"/>
<path d="M116.328 38.293H72.045C71.9766 38.293 71.911 38.2658 71.8627 38.2174C71.8143 38.1691 71.7871 38.1035 71.7871 38.0351V35.9718C71.7871 35.9034 71.8143 35.8378 71.8627 35.7894C71.911 35.741 71.9766 35.7139 72.045 35.7139H116.328C116.397 35.7139 116.462 35.741 116.511 35.7894C116.559 35.8378 116.586 35.9034 116.586 35.9718V38.0351C116.586 38.1035 116.559 38.1691 116.511 38.2174C116.462 38.2658 116.397 38.293 116.328 38.293ZM72.3029 37.7772H116.07V36.2297H72.3029V37.7772Z" fill="#263238"/>
<path d="M18.9722 54.2062H13.8862V59.2922H18.9722V54.2062Z" fill="white"/>
<path d="M18.9667 59.5502H13.8807C13.8123 59.5502 13.7467 59.523 13.6983 59.4747C13.65 59.4263 13.6228 59.3607 13.6228 59.2923V54.2063C13.6228 54.1379 13.65 54.0723 13.6983 54.0239C13.7467 53.9755 13.8123 53.9484 13.8807 53.9484H18.9667C19.0351 53.9484 19.1007 53.9755 19.1491 54.0239C19.1975 54.0723 19.2246 54.1379 19.2246 54.2063V59.2923C19.2246 59.3607 19.1975 59.4263 19.1491 59.4747C19.1007 59.523 19.0351 59.5502 18.9667 59.5502ZM14.1386 59.0344H18.7088V54.4642H14.1386V59.0344Z" fill="#263238"/>
<path d="M26.6063 54.2062H21.5203V59.2922H26.6063V54.2062Z" fill="white"/>
<path d="M26.606 59.5502H21.5458C21.4774 59.5502 21.4118 59.523 21.3634 59.4747C21.315 59.4263 21.2878 59.3607 21.2878 59.2923V54.2063C21.2878 54.1379 21.315 54.0723 21.3634 54.0239C21.4118 53.9755 21.4774 53.9484 21.5458 53.9484H26.6318C26.7002 53.9484 26.7658 53.9755 26.8141 54.0239C26.8625 54.0723 26.8897 54.1379 26.8897 54.2063V59.2923C26.8899 59.3284 26.8824 59.3642 26.8679 59.3973C26.8533 59.4304 26.832 59.4601 26.8053 59.4844C26.7785 59.5087 26.7469 59.5272 26.7126 59.5385C26.6783 59.5498 26.6419 59.5538 26.606 59.5502ZM21.7779 59.0344H26.3481V54.4642H21.7779V59.0344Z" fill="#263238"/>
<path d="M34.2349 54.2062H29.1489V59.2922H34.2349V54.2062Z" fill="white"/>
<path d="M34.2404 59.5502H29.1493C29.0809 59.5502 29.0153 59.523 28.9669 59.4747C28.9185 59.4263 28.8914 59.3607 28.8914 59.2923V54.2063C28.8914 54.1379 28.9185 54.0723 28.9669 54.0239C29.0153 53.9755 29.0809 53.9484 29.1493 53.9484H34.2404C34.3088 53.9484 34.3744 53.9755 34.4228 54.0239C34.4712 54.0723 34.4983 54.1379 34.4983 54.2063V59.2923C34.4983 59.3607 34.4712 59.4263 34.4228 59.4747C34.3744 59.523 34.3088 59.5502 34.2404 59.5502ZM29.4072 59.0344H33.9825V54.4642H29.4072V59.0344Z" fill="#263238"/>
<path d="M41.8692 54.2062H36.7832V59.2922H41.8692V54.2062Z" fill="white"/>
<path d="M41.8747 59.5502H36.7835C36.7151 59.5502 36.6495 59.523 36.6012 59.4747C36.5528 59.4263 36.5256 59.3607 36.5256 59.2923V54.2063C36.5256 54.1379 36.5528 54.0723 36.6012 54.0239C36.6495 53.9755 36.7151 53.9484 36.7835 53.9484H41.8747C41.9431 53.9484 42.0087 53.9755 42.0571 54.0239C42.1055 54.0723 42.1326 54.1379 42.1326 54.2063V59.2923C42.1326 59.3607 42.1055 59.4263 42.0571 59.4747C42.0087 59.523 41.9431 59.5502 41.8747 59.5502ZM37.0415 59.0344H41.6168V54.4642H37.0208L37.0415 59.0344Z" fill="#263238"/>
<path d="M49.5035 54.2062H44.4175V59.2922H49.5035V54.2062Z" fill="white"/>
<path d="M49.5036 59.5502H44.4176C44.3492 59.5502 44.2836 59.523 44.2352 59.4747C44.1868 59.4263 44.1597 59.3607 44.1597 59.2923V54.2063C44.1597 54.1379 44.1868 54.0723 44.2352 54.0239C44.2836 53.9755 44.3492 53.9484 44.4176 53.9484H49.5036C49.572 53.9484 49.6376 53.9755 49.686 54.0239C49.7343 54.0723 49.7615 54.1379 49.7615 54.2063V59.2923C49.7615 59.3607 49.7343 59.4263 49.686 59.4747C49.6376 59.523 49.572 59.5502 49.5036 59.5502ZM44.6755 59.0344H49.2457V54.4642H44.6755V59.0344Z" fill="#263238"/>
<path d="M57.1326 54.2062H52.0466V59.2922H57.1326V54.2062Z" fill="white"/>
<path d="M57.1377 59.5502H52.0465C51.9781 59.5502 51.9125 59.523 51.8641 59.4747C51.8157 59.4263 51.7886 59.3607 51.7886 59.2923V54.2063C51.7886 54.1379 51.8157 54.0723 51.8641 54.0239C51.9125 53.9755 51.9781 53.9484 52.0465 53.9484H57.1377C57.2061 53.9484 57.2717 53.9755 57.32 54.0239C57.3684 54.0723 57.3956 54.1379 57.3956 54.2063V59.2923C57.3956 59.3607 57.3684 59.4263 57.32 59.4747C57.2717 59.523 57.2061 59.5502 57.1377 59.5502ZM52.3044 59.0344H56.8797V54.4642H52.3044V59.0344Z" fill="#263238"/>
<path d="M64.7667 54.2062H59.6807V59.2922H64.7667V54.2062Z" fill="white"/>
<path d="M64.7719 59.5502H59.6808C59.6124 59.5502 59.5468 59.523 59.4984 59.4747C59.45 59.4263 59.4229 59.3607 59.4229 59.2923V54.2063C59.4229 54.1379 59.45 54.0723 59.4984 54.0239C59.5468 53.9755 59.6124 53.9484 59.6808 53.9484H64.7719C64.8403 53.9484 64.9059 53.9755 64.9543 54.0239C65.0027 54.0723 65.0298 54.1379 65.0298 54.2063V59.2923C65.0298 59.3607 65.0027 59.4263 64.9543 59.4747C64.9059 59.523 64.8403 59.5502 64.7719 59.5502ZM59.9387 59.0344H64.514V54.4642H59.9387V59.0344Z" fill="#263238"/>
<path d="M72.401 54.2062H67.3149V59.2922H72.401V54.2062Z" fill="white"/>
<path d="M72.4011 59.5502H67.315C67.2466 59.5502 67.181 59.523 67.1327 59.4747C67.0843 59.4263 67.0571 59.3607 67.0571 59.2923V54.2063C67.0571 54.1379 67.0843 54.0723 67.1327 54.0239C67.181 53.9755 67.2466 53.9484 67.315 53.9484H72.4011C72.4695 53.9484 72.5351 53.9755 72.5834 54.0239C72.6318 54.0723 72.659 54.1379 72.659 54.2063V59.2923C72.659 59.3262 72.6523 59.3597 72.6393 59.391C72.6264 59.4223 72.6074 59.4507 72.5834 59.4747C72.5595 59.4986 72.531 59.5176 72.4998 59.5306C72.4685 59.5435 72.4349 59.5502 72.4011 59.5502ZM67.573 59.0344H72.1431V54.4642H67.573V59.0344Z" fill="#263238"/>
<path d="M18.9722 61.6962H13.8862V66.7822H18.9722V61.6962Z" fill="white"/>
<path d="M18.9667 67.0401H13.8807C13.8123 67.0401 13.7467 67.0129 13.6983 66.9645C13.65 66.9162 13.6228 66.8506 13.6228 66.7822V61.6961C13.6228 61.6277 13.65 61.5621 13.6983 61.5138C13.7467 61.4654 13.8123 61.4382 13.8807 61.4382H18.9667C19.0351 61.4382 19.1007 61.4654 19.1491 61.5138C19.1975 61.5621 19.2246 61.6277 19.2246 61.6961V66.7822C19.2246 66.8506 19.1975 66.9162 19.1491 66.9645C19.1007 67.0129 19.0351 67.0401 18.9667 67.0401ZM14.1386 66.5243H18.7088V61.9541H14.1386V66.5243Z" fill="#263238"/>
<path d="M26.6063 61.6962H21.5203V66.7822H26.6063V61.6962Z" fill="white"/>
<path d="M26.606 67.0401H21.5458C21.4774 67.0401 21.4118 67.0129 21.3634 66.9645C21.315 66.9162 21.2878 66.8506 21.2878 66.7822V61.6961C21.2878 61.6277 21.315 61.5621 21.3634 61.5138C21.4118 61.4654 21.4774 61.4382 21.5458 61.4382H26.6318C26.7002 61.4382 26.7658 61.4654 26.8141 61.5138C26.8625 61.5621 26.8897 61.6277 26.8897 61.6961V66.7822C26.8899 66.8183 26.8824 66.8541 26.8679 66.8872C26.8533 66.9203 26.832 66.95 26.8053 66.9743C26.7785 66.9986 26.7469 67.017 26.7126 67.0284C26.6783 67.0397 26.6419 67.0437 26.606 67.0401ZM21.7779 66.5243H26.3481V61.9541H21.7779V66.5243Z" fill="#263238"/>
<path d="M34.2349 61.6962H29.1489V66.7822H34.2349V61.6962Z" fill="white"/>
<path d="M34.2404 67.0401H29.1493C29.0809 67.0401 29.0153 67.0129 28.9669 66.9645C28.9185 66.9162 28.8914 66.8506 28.8914 66.7822V61.6961C28.8914 61.6277 28.9185 61.5621 28.9669 61.5138C29.0153 61.4654 29.0809 61.4382 29.1493 61.4382H34.2404C34.3088 61.4382 34.3744 61.4654 34.4228 61.5138C34.4712 61.5621 34.4983 61.6277 34.4983 61.6961V66.7822C34.4983 66.8506 34.4712 66.9162 34.4228 66.9645C34.3744 67.0129 34.3088 67.0401 34.2404 67.0401ZM29.4072 66.5243H33.9825V61.9541H29.4072V66.5243Z" fill="#263238"/>
<path d="M41.8692 61.6962H36.7832V66.7822H41.8692V61.6962Z" fill="white"/>
<path d="M41.8747 67.0401H36.7835C36.7151 67.0401 36.6495 67.0129 36.6012 66.9645C36.5528 66.9162 36.5256 66.8506 36.5256 66.7822V61.6961C36.5256 61.6277 36.5528 61.5621 36.6012 61.5138C36.6495 61.4654 36.7151 61.4382 36.7835 61.4382H41.8747C41.9431 61.4382 42.0087 61.4654 42.0571 61.5138C42.1055 61.5621 42.1326 61.6277 42.1326 61.6961V66.7822C42.1326 66.8506 42.1055 66.9162 42.0571 66.9645C42.0087 67.0129 41.9431 67.0401 41.8747 67.0401ZM37.0415 66.5243H41.6168V61.9541H37.0208L37.0415 66.5243Z" fill="#263238"/>
<path d="M49.5035 61.6962H44.4175V66.7822H49.5035V61.6962Z" fill="white"/>
<path d="M49.5036 67.0401H44.4176C44.3492 67.0401 44.2836 67.0129 44.2352 66.9645C44.1868 66.9162 44.1597 66.8506 44.1597 66.7822V61.6961C44.1597 61.6277 44.1868 61.5621 44.2352 61.5138C44.2836 61.4654 44.3492 61.4382 44.4176 61.4382H49.5036C49.572 61.4382 49.6376 61.4654 49.686 61.5138C49.7343 61.5621 49.7615 61.6277 49.7615 61.6961V66.7822C49.7615 66.8506 49.7343 66.9162 49.686 66.9645C49.6376 67.0129 49.572 67.0401 49.5036 67.0401ZM44.6755 66.5243H49.2457V61.9541H44.6755V66.5243Z" fill="#263238"/>
<path d="M57.1326 61.6962H52.0466V66.7822H57.1326V61.6962Z" fill="white"/>
<path d="M57.1377 67.0401H52.0465C51.9781 67.0401 51.9125 67.0129 51.8641 66.9645C51.8157 66.9162 51.7886 66.8506 51.7886 66.7822V61.6961C51.7886 61.6277 51.8157 61.5621 51.8641 61.5138C51.9125 61.4654 51.9781 61.4382 52.0465 61.4382H57.1377C57.2061 61.4382 57.2717 61.4654 57.32 61.5138C57.3684 61.5621 57.3956 61.6277 57.3956 61.6961V66.7822C57.3956 66.8506 57.3684 66.9162 57.32 66.9645C57.2717 67.0129 57.2061 67.0401 57.1377 67.0401ZM52.3044 66.5243H56.8797V61.9541H52.3044V66.5243Z" fill="#263238"/>
<path d="M64.7667 61.6962H59.6807V66.7822H64.7667V61.6962Z" fill="white"/>
<path d="M64.7719 67.0401H59.6808C59.6124 67.0401 59.5468 67.0129 59.4984 66.9645C59.45 66.9162 59.4229 66.8506 59.4229 66.7822V61.6961C59.4229 61.6277 59.45 61.5621 59.4984 61.5138C59.5468 61.4654 59.6124 61.4382 59.6808 61.4382H64.7719C64.8403 61.4382 64.9059 61.4654 64.9543 61.5138C65.0027 61.5621 65.0298 61.6277 65.0298 61.6961V66.7822C65.0298 66.8506 65.0027 66.9162 64.9543 66.9645C64.9059 67.0129 64.8403 67.0401 64.7719 67.0401ZM59.9387 66.5243H64.514V61.9541H59.9387V66.5243Z" fill="#263238"/>
<path d="M72.401 61.6962H67.3149V66.7822H72.401V61.6962Z" fill="white"/>
<path d="M72.4011 67.0401H67.315C67.2466 67.0401 67.181 67.0129 67.1327 66.9645C67.0843 66.9162 67.0571 66.8506 67.0571 66.7822V61.6961C67.0571 61.6277 67.0843 61.5621 67.1327 61.5138C67.181 61.4654 67.2466 61.4382 67.315 61.4382H72.4011C72.4695 61.4382 72.5351 61.4654 72.5834 61.5138C72.6318 61.5621 72.659 61.6277 72.659 61.6961V66.7822C72.659 66.816 72.6523 66.8496 72.6393 66.8809C72.6264 66.9122 72.6074 66.9406 72.5834 66.9645C72.5595 66.9885 72.531 67.0075 72.4998 67.0204C72.4685 67.0334 72.4349 67.0401 72.4011 67.0401ZM67.573 66.5243H72.1431V61.9541H67.573V66.5243Z" fill="#263238"/>
<path d="M18.9722 69.1805H13.8862V74.2666H18.9722V69.1805Z" fill="white"/>
<path d="M18.9667 74.5506H13.8807C13.8123 74.5506 13.7467 74.5234 13.6983 74.475C13.65 74.4267 13.6228 74.3611 13.6228 74.2927V69.2015C13.6228 69.1331 13.65 69.0675 13.6983 69.0191C13.7467 68.9708 13.8123 68.9436 13.8807 68.9436H18.9667C19.0351 68.9436 19.1007 68.9708 19.1491 69.0191C19.1975 69.0675 19.2246 69.1331 19.2246 69.2015V74.2927C19.2246 74.3611 19.1975 74.4267 19.1491 74.475C19.1007 74.5234 19.0351 74.5506 18.9667 74.5506ZM14.1386 74.0348H18.7088V69.4594H14.1386V74.0348Z" fill="#263238"/>
<path d="M26.6063 69.1805H21.5203V74.2666H26.6063V69.1805Z" fill="white"/>
<path d="M26.606 74.5506H21.5458C21.4774 74.5506 21.4118 74.5234 21.3634 74.475C21.315 74.4267 21.2878 74.3611 21.2878 74.2927V69.2015C21.2878 69.1331 21.315 69.0675 21.3634 69.0191C21.4118 68.9708 21.4774 68.9436 21.5458 68.9436H26.6318C26.7002 68.9436 26.7658 68.9708 26.8141 69.0191C26.8625 69.0675 26.8897 69.1331 26.8897 69.2015V74.2927C26.8899 74.3288 26.8824 74.3646 26.8679 74.3977C26.8533 74.4308 26.832 74.4605 26.8053 74.4848C26.7785 74.5091 26.7469 74.5276 26.7126 74.5389C26.6783 74.5502 26.6419 74.5542 26.606 74.5506ZM21.7779 74.0348H26.3481V69.4594H21.7779V74.0348Z" fill="#263238"/>
<path d="M34.2349 69.1805H29.1489V74.2666H34.2349V69.1805Z" fill="white"/>
<path d="M34.2404 74.5506H29.1493C29.0813 74.5493 29.0164 74.5217 28.9684 74.4736C28.9203 74.4255 28.8927 74.3607 28.8914 74.2927V69.2015C28.8914 69.1331 28.9185 69.0675 28.9669 69.0191C29.0153 68.9708 29.0809 68.9436 29.1493 68.9436H34.2404C34.3088 68.9436 34.3744 68.9708 34.4228 69.0191C34.4712 69.0675 34.4983 69.1331 34.4983 69.2015V74.2927C34.4983 74.3611 34.4712 74.4267 34.4228 74.475C34.3744 74.5234 34.3088 74.5506 34.2404 74.5506ZM29.4072 74.0348H33.9825V69.4594H29.4072V74.0348Z" fill="#263238"/>
<path d="M41.8692 69.1805H36.7832V74.2666H41.8692V69.1805Z" fill="white"/>
<path d="M41.8747 74.5506H36.7835C36.7151 74.5506 36.6495 74.5234 36.6012 74.475C36.5528 74.4267 36.5256 74.3611 36.5256 74.2927V69.2015C36.5256 69.1331 36.5528 69.0675 36.6012 69.0191C36.6495 68.9708 36.7151 68.9436 36.7835 68.9436H41.8747C41.9431 68.9436 42.0087 68.9708 42.0571 69.0191C42.1055 69.0675 42.1326 69.1331 42.1326 69.2015V74.2927C42.1313 74.3607 42.1037 74.4255 42.0556 74.4736C42.0075 74.5217 41.9427 74.5493 41.8747 74.5506ZM37.0208 74.0348H41.5962V69.4594H37.0208V74.0348Z" fill="#263238"/>
<path d="M49.5035 69.1805H44.4175V74.2666H49.5035V69.1805Z" fill="white"/>
<path d="M49.5036 74.5506H44.4176C44.3492 74.5506 44.2836 74.5234 44.2352 74.475C44.1868 74.4267 44.1597 74.3611 44.1597 74.2927V69.2015C44.1597 69.1331 44.1868 69.0675 44.2352 69.0191C44.2836 68.9708 44.3492 68.9436 44.4176 68.9436H49.5036C49.572 68.9436 49.6376 68.9708 49.686 69.0191C49.7343 69.0675 49.7615 69.1331 49.7615 69.2015V74.2927C49.7615 74.3611 49.7343 74.4267 49.686 74.475C49.6376 74.5234 49.572 74.5506 49.5036 74.5506ZM44.6755 74.0348H49.2457V69.4594H44.6755V74.0348Z" fill="#263238"/>
<path d="M57.1326 69.1805H52.0466V74.2666H57.1326V69.1805Z" fill="white"/>
<path d="M57.1377 74.5506H52.0465C51.9785 74.5493 51.9137 74.5217 51.8656 74.4736C51.8175 74.4255 51.7899 74.3607 51.7886 74.2927V69.2015C51.7886 69.1331 51.8157 69.0675 51.8641 69.0191C51.9125 68.9708 51.9781 68.9436 52.0465 68.9436H57.1377C57.2061 68.9436 57.2717 68.9708 57.32 69.0191C57.3684 69.0675 57.3956 69.1331 57.3956 69.2015V74.2927C57.3956 74.3611 57.3684 74.4267 57.32 74.475C57.2717 74.5234 57.2061 74.5506 57.1377 74.5506ZM52.3044 74.0348H56.8797V69.4594H52.3044V74.0348Z" fill="#263238"/>
<path d="M64.7667 69.1805H59.6807V74.2666H64.7667V69.1805Z" fill="white"/>
<path d="M64.7719 74.5506H59.6808C59.6128 74.5493 59.5479 74.5217 59.4999 74.4736C59.4518 74.4255 59.4242 74.3607 59.4229 74.2927V69.2015C59.4229 69.1331 59.45 69.0675 59.4984 69.0191C59.5468 68.9708 59.6124 68.9436 59.6808 68.9436H64.7719C64.8403 68.9436 64.9059 68.9708 64.9543 69.0191C65.0027 69.0675 65.0298 69.1331 65.0298 69.2015V74.2927C65.0285 74.3607 65.0009 74.4255 64.9528 74.4736C64.9048 74.5217 64.8399 74.5493 64.7719 74.5506ZM59.9387 74.0348H64.514V69.4594H59.9387V74.0348Z" fill="#263238"/>
<path d="M72.401 69.1805H67.3149V74.2666H72.401V69.1805Z" fill="white"/>
<path d="M72.4011 74.5506H67.315C67.2466 74.5506 67.181 74.5234 67.1327 74.475C67.0843 74.4267 67.0571 74.3611 67.0571 74.2927V69.2015C67.0571 69.1331 67.0843 69.0675 67.1327 69.0191C67.181 68.9708 67.2466 68.9436 67.315 68.9436H72.4011C72.4695 68.9436 72.5351 68.9708 72.5834 69.0191C72.6318 69.0675 72.659 69.1331 72.659 69.2015V74.2927C72.659 74.3266 72.6523 74.3601 72.6393 74.3914C72.6264 74.4227 72.6074 74.4511 72.5834 74.475C72.5595 74.499 72.531 74.518 72.4998 74.531C72.4685 74.5439 72.4349 74.5506 72.4011 74.5506ZM67.573 74.0348H72.1431V69.4594H67.573V74.0348Z" fill="#263238"/>
<path d="M18.9722 76.6704H13.8862V81.7564H18.9722V76.6704Z" fill="white"/>
<path d="M18.9667 82.0144H13.8807C13.8123 82.0144 13.7467 81.9873 13.6983 81.9389C13.65 81.8905 13.6228 81.8249 13.6228 81.7565V76.6705C13.6228 76.6021 13.65 76.5365 13.6983 76.4881C13.7467 76.4398 13.8123 76.4126 13.8807 76.4126H18.9667C19.0351 76.4126 19.1007 76.4398 19.1491 76.4881C19.1975 76.5365 19.2246 76.6021 19.2246 76.6705V81.772C19.2207 81.8377 19.1918 81.8994 19.1438 81.9445C19.0959 81.9895 19.0325 82.0146 18.9667 82.0144ZM14.1386 81.4986H18.7088V76.9284H14.1386V81.4986Z" fill="#263238"/>
<path d="M26.6063 76.6704H21.5203V81.7564H26.6063V76.6704Z" fill="white"/>
<path d="M26.606 82.0144H21.5458C21.4774 82.0144 21.4118 81.9873 21.3634 81.9389C21.315 81.8905 21.2878 81.8249 21.2878 81.7565V76.6705C21.2878 76.6021 21.315 76.5365 21.3634 76.4881C21.4118 76.4398 21.4774 76.4126 21.5458 76.4126H26.6318C26.7002 76.4126 26.7658 76.4398 26.8141 76.4881C26.8625 76.5365 26.8897 76.6021 26.8897 76.6705V81.772C26.8878 81.8068 26.8788 81.8409 26.8633 81.8722C26.8479 81.9035 26.8262 81.9313 26.7997 81.9539C26.7732 81.9766 26.7423 81.9937 26.709 82.0041C26.6757 82.0145 26.6407 82.018 26.606 82.0144ZM21.7779 81.4986H26.3481V76.9284H21.7779V81.4986Z" fill="#263238"/>
<path d="M34.2349 76.6704H29.1489V81.7564H34.2349V76.6704Z" fill="white"/>
<path d="M34.2404 82.0144H29.1493C29.0809 82.0144 29.0153 81.9873 28.9669 81.9389C28.9185 81.8905 28.8914 81.8249 28.8914 81.7565V76.6705C28.8914 76.6021 28.9185 76.5365 28.9669 76.4881C29.0153 76.4398 29.0809 76.4126 29.1493 76.4126H34.2404C34.3088 76.4126 34.3744 76.4398 34.4228 76.4881C34.4712 76.5365 34.4983 76.6021 34.4983 76.6705V81.772C34.4944 81.8377 34.4655 81.8994 34.4175 81.9445C34.3696 81.9895 34.3062 82.0146 34.2404 82.0144ZM29.4072 81.4986H33.9825V76.9284H29.4072V81.4986Z" fill="#263238"/>
<path d="M41.8692 76.6704H36.7832V81.7564H41.8692V76.6704Z" fill="white"/>
<path d="M41.8747 82.0144H36.7835C36.7151 82.0144 36.6495 81.9873 36.6012 81.9389C36.5528 81.8905 36.5256 81.8249 36.5256 81.7565V76.6705C36.5256 76.6021 36.5528 76.5365 36.6012 76.4881C36.6495 76.4398 36.7151 76.4126 36.7835 76.4126H41.8747C41.9431 76.4126 42.0087 76.4398 42.0571 76.4881C42.1055 76.5365 42.1326 76.6021 42.1326 76.6705V81.772C42.1287 81.8377 42.0998 81.8994 42.0518 81.9445C42.0039 81.9895 41.9405 82.0146 41.8747 82.0144ZM37.0415 81.4986H41.6168V76.9284H37.0208L37.0415 81.4986Z" fill="#263238"/>
<path d="M49.5035 76.6704H44.4175V81.7564H49.5035V76.6704Z" fill="white"/>
<path d="M49.5036 82.0144H44.4176C44.3492 82.0144 44.2836 81.9873 44.2352 81.9389C44.1868 81.8905 44.1597 81.8249 44.1597 81.7565V76.6705C44.1597 76.6021 44.1868 76.5365 44.2352 76.4881C44.2836 76.4398 44.3492 76.4126 44.4176 76.4126H49.5036C49.572 76.4126 49.6376 76.4398 49.686 76.4881C49.7343 76.5365 49.7615 76.6021 49.7615 76.6705V81.772C49.7576 81.8377 49.7286 81.8994 49.6807 81.9445C49.6328 81.9895 49.5694 82.0146 49.5036 82.0144ZM44.6755 81.4986H49.2457V76.9284H44.6755V81.4986Z" fill="#263238"/>
<path d="M57.1326 76.6704H52.0466V81.7564H57.1326V76.6704Z" fill="white"/>
<path d="M57.1377 82.0144H52.0465C51.9781 82.0144 51.9125 81.9873 51.8641 81.9389C51.8157 81.8905 51.7886 81.8249 51.7886 81.7565V76.6705C51.7886 76.6021 51.8157 76.5365 51.8641 76.4881C51.9125 76.4398 51.9781 76.4126 52.0465 76.4126H57.1377C57.2061 76.4126 57.2717 76.4398 57.32 76.4881C57.3684 76.5365 57.3956 76.6021 57.3956 76.6705V81.772C57.3916 81.8377 57.3627 81.8994 57.3148 81.9445C57.2668 81.9895 57.2035 82.0146 57.1377 82.0144ZM52.3044 81.4986H56.8797V76.9284H52.3044V81.4986Z" fill="#263238"/>
<path d="M64.7667 76.6704H59.6807V81.7564H64.7667V76.6704Z" fill="white"/>
<path d="M64.7719 82.0144H59.6808C59.6124 82.0144 59.5468 81.9873 59.4984 81.9389C59.45 81.8905 59.4229 81.8249 59.4229 81.7565V76.6705C59.4229 76.6021 59.45 76.5365 59.4984 76.4881C59.5468 76.4398 59.6124 76.4126 59.6808 76.4126H64.7719C64.8403 76.4126 64.9059 76.4398 64.9543 76.4881C65.0027 76.5365 65.0298 76.6021 65.0298 76.6705V81.772C65.0259 81.8377 64.997 81.8994 64.949 81.9445C64.9011 81.9895 64.8377 82.0146 64.7719 82.0144ZM59.9387 81.4986H64.514V76.9284H59.9387V81.4986Z" fill="#263238"/>
<path d="M72.401 76.6704H67.3149V81.7564H72.401V76.6704Z" fill="white"/>
<path d="M72.4011 82.0144H67.315C67.2466 82.0144 67.181 81.9873 67.1327 81.9389C67.0843 81.8905 67.0571 81.8249 67.0571 81.7565V76.6705C67.0571 76.6021 67.0843 76.5365 67.1327 76.4881C67.181 76.4398 67.2466 76.4126 67.315 76.4126H72.4011C72.4695 76.4126 72.5351 76.4398 72.5834 76.4881C72.6318 76.5365 72.659 76.6021 72.659 76.6705V81.772C72.655 81.8377 72.6261 81.8994 72.5782 81.9445C72.5302 81.9895 72.4669 82.0146 72.4011 82.0144ZM67.573 81.4986H72.1431V76.9284H67.573V81.4986Z" fill="#263238"/>
<path d="M89.0052 85.3311C88.9368 85.3311 88.8712 85.3039 88.8229 85.2555C88.7745 85.2071 88.7473 85.1416 88.7473 85.0731V79.7499C88.7473 79.6815 88.7745 79.6159 88.8229 79.5675C88.8712 79.5191 88.9368 79.4919 89.0052 79.4919C89.0736 79.4919 89.1392 79.5191 89.1876 79.5675C89.236 79.6159 89.2631 79.6815 89.2631 79.7499V85.0731C89.2631 85.1416 89.236 85.2071 89.1876 85.2555C89.1392 85.3039 89.0736 85.3311 89.0052 85.3311Z" fill="white"/>
<path d="M98.3572 85.0733V56.7495H89.0054V77.4031" fill="#263238"/>
<path d="M98.3571 85.3308C98.2887 85.3308 98.2231 85.3036 98.1747 85.2553C98.1264 85.2069 98.0992 85.1413 98.0992 85.0729V57.0122H89.2631V77.4078C89.2631 77.4762 89.236 77.5418 89.1876 77.5902C89.1392 77.6385 89.0736 77.6657 89.0052 77.6657C88.9368 77.6657 88.8712 77.6385 88.8229 77.5902C88.7745 77.5418 88.7473 77.4762 88.7473 77.4078V56.7749C88.7486 56.7069 88.7762 56.642 88.8243 56.594C88.8724 56.5459 88.9372 56.5183 89.0052 56.517H98.3571C98.4251 56.5183 98.4899 56.5459 98.538 56.594C98.5861 56.642 98.6137 56.7069 98.615 56.7749V85.0729C98.615 85.1413 98.5878 85.2069 98.5395 85.2553C98.4911 85.3036 98.4255 85.3308 98.3571 85.3308Z" fill="white"/>
<path d="M157.357 85.0731H105.971V37.1171L131.664 23.2002L157.357 37.1171V85.0731Z" fill="white"/>
<path d="M157.357 85.3309H105.971C105.902 85.3309 105.837 85.3038 105.788 85.2554C105.74 85.207 105.713 85.1414 105.713 85.073V37.1015C105.713 37.0552 105.726 37.0099 105.749 36.97C105.773 36.9302 105.806 36.8972 105.847 36.8746L131.54 22.9473C131.578 22.927 131.621 22.9164 131.664 22.9164C131.707 22.9164 131.749 22.927 131.787 22.9473L157.481 36.8746C157.521 36.8972 157.555 36.9302 157.578 36.97C157.602 37.0099 157.614 37.0552 157.615 37.1015V85.073C157.615 85.1414 157.588 85.207 157.539 85.2554C157.491 85.3038 157.425 85.3309 157.357 85.3309ZM106.228 84.8151H157.099V37.2717L131.664 23.4838L106.228 37.2614V84.8151Z" fill="#263238"/>
<path d="M161.282 39.1596L131.664 23.1124L102.045 39.1596L101.122 37.4574L131.664 20.9098L162.206 37.4574L161.282 39.1596Z" fill="white"/>
<path d="M161.282 39.4177C161.241 39.418 161.2 39.4073 161.164 39.3868L131.664 23.3963L102.164 39.3868C102.1 39.4101 102.031 39.4101 101.968 39.3868C101.903 39.3649 101.849 39.3186 101.818 39.2578L100.895 37.5608C100.878 37.531 100.868 37.4983 100.865 37.4645C100.861 37.4307 100.864 37.3965 100.874 37.364C100.883 37.3314 100.899 37.301 100.92 37.2746C100.942 37.2481 100.968 37.2262 100.998 37.21L131.54 20.6624C131.578 20.6421 131.62 20.6315 131.664 20.6315C131.707 20.6315 131.749 20.6421 131.787 20.6624L162.329 37.21C162.389 37.2439 162.433 37.2993 162.453 37.3648C162.478 37.4277 162.478 37.4979 162.453 37.5608L161.53 39.2578C161.51 39.3066 161.475 39.348 161.431 39.3766C161.387 39.4052 161.335 39.4196 161.282 39.4177ZM131.664 22.8547C131.707 22.8551 131.749 22.8657 131.787 22.8856L161.189 38.8091L161.865 37.5608L131.674 21.204L101.498 37.5608L102.174 38.8091L131.576 22.8856C131.603 22.8704 131.633 22.8599 131.664 22.8547Z" fill="#263238"/>
<path d="M105.971 37.1171V38.2829L131.664 24.366L157.357 38.2829V37.1171L131.664 23.2002L105.971 37.1171Z" fill="#263238"/>
<path d="M157.357 38.5409C157.314 38.5405 157.271 38.5299 157.233 38.5099L131.664 24.6601L106.094 38.5099C106.056 38.5326 106.012 38.5446 105.968 38.5446C105.924 38.5446 105.88 38.5326 105.842 38.5099C105.802 38.4883 105.769 38.4561 105.746 38.417C105.723 38.3779 105.712 38.3334 105.713 38.2881V37.1224C105.713 37.0761 105.726 37.0307 105.749 36.9909C105.773 36.951 105.806 36.9181 105.847 36.8954L131.54 22.9682C131.578 22.9479 131.621 22.9373 131.664 22.9373C131.707 22.9373 131.749 22.9479 131.788 22.9682L157.481 36.8954C157.521 36.9181 157.555 36.951 157.578 36.9909C157.602 37.0307 157.614 37.0761 157.615 37.1224V38.2881C157.615 38.3326 157.604 38.3765 157.582 38.4153C157.56 38.4542 157.529 38.4868 157.491 38.5099C157.45 38.5327 157.404 38.5435 157.357 38.5409ZM131.664 24.0979C131.707 24.0983 131.749 24.1089 131.788 24.1288L157.099 37.8394V37.2617L131.664 23.484L106.229 37.2617V37.8394L131.54 24.1288C131.579 24.1124 131.621 24.1054 131.664 24.1082V24.0979Z" fill="#263238"/>
<path d="M120.424 48.7647V43.7096H142.594V68.9075" fill="white"/>
<path d="M142.594 69.1652C142.526 69.1652 142.46 69.138 142.412 69.0897C142.363 69.0413 142.336 68.9757 142.336 68.9073V43.9673H120.672V48.7593C120.672 48.8277 120.644 48.8933 120.596 48.9416C120.548 48.99 120.482 49.0172 120.414 49.0172C120.345 49.0172 120.28 48.99 120.231 48.9416C120.183 48.8933 120.156 48.8277 120.156 48.7593V43.7042C120.156 43.6358 120.183 43.5702 120.231 43.5218C120.28 43.4735 120.345 43.4463 120.414 43.4463H142.594C142.662 43.4463 142.728 43.4735 142.776 43.5218C142.825 43.5702 142.852 43.6358 142.852 43.7042V68.9021C142.853 68.9364 142.846 68.9705 142.834 69.0024C142.821 69.0343 142.802 69.0634 142.778 69.0879C142.754 69.1124 142.726 69.1318 142.694 69.1451C142.662 69.1584 142.628 69.1652 142.594 69.1652Z" fill="#263238"/>
<path d="M142.594 71.512V76.4742H120.424V50.6882" fill="white"/>
<path d="M142.594 76.7324H120.414C120.345 76.7324 120.28 76.7052 120.231 76.6568C120.183 76.6085 120.156 76.5429 120.156 76.4745V50.6833C120.156 50.6149 120.183 50.5493 120.231 50.5009C120.28 50.4526 120.345 50.4254 120.414 50.4254C120.482 50.4254 120.548 50.4526 120.596 50.5009C120.644 50.5493 120.672 50.6149 120.672 50.6833V76.2114H142.336V71.5071C142.336 71.4387 142.363 71.3731 142.412 71.3247C142.46 71.2764 142.526 71.2492 142.594 71.2492C142.662 71.2492 142.728 71.2764 142.776 71.3247C142.825 71.3731 142.852 71.4387 142.852 71.5071V76.4693C142.852 76.5382 142.825 76.6043 142.777 76.6535C142.729 76.7027 142.663 76.731 142.594 76.7324Z" fill="#263238"/>
<path d="M141.119 53.5565H132.494V59.5504H141.119V53.5565Z" fill="#263238"/>
<path d="M141.114 59.8084H132.494C132.426 59.8084 132.36 59.7812 132.312 59.7329C132.264 59.6845 132.236 59.6189 132.236 59.5505V53.5566C132.236 53.4882 132.264 53.4226 132.312 53.3743C132.36 53.3259 132.426 53.2987 132.494 53.2987H141.114C141.182 53.2987 141.248 53.3259 141.296 53.3743C141.344 53.4226 141.372 53.4882 141.372 53.5566V59.5505C141.372 59.6189 141.344 59.6845 141.296 59.7329C141.248 59.7812 141.182 59.8084 141.114 59.8084ZM132.752 59.2926H140.856V53.8145H132.752V59.2926Z" fill="#263238"/>
<path d="M141.119 61.5206H132.494V67.5145H141.119V61.5206Z" fill="#263238"/>
<path d="M141.114 67.7671H132.494C132.426 67.7671 132.36 67.7399 132.312 67.6916C132.264 67.6432 132.236 67.5776 132.236 67.5092V61.5205C132.236 61.4521 132.264 61.3865 132.312 61.3381C132.36 61.2897 132.426 61.2626 132.494 61.2626H141.114C141.182 61.2626 141.248 61.2897 141.296 61.3381C141.344 61.3865 141.372 61.4521 141.372 61.5205V67.5092C141.372 67.5776 141.344 67.6432 141.296 67.6916C141.248 67.7399 141.182 67.7671 141.114 67.7671ZM132.752 67.2513H140.856V61.7784H132.752V67.2513Z" fill="#263238"/>
<path d="M141.119 45.1846H132.494V51.5808H141.119V45.1846Z" fill="#263238"/>
<path d="M141.114 51.8541H132.494C132.426 51.8541 132.36 51.827 132.312 51.7786C132.264 51.7302 132.236 51.6646 132.236 51.5962V45.1845C132.236 45.1161 132.264 45.0505 132.312 45.0022C132.36 44.9538 132.426 44.9266 132.494 44.9266H141.114C141.182 44.9266 141.248 44.9538 141.296 45.0022C141.344 45.0505 141.372 45.1161 141.372 45.1845V51.5859C141.373 51.6206 141.367 51.6553 141.355 51.6878C141.343 51.7203 141.324 51.7499 141.3 51.775C141.276 51.8 141.247 51.82 141.215 51.8336C141.183 51.8472 141.148 51.8542 141.114 51.8541ZM132.752 51.3383H140.856V45.4425H132.752V51.3383Z" fill="#263238"/>
<path d="M130.524 45.1846H121.899V51.5808H130.524V45.1846Z" fill="#263238"/>
<path d="M130.524 51.8541H121.899C121.831 51.8541 121.765 51.827 121.717 51.7786C121.669 51.7302 121.641 51.6646 121.641 51.5962V45.1845C121.641 45.1161 121.669 45.0505 121.717 45.0022C121.765 44.9538 121.831 44.9266 121.899 44.9266H130.524C130.592 44.928 130.657 44.9556 130.705 45.0036C130.753 45.0517 130.78 45.1166 130.782 45.1845V51.5859C130.782 51.6205 130.776 51.6548 130.764 51.687C130.751 51.7191 130.732 51.7485 130.708 51.7734C130.684 51.7983 130.656 51.8183 130.624 51.8321C130.592 51.846 130.558 51.8535 130.524 51.8541ZM122.157 51.3383H130.266V45.4425H122.157V51.3383Z" fill="#263238"/>
<path d="M130.524 61.5206H121.899V67.5145H130.524V61.5206Z" fill="#263238"/>
<path d="M130.524 67.7671H121.899C121.831 67.7671 121.765 67.7399 121.717 67.6916C121.669 67.6432 121.641 67.5776 121.641 67.5092V61.5205C121.641 61.4521 121.669 61.3865 121.717 61.3381C121.765 61.2897 121.831 61.2626 121.899 61.2626H130.524C130.592 61.2626 130.658 61.2897 130.706 61.3381C130.755 61.3865 130.782 61.4521 130.782 61.5205V67.5092C130.782 67.5776 130.755 67.6432 130.706 67.6916C130.658 67.7399 130.592 67.7671 130.524 67.7671ZM122.157 67.2513H130.266V61.7784H122.157V67.2513Z" fill="#263238"/>
<path d="M130.524 53.5565H121.899V59.5504H130.524V53.5565Z" fill="#263238"/>
<path d="M130.524 59.8084H121.899C121.831 59.8084 121.765 59.7812 121.717 59.7329C121.669 59.6845 121.641 59.6189 121.641 59.5505V53.5566C121.641 53.4882 121.669 53.4226 121.717 53.3743C121.765 53.3259 121.831 53.2987 121.899 53.2987H130.524C130.592 53.2987 130.658 53.3259 130.706 53.3743C130.755 53.4226 130.782 53.4882 130.782 53.5566V59.5505C130.78 59.6185 130.753 59.6833 130.705 59.7314C130.657 59.7795 130.592 59.8071 130.524 59.8084ZM122.157 59.2926H130.266V53.8145H122.157V59.2926Z" fill="#263238"/>
<path d="M141.119 69.4797H132.494V74.9939H141.119V69.4797Z" fill="#263238"/>
<path d="M141.114 75.2519H132.494C132.426 75.2519 132.36 75.2247 132.312 75.1763C132.264 75.128 132.236 75.0624 132.236 74.994V69.4798C132.236 69.4114 132.264 69.3458 132.312 69.2975C132.36 69.2491 132.426 69.2219 132.494 69.2219H141.114C141.182 69.2219 141.248 69.2491 141.296 69.2975C141.344 69.3458 141.372 69.4114 141.372 69.4798V74.994C141.372 75.0624 141.344 75.128 141.296 75.1763C141.248 75.2247 141.182 75.2519 141.114 75.2519ZM132.752 74.7361H140.856V69.7377H132.752V74.7361Z" fill="#263238"/>
<path d="M130.524 69.4797H121.899V74.9939H130.524V69.4797Z" fill="#263238"/>
<path d="M130.524 75.2519H121.899C121.831 75.2519 121.765 75.2247 121.717 75.1763C121.669 75.128 121.641 75.0624 121.641 74.994V69.4798C121.641 69.4114 121.669 69.3458 121.717 69.2975C121.765 69.2491 121.831 69.2219 121.899 69.2219H130.524C130.592 69.2232 130.657 69.2508 130.705 69.2989C130.753 69.347 130.78 69.4118 130.782 69.4798V74.994C130.782 75.0624 130.755 75.128 130.706 75.1763C130.658 75.2247 130.592 75.2519 130.524 75.2519ZM122.157 74.7361H130.266V69.7377H122.157V74.7361Z" fill="#263238"/>
</svg>
