<svg width="217" height="217" viewBox="0 0 217 217" fill="none" xmlns="http://www.w3.org/2000/svg">
<path d="M207.639 215.327C207.639 215.403 162.917 215.459 107.764 215.459C52.6119 215.459 7.87891 215.403 7.87891 215.327C7.87891 215.252 52.5899 215.196 107.764 215.196C162.939 215.196 207.639 215.257 207.639 215.327Z" fill="#263238"/>
<path d="M159.226 184.037L150.826 147.264C150.826 147.264 145.9 129.545 128.945 123.43L127.775 123.101L126.121 122.64C125.437 122.397 122.657 121.587 121.923 121.375C99.0657 114.105 92.9983 115.998 69.1812 123.455C69.1812 123.455 58.5964 126.072 53.4667 138.739C48.337 151.405 38.5244 171.224 38.5244 171.224L62.2864 178.929L66.8425 172.717V215.206H132.205L130.401 195.645L130.087 171.553" fill="#187259"/>
<path d="M92.6948 125.713C92.533 125.889 92.3477 126.045 92.1432 126.179C91.9248 126.36 91.6946 126.529 91.4537 126.685C91.1471 126.901 90.8286 127.102 90.4995 127.287C89.6493 127.782 88.7543 128.209 87.8243 128.563C86.681 128.989 85.4975 129.318 84.2887 129.545C83.0751 129.751 81.8438 129.856 80.6097 129.859C79.6033 129.851 78.5995 129.765 77.6091 129.601C77.1789 129.545 76.8093 129.444 76.4784 129.373C76.1917 129.317 75.9097 129.243 75.6344 129.15C75.3933 129.094 75.1601 129.013 74.9395 128.907C74.9395 128.857 75.9599 129.181 77.6422 129.414C78.6246 129.547 79.6166 129.613 80.6097 129.611C81.8259 129.596 83.0383 129.484 84.2336 129.277C85.4244 129.055 86.5925 128.74 87.725 128.335C88.6463 127.993 89.5387 127.589 90.3947 127.125C91.8619 126.315 92.6617 125.673 92.6948 125.713Z" fill="#FAFAFA"/>
<g opacity="0.3">
<path d="M66.8643 188.887L72.2201 194.567H77.4877V200.748L131.956 212.31L131.515 207.496L80.2676 191.347H71.6795L67.5427 188.31L66.8643 188.887Z" fill="black"/>
</g>
<path d="M82.9045 183.828L78.3595 183.059C78.3595 183.059 67.5926 172.245 65.5739 172.114C63.9191 171.987 54.7464 172.068 51.5582 172.114C51.2657 172.114 50.9851 172.22 50.7782 172.41C50.5713 172.6 50.4551 172.858 50.4551 173.126C50.4549 173.39 50.5666 173.643 50.7664 173.832C50.9662 174.021 51.2383 174.131 51.5251 174.139L62.3471 174.524L62.3968 175.323L51.5582 175.455C50.4551 175.531 49.7491 177.136 53.2847 177.424L62.3471 177.723V178.229L53.1578 179.409C52.689 179.469 51.47 179.687 51.459 180.117C51.459 180.117 50.9074 181.175 53.5219 181.474C54.4209 181.575 62.3968 181.332 62.3968 181.332L62.0934 181.991L53.8197 183.626C53.5294 183.683 53.2737 183.839 53.1038 184.063C52.9339 184.286 52.8626 184.561 52.9041 184.831C52.9454 185.105 53.1002 185.354 53.3364 185.527C53.5726 185.699 53.8721 185.782 54.1727 185.757L62.998 185.003L71.6798 191.351H83.263L82.9045 183.828Z" fill="#FFBE9D"/>
<path d="M159.226 184.036L132.789 188.81L130.108 171.552" fill="#187259"/>
<path d="M129.27 184.694L80.2676 183.251V198.793L112.778 204.721L135.613 208.057C149.8 208.057 161.146 196.105 158.95 183.251H158.89L129.27 184.694Z" fill="#187259"/>
<path d="M142.745 184.412C142.535 184.439 142.323 184.453 142.111 184.452L140.291 184.498L133.589 184.609C127.935 184.685 120.119 184.771 111.482 184.695C102.844 184.619 95.0281 184.331 89.3799 183.981C86.5559 183.809 84.2723 183.642 82.7003 183.475L80.8856 183.303C80.6741 183.291 80.4639 183.264 80.2568 183.222C80.4698 183.206 80.6837 183.206 80.8967 183.222L82.7114 183.328C84.2889 183.43 86.5724 183.561 89.3965 183.703C95.0447 183.987 102.855 184.235 111.487 184.316C120.119 184.397 127.93 184.316 133.589 184.316H140.291H142.111C142.325 184.327 142.538 184.36 142.745 184.412Z" fill="#263238"/>
<path d="M80.2738 183.384C80.2811 183.475 80.2811 183.566 80.2738 183.657C80.2738 183.853 80.2738 184.121 80.2738 184.462C80.2738 185.186 80.2738 186.219 80.3069 187.53C80.3069 190.188 80.34 193.964 80.3676 198.515L80.2683 198.404C85.7841 199.492 92.4361 200.844 99.5736 202.216C109.359 204.119 118.272 205.618 124.748 206.539C127.991 206.995 130.616 207.329 132.437 207.552L134.527 207.805L135.079 207.876C135.141 207.879 135.202 207.891 135.261 207.911H135.073L134.522 207.866L132.42 207.663C130.6 207.471 127.963 207.157 124.698 206.732C118.206 205.861 109.281 204.388 99.4908 202.484C92.3479 201.112 85.7014 199.745 80.1856 198.632H80.0918V198.546C80.0918 193.99 80.1249 190.218 80.1359 187.56C80.1359 186.249 80.1359 185.216 80.169 184.492C80.169 184.155 80.169 183.887 80.169 183.688C80.1863 183.582 80.2216 183.479 80.2738 183.384Z" fill="#263238"/>
<path d="M76.0866 140.87C76.072 140.617 76.0831 140.363 76.1198 140.111C76.1584 139.605 76.208 138.921 76.2301 138.051C76.2949 135.785 76.1231 133.518 75.7171 131.282C75.2152 128.68 74.5808 126.306 73.5935 124.828C73.2199 124.238 72.7232 123.722 72.1318 123.309C71.7016 123.031 71.4258 122.924 71.4368 122.904C71.4479 122.884 71.5141 122.904 71.6464 122.965C71.8389 123.035 72.0236 123.121 72.198 123.223C72.8337 123.621 73.3696 124.139 73.77 124.742C74.3549 125.625 74.8006 126.579 75.0938 127.577C76.1693 130.983 76.624 134.529 76.4397 138.071C76.39 138.942 76.3073 139.65 76.2411 140.131C76.2159 140.382 76.1642 140.629 76.0866 140.87Z" fill="#263238"/>
<path d="M129.971 127.206C130.054 127.206 130.115 137.539 130.115 150.286C130.115 163.033 130.054 173.365 129.971 173.365C129.888 173.365 129.827 163.033 129.827 150.286C129.827 137.539 129.894 127.206 129.971 127.206Z" fill="#263238"/>
<path d="M146.882 179.116C146.882 179.162 146.049 179.142 144.725 179.288C143.95 179.38 143.182 179.517 142.425 179.698C141.506 179.931 140.606 180.225 139.734 180.579C138.865 180.948 138.028 181.376 137.229 181.86C136.583 182.259 135.965 182.697 135.382 183.171C134.383 183.986 133.854 184.574 133.81 184.543C133.906 184.387 134.021 184.241 134.152 184.108C134.493 183.728 134.862 183.37 135.255 183.035C135.827 182.532 136.441 182.072 137.091 181.658C137.895 181.157 138.742 180.716 139.623 180.341C140.514 179.979 141.437 179.686 142.381 179.466C143.151 179.289 143.935 179.169 144.725 179.106C145.255 179.057 145.788 179.041 146.319 179.061C146.509 179.057 146.698 179.076 146.882 179.116Z" fill="#263238"/>
<g opacity="0.3">
<path d="M76.5555 181.266C84.8292 176.74 89.9699 169.247 95.0058 161.725C100.042 154.202 104.736 146.31 111.719 140.245C114.923 137.456 118.674 135.107 119.86 131.199L107.306 140.356L72.3359 177.266L76.5555 181.266Z" fill="black"/>
</g>
<path d="M53.8746 161.483C53.8746 161.579 51.8999 161.508 49.644 162.217C48.6861 162.533 47.7535 162.91 46.853 163.346C46.4897 163.552 46.1032 163.722 45.7002 163.852C46.0201 163.591 46.3739 163.366 46.7537 163.184C47.6374 162.691 48.5746 162.284 49.5502 161.969C50.5333 161.663 51.558 161.484 52.5949 161.437C53.0215 161.393 53.453 161.409 53.8746 161.483Z" fill="#263238"/>
<path d="M53.8746 161.483C53.8746 161.579 51.8999 161.508 49.644 162.217C48.6861 162.533 47.7535 162.91 46.853 163.346C46.4897 163.552 46.1032 163.722 45.7002 163.852C46.0201 163.591 46.3739 163.366 46.7537 163.184C47.6374 162.691 48.5746 162.284 49.5502 161.969C50.5333 161.663 51.558 161.484 52.5949 161.437C53.0215 161.393 53.453 161.409 53.8746 161.483Z" fill="#263238"/>
<path d="M129.761 178.007C129.173 177.655 128.532 177.384 127.858 177.202C126.562 176.832 124.549 176.838 122.216 177.526C119.883 178.214 117.456 179.678 114.455 180.822C112.892 181.45 111.196 181.749 109.491 181.697C107.663 181.537 105.89 181.038 104.278 180.229C102.624 179.46 101.052 178.599 99.4686 177.926C97.9531 177.254 96.3219 176.829 94.6478 176.67C91.8051 176.425 88.9436 176.9 86.3741 178.042C84.6375 178.793 83.0754 179.845 81.7739 181.141L81.1727 181.763L80.7756 182.269L80.5274 182.563L80.4336 182.659C80.4487 182.619 80.4711 182.581 80.4998 182.548C80.5605 182.467 80.6377 182.366 80.7259 182.239L81.1065 181.733L81.6912 181.095C82.9737 179.755 84.5361 178.666 86.2858 177.89C87.4838 177.34 88.7562 176.938 90.0697 176.696C91.577 176.401 93.1242 176.317 94.6588 176.448C96.3565 176.6 98.0121 177.023 99.5513 177.698C101.156 178.382 102.717 179.242 104.372 180.001C105.949 180.795 107.685 181.287 109.474 181.449C111.145 181.508 112.808 181.219 114.339 180.604C117.307 179.49 119.761 177.977 122.138 177.359C124.516 176.741 126.551 176.706 127.869 177.111C128.375 177.251 128.857 177.454 129.303 177.713L129.64 177.936C129.728 177.977 129.767 178.002 129.761 178.007Z" fill="#FAFAFA"/>
<path d="M153.722 159.282C153.398 159.193 153.066 159.135 152.729 159.109C151.807 159.122 150.908 159.375 150.137 159.838C149.116 160.345 148.135 161.317 146.745 162.03C146.014 162.425 145.176 162.619 144.329 162.587C143.437 162.503 142.573 162.252 141.791 161.848C140.981 161.474 140.23 161.053 139.453 160.77C138.707 160.488 137.927 160.288 137.131 160.173C136.411 160.066 135.68 160.03 134.952 160.066C134.315 160.085 133.681 160.161 133.06 160.294C132.157 160.476 131.282 160.762 130.456 161.145C129.866 161.418 129.568 161.605 129.552 161.585C129.535 161.565 129.618 161.524 129.756 161.433C129.962 161.295 130.177 161.17 130.401 161.059C131.792 160.342 133.343 159.928 134.935 159.849C136.512 159.754 138.093 159.987 139.558 160.532C140.363 160.821 141.124 161.241 141.918 161.61C142.666 161.997 143.492 162.242 144.345 162.329C145.14 162.364 145.929 162.188 146.618 161.823C147.964 161.145 148.973 160.203 150.032 159.682C150.841 159.218 151.782 158.986 152.735 159.013C152.992 159.032 153.245 159.086 153.485 159.175C153.568 159.202 153.648 159.238 153.722 159.282Z" fill="#FAFAFA"/>
<path d="M129.464 152.372C129.337 152.362 129.211 152.342 129.089 152.311C128.967 152.311 128.818 152.25 128.636 152.225L128.019 152.149C126.694 152.046 125.36 152.171 124.086 152.518C122.202 153.054 120.398 153.8 118.713 154.741C116.664 155.945 114.524 157.014 112.31 157.94C111.143 158.4 109.912 158.71 108.653 158.862C107.471 158.994 106.273 158.918 105.123 158.639C104.098 158.364 103.104 157.999 102.155 157.55C101.261 157.145 100.445 156.745 99.6839 156.416C98.5058 155.852 97.222 155.496 95.9001 155.369C95.5321 155.348 95.1629 155.359 94.797 155.399C94.6722 155.41 94.5466 155.41 94.4219 155.399C94.5412 155.36 94.6653 155.334 94.7914 155.323C95.1554 155.263 95.5249 155.236 95.8946 155.242C97.2404 155.332 98.5531 155.667 99.7556 156.229C100.533 156.548 101.355 156.938 102.249 157.333C103.186 157.767 104.167 158.118 105.178 158.381C106.297 158.645 107.461 158.714 108.608 158.583C109.843 158.434 111.05 158.129 112.194 157.677C114.566 156.781 116.606 155.536 118.57 154.518C120.28 153.577 122.113 152.839 124.025 152.321C125.323 151.985 126.68 151.887 128.019 152.032L128.642 152.134C128.824 152.169 128.967 152.215 129.089 152.245C129.218 152.275 129.344 152.318 129.464 152.372Z" fill="#FAFAFA"/>
<path d="M146.546 136.779C146.364 136.906 146.166 137.011 145.955 137.093C145.564 137.28 145.001 137.543 144.301 137.832C143.457 138.178 142.582 138.456 141.686 138.662C140.58 138.918 139.433 138.99 138.299 138.875C137.097 138.758 135.988 138.526 134.99 138.399C134.094 138.266 133.182 138.251 132.282 138.353C131.453 138.462 130.66 138.731 129.954 139.143C129.954 139.143 129.993 139.093 130.075 139.022C130.207 138.922 130.345 138.831 130.489 138.748C131.033 138.455 131.632 138.258 132.254 138.166C133.169 138.042 134.098 138.042 135.012 138.166C136.049 138.283 137.163 138.51 138.322 138.622C140.688 138.88 142.784 138.186 144.218 137.67C144.941 137.407 145.52 137.164 145.922 137.012C146.121 136.915 146.33 136.837 146.546 136.779Z" fill="#FAFAFA"/>
<path d="M75.2267 145.208C74.9155 145.091 74.586 145.019 74.2504 144.996C73.3251 145.014 72.4333 145.317 71.7187 145.856C71.2443 146.165 70.7479 146.55 70.1577 146.904C69.5219 147.283 68.8118 147.544 68.0672 147.674C66.3572 147.897 64.6133 147.705 63.0092 147.117C61.2993 146.55 59.7715 145.831 58.3043 145.355C57.6169 145.132 56.9102 144.963 56.1917 144.849C55.5656 144.748 54.9291 144.713 54.2943 144.743C53.3695 144.771 52.4638 144.992 51.6467 145.391C51.0951 145.684 50.8138 145.922 50.7973 145.897C50.7807 145.872 50.8524 145.831 50.9793 145.72C51.1677 145.56 51.3728 145.417 51.5916 145.294C52.4087 144.852 53.3302 144.597 54.2777 144.55C54.9297 144.509 55.5845 144.535 56.2303 144.626C56.966 144.736 57.6896 144.905 58.3925 145.133C59.8818 145.598 61.4207 146.317 63.1085 146.874C64.6648 147.446 66.3558 147.64 68.0176 147.436C68.733 147.321 69.417 147.078 70.0308 146.722C70.61 146.388 71.134 146.013 71.6028 145.71C72.3564 145.163 73.2955 144.876 74.2559 144.9C74.5149 144.914 74.768 144.976 75.0006 145.082C75.0837 145.111 75.1603 145.154 75.2267 145.208Z" fill="#FAFAFA"/>
<path d="M106.297 183.986C106.297 183.986 106.363 184.027 106.474 184.123C106.634 184.268 106.78 184.425 106.909 184.594C107.504 185.374 107.837 186.297 107.867 187.248C107.898 188.2 107.624 189.139 107.08 189.95C106.347 191.038 105.095 191.904 104.394 193.154C104.067 193.765 103.97 194.457 104.118 195.124C104.272 195.753 104.513 196.362 104.835 196.936C105.437 198.04 105.994 199.113 105.972 200.105C105.978 200.492 105.888 200.876 105.709 201.226C105.531 201.577 105.268 201.886 104.94 202.13C104.759 202.255 104.553 202.346 104.333 202.398C104.179 202.424 104.102 202.429 104.096 202.398C104.376 202.316 104.639 202.191 104.874 202.029C105.167 201.784 105.399 201.484 105.554 201.149C105.709 200.815 105.784 200.453 105.773 200.09C105.773 199.158 105.221 198.136 104.598 197.027C104.258 196.438 104.004 195.81 103.843 195.159C103.679 194.437 103.782 193.685 104.135 193.023C104.509 192.397 104.973 191.82 105.514 191.307C106.005 190.835 106.453 190.327 106.854 189.788C107.496 188.867 107.764 187.769 107.61 186.685C107.515 185.951 107.244 185.245 106.816 184.619C106.507 184.209 106.275 184.002 106.297 183.986Z" fill="#FAFAFA"/>
<path d="M129.419 206.21C129.342 206.162 129.272 206.106 129.21 206.043C129.03 205.865 128.886 205.659 128.785 205.436C128.454 204.582 128.504 203.643 128.923 202.823C129.183 202.253 129.547 201.727 129.999 201.269C130.467 200.763 131.019 200.287 131.582 199.75C132.177 199.226 132.693 198.63 133.115 197.979C133.529 197.265 133.779 196.481 133.849 195.675C134.036 194.01 133.705 192.41 133.617 190.937C133.461 189.622 133.65 188.293 134.168 187.059C134.537 186.231 135.169 185.526 135.983 185.034C136.206 184.905 136.445 184.801 136.695 184.725C136.779 184.694 136.869 184.676 136.959 184.67C136.642 184.797 136.335 184.948 136.044 185.12C135.279 185.631 134.693 186.334 134.356 187.145C133.883 188.357 133.726 189.654 133.898 190.932C134.003 192.385 134.345 193.995 134.157 195.716C134.081 196.556 133.816 197.373 133.38 198.115C132.941 198.797 132.399 199.417 131.769 199.958C130.622 200.97 129.563 201.887 129.11 202.914C128.779 203.428 128.63 204.023 128.685 204.618C128.741 205.212 128.997 205.776 129.419 206.23V206.21Z" fill="#FAFAFA"/>
<path d="M132.266 212.922C132.075 213.062 131.868 213.183 131.648 213.281C131.024 213.571 130.343 213.743 129.646 213.787C128.542 213.872 127.431 213.758 126.375 213.453C124.984 213.043 123.652 212.478 122.409 211.773C120.927 210.912 119.354 210.189 117.715 209.616C115.796 209.069 113.752 209.005 111.797 209.429C109.635 209.918 107.527 210.587 105.498 211.428C103.307 212.364 101.022 213.1 98.6746 213.625C97.4691 213.856 96.2326 213.92 95.0066 213.813C93.8111 213.695 92.6488 213.379 91.5758 212.881C89.4688 211.914 87.7809 210.512 86.06 209.368C85.2355 208.791 84.3569 208.283 83.4345 207.849L82.7616 207.556C82.5354 207.465 82.3037 207.399 82.0776 207.318C81.6293 207.165 81.1705 207.04 80.7042 206.943C78.9977 206.576 77.2309 206.509 75.4973 206.746C74.0665 206.934 72.6742 207.316 71.3659 207.88C71.0736 207.996 70.8144 208.148 70.5441 208.269C70.29 208.387 70.0449 208.521 69.8105 208.669C69.5843 208.811 69.3637 208.938 69.1596 209.069L68.608 209.469C68.2929 209.694 67.9944 209.937 67.7145 210.198C67.4963 210.376 67.2935 210.569 67.1077 210.775L66.7437 211.145C66.661 211.226 66.6168 211.266 66.6113 211.261L66.7216 211.125L67.0636 210.74C67.2435 210.527 67.4408 210.328 67.6538 210.143C67.9303 209.876 68.2251 209.626 68.5363 209.393L69.0879 208.973L69.7443 208.563C69.9797 208.413 70.2247 208.276 70.4779 208.153C70.7427 208.021 71.0295 207.87 71.2997 207.748C72.6094 207.154 74.0099 206.746 75.4531 206.538C77.2098 206.28 79.0041 206.337 80.7373 206.705C81.2128 206.801 81.6809 206.926 82.1383 207.08C82.3754 207.161 82.6126 207.227 82.8443 207.318L83.5283 207.616C84.4649 208.05 85.3583 208.558 86.1979 209.135C87.9354 210.284 89.6177 211.666 91.6806 212.613C92.7149 213.095 93.8364 213.401 94.9901 213.514C96.1885 213.62 97.3977 213.557 98.5753 213.327C100.9 212.817 103.164 212.102 105.338 211.19C107.38 210.335 109.506 209.657 111.686 209.166C113.694 208.738 115.789 208.814 117.754 209.383C119.404 209.97 120.986 210.708 122.475 211.585C123.697 212.296 125.008 212.867 126.38 213.286C127.419 213.597 128.512 213.724 129.602 213.661C130.29 213.622 130.964 213.462 131.587 213.19C132.04 213.048 132.266 212.907 132.266 212.922Z" fill="#FAFAFA"/>
<path d="M101.564 128.482C104.526 128.616 107.43 127.691 109.665 125.903C111.901 124.114 113.295 121.601 113.556 118.889C113.875 115.548 114.107 112.693 114.107 112.693C114.107 112.693 123.484 112.475 124.813 104.036C126.143 95.597 127.301 75.9954 127.301 75.9954C122.357 73.3058 116.72 71.8765 110.973 71.8551C105.226 71.8337 99.5764 73.2211 94.6088 75.8739L93.103 76.6789L90.6871 117.396C90.6045 118.78 90.8208 120.165 91.3233 121.473C91.8259 122.78 92.6049 123.983 93.6156 125.013C94.6263 126.043 95.8488 126.88 97.2128 127.476C98.5769 128.071 100.056 128.413 101.564 128.482Z" fill="#FFBE9D"/>
<path d="M115.431 98.2037C115.431 98.1075 116.236 98.0569 117.538 98.0468C117.874 98.0468 118.144 98.0164 118.189 97.8544C118.244 97.5505 118.206 97.2384 118.078 96.9533L117.405 94.4677C116.495 90.924 115.916 88.0334 116.115 87.9929C116.313 87.9524 117.218 90.7823 118.117 94.3158C118.326 95.1764 118.531 96.0016 118.729 96.8116C118.887 97.2296 118.887 97.6844 118.729 98.1025C118.665 98.2125 118.574 98.3072 118.463 98.3793C118.351 98.4513 118.224 98.4987 118.089 98.5176C117.906 98.5411 117.721 98.5411 117.538 98.5176C116.219 98.4062 115.425 98.2948 115.431 98.2037Z" fill="#263238"/>
<path d="M114.162 112.576C109.894 112.146 105.862 110.56 102.579 108.02C102.579 108.02 104.559 114.444 113.853 114.778L114.162 112.576Z" fill="#EB996E"/>
<path d="M127.18 78.1421C127.18 78.1421 121.388 80.3645 114.245 76.6234C109.557 74.1732 104.008 72.8114 102.712 73.6366C101.416 74.4618 100.886 79.0078 96.0323 80.0962C96.0323 80.0962 95.8392 88.8085 92.0775 88.3074C88.3157 87.8062 91.4928 74.4567 91.4928 74.4567L100.98 70.7814L111.168 69.5462L120.6 71.2573L127.853 73.4796L127.18 78.1421Z" fill="#263238"/>
<path d="M92.9982 85.547C92.8493 85.466 86.9309 83.0765 86.2966 88.878C85.6622 94.6795 92.1543 94.0518 92.1819 93.8898C92.2095 93.7278 92.9982 85.547 92.9982 85.547Z" fill="#FFBE9D"/>
<path d="M90.4833 91.5369C90.4833 91.5369 90.3675 91.5976 90.1744 91.6584C89.9012 91.7393 89.6044 91.7194 89.3471 91.6027C88.7017 91.3192 88.2439 90.2915 88.3266 89.2436C88.3612 88.7456 88.5177 88.2611 88.7844 87.8262C88.8631 87.6502 88.9869 87.4944 89.1454 87.3718C89.3039 87.2493 89.4923 87.1638 89.6946 87.1225C89.8248 87.1002 89.9595 87.1216 90.074 87.183C90.1885 87.2443 90.275 87.3415 90.3178 87.4566C90.384 87.6287 90.3178 87.7401 90.3675 87.7553C90.4171 87.7705 90.5109 87.6692 90.4833 87.4262C90.4663 87.2775 90.3919 87.1393 90.2737 87.0364C90.1131 86.9011 89.9015 86.8284 89.6835 86.8339C89.4188 86.8591 89.1655 86.9457 88.9474 87.0857C88.7293 87.2256 88.5536 87.4143 88.4369 87.6338C88.1149 88.1127 87.9256 88.6567 87.8854 89.2183C87.7971 90.3877 88.3377 91.542 89.2257 91.8659C89.39 91.926 89.5669 91.9517 89.7434 91.9412C89.9199 91.9307 90.0916 91.8842 90.2461 91.8052C90.4557 91.6786 90.5054 91.5521 90.4833 91.5369Z" fill="#EB996E"/>
<path d="M100.236 74.5726C99.0007 75.8864 97.5861 77.0486 96.0271 78.0302C94.4431 79.0131 92.5034 79.3892 90.6216 79.0781C88.7848 78.6883 87.1577 77.2303 87.0805 75.4939C87.0032 73.7575 88.851 72.0768 90.6933 72.4565C90.3795 72.4607 90.0691 72.3961 89.7881 72.2679C89.507 72.1397 89.2634 71.9518 89.0775 71.7196C88.8917 71.4875 88.769 71.218 88.7196 70.9336C88.6703 70.6491 88.6957 70.3579 88.7939 70.0843C88.892 69.8107 89.0599 69.5626 89.2837 69.3607C89.5075 69.1587 89.7807 69.0088 90.0804 68.9234C90.3802 68.838 90.6978 68.8196 91.0068 68.8697C91.3159 68.9198 91.6074 69.037 91.8571 69.2115C90.252 68.933 90.0755 66.5993 91.3497 65.6678C92.6238 64.7363 94.4992 64.9388 96.005 65.5008C97.5108 66.0627 98.9063 66.9334 100.5 67.2473C102.999 67.7535 105.564 66.7866 107.776 65.6071C109.988 64.4275 112.084 62.9898 114.549 62.3621C117.572 61.5977 120.843 62.1596 123.733 63.2733C126.179 64.1325 128.333 65.574 129.971 67.4498C131.532 69.3634 132.304 71.9047 131.626 74.2081C130.948 76.5114 128.598 78.425 125.989 78.4351C125.989 78.4351 120.137 78.9718 115.371 75.7268C110.605 72.4818 100.545 72.8918 100.545 72.8918L100.236 74.5726Z" fill="#263238"/>
<path d="M91.4482 67.8299C91.4482 67.8299 91.5641 67.9413 91.8123 68.0982C92.0605 68.2551 92.4466 68.4728 92.9485 68.736C94.3916 69.4555 95.9229 70.0147 97.5101 70.4016C99.8726 70.9817 102.324 71.1955 104.763 71.0344C107.521 70.8673 110.439 70.0219 113.467 69.3688C116.495 68.7158 119.479 68.3564 122.072 68.9335C124.664 69.5106 126.694 70.9179 127.588 72.543C128.323 73.8405 128.494 75.3458 128.068 76.7549C127.87 77.2627 127.624 77.7539 127.334 78.223C127.334 78.223 127.466 78.1369 127.665 77.9192C127.939 77.5876 128.158 77.2209 128.316 76.8308C128.593 76.1032 128.709 75.3324 128.658 74.5632C128.606 73.794 128.389 73.0419 128.018 72.3506C127.102 70.5585 124.935 68.9841 122.215 68.3766C119.496 67.7691 116.358 68.0729 113.302 68.7664C110.246 69.46 107.389 70.2851 104.708 70.4623C102.331 70.6371 99.9392 70.4662 97.6204 69.9561C93.6215 69.0752 91.4813 67.6932 91.4482 67.8299Z" fill="#455A64"/>
<path d="M88.5802 76.7854C88.514 76.8157 88.718 77.3827 89.402 78.1066C90.311 79.0457 91.5221 79.6948 92.86 79.9596C94.1979 80.2245 95.5929 80.0915 96.8428 79.5798C97.7915 79.1849 98.2328 78.7445 98.1831 78.6888C98.1335 78.6331 97.593 78.9065 96.6718 79.195C95.488 79.5555 94.2205 79.6184 93.0012 79.3772C91.7819 79.1359 90.6553 78.5993 89.7385 77.8231C89.0214 77.2055 88.6905 76.7347 88.5802 76.7854Z" fill="#455A64"/>
<path d="M90.555 73.9047C90.395 73.9756 90.8804 75.0286 92.1049 75.8031C93.3294 76.5777 94.5704 76.6283 94.5815 76.4612C94.5925 76.2942 93.5666 75.9854 92.4855 75.2918C91.4044 74.5983 90.7204 73.8237 90.555 73.9047Z" fill="#455A64"/>
<path d="M130.286 82.0043C130.368 82.0043 130.55 81.736 130.594 81.2146C130.641 80.5266 130.446 79.8429 130.037 79.2649C129.627 78.6868 129.026 78.2451 128.322 78.0051C127.77 77.8329 127.428 77.8684 127.412 77.9443C127.357 78.1114 128.658 78.4506 129.469 79.6048C130.28 80.759 130.098 82.0043 130.286 82.0043Z" fill="#263238"/>
<path d="M133.562 73.692C133.374 73.6211 132.679 75.155 131.024 76.4206C129.37 77.6862 127.632 78.1014 127.682 78.2836C127.731 78.4658 129.673 78.2836 131.466 76.8965C133.258 75.5094 133.738 73.7123 133.562 73.692Z" fill="#455A64"/>
<path d="M123.991 88.8532C123.948 89.1915 123.762 89.5008 123.474 89.7147C123.185 89.9286 122.816 90.03 122.447 89.9973C122.265 89.9889 122.088 89.9474 121.924 89.8751C121.76 89.8027 121.614 89.7011 121.494 89.5761C121.373 89.4511 121.281 89.3052 121.223 89.1472C121.166 88.9891 121.143 88.822 121.156 88.6557C121.2 88.318 121.387 88.0095 121.675 87.7958C121.964 87.5821 122.331 87.4802 122.701 87.5116C122.882 87.52 123.06 87.5615 123.224 87.6338C123.387 87.7062 123.534 87.8078 123.654 87.9328C123.774 88.0578 123.866 88.2037 123.924 88.3617C123.982 88.5198 124.005 88.6869 123.991 88.8532Z" fill="#263238"/>
<path d="M125.094 88.742C124.896 88.8888 123.93 88.0332 122.413 87.856C120.897 87.6789 119.683 88.2408 119.54 88.0535C119.474 87.9674 119.694 87.6839 120.224 87.4156C120.941 87.0782 121.753 86.9509 122.551 87.0511C123.343 87.1402 124.082 87.4616 124.658 87.9674C125.094 88.3522 125.193 88.6762 125.094 88.742Z" fill="#263238"/>
<path d="M110.158 87.0917C110.115 87.43 109.929 87.7393 109.641 87.9532C109.352 88.1671 108.983 88.2686 108.614 88.2358C108.432 88.2275 108.254 88.186 108.091 88.1136C107.927 88.0413 107.781 87.9396 107.66 87.8146C107.54 87.6896 107.448 87.5438 107.39 87.3858C107.333 87.2277 107.31 87.0606 107.323 86.8943C107.369 86.5561 107.556 86.2476 107.845 86.034C108.135 85.8205 108.503 85.7187 108.873 85.7502C109.054 85.7585 109.232 85.8001 109.395 85.8725C109.559 85.9449 109.705 86.0466 109.825 86.1717C109.944 86.2968 110.036 86.4427 110.093 86.6007C110.15 86.7587 110.172 86.9257 110.158 87.0917Z" fill="#263238"/>
<path d="M111.15 87.0671C110.952 87.2139 109.981 86.3634 108.464 86.1812C106.947 85.9989 105.734 86.571 105.591 86.3786C105.524 86.2926 105.745 86.0091 106.274 85.7458C106.99 85.4042 107.804 85.2768 108.602 85.3813C109.392 85.4711 110.131 85.7904 110.709 86.2926C111.128 86.6672 111.244 86.9912 111.15 87.0671Z" fill="#263238"/>
<path d="M110.566 83.2234C110.263 83.4664 109.126 82.7172 107.587 82.5755C106.049 82.4337 104.769 82.9298 104.532 82.6362C104.421 82.4945 104.625 82.13 105.194 81.7908C105.957 81.3631 106.852 81.178 107.741 81.264C108.631 81.35 109.464 81.7024 110.114 82.2667C110.588 82.7121 110.704 83.107 110.566 83.2234Z" fill="#263238"/>
<path d="M125.001 85.5478C125.067 85.7148 124.803 85.9932 124.251 86.2109C123.519 86.4688 122.726 86.5457 121.952 86.4337C121.177 86.3218 120.449 86.025 119.838 85.5731C119.386 85.2086 119.232 84.8745 119.348 84.7327C119.612 84.4492 120.743 84.9403 122.177 85.1276C123.611 85.3149 124.847 85.1883 125.001 85.5478Z" fill="#263238"/>
<path d="M114.268 100.522C114.422 100.522 114.532 100.79 114.516 101.104C114.499 101.418 114.35 101.666 114.19 101.661C114.031 101.656 113.92 101.387 113.942 101.073C113.964 100.76 114.108 100.511 114.268 100.522Z" fill="#263238"/>
<path d="M91.8734 96.1186C91.8593 96.2405 91.8118 96.3572 91.7355 96.4578C91.5425 96.7468 91.263 96.9788 90.9302 97.126C90.684 97.2423 90.414 97.31 90.1376 97.3248C89.8612 97.3396 89.5844 97.3012 89.3251 97.2121C89.0045 97.1047 88.7138 96.9331 88.4744 96.7098C88.2349 96.4865 88.0526 96.2171 87.9407 95.9212C87.8256 95.5725 87.8015 95.2039 87.8704 94.845C87.9392 94.4862 88.0989 94.1473 88.3367 93.8556C88.5746 93.5639 88.8838 93.3277 89.2394 93.1659C89.5951 93.0041 89.9872 92.9213 90.3842 92.9242C90.5177 92.9128 90.6523 92.9319 90.7758 92.9799C90.3076 93.0147 89.8491 93.1208 89.4189 93.2938C88.9697 93.4979 88.6028 93.8276 88.3709 94.2354C88.2306 94.4792 88.1443 94.746 88.1168 95.0206C88.0894 95.2951 88.1214 95.5719 88.2109 95.8351C88.3112 96.0947 88.4709 96.3316 88.6793 96.5298C88.8876 96.728 89.1398 96.883 89.4189 96.9843C89.6466 97.0687 89.8905 97.11 90.136 97.1056C90.3815 97.1013 90.6235 97.0514 90.8475 96.9589C91.2674 96.7711 91.6225 96.4802 91.8734 96.1186Z" fill="#455A64"/>
<path d="M97.9736 130.785C97.9736 130.785 101.051 126.796 102.987 124.553C105.332 121.84 106.727 119.491 106.727 118.23V111.507C106.727 111.507 109.645 110.875 110.037 113.917C110.428 116.96 110.037 117.724 110.037 117.724C110.037 117.724 122.287 110.13 123.115 110.702C124.576 111.664 121.807 113.689 121.807 113.689L114.344 119.881L118.592 118.645C119.087 118.499 119.625 118.537 120.09 118.751C120.556 118.965 120.911 119.338 121.079 119.789C121.219 120.165 121.22 120.572 121.084 120.949C120.947 121.326 120.68 121.651 120.324 121.875L117.808 123.875L119.072 123.409C119.523 123.241 120.027 123.235 120.484 123.391C120.94 123.548 121.316 123.856 121.537 124.254C121.72 124.581 121.788 124.951 121.73 125.314C121.673 125.677 121.494 126.014 121.217 126.279L118.928 128.522L119.998 128.016C120.163 127.935 120.343 127.886 120.528 127.87C120.714 127.854 120.901 127.872 121.079 127.924C121.256 127.975 121.421 128.059 121.563 128.169C121.706 128.28 121.822 128.415 121.907 128.568C122.048 128.829 122.087 129.127 122.017 129.411C121.948 129.696 121.775 129.95 121.526 130.132L107.814 140.079L97.9736 130.785Z" fill="#FFBE9D"/>
<path d="M107.835 140.045L107.664 139.898C107.549 139.787 107.378 139.635 107.163 139.443C106.716 139.022 106.059 138.43 105.215 137.64L97.9126 130.847L97.8574 130.796L97.9015 130.74C98.7951 129.569 99.7714 128.324 100.83 127.004C101.36 126.329 101.912 125.654 102.485 124.979C103.07 124.291 103.671 123.597 104.234 122.843C104.819 122.084 105.348 121.289 105.817 120.464C106.356 119.634 106.628 118.681 106.6 117.715C106.6 115.72 106.6 113.651 106.6 111.508V111.407H106.699C107.454 111.261 108.242 111.38 108.906 111.741C109.231 111.942 109.504 112.207 109.705 112.516C109.897 112.832 110.033 113.173 110.108 113.528C110.243 114.222 110.326 114.924 110.356 115.629C110.356 115.984 110.356 116.343 110.356 116.702C110.353 117.077 110.29 117.449 110.169 117.806L109.965 117.644C111.857 116.48 113.826 115.3 115.844 114.1C116.854 113.513 117.885 112.926 118.933 112.354C119.989 111.762 121.081 111.226 122.204 110.749C122.358 110.686 122.516 110.634 122.678 110.592C122.765 110.568 122.853 110.553 122.943 110.547C123 110.537 123.058 110.537 123.114 110.547C123.172 110.561 123.224 110.591 123.263 110.633C123.412 110.734 123.528 110.87 123.601 111.027C123.674 111.183 123.7 111.355 123.677 111.524C123.529 112.127 123.187 112.675 122.695 113.098C122.248 113.538 121.741 113.898 121.289 114.293L119.887 115.452L114.46 119.973L114.322 119.755L116.81 119.036L118.04 118.682C118.244 118.621 118.437 118.56 118.652 118.505C118.869 118.45 119.094 118.428 119.319 118.439C119.766 118.451 120.197 118.593 120.55 118.845C120.903 119.097 121.16 119.446 121.282 119.84C121.405 120.235 121.388 120.655 121.234 121.04C121.079 121.425 120.795 121.755 120.423 121.982L117.924 123.962L117.791 123.769L119.027 123.314C119.457 123.151 119.934 123.123 120.384 123.233C120.709 123.312 121.007 123.464 121.253 123.674C121.499 123.884 121.684 124.147 121.793 124.438C121.902 124.73 121.932 125.042 121.878 125.346C121.825 125.651 121.69 125.939 121.487 126.184C121.206 126.488 120.935 126.736 120.66 127.009C120.108 127.541 119.557 128.062 119.055 128.574L118.917 128.412L120.07 127.86C120.273 127.773 120.496 127.73 120.721 127.733C120.945 127.736 121.166 127.785 121.368 127.877C121.569 127.968 121.745 128.101 121.883 128.263C122.021 128.426 122.118 128.615 122.166 128.817C122.211 129.011 122.209 129.211 122.161 129.405C122.112 129.598 122.018 129.779 121.884 129.935C121.75 130.078 121.598 130.205 121.432 130.315L120.974 130.644L120.081 131.292L118.371 132.522L112.7 136.572L109.099 139.169L108.166 139.827C107.957 139.979 107.847 140.045 107.847 140.045L108.166 139.797L109.099 139.108L112.667 136.481L118.271 132.381L119.959 131.145L120.847 130.497L121.3 130.168C121.452 130.07 121.591 129.954 121.713 129.824C121.888 129.615 121.981 129.358 121.978 129.094C121.974 128.83 121.875 128.575 121.695 128.369C121.516 128.164 121.266 128.019 120.986 127.959C120.707 127.899 120.413 127.926 120.152 128.037L119.027 128.579L118.437 128.867L118.895 128.417L120.494 126.847C120.759 126.584 121.046 126.311 121.3 126.042C121.479 125.826 121.597 125.572 121.645 125.304C121.693 125.036 121.668 124.761 121.572 124.503C121.477 124.246 121.314 124.014 121.098 123.828C120.882 123.641 120.62 123.507 120.334 123.435C119.937 123.339 119.516 123.365 119.137 123.511L117.902 123.967L117.201 124.23L117.753 123.769L120.263 121.77C120.583 121.57 120.827 121.282 120.959 120.947C121.091 120.612 121.105 120.247 120.998 119.905C120.891 119.563 120.669 119.26 120.364 119.041C120.058 118.821 119.685 118.695 119.297 118.682C118.889 118.688 118.486 118.767 118.111 118.915L116.881 119.274L114.394 119.998L113.787 120.175L114.261 119.78L119.705 115.26L121.106 114.095C121.57 113.695 122.066 113.341 122.491 112.926C122.937 112.543 123.251 112.048 123.396 111.503C123.416 111.377 123.398 111.249 123.343 111.132C123.289 111.015 123.2 110.914 123.087 110.84C123.054 110.764 122.91 110.81 122.761 110.84C122.611 110.881 122.464 110.93 122.32 110.987C121.209 111.457 120.13 111.988 119.088 112.577C118.04 113.149 117.014 113.731 115.999 114.318C113.975 115.487 112.016 116.662 110.125 117.826L109.777 118.039L109.926 117.659C110.029 117.33 110.082 116.989 110.086 116.647C110.105 116.296 110.105 115.944 110.086 115.594C110.055 114.903 109.976 114.215 109.849 113.533C109.775 113.21 109.65 112.898 109.479 112.607C109.297 112.332 109.052 112.095 108.762 111.913C108.157 111.586 107.442 111.476 106.754 111.605L106.859 111.488C106.859 113.628 106.859 115.697 106.859 117.695C106.859 117.948 106.859 118.201 106.859 118.454C106.826 118.705 106.767 118.952 106.683 119.193C106.515 119.658 106.306 120.11 106.059 120.545C105.584 121.378 105.046 122.18 104.449 122.944C103.897 123.699 103.268 124.402 102.689 125.081C102.11 125.759 101.559 126.437 101.035 127.106C99.9755 128.422 98.9937 129.667 98.0891 130.826V130.72L105.238 137.554L107.163 139.392L107.664 139.873L107.835 140.045Z" fill="#EB996E"/>
<path d="M107.836 140.044L70.2571 185.606C64.5483 192.516 54.2613 195.047 45.7284 191.296C39.4845 188.552 34.9064 182.791 38.7344 170.935L74.7359 148.321L96.6226 128.937L107.836 140.044Z" fill="#187259"/>
<path d="M45.728 191.276L46.1307 191.463L47.3111 192.035C48.8662 192.677 50.5237 193.086 52.2201 193.245C53.4471 193.347 54.6825 193.327 55.9047 193.184C56.602 193.105 57.2942 192.991 57.9786 192.845C58.3371 192.774 58.6901 192.663 59.0818 192.572C59.4558 192.481 59.824 192.371 60.1849 192.243C61.7713 191.731 63.2873 191.051 64.7023 190.218C66.3038 189.301 67.7341 188.154 68.9385 186.821C71.5033 184.036 74.1564 180.857 77.0246 177.465C79.8928 174.074 82.8714 170.393 86.0485 166.546C92.3916 158.841 99.325 150.346 106.567 141.396L107.72 139.973V140.14L96.5064 129.003H96.6994C89.038 134.81 81.9447 140.348 75.5188 145.284C69.0929 150.22 63.34 154.563 58.475 158.097C53.6101 161.63 49.6498 164.389 46.8919 166.237C45.5184 167.174 44.4373 167.862 43.7148 168.343L42.8874 168.88L42.6006 169.052L42.8709 168.859L43.6872 168.303C44.3987 167.796 45.4688 167.108 46.8312 166.166C49.5891 164.293 53.5053 161.524 58.3537 157.97C63.2021 154.416 68.944 150.068 75.3589 145.112C81.7737 140.156 88.856 134.617 96.5119 128.806L96.6167 128.73L96.705 128.816L107.924 139.953L108.007 140.034L107.935 140.125L106.782 141.553C99.5346 150.493 92.5957 158.993 86.2415 166.688C83.0589 170.535 80.0362 174.19 77.168 177.582C74.2998 180.974 71.6522 184.163 69.0488 186.927C67.8271 188.27 66.3782 189.424 64.7575 190.344C63.3286 191.181 61.7976 191.86 60.1959 192.369C59.8349 192.497 59.4667 192.607 59.0928 192.698C58.7232 192.789 58.3647 192.896 57.9896 192.972C57.3 193.116 56.6021 193.224 55.8992 193.296C54.6674 193.437 53.4221 193.451 52.187 193.336C50.4807 193.165 48.8166 192.737 47.2614 192.07C46.7429 191.817 46.3568 191.61 46.0976 191.478C45.8384 191.347 45.728 191.276 45.728 191.276Z" fill="#263238"/>
<path d="M74.222 179.41C73.8031 179.152 73.3644 178.921 72.9093 178.721C71.629 178.245 70.2356 178.083 68.8662 178.251C67.9208 178.345 66.9878 178.525 66.0807 178.787C65.0989 179.06 64.0785 179.445 62.9974 179.835C61.8706 180.264 60.7178 180.632 59.5445 180.939C58.2717 181.275 56.9427 181.395 55.6228 181.293C54.3137 181.14 53.0355 180.815 51.8279 180.326C50.6531 179.881 49.5665 179.369 48.5185 178.934C46.428 178.038 44.3927 177.461 42.6497 177.547C41.2685 177.579 39.9364 178.023 38.8548 178.812C38.4771 179.11 38.1416 179.45 37.8564 179.825C37.9044 179.711 37.9654 179.603 38.0385 179.501C38.2502 179.21 38.5003 178.945 38.7831 178.711C39.8642 177.867 41.2252 177.383 42.6442 177.339C44.4368 177.218 46.5052 177.8 48.6288 178.686C49.6933 179.121 50.7855 179.622 51.9383 180.063C53.1223 180.537 54.3742 180.854 55.6559 181.004C56.9401 181.105 58.2335 180.99 59.4728 180.665C60.6378 180.364 61.7832 180.002 62.9036 179.582C64.0068 179.197 65.0107 178.817 66.0145 178.569C66.9384 178.313 67.8884 178.143 68.8497 178.063C70.2472 177.908 71.6647 178.1 72.9534 178.62C73.4222 178.815 73.8513 179.082 74.222 179.41Z" fill="#FAFAFA"/>
<path d="M87.5045 164.141C87.6304 163.856 87.6795 163.547 87.6479 163.24C87.5602 162.83 87.3632 162.446 87.0744 162.123C86.7857 161.799 86.4142 161.547 85.9931 161.387C85.4058 161.16 84.7938 160.99 84.1674 160.881C83.4322 160.747 82.716 160.537 82.0328 160.253C80.5083 159.526 79.1447 158.544 78.0118 157.358C76.7707 156.148 75.6676 154.943 74.4872 154.011C73.4743 153.162 72.2686 152.529 70.9571 152.159C70.0641 151.909 69.1208 151.85 68.1992 151.987C67.5538 152.093 67.2229 152.24 67.2119 152.214C67.2008 152.189 67.2891 152.169 67.449 152.103C67.683 152.008 67.9269 151.935 68.1771 151.885C69.1096 151.709 70.0746 151.742 70.9902 151.981C72.3455 152.332 73.5948 152.965 74.6416 153.829C75.8954 154.884 77.0832 156.003 78.1993 157.181C79.3098 158.341 80.6404 159.306 82.1266 160.031C83.5055 160.658 84.9727 160.709 86.0593 161.22C86.5035 161.4 86.8908 161.68 87.185 162.034C87.4792 162.388 87.6707 162.805 87.7416 163.245C87.7701 163.485 87.7302 163.728 87.6258 163.949C87.5984 164.019 87.5572 164.084 87.5045 164.141Z" fill="#FAFAFA"/>
<path d="M193.054 44.2055L191.4 44.3017L188.151 49.1109L188.366 52.118C188.366 52.118 185.84 52.4167 185.851 48.4579C185.862 44.4991 185.614 45.5217 185.614 45.5217C185.614 45.5217 180.219 45.8305 179.739 45.4255C179.392 45.1369 178.89 40.2264 178.636 37.5636C178.555 36.9232 178.71 36.2764 179.076 35.7261C179.442 35.1757 179.998 34.7534 180.655 34.5262C180.833 34.4702 181.019 34.4345 181.206 34.4199C182.552 34.3389 189.48 34.9261 189.48 34.9261L192.315 34.754L193.054 44.2055Z" fill="#455A64"/>
<path d="M197.821 44.7422L196.061 34.4909L193.248 34.663L193.982 44.7675L197.821 44.7422Z" fill="#455A64"/>
<path d="M154.577 53.413C154.657 53.4185 154.735 53.4355 154.809 53.4636C154.904 53.4876 154.997 53.5216 155.084 53.5649C155.21 53.6113 155.33 53.6689 155.443 53.737C156.067 54.0947 156.576 54.5993 156.917 55.1984C157.257 55.7974 157.417 56.4692 157.379 57.144C157.326 57.7849 157.073 58.3982 156.651 58.9108C156.182 59.4726 155.557 59.9081 154.842 60.1713C154.071 60.4622 153.22 60.5224 152.409 60.3434C151.609 60.1341 150.901 59.6961 150.39 59.093C149.904 58.5419 149.595 57.8776 149.497 57.1744C149.402 56.5385 149.512 55.8912 149.811 55.3114C150.141 54.7065 150.642 54.1936 151.26 53.8259C151.879 53.4583 152.594 53.2493 153.33 53.2206C153.464 53.2099 153.599 53.2099 153.733 53.2206C153.832 53.224 153.93 53.2376 154.025 53.2611C154.106 53.2691 154.184 53.2896 154.257 53.3219C154.257 53.3523 153.926 53.2713 153.336 53.3219C152.503 53.3915 151.712 53.6916 151.069 54.1825C150.629 54.5147 150.273 54.9311 150.026 55.4025C149.757 55.9473 149.663 56.5517 149.756 57.144C149.829 57.8312 150.129 58.4814 150.616 59.0073C151.104 59.5333 151.755 59.9098 152.482 60.0861C153.209 60.2625 153.978 60.2304 154.685 59.994C155.392 59.7576 156.003 59.3284 156.436 58.764C156.84 58.2937 157.085 57.7253 157.142 57.1288C157.18 56.612 157.095 56.0938 156.894 55.6101C156.599 54.8918 156.071 54.2735 155.382 53.8383C154.88 53.5193 154.566 53.4383 154.577 53.413Z" fill="#263238"/>
<path d="M143.092 62.4286C143.29 62.4482 143.48 62.5125 143.644 62.6159C144.045 62.8411 144.372 63.161 144.593 63.5421C144.813 63.9232 144.918 64.3516 144.896 64.7826C144.865 65.1939 144.704 65.5879 144.433 65.9166C144.137 66.3069 143.717 66.6043 143.23 66.7683C142.744 66.9323 142.214 66.9551 141.713 66.8335C141.212 66.7119 140.764 66.4519 140.43 66.0886C140.095 65.7254 139.891 65.2765 139.843 64.8028C139.784 64.3949 139.855 63.9799 140.048 63.6081C140.22 63.2909 140.469 63.0139 140.776 62.7981C141.209 62.4769 141.747 62.2986 142.304 62.2919C142.504 62.2768 142.705 62.3081 142.888 62.383C142.888 62.383 142.673 62.383 142.337 62.383C141.819 62.4312 141.328 62.6217 140.93 62.9298C140.635 63.1453 140.406 63.4276 140.266 63.7489C140.126 64.0702 140.079 64.4194 140.13 64.7623C140.173 65.1874 140.356 65.5902 140.655 65.9166C140.955 66.243 141.357 66.4772 141.806 66.5876C142.255 66.698 142.73 66.6792 143.167 66.5339C143.605 66.3885 143.983 66.1236 144.251 65.7748C144.479 65.4998 144.625 65.1751 144.676 64.8326C144.726 64.49 144.678 64.1413 144.537 63.8207C144.36 63.3715 144.036 62.9828 143.611 62.707C143.296 62.5096 143.081 62.4539 143.092 62.4286Z" fill="#263238"/>
<path d="M159.811 37.9631C159.811 37.9631 159.811 37.8214 159.877 37.5429L160.092 36.3077L160.258 35.3965C160.335 35.0624 160.456 34.708 160.567 34.3182L160.947 33.0526C161.013 32.82 161.096 32.5917 161.195 32.3692L161.499 31.6604C162.466 29.2745 163.828 27.0394 165.536 25.0338C167.777 22.3526 170.562 20.0953 173.738 18.3869L175.084 17.6781C175.547 17.4655 176.038 17.2782 176.518 17.0707C176.998 16.8631 177.489 16.6353 178.007 16.4834L179.574 15.9772L180.368 15.7342L181.196 15.5519L182.85 15.1925C183.402 15.0862 184.003 15.0406 184.588 14.9647C185.173 14.8715 185.765 14.814 186.358 14.7926C187.578 14.7142 188.802 14.7142 190.021 14.7926C190.639 14.8381 191.262 14.8533 191.891 14.9293L193.766 15.2279C194.08 15.2836 194.4 15.314 194.709 15.3899L195.647 15.6279C196.27 15.7949 196.905 15.9316 197.528 16.1341C198.79 16.5488 200.021 17.0392 201.212 17.6022L202.117 18.0224C202.271 18.0983 202.426 18.1641 202.575 18.2401L203.005 18.4932L204.742 19.5057C205.294 19.8701 205.846 20.2853 206.397 20.6751C206.667 20.8776 206.949 21.0598 207.214 21.2876L207.98 21.9559C209.015 22.86 209.986 23.8238 210.887 24.8414C211.301 25.3831 211.72 25.9248 212.145 26.4715L212.459 26.8816L212.735 27.3169L213.286 28.1927L213.838 29.0685L214.301 29.9949L214.759 30.9315L214.991 31.3972C215.057 31.5541 215.112 31.7212 215.173 31.9034L215.901 33.8575C216.072 34.5308 216.243 35.2092 216.419 35.8825C217.667 41.4704 216.892 47.2795 214.213 52.4264L213.182 54.2792L211.963 56.0206L211.659 56.4509L211.312 56.8559L210.622 57.6609L209.933 58.4556L209.166 59.1897L208.405 59.9187L208.024 60.2832L207.611 60.6122L205.956 61.9133C204.819 62.7075 203.625 63.4297 202.382 64.0749L201.461 64.5811C201.157 64.7431 200.826 64.8545 200.512 64.9912C199.872 65.2494 199.243 65.5329 198.603 65.7657L196.651 66.3732L196.165 66.5251L195.669 66.6365L194.676 66.8491C193.377 67.1252 192.06 67.3231 190.732 67.4414C190.076 67.492 189.42 67.4869 188.774 67.5072L187.804 67.5376C187.484 67.5376 187.164 67.5021 186.844 67.4819L184.941 67.3604C184.318 67.2946 183.705 67.1731 183.093 67.082C181.889 66.8924 180.7 66.6268 179.535 66.2872C178.971 66.1348 178.418 65.9488 177.881 65.7303C177.329 65.5278 176.777 65.3557 176.253 65.1279L174.737 64.3837L173.986 64.0243L173.275 63.6142L171.857 62.7688C171.389 62.5056 170.991 62.1664 170.567 61.8728C170.142 61.5791 169.728 61.2754 169.331 60.9666L168.228 59.9794C165.59 57.6225 163.475 54.8185 162.001 51.7227C160.864 49.3999 160.119 46.9314 159.794 44.4025C159.756 44.1392 159.723 43.8962 159.69 43.6431C159.646 43.4073 159.624 43.1685 159.623 42.9293C159.623 42.4686 159.623 42.0333 159.59 41.6283C159.557 41.2233 159.557 40.8588 159.59 40.5196C159.623 40.1804 159.645 39.8716 159.667 39.5983C159.717 39.0566 159.756 38.6415 159.778 38.3529C159.8 38.0644 159.827 37.9277 159.827 37.9277C159.827 37.9277 159.827 38.0745 159.827 38.3529C159.827 38.6313 159.783 39.0566 159.75 39.6033C159.75 39.8767 159.706 40.1804 159.684 40.5196C159.662 40.8588 159.684 41.2283 159.717 41.6283C159.75 42.0282 159.75 42.4636 159.767 42.9243C159.769 43.1619 159.793 43.399 159.838 43.633C159.872 43.881 159.91 44.1392 159.949 44.3873C160.279 46.9023 161.023 49.3567 162.155 51.667C163.635 54.7364 165.748 57.5142 168.377 59.8478L169.48 60.8198C169.877 61.1286 170.296 61.4171 170.716 61.7209C171.135 62.0246 171.532 62.3486 171.995 62.6068L173.38 63.4168L174.086 63.8268L174.836 64.1761L176.358 64.8899C176.877 65.1127 177.428 65.2848 177.969 65.4873C178.509 65.6985 179.061 65.8811 179.624 66.034C180.779 66.3681 181.959 66.6286 183.154 66.8137C183.76 66.8997 184.367 67.0263 184.985 67.087L186.871 67.2085C187.186 67.2085 187.506 67.2591 187.826 67.2591L188.785 67.2288C189.431 67.2288 190.076 67.2288 190.727 67.1579C192.041 67.0395 193.346 66.8417 194.632 66.5656L195.614 66.353C195.779 66.3175 195.945 66.2872 196.105 66.2467L196.585 66.0948L198.521 65.4873C199.161 65.2595 199.778 64.9811 200.413 64.7229C200.721 64.5811 201.052 64.4748 201.356 64.3128L202.26 63.8066C203.492 63.1646 204.675 62.4475 205.802 61.6601L207.456 60.3692L207.864 60.0452L208.245 59.6858L208.995 58.9619L209.751 58.238L210.435 57.4482L211.119 56.6484L211.461 56.2535L211.764 55.8232L212.967 54.102C213.303 53.4895 213.645 52.8769 213.987 52.2644C215.27 49.7204 216.129 47.0138 216.535 44.2354C216.868 41.4496 216.741 38.6337 216.16 35.8825C215.989 35.2142 215.818 34.5409 215.647 33.8575C215.476 33.1741 215.167 32.5615 214.93 31.9186C214.869 31.7566 214.814 31.5946 214.748 31.4124L214.522 30.9466L214.064 30.0253L213.612 29.109L213.06 28.2383L212.509 27.3675L212.233 26.9372L211.919 26.5322L210.677 24.9173C209.786 23.9081 208.824 22.9527 207.798 22.0571L207.043 21.3939C206.794 21.1712 206.491 20.9889 206.237 20.7864C205.686 20.4017 205.162 19.9916 204.583 19.6272L202.867 18.726L202.437 18.4729C202.293 18.397 202.139 18.3312 201.99 18.2603L201.097 17.8351C199.918 17.2853 198.702 16.8068 197.456 16.4024C196.838 16.21 196.21 16.0683 195.592 15.8962L194.665 15.6582C194.356 15.5823 194.036 15.5469 193.727 15.4962L191.874 15.1824C191.256 15.1014 190.633 15.0913 190.021 15.0406C188.812 14.9648 187.6 14.9648 186.391 15.0406C185.802 15.0629 185.214 15.1187 184.632 15.2077C184.053 15.2836 183.474 15.3241 182.911 15.4304L181.256 15.7848L180.434 15.962C180.17 16.0329 179.91 16.124 179.646 16.1999L178.09 16.7062C177.572 16.853 177.103 17.096 176.612 17.2833C176.121 17.4706 175.647 17.6731 175.183 17.8857L173.849 18.5843C170.688 20.2769 167.911 22.5111 165.669 25.1654C163.96 27.1578 162.591 29.3768 161.609 31.7465L161.3 32.4552C161.199 32.6742 161.115 32.8992 161.046 33.1285C160.909 33.574 160.782 33.9891 160.66 34.3739C160.539 34.7586 160.423 35.113 160.34 35.4471C160.258 35.7812 160.214 36.0799 160.164 36.3533C160.054 36.8595 159.971 37.2949 159.916 37.5784C159.861 37.8619 159.811 37.9631 159.811 37.9631Z" fill="#263238"/>
<path d="M73.1853 46.6096C73.1853 46.64 72.8544 46.6805 72.3249 46.9235C71.5857 47.2811 70.9834 47.8375 70.5984 48.5182C70.3271 48.9874 70.1726 49.5062 70.1462 50.0369C70.1256 50.635 70.2942 51.2258 70.6315 51.7378C70.9857 52.3472 71.535 52.8422 72.2053 53.1562C72.8756 53.4701 73.6347 53.5878 74.3802 53.4935C75.1256 53.3991 75.8216 53.0972 76.3743 52.6285C76.9271 52.1598 77.3098 51.5468 77.4711 50.8722C77.6431 50.2957 77.6316 49.6861 77.438 49.1155C77.2537 48.6204 76.9545 48.1678 76.561 47.7892C75.9892 47.2296 75.2442 46.8445 74.4264 46.6856C73.8748 46.5793 73.5108 46.6248 73.5108 46.5945C73.5871 46.5706 73.6673 46.5586 73.748 46.559C73.8469 46.5486 73.9469 46.5486 74.0458 46.559C74.1808 46.5578 74.3155 46.568 74.4485 46.5894C75.3084 46.7146 76.1015 47.091 76.7099 47.6626C77.1359 48.0565 77.4617 48.5319 77.6642 49.0548C77.8858 49.6632 77.9088 50.3177 77.7304 50.938C77.5391 51.6242 77.1438 52.2482 76.5886 52.7402C76.0037 53.2832 75.2434 53.6383 74.4209 53.7527C73.5923 53.8423 72.754 53.6881 72.027 53.3122C71.3485 52.9756 70.7852 52.4726 70.3999 51.8593C70.0479 51.3062 69.8775 50.6717 69.909 50.0318C69.9603 49.3574 70.2066 48.7078 70.6225 48.1499C71.0385 47.592 71.609 47.1459 72.2752 46.8577C72.3982 46.8047 72.5254 46.7607 72.6558 46.7261C72.7487 46.6952 72.8448 46.6731 72.9427 46.6603C73.0198 46.6307 73.1019 46.6136 73.1853 46.6096Z" fill="#263238"/>
<path d="M83.6541 54.7855C83.6541 54.7855 83.45 54.8411 83.1025 54.9981C82.6456 55.2306 82.2749 55.5832 82.0379 56.0106C81.8558 56.3138 81.763 56.6555 81.7688 57.0018C81.7746 57.348 81.8788 57.6869 82.071 57.9849C82.2896 58.3602 82.6284 58.665 83.0416 58.8582C83.4548 59.0513 83.9226 59.1235 84.3819 59.065C84.8412 59.0065 85.2699 58.8202 85.6103 58.5311C85.9506 58.242 86.1861 57.8641 86.2851 57.4483C86.3827 57.1144 86.3832 56.7629 86.2864 56.4289C86.1896 56.0949 85.999 55.79 85.7335 55.5448C85.3811 55.194 84.9217 54.9488 84.4152 54.8411C84.0512 54.7703 83.8637 54.7905 83.8637 54.7703C84.0537 54.7111 84.2578 54.7006 84.4539 54.7399C84.9189 54.8049 85.3562 54.9842 85.7193 55.2587C86.0825 55.5332 86.358 55.8927 86.5168 56.2991C86.6607 56.6895 86.678 57.1098 86.5664 57.509C86.458 57.9748 86.1959 58.3986 85.8159 58.7229C85.4358 59.0472 84.9561 59.2561 84.4421 59.3214C83.928 59.3867 83.4046 59.3051 82.9428 59.0877C82.4811 58.8703 82.1035 58.5276 81.8614 58.1064C81.6343 57.7496 81.5269 57.3394 81.5525 56.9269C81.5853 56.4951 81.7439 56.0793 82.0117 55.7231C82.2795 55.3669 82.6467 55.0832 83.0749 54.9019C83.2532 54.8165 83.4532 54.7763 83.6541 54.7855Z" fill="#263238"/>
<path d="M42.9525 26.9983H41.1709L37.3099 22.0219V18.7618C37.3099 18.7618 34.552 18.6048 34.8774 22.8775C35.2029 27.1501 34.8499 26.0617 34.8499 26.0617C34.8499 26.0617 29.0031 26.0617 28.5177 26.568C28.1647 26.9071 28.0048 32.2378 27.9662 35.1285C27.9283 35.8261 28.1454 36.5153 28.5831 37.0867C29.0208 37.6581 29.654 38.0789 30.3821 38.2823C30.5873 38.3321 30.7986 38.3576 31.0109 38.3583C32.4725 38.3583 39.9189 37.2698 39.9189 37.2698H42.9967L42.9525 26.9983Z" fill="#187259"/>
<path d="M48.0551 26.102L46.9575 37.2797H43.9072V26.3247L48.0551 26.102Z" fill="#187259"/>
<path d="M70.0252 28.5468C70.0252 28.5468 70.0252 28.3949 69.9811 28.0912C69.9369 27.7874 69.9314 27.3268 69.8928 26.7395C69.8928 26.4408 69.8542 26.1118 69.8321 25.727C69.8101 25.3423 69.7108 24.9677 69.6391 24.5374C69.5674 24.1071 69.4901 23.6464 69.4019 23.1503C69.3658 22.8948 69.3067 22.6425 69.2254 22.396C69.1537 22.1378 69.0765 21.8898 68.9992 21.6012C68.281 18.9412 67.128 16.3963 65.5795 14.0532C63.5488 10.935 60.8842 8.20412 57.7305 6.00905L56.3957 5.09782C55.9268 4.81433 55.4304 4.55615 54.945 4.27772L54.2059 3.86766C53.9615 3.72008 53.7052 3.58977 53.4392 3.47786L51.8396 2.77419C51.5694 2.65775 51.288 2.53119 51.0233 2.41982L50.1683 2.13127L48.4253 1.56934C47.8352 1.39216 47.2174 1.27572 46.6107 1.12385L45.6675 0.906168C45.513 0.870731 45.3586 0.830232 45.1986 0.799858L44.7243 0.734046C43.436 0.515208 42.1332 0.376521 40.8246 0.318931C40.1572 0.318931 39.4898 0.237933 38.8113 0.248058L36.7705 0.344242C36.4285 0.344242 36.0865 0.344244 35.739 0.404992L34.7131 0.5518C34.0291 0.653048 33.3286 0.728984 32.6392 0.860606C31.2578 1.14776 29.8981 1.51639 28.5685 1.96421L27.5481 2.30845C27.3771 2.3692 27.2006 2.41982 27.0351 2.48563L26.5387 2.70331L24.5475 3.58923C23.8966 3.91322 23.2734 4.28784 22.628 4.64221C22.3136 4.82445 21.9771 4.98139 21.6738 5.19401L20.7471 5.81668C19.5143 6.65314 18.3441 7.56474 17.2446 8.54531L15.6781 10.1197L15.2865 10.5146C15.1651 10.6563 15.0493 10.8031 14.9335 10.9449L14.2275 11.8257L13.5159 12.6965L12.8926 13.6229L12.2749 14.5645L11.966 15.0302C11.8722 15.1922 11.7895 15.3643 11.7012 15.5365L10.6532 17.531C10.3774 18.2297 10.1016 18.9283 9.81482 19.6269C8.8018 22.5104 8.26631 25.5173 8.22628 28.5468C8.26824 31.5729 8.80369 34.5761 9.81482 37.4566L10.6532 39.5524L11.6957 41.547L11.9605 42.0532L12.2749 42.524L12.8926 43.4606L13.5159 44.3921L14.2275 45.2729L14.9335 46.1386L15.2865 46.5689L15.6836 46.9688L17.2501 48.5533C18.349 49.5326 19.5172 50.4442 20.7471 51.282L21.6572 51.9046C21.9551 52.1122 22.2971 52.2742 22.6115 52.4564C23.2568 52.8108 23.8801 53.1854 24.5309 53.5094L26.5221 54.3903L27.0186 54.613L27.5315 54.7902L28.552 55.1344C29.896 55.5839 31.2705 55.9526 32.6667 56.238C33.3562 56.3697 34.0567 56.4456 34.7407 56.5469L35.7721 56.6937C36.1141 56.7342 36.4561 56.7342 36.7981 56.7544L38.8444 56.8506C39.5173 56.8506 40.1903 56.8 40.8522 56.7797C42.1608 56.7221 43.4636 56.5834 44.7518 56.3646L45.2317 56.2988L45.6675 56.1874L46.5941 55.9697C47.2064 55.8179 47.8241 55.7014 48.4088 55.5192L50.1463 54.9421L51.0012 54.6535L51.8176 54.2992L53.4171 53.5955C53.682 53.4816 53.9382 53.3514 54.1838 53.2057L54.9229 52.7956C55.4139 52.5172 55.9048 52.259 56.3736 51.9755L57.7084 51.0643C60.8708 48.874 63.5433 46.1444 65.5795 43.0252C65.8056 42.681 66.0317 42.3519 66.2413 42.0127C66.451 41.6736 66.6054 41.3243 66.7929 41.0003L67.3114 40.0131C67.3941 39.8511 67.4879 39.6942 67.5596 39.5069L67.7582 39.0006C68.0174 38.3577 68.2601 37.7401 68.4973 37.1528C68.7345 36.5656 68.8448 35.9784 69.0103 35.4367C69.0875 35.1633 69.1647 34.9001 69.2364 34.6419C69.3067 34.4029 69.3565 34.1591 69.3853 33.9129C69.4736 33.4067 69.5508 32.9612 69.6225 32.5309C69.6942 32.1006 69.777 31.7057 69.8156 31.3412C69.8542 30.9767 69.8597 30.6477 69.8763 30.3288C69.9149 29.7415 69.948 29.3163 69.9645 28.9771C69.9811 28.6379 70.0086 28.5164 70.0086 28.5164C70.0086 28.5164 70.0086 28.6734 70.0086 28.9771C70.0086 29.2808 69.9755 29.7415 69.948 30.3338C69.948 30.6274 69.9149 30.9616 69.8983 31.3463C69.8818 31.731 69.7825 32.1057 69.7218 32.536C69.6611 32.9663 69.5729 33.432 69.4957 33.9281C69.4588 34.1847 69.4017 34.4385 69.3247 34.6875C69.253 34.9457 69.1813 35.1937 69.104 35.4873C68.9441 36.029 68.8172 36.6213 68.6021 37.2136C68.387 37.8059 68.1222 38.4235 67.8685 39.0715L67.6699 39.5777C67.6037 39.7397 67.51 39.8967 67.4272 40.084C67.2618 40.408 67.0853 40.737 66.9088 41.0965C66.7323 41.4559 66.5557 41.7748 66.3572 42.1089C66.1586 42.443 65.9159 42.7822 65.6953 43.1214C63.6677 46.2605 60.9989 49.0107 57.8353 51.2212L56.517 52.1375C56.0427 52.4261 55.5462 52.6842 55.0553 52.9677L54.3107 53.3829C54.0663 53.5305 53.81 53.6608 53.544 53.7727L51.9334 54.4915C51.6576 54.608 51.3818 54.7345 51.1115 54.8459L50.2511 55.1395L48.5026 55.7267C47.9069 55.909 47.2891 56.0254 46.6713 56.1824L45.7392 56.4051C45.5847 56.4405 45.4303 56.481 45.2703 56.5114L44.7904 56.5772C43.4936 56.8019 42.1814 56.944 40.8632 57.0025C40.1903 57.0025 39.5173 57.0885 38.8334 57.0784L36.776 56.9873C36.434 56.962 36.081 56.9873 35.739 56.9265L34.7021 56.7797C34.0071 56.6785 33.3066 56.6025 32.6061 56.4709C31.1982 56.1861 29.8125 55.8157 28.4582 55.3623L27.4267 55.0129C27.2557 54.9573 27.0792 54.9016 26.9083 54.8358L26.4063 54.6181L24.3986 53.7271C23.7422 53.4031 23.1079 53.0234 22.457 52.6691C22.1426 52.4818 21.8006 52.3248 21.4973 52.1122L20.5816 51.4845C19.3365 50.6411 18.1552 49.721 17.046 48.7305L15.463 47.1359L15.0659 46.736L14.7073 46.3006L13.9958 45.4248L13.2787 44.5439L12.6499 43.6074L12.0211 42.6607L11.7067 42.1849L11.442 41.6786L10.3829 39.6537L9.53903 37.5376C8.51813 34.6311 7.97892 31.6003 7.93945 28.5468C7.97849 25.4862 8.51959 22.4484 9.54455 19.5357C9.82586 18.827 10.0961 18.1233 10.3885 17.4197C10.6808 16.716 11.1 16.0731 11.4475 15.3947C11.5357 15.2327 11.6185 15.0606 11.7123 14.8885L12.0267 14.4126L12.6555 13.4659L13.2843 12.5294L13.9958 11.6486L14.7128 10.7778C14.8287 10.631 14.9445 10.4842 15.0714 10.3425L15.4685 9.94253L17.0515 8.34281C18.1615 7.35668 19.3407 6.43842 20.5816 5.59394L21.4973 4.9662C21.8006 4.75358 22.1426 4.59665 22.4625 4.40934C23.1134 4.05497 23.7422 3.67529 24.3986 3.3513L26.4118 2.46032L26.9083 2.24264C27.0792 2.17683 27.2557 2.12114 27.4267 2.06545L28.4582 1.71615C29.8125 1.26268 31.1982 0.89231 32.6061 0.607487C33.3011 0.475865 34.0071 0.399929 34.7021 0.298681L35.739 0.151873C36.081 0.111374 36.4285 0.116435 36.776 0.0911231L38.8334 0C39.5118 0 40.1903 0.0506246 40.8577 0.0759366C42.1777 0.134084 43.4918 0.276172 44.7904 0.501177L45.2703 0.566989C45.4303 0.597363 45.5847 0.637862 45.7392 0.673298L46.6713 0.896043C47.2836 1.04791 47.9069 1.16941 48.5026 1.35166L50.2511 1.93889L51.1115 2.22745L51.9279 2.58688L53.544 3.30068C53.809 3.41627 54.0651 3.5482 54.3107 3.69554L55.0553 4.11066C55.5462 4.38909 56.0427 4.65233 56.5115 4.93583L57.8518 5.86224C61.0174 8.07223 63.6882 10.8225 65.7174 13.9621C67.2624 16.3201 68.4063 18.8808 69.1096 21.5556C69.1868 21.829 69.2585 22.0973 69.3302 22.3555C69.4072 22.6045 69.4643 22.8583 69.5012 23.1149C69.5784 23.6211 69.6556 24.0767 69.7273 24.507C69.799 24.9373 69.8707 25.3322 69.9038 25.6967C69.9369 26.0612 69.9369 26.3953 69.9535 26.7091C69.9811 27.3014 69.9976 27.752 70.0141 28.0608C70.0307 28.3696 70.0252 28.5468 70.0252 28.5468Z" fill="#263238"/>
<path d="M119.546 38.424C119.437 38.4214 119.33 38.3991 119.231 38.3585C119.131 38.3179 119.042 38.2598 118.967 38.1874C118.892 38.115 118.834 38.0298 118.795 37.9366C118.756 37.8434 118.737 37.7441 118.74 37.6444L118.906 30.876C118.908 30.7589 118.941 30.644 119 30.5403C119.059 30.4366 119.144 30.347 119.248 30.2786C119.352 30.2108 119.472 30.166 119.598 30.1475C119.724 30.1291 119.854 30.1376 119.976 30.1723C120.664 30.3561 121.386 30.4088 122.098 30.3269C122.809 30.2451 123.495 30.0305 124.113 29.6965C124.686 29.4086 125.19 29.0164 125.593 28.5437C125.996 28.0711 126.29 27.528 126.457 26.9476C126.588 26.3579 126.588 25.75 126.457 25.1603C126.326 24.5706 126.067 24.0112 125.696 23.5153C125.316 22.9593 124.818 22.4794 124.231 22.1044C123.645 21.7295 122.981 21.4672 122.281 21.3334C119.573 20.8727 116.606 22.5281 115.662 25.0289C115.589 25.2196 115.437 25.3758 115.238 25.4631C115.039 25.5505 114.811 25.5618 114.603 25.4947C114.396 25.4276 114.226 25.2874 114.13 25.1052C114.035 24.9229 114.023 24.7134 114.096 24.5227C115.298 21.3435 119.104 19.2376 122.585 19.8299C123.504 20.0023 124.376 20.3432 125.148 20.832C125.921 21.3209 126.578 21.9477 127.08 22.6749C127.594 23.3343 127.948 24.0869 128.119 24.8823C128.289 25.6777 128.272 26.4973 128.069 27.2862C127.866 28.075 127.481 28.8148 126.94 29.4559C126.399 30.0969 125.716 30.6243 124.934 31.0026C123.602 31.7134 122.051 32.0016 120.522 31.8227L120.362 37.6647C120.362 37.8643 120.276 38.0559 120.123 38.1981C119.971 38.3402 119.763 38.4214 119.546 38.424Z" fill="#263238"/>
<path d="M120.825 41.7651C120.825 41.9856 120.754 42.2011 120.62 42.3844C120.487 42.5677 120.297 42.7104 120.075 42.7946C119.853 42.8787 119.609 42.9005 119.373 42.8571C119.138 42.8137 118.921 42.7071 118.752 42.5509C118.582 42.3946 118.467 42.1957 118.421 41.9793C118.375 41.7629 118.4 41.5388 118.492 41.3354C118.585 41.132 118.741 40.9584 118.942 40.8366C119.142 40.7149 119.377 40.6504 119.617 40.6514C119.777 40.6514 119.934 40.6803 120.081 40.7363C120.228 40.7923 120.361 40.8744 120.474 40.9779C120.586 41.0814 120.675 41.2042 120.735 41.3393C120.795 41.4744 120.826 41.6191 120.825 41.7651Z" fill="#263238"/>
<path d="M29.0097 116.338C27.7718 116.35 26.5628 115.995 25.5623 115.326C24.9773 114.909 24.489 114.388 24.1263 113.795C23.7635 113.203 23.5335 112.549 23.4497 111.873C23.3416 111.236 23.3822 110.585 23.5688 109.963C23.7554 109.341 24.0838 108.762 24.5322 108.266C24.9806 107.769 25.5389 107.365 26.17 107.081C26.8012 106.797 27.4908 106.64 28.1933 106.619C29.3404 106.551 30.4824 106.809 31.4642 107.358L33.6705 103.566C33.7212 103.478 33.7904 103.399 33.8741 103.335C33.9578 103.271 34.0544 103.223 34.1584 103.194C34.2624 103.164 34.3717 103.154 34.4801 103.163C34.5885 103.172 34.6939 103.201 34.7902 103.247C34.8865 103.294 34.9719 103.357 35.0415 103.434C35.1111 103.511 35.1636 103.599 35.1958 103.695C35.2281 103.79 35.2396 103.891 35.2296 103.99C35.2196 104.09 35.1884 104.186 35.1377 104.275L32.4736 108.836C32.4129 108.94 32.3272 109.029 32.2229 109.098C32.1187 109.166 31.9988 109.212 31.8723 109.231C31.7465 109.25 31.6173 109.242 31.4955 109.207C31.3737 109.172 31.2627 109.111 31.1718 109.028C30.7848 108.704 30.3299 108.456 29.8349 108.298C29.3399 108.141 28.8151 108.078 28.2926 108.112C27.8179 108.129 27.352 108.235 26.9234 108.423C26.4947 108.611 26.1123 108.877 25.7995 109.206C25.5082 109.552 25.2957 109.949 25.1744 110.373C25.0531 110.796 25.0256 111.238 25.0934 111.671C25.1449 112.147 25.301 112.609 25.5522 113.028C25.8034 113.448 26.1446 113.816 26.5551 114.111C27.4163 114.636 28.4461 114.877 29.4761 114.795C30.5061 114.714 31.4753 114.313 32.2254 113.66C32.3835 113.527 32.5918 113.456 32.8063 113.461C33.0208 113.466 33.2247 113.548 33.375 113.688C33.5253 113.829 33.6102 114.018 33.6118 114.214C33.6134 114.411 33.5316 114.601 33.3837 114.744C32.2068 115.777 30.638 116.349 29.0097 116.338Z" fill="#263238"/>
<path d="M35.0159 100.681C35.0972 100.53 35.2253 100.404 35.3842 100.32C35.5431 100.237 35.7255 100.198 35.9084 100.209C36.0913 100.22 36.2664 100.281 36.4117 100.384C36.557 100.486 36.6658 100.626 36.7245 100.785C36.7832 100.945 36.789 101.117 36.7413 101.279C36.6935 101.441 36.5944 101.587 36.4564 101.698C36.3183 101.809 36.1476 101.879 35.9659 101.901C35.7841 101.923 35.5994 101.894 35.4351 101.82C35.215 101.719 35.0473 101.543 34.9687 101.33C34.89 101.116 34.9071 100.883 35.0159 100.681Z" fill="#263238"/>
<path d="M195.994 103.561C195.863 103.562 195.733 103.535 195.616 103.48C195.499 103.425 195.398 103.345 195.321 103.247L192.012 99.0455C191.936 98.9507 191.885 98.8408 191.864 98.7247C191.843 98.6086 191.852 98.4896 191.89 98.3773C191.926 98.2624 191.99 98.1567 192.079 98.0688C192.167 97.9809 192.276 97.9132 192.398 97.8711C192.89 97.703 193.339 97.4436 193.716 97.1091C194.094 96.7746 194.392 96.3723 194.593 95.9271C194.789 95.5303 194.893 95.1007 194.9 94.6652C194.906 94.2297 194.815 93.7976 194.632 93.3959C194.425 93.0007 194.133 92.648 193.774 92.3591C193.415 92.0703 192.995 91.8512 192.541 91.7152C192.053 91.5477 191.532 91.4721 191.011 91.4929C190.49 91.5138 189.978 91.6307 189.508 91.8367C188.614 92.3102 187.922 93.0473 187.544 93.9279C187.165 94.8085 187.122 95.7808 187.423 96.6865C187.491 96.8778 187.474 97.0863 187.376 97.2663C187.277 97.4462 187.104 97.5827 186.896 97.6458C186.687 97.7089 186.46 97.6934 186.264 97.6027C186.068 97.5121 185.919 97.3537 185.851 97.1623C185.421 95.9106 185.475 94.5612 186.002 93.3414C186.53 92.1216 187.499 91.1058 188.746 90.4648C189.418 90.1675 190.148 89.9973 190.893 89.9643C191.638 89.9312 192.382 90.036 193.082 90.2724C193.746 90.477 194.359 90.8026 194.883 91.2297C195.407 91.6568 195.832 92.1766 196.132 92.7581C196.41 93.3495 196.554 93.9869 196.554 94.6311C196.554 95.2754 196.41 95.9128 196.132 96.5042C195.688 97.476 194.932 98.3006 193.964 98.8684L196.722 102.341C196.786 102.422 196.832 102.514 196.857 102.611C196.883 102.709 196.887 102.81 196.869 102.908C196.852 103.007 196.813 103.102 196.756 103.187C196.698 103.272 196.623 103.346 196.535 103.404C196.381 103.514 196.189 103.57 195.994 103.561Z" fill="#263238"/>
<path d="M198.852 104.757C198.962 104.891 199.027 105.052 199.038 105.22C199.049 105.387 199.006 105.554 198.913 105.7C198.821 105.845 198.684 105.961 198.519 106.035C198.355 106.109 198.17 106.136 197.989 106.113C197.807 106.091 197.637 106.019 197.5 105.908C197.363 105.797 197.264 105.651 197.217 105.488C197.171 105.326 197.177 105.155 197.236 104.995C197.296 104.836 197.405 104.697 197.55 104.595C197.746 104.459 197.994 104.399 198.237 104.43C198.481 104.46 198.702 104.578 198.852 104.757Z" fill="#263238"/>
</svg>
