<svg width="138" height="75" viewBox="0 0 138 75" fill="none" xmlns="http://www.w3.org/2000/svg">
<path d="M69.3655 31.7334L13.6926 5.36018L16.1493 4.07764L69.1849 14.6269L74.5137 11.8632C75.0679 11.6093 75.6742 11.49 76.2833 11.5151C76.8923 11.5402 77.4868 11.709 78.0181 12.0077C78.9755 12.6038 78.9574 13.5251 78.0181 14.0308L74.7666 15.8372L93.0473 19.6487L69.3655 31.7334Z" fill="#187259"/>
<g opacity="0.1">
<path d="M69.3655 31.7334L13.6926 5.36018L16.1493 4.07764L69.1849 14.6269L74.5137 11.8632C75.0679 11.6093 75.6742 11.49 76.2833 11.5151C76.8923 11.5402 77.4868 11.709 78.0181 12.0077C78.9755 12.6038 78.9574 13.5251 78.0181 14.0308L74.7666 15.8372L93.0473 19.6487L69.3655 31.7334Z" fill="black"/>
</g>
<path d="M84.9364 17.7519C110.063 4.63749 130.349 -2.85902 136.473 1.02471C142.596 4.90845 127.892 15.8913 102.928 29.1321L80.8359 39.8259C58.7077 49.7972 36.0013 58.2872 36.0013 58.2872L37.031 73.5873L34.8272 74.7615L24.892 63.7245C24.892 63.7245 19.3284 66.3799 16.2394 64.429C13.1505 62.4781 18.2084 59.5156 18.2084 59.5156L0 52.85L2.2038 51.6036L28.559 53.5545C28.559 53.5545 45.3765 41.253 64.5061 29.4211L84.9364 17.7519Z" fill="#187259"/>
<path d="M112.285 35.5994L106.957 38.4174L120.504 69.8124L118.048 71.095L80.8362 39.7903L102.928 29.0964L105.548 35.1478L108.817 33.3414C109.371 33.0875 109.978 32.9683 110.587 32.9934C111.196 33.0185 111.79 33.1873 112.322 33.486C113.279 34.1724 113.261 35.0936 112.285 35.5994Z" fill="#187259"/>
<g opacity="0.1">
<path d="M112.286 35.5994L106.957 38.4173L120.505 69.8124L118.048 71.0949L75.9954 35.7981L100.4 23.3701L105.548 35.1478L108.817 33.3414C109.372 33.0875 109.978 32.9682 110.587 32.9933C111.196 33.0184 111.79 33.1872 112.322 33.4859C113.279 34.1723 113.261 35.0936 112.286 35.5994Z" fill="black"/>
</g>
</svg>
