<svg width="49" height="47" viewBox="0 0 49 47" fill="none" xmlns="http://www.w3.org/2000/svg">
<rect x="47" y="47" width="47" height="47" rx="23.5" transform="rotate(180 47 47)" fill="#ECFDF5"/>
<path d="M18.9565 10.6174L11.2246 14.8291V27.2882L18.9565 23.0765V10.6174Z" fill="#187259"/>
<path opacity="0.35" d="M18.9565 10.6174L11.2246 14.8291V27.2882L18.9565 23.0765V10.6174Z" fill="black"/>
<path d="M11.4448 15.0364L18.9567 10.9693C19.2974 11.3465 19.8024 11.6084 20.4717 11.7551L13.0177 15.8127C13.0177 15.8127 12.5926 15.7184 11.4448 15.0364Z" fill="#F5F5F5"/>
<path d="M13.6541 15.7908C13.4568 15.886 13.2386 15.9357 13.0173 15.9357C12.796 15.9357 12.5779 15.886 12.3806 15.7908L11.2642 15.1779C10.9119 14.9862 10.9119 14.6734 11.2642 14.4801L18.6785 10.4649L18.9564 10.6221L11.6479 14.5996C11.4362 14.7143 11.4379 14.9029 11.6479 15.0176L12.6865 15.5802C12.8048 15.6376 12.9358 15.6675 13.0686 15.6675C13.2014 15.6675 13.3323 15.6376 13.4506 15.5802L20.7558 11.609L21.07 11.7818L13.6541 15.7908Z" fill="#187259"/>
<path opacity="0.25" d="M13.6541 15.7908C13.4568 15.886 13.2386 15.9357 13.0173 15.9357C12.796 15.9357 12.5779 15.886 12.3806 15.7908L11.2642 15.1779C10.9119 14.9862 10.9119 14.6734 11.2642 14.4801L18.6785 10.4649L18.9564 10.6221L11.6479 14.5996C11.4362 14.7143 11.4379 14.9029 11.6479 15.0176L12.6865 15.5802C12.8048 15.6376 12.9358 15.6675 13.0686 15.6675C13.2014 15.6675 13.3323 15.6376 13.4506 15.5802L20.7558 11.609L21.07 11.7818L13.6541 15.7908Z" fill="black"/>
<path d="M21.0688 11.7772V24.2362L13.6545 28.2499C13.4569 28.3444 13.2389 28.3936 13.0177 28.3936C12.7966 28.3936 12.5785 28.3444 12.381 28.2499L11.263 27.637C11.1906 27.6061 11.1281 27.5576 11.0819 27.4963C11.0357 27.435 11.0074 27.3632 11 27.2881V14.8291C11.0074 14.9041 11.0357 14.976 11.0819 15.0373C11.1281 15.0986 11.1906 15.1471 11.263 15.1779L12.381 15.7924C12.5785 15.8869 12.7966 15.9361 13.0177 15.9361C13.2389 15.9361 13.4569 15.8869 13.6545 15.7924L21.0688 11.7772Z" fill="#187259"/>
<path opacity="0.05" d="M21.0688 11.7772V24.2362L13.6545 28.2499C13.4569 28.3444 13.2389 28.3936 13.0177 28.3936C12.7966 28.3936 12.5785 28.3444 12.381 28.2499L11.263 27.637C11.1906 27.6061 11.1281 27.5576 11.0819 27.4963C11.0357 27.435 11.0074 27.3632 11 27.2881V14.8291C11.0074 14.9041 11.0357 14.976 11.0819 15.0373C11.1281 15.0986 11.1906 15.1471 11.263 15.1779L12.381 15.7924C12.5785 15.8869 12.7966 15.9361 13.0177 15.9361C13.2389 15.9361 13.4569 15.8869 13.6545 15.7924L21.0688 11.7772Z" fill="black"/>
<path d="M13.0177 15.937C12.796 15.941 12.5768 15.8913 12.381 15.7924L11.263 15.178C11.1906 15.1471 11.1281 15.0986 11.0819 15.0373C11.0357 14.976 11.0074 14.9042 11 14.8291V27.2881C11.0074 27.3632 11.0357 27.4351 11.0819 27.4963C11.1281 27.5576 11.1906 27.6062 11.263 27.637L12.381 28.2499C12.5768 28.3487 12.796 28.3985 13.0177 28.3945V15.937Z" fill="#187259"/>
<path opacity="0.2" d="M13.0177 15.937C12.796 15.941 12.5768 15.8913 12.381 15.7924L11.263 15.178C11.1906 15.1471 11.1281 15.0986 11.0819 15.0373C11.0357 14.976 11.0074 14.9042 11 14.8291V27.2881C11.0074 27.3632 11.0357 27.4351 11.0819 27.4963C11.1281 27.5576 11.1906 27.6062 11.263 27.637L12.381 28.2499C12.5768 28.3487 12.796 28.3985 13.0177 28.3945V15.937Z" fill="black"/>
<path d="M20.8389 13.446L14.3623 17.0228V28.8014L20.8389 25.2262V13.446Z" fill="#187259"/>
<path opacity="0.55" d="M20.8389 13.446L14.3623 17.0228V28.8014L20.8389 25.2262V13.446Z" fill="white"/>
<path d="M14.5708 17.2178L20.839 13.7793C21.2212 14.1674 21.7233 14.4299 22.2729 14.5289L16.0576 17.9501C16.0576 17.9501 15.6557 17.8637 14.5708 17.2178Z" fill="#F5F5F5"/>
<path d="M16.6596 17.9327C16.4732 18.0232 16.2669 18.0704 16.0576 18.0704C15.8483 18.0704 15.642 18.0232 15.4556 17.9327L14.4004 17.3529C14.0697 17.1706 14.0697 16.8814 14.4004 16.6928L20.5776 13.303L20.839 13.446L14.7626 16.8013C14.719 16.8152 14.6812 16.8419 14.6543 16.8774C14.6275 16.9129 14.6131 16.9555 14.6131 16.9993C14.6131 17.043 14.6275 17.0856 14.6543 17.1211C14.6812 17.1566 14.719 17.1833 14.7626 17.1973L15.7434 17.7284C15.8553 17.7827 15.9791 17.8109 16.1047 17.8109C16.2304 17.8109 16.3542 17.7827 16.4661 17.7284L22.5391 14.3811L22.8368 14.5383L16.6596 17.9327Z" fill="#187259"/>
<path opacity="0.8" d="M16.6596 17.9327C16.4732 18.0232 16.2669 18.0704 16.0576 18.0704C15.8483 18.0704 15.642 18.0232 15.4556 17.9327L14.4004 17.3529C14.0697 17.1706 14.0697 16.8814 14.4004 16.6928L20.5776 13.303L20.839 13.446L14.7626 16.8013C14.719 16.8152 14.6812 16.8419 14.6543 16.8774C14.6275 16.9129 14.6131 16.9555 14.6131 16.9993C14.6131 17.043 14.6275 17.0856 14.6543 17.1211C14.6812 17.1566 14.719 17.1833 14.7626 17.1973L15.7434 17.7284C15.8553 17.7827 15.9791 17.8109 16.1047 17.8109C16.2304 17.8109 16.3542 17.7827 16.4661 17.7284L22.5391 14.3811L22.8368 14.5383L16.6596 17.9327Z" fill="white"/>
<path d="M22.8365 14.543V26.3216L16.6593 29.7114C16.4729 29.8019 16.2666 29.849 16.0573 29.849C15.848 29.849 15.6417 29.8019 15.4553 29.7114L14.3985 29.1315C14.3299 29.1025 14.2707 29.0567 14.227 28.9986C14.1834 28.9406 14.1569 28.8725 14.1504 28.8015V17.015C14.1573 17.086 14.1839 17.1539 14.2275 17.2119C14.2711 17.2699 14.3301 17.3158 14.3985 17.3451L15.4553 17.9249C15.6417 18.0154 15.848 18.0626 16.0573 18.0626C16.2666 18.0626 16.4729 18.0154 16.6593 17.9249L22.8365 14.543Z" fill="#187259"/>
<path opacity="0.7" d="M22.8365 14.543V26.3216L16.6593 29.7114C16.4729 29.8019 16.2666 29.849 16.0573 29.849C15.848 29.849 15.6417 29.8019 15.4553 29.7114L14.3985 29.1315C14.3299 29.1025 14.2707 29.0567 14.227 28.9986C14.1834 28.9406 14.1569 28.8725 14.1504 28.8015V17.015C14.1573 17.086 14.1839 17.1539 14.2275 17.2119C14.2711 17.2699 14.3301 17.3158 14.3985 17.3451L15.4553 17.9249C15.6417 18.0154 15.848 18.0626 16.0573 18.0626C16.2666 18.0626 16.4729 18.0154 16.6593 17.9249L22.8365 14.543Z" fill="white"/>
<path d="M16.0573 18.0696C15.8476 18.0736 15.6404 18.0266 15.4553 17.9329L14.3985 17.353C14.3301 17.3238 14.2711 17.2778 14.2275 17.2198C14.1839 17.1619 14.1573 17.0939 14.1504 17.0229V28.8094C14.1569 28.8804 14.1834 28.9485 14.227 29.0066C14.2707 29.0646 14.3299 29.1105 14.3985 29.1394L15.4553 29.7193C15.6404 29.813 15.8476 29.8601 16.0573 29.856V18.0696Z" fill="#187259"/>
<path opacity="0.55" d="M16.0573 18.0696C15.8476 18.0736 15.6404 18.0266 15.4553 17.9329L14.3985 17.353C14.3301 17.3238 14.2711 17.2778 14.2275 17.2198C14.1839 17.1619 14.1573 17.0939 14.1504 17.0229V28.8094C14.1569 28.8804 14.1834 28.9485 14.227 29.0066C14.2707 29.0646 14.3299 29.1105 14.3985 29.1394L15.4553 29.7193C15.6404 29.813 15.8476 29.8601 16.0573 29.856V18.0696Z" fill="white"/>
<path d="M28.9595 15.53L29.0289 16.4257L20.6934 20.6751L20.5049 20.1534L28.9595 15.53Z" fill="#187259"/>
<path opacity="0.35" d="M28.9595 15.53L29.0289 16.4257L20.6934 20.6751L20.5049 20.1534L28.9595 15.53Z" fill="black"/>
<path d="M20.6157 20.3607L28.6899 15.9322L30.0941 16.7022L21.8611 21.2785L20.6157 20.3607Z" fill="#F5F5F5"/>
<path d="M23.3776 20.804L24.3815 28.4667C24.3758 28.5653 24.3457 28.6612 24.2937 28.7466C24.2417 28.8321 24.1692 28.9047 24.0822 28.9586L19.3984 31.5343C19.3235 31.5731 19.2404 31.5956 19.1553 31.6003L21.861 21.5646C21.9461 21.5606 22.0292 21.5386 22.1041 21.5001L22.4349 21.3147L23.3776 20.804Z" fill="#187259"/>
<path opacity="0.35" d="M23.3776 20.804L24.3815 28.4667C24.3758 28.5653 24.3457 28.6612 24.2937 28.7466C24.2417 28.8321 24.1692 28.9047 24.0822 28.9586L19.3984 31.5343C19.3235 31.5731 19.2404 31.5956 19.1553 31.6003L21.861 21.5646C21.9461 21.5606 22.0292 21.5386 22.1041 21.5001L22.4349 21.3147L23.3776 20.804Z" fill="black"/>
<path d="M21.5055 21.5033L20.6703 20.8244L20.0567 20.3246C19.9938 20.2303 19.9211 20.1596 19.9608 20.0811L17.2931 30.0319V30.0414C17.2534 30.1199 17.2418 30.296 17.3559 30.3557L18.803 31.5327C18.9124 31.5884 19.0369 31.6114 19.1603 31.5987L21.8611 21.5646C21.7387 21.5781 21.615 21.5568 21.5055 21.5033Z" fill="#187259"/>
<path opacity="0.25" d="M21.5055 21.5033L20.6703 20.8244L20.0567 20.3246C19.9938 20.2303 19.9211 20.1596 19.9608 20.0811L17.2931 30.0319V30.0414C17.2534 30.1199 17.2418 30.296 17.3559 30.3557L18.803 31.5327C18.9124 31.5884 19.0369 31.6114 19.1603 31.5987L21.8611 21.5646C21.7387 21.5781 21.615 21.5568 21.5055 21.5033Z" fill="black"/>
<path d="M20.0563 19.993C19.891 20.0842 19.9323 20.1848 20.0563 20.3215L21.5051 21.5001C21.5979 21.5448 21.7005 21.5682 21.8045 21.5682C21.9085 21.5682 22.0111 21.5448 22.1038 21.5001L23.3773 20.8008C23.5427 20.7112 23.5725 20.5792 23.4418 20.5085C23.3562 20.4748 23.2635 20.4606 23.1711 20.4668C23.0786 20.4731 22.989 20.4998 22.9093 20.5446L21.9037 21.0931C21.8726 21.1078 21.8384 21.1154 21.8037 21.1154C21.7689 21.1154 21.7347 21.1078 21.7036 21.0931L20.6451 20.2193C20.5905 20.1895 20.5905 20.1408 20.6451 20.1093L28.9591 15.5236L28.5606 15.3052L20.0563 19.993Z" fill="#187259"/>
<path opacity="0.15" d="M20.0563 19.993C19.891 20.0842 19.9323 20.1848 20.0563 20.3215L21.5051 21.5001C21.5979 21.5448 21.7005 21.5682 21.8045 21.5682C21.9085 21.5682 22.0111 21.5448 22.1038 21.5001L23.3773 20.8008C23.5427 20.7112 23.5725 20.5792 23.4418 20.5085C23.3562 20.4748 23.2635 20.4606 23.1711 20.4668C23.0786 20.4731 22.989 20.4998 22.9093 20.5446L21.9037 21.0931C21.8726 21.1078 21.8384 21.1154 21.8037 21.1154C21.7689 21.1154 21.7347 21.1078 21.7036 21.0931L20.6451 20.2193C20.5905 20.1895 20.5905 20.1408 20.6451 20.1093L28.9591 15.5236L28.5606 15.3052L20.0563 19.993Z" fill="black"/>
<path d="M30.57 15.6651L22.9985 19.8454V33.6119L30.57 29.4332V15.6651Z" fill="#455A64"/>
<path d="M23.2471 20.0732L30.5737 16.0548C30.9508 16.4739 31.5093 16.7657 32.2491 16.9301L24.9803 20.936C24.9803 20.936 24.5123 20.8275 23.2471 20.0732Z" fill="#F5F5F5"/>
<path d="M25.6847 20.9076C25.4667 21.013 25.2255 21.0678 24.981 21.0678C24.7364 21.0678 24.4953 21.013 24.2772 20.9076L23.0434 20.2319C22.6548 20.0182 22.6548 19.6724 23.0434 19.4587L30.2643 15.4969L30.5702 15.665L23.4685 19.586C23.2353 19.7133 23.2353 19.9207 23.4685 20.048L24.6146 20.6766C24.7457 20.7394 24.8904 20.772 25.0372 20.772C25.184 20.772 25.3287 20.7394 25.4598 20.6766L32.5598 16.7635L32.9055 16.9537L25.6847 20.9076Z" fill="#263238"/>
<path d="M32.9056 16.9459V30.714L25.6848 34.6743C25.4667 34.7796 25.2256 34.8345 24.981 34.8345C24.7365 34.8345 24.4953 34.7796 24.2773 34.6743L23.0435 33.9985C22.9633 33.9644 22.8941 33.9106 22.843 33.8426C22.7918 33.7747 22.7606 33.6951 22.7524 33.6119V19.8454C22.7609 19.9283 22.7922 20.0076 22.8433 20.0752C22.8945 20.1428 22.9635 20.1964 23.0435 20.2304L24.2773 20.9093C24.4956 21.0139 24.7366 21.0684 24.981 21.0684C25.2255 21.0684 25.4665 21.0139 25.6848 20.9093L32.9056 16.9459Z" fill="#455A64"/>
<path d="M24.9802 21.0695C24.7356 21.0751 24.4936 21.021 24.2773 20.9124L23.0435 20.2335C22.9635 20.1994 22.8945 20.1459 22.8433 20.0783C22.7922 20.0106 22.7609 19.9313 22.7524 19.8484V33.615C22.7606 33.6982 22.7918 33.7778 22.843 33.8457C22.8941 33.9136 22.9633 33.9674 23.0435 34.0016L24.2773 34.6773C24.4936 34.786 24.7356 34.8401 24.9802 34.8345V21.0695Z" fill="#37474F"/>
<path d="M33.6662 17.3638L26.0947 21.5441V35.3122L33.6662 31.1319V17.3638Z" fill="#187259"/>
<path opacity="0.35" d="M33.6662 17.3638L26.0947 21.5441V35.3122L33.6662 31.1319V17.3638Z" fill="black"/>
<path d="M26.3398 21.772L33.6665 17.7537C34.0436 18.1727 34.602 18.4645 35.3419 18.629L28.0764 22.6317C28.0764 22.6317 27.6067 22.5264 26.3398 21.772Z" fill="#EBEBEB"/>
<path d="M26.3398 21.772L33.6665 17.7537C34.0436 18.1727 34.602 18.4645 35.3419 18.629L28.0764 22.6317C28.0764 22.6317 27.6067 22.5264 26.3398 21.772Z" fill="#F5F5F5"/>
<path d="M28.7804 22.6064C28.5624 22.7117 28.3212 22.7666 28.0767 22.7666C27.8321 22.7666 27.591 22.7117 27.3729 22.6064L26.1392 21.9306C25.7505 21.7169 25.7505 21.3712 26.1392 21.1574L33.36 17.1972L33.6659 17.3638L26.5642 21.2926C26.331 21.4199 26.331 21.6273 26.5642 21.7546L27.7103 22.3832C27.8414 22.446 27.9861 22.4786 28.1329 22.4786C28.2797 22.4786 28.4244 22.446 28.5555 22.3832L35.6506 18.456L35.9979 18.6461L28.7804 22.6064Z" fill="#187259"/>
<path opacity="0.25" d="M28.7804 22.6064C28.5624 22.7117 28.3212 22.7666 28.0767 22.7666C27.8321 22.7666 27.591 22.7117 27.3729 22.6064L26.1392 21.9306C25.7505 21.7169 25.7505 21.3712 26.1392 21.1574L33.36 17.1972L33.6659 17.3638L26.5642 21.2926C26.331 21.4199 26.331 21.6273 26.5642 21.7546L27.7103 22.3832C27.8414 22.446 27.9861 22.4786 28.1329 22.4786C28.2797 22.4786 28.4244 22.446 28.5555 22.3832L35.6506 18.456L35.9979 18.6461L28.7804 22.6064Z" fill="black"/>
<path d="M36.0001 18.6446V32.408L28.7809 36.3698C28.5627 36.4744 28.3217 36.5289 28.0772 36.5289C27.8328 36.5289 27.5918 36.4744 27.3735 36.3698L26.1397 35.6925C26.0595 35.6583 25.9903 35.6045 25.9391 35.5366C25.888 35.4687 25.8568 35.389 25.8486 35.3059V21.5393C25.857 21.6222 25.8884 21.7015 25.9395 21.7691C25.9907 21.8368 26.0597 21.8903 26.1397 21.9244L27.3735 22.6033C27.5915 22.7086 27.8326 22.7635 28.0772 22.7635C28.3218 22.7635 28.5629 22.7086 28.7809 22.6033L36.0001 18.6446Z" fill="#187259"/>
<path opacity="0.15" d="M28.0764 22.7683C27.8318 22.7738 27.5898 22.7197 27.3735 22.6111L26.1397 21.9322C26.0597 21.8982 25.9907 21.8446 25.9395 21.777C25.8884 21.7094 25.857 21.6301 25.8486 21.5472V35.3137C25.8568 35.3969 25.888 35.4765 25.9391 35.5444C25.9903 35.6124 26.0595 35.6662 26.1397 35.7003L27.3735 36.3776C27.5901 36.4856 27.8319 36.5397 28.0764 36.5348V22.7683Z" fill="black"/>
<rect x="29.4126" y="27.2062" width="19.5876" height="19.5876" rx="9.79379" fill="#61C8AB"/>
<path d="M35.8332 34.6232L33.4565 36.9999L35.8332 39.3766" stroke="white" stroke-linecap="round" stroke-linejoin="round"/>
<path d="M44.9565 36.9998H33.4565" stroke="white" stroke-linecap="round" stroke-linejoin="round"/>
</svg>
