<svg width="47" height="47" viewBox="0 0 47 47" fill="none" xmlns="http://www.w3.org/2000/svg">
<rect x="47" y="47" width="47" height="47" rx="23.5" transform="rotate(180 47 47)" fill="#ECFDF5"/>
<g clip-path="url(#clip0_43_4995)">
<path d="M30.4443 31.8333H22.1109V26.2778H20.7221V31.8333H16.5554V26.2778H15.1665V31.8333C15.1665 32.2017 15.3128 32.555 15.5733 32.8154C15.8338 33.0759 16.187 33.2222 16.5554 33.2222H30.4443C30.8126 33.2222 31.1659 33.0759 31.4264 32.8154C31.6868 32.555 31.8332 32.2017 31.8332 31.8333V26.2778H30.4443V31.8333Z" fill="#187259"/>
<path d="M34.4651 20.2153L31.6317 14.5486C31.5168 14.3172 31.3395 14.1225 31.1199 13.9863C30.9003 13.8501 30.6471 13.7779 30.3887 13.7778H16.6109C16.3525 13.7779 16.0993 13.8501 15.8797 13.9863C15.6601 14.1225 15.4828 14.3172 15.3678 14.5486L12.5345 20.2153C12.4378 20.4094 12.3878 20.6234 12.3887 20.8403V22.9792C12.388 23.3037 12.5011 23.6182 12.7081 23.868C13.0141 24.2188 13.3921 24.4996 13.8163 24.6914C14.2405 24.8831 14.701 24.9812 15.1665 24.9792C15.926 24.9803 16.6624 24.7177 17.2498 24.2361C17.8372 24.718 18.5734 24.9813 19.3331 24.9813C20.0929 24.9813 20.8291 24.718 21.4165 24.2361C22.0038 24.718 22.7401 24.9813 23.4998 24.9813C24.2595 24.9813 24.9958 24.718 25.5831 24.2361C26.1705 24.718 26.9067 24.9813 27.6665 24.9813C28.4262 24.9813 29.1624 24.718 29.7498 24.2361C30.4055 24.7745 31.2443 25.0376 32.09 24.9703C32.9357 24.9029 33.7223 24.5103 34.2845 23.875C34.4941 23.6261 34.6096 23.3115 34.6109 22.9861V20.8403C34.6118 20.6234 34.5618 20.4094 34.4651 20.2153ZM31.8331 23.5903C31.5365 23.5896 31.2444 23.518 30.981 23.3815C30.7177 23.245 30.4908 23.0475 30.3192 22.8055L29.7498 22.0278L29.1873 22.8055C29.0125 23.0438 28.784 23.2376 28.5204 23.3711C28.2568 23.5047 27.9654 23.5742 27.6699 23.5742C27.3744 23.5742 27.0831 23.5047 26.8195 23.3711C26.5558 23.2376 26.3274 23.0438 26.1526 22.8055L25.5831 22.0278L25.0206 22.8055C24.8458 23.0438 24.6174 23.2376 24.3537 23.3711C24.0901 23.5047 23.7988 23.5742 23.5033 23.5742C23.2078 23.5742 22.9164 23.5047 22.6528 23.3711C22.3892 23.2376 22.1607 23.0438 21.9859 22.8055L21.4165 22.0278L20.854 22.8055C20.6792 23.0438 20.4507 23.2376 20.1871 23.3711C19.9235 23.5047 19.6321 23.5742 19.3366 23.5742C19.0411 23.5742 18.7497 23.5047 18.4861 23.3711C18.2225 23.2376 17.994 23.0438 17.8192 22.8055L17.2498 22.0278L16.6803 22.8055C16.5088 23.0475 16.2819 23.245 16.0186 23.3815C15.7552 23.518 15.4631 23.5896 15.1665 23.5903C14.9047 23.5935 14.6454 23.5406 14.4058 23.4352C14.1663 23.3297 13.952 23.1743 13.7776 22.9792V20.8403L16.6109 15.1667H30.3887L33.222 20.8333V22.9583C33.0486 23.1562 32.8351 23.3148 32.5956 23.4238C32.3561 23.5328 32.0962 23.5895 31.8331 23.5903Z" fill="#187259"/>
</g>
<defs>
<clipPath id="clip0_43_4995">
<rect width="25" height="25" fill="white" transform="translate(11 11)"/>
</clipPath>
</defs>
</svg>
