<svg width="112" height="68" viewBox="0 0 112 68" fill="none" xmlns="http://www.w3.org/2000/svg">
<path d="M74.4005 30.1851C74.4005 30 74.4745 29.8026 74.5239 29.6176C74.6102 29.2352 74.6966 28.8527 74.7583 28.4827C74.7583 28.347 74.7583 28.2113 74.7583 28.0756C74.7951 27.8799 74.8198 27.6821 74.8323 27.4834C74.8323 27.2737 74.894 27.0516 74.9186 26.8419C74.9433 26.6322 74.9186 26.1881 74.9186 25.855C74.9186 25.744 74.9186 25.633 74.9186 25.5219V25.3739C74.9433 24.9178 74.9433 24.4607 74.9186 24.0046V23.6468C74.9186 23.5234 74.9186 23.3877 74.9186 23.2644C74.9308 23.0795 74.9308 22.8941 74.9186 22.7092C74.857 22.3021 74.7829 21.895 74.6842 21.4756C74.6898 21.4429 74.6898 21.4096 74.6842 21.3769C74.5979 21.0315 74.5115 20.6861 74.4005 20.353C74.2895 20.0199 74.2402 19.8966 74.1538 19.6745L74.0428 19.3908C74.0428 19.3908 74.0428 19.2674 73.9811 19.2057C73.8207 18.8356 73.648 18.4655 73.463 18.1078L73.2039 17.6267L68.1213 8.73215C68.4429 9.29927 68.7233 9.88883 68.9602 10.4963C68.9984 10.5847 69.0313 10.6753 69.0589 10.7677C69.2713 11.3246 69.4525 11.893 69.6017 12.4701C69.5959 12.5069 69.5959 12.5443 69.6017 12.5811C69.7424 13.1785 69.8454 13.7842 69.9101 14.3945C69.9101 14.5302 69.9101 14.6536 69.9101 14.7893C69.9101 15.4061 69.9841 16.0229 69.9841 16.6521C69.9907 16.7671 69.9907 16.8825 69.9841 16.9975C69.9841 17.3923 69.9841 17.787 69.8977 18.2311L65.3826 10.3235C64.8823 9.43876 64.2866 8.61141 63.6062 7.85627C63.1041 7.33255 62.5684 6.84216 62.0025 6.38825C61.8174 6.24021 61.6201 6.11685 61.4227 5.98115C61.2253 5.84545 60.6702 5.42602 60.2631 5.17929L59.5106 4.78452C59.1188 4.55385 58.7153 4.34385 58.3016 4.15537L57.438 3.80995C57.0309 3.64958 56.6238 3.50154 56.2044 3.36584L55.2545 3.09444C54.8227 2.98342 54.391 2.88473 53.9468 2.79837C53.5027 2.71202 53.2807 2.66267 52.9353 2.61333C52.5898 2.56398 52.0224 2.47762 51.5536 2.42828L50.4927 2.32959C50.0116 2.32959 49.5304 2.32959 49.037 2.32959H47.5073L46.6067 2.39127L45.1017 2.5023H44.6329L43.3993 2.67501L42.5357 2.78603H42.252L40.1795 3.19314H39.9944L39.5997 3.29182C39.1556 3.39051 38.7114 3.48921 38.2673 3.61257L37.2804 3.89631L36.7993 4.04434L36.4786 4.1307L34.7885 4.69817L34.2704 4.89555L33.8139 5.06826L33.1478 5.31498C32.605 5.5247 32.0745 5.74676 31.5317 5.98115L31.248 6.10451L30.9025 6.26488L29.9527 6.69666L28.3859 7.48618H28.2749L28.0652 7.59721L26.8316 8.27571L25.5116 9.0529L25.3265 9.16393L25.2278 9.22561C24.6727 9.57103 24.1175 9.91645 23.5624 10.2865L22.5632 10.965C22.3164 11.1377 22.0697 11.3105 21.8353 11.4955C21.3419 11.8533 20.8731 12.211 20.4043 12.5811L20.0836 12.8278H20.0096C19.3064 13.3953 18.6402 13.9628 17.9864 14.5426H17.9247L17.7767 14.6783C17.1845 15.2211 16.6047 15.7762 16.0496 16.3313L15.7042 16.6768L15.4574 16.9235L14.8776 17.565C14.4705 18.0091 14.0758 18.4409 13.644 18.885L12.9038 19.7855L11.9169 21.0808C11.6825 21.3893 11.4728 21.71 11.2631 22.0184C11.0534 22.3268 10.6833 22.882 10.4242 23.252C10.1651 23.6221 10.0294 23.8935 9.8444 24.2143C9.65935 24.535 9.37562 25.0778 9.15356 25.4479C9.05487 25.633 8.93151 25.818 8.84515 26.0154C8.7588 26.2128 8.67244 26.3978 8.57375 26.5952L8.37637 27.0393C8.12964 27.6314 7.88292 28.2729 7.68553 28.7911C7.68019 28.8196 7.68019 28.8489 7.68553 28.8774C7.58684 29.1612 7.51282 29.4326 7.42646 29.7163C7.34011 30 7.19209 30.4441 7.09339 30.8019C7.09339 30.8019 7.09339 30.9006 7.09339 30.9499C7.09339 30.9993 7.01936 31.2953 6.98235 31.468C6.94534 31.6408 6.82199 32.1589 6.76031 32.5043C6.76031 32.6277 6.76031 32.751 6.76031 32.8744C6.76031 32.9978 6.76031 33.2445 6.76031 33.4295C6.76031 33.6146 6.69863 33.812 6.68629 33.997C6.67396 34.1821 6.68629 34.6015 6.68629 34.9099C6.68629 35.0086 6.68629 35.1073 6.68629 35.2183V35.3417C6.68629 35.7611 6.68629 36.1723 6.68629 36.5753V36.896V37.2538C6.68629 37.4265 6.6863 37.5869 6.74798 37.7596C6.74798 38.1297 6.87134 38.5121 6.95769 38.8822C6.96322 38.9149 6.96322 38.9482 6.95769 38.9809C7.04405 39.2893 7.11806 39.61 7.21675 39.9184C7.31544 40.2269 7.37712 40.3255 7.45114 40.5353C7.52516 40.745 7.51283 40.708 7.5375 40.782C7.56158 40.8382 7.58217 40.8959 7.59917 40.9547C7.74721 41.3001 7.90758 41.6332 8.08029 41.9663C8.15101 42.1141 8.22925 42.2582 8.31468 42.3981L12.8791 50.3797H12.7805C12.1924 50.1073 11.62 49.8026 11.0657 49.4668L10.8066 49.2941C10.2557 48.9511 9.72822 48.572 9.22758 48.1591L9.05487 48.0234C7.68485 46.888 6.52776 45.5179 5.6377 43.9771L10.7203 52.8716C11.2336 53.9542 11.8846 54.9659 12.6571 55.8817C13.1173 56.3766 13.612 56.8383 14.1374 57.2634L14.2978 57.4114C14.8037 57.8174 15.3308 58.1962 15.8769 58.5463L16.1359 58.7067C16.6955 59.0444 17.2719 59.3532 17.863 59.6319L18.1714 59.78C18.7759 60.0514 19.4051 60.2981 20.0342 60.5202L20.3426 60.6188C21.019 60.847 21.7066 61.0406 22.4028 61.1987H22.6002C23.328 61.359 24.0682 61.4947 24.8331 61.6058H24.9934C25.7583 61.7044 26.5478 61.7785 27.3373 61.8278H27.6334C28.4106 61.8278 29.1878 61.8278 29.9897 61.8278C30.0594 61.8338 30.1296 61.8338 30.1994 61.8278H30.3598C31.2726 61.8278 32.2102 61.7291 33.1601 61.6304H33.5055C34.2457 61.5441 34.9859 61.4454 35.7384 61.322H35.9234L36.2318 61.2603C36.7829 61.1616 37.338 61.0506 37.8973 60.9272H38.1933H38.329C38.9458 60.7915 39.5626 60.6312 40.2041 60.4708H40.2782L40.6359 60.3721L42.0176 59.965L42.2397 59.9033L42.6714 59.7676L43.7447 59.3975L44.0901 59.2865L44.4478 59.1508L45.4594 58.7807L45.8912 58.6204L46.175 58.497L47.1619 58.0899L47.6553 57.8802L47.865 57.7815C48.1981 57.6458 48.5188 57.4854 48.8519 57.3374L49.3824 57.0907L49.5305 57.0166L50.579 56.4985C50.7517 56.3998 50.9368 56.3258 51.1095 56.2394H51.1958L52.5282 55.5116L52.8242 55.3512L54.4897 54.3643H54.5637L54.9214 54.1299C55.3409 53.8709 55.7726 53.5995 56.1551 53.3157L56.3525 53.1924L57.438 52.4522L58.2522 51.8724C58.7827 51.4899 59.3008 51.0828 59.819 50.6387L60.1644 50.3797H60.2384C61.0033 49.7629 61.7434 49.146 62.4589 48.5169H62.5206C62.5771 48.4666 62.6306 48.413 62.681 48.3565C63.3471 47.7644 63.9146 47.1229 64.5808 46.5554L64.9509 46.1853L65.2223 45.9139C65.4443 45.6795 65.6417 45.4328 65.8514 45.1984C66.2955 44.7173 66.7397 44.2485 67.1468 43.7551C67.5539 43.2616 67.6772 43.1012 67.9486 42.7682C68.22 42.4351 68.6888 41.8306 69.0342 41.3618L69.7497 40.3256C70.0705 39.8568 70.3789 39.4003 70.6749 38.9315C70.971 38.4628 71.0944 38.2284 71.2918 37.8706C71.4891 37.5129 71.8222 36.9331 72.0566 36.4643C72.1676 36.2546 72.291 36.0448 72.3897 35.8475C72.4884 35.6501 72.5871 35.4157 72.6858 35.206C72.7845 34.9962 72.8338 34.8729 72.8955 34.7125C73.1792 34.0834 73.4383 33.4789 73.6604 32.8004V32.7017C73.759 32.4056 73.8331 32.1095 73.9318 31.8135C74.0304 31.5174 74.1908 30.9993 74.2895 30.5798L74.4005 30.1851ZM68.9232 22.6599C68.8245 22.956 68.7505 23.2644 68.6394 23.5605C68.4174 24.2266 68.146 24.8928 67.8499 25.5713C67.7882 25.7316 67.7019 25.892 67.6279 26.0524C67.4428 26.4718 67.2208 26.8913 67.011 27.286C66.8013 27.6808 66.5176 28.2359 66.2462 28.7047C65.9748 29.1735 65.8391 29.4079 65.617 29.7533C65.395 30.0987 65.0249 30.6909 64.7041 31.1596L63.9886 32.1959C63.6432 32.6647 63.2731 33.1335 62.9031 33.6022L62.1012 34.5891C61.6941 35.0703 61.25 35.5514 60.8059 36.0325C60.3617 36.5136 60.2137 36.6863 59.9053 37.0071L59.5352 37.4635C58.9184 38.068 58.3016 38.6972 57.6354 39.2646L57.475 39.4127C56.7266 40.087 55.9371 40.7532 55.1065 41.4111L54.7611 41.6702C53.9962 42.2747 53.219 42.9038 52.3925 43.4343L51.1588 44.3102L49.9252 45.1244L49.4934 45.3958C48.9383 45.7289 48.3832 46.062 47.828 46.3704L47.5073 46.5431L46.175 47.2709L45.5581 47.5793L44.5095 48.1098L43.8187 48.4305L42.8441 48.8746L42.141 49.1707C41.8079 49.3187 41.4871 49.4544 41.1541 49.5778L40.4385 49.8616L39.427 50.244L38.7238 50.4907L37.6505 50.8485L36.9844 51.0582L35.615 51.4529L35.1833 51.5763C34.5541 51.749 33.9496 51.897 33.3081 52.0451L32.8764 52.1314C32.3212 52.2548 31.7661 52.3535 31.2109 52.4522L30.7175 52.5385C29.965 52.6619 29.2248 52.7729 28.4846 52.8469H28.1269C27.1893 52.9456 26.2517 53.0073 25.3388 53.032H24.9564C24.1669 53.032 23.3774 53.032 22.6125 53.032H22.3164C21.5269 53.032 20.7374 52.921 19.9725 52.8223H19.8862C19.1213 52.7236 18.3688 52.5879 17.641 52.4275H17.4436C16.7404 52.2671 16.0619 52.0698 15.3834 51.8477L15.0873 51.749C14.453 51.5376 13.831 51.2905 13.2246 51.0088H13.1012C12.9902 50.7621 12.8545 50.5154 12.7558 50.2686L12.6571 50.0096C12.4652 49.5017 12.3045 48.9826 12.176 48.4552V48.3565C12.0526 47.8137 11.9663 47.2586 11.8922 46.7034V46.3457C11.8407 45.7756 11.8201 45.2032 11.8305 44.6309C11.8305 44.5322 11.8305 44.4212 11.8305 44.3225C11.8305 43.8414 11.8305 43.3356 11.9416 42.8422L12.0156 42.2994C12.0156 41.8306 12.176 41.3618 12.2747 40.893L12.3857 40.3626C12.4844 39.9555 12.6201 39.536 12.7434 39.1289C12.8668 38.7218 12.9038 38.5738 13.0025 38.3024C13.2122 37.6856 13.4589 37.0688 13.718 36.4643L13.9277 36.0202C14.1004 35.6377 14.2978 35.243 14.4952 34.8605C14.6926 34.4781 14.9393 33.997 15.186 33.6269C15.4328 33.2568 15.5685 32.9854 15.7658 32.6647C15.9632 32.3439 16.3086 31.8011 16.6047 31.431C16.9008 31.061 17.0365 30.8019 17.2585 30.4811C17.4806 30.1604 17.9124 29.6299 18.2454 29.2475C18.5785 28.8651 18.7266 28.643 18.9856 28.347C19.2447 28.0509 19.7505 27.4711 20.2193 27.027C20.6881 26.5829 20.7621 26.4225 21.0581 26.1264L21.3912 25.7933C21.9464 25.2259 22.5262 24.6831 23.1183 24.1403L23.2664 24.0046C23.9572 23.3754 24.685 22.7709 25.4252 22.1788L25.746 21.9321C26.4491 21.3893 27.1646 20.8465 27.9171 20.3283C28.6697 19.8102 29.7306 19.0947 30.6682 18.5272L30.8532 18.4162C31.7044 17.8981 32.5679 17.4169 33.4315 16.9482L33.6412 16.8371C34.5048 16.3807 35.3806 15.9613 36.2689 15.6035L36.6143 15.4431C37.4655 15.0607 38.329 14.7153 39.1802 14.3945L39.6367 14.2218C40.4755 13.9134 41.3268 13.6297 42.178 13.3706L42.6591 13.2349C43.424 13.0005 44.2011 12.8032 44.966 12.6181L45.3731 12.5194C46.2243 12.3344 47.0631 12.174 47.8403 12.0383L48.7039 11.9149C49.2714 11.8409 49.8265 11.7669 50.3816 11.7176C50.9368 11.6682 51.3932 11.6435 51.899 11.6189H53.2314H54.3169H55.7726L56.8459 11.7176C57.3065 11.7669 57.7629 11.8286 58.2152 11.9026C58.5606 11.9026 58.8937 12.0136 59.2268 12.0876C59.5599 12.1617 60.1027 12.285 60.5345 12.3961L61.4843 12.6675C61.9038 12.7908 62.3109 12.9512 62.718 13.0992L63.5815 13.4446C63.9886 13.6297 64.3711 13.8271 64.7535 14.0368C65.1359 14.2465 65.2716 14.2958 65.506 14.4439C65.7404 14.5919 66.2955 14.962 66.678 15.2458C66.863 15.3815 67.0604 15.5048 67.2454 15.6528C68.3052 16.4845 69.2255 17.4797 69.9718 18.6012C69.9718 18.7123 69.9718 18.8233 69.9718 18.9343L69.8977 19.5388C69.8237 20.0446 69.7251 20.5504 69.614 21.0685C69.614 21.2659 69.54 21.4509 69.4907 21.6483C69.2069 21.7347 69.0589 22.1911 68.9232 22.6599Z" fill="#187259"/>
<path opacity="0.2" d="M74.4005 30.1851C74.4005 30 74.4745 29.8026 74.5239 29.6176C74.6102 29.2352 74.6966 28.8527 74.7583 28.4827C74.7583 28.347 74.7583 28.2113 74.7583 28.0756C74.7951 27.8799 74.8198 27.6821 74.8323 27.4834C74.8323 27.2737 74.894 27.0516 74.9186 26.8419C74.9433 26.6322 74.9186 26.1881 74.9186 25.855C74.9186 25.744 74.9186 25.633 74.9186 25.5219V25.3739C74.9433 24.9178 74.9433 24.4607 74.9186 24.0046V23.6468C74.9186 23.5234 74.9186 23.3877 74.9186 23.2644C74.9308 23.0795 74.9308 22.8941 74.9186 22.7092C74.857 22.3021 74.7829 21.895 74.6842 21.4756C74.6898 21.4429 74.6898 21.4096 74.6842 21.3769C74.5979 21.0315 74.5115 20.6861 74.4005 20.353C74.2895 20.0199 74.2402 19.8966 74.1538 19.6745L74.0428 19.3908C74.0428 19.3908 74.0428 19.2674 73.9811 19.2057C73.8207 18.8356 73.648 18.4655 73.463 18.1078L73.2039 17.6267L68.1213 8.73215C68.4429 9.29927 68.7233 9.88883 68.9602 10.4963C68.9984 10.5847 69.0313 10.6753 69.0589 10.7677C69.2713 11.3246 69.4525 11.893 69.6017 12.4701C69.5959 12.5069 69.5959 12.5443 69.6017 12.5811C69.7424 13.1785 69.8454 13.7842 69.9101 14.3945C69.9101 14.5302 69.9101 14.6536 69.9101 14.7893C69.9101 15.4061 69.9841 16.0229 69.9841 16.6521C69.9907 16.7671 69.9907 16.8825 69.9841 16.9975C69.9841 17.3923 69.9841 17.787 69.8977 18.2311L65.3826 10.3235C64.8823 9.43876 64.2866 8.61141 63.6062 7.85627C63.1041 7.33255 62.5684 6.84216 62.0025 6.38825C61.8174 6.24021 61.6201 6.11685 61.4227 5.98115C61.2253 5.84545 60.6702 5.42602 60.2631 5.17929L59.5106 4.78452C59.1188 4.55385 58.7153 4.34385 58.3016 4.15537L57.438 3.80995C57.0309 3.64958 56.6238 3.50154 56.2044 3.36584L55.2545 3.09444C54.8227 2.98342 54.391 2.88473 53.9468 2.79837C53.5027 2.71202 53.2807 2.66267 52.9353 2.61333C52.5898 2.56398 52.0224 2.47762 51.5536 2.42828L50.4927 2.32959C50.0116 2.32959 49.5304 2.32959 49.037 2.32959H47.5073L46.6067 2.39127L45.1017 2.5023H44.6329L43.3993 2.67501L42.5357 2.78603H42.252L40.1795 3.19314H39.9944L39.5997 3.29182C39.1556 3.39051 38.7114 3.48921 38.2673 3.61257L37.2804 3.89631L36.7993 4.04434L36.4786 4.1307L34.7885 4.69817L34.2704 4.89555L33.8139 5.06826L33.1478 5.31498C32.605 5.5247 32.0745 5.74676 31.5317 5.98115L31.248 6.10451L30.9025 6.26488L29.9527 6.69666L28.3859 7.48618H28.2749L28.0652 7.59721L26.8316 8.27571L25.5116 9.0529L25.3265 9.16393L25.2278 9.22561C24.6727 9.57103 24.1175 9.91645 23.5624 10.2865L22.5632 10.965C22.3164 11.1377 22.0697 11.3105 21.8353 11.4955C21.3419 11.8533 20.8731 12.211 20.4043 12.5811L20.0836 12.8278H20.0096C19.3064 13.3953 18.6402 13.9628 17.9864 14.5426H17.9247L17.7767 14.6783C17.1845 15.2211 16.6047 15.7762 16.0496 16.3313L15.7042 16.6768L15.4574 16.9235L14.8776 17.565C14.4705 18.0091 14.0758 18.4409 13.644 18.885L12.9038 19.7855L11.9169 21.0808C11.6825 21.3893 11.4728 21.71 11.2631 22.0184C11.0534 22.3268 10.6833 22.882 10.4242 23.252C10.1651 23.6221 10.0294 23.8935 9.8444 24.2143C9.65935 24.535 9.37562 25.0778 9.15356 25.4479C9.05487 25.633 8.93151 25.818 8.84515 26.0154C8.7588 26.2128 8.67244 26.3978 8.57375 26.5952L8.37637 27.0393C8.12964 27.6314 7.88292 28.2729 7.68553 28.7911C7.68019 28.8196 7.68019 28.8489 7.68553 28.8774C7.58684 29.1612 7.51282 29.4326 7.42646 29.7163C7.34011 30 7.19209 30.4441 7.09339 30.8019C7.09339 30.8019 7.09339 30.9006 7.09339 30.9499C7.09339 30.9993 7.01936 31.2953 6.98235 31.468C6.94534 31.6408 6.82199 32.1589 6.76031 32.5043C6.76031 32.6277 6.76031 32.751 6.76031 32.8744C6.76031 32.9978 6.76031 33.2445 6.76031 33.4295C6.76031 33.6146 6.69863 33.812 6.68629 33.997C6.67396 34.1821 6.68629 34.6015 6.68629 34.9099C6.68629 35.0086 6.68629 35.1073 6.68629 35.2183V35.3417C6.68629 35.7611 6.68629 36.1723 6.68629 36.5753V36.896V37.2538C6.68629 37.4265 6.6863 37.5869 6.74798 37.7596C6.74798 38.1297 6.87134 38.5121 6.95769 38.8822C6.96322 38.9149 6.96322 38.9482 6.95769 38.9809C7.04405 39.2893 7.11806 39.61 7.21675 39.9184C7.31544 40.2269 7.37712 40.3255 7.45114 40.5353C7.52516 40.745 7.51283 40.708 7.5375 40.782C7.56158 40.8382 7.58217 40.8959 7.59917 40.9547C7.74721 41.3001 7.90758 41.6332 8.08029 41.9663C8.15101 42.1141 8.22925 42.2582 8.31468 42.3981L12.8791 50.3797H12.7805C12.1924 50.1073 11.62 49.8026 11.0657 49.4668L10.8066 49.2941C10.2557 48.9511 9.72822 48.572 9.22758 48.1591L9.05487 48.0234C7.68485 46.888 6.52776 45.5179 5.6377 43.9771L10.7203 52.8716C11.2336 53.9542 11.8846 54.9659 12.6571 55.8817C13.1173 56.3766 13.612 56.8383 14.1374 57.2634L14.2978 57.4114C14.8037 57.8174 15.3308 58.1962 15.8769 58.5463L16.1359 58.7067C16.6955 59.0444 17.2719 59.3532 17.863 59.6319L18.1714 59.78C18.7759 60.0514 19.4051 60.2981 20.0342 60.5202L20.3426 60.6188C21.019 60.847 21.7066 61.0406 22.4028 61.1987H22.6002C23.328 61.359 24.0682 61.4947 24.8331 61.6058H24.9934C25.7583 61.7044 26.5478 61.7785 27.3373 61.8278H27.6334C28.4106 61.8278 29.1878 61.8278 29.9897 61.8278C30.0594 61.8338 30.1296 61.8338 30.1994 61.8278H30.3598C31.2726 61.8278 32.2102 61.7291 33.1601 61.6304H33.5055C34.2457 61.5441 34.9859 61.4454 35.7384 61.322H35.9234L36.2318 61.2603C36.7829 61.1616 37.338 61.0506 37.8973 60.9272H38.1933H38.329C38.9458 60.7915 39.5626 60.6312 40.2041 60.4708H40.2782L40.6359 60.3721L42.0176 59.965L42.2397 59.9033L42.6714 59.7676L43.7447 59.3975L44.0901 59.2865L44.4478 59.1508L45.4594 58.7807L45.8912 58.6204L46.175 58.497L47.1619 58.0899L47.6553 57.8802L47.865 57.7815C48.1981 57.6458 48.5188 57.4854 48.8519 57.3374L49.3824 57.0907L49.5305 57.0166L50.579 56.4985C50.7517 56.3998 50.9368 56.3258 51.1095 56.2394H51.1958L52.5282 55.5116L52.8242 55.3512L54.4897 54.3643H54.5637L54.9214 54.1299C55.3409 53.8709 55.7726 53.5995 56.1551 53.3157L56.3525 53.1924L57.438 52.4522L58.2522 51.8724C58.7827 51.4899 59.3008 51.0828 59.819 50.6387L60.1644 50.3797H60.2384C61.0033 49.7629 61.7434 49.146 62.4589 48.5169H62.5206C62.5771 48.4666 62.6306 48.413 62.681 48.3565C63.3471 47.7644 63.9146 47.1229 64.5808 46.5554L64.9509 46.1853L65.2223 45.9139C65.4443 45.6795 65.6417 45.4328 65.8514 45.1984C66.2955 44.7173 66.7397 44.2485 67.1468 43.7551C67.5539 43.2616 67.6772 43.1012 67.9486 42.7682C68.22 42.4351 68.6888 41.8306 69.0342 41.3618L69.7497 40.3256C70.0705 39.8568 70.3789 39.4003 70.6749 38.9315C70.971 38.4628 71.0944 38.2284 71.2918 37.8706C71.4891 37.5129 71.8222 36.9331 72.0566 36.4643C72.1676 36.2546 72.291 36.0448 72.3897 35.8475C72.4884 35.6501 72.5871 35.4157 72.6858 35.206C72.7845 34.9962 72.8338 34.8729 72.8955 34.7125C73.1792 34.0834 73.4383 33.4789 73.6604 32.8004V32.7017C73.759 32.4056 73.8331 32.1095 73.9318 31.8135C74.0304 31.5174 74.1908 30.9993 74.2895 30.5798L74.4005 30.1851ZM68.9232 22.6599C68.8245 22.956 68.7505 23.2644 68.6394 23.5605C68.4174 24.2266 68.146 24.8928 67.8499 25.5713C67.7882 25.7316 67.7019 25.892 67.6279 26.0524C67.4428 26.4718 67.2208 26.8913 67.011 27.286C66.8013 27.6808 66.5176 28.2359 66.2462 28.7047C65.9748 29.1735 65.8391 29.4079 65.617 29.7533C65.395 30.0987 65.0249 30.6909 64.7041 31.1596L63.9886 32.1959C63.6432 32.6647 63.2731 33.1335 62.9031 33.6022L62.1012 34.5891C61.6941 35.0703 61.25 35.5514 60.8059 36.0325C60.3617 36.5136 60.2137 36.6863 59.9053 37.0071L59.5352 37.4635C58.9184 38.068 58.3016 38.6972 57.6354 39.2646L57.475 39.4127C56.7266 40.087 55.9371 40.7532 55.1065 41.4111L54.7611 41.6702C53.9962 42.2747 53.219 42.9038 52.3925 43.4343L51.1588 44.3102L49.9252 45.1244L49.4934 45.3958C48.9383 45.7289 48.3832 46.062 47.828 46.3704L47.5073 46.5431L46.175 47.2709L45.5581 47.5793L44.5095 48.1098L43.8187 48.4305L42.8441 48.8746L42.141 49.1707C41.8079 49.3187 41.4871 49.4544 41.1541 49.5778L40.4385 49.8616L39.427 50.244L38.7238 50.4907L37.6505 50.8485L36.9844 51.0582L35.615 51.4529L35.1833 51.5763C34.5541 51.749 33.9496 51.897 33.3081 52.0451L32.8764 52.1314C32.3212 52.2548 31.7661 52.3535 31.2109 52.4522L30.7175 52.5385C29.965 52.6619 29.2248 52.7729 28.4846 52.8469H28.1269C27.1893 52.9456 26.2517 53.0073 25.3388 53.032H24.9564C24.1669 53.032 23.3774 53.032 22.6125 53.032H22.3164C21.5269 53.032 20.7374 52.921 19.9725 52.8223H19.8862C19.1213 52.7236 18.3688 52.5879 17.641 52.4275H17.4436C16.7404 52.2671 16.0619 52.0698 15.3834 51.8477L15.0873 51.749C14.453 51.5376 13.831 51.2905 13.2246 51.0088H13.1012C12.9902 50.7621 12.8545 50.5154 12.7558 50.2686L12.6571 50.0096C12.4652 49.5017 12.3045 48.9826 12.176 48.4552V48.3565C12.0526 47.8137 11.9663 47.2586 11.8922 46.7034V46.3457C11.8407 45.7756 11.8201 45.2032 11.8305 44.6309C11.8305 44.5322 11.8305 44.4212 11.8305 44.3225C11.8305 43.8414 11.8305 43.3356 11.9416 42.8422L12.0156 42.2994C12.0156 41.8306 12.176 41.3618 12.2747 40.893L12.3857 40.3626C12.4844 39.9555 12.6201 39.536 12.7434 39.1289C12.8668 38.7218 12.9038 38.5738 13.0025 38.3024C13.2122 37.6856 13.4589 37.0688 13.718 36.4643L13.9277 36.0202C14.1004 35.6377 14.2978 35.243 14.4952 34.8605C14.6926 34.4781 14.9393 33.997 15.186 33.6269C15.4328 33.2568 15.5685 32.9854 15.7658 32.6647C15.9632 32.3439 16.3086 31.8011 16.6047 31.431C16.9008 31.061 17.0365 30.8019 17.2585 30.4811C17.4806 30.1604 17.9124 29.6299 18.2454 29.2475C18.5785 28.8651 18.7266 28.643 18.9856 28.347C19.2447 28.0509 19.7505 27.4711 20.2193 27.027C20.6881 26.5829 20.7621 26.4225 21.0581 26.1264L21.3912 25.7933C21.9464 25.2259 22.5262 24.6831 23.1183 24.1403L23.2664 24.0046C23.9572 23.3754 24.685 22.7709 25.4252 22.1788L25.746 21.9321C26.4491 21.3893 27.1646 20.8465 27.9171 20.3283C28.6697 19.8102 29.7306 19.0947 30.6682 18.5272L30.8532 18.4162C31.7044 17.8981 32.5679 17.4169 33.4315 16.9482L33.6412 16.8371C34.5048 16.3807 35.3806 15.9613 36.2689 15.6035L36.6143 15.4431C37.4655 15.0607 38.329 14.7153 39.1802 14.3945L39.6367 14.2218C40.4755 13.9134 41.3268 13.6297 42.178 13.3706L42.6591 13.2349C43.424 13.0005 44.2011 12.8032 44.966 12.6181L45.3731 12.5194C46.2243 12.3344 47.0631 12.174 47.8403 12.0383L48.7039 11.9149C49.2714 11.8409 49.8265 11.7669 50.3816 11.7176C50.9368 11.6682 51.3932 11.6435 51.899 11.6189H53.2314H54.3169H55.7726L56.8459 11.7176C57.3065 11.7669 57.7629 11.8286 58.2152 11.9026C58.5606 11.9026 58.8937 12.0136 59.2268 12.0876C59.5599 12.1617 60.1027 12.285 60.5345 12.3961L61.4843 12.6675C61.9038 12.7908 62.3109 12.9512 62.718 13.0992L63.5815 13.4446C63.9886 13.6297 64.3711 13.8271 64.7535 14.0368C65.1359 14.2465 65.2716 14.2958 65.506 14.4439C65.7404 14.5919 66.2955 14.962 66.678 15.2458C66.863 15.3815 67.0604 15.5048 67.2454 15.6528C68.3052 16.4845 69.2255 17.4797 69.9718 18.6012C69.9718 18.7123 69.9718 18.8233 69.9718 18.9343L69.8977 19.5388C69.8237 20.0446 69.7251 20.5504 69.614 21.0685C69.614 21.2659 69.54 21.4509 69.4907 21.6483C69.2069 21.7347 69.0589 22.1911 68.9232 22.6599Z" fill="black"/>
<path d="M1.09793 34.3171L0 34.1938C0.851208 26.2615 5.62537 18.0085 13.4343 10.9398L14.1745 11.754C6.67395 18.5389 1.8998 26.7673 1.09793 34.3171ZM19.6765 7.38689L19.0473 6.474C21.36 4.85693 23.7794 3.39792 26.2888 2.10693L26.7946 3.09384C24.3263 4.36014 21.948 5.79453 19.6765 7.38689Z" fill="#187259"/>
<path d="M66.062 6.04243C74.6974 15.3564 68.5292 32.0721 52.3933 43.3722C36.2573 54.6723 16.2108 56.2884 7.62466 46.9744C-0.961442 37.6605 5.15738 20.9447 21.2687 9.64465C37.3799 -1.65545 57.4635 -3.24684 66.062 6.04243ZM10.1906 45.2227C18.0365 53.7224 36.3684 52.2544 51.1103 41.9165C65.8522 31.5787 71.3913 16.3186 63.5453 7.85588C55.6994 -0.60686 37.3553 0.824158 22.6133 11.1373C7.8714 21.4505 2.27068 36.6983 10.1906 45.2227Z" fill="#187259"/>
<path d="M105.932 23.387L105.808 23.2019C105.907 23.3623 106.018 23.535 106.104 23.6954L105.932 23.387ZM104.698 36.4758C104.692 36.3896 104.692 36.303 104.698 36.2168C104.698 35.933 104.821 35.6493 104.871 35.3656C104.878 35.3041 104.878 35.242 104.871 35.1805C104.871 35.0571 104.871 34.9338 104.871 34.8104C104.877 34.7819 104.877 34.7525 104.871 34.7241C104.883 34.5722 104.883 34.4195 104.871 34.2676C104.883 34.2359 104.883 34.2007 104.871 34.1689V33.9222C104.877 33.8442 104.877 33.7658 104.871 33.6878C104.865 33.6304 104.865 33.5725 104.871 33.5151C104.871 33.1697 104.871 32.8119 104.871 32.4542C104.871 32.0964 104.871 31.825 104.871 31.5166C104.875 31.2684 104.854 31.0205 104.809 30.7764C104.805 30.4826 104.776 30.1896 104.723 29.9006C104.702 29.7136 104.669 29.5281 104.624 29.3454C104.624 29.1357 104.55 28.9383 104.501 28.7409C104.451 28.5436 104.353 28.1858 104.266 27.9144C103.969 26.9308 103.555 25.9864 103.033 25.1017L98.5422 17.2558C98.5537 17.2503 98.5664 17.2475 98.5792 17.2475C98.592 17.2475 98.6046 17.2503 98.6162 17.2558L99.4304 17.6506C99.5067 17.6796 99.5776 17.7213 99.6401 17.7739L100.269 18.1317C100.39 18.1852 100.502 18.2558 100.602 18.3414L101.404 18.8842C102.299 19.4974 103.127 20.2046 103.871 20.9937C104.106 21.2651 104.34 21.5365 104.562 21.8202C104.784 22.104 104.92 22.2767 105.08 22.5111C105.241 22.7455 105.376 22.9305 105.512 23.1649L100.726 14.7515C100.174 13.7997 99.52 12.9104 98.7766 12.0992C98.3163 11.6043 97.8216 11.1425 97.2962 10.7175C97.2488 10.6619 97.195 10.6122 97.1358 10.5695C96.63 10.1635 96.1029 9.78464 95.5568 9.43455L95.2977 9.27418C94.7426 8.94109 94.1751 8.63269 93.583 8.34895L93.2622 8.20091C92.6557 7.91927 92.0338 7.67215 91.3994 7.46073L91.091 7.36204C90.4248 7.15232 89.734 6.95494 89.0432 6.78223H88.8458C88.1056 6.62186 87.3655 6.48616 86.6129 6.37513H86.5142C85.7617 6.27644 84.9598 6.21476 84.158 6.15308H84.2073C83.4301 6.15308 82.653 6.15308 81.8634 6.15308C81.79 6.16574 81.7149 6.16574 81.6414 6.15308H81.481C80.5681 6.15308 79.6429 6.25177 78.693 6.33812H78.5079H78.3476C77.6074 6.42448 76.8549 6.52317 76.1023 6.65887H75.9173L75.6089 6.72055C75.0538 6.80691 74.4986 6.91793 73.9435 7.02896C73.8467 7.06088 73.7478 7.08561 73.6474 7.10298H73.5117C72.8949 7.23868 72.2781 7.39905 71.6366 7.55942H71.5502L71.2048 7.65811L69.8355 8.05288C69.755 8.08317 69.6726 8.10791 69.5887 8.12689L69.1817 8.2626L68.0961 8.62035L67.8123 8.71904L67.4546 8.85474C67.1092 8.96577 66.7761 9.1138 66.443 9.22483L66.0112 9.39754L65.7275 9.5209L65.1723 9.74295L64.7406 9.91566L64.2471 10.1254L64.0374 10.2241L63.0505 10.6682L62.5324 10.9149L62.372 10.9889L61.3234 11.5071C61.1457 11.5875 60.9726 11.6781 60.8053 11.7785H60.7066L60.4845 11.9142L59.3866 12.5186L59.0905 12.679C58.5354 12.9751 57.9802 13.3205 57.4374 13.6536H57.3634L57.0057 13.8633L55.7721 14.6898C55.7058 14.7237 55.6437 14.7651 55.587 14.8132C55.2046 15.0476 54.8468 15.3067 54.4891 15.5534L53.6749 16.1332C53.1444 16.5156 52.6139 16.935 52.1205 17.3668C51.9963 17.4461 51.8768 17.5326 51.7627 17.6259H51.6887C50.9239 18.2427 50.1837 18.8595 49.4682 19.501C49.4682 19.501 49.4682 19.501 49.4065 19.501C49.3448 19.501 49.3078 19.612 49.2461 19.6614C48.5923 20.2535 48.0125 20.895 47.3587 21.4625C47.223 21.5858 47.0996 21.7092 46.9762 21.8449L46.7048 22.104C46.4828 22.3384 46.2854 22.5728 46.0757 22.8195C45.6316 23.3006 45.1875 23.7694 44.7804 24.2628L43.9908 25.2374C43.6207 25.7185 43.2383 26.1873 42.8929 26.6561L42.1651 27.6923C41.8567 28.1488 41.5482 28.6299 41.2645 29.0987C40.9808 29.5675 40.8327 29.8019 40.6353 30.1349C40.438 30.468 40.1172 31.0848 39.8705 31.5536C39.7595 31.7633 39.6361 31.9731 39.5374 32.1704C39.4387 32.3678 39.34 32.6022 39.2537 32.8119L39.0193 33.293C38.7479 33.9469 38.4888 34.5267 38.2544 35.2175C38.2544 35.2175 38.2544 35.2175 38.2544 35.3162C38.1557 35.6123 38.0817 35.9083 37.9954 36.2168C37.909 36.5252 37.724 37.0186 37.6253 37.4504C37.6209 37.5038 37.6209 37.5574 37.6253 37.6108C37.6253 37.8082 37.5513 37.9932 37.5019 38.1782C37.4156 38.5607 37.3292 38.9308 37.2675 39.3132C37.2675 39.4489 37.2675 39.5846 37.2675 39.7326C37.2675 39.8807 37.2058 40.1274 37.1935 40.3124C37.1567 40.5247 37.132 40.7389 37.1195 40.9539C37.1195 41.287 37.1195 41.6201 37.0578 41.9408V42.4219C37.033 42.8822 37.033 43.3434 37.0578 43.8036C37.0638 43.9146 37.0638 44.0258 37.0578 44.1367C37.0578 44.2847 37.0578 44.4081 37.0578 44.5438C37.0578 44.6795 37.0578 44.9139 37.1195 45.0866C37.1195 45.506 37.2552 45.9131 37.3539 46.3202C37.3539 46.3202 37.3539 46.3943 37.3539 46.4189C37.4402 46.7643 37.5266 47.1098 37.6376 47.4428C37.7486 47.7759 37.8103 47.9116 37.8967 48.1213C37.912 48.1982 37.9368 48.2728 37.9707 48.3434C39.5127 47.8253 41.0548 47.2331 42.5845 46.5546C42.6305 46.3338 42.6881 46.1155 42.7572 45.9008C42.8312 45.6541 42.9052 45.3827 42.9916 45.1359L43.1273 44.6795C43.1636 44.5234 43.2131 44.3707 43.2753 44.2231C43.2753 44.0627 43.3863 43.9023 43.448 43.7296C43.5097 43.5569 43.6454 43.1868 43.7688 42.9031C43.8921 42.6193 43.8798 42.644 43.9292 42.5206C43.9785 42.3973 44.0155 42.3233 44.0525 42.2122C44.0895 42.1012 44.1759 41.9532 44.2376 41.8175V41.7311C44.5336 41.0649 44.8667 40.4111 45.2368 39.7573C45.3602 39.5229 45.4959 39.2885 45.6316 39.0541C45.8202 38.6924 46.0303 38.3422 46.2607 38.0055C46.5444 37.5368 46.8652 37.0803 47.1736 36.5992L47.8891 35.5629C48.0618 35.3285 48.2345 35.1065 48.4319 34.8721L48.9747 34.1566C49.1844 33.8729 49.4188 33.6015 49.6532 33.3301L49.7766 33.1697L50.4057 32.4418C50.6278 32.2198 50.8499 31.9731 51.0719 31.7387C51.294 31.5043 51.3803 31.4056 51.516 31.2329L51.9848 30.7518C52.0958 30.6161 52.2315 30.505 52.3549 30.3693C52.9347 29.7772 53.5885 29.1357 54.2053 28.6176C54.266 28.5427 54.3366 28.4763 54.4151 28.4202L55.2169 27.7047L56.3395 26.7671L56.759 26.4217C56.8626 26.4054 56.9655 26.3849 57.0674 26.36C57.8199 25.7555 58.6094 25.1264 59.4236 24.5959C61.013 23.4742 62.6601 22.4365 64.3581 21.4872C64.7652 21.2528 65.16 21.0307 65.5918 20.821C66.0236 20.6113 66.443 20.3769 66.8254 20.1795C67.7877 19.6943 68.7622 19.2502 69.7491 18.8472C70.0945 18.6991 70.44 18.5511 70.7977 18.4277C71.1555 18.3044 71.2048 18.255 71.4022 18.181C71.5996 18.107 72.1301 17.8973 72.5001 17.7739L73.08 17.5765L74.1532 17.2188C75.5349 16.7747 76.9289 16.3922 78.2982 16.0715H78.4956C78.5777 16.0655 78.6602 16.0655 78.7423 16.0715C78.8069 16.0536 78.8751 16.0536 78.9397 16.0715L79.7539 15.8865C80.6421 15.7261 81.5057 15.578 82.3692 15.4547L83.3315 15.3437H83.6645L84.9598 15.245C85.0666 15.2382 85.1738 15.2382 85.2806 15.245H86.5142H88.081H89.2405H89.5243L90.7579 15.3313H90.8319C91.2144 15.3313 91.5721 15.4053 91.9422 15.4547H92.0162C92.411 15.4547 92.7811 15.5657 93.1512 15.6397C93.5213 15.7137 93.8914 15.7631 94.2614 15.8618C94.2751 15.856 94.2898 15.853 94.3046 15.853C94.3195 15.853 94.3341 15.856 94.3478 15.8618H94.4588L94.7549 15.9481L95.0386 16.0222C95.5321 16.1455 96.0256 16.2936 96.5067 16.4539L96.8151 16.5526C97.1358 16.6513 97.4566 16.7747 97.765 16.898L98.6902 17.2928C98.7266 17.2834 98.7648 17.2834 98.8012 17.2928C98.9122 17.5519 99.0603 17.7863 99.1466 18.0453C99.1901 18.1217 99.2193 18.2053 99.233 18.292C99.4421 18.7961 99.6112 19.3158 99.7388 19.8464C99.7388 19.8464 99.7388 19.8464 99.7388 19.9451C99.8488 20.4039 99.9271 20.8696 99.9732 21.3391C99.9852 21.4251 99.9852 21.5122 99.9732 21.5982C99.9732 21.7339 99.9732 21.8449 99.9732 21.9559C100.031 22.5256 100.051 23.0984 100.035 23.6707V23.8927C100.035 24.3862 99.9609 24.8797 99.9115 25.3731L99.8375 25.9159C99.7758 26.3847 99.6771 26.8535 99.5784 27.3346C99.5784 27.495 99.5784 27.68 99.4674 27.8527C99.3564 28.2598 99.233 28.6793 99.0973 29.0863C99.0321 29.3626 98.9497 29.6346 98.8506 29.9006C98.6409 30.5174 98.3941 31.1342 98.1351 31.7387L97.9377 32.1951L97.3579 33.3424C97.1358 33.7742 96.9014 34.2059 96.6671 34.576C96.4327 34.9461 96.2846 35.2052 96.0996 35.5383L95.2484 36.7719C95.0387 37.0926 94.8166 37.4011 94.5946 37.7218C94.3725 38.0425 93.9407 38.5853 93.6076 38.9554L92.8798 39.856C92.4974 40.3001 92.0903 40.7319 91.6461 41.1636C91.202 41.5954 91.1034 41.7805 90.8073 42.0765L90.4742 42.4219C89.919 42.9647 89.3393 43.5199 88.7348 44.075L88.5867 44.2107C87.9082 44.8275 87.1804 45.4444 86.4402 46.0242C86.3275 46.0985 86.2202 46.181 86.1194 46.2709C85.4163 46.8137 84.7008 47.3565 83.9606 47.8746C83.2204 48.3927 82.1348 49.1082 81.2096 49.6757L81.0122 49.7867C80.1733 50.3049 79.2975 50.786 78.4339 51.2548L78.2365 51.3658C77.3483 51.8222 76.4848 52.2417 75.5965 52.5994L75.2388 52.7721C74.3876 53.1422 73.5487 53.4877 72.6852 53.8207L72.2287 53.9811C71.3899 54.2895 70.5387 54.5732 69.6875 54.8323L69.2063 54.9803C68.4415 55.1901 67.6766 55.4121 66.8994 55.5848L66.5047 55.6835C65.6411 55.8809 64.8022 56.0289 63.9634 56.177L63.0999 56.2757L61.4221 56.4977L59.9047 56.5841H58.5847H57.4868C56.9933 56.5841 56.5122 56.5841 56.0311 56.5841L54.9579 56.4854C54.4973 56.436 54.0408 56.3744 53.5885 56.3003C53.2554 56.3003 52.91 56.1893 52.5769 56.1153C52.2438 56.0413 51.7134 55.9302 51.3433 55.8192L51.1089 55.9426H51.0102C50.8428 56.0429 50.6699 56.1335 50.4921 56.214L49.4435 56.7321L49.2831 56.8061L48.765 57.0529C48.4442 57.2132 48.1112 57.3613 47.7904 57.497L47.5684 57.5957L47.0749 57.8054L46.6431 57.9781C46.6921 58.0671 46.7456 58.1536 46.8035 58.2371C46.8978 58.3977 47.0051 58.5504 47.1243 58.6936C47.4418 59.1542 47.7922 59.5912 48.1729 60.0012L48.9377 60.7784C49.1968 60.9882 49.4558 61.1979 49.7026 61.4199C49.9493 61.642 50.0973 61.6913 50.27 61.827C50.6524 62.0984 51.0349 62.3822 51.5037 62.6289C51.9724 62.8756 51.9971 62.9003 52.2562 63.0237C52.6311 63.243 53.0183 63.4407 53.4158 63.6158L54.2793 63.9612L54.8715 64.1956L55.513 64.4053L56.4752 64.6767C56.8946 64.7877 57.3141 64.8988 57.7088 64.9851C58.1036 65.0715 58.3874 65.1085 58.7328 65.1578C59.0782 65.2072 59.6457 65.3059 60.1144 65.3552L61.1753 65.4416C61.6565 65.4416 62.1499 65.4416 62.6311 65.5156H64.4692H65.16L66.665 65.4169H67.1215L68.3551 65.2442H68.7869C69.0089 65.2442 69.2557 65.2442 69.4901 65.1332L70.5263 64.9605C70.8717 64.9605 71.2172 64.8124 71.5626 64.7384C71.908 64.6644 72.3891 64.5534 72.7962 64.4423L73.4747 64.2696C73.7954 64.1833 74.1162 64.0969 74.4493 63.9859C76.9517 63.2833 79.3906 62.3713 81.7401 61.2596C82.2705 61.0005 82.801 60.7414 83.3191 60.47L84.8982 59.6188C85.3423 59.3721 85.7864 59.1007 86.2305 58.8293L87.4641 58.0644C88.0193 57.7067 88.5867 57.3243 89.1419 56.9295C89.3886 56.7568 89.6477 56.5841 89.8821 56.399C90.3755 56.0413 90.8443 55.6959 91.3131 55.3134C91.4611 55.2147 91.5844 55.1161 91.7078 55.0174C91.8312 54.9187 91.9052 54.857 92.0162 54.7583C92.4357 54.4252 92.8551 54.0798 93.2499 53.7344C93.6446 53.389 93.7187 53.3273 93.9284 53.1176C94.1381 52.9078 94.5329 52.5748 94.8166 52.3034C95.1003 52.032 95.6185 51.5262 96.0502 51.0697L96.2969 50.823L96.482 50.6009C96.6177 50.4652 96.7411 50.3049 96.8644 50.1568C96.9878 50.0088 97.2715 49.7251 97.4689 49.5153C97.6663 49.3056 97.8637 49.0589 98.0611 48.8368C98.4928 48.3311 98.9123 47.8253 99.2947 47.2948C99.4658 47.0892 99.6264 46.8751 99.7758 46.6533L100.43 45.7158L100.837 45.1359C101.009 44.8892 101.157 44.6425 101.305 44.3958L101.848 43.4705C102.095 43.0388 102.317 42.607 102.539 42.2369L102.7 41.9532C102.798 41.7868 102.885 41.6137 102.959 41.435C103.116 41.1307 103.256 40.8177 103.378 40.4975C103.464 40.3124 103.526 40.1397 103.6 39.9547C103.635 39.9021 103.66 39.8436 103.674 39.782C103.748 39.5722 103.834 39.3749 103.908 39.1651C103.951 39.0853 103.988 39.0029 104.02 38.9184L104.118 38.5483L104.279 38.0302C104.365 37.7588 104.439 37.5121 104.513 37.253C104.592 36.9991 104.65 36.7392 104.686 36.4758H104.698Z" fill="#187259"/>
<path opacity="0.2" d="M105.932 23.387L105.808 23.2019C105.907 23.3623 106.018 23.535 106.104 23.6954L105.932 23.387ZM104.698 36.4758C104.692 36.3896 104.692 36.303 104.698 36.2168C104.698 35.933 104.821 35.6493 104.871 35.3656C104.878 35.3041 104.878 35.242 104.871 35.1805C104.871 35.0571 104.871 34.9338 104.871 34.8104C104.877 34.7819 104.877 34.7525 104.871 34.7241C104.883 34.5722 104.883 34.4195 104.871 34.2676C104.883 34.2359 104.883 34.2007 104.871 34.1689V33.9222C104.877 33.8442 104.877 33.7658 104.871 33.6878C104.865 33.6304 104.865 33.5725 104.871 33.5151C104.871 33.1697 104.871 32.8119 104.871 32.4542C104.871 32.0964 104.871 31.825 104.871 31.5166C104.875 31.2684 104.854 31.0205 104.809 30.7764C104.805 30.4826 104.776 30.1896 104.723 29.9006C104.702 29.7136 104.669 29.5281 104.624 29.3454C104.624 29.1357 104.55 28.9383 104.501 28.7409C104.451 28.5436 104.353 28.1858 104.266 27.9144C103.969 26.9308 103.555 25.9864 103.033 25.1017L98.5422 17.2558C98.5537 17.2503 98.5664 17.2475 98.5792 17.2475C98.592 17.2475 98.6046 17.2503 98.6162 17.2558L99.4304 17.6506C99.5067 17.6796 99.5776 17.7213 99.6401 17.7739L100.269 18.1317C100.39 18.1852 100.502 18.2558 100.602 18.3414L101.404 18.8842C102.299 19.4974 103.127 20.2046 103.871 20.9937C104.106 21.2651 104.34 21.5365 104.562 21.8202C104.784 22.104 104.92 22.2767 105.08 22.5111C105.241 22.7455 105.376 22.9305 105.512 23.1649L100.726 14.7515C100.174 13.7997 99.52 12.9104 98.7766 12.0992C98.3163 11.6043 97.8216 11.1425 97.2962 10.7175C97.2488 10.6619 97.195 10.6122 97.1358 10.5695C96.63 10.1635 96.1029 9.78464 95.5568 9.43455L95.2977 9.27418C94.7426 8.94109 94.1751 8.63269 93.583 8.34895L93.2622 8.20091C92.6557 7.91927 92.0338 7.67215 91.3994 7.46073L91.091 7.36204C90.4248 7.15232 89.734 6.95494 89.0432 6.78223H88.8458C88.1056 6.62186 87.3655 6.48616 86.6129 6.37513H86.5142C85.7617 6.27644 84.9598 6.21476 84.158 6.15308H84.2073C83.4301 6.15308 82.653 6.15308 81.8634 6.15308C81.79 6.16574 81.7149 6.16574 81.6414 6.15308H81.481C80.5681 6.15308 79.6429 6.25177 78.693 6.33812H78.5079H78.3476C77.6074 6.42448 76.8549 6.52317 76.1023 6.65887H75.9173L75.6089 6.72055C75.0538 6.80691 74.4986 6.91793 73.9435 7.02896C73.8467 7.06088 73.7478 7.08561 73.6474 7.10298H73.5117C72.8949 7.23868 72.2781 7.39905 71.6366 7.55942H71.5502L71.2048 7.65811L69.8355 8.05288C69.755 8.08317 69.6726 8.10791 69.5887 8.12689L69.1817 8.2626L68.0961 8.62035L67.8123 8.71904L67.4546 8.85474C67.1092 8.96577 66.7761 9.1138 66.443 9.22483L66.0112 9.39754L65.7275 9.5209L65.1723 9.74295L64.7406 9.91566L64.2471 10.1254L64.0374 10.2241L63.0505 10.6682L62.5324 10.9149L62.372 10.9889L61.3234 11.5071C61.1457 11.5875 60.9726 11.6781 60.8053 11.7785H60.7066L60.4845 11.9142L59.3866 12.5186L59.0905 12.679C58.5354 12.9751 57.9802 13.3205 57.4374 13.6536H57.3634L57.0057 13.8633L55.7721 14.6898C55.7058 14.7237 55.6437 14.7651 55.587 14.8132C55.2046 15.0476 54.8468 15.3067 54.4891 15.5534L53.6749 16.1332C53.1444 16.5156 52.6139 16.935 52.1205 17.3668C51.9963 17.4461 51.8768 17.5326 51.7627 17.6259H51.6887C50.9239 18.2427 50.1837 18.8595 49.4682 19.501C49.4682 19.501 49.4682 19.501 49.4065 19.501C49.3448 19.501 49.3078 19.612 49.2461 19.6614C48.5923 20.2535 48.0125 20.895 47.3587 21.4625C47.223 21.5858 47.0996 21.7092 46.9762 21.8449L46.7048 22.104C46.4828 22.3384 46.2854 22.5728 46.0757 22.8195C45.6316 23.3006 45.1875 23.7694 44.7804 24.2628L43.9908 25.2374C43.6207 25.7185 43.2383 26.1873 42.8929 26.6561L42.1651 27.6923C41.8567 28.1488 41.5482 28.6299 41.2645 29.0987C40.9808 29.5675 40.8327 29.8019 40.6353 30.1349C40.438 30.468 40.1172 31.0848 39.8705 31.5536C39.7595 31.7633 39.6361 31.9731 39.5374 32.1704C39.4387 32.3678 39.34 32.6022 39.2537 32.8119L39.0193 33.293C38.7479 33.9469 38.4888 34.5267 38.2544 35.2175C38.2544 35.2175 38.2544 35.2175 38.2544 35.3162C38.1557 35.6123 38.0817 35.9083 37.9954 36.2168C37.909 36.5252 37.724 37.0186 37.6253 37.4504C37.6209 37.5038 37.6209 37.5574 37.6253 37.6108C37.6253 37.8082 37.5513 37.9932 37.5019 38.1782C37.4156 38.5607 37.3292 38.9308 37.2675 39.3132C37.2675 39.4489 37.2675 39.5846 37.2675 39.7326C37.2675 39.8807 37.2058 40.1274 37.1935 40.3124C37.1567 40.5247 37.132 40.7389 37.1195 40.9539C37.1195 41.287 37.1195 41.6201 37.0578 41.9408V42.4219C37.033 42.8822 37.033 43.3434 37.0578 43.8036C37.0638 43.9146 37.0638 44.0258 37.0578 44.1367C37.0578 44.2847 37.0578 44.4081 37.0578 44.5438C37.0578 44.6795 37.0578 44.9139 37.1195 45.0866C37.1195 45.506 37.2552 45.9131 37.3539 46.3202C37.3539 46.3202 37.3539 46.3943 37.3539 46.4189C37.4402 46.7643 37.5266 47.1098 37.6376 47.4428C37.7486 47.7759 37.8103 47.9116 37.8967 48.1213C37.912 48.1982 37.9368 48.2728 37.9707 48.3434C39.5127 47.8253 41.0548 47.2331 42.5845 46.5546C42.6305 46.3338 42.6881 46.1155 42.7572 45.9008C42.8312 45.6541 42.9052 45.3827 42.9916 45.1359L43.1273 44.6795C43.1636 44.5234 43.2131 44.3707 43.2753 44.2231C43.2753 44.0627 43.3863 43.9023 43.448 43.7296C43.5097 43.5569 43.6454 43.1868 43.7688 42.9031C43.8921 42.6193 43.8798 42.644 43.9292 42.5206C43.9785 42.3973 44.0155 42.3233 44.0525 42.2122C44.0895 42.1012 44.1759 41.9532 44.2376 41.8175V41.7311C44.5336 41.0649 44.8667 40.4111 45.2368 39.7573C45.3602 39.5229 45.4959 39.2885 45.6316 39.0541C45.8202 38.6924 46.0303 38.3422 46.2607 38.0055C46.5444 37.5368 46.8652 37.0803 47.1736 36.5992L47.8891 35.5629C48.0618 35.3285 48.2345 35.1065 48.4319 34.8721L48.9747 34.1566C49.1844 33.8729 49.4188 33.6015 49.6532 33.3301L49.7766 33.1697L50.4057 32.4418C50.6278 32.2198 50.8499 31.9731 51.0719 31.7387C51.294 31.5043 51.3803 31.4056 51.516 31.2329L51.9848 30.7518C52.0958 30.6161 52.2315 30.505 52.3549 30.3693C52.9347 29.7772 53.5885 29.1357 54.2053 28.6176C54.266 28.5427 54.3366 28.4763 54.4151 28.4202L55.2169 27.7047L56.3395 26.7671L56.759 26.4217C56.8626 26.4054 56.9655 26.3849 57.0674 26.36C57.8199 25.7555 58.6094 25.1264 59.4236 24.5959C61.013 23.4742 62.6601 22.4365 64.3581 21.4872C64.7652 21.2528 65.16 21.0307 65.5918 20.821C66.0236 20.6113 66.443 20.3769 66.8254 20.1795C67.7877 19.6943 68.7622 19.2502 69.7491 18.8472C70.0945 18.6991 70.44 18.5511 70.7977 18.4277C71.1555 18.3044 71.2048 18.255 71.4022 18.181C71.5996 18.107 72.1301 17.8973 72.5001 17.7739L73.08 17.5765L74.1532 17.2188C75.5349 16.7747 76.9289 16.3922 78.2982 16.0715H78.4956C78.5777 16.0655 78.6602 16.0655 78.7423 16.0715C78.8069 16.0536 78.8751 16.0536 78.9397 16.0715L79.7539 15.8865C80.6421 15.7261 81.5057 15.578 82.3692 15.4547L83.3315 15.3437H83.6645L84.9598 15.245C85.0666 15.2382 85.1738 15.2382 85.2806 15.245H86.5142H88.081H89.2405H89.5243L90.7579 15.3313H90.8319C91.2144 15.3313 91.5721 15.4053 91.9422 15.4547H92.0162C92.411 15.4547 92.7811 15.5657 93.1512 15.6397C93.5213 15.7137 93.8914 15.7631 94.2614 15.8618C94.2751 15.856 94.2898 15.853 94.3046 15.853C94.3195 15.853 94.3341 15.856 94.3478 15.8618H94.4588L94.7549 15.9481L95.0386 16.0222C95.5321 16.1455 96.0256 16.2936 96.5067 16.4539L96.8151 16.5526C97.1358 16.6513 97.4566 16.7747 97.765 16.898L98.6902 17.2928C98.7266 17.2834 98.7648 17.2834 98.8012 17.2928C98.9122 17.5519 99.0603 17.7863 99.1466 18.0453C99.1901 18.1217 99.2193 18.2053 99.233 18.292C99.4421 18.7961 99.6112 19.3158 99.7388 19.8464C99.7388 19.8464 99.7388 19.8464 99.7388 19.9451C99.8488 20.4039 99.9271 20.8696 99.9732 21.3391C99.9852 21.4251 99.9852 21.5122 99.9732 21.5982C99.9732 21.7339 99.9732 21.8449 99.9732 21.9559C100.031 22.5256 100.051 23.0984 100.035 23.6707V23.8927C100.035 24.3862 99.9609 24.8797 99.9115 25.3731L99.8375 25.9159C99.7758 26.3847 99.6771 26.8535 99.5784 27.3346C99.5784 27.495 99.5784 27.68 99.4674 27.8527C99.3564 28.2598 99.233 28.6793 99.0973 29.0863C99.0321 29.3626 98.9497 29.6346 98.8506 29.9006C98.6409 30.5174 98.3941 31.1342 98.1351 31.7387L97.9377 32.1951L97.3579 33.3424C97.1358 33.7742 96.9014 34.2059 96.6671 34.576C96.4327 34.9461 96.2846 35.2052 96.0996 35.5383L95.2484 36.7719C95.0387 37.0926 94.8166 37.4011 94.5946 37.7218C94.3725 38.0425 93.9407 38.5853 93.6076 38.9554L92.8798 39.856C92.4974 40.3001 92.0903 40.7319 91.6461 41.1636C91.202 41.5954 91.1034 41.7805 90.8073 42.0765L90.4742 42.4219C89.919 42.9647 89.3393 43.5199 88.7348 44.075L88.5867 44.2107C87.9082 44.8275 87.1804 45.4444 86.4402 46.0242C86.3275 46.0985 86.2202 46.181 86.1194 46.2709C85.4163 46.8137 84.7008 47.3565 83.9606 47.8746C83.2204 48.3927 82.1348 49.1082 81.2096 49.6757L81.0122 49.7867C80.1733 50.3049 79.2975 50.786 78.4339 51.2548L78.2365 51.3658C77.3483 51.8222 76.4848 52.2417 75.5965 52.5994L75.2388 52.7721C74.3876 53.1422 73.5487 53.4877 72.6852 53.8207L72.2287 53.9811C71.3899 54.2895 70.5387 54.5732 69.6875 54.8323L69.2063 54.9803C68.4415 55.1901 67.6766 55.4121 66.8994 55.5848L66.5047 55.6835C65.6411 55.8809 64.8022 56.0289 63.9634 56.177L63.0999 56.2757L61.4221 56.4977L59.9047 56.5841H58.5847H57.4868C56.9933 56.5841 56.5122 56.5841 56.0311 56.5841L54.9579 56.4854C54.4973 56.436 54.0408 56.3744 53.5885 56.3003C53.2554 56.3003 52.91 56.1893 52.5769 56.1153C52.2438 56.0413 51.7134 55.9302 51.3433 55.8192L51.1089 55.9426H51.0102C50.8428 56.0429 50.6699 56.1335 50.4921 56.214L49.4435 56.7321L49.2831 56.8061L48.765 57.0529C48.4442 57.2132 48.1112 57.3613 47.7904 57.497L47.5684 57.5957L47.0749 57.8054L46.6431 57.9781C46.6921 58.0671 46.7456 58.1536 46.8035 58.2371C46.8978 58.3977 47.0051 58.5504 47.1243 58.6936C47.4418 59.1542 47.7922 59.5912 48.1729 60.0012L48.9377 60.7784C49.1968 60.9882 49.4558 61.1979 49.7026 61.4199C49.9493 61.642 50.0973 61.6913 50.27 61.827C50.6524 62.0984 51.0349 62.3822 51.5037 62.6289C51.9724 62.8756 51.9971 62.9003 52.2562 63.0237C52.6311 63.243 53.0183 63.4407 53.4158 63.6158L54.2793 63.9612L54.8715 64.1956L55.513 64.4053L56.4752 64.6767C56.8946 64.7877 57.3141 64.8988 57.7088 64.9851C58.1036 65.0715 58.3874 65.1085 58.7328 65.1578C59.0782 65.2072 59.6457 65.3059 60.1144 65.3552L61.1753 65.4416C61.6565 65.4416 62.1499 65.4416 62.6311 65.5156H64.4692H65.16L66.665 65.4169H67.1215L68.3551 65.2442H68.7869C69.0089 65.2442 69.2557 65.2442 69.4901 65.1332L70.5263 64.9605C70.8717 64.9605 71.2172 64.8124 71.5626 64.7384C71.908 64.6644 72.3891 64.5534 72.7962 64.4423L73.4747 64.2696C73.7954 64.1833 74.1162 64.0969 74.4493 63.9859C76.9517 63.2833 79.3906 62.3713 81.7401 61.2596C82.2705 61.0005 82.801 60.7414 83.3191 60.47L84.8982 59.6188C85.3423 59.3721 85.7864 59.1007 86.2305 58.8293L87.4641 58.0644C88.0193 57.7067 88.5867 57.3243 89.1419 56.9295C89.3886 56.7568 89.6477 56.5841 89.8821 56.399C90.3755 56.0413 90.8443 55.6959 91.3131 55.3134C91.4611 55.2147 91.5844 55.1161 91.7078 55.0174C91.8312 54.9187 91.9052 54.857 92.0162 54.7583C92.4357 54.4252 92.8551 54.0798 93.2499 53.7344C93.6446 53.389 93.7187 53.3273 93.9284 53.1176C94.1381 52.9078 94.5329 52.5748 94.8166 52.3034C95.1003 52.032 95.6185 51.5262 96.0502 51.0697L96.2969 50.823L96.482 50.6009C96.6177 50.4652 96.7411 50.3049 96.8644 50.1568C96.9878 50.0088 97.2715 49.7251 97.4689 49.5153C97.6663 49.3056 97.8637 49.0589 98.0611 48.8368C98.4928 48.3311 98.9123 47.8253 99.2947 47.2948C99.4658 47.0892 99.6264 46.8751 99.7758 46.6533L100.43 45.7158L100.837 45.1359C101.009 44.8892 101.157 44.6425 101.305 44.3958L101.848 43.4705C102.095 43.0388 102.317 42.607 102.539 42.2369L102.7 41.9532C102.798 41.7868 102.885 41.6137 102.959 41.435C103.116 41.1307 103.256 40.8177 103.378 40.4975C103.464 40.3124 103.526 40.1397 103.6 39.9547C103.635 39.9021 103.66 39.8436 103.674 39.782C103.748 39.5722 103.834 39.3749 103.908 39.1651C103.951 39.0853 103.988 39.0029 104.02 38.9184L104.118 38.5483L104.279 38.0302C104.365 37.7588 104.439 37.5121 104.513 37.253C104.592 36.9991 104.65 36.7392 104.686 36.4758H104.698Z" fill="black"/>
<path d="M99.9131 55.6219L99.1359 54.8324C100.728 53.2912 102.211 51.6425 103.577 49.8978L104.44 50.5763C103.05 52.3606 101.537 54.0465 99.9131 55.6219Z" fill="#187259"/>
<path d="M107.203 46.6046L106.266 46.0248C109.262 41.4638 110.854 36.1233 110.842 30.666H111.94C111.959 36.3286 110.312 41.8716 107.203 46.6046Z" fill="#187259"/>
<path d="M106.104 23.6955L105.932 23.3871L105.808 23.2021C105.673 22.9677 105.524 22.758 105.376 22.5482C105.228 22.3385 105.043 22.0795 104.858 21.8574C104.673 21.6353 104.402 21.3023 104.167 21.0309C103.423 20.2418 102.595 19.5346 101.7 18.9214L100.898 18.3786C100.798 18.293 100.686 18.2223 100.565 18.1688L99.9361 17.8111C99.8736 17.7585 99.8027 17.7168 99.7264 17.6877C99.4056 17.5027 99.0725 17.3546 98.7271 17.1943C98.6907 17.1849 98.6525 17.1849 98.6161 17.1943L97.6909 16.7995L96.741 16.4541L96.4326 16.3554C95.9515 16.195 95.458 16.047 94.9645 15.9236L94.6808 15.8496C94.5486 15.8037 94.4123 15.7707 94.2737 15.7509C94.26 15.7451 94.2454 15.7422 94.2305 15.7422C94.2157 15.7422 94.201 15.7451 94.1873 15.7509C93.8173 15.6522 93.4472 15.5905 93.0771 15.5289C92.707 15.4672 92.3369 15.3932 91.9421 15.3438H91.8681C91.498 15.3438 91.1403 15.2451 90.7578 15.2204H90.6838L89.4502 15.1341H89.1664H88.0068H86.4401H85.2065C85.0997 15.1273 84.9925 15.1273 84.8857 15.1341L83.5904 15.2328H83.2574L82.2951 15.3438C81.4316 15.4672 80.568 15.6152 79.6798 15.7756L78.8656 15.9606C78.801 15.9428 78.7328 15.9428 78.6682 15.9606L78.2241 16.047C76.8548 16.3677 75.4608 16.7502 74.0791 17.1943L73.0059 17.552L72.4384 17.7617C72.0683 17.8851 71.7105 18.0208 71.3404 18.1688C70.9703 18.3169 70.9457 18.3169 70.7359 18.4156C70.5262 18.5142 70.0328 18.687 69.6874 18.835C68.7005 19.238 67.7259 19.6821 66.7636 20.1673C66.3442 20.3647 65.9248 20.5868 65.53 20.8088C65.1352 21.0309 64.7281 21.2406 64.2964 21.475C62.5983 22.4243 60.9512 23.462 59.3618 24.5837C58.5476 25.1635 57.7581 25.7434 57.0056 26.3478C56.7342 26.5452 56.4875 26.7549 56.2284 26.9523L55.1058 27.8899L54.3039 28.6054C54.2255 28.6615 54.1549 28.7279 54.0942 28.8028C53.4404 29.3826 52.8606 29.9501 52.2438 30.5545C52.1204 30.6902 51.9847 30.8013 51.8737 30.937L51.4049 31.4181C51.0101 31.8128 50.64 32.2199 50.2946 32.6517L49.6655 33.3796L49.5421 33.5399C49.3077 33.8113 49.0733 34.0827 48.8636 34.3665L48.3208 35.082C48.1234 35.3164 47.9507 35.5384 47.778 35.7728C47.1893 36.564 46.6456 37.3877 46.1496 38.2401C45.9399 38.5855 45.7178 38.9433 45.5205 39.2887C45.3231 39.6341 45.2491 39.7575 45.1257 39.9918L44.7679 40.695C44.5459 41.1145 44.3238 41.5339 44.1265 41.9286V42.015C44.0723 42.15 44.0104 42.2818 43.9414 42.4098C43.9414 42.5208 43.8551 42.6195 43.818 42.7182C43.781 42.8169 43.6947 42.9772 43.6577 43.1006C43.6207 43.224 43.4356 43.6557 43.3369 43.9271C43.2382 44.1985 43.2136 44.2602 43.1642 44.4206C43.102 44.5683 43.0525 44.721 43.0162 44.877C42.8681 45.2841 42.7571 45.6912 42.6461 46.1107C42.577 46.3254 42.5194 46.5437 42.4734 46.7645C43.4973 46.3081 44.5212 45.8023 45.5451 45.2718C47.4943 38.6472 52.7866 31.7018 60.7435 26.0641C62.5177 24.8231 64.3676 23.6942 66.2825 22.6839C67.3188 22.1411 68.3304 21.6354 69.3543 21.1789C70.884 20.5127 72.426 19.9453 73.9681 19.3901C84.0962 16.047 94.0393 16.5528 99.9731 21.2159C100.574 21.6918 101.139 22.2113 101.663 22.7703C102.312 23.4936 102.883 24.2834 103.366 25.1265C103.888 26.0113 104.302 26.9556 104.599 27.9392C104.686 28.2106 104.76 28.482 104.834 28.7658C104.908 29.0495 104.92 29.1605 104.957 29.3702C105.002 29.553 105.035 29.7384 105.056 29.9254C105.109 30.2144 105.138 30.5074 105.142 30.8013C105.187 31.0453 105.208 31.2933 105.204 31.5414C105.204 31.8498 105.204 32.1706 105.204 32.479C105.204 32.7874 105.204 33.1945 105.204 33.5399C105.204 33.6756 105.204 33.8113 105.204 33.947V34.1938C105.216 34.2255 105.216 34.2607 105.204 34.2924C105.216 34.4444 105.216 34.597 105.204 34.7489C105.21 34.7774 105.21 34.8068 105.204 34.8352C105.183 35.0222 105.15 35.2077 105.105 35.3904C105.055 35.7648 104.981 36.1357 104.883 36.5007C104.84 36.7477 104.778 36.991 104.698 37.2285C104.59 37.647 104.459 38.0589 104.303 38.4621C104.303 38.4621 104.18 38.8692 104.093 39.0789C104.007 39.2887 103.933 39.486 103.859 39.6958C103.845 39.7574 103.82 39.8159 103.785 39.8685C103.711 40.0535 103.649 40.2262 103.563 40.4113C103.441 40.7315 103.301 41.0445 103.144 41.3488C103.07 41.5275 102.983 41.7006 102.884 41.867C102.627 42.4073 102.343 42.9343 102.033 43.446C101.873 43.7544 101.688 44.0628 101.49 44.3712C101.293 44.6797 101.194 44.8647 101.022 45.1114C100.689 45.6172 100.343 46.123 99.9607 46.6288C99.8113 46.8506 99.6508 47.0647 99.4796 47.2703C99.0972 47.8007 98.6778 48.3065 98.246 48.8123C98.0486 49.0344 97.8636 49.2688 97.6539 49.4908C97.4441 49.7129 97.0247 50.2063 96.667 50.5764L96.4819 50.7985L96.2352 51.0452C95.8404 51.44 95.458 51.8347 95.0015 52.2788C94.5451 52.723 94.4341 52.8216 94.1133 53.093C93.7926 53.3644 93.6816 53.5001 93.4348 53.7099C93.1881 53.9196 92.6206 54.4007 92.2012 54.7338C92.0902 54.8325 91.9792 54.9065 91.8928 54.9928C91.8064 55.0792 91.6461 55.1902 91.498 55.2889C91.0292 55.6713 90.5605 56.0168 90.067 56.3745C89.8326 56.5596 89.5735 56.7323 89.3268 56.905C88.7717 57.2997 88.2042 57.6822 87.6491 58.0399L86.4155 58.8048C85.9714 59.0762 85.5272 59.3476 85.0831 59.5943L83.5041 60.4455C82.9859 60.7292 82.4555 60.9883 81.925 61.235C79.57 62.3733 77.1227 63.3102 74.6096 64.0354C74.2765 64.1464 73.9557 64.2328 73.635 64.3191L72.9565 64.4918C72.5371 64.6029 72.13 64.7015 71.7229 64.7879C71.3158 64.8743 71.032 64.9483 70.6866 65.01L69.6504 65.1827C69.416 65.1827 69.1692 65.269 68.9472 65.2937C68.4047 65.4003 67.857 65.4785 67.3064 65.5281C66.4264 65.6384 65.541 65.7002 64.6541 65.7131H64.0003C62.797 65.7374 61.5935 65.6797 60.3981 65.5404C59.5892 65.4682 58.7857 65.3446 57.9925 65.1703C57.5607 65.084 57.129 64.9853 56.7589 64.8619C56.4331 64.7903 56.1118 64.6996 55.7966 64.5905L55.1552 64.3808L54.563 64.1464C52.6052 63.4471 50.8062 62.3652 49.2707 60.9636L48.5058 60.1864C48.1252 59.7764 47.7748 59.3394 47.4572 58.8788C47.3381 58.7356 47.2309 58.5829 47.1365 58.4223C47.0786 58.3388 47.0251 58.2523 46.9761 58.1633C46.7788 58.2496 46.606 58.3237 46.421 58.3853L46.1373 58.5087L45.7055 58.6814L44.6939 59.0638L44.3362 59.1872L44.0524 59.2859C44.5919 60.2429 45.2419 61.1331 45.9892 61.9382C54.6247 71.2645 74.6466 69.6484 90.7825 58.336C105.179 48.0968 111.594 33.3055 106.104 23.6955Z" fill="#187259"/>
</svg>
