<svg width="69" height="69" viewBox="0 0 69 69" fill="none" xmlns="http://www.w3.org/2000/svg">
<path d="M61.0278 27.415H44.8076V52.439H61.0278V27.415Z" fill="#EBEBEB"/>
<path d="M61.8143 26.4856H44.0225V27.4138H61.8143V26.4856Z" fill="#DBDBDB"/>
<path d="M67.4104 26.4856H61.8145V27.4138H67.4104V26.4856Z" fill="#EBEBEB"/>
<path d="M66.5245 27.415H61.0283V52.439H66.5245V27.415Z" fill="#DBDBDB"/>
<path d="M59.2808 38.995H46.5547V30.9787H59.2808V38.995ZM46.5937 38.9515H59.2418V31.0222H46.5937V38.9515Z" fill="#C7C7C7"/>
<path d="M53.6191 33.3219H51.1416V34.9088H53.6191V33.3219Z" fill="#C7C7C7"/>
<path d="M54.3726 34.8115H51.8545V33.421H54.3726V34.8115ZM51.8935 34.7681H54.3336V33.4627H51.8935V34.7681Z" fill="#C7C7C7"/>
<path d="M59.2808 49.0694H46.5547V41.0532H59.2808V49.0694ZM46.5937 49.026H59.2418V41.0966H46.5937V49.026Z" fill="#C7C7C7"/>
<path d="M53.6191 43.3963H51.1416V44.9832H53.6191V43.3963Z" fill="#C7C7C7"/>
<path d="M54.3726 44.886H51.8545V43.4955H54.3726V44.886ZM51.8935 44.8425H54.3336V43.5372H51.8935V44.8425Z" fill="#C7C7C7"/>
<path d="M4.23047 0.150204H29.9383V37.607H4.23047V0.150204ZM29.2601 0.906293H4.90871V36.8509H29.2601V0.906293Z" fill="#EBEBEB"/>
<path d="M17.687 1.10247H17.0088V37.2279H17.687V1.10247Z" fill="#EBEBEB"/>
<path d="M3.61466 2.72984L30.5527 2.72984V1.67827L3.61466 1.67827V2.72984Z" fill="#EBEBEB"/>
<path d="M3.61466 3.9135L30.5527 3.9135V2.86193L3.61466 2.86193V3.9135Z" fill="#EBEBEB"/>
<path d="M3.61466 5.09716L30.5527 5.09716V4.04558L3.61466 4.04558V5.09716Z" fill="#EBEBEB"/>
<path d="M3.61466 6.28082L30.5527 6.28082V5.22924L3.61466 5.22924V6.28082Z" fill="#EBEBEB"/>
<path d="M3.61466 7.46447L30.5527 7.46447V6.4129L3.61466 6.4129V7.46447Z" fill="#EBEBEB"/>
<path d="M3.61466 8.64813L30.5527 8.64813V7.59656L3.61466 7.59656V8.64813Z" fill="#EBEBEB"/>
<path d="M3.61466 9.83179L30.5527 9.83179V8.78022L3.61466 8.78022V9.83179Z" fill="#EBEBEB"/>
<path d="M3.61466 11.0154L30.5527 11.0154V9.96388L3.61466 9.96388V11.0154Z" fill="#EBEBEB"/>
<path d="M3.61466 12.2004L30.5527 12.2004V11.1488L3.61466 11.1488V12.2004Z" fill="#EBEBEB"/>
<path d="M5.79886 1.46227H5.62891V25.718H5.79886V1.46227Z" fill="#263238"/>
<path d="M5.41211 26.5998H6.01396L5.86272 25.6351H5.56335L5.41211 26.5998Z" fill="#263238"/>
<path d="M5.18753 1.46227H5.01758V36.5518H5.18753V1.46227Z" fill="#263238"/>
<path d="M4.80273 37.2611H5.40458L5.25334 36.2982H4.95242L4.80273 37.2611Z" fill="#263238"/>
<path d="M2.56405 2.20222L31.6055 2.20222V-1.66893e-06L2.56405 -1.66893e-06V2.20222Z" fill="#DBDBDB"/>
<path d="M55.0386 14.9534C56.7537 16.8167 57.0343 19.7002 56.6742 22.2275C56.6648 22.2848 56.5853 22.2692 56.5853 22.2153C56.5853 21.64 56.6009 21.0699 56.5993 20.5015L56.5728 20.425C56.1128 20.0877 55.7322 19.6323 55.4627 19.0971C55.1774 18.4714 55.0651 17.7657 54.8468 17.1121C54.8265 17.0496 54.8873 17.0687 54.9263 17.1C55.9647 17.9551 56.2969 18.8746 56.5947 20.1017C56.5884 19.4595 56.5278 18.8194 56.4138 18.1898C56.1893 17.0235 55.7449 15.8676 54.9934 15.0038C54.9653 14.9708 55.009 14.9238 55.0386 14.9534Z" fill="#A6A6A6"/>
<path d="M54.7174 15.1713C54.4242 15.1817 54.2403 15.7049 54.0111 15.8666C53.9871 15.8884 53.9592 15.9044 53.9292 15.9135C53.8993 15.9225 53.868 15.9244 53.8374 15.919C53.8067 15.9135 53.7775 15.901 53.7515 15.882C53.7256 15.8631 53.7035 15.8383 53.6867 15.8092C53.4591 15.4616 53.7709 15.0218 54.0641 14.7767C53.8536 14.8741 53.6805 15.0427 53.4544 15.0896C53.4256 15.1001 53.3952 15.1036 53.3651 15.0998C53.335 15.0961 53.306 15.0852 53.28 15.0679C53.254 15.0506 53.2316 15.0273 53.2144 14.9996C53.1971 14.9718 53.1854 14.9403 53.18 14.9071C53.0802 14.4256 53.6228 14.2118 53.9939 14.2014C53.813 14.0606 53.2969 13.68 53.5714 13.494C53.8458 13.308 54.4554 13.8416 54.6534 14.0293C54.9434 14.2918 55.2896 14.6846 55.3036 15.0948C55.3208 15.5659 54.9435 15.2721 54.7174 15.1713Z" fill="#DBDBDB"/>
<path d="M54.8029 15.2504C54.4271 15.0592 53.7115 15.3338 53.6444 15.1757C53.5197 14.8524 54.0966 14.6316 54.4069 14.5882C54.12 14.5013 53.5711 14.3639 53.5883 14.0563C53.6086 13.6791 54.4302 14.0024 54.8465 14.3587C55.372 14.8072 55.3673 15.24 55.2816 15.3251C55.1615 15.4451 54.8653 15.2817 54.8029 15.2504Z" fill="#EBEBEB"/>
<path d="M58.928 14.767C57.1584 16.5573 56.7732 19.4287 57.0461 21.9681C57.0461 22.0255 57.1334 22.0133 57.135 21.9594C57.1552 21.3841 57.1599 20.814 57.1802 20.2474C57.1911 20.2213 57.1989 20.1969 57.2098 20.1709C57.6814 19.8537 58.0772 19.4143 58.3636 18.8899C58.6754 18.278 58.8064 17.5776 59.0465 16.9345C59.0684 16.8719 59.0091 16.8875 58.9686 16.9188C57.9005 17.7288 57.5388 18.6326 57.1989 19.8476C57.2268 19.2031 57.3087 18.563 57.4437 17.9356C57.7087 16.7798 58.1921 15.6448 58.9717 14.807C58.9726 14.8007 58.972 14.7943 58.97 14.7883C58.9679 14.7824 58.9645 14.7771 58.9601 14.7731C58.9557 14.769 58.9504 14.7663 58.9448 14.7653C58.9392 14.7642 58.9334 14.7648 58.928 14.767Z" fill="#A6A6A6"/>
<path d="M59.2418 14.9985C59.5349 15.0228 59.7017 15.553 59.9247 15.7163C59.9482 15.739 59.9756 15.7559 60.0053 15.7661C60.035 15.7762 60.0662 15.7794 60.097 15.7753C60.1279 15.7712 60.1576 15.76 60.1843 15.7423C60.211 15.7247 60.2341 15.7011 60.2521 15.6729C60.4907 15.3253 60.1944 14.8803 59.9091 14.63C60.1165 14.7343 60.2833 14.9116 60.5078 14.9776C60.5365 14.989 60.5669 14.9935 60.5972 14.9907C60.6275 14.988 60.6569 14.978 60.6835 14.9616C60.71 14.9451 60.7331 14.9225 60.7513 14.8953C60.7694 14.8681 60.7821 14.8369 60.7885 14.8038C60.9039 14.3258 60.3706 14.0894 59.9995 14.0634C60.1835 13.9313 60.7137 13.575 60.4455 13.3681C60.1773 13.1613 59.5505 13.6845 59.354 13.8548C59.0547 14.1051 58.6945 14.484 58.668 14.8977C58.6275 15.3687 59.0126 15.0976 59.2418 14.9985Z" fill="#DBDBDB"/>
<path d="M59.1545 15.0753C59.5365 14.9015 60.2459 15.2057 60.3145 15.051C60.4502 14.7329 59.881 14.4878 59.5723 14.4322C59.8608 14.3575 60.4159 14.2427 60.4096 13.9333C60.4018 13.5562 59.5692 13.8447 59.1404 14.1836C58.601 14.6095 58.59 15.0405 58.6727 15.1309C58.7881 15.2543 59.0921 15.0979 59.1545 15.0753Z" fill="#EBEBEB"/>
<path d="M57.1185 19.4969C56.9985 20.4546 56.8145 21.4011 56.5681 22.3283C56.5664 22.3373 56.5632 22.3459 56.5586 22.3535C56.554 22.3611 56.5481 22.3677 56.5412 22.3728C56.5343 22.3778 56.5266 22.3814 56.5185 22.3831C56.5104 22.3849 56.5021 22.3849 56.494 22.383C56.4859 22.3812 56.4782 22.3776 56.4714 22.3725C56.4646 22.3673 56.4587 22.3608 56.4541 22.3531C56.4496 22.3454 56.4464 22.3368 56.4448 22.3278C56.4432 22.3188 56.4433 22.3095 56.4449 22.3005C56.5618 21.4314 56.7739 20.571 56.8893 19.6933C57.0167 18.8109 57.0627 17.9163 57.0265 17.0235C56.9516 15.553 56.593 13.9887 55.7324 12.8381C55.7136 12.812 55.7542 12.7737 55.7729 12.7981C57.4958 15.0385 57.2214 17.7831 57.2198 18.0299C57.4646 17.1017 57.7156 16.0397 58.6387 15.0959C58.6777 15.0542 58.7088 15.075 58.7026 15.1428C58.5373 16.8636 58.1086 17.7605 57.2136 18.6799C57.1886 18.958 57.1575 19.2292 57.1185 19.4969Z" fill="#A6A6A6"/>
<path d="M55.7163 13.1025C55.4044 12.9478 54.9788 13.3875 54.6716 13.4188C54.6367 13.4282 54.6005 13.4292 54.5652 13.4218C54.53 13.4144 54.4965 13.3988 54.4671 13.376C54.4376 13.3532 54.4128 13.3237 54.3943 13.2894C54.3758 13.2551 54.3641 13.2169 54.3598 13.1772C54.2834 12.6836 54.8041 12.4072 55.2173 12.3186C54.9569 12.2994 54.7012 12.3777 54.4377 12.3012C54.4028 12.2958 54.3694 12.2821 54.3397 12.2609C54.31 12.2398 54.2847 12.2118 54.2656 12.1788C54.2465 12.1458 54.2341 12.1086 54.2291 12.0697C54.224 12.0308 54.2266 11.9912 54.2366 11.9536C54.3504 11.3991 55.0084 11.4808 55.3998 11.6789C55.275 11.4321 54.9102 10.749 55.2797 10.7091C55.6492 10.6691 56.0359 11.5781 56.1606 11.8701C56.3431 12.3064 56.5255 12.913 56.354 13.3406C56.1622 13.8499 55.9049 13.3336 55.7163 13.1025Z" fill="#DBDBDB"/>
<path d="M55.7675 13.2325C55.4634 12.8241 54.5919 12.7111 54.5997 12.5043C54.6153 12.101 55.3138 12.1949 55.6568 12.3304C55.398 12.0784 54.8912 11.6352 55.0471 11.3171C55.2389 10.9382 55.9452 11.736 56.2165 12.3374C56.558 13.097 56.36 13.5437 56.2306 13.5854C56.0528 13.6358 55.8174 13.3003 55.7675 13.2325Z" fill="#EBEBEB"/>
<path d="M58.2514 20.0154L59.0107 26.4864H54.3877C54.4828 25.9129 55.3435 20.0067 55.3435 20.0067L58.2514 20.0154Z" fill="#EBEBEB"/>
<path fill-rule="evenodd" clip-rule="evenodd" d="M42.5094 22.3332C42.366 22.2081 42.2475 22.0377 42.0417 22.036C41.9621 22.036 41.9855 21.9647 41.9902 21.916L42.2288 19.3419C42.2288 19.2793 42.2428 19.2289 42.3083 19.2011C42.932 18.9404 43.2438 18.3198 43.6539 17.8106C43.8646 17.556 44.0272 17.2568 44.1319 16.9307C44.2367 16.6046 44.2814 16.2583 44.2635 15.9125C44.2635 15.7179 44.3461 15.6396 44.5052 15.6188C44.5865 15.5974 44.6718 15.6058 44.7485 15.6427C44.8252 15.6797 44.8891 15.7432 44.9308 15.8239C45.0669 16.1939 45.1449 16.5872 45.1616 16.9867C45.1616 17.3169 45.0306 17.6211 44.9636 17.9392C44.9152 18.1721 44.8435 18.3998 44.7812 18.6344C44.8279 18.6831 44.8903 18.6675 44.9464 18.6744C45.5961 18.7521 46.2463 18.828 46.897 18.9021C47.1714 18.9351 47.2961 19.0377 47.3164 19.2497C47.3254 19.3772 47.2968 19.5045 47.2349 19.6122C47.1729 19.7198 47.0811 19.8019 46.9734 19.8459C46.9219 19.8668 46.8377 19.832 46.8175 19.9172C46.7972 20.0024 46.8939 20.0041 46.936 20.0441C47.1542 20.2526 47.0763 20.6177 46.78 20.8002C46.7099 20.8454 46.5851 20.8002 46.5727 20.9131C46.5602 21.0261 46.6818 21.0105 46.7286 21.087C46.8985 21.3181 46.7676 21.697 46.4682 21.8222C46.4279 21.8309 46.3883 21.8431 46.3497 21.8587C46.3154 21.8778 46.2811 21.9021 46.3388 21.9595C46.5992 22.215 46.5649 22.5279 46.2593 22.7225L46.1688 22.7799C46.0595 22.8374 45.936 22.8527 45.818 22.8234C44.7983 22.7075 43.7786 22.5916 42.7589 22.4757C42.6622 22.4666 42.5726 22.4154 42.5094 22.3332Z" fill="#EBEBEB"/>
<path fill-rule="evenodd" clip-rule="evenodd" d="M39.7512 20.4878C39.8027 19.9437 39.8557 19.398 39.9072 18.8522C39.9165 18.7409 39.9321 18.6888 40.0537 18.7044C40.6514 18.7809 41.2481 18.8505 41.8437 18.913C41.9606 18.9252 41.9746 18.9721 41.9637 19.0868C41.8598 20.1842 41.7558 21.2815 41.6519 22.3789C41.6394 22.5197 41.602 22.5527 41.4773 22.537C40.8983 22.4629 40.3198 22.3963 39.7419 22.3372C39.5969 22.3232 39.586 22.2642 39.5969 22.1234C39.6546 21.5741 39.6998 21.0283 39.7512 20.4878Z" fill="#EBEBEB"/>
<path fill-rule="evenodd" clip-rule="evenodd" d="M38.5377 15.0768C38.4083 15.0212 38.2883 14.9273 38.1386 14.976C38.0809 14.9951 38.084 14.9377 38.0778 14.903L37.741 12.9719C37.741 12.925 37.7285 12.8867 37.7706 12.8502C38.1682 12.5026 38.2742 11.9812 38.4722 11.5032C38.575 11.2663 38.6339 11.0088 38.6454 10.746C38.6569 10.4832 38.6208 10.2205 38.5393 9.97362C38.5281 9.94745 38.5223 9.91883 38.5224 9.88985C38.5224 9.86087 38.5282 9.83226 38.5394 9.80611C38.5506 9.77996 38.5669 9.75693 38.5871 9.7387C38.6073 9.72047 38.6309 9.7075 38.6562 9.70073C38.7112 9.66534 38.7749 9.65046 38.838 9.65828C38.9011 9.66609 38.9604 9.6962 39.007 9.74419C39.1784 9.98043 39.3129 10.2472 39.4046 10.5333C39.4455 10.7773 39.4607 11.0258 39.4499 11.2737C39.4608 11.4476 39.4499 11.6388 39.4499 11.823C39.4935 11.8473 39.5356 11.823 39.5777 11.8126L41.0418 11.498C41.246 11.4528 41.3536 11.498 41.4129 11.644C41.4462 11.7346 41.4516 11.835 41.4282 11.9294C41.4048 12.0238 41.3539 12.1068 41.2835 12.1654C41.2507 12.1932 41.1806 12.1897 41.1868 12.2541C41.193 12.3184 41.2616 12.2992 41.2991 12.3184C41.4986 12.414 41.5142 12.7008 41.338 12.9059C41.2959 12.9545 41.1977 12.9563 41.2086 13.038C41.2195 13.1196 41.3084 13.0831 41.3567 13.1179C41.5267 13.2448 41.5127 13.5542 41.3146 13.7176C41.2868 13.7337 41.2602 13.7523 41.2351 13.7732C41.2133 13.7958 41.193 13.8219 41.246 13.8497C41.4877 13.9713 41.5236 14.1973 41.3396 14.4233L41.285 14.4876C41.2173 14.5559 41.1313 14.5975 41.0402 14.6058C40.2741 14.7726 39.5091 14.9377 38.7451 15.1011C38.7108 15.1125 38.6748 15.1162 38.6392 15.1121C38.6036 15.1079 38.5691 15.0959 38.5377 15.0768Z" fill="#EBEBEB"/>
<path fill-rule="evenodd" clip-rule="evenodd" d="M36.1663 14.4112C36.0946 14.0027 36.026 13.5925 35.9511 13.1841C35.9371 13.1024 35.9371 13.0589 36.0291 13.0398C36.4781 12.9494 36.924 12.8538 37.3715 12.7513C37.4588 12.7322 37.4776 12.7617 37.4932 12.8486C37.6335 13.6725 37.7764 14.4958 37.9219 15.3185C37.9406 15.4228 37.9219 15.4576 37.8253 15.4767C37.3902 15.5653 36.9568 15.6505 36.5233 15.7583C36.4158 15.7826 36.3939 15.7443 36.3768 15.6383C36.3113 15.2281 36.2364 14.8197 36.1663 14.4112Z" fill="#EBEBEB"/>
<path d="M34.5001 68.9997C53.554 68.9997 69.0003 66.9048 69.0003 64.3207C69.0003 61.7365 53.554 59.6416 34.5001 59.6416C15.4462 59.6416 0 61.7365 0 64.3207C0 66.9048 15.4462 68.9997 34.5001 68.9997Z" fill="#EBEBEB"/>
<path d="M2.56348 52.4682L10.5481 52.4265L18.5327 52.4109L34.5003 52.3813L50.4695 52.4109L58.4525 52.4265L66.4371 52.4682L58.4525 52.5117L50.4695 52.5256L34.5003 52.5551L18.5327 52.5256L10.5481 52.5099L2.56348 52.4682Z" fill="#263238"/>
<path d="M9.50488 37.6041C10.6244 35.0403 12.5827 33.7228 14.789 34.4511C16.9952 35.1794 17.3382 38.6087 15.6902 39.4761C14.0421 40.3434 12.3956 37.8127 11.5256 37.293C10.6556 36.7733 9.50488 37.6041 9.50488 37.6041Z" fill="#187259"/>
<path d="M8.42195 44.4296C8.42195 44.1202 8.4391 43.8108 8.44846 43.5032C8.46873 42.8861 8.48744 42.2673 8.50771 41.6503C8.54513 40.5223 8.65427 39.4133 9.07369 38.3739C9.44406 37.4308 10.0629 36.6355 10.848 36.0935C11.1399 35.8968 11.4547 35.7459 11.7836 35.645C12.0815 35.3092 12.4608 35.0773 12.875 34.9776C13.3884 34.8607 13.9162 34.846 14.4342 34.9341C14.4529 34.9341 14.4529 34.9689 14.4342 34.9672C13.9425 34.896 13.4431 34.9356 12.9654 35.0836C12.7606 35.146 12.5621 35.2316 12.3729 35.3391C12.2543 35.4109 12.1402 35.4916 12.0315 35.5807C12.4769 35.4791 12.9367 35.4844 13.3802 35.5964C13.54 35.6404 13.6964 35.6985 13.8479 35.7702C13.9685 35.7397 14.0924 35.728 14.2159 35.7354C14.377 35.7409 14.537 35.7665 14.693 35.8119C15.0127 35.9119 15.3186 36.0605 15.602 36.2534C15.6176 36.2638 15.602 36.2916 15.5864 36.2812C15.3077 36.1117 15.0091 35.9865 14.6992 35.9092C14.5494 35.8712 14.3972 35.8462 14.244 35.8345C14.1598 35.8293 14.0755 35.8293 13.9914 35.8345C14.6201 36.1582 15.1256 36.7198 15.418 37.4197C15.418 37.4388 15.3993 37.4544 15.3931 37.4353C15.2189 37.0294 14.9648 36.6724 14.6498 36.3911C14.3348 36.1097 13.9669 35.9111 13.5735 35.8102C13.5252 35.7963 13.4753 35.7893 13.4269 35.7789C13.4385 35.8612 13.4463 35.9442 13.4503 36.0274C13.4644 36.1508 13.4831 36.276 13.5065 36.3994C13.5514 36.6538 13.6113 36.9046 13.6858 37.1503C13.7603 37.3987 13.8494 37.6414 13.9524 37.8768C14.0518 38.1244 14.1775 38.3578 14.3266 38.5721C14.3391 38.5912 14.3141 38.612 14.3032 38.5912C14.1707 38.36 14.0163 38.1462 13.8947 37.9064C13.7786 37.6765 13.6785 37.4371 13.5953 37.1902C13.5105 36.9408 13.4448 36.6838 13.3989 36.422C13.3739 36.2829 13.3552 36.1439 13.3412 36.0048C13.3256 35.9209 13.3209 35.8348 13.3272 35.7493C13.069 35.7066 12.807 35.7008 12.5476 35.732C12.6458 36.3438 12.7503 36.9817 13.059 37.5135C13.0683 37.5309 13.0418 37.5466 13.0325 37.5292C12.8887 37.2494 12.7621 36.959 12.6536 36.6601C12.5521 36.3681 12.4886 36.0614 12.4649 35.7493C12.0092 35.8173 11.5694 35.9819 11.1692 36.2343C10.4152 36.723 9.81304 37.4568 9.44322 38.3374C9.0548 39.2862 8.83759 40.3109 8.80395 41.3531C8.73067 42.6636 8.71508 43.9829 8.59814 45.2882C8.59814 45.3751 8.46873 45.4029 8.4547 45.3073C8.41884 45.0166 8.40788 44.7227 8.42195 44.4296Z" fill="#263238"/>
<path d="M11.008 35.8875C11.0823 35.7888 11.1678 35.7012 11.2622 35.6268C11.3542 35.5416 11.4477 35.453 11.5459 35.3852C11.7403 35.2373 11.9552 35.1263 12.1821 35.0567C12.2008 35.0567 12.207 35.0845 12.1821 35.088C11.9549 35.1547 11.7426 35.273 11.5584 35.4356C11.4649 35.5121 11.376 35.5938 11.2887 35.6789C11.2108 35.7698 11.1245 35.8514 11.0314 35.9223C11.0273 35.924 11.0228 35.9242 11.0186 35.9229C11.0143 35.9215 11.0106 35.9187 11.008 35.9147C11.0053 35.9108 11.0039 35.906 11.0039 35.9011C11.0039 35.8962 11.0054 35.8914 11.008 35.8875Z" fill="#263238"/>
<path d="M14.5805 36.8232C14.7655 37.0637 14.9368 37.3168 15.0935 37.5811C15.2463 37.8468 15.3743 38.1292 15.4755 38.4241C15.4755 38.4327 15.4661 38.438 15.4615 38.4241C15.2053 37.8661 14.9031 37.336 14.5587 36.8406C14.5431 36.8232 14.568 36.8006 14.5805 36.8232Z" fill="#263238"/>
<path d="M12.1732 36.5633C12.1965 36.7236 12.239 36.8797 12.2995 37.0274C12.3605 37.1706 12.4314 37.3084 12.5116 37.4393C12.5116 37.4393 12.5116 37.4567 12.4991 37.4497C12.3076 37.2045 12.1841 36.9026 12.1436 36.5807C12.1421 36.5511 12.1701 36.5424 12.1732 36.5633Z" fill="#263238"/>
<path d="M8.57722 37.6674C8.57722 37.6674 6.99309 35.4478 3.9402 36.2352C1.03231 36.9826 -0.308586 42.9252 2.62892 43.6361C5.56643 44.347 5.04878 38.8476 6.11838 37.9142C6.90265 37.2294 8.02839 37.3771 8.57722 37.6674Z" fill="#187259"/>
<path d="M1.57349 39.48C1.77041 39.2851 1.97876 39.1051 2.19716 38.9411C2.40619 38.78 2.63451 38.6525 2.87541 38.5622C3.21122 37.9886 3.66437 37.5121 4.1976 37.1717H4.10717C3.95125 37.1717 3.78286 37.1717 3.6207 37.1717C3.29473 37.1957 2.97525 37.2846 2.67739 37.4342C2.67388 37.436 2.66985 37.4362 2.66619 37.4348C2.66254 37.4333 2.65956 37.4303 2.6579 37.4264C2.65625 37.4224 2.65606 37.4179 2.65737 37.4139C2.65869 37.4098 2.6614 37.4065 2.66492 37.4046C2.965 37.26 3.27885 37.1539 3.60043 37.0883C3.75787 37.0568 3.91759 37.0417 4.07754 37.0431C4.1633 37.0431 4.25061 37.0431 4.33481 37.0587H4.3847C4.66493 36.9009 4.96052 36.7796 5.26564 36.6972C5.23758 36.6885 5.20951 36.6781 5.17989 36.6711C5.03057 36.6346 4.87964 36.6068 4.72772 36.5877C4.42329 36.5494 4.11572 36.5547 3.81248 36.6033C3.79377 36.6033 3.78909 36.5738 3.81248 36.5721C4.11969 36.5304 4.42941 36.5164 4.73864 36.5303C4.99759 36.5382 5.25516 36.5754 5.50732 36.6416C5.69161 36.603 5.87815 36.5792 6.06551 36.5703C7.13199 36.5199 8.29358 36.9649 8.95 37.9417C9.60642 38.9185 9.7296 40.2239 9.85121 41.4041C10.0303 43.0481 10.0695 44.7073 9.96815 46.3595C9.96815 46.4568 9.83874 46.4395 9.83562 46.3456C9.79664 44.9447 9.75142 43.5437 9.63137 42.148C9.57524 41.5014 9.51443 40.8514 9.41776 40.2117C9.34813 39.6601 9.20575 39.123 8.99522 38.6179C8.76863 38.1005 8.4094 37.6698 7.96304 37.3803C7.51531 37.0946 7.01637 36.9231 6.50208 36.878C6.04067 36.8359 5.57621 36.8847 5.12999 37.0222C5.14327 37.1219 5.14327 37.2233 5.12999 37.3229C5.12015 37.4499 5.09767 37.5752 5.06295 37.6966C5.02877 37.8105 4.986 37.921 4.9351 38.0269C4.87741 38.1433 4.80724 38.2476 4.74332 38.3606C4.73396 38.378 4.70745 38.3606 4.71993 38.3415C4.84588 38.1415 4.92714 37.9109 4.95692 37.6688C4.97563 37.5539 4.98812 37.4378 4.99434 37.3212C4.99434 37.2343 4.99434 37.1474 4.99434 37.0587C4.50913 37.2248 4.05635 37.4914 3.65968 37.8444C3.58484 37.9104 3.51312 37.98 3.44295 38.053C3.5429 38.1553 3.62996 38.2722 3.70178 38.4006C3.80655 38.5717 3.89785 38.7525 3.97464 38.9411C4.11599 39.3204 4.21091 39.7191 4.25685 40.1266C4.25685 40.1474 4.23034 40.1544 4.22878 40.1266C4.17245 39.7318 4.05423 39.3511 3.87953 39.002C3.79991 38.829 3.70979 38.6624 3.60979 38.5031C3.55833 38.4214 3.50376 38.3397 3.45387 38.2615C3.42268 38.2181 3.38994 38.1764 3.36188 38.1294C3.00281 38.5229 2.70928 38.9843 2.49497 39.4921C2.63896 39.6631 2.7593 39.857 2.85202 40.0675C2.96207 40.2867 3.05794 40.5144 3.13891 40.7488C3.28672 41.2033 3.40858 41.6677 3.50376 42.1393C3.50376 42.1602 3.47881 42.1654 3.4757 42.1393C3.38262 41.6643 3.23648 41.2041 3.04068 40.7697C2.95025 40.5559 2.85358 40.3456 2.75223 40.137C2.64503 39.9454 2.54919 39.7463 2.46534 39.5408C2.26072 40.0382 2.14222 40.5743 2.11608 41.1208C2.11608 41.1416 2.0849 41.1381 2.08646 41.1208C2.14275 40.2646 2.37767 39.4349 2.7725 38.6978C2.5854 38.7864 2.3983 38.8716 2.21899 38.9811C1.98918 39.1166 1.77548 39.2836 1.58284 39.4782C1.57817 39.5182 1.55946 39.4939 1.57349 39.48Z" fill="#263238"/>
<path d="M3.81507 39.6046C3.90707 39.9418 4.02245 40.2686 4.10508 40.6093C4.18978 40.9349 4.2354 41.2715 4.24073 41.6105C4.24073 41.6209 4.2267 41.6209 4.2267 41.6105C4.14206 40.9299 3.99365 40.2611 3.78389 39.6151C3.78328 39.6128 3.78307 39.6104 3.78329 39.608C3.7835 39.6057 3.78414 39.6034 3.78515 39.6013C3.78616 39.5992 3.78754 39.5973 3.78919 39.5958C3.79085 39.5943 3.79276 39.5932 3.7948 39.5925C3.79685 39.5918 3.799 39.5916 3.80113 39.5918C3.80325 39.592 3.80532 39.5928 3.8072 39.5939C3.80908 39.595 3.81075 39.5965 3.8121 39.5984C3.81345 39.6002 3.81446 39.6024 3.81507 39.6046Z" fill="#263238"/>
<path d="M1.87866 38.7707C1.99815 38.6412 2.13425 38.5322 2.28249 38.4474C2.43348 38.3714 2.58995 38.3097 2.75025 38.2631C2.76896 38.2631 2.77364 38.2909 2.75025 38.2944C2.59206 38.341 2.44004 38.4105 2.29808 38.5012C2.1541 38.5855 2.01553 38.6807 1.88334 38.7863C1.88237 38.7879 1.881 38.7892 1.87941 38.79C1.87781 38.7908 1.87605 38.7911 1.87432 38.7908C1.87258 38.7906 1.87095 38.7898 1.8696 38.7885C1.86825 38.7873 1.86724 38.7856 1.86669 38.7838C1.86614 38.7819 1.86606 38.78 1.86647 38.7781C1.86688 38.7762 1.86776 38.7744 1.869 38.7731C1.87025 38.7717 1.87182 38.7707 1.87352 38.7703C1.87523 38.7699 1.87701 38.77 1.87866 38.7707Z" fill="#263238"/>
<path d="M7.07278 34.7032C7.07278 34.7032 6.77965 30.7055 4.11968 29.421C1.8994 28.3416 0.6271 31.1244 2.1972 32.8278C3.47262 34.2044 5.49956 33.5839 7.07278 34.7032Z" fill="#187259"/>
<path d="M2.69329 30.194C3.09795 30.3758 3.4926 30.5842 3.87516 30.818C4.194 31.0224 4.50075 31.2494 4.79352 31.4976C4.74986 31.3968 4.71088 31.2908 4.66723 31.1917C4.59706 31.0388 4.52378 30.8875 4.44114 30.7415C4.27695 30.44 4.08005 30.1621 3.85489 29.9142C3.84086 29.9003 3.85489 29.8777 3.87672 29.8916C4.1037 30.1395 4.31227 30.4074 4.50039 30.6929C4.59278 30.837 4.67713 30.9874 4.75298 31.1431C4.8283 31.2888 4.88498 31.4456 4.92137 31.6089L4.951 31.6315C5.41569 32.0459 5.84145 32.5117 6.22173 33.022C6.22173 32.982 6.20614 32.9438 6.19679 32.9073C6.14689 32.7126 6.09388 32.5197 6.04087 32.3267C5.92611 31.9178 5.76471 31.527 5.56064 31.1639C5.54972 31.1465 5.57623 31.1309 5.58559 31.1483C5.79417 31.512 5.98015 31.8912 6.14222 32.2833C6.2158 32.4747 6.27728 32.6715 6.3262 32.8725C6.36444 33.003 6.39312 33.1367 6.41196 33.2723C6.52889 33.4374 6.64271 33.6025 6.7503 33.7729C7.89162 35.584 8.4654 37.7706 8.60261 39.9693C8.64211 40.623 8.652 41.2786 8.63224 41.9334C8.62724 42.5946 8.5751 43.2542 8.47632 43.9062C8.47632 43.9462 8.41083 43.934 8.41239 43.894C8.42487 43.3187 8.47788 42.7434 8.48879 42.1681C8.49971 41.5927 8.48879 41.0122 8.4389 40.4299C8.35441 39.2792 8.15997 38.1418 7.85888 37.0371C7.54931 35.9057 7.09339 34.8306 6.50551 33.8459C6.39324 33.8215 6.28254 33.7885 6.1734 33.7572C6.03931 33.719 5.90678 33.6807 5.77425 33.639C5.5185 33.5643 5.26993 33.4618 5.03207 33.3331C5.01492 33.3227 5.03207 33.2949 5.04767 33.3053C5.28177 33.4481 5.53587 33.5456 5.79919 33.5938C6.00657 33.6408 6.22329 33.6703 6.43223 33.7242C6.23889 33.4113 6.03307 33.1072 5.80855 32.8169C5.30167 32.8685 4.79063 32.8262 4.29614 32.6917C4.03118 32.6214 3.77073 32.5314 3.51654 32.4223C3.24992 32.3076 2.99734 32.1616 2.73695 32.0382C2.71668 32.0295 2.73695 31.9965 2.74787 32.0086C3.22422 32.2984 3.74427 32.4881 4.28211 32.5683C4.7571 32.6529 5.23712 32.6976 5.71812 32.7022C5.5279 32.4606 5.333 32.2242 5.12563 32.0069C4.43023 31.2612 3.60074 30.5799 2.68082 30.2184C2.66367 30.2184 2.67302 30.1853 2.69329 30.194Z" fill="#263238"/>
<path d="M4.85363 30.2067C4.97629 30.3753 5.08781 30.5536 5.1873 30.7403C5.28658 30.9351 5.36508 31.1422 5.42118 31.3573C5.42118 31.3573 5.41338 31.3695 5.41182 31.3573C5.32295 31.1626 5.2559 30.9593 5.15767 30.7646C5.07182 30.5728 4.96724 30.3921 4.84584 30.2258C4.82089 30.2188 4.84116 30.1893 4.85363 30.2067Z" fill="#263238"/>
<path d="M2.3811 31.5347C2.55424 31.6385 2.73661 31.7218 2.92525 31.7833C3.10793 31.8497 3.29376 31.9048 3.48188 31.9484C3.48188 31.9484 3.48188 31.9675 3.48188 31.9658C3.28606 31.9425 3.09312 31.8953 2.90654 31.825C2.72244 31.7483 2.54279 31.6589 2.36862 31.5573C2.36612 31.5574 2.36365 31.5566 2.36149 31.5552C2.35932 31.5538 2.35753 31.5518 2.3563 31.5494C2.35507 31.5469 2.35445 31.5442 2.35449 31.5414C2.35454 31.5386 2.35526 31.5359 2.35657 31.5335C2.35789 31.5311 2.35975 31.5292 2.36196 31.5279C2.36417 31.5266 2.36666 31.5259 2.36916 31.5261C2.37167 31.5262 2.37409 31.5271 2.37619 31.5286C2.37829 31.5301 2.37998 31.5322 2.3811 31.5347Z" fill="#263238"/>
<path d="M9.1398 33.9851C9.15539 34.159 9.54207 32.5373 11.7904 31.0981C13.833 29.791 16.27 26.3947 14.268 24.2481C12.6511 22.5152 8.39295 26.2921 9.1398 33.9851Z" fill="#187259"/>
<path d="M7.59184 43.2737C7.62421 41.5872 7.74342 39.9043 7.94889 38.2331C8.12608 36.6945 8.44426 35.1802 8.89844 33.7139C9.06527 33.1925 9.25705 32.671 9.46442 32.1496C9.45267 31.9509 9.4558 31.7515 9.47378 31.5534C9.48469 31.2979 9.50496 31.0441 9.52679 30.7886C9.54862 30.5331 9.57045 30.2794 9.59851 30.0256C9.62658 29.7718 9.67335 29.5198 9.68271 29.266C9.68271 29.2434 9.71701 29.2469 9.71077 29.266C9.66633 29.5323 9.63975 29.8019 9.63125 30.0725C9.6141 30.3193 9.60163 30.5644 9.59383 30.8112C9.58604 31.058 9.59383 31.3049 9.59383 31.5517C9.59383 31.6403 9.59383 31.7359 9.59383 31.8298C9.80588 31.3327 10.032 30.8408 10.2768 30.3645C10.1208 29.3216 10.3235 28.2371 10.5138 27.222C10.5138 27.2011 10.5449 27.2098 10.5418 27.222C10.4481 27.7528 10.3985 28.2922 10.3937 28.8332C10.3843 29.2608 10.4031 29.6867 10.4046 30.1142C10.4576 30.0117 10.5122 29.9091 10.5605 29.8083C10.8516 29.2765 11.1634 28.755 11.496 28.244C11.4697 27.9974 11.4771 27.7477 11.5179 27.5036C11.5519 27.2297 11.604 26.9589 11.6738 26.6936C11.7455 26.4271 11.8281 26.1658 11.9217 25.9097C12.0199 25.6472 12.1493 25.3969 12.2429 25.1327C12.2445 25.1288 12.2475 25.1258 12.2512 25.1243C12.2548 25.1229 12.2589 25.1231 12.2624 25.1249C12.2659 25.1268 12.2686 25.1301 12.2699 25.1342C12.2712 25.1382 12.2711 25.1427 12.2694 25.1466C12.1502 25.3962 12.0561 25.6597 11.9887 25.9323C11.9143 26.1884 11.8529 26.4489 11.8048 26.7127C11.7564 26.9769 11.7174 27.2341 11.6847 27.507C11.6629 27.6808 11.6488 27.8668 11.6208 28.0459C12.1084 27.3395 12.6393 26.6716 13.2096 26.047C13.2236 26.0331 13.2423 26.0557 13.2299 26.0713C12.3733 27.1403 11.6081 28.2959 10.9441 29.5233C10.9191 29.5685 10.8958 29.6154 10.8724 29.6623C10.9955 29.5754 11.1374 29.5076 11.2544 29.4346C11.4727 29.2991 11.6915 29.1652 11.9108 29.0331L12.5469 28.6542C12.6561 28.5864 12.7637 28.5152 12.8744 28.4526C13.0072 28.3861 13.135 28.3076 13.2564 28.2179C13.2735 28.2023 13.2907 28.2318 13.2735 28.2423C13.0568 28.3761 12.865 28.5725 12.6498 28.722C12.4347 28.8715 12.2257 29.0157 12.0075 29.1513C11.6083 29.3999 11.1733 29.5789 10.7804 29.8361C10.5075 30.368 10.2565 30.9155 10.0242 31.4717C10.2632 31.3014 10.5065 31.1386 10.7539 30.9833C10.9129 30.8848 11.0735 30.7875 11.2357 30.6913C11.3962 30.6093 11.5479 30.5072 11.6878 30.3871C11.7019 30.3732 11.7221 30.3871 11.7081 30.4097C11.4484 30.6742 11.1604 30.9019 10.8505 31.0876C10.5605 31.2753 10.269 31.4578 9.9696 31.6212C9.7274 32.2087 9.51016 32.8066 9.31786 33.415C8.37143 36.4028 8.02373 39.5749 7.8569 42.7262C7.80857 43.6647 7.78206 44.6033 7.77114 45.5437C7.76023 46.484 7.80545 47.4209 7.80389 48.3595C7.80389 48.3873 7.76335 48.3942 7.76023 48.3595C7.65888 47.5251 7.64017 46.6787 7.60431 45.8409C7.56845 45.0031 7.57469 44.1236 7.59184 43.2737Z" fill="#263238"/>
<path d="M11.6771 29.748C12.0883 29.5441 12.4877 29.3119 12.873 29.0527C13.2638 28.8076 13.6427 28.5396 14.0081 28.2497C14.0081 28.2497 14.0206 28.2497 14.0081 28.2619C13.6628 28.5736 13.298 28.8576 12.9167 29.1118C12.5174 29.3592 12.1051 29.5792 11.6818 29.7706C11.674 29.7845 11.6599 29.7549 11.6771 29.748Z" fill="#263238"/>
<path d="M11.0257 26.3689C11.06 26.2246 11.1005 26.0803 11.1458 25.9378C11.1458 25.9378 11.1364 25.9291 11.1458 25.9222C11.1738 25.8405 11.2035 25.7605 11.2331 25.6806C11.2331 25.6701 11.2331 25.6597 11.244 25.651C11.2549 25.6423 11.2549 25.6215 11.2611 25.6058C11.2611 25.6058 11.2471 25.6614 11.2393 25.6892C11.2364 25.7051 11.2328 25.7208 11.2284 25.7362C11.0791 26.2933 10.9675 26.8621 10.8947 27.4378C10.8947 27.4552 10.8667 27.4569 10.8682 27.4378C10.8902 27.0767 10.943 26.7188 11.0257 26.3689Z" fill="#263238"/>
<path d="M5.21582 43.8801L5.37642 46.0006L5.86756 52.4665H11.1298L11.621 46.0006L11.7816 43.8801H5.21582Z" fill="#455A64"/>
<path d="M5.21582 43.8801L5.37642 46.0006H11.621L11.7816 43.8801H5.21582Z" fill="#263238"/>
<path d="M4.69993 45.0625H12.2979V43.0289H4.69993V45.0625Z" fill="#455A64"/>
<path d="M27.111 42.9981C26.9847 43.0068 26.3953 43.0451 25.5362 43.1059C25.2134 42.5062 24.8236 41.439 24.925 39.899C24.9421 39.6453 24.4572 41.1244 24.7363 43.1615C23.0727 43.2745 20.8118 43.4275 18.8348 43.5404C18.7677 42.6818 18.6711 41.8892 18.6711 41.8892C18.6267 42.456 18.5375 43.0172 18.4045 43.5665C18.1347 43.5856 17.8697 43.5961 17.6155 43.61C17.628 42.2716 17.3489 39.9529 17.3489 39.9529C17.2483 41.2354 16.9597 42.4908 16.4945 43.6691C15.2471 43.7264 14.4114 43.7386 14.4675 43.6691C16.2855 41.1609 14.848 39.8208 15.3173 37.6603C15.8801 35.0705 17.8478 34.5821 17.7247 32.6597C17.628 31.0954 17.3582 28.2622 19.1123 27.5809C19.575 27.0374 20.171 26.6579 20.826 26.4897C21.4809 26.3215 22.1658 26.3722 22.7951 26.6353C25.6391 27.7164 24.6911 32.5919 24.9156 33.5653C25.2275 34.9558 25.8511 35.4268 26.3501 37.0085C26.849 38.5902 26.2363 39.7113 26.1942 40.8116C26.1521 41.9118 27.4259 42.9825 27.111 42.9981Z" fill="#263238"/>
<path d="M14.3867 43.3248C14.6318 42.8929 14.8212 42.4248 14.9496 41.9342C15.0774 41.451 14.9995 40.9661 14.895 40.4638C14.7771 39.9574 14.6829 39.4445 14.6128 38.9273C14.5435 38.387 14.5721 37.8368 14.697 37.3091C14.8331 36.7812 15.0764 36.2953 15.408 35.889C15.7287 35.5023 16.0776 35.146 16.4511 34.8235C16.813 34.5146 17.1369 34.154 17.4147 33.7511C17.6801 33.333 17.8381 32.8419 17.8715 32.331C17.9078 32.862 17.7991 33.3928 17.5597 33.8537C17.3074 34.3031 16.9957 34.7074 16.6351 35.053C16.2923 35.3904 15.969 35.7515 15.6668 36.1341C15.3825 36.5085 15.1735 36.9465 15.0541 37.4186C14.9452 37.8964 14.9172 38.3928 14.9714 38.8821C15.0135 39.3827 15.1149 39.8832 15.1913 40.3995C15.234 40.6623 15.2585 40.9285 15.2645 41.1955C15.2634 41.4698 15.2185 41.7417 15.132 41.9986C14.9549 42.4857 14.7027 42.9346 14.3867 43.3248Z" fill="#263238"/>
<path d="M24.4336 28.3643C24.648 28.9602 24.7967 29.583 24.8764 30.2189C24.97 30.8516 25.0323 31.4878 25.0931 32.1204L25.1851 33.066C25.2106 33.3711 25.2628 33.6726 25.341 33.9663C25.497 34.5469 25.8088 35.0457 26.1612 35.5533C26.3395 35.8131 26.5021 36.0861 26.6476 36.3702C26.7923 36.6621 26.9073 36.9711 26.9907 37.2914C27.0639 37.6106 27.116 37.9353 27.1466 38.263C27.178 38.5933 27.1728 38.9266 27.131 39.2555C27.0904 39.584 27.0187 39.8951 26.9595 40.201C26.8994 40.505 26.8654 40.8146 26.8581 41.1257C26.8603 41.437 26.9289 41.7433 27.0582 42.0192C27.1875 42.2952 27.3739 42.5329 27.6019 42.7126C27.343 42.5544 27.1234 42.3271 26.9626 42.0511C26.8018 41.7751 26.7048 41.4589 26.6804 41.1309C26.6647 40.8046 26.6788 40.4773 26.7225 40.1541C26.7615 39.8325 26.8223 39.5249 26.8441 39.219C26.8794 38.6056 26.8144 37.9901 26.6523 37.4026C26.571 37.1128 26.4628 36.8332 26.3296 36.5683C26.1892 36.3009 26.0329 36.0442 25.8618 35.8001C25.6843 35.5421 25.5188 35.274 25.366 34.9971C25.2115 34.7095 25.0895 34.4019 25.0027 34.0811C24.9268 33.7613 24.8782 33.4342 24.8577 33.1042C24.8312 32.7827 24.8156 32.4646 24.8 32.1465C24.7673 31.5103 24.7408 30.8759 24.6924 30.245C24.6642 29.6099 24.5775 28.9797 24.4336 28.3643Z" fill="#263238"/>
<path d="M68.3196 62.7982C67.8332 63.005 53.721 63.7072 53.169 63.3561C53.1082 63.3161 53.1254 62.6209 52.918 60.8254C52.9071 60.7402 52.5843 60.4065 52.0823 59.9372C50.1957 58.173 45.7598 54.4551 45.7598 54.4551L52.8026 47.6347L59.6287 55.1087L61.4031 57.0536C61.4031 57.0536 67.1721 60.1093 67.7396 60.5682C68.3072 61.027 68.803 62.5896 68.3196 62.7982Z" fill="#DD6A57"/>
<path d="M68.3192 62.7981C67.8328 63.005 53.7206 63.7072 53.167 63.3561C53.1078 63.3161 53.1234 62.6208 52.916 60.8253C54.9352 61.173 65.7014 61.79 66.0693 60.3769C66.2159 59.8207 64.6162 58.8126 64.3277 58.6283C65.8495 59.4522 67.4461 60.3404 67.7408 60.5698C68.3068 61.0304 68.8026 62.5895 68.3192 62.7981Z" fill="#263238"/>
<path d="M57.1382 51.6222L56.0467 53.004L50.6286 59.9009C50.6286 59.9009 43.171 53.8574 40.9803 51.862C40.9101 51.796 32.2956 58.5903 25.9965 59.9009C21.163 60.9073 17.8887 58.8754 15.9912 53.8557L23.9727 49.9188C30.6616 46.2426 38.1987 40.3921 42.7562 41.0074C47.7066 41.6765 57.1382 51.6222 57.1382 51.6222Z" fill="#37474F"/>
<path d="M55.4337 51.118C54.3204 52.4599 54.6244 52.0584 53.5252 53.4141C52.9857 54.0781 50.2743 57.4118 49.8658 58.1158C49.8564 58.1314 49.8752 58.1505 49.8892 58.1401C50.4739 57.6013 53.1214 54.2102 53.6484 53.5358C54.7258 52.1592 54.403 52.5416 55.468 51.1528C55.4712 51.1476 55.4726 51.1413 55.4719 51.135C55.4713 51.1287 55.4686 51.1229 55.4644 51.1187C55.4603 51.1145 55.4548 51.112 55.4492 51.1119C55.4435 51.1118 55.438 51.114 55.4337 51.118Z" fill="#263238"/>
<path d="M55.1892 54.1016L50.6332 59.9035C50.6332 59.9035 43.171 53.8582 40.9803 51.8629C40.9101 51.7968 32.2956 58.5912 25.9981 59.9035C21.1646 60.9081 17.8825 58.8762 15.9912 53.8565L23.9727 49.9179C24.8583 49.4312 25.758 48.908 26.6654 48.3657C33.674 49.7893 49.0335 52.8692 55.1892 54.1016Z" fill="#263238"/>
<path d="M67.1575 65.7203C66.6726 65.9289 52.5589 66.6293 52.0069 66.2782C51.9461 66.2383 51.9633 65.5447 51.7559 63.7475C51.745 63.6623 51.4238 63.3286 50.9202 62.8593C49.0335 61.0951 44.5977 57.379 44.5977 57.379L51.6405 50.5551L58.4666 58.029L60.241 59.9723C60.241 59.9723 66.01 63.0279 66.5791 63.4868C67.1482 63.9457 67.644 65.5117 67.1575 65.7203Z" fill="#DD6A57"/>
<path d="M67.1597 65.721C66.6732 65.9279 52.5594 66.6318 52.0075 66.279C51.9467 66.239 51.9638 65.5455 51.7549 63.75C53.774 64.0889 64.5402 64.7147 64.9097 63.2998C65.0563 62.7453 63.455 61.7355 63.1666 61.5513C64.6883 62.3751 66.2849 63.2633 66.5796 63.4945C67.1456 63.9551 67.6446 65.5125 67.1597 65.721Z" fill="#263238"/>
<path d="M62.795 61.3885C62.2212 61.0408 61.6506 60.6932 61.0675 60.3803C60.7906 60.2451 60.5328 60.0659 60.3019 59.8485C60.0633 59.6069 59.8341 59.3479 59.6049 59.0993C58.6585 58.0929 57.7152 57.0813 56.761 56.0819C56.2449 55.5414 55.735 54.9956 55.2236 54.4498C55.2111 54.4359 55.1893 54.4498 55.2002 54.4707C55.2314 54.5246 56.0921 55.5501 56.5053 56.0141C56.973 56.5356 57.4408 57.0483 57.9085 57.5611L59.3118 59.0906C59.5472 59.3479 59.7796 59.6017 60.0212 59.8554C60.2306 60.0893 60.4736 60.2825 60.74 60.4273C61.4089 60.7749 62.0887 61.1034 62.767 61.4284C62.7997 61.4389 62.8184 61.4024 62.795 61.3885Z" fill="#263238"/>
<path d="M14.6987 52.2937C14.6987 52.2937 13.6634 58.6118 16.6258 61.3112C18.7525 63.2596 21.5591 63.4508 23.9805 63.0702C30.685 62.0082 36.3636 52.989 38.5932 52.5006C39.7361 52.2537 48.7279 62.1681 48.7279 62.1681L55.7146 54.6298C53.9372 52.909 43.3409 40.9663 37.9929 40.9663C34.3319 40.9663 25.0517 49.4449 24.8256 49.3458C24.4607 49.1825 22.8361 48.3134 22.8361 48.3134L14.6987 52.2937Z" fill="#37474F"/>
<path d="M54.3024 53.8268C53.4277 54.6472 52.6107 55.5424 51.7843 56.4149C50.9579 57.2875 50.144 58.1617 49.3379 59.0499C48.8795 59.554 48.4242 60.0598 47.9845 60.5795C47.9721 60.5917 47.9845 60.6108 48.0017 60.5986C48.8655 59.7643 49.6934 58.8883 50.5213 58.0123C51.3493 57.1362 52.1616 56.2741 52.9708 55.3807C53.4292 54.8801 53.8923 54.3778 54.3258 53.8529C54.3398 53.8355 54.318 53.8129 54.3024 53.8268Z" fill="#263238"/>
<path d="M20.2466 51.3208C20.2342 51.2861 20.1874 51.3104 20.1952 51.3434C20.3957 52.2911 20.2908 53.2873 19.8989 54.1575C19.4452 55.1221 18.622 55.8139 17.8907 56.5005C17.8205 56.5683 17.9094 56.6917 17.9874 56.6413C18.4614 56.332 18.9037 55.966 19.3064 55.5497C19.6794 55.183 19.9812 54.7352 20.1936 54.234C20.3835 53.7792 20.4863 53.2852 20.4955 52.7836C20.5046 52.2821 20.4199 51.7839 20.2466 51.3208Z" fill="#263238"/>
<path d="M24.9562 49.9761C24.7504 49.8023 24.5321 49.6511 24.3216 49.4877C23.8227 49.1036 23.3206 48.7195 22.8077 48.3579C22.7593 48.3249 22.7016 48.4101 22.7484 48.45C23.1101 48.756 23.4828 49.0445 23.8523 49.3365C24.0425 49.4877 24.2312 49.6372 24.423 49.7849C24.6145 49.9119 24.7941 50.0598 24.9593 50.2264C25.1153 50.4089 25.0264 50.6349 24.8315 50.7183C24.6562 50.7782 24.467 50.7607 24.3029 50.6696C23.9272 50.4958 23.5873 50.1934 23.2489 49.9483C23.041 49.7965 22.8331 49.647 22.6252 49.4999C22.4023 49.3434 22.1715 49.2027 21.9501 49.0462C21.9361 49.0358 21.9189 49.0619 21.933 49.074C22.1372 49.2479 22.3337 49.4512 22.5395 49.6337C22.7453 49.8162 22.9527 49.9952 23.1632 50.1725C23.3736 50.3498 23.5639 50.501 23.7681 50.6575C23.942 50.7976 24.1353 50.905 24.3403 50.9756C24.6725 51.0746 25.1776 50.9634 25.2291 50.5045C25.23 50.3973 25.2051 50.2918 25.1572 50.1989C25.1092 50.106 25.0398 50.0291 24.9562 49.9761Z" fill="#263238"/>
<path d="M55.2536 54.0312C54.8124 53.5254 54.3477 53.044 53.8878 52.5608C53.4278 52.0776 52.971 51.6031 52.5063 51.132C51.5708 50.1847 50.6275 49.2479 49.6624 48.3406C48.6972 47.4333 47.7025 46.559 46.6843 45.7247C45.6662 44.8904 44.6433 44.1152 43.5659 43.4043C43.028 43.0479 42.4745 42.709 41.9179 42.3892C41.3719 42.0675 40.8114 41.7775 40.2386 41.5201C40.0827 41.4558 39.9268 41.3915 39.7709 41.3202C39.7475 41.3098 39.7272 41.348 39.7506 41.3585C40.0375 41.5027 40.3135 41.6731 40.5941 41.8295C40.8748 41.9859 41.1445 42.1441 41.4174 42.304C41.9662 42.6291 42.5088 42.968 43.0452 43.3226C44.12 44.0352 45.1672 44.7977 46.1869 45.61C47.2082 46.4234 48.1983 47.282 49.1634 48.1737C50.1286 49.0654 51.0953 49.9883 52.037 50.9269C52.9788 51.8655 53.9002 52.8076 54.8435 53.741C54.962 53.8574 55.0805 53.9739 55.2022 54.0886C55.2094 54.0922 55.2174 54.0932 55.2251 54.0916C55.2328 54.09 55.24 54.0858 55.2456 54.0796C55.2511 54.0734 55.2549 54.0654 55.2563 54.0568C55.2578 54.0482 55.2568 54.0393 55.2536 54.0312Z" fill="#263238"/>
<path d="M48.3683 59.5748C46.215 57.2908 40.3837 51.4733 39.063 50.4999C38.93 50.4032 38.7805 50.3378 38.6239 50.3079C38.4673 50.278 38.3069 50.2842 38.1525 50.3261C37.8126 50.42 37.5397 50.7016 37.2715 50.938L36.3126 51.7844L34.3434 53.5226C33.1132 54.6124 31.8908 55.7126 30.6481 56.7833C29.5508 57.7585 28.3891 58.6399 27.1727 59.4201C24.8339 60.8697 21.8714 61.7961 19.2972 60.5446C18.1246 59.962 17.1824 58.9234 16.6466 57.6228C16.09 56.3279 15.8545 54.8887 15.7111 53.4722C15.6768 53.1245 15.6487 52.7856 15.6238 52.4414C15.6245 52.4393 15.6247 52.4371 15.6245 52.4349C15.6242 52.4326 15.6235 52.4305 15.6223 52.4287C15.6212 52.4268 15.6196 52.4253 15.6179 52.4243C15.6161 52.4232 15.6141 52.4227 15.6121 52.4227C15.6101 52.4227 15.6081 52.4232 15.6063 52.4243C15.6045 52.4253 15.603 52.4268 15.6018 52.4287C15.6007 52.4305 15.6 52.4326 15.5997 52.4349C15.5995 52.4371 15.5997 52.4393 15.6004 52.4414C15.7204 55.113 16.0993 58.2121 18.1278 59.9693C20.2842 61.8361 23.3168 61.511 25.6992 60.4212C28.3701 59.2045 30.6091 57.0631 32.845 55.0817L36.7539 51.6193C37.0657 51.3395 37.3776 51.0475 37.7034 50.7798C38.0293 50.5121 38.4113 50.3122 38.7839 50.5538C40.0188 51.3551 48.0252 59.3453 48.309 59.6234C48.3527 59.6651 48.4026 59.6095 48.3683 59.5748Z" fill="#263238"/>
<path d="M21.9585 38.7189C23.3945 39.6905 30.6479 44.1506 33.0163 42.8157C35.8867 41.1957 38.9178 38.0688 39.9406 36.1864C40.5129 35.1314 35.7776 32.1053 35.1555 32.9796C34.1763 34.3701 31.6333 36.9321 31.1718 37.3249C30.7102 37.7177 25.7021 36.5184 22.9003 36.3064C20.3759 36.11 20.9466 38.041 21.9585 38.7189Z" fill="#DD6A57"/>
<path d="M41.5883 33.6954C41.158 34.9017 39.4055 36.984 38.8145 37.3055C38.2236 37.6271 34.9446 34.4324 34.9867 33.678C35.0288 32.9237 36.7611 28.9851 37.7933 28.3315C38.8254 27.678 42.0358 32.4387 41.5883 33.6954Z" fill="#DD6A57"/>
<path d="M35.1752 32.9422C35.1752 32.9422 35.1924 31.2527 34.7605 29.8448C34.3987 28.6594 33.7392 26.9473 34.3036 26.7057C35.4606 26.2104 37.1024 30.4827 37.1024 30.4827C37.1024 30.4827 37.5545 32.4972 36.4475 33.1003C36.243 33.2073 36.0159 33.2491 35.7914 33.2212C35.5668 33.1933 35.3536 33.0967 35.1752 32.9422Z" fill="#DD6A57"/>
<path d="M36.3869 29.6871C36.4883 30.3667 37.1478 29.8453 37.1478 29.8453C37.1478 29.8453 36.3604 30.8499 36.7065 31.5052C37.0433 32.1344 37.8198 31.4739 37.8759 31.427C37.8354 31.4808 37.1338 32.4264 37.5423 33.0434C37.9508 33.6605 38.6462 32.8696 38.6898 32.8209C38.6649 32.8853 38.3515 33.7404 38.7584 34.1315C39.4585 34.8007 40.3176 32.6384 41.0208 32.3708C41.0208 32.3708 41.5665 33.6535 41.5884 33.6883C41.5884 33.6883 42.4397 31.6494 42.0561 30.6048C42.0031 30.4523 41.905 30.3245 41.7779 30.2427C41.6509 30.1608 41.5026 30.1297 41.3576 30.1546C41.3576 30.1546 41.6975 29.5306 41.3888 29.0318C41.2329 28.778 40.7215 28.8337 40.7215 28.8337C40.7215 28.8337 40.9756 28.3226 40.6762 27.8985C40.4377 27.5509 39.9668 27.6691 39.9668 27.6691C39.9668 27.6691 40.0042 27.0521 39.655 26.8C38.9736 26.2699 36.1702 28.234 36.3869 29.6871Z" fill="#DD6A57"/>
<path d="M39.8952 27.6723C39.8972 27.6723 39.8992 27.6714 39.9007 27.6697C39.9021 27.6681 39.903 27.6659 39.903 27.6636C39.903 27.6613 39.9021 27.6591 39.9007 27.6574C39.8992 27.6558 39.8972 27.6549 39.8952 27.6549C38.7861 28.061 37.8142 28.834 37.1089 29.871C37.0871 29.9058 37.126 29.9597 37.1572 29.9266C37.9673 29.0316 38.8896 28.2722 39.8952 27.6723Z" fill="#263238"/>
<path d="M40.7377 28.8186C40.7486 28.8186 40.7377 28.7908 40.7268 28.796C39.6354 29.2097 38.4613 30.143 37.8283 31.4206C37.8064 31.464 37.8283 31.5283 37.8548 31.4797C38.335 30.6662 39.7882 29.3643 40.7377 28.8186Z" fill="#263238"/>
<path d="M38.6723 32.927C39.3225 31.7277 40.2518 30.883 41.3229 30.1686C41.337 30.1582 41.3229 30.1373 41.3105 30.1425C40.7039 30.3337 40.0631 30.8691 39.6031 31.3314C39.1656 31.7505 38.834 32.2897 38.6411 32.8957C38.6271 32.9253 38.6598 32.9514 38.6723 32.927Z" fill="#263238"/>
<path d="M37.1256 29.8455C37.1007 29.8855 37.1818 29.8837 37.1568 29.9237C37.0524 30.0975 36.5082 31.1978 36.7873 31.521C37.0103 31.78 37.478 31.6236 37.6355 31.4863L38.0346 31.1387L37.7696 31.6201C37.649 31.8343 37.561 32.0692 37.5092 32.3154C37.4794 32.4269 37.4711 32.5441 37.4848 32.6594C37.4985 32.7748 37.5339 32.8856 37.5887 32.9846C37.64 33.0744 37.7172 33.142 37.8076 33.1765C37.898 33.2109 37.9962 33.21 38.0861 33.174C38.2885 33.0863 38.4673 32.942 38.6053 32.7551L39.0029 32.2545L38.7753 32.8698C38.7118 33.0408 38.6683 33.2201 38.6458 33.4035C38.6167 33.5793 38.6351 33.7608 38.6988 33.9249C38.7299 33.9962 38.7781 34.0564 38.8382 34.0987C38.8982 34.1411 38.9677 34.164 39.0388 34.1648C39.1969 34.139 39.3455 34.0643 39.4675 33.9492C39.7346 33.702 39.9843 33.4324 40.2144 33.1427C40.336 33.0002 40.4561 32.8577 40.5839 32.7204C40.7044 32.5758 40.8511 32.4614 41.0142 32.3849C40.8616 32.4795 40.7271 32.6064 40.6182 32.7586C40.5028 32.9046 40.3921 33.0558 40.2814 33.207C40.0648 33.5209 39.8226 33.8119 39.558 34.0761C39.4161 34.2211 39.2395 34.3171 39.0497 34.3525C38.9443 34.3587 38.8395 34.3307 38.7481 34.2717C38.6568 34.2128 38.5828 34.1255 38.5351 34.0205C38.4523 33.8233 38.424 33.603 38.4541 33.3878C38.4763 33.1827 38.5225 32.9817 38.5913 32.7899L38.7612 32.9046C38.6011 33.1288 38.3908 33.3021 38.1516 33.4069C38.0177 33.4617 37.8707 33.4617 37.7368 33.4069C37.6066 33.3499 37.4947 33.2506 37.4156 33.1219C37.3464 32.9966 37.3017 32.8564 37.2845 32.7105C37.2673 32.5647 37.278 32.4164 37.3159 32.2754C37.3772 32.0077 37.4772 31.7529 37.6121 31.521L37.7446 31.6549C37.5388 31.8287 37.0336 32.0616 36.6407 31.7088C36.1964 31.1508 36.9713 30.0454 37.1256 29.8455Z" fill="#263238"/>
<path d="M37.1514 29.8459C37.035 29.9034 36.9115 29.9409 36.785 29.9572C36.7347 29.9656 36.6832 29.9587 36.636 29.9373C36.5888 29.9159 36.5476 29.8807 36.5169 29.8355C36.4627 29.7249 36.4373 29.5997 36.4436 29.474C36.4436 29.3349 36.4545 29.1906 36.4685 29.0394C36.3909 29.166 36.3378 29.3093 36.3126 29.4601C36.2945 29.5421 36.2911 29.6273 36.3026 29.7109C36.3141 29.7944 36.3403 29.8745 36.3796 29.9467C36.4303 30.0211 36.4998 30.0768 36.5792 30.1066C36.6552 30.1301 36.7355 30.1301 36.8115 30.1066C36.9466 30.0617 37.0655 29.9705 37.1514 29.8459Z" fill="#263238"/>
<path d="M30.6261 37.2231L28.7551 42.5766C28.7551 42.5766 24.366 40.7307 22.2549 39.2463C20.1437 37.7619 19.9894 36.2202 23.1124 36.2202C25.0895 36.2202 30.6261 37.2231 30.6261 37.2231Z" fill="#187259"/>
<path d="M21.001 37.2717L20.8872 37.4281L20.8965 37.6297L20.7578 37.5706C20.7065 37.4136 20.7021 37.2423 20.7453 37.0822L20.8264 37.2213L21.001 37.2717Z" fill="#187259"/>
<path d="M24.0229 37.2724L23.909 37.4289L23.9184 37.6305L23.7484 37.5592L23.5801 37.6305L23.5894 37.4289L23.4756 37.2724L23.6502 37.222L23.7484 37.0517L23.8482 37.222L24.0229 37.2724Z" fill="#187259"/>
<path d="M25.532 39.7071L25.4182 39.8636L25.4276 40.0652L25.2592 39.9939L25.0908 40.0652L25.1002 39.8636L24.9863 39.7071L25.161 39.6567L25.2592 39.4864L25.3574 39.6567L25.532 39.7071Z" fill="#187259"/>
<path d="M27.0428 37.2724L26.929 37.4289L26.9383 37.6305L26.7699 37.5592L26.6015 37.6305L26.6109 37.4289L26.4971 37.2724L26.6717 37.222L26.7699 37.0517L26.8682 37.222L27.0428 37.2724Z" fill="#187259"/>
<path d="M28.5535 39.7071L28.4397 39.8636L28.4491 40.0652L28.2807 39.9939L28.1107 40.0652L28.1216 39.8636L28.0078 39.7071L28.1824 39.6567L28.2807 39.4864L28.3789 39.6567L28.5535 39.7071Z" fill="#187259"/>
<path d="M29.9495 37.429L29.9604 37.6306L29.7904 37.5594L29.622 37.6306L29.6314 37.429L29.5176 37.2726L29.6922 37.2222L29.7748 37.0797H29.8107L29.8902 37.217L30.0649 37.2674L29.9495 37.429Z" fill="#187259"/>
<g opacity="0.2">
<path d="M20.8866 37.4278L20.896 37.6294L20.7572 37.5703C20.7067 37.4125 20.7023 37.2409 20.7447 37.0801L20.8258 37.2192L21.0004 37.2696L20.8866 37.4278Z" fill="black"/>
<path d="M23.9081 37.4281L23.9174 37.6297L23.7475 37.5584L23.5791 37.6297L23.5884 37.4281L23.4746 37.2716L23.6492 37.2212L23.7475 37.0509L23.8473 37.2212L24.0219 37.2716L23.9081 37.4281Z" fill="black"/>
<path d="M26.929 37.4281L26.9383 37.6297L26.7699 37.5584L26.6015 37.6297L26.6109 37.4281L26.4971 37.2716L26.6717 37.2212L26.7699 37.0509L26.8682 37.2212L27.0428 37.2716L26.929 37.4281Z" fill="black"/>
<path d="M29.9485 37.4282L29.9594 37.6298L29.7895 37.5586L29.6211 37.6298L29.6304 37.4282L29.5166 37.2718L29.6912 37.2214L29.7739 37.0789H29.8051L29.8846 37.2162L30.0592 37.2666L29.9485 37.4282Z" fill="black"/>
<path d="M25.4172 39.8628L25.4266 40.0644L25.2582 39.9931L25.0898 40.0644L25.0992 39.8628L24.9854 39.7063L25.16 39.6559L25.2582 39.4856L25.3564 39.6559L25.5311 39.7063L25.4172 39.8628Z" fill="black"/>
<path d="M28.4397 39.8628L28.4491 40.0644L28.2807 39.9931L28.1107 40.0644L28.1216 39.8628L28.0078 39.7063L28.1824 39.6559L28.2807 39.4856L28.3789 39.6559L28.5535 39.7063L28.4397 39.8628Z" fill="black"/>
</g>
<path d="M27.9771 41.8337C28.2889 41.1124 28.5509 40.3545 28.8066 39.6037C29.0623 38.8528 29.2962 38.1071 29.4973 37.3441C29.4973 37.3302 29.4802 37.3197 29.4755 37.3354C29.1917 38.0741 28.9313 38.825 28.6787 39.5776C28.4261 40.3302 28.1658 41.0654 27.9521 41.825C27.9521 41.8406 27.9709 41.8493 27.9771 41.8337Z" fill="#263238"/>
<path opacity="0.1" d="M29.2817 41.0583L28.7484 42.5775C28.7484 42.5775 24.3655 40.7316 22.2544 39.2472C20.8979 38.2895 20.3491 37.3092 20.9681 36.7338L29.2817 41.0583Z" fill="black"/>
<path d="M25.6567 46.8783L26.1026 48.6981C26.1026 48.6981 14.2528 58.788 13.7148 58.4647C13.7148 58.4647 15.4705 40.8383 18.5062 37.3394C20.0249 35.5891 21.7587 35.7751 22.8376 37.0509C23.1183 37.3759 26.0808 41.5161 26.3926 43.409C26.6608 45.0776 25.6567 46.8783 25.6567 46.8783Z" fill="#187259"/>
<path d="M25.4368 41.0325C25.2559 40.6605 25.0642 40.3007 24.8584 39.9444C24.8106 39.8109 24.7554 39.6809 24.6931 39.5551C24.6089 39.3691 24.5262 39.1849 24.453 38.9937C24.4528 38.9915 24.4521 38.9894 24.4511 38.9875C24.45 38.9857 24.4486 38.9841 24.4469 38.983C24.4452 38.9819 24.4433 38.9812 24.4414 38.9811C24.4394 38.9809 24.4374 38.9813 24.4356 38.9822C24.4338 38.983 24.4322 38.9844 24.431 38.986C24.4297 38.9877 24.4288 38.9897 24.4284 38.9919C24.4279 38.994 24.428 38.9962 24.4284 38.9983C24.4289 39.0005 24.4298 39.0024 24.4311 39.0041C24.5091 39.1935 24.5871 39.3847 24.6463 39.5777C24.6506 39.5878 24.6543 39.5982 24.6572 39.609C24.5808 39.489 24.5013 39.3691 24.4249 39.2509C24.3064 39.0608 24.1795 38.8775 24.0445 38.7016C24.0367 38.693 24.0257 38.7017 24.0304 38.7138C24.1302 38.9137 24.2549 39.0997 24.3656 39.2909C24.4763 39.4821 24.5948 39.6906 24.7118 39.8871C24.9441 40.2764 25.1795 40.6605 25.4165 41.0464C25.417 41.0485 25.4179 41.0505 25.4192 41.0521C25.4205 41.0538 25.4221 41.0551 25.4239 41.0559C25.4258 41.0567 25.4277 41.057 25.4297 41.0569C25.4316 41.0567 25.4335 41.056 25.4352 41.0548C25.4368 41.0537 25.4382 41.0521 25.4393 41.0503C25.4403 41.0484 25.4409 41.0463 25.4411 41.0441C25.4412 41.042 25.4409 41.0398 25.4402 41.0377C25.4394 41.0357 25.4383 41.0339 25.4368 41.0325Z" fill="#263238"/>
<g opacity="0.2">
<path d="M20.7279 37.0509L20.8262 37.2195L21.0008 37.2716L20.887 37.4298L20.8963 37.6297L20.7279 37.5584L20.5595 37.6297L20.5689 37.4298L20.4551 37.2716L20.6297 37.2195L20.7279 37.0509Z" fill="black"/>
<path d="M17.7065 41.8504L17.8062 42.0207L17.9809 42.0728L17.8655 42.2293L17.8764 42.4292L17.7065 42.3579L17.5381 42.4292L17.5474 42.2293L17.4336 42.0728L17.6082 42.0207L17.7065 41.8504Z" fill="black"/>
<path d="M20.7279 41.8504L20.8262 42.0207L21.0008 42.0728L20.887 42.2293L20.8963 42.4292L20.7279 42.3579L20.5595 42.4292L20.5689 42.2293L20.4551 42.0728L20.6297 42.0207L20.7279 41.8504Z" fill="black"/>
<path d="M23.7484 41.8504L23.8482 42.0207L24.0229 42.0728L23.9075 42.2293L23.9184 42.4292L23.7484 42.3579L23.5801 42.4292L23.5894 42.2293L23.4756 42.0728L23.6502 42.0207L23.7484 41.8504Z" fill="black"/>
<path d="M19.2172 39.4856L19.3154 39.6559L19.4901 39.7063L19.3762 39.8645L19.3856 40.0644L19.2172 39.9931L19.0488 40.0644L19.0582 39.8645L18.9443 39.7063L19.119 39.6559L19.2172 39.4856Z" fill="black"/>
<path d="M22.2383 39.4856L22.3365 39.6559L22.5111 39.7063L22.3973 39.8645L22.4067 40.0644L22.2383 39.9931L22.0683 40.0644L22.0792 39.8645L21.9639 39.7063L22.1401 39.6559L22.2383 39.4856Z" fill="black"/>
<path d="M17.7065 46.6498L17.8062 46.8184L17.9809 46.8706L17.8655 47.027L17.8764 47.2286L17.7065 47.1556L17.5381 47.2286L17.5474 47.027L17.4336 46.8706L17.6082 46.8184L17.7065 46.6498Z" fill="black"/>
<path d="M20.7279 46.6498L20.8262 46.8184L21.0008 46.8706L20.887 47.027L20.8963 47.2286L20.7279 47.1556L20.5595 47.2286L20.5689 47.027L20.4551 46.8706L20.6297 46.8184L20.7279 46.6498Z" fill="black"/>
<path d="M23.7484 46.6498L23.8482 46.8184L24.0229 46.8706L23.9075 47.027L23.9184 47.2286L23.7484 47.1556L23.5801 47.2286L23.5894 47.027L23.4756 46.8706L23.6502 46.8184L23.7484 46.6498Z" fill="black"/>
<path d="M16.1967 44.2851L16.2949 44.4554L16.4695 44.5075L16.3557 44.664L16.3651 44.8639L16.1967 44.7926L16.0283 44.8639L16.0376 44.664L15.9238 44.5075L16.0985 44.4554L16.1967 44.2851Z" fill="black"/>
<path d="M19.2172 44.2851L19.3154 44.4554L19.4901 44.5075L19.3762 44.664L19.3856 44.8639L19.2172 44.7926L19.0488 44.8639L19.0582 44.664L18.9443 44.5075L19.119 44.4554L19.2172 44.2851Z" fill="black"/>
<path d="M22.2383 44.2851L22.3365 44.4554L22.5111 44.5075L22.3973 44.664L22.4067 44.8639L22.2383 44.7926L22.0683 44.8639L22.0792 44.664L21.9639 44.5075L22.1401 44.4554L22.2383 44.2851Z" fill="black"/>
<path d="M25.2592 44.2851L25.3574 44.4554L25.532 44.5075L25.4182 44.664L25.4276 44.8639L25.2592 44.7926L25.0908 44.8639L25.1002 44.664L24.9863 44.5075L25.161 44.4554L25.2592 44.2851Z" fill="black"/>
<path d="M14.8452 51.8266L14.8546 52.0282L14.6862 51.9552L14.5303 52.023C14.549 51.8892 14.5693 51.7536 14.5895 51.618L14.6862 51.4442L14.7844 51.618L14.959 51.6702L14.8452 51.8266Z" fill="black"/>
<path d="M17.7065 51.4493L17.8062 51.6179L17.9809 51.6701L17.8655 51.8265L17.8764 52.0281L17.7065 51.9551L17.5381 52.0281L17.5474 51.8265L17.4336 51.6701L17.6082 51.6179L17.7065 51.4493Z" fill="black"/>
<path d="M20.7279 51.4493L20.8262 51.6179L21.0008 51.6701L20.887 51.8265L20.8963 52.0281L20.7279 51.9551L20.5595 52.0281L20.5689 51.8265L20.4551 51.6701L20.6297 51.6179L20.7279 51.4493Z" fill="black"/>
<path d="M16.1967 49.0858L16.2949 49.2544L16.4695 49.3066L16.3557 49.463L16.3651 49.6646L16.1967 49.5916L16.0283 49.6646L16.0376 49.463L15.9238 49.3066L16.0985 49.2544L16.1967 49.0858Z" fill="black"/>
<path d="M19.2172 49.0858L19.3154 49.2544L19.4901 49.3066L19.3762 49.463L19.3856 49.6646L19.2172 49.5916L19.0488 49.6646L19.0582 49.463L18.9443 49.3066L19.119 49.2544L19.2172 49.0858Z" fill="black"/>
<path d="M22.2383 49.0858L22.3365 49.2544L22.5111 49.3066L22.3973 49.463L22.4067 49.6646L22.2383 49.5916L22.0683 49.6646L22.0792 49.463L21.9639 49.3066L22.1401 49.2544L22.2383 49.0858Z" fill="black"/>
<path d="M25.0953 49.55V49.4631L24.9814 49.3067L25.1561 49.2545L25.2543 49.0807L25.3525 49.2545L25.4196 49.2737L25.0953 49.55Z" fill="black"/>
<path d="M14.6859 56.2488L14.7842 56.4174L14.9588 56.4695L14.845 56.626L14.8543 56.8276L14.6859 56.7546L14.5176 56.8276L14.5269 56.626L14.4131 56.4695L14.5877 56.4174L14.6859 56.2488Z" fill="black"/>
<path d="M16.1967 53.8853L16.2949 54.0539L16.4695 54.106L16.3557 54.2625L16.3651 54.4641L16.1967 54.3911L16.0283 54.4641L16.0376 54.2625L15.9238 54.106L16.0985 54.0539L16.1967 53.8853Z" fill="black"/>
<path d="M19.3758 54.2613V54.2995L19.248 54.4038L19.2152 54.3899L19.0468 54.4629L19.0562 54.2613L18.9424 54.1049L19.117 54.0527L19.2152 53.8789L19.3135 54.0527L19.4881 54.1049L19.3758 54.2613Z" fill="black"/>
</g>
<path d="M18.2847 37.6768C14.1045 42.5279 8.00967 54.8113 7.25659 56.5721C6.74517 57.7679 12.352 60.9174 12.5906 60.0483C12.9024 58.9359 17.7795 45.189 19.0768 40.0024C19.7956 37.1432 19.1501 36.6756 18.2847 37.6768Z" fill="#DD6A57"/>
<path d="M12.8572 59.2301C12.6623 59.8245 11.9965 62.3587 11.5303 62.6698C11.0641 62.981 8.61776 62.9166 7.38912 62.9166C6.16048 62.9166 5.91569 62.5343 5.93596 62.0615C5.95623 61.5887 8.5398 61.5053 8.5398 61.5053C8.5398 61.5053 5.08932 62.609 4.22085 62.788C3.35238 62.9671 1.35195 63.5319 1.0635 62.7289C0.932526 62.3674 1.4798 62.0007 1.4798 62.0007C1.4798 62.0007 0.640958 62.2735 0.506868 61.8095C0.350949 61.288 1.02296 60.9873 1.02296 60.9873C1.02296 60.9873 0.497513 61.1055 0.486598 60.6745C0.458533 59.7098 3.74218 59.237 3.74218 59.237C3.74218 59.237 1.22877 60.5997 1.14769 59.8141C1.03543 58.7243 6.18699 57.5302 6.72335 57.0557C7.07374 56.7246 7.36517 56.3231 7.58246 55.872L12.8572 59.2301Z" fill="#DD6A57"/>
<path d="M5.9548 62.3012C5.94622 62.2338 5.95237 62.1651 5.97273 62.1009C5.99309 62.0368 6.02706 61.979 6.07174 61.9327C6.15973 61.8418 6.26097 61.7683 6.3711 61.7154C6.59919 61.6072 6.83559 61.5223 7.07742 61.4616C7.56232 61.3226 8.0597 61.227 8.55553 61.0827C8.0436 61.0751 7.53284 61.1393 7.03532 61.2739C6.78146 61.3391 6.53694 61.4432 6.30874 61.5833C6.19155 61.6566 6.0887 61.7553 6.00625 61.8736C5.96545 61.9339 5.93927 62.005 5.93026 62.0799C5.92125 62.1547 5.9297 62.231 5.9548 62.3012Z" fill="#263238"/>
<path d="M1.47949 61.9946C1.83499 61.8972 2.18424 61.786 2.53506 61.673C2.88588 61.56 3.23046 61.4418 3.57972 61.3254L4.61814 60.9621C4.96583 60.8405 5.31198 60.7205 5.66123 60.6041C5.29846 60.6469 4.93857 60.716 4.58383 60.8109C4.22678 60.9013 3.87752 61.016 3.52826 61.1342C3.17901 61.2524 2.83443 61.3828 2.49296 61.527C2.1515 61.6713 1.8116 61.8225 1.47949 61.9946Z" fill="#263238"/>
<path d="M4.82863 59.6416C4.49363 59.6656 4.16065 59.7168 3.8323 59.7946C3.50331 59.8688 3.17803 59.9622 2.85781 60.0744C2.53645 60.1833 2.22097 60.3127 1.91295 60.462C1.60429 60.6117 1.30571 60.7859 1.01953 60.9835C1.33137 60.8618 1.64321 60.7262 1.95504 60.608C2.26688 60.4898 2.57872 60.3699 2.90147 60.2604C3.22422 60.1509 3.53606 60.0449 3.85413 59.9406C4.17221 59.8363 4.50431 59.739 4.82863 59.6416Z" fill="#263238"/>
<path d="M4.32088 58.7237C3.78041 58.7691 3.24772 58.8942 2.73674 59.0957C2.22127 59.2853 1.73055 59.55 1.27734 59.883C1.78876 59.6797 2.28458 59.4659 2.79132 59.2782C3.29805 59.0904 3.80635 58.9079 4.32088 58.7237Z" fill="#263238"/>
<path d="M12.5156 45.455L17.162 47.2662C17.162 47.2662 18.9816 42.1526 19.3823 39.4133C19.783 36.674 19.3184 36.083 17.1994 38.6363C15.0805 41.1897 12.5156 45.455 12.5156 45.455Z" fill="#187259"/>
<g opacity="0.2">
<path d="M14.845 42.2304L14.8544 42.4303L14.686 42.359L14.5176 42.4303V42.3138C14.5924 42.2008 14.6735 42.0861 14.7468 41.9662L14.778 42.0218L14.9526 42.0739L14.845 42.2304Z" fill="black"/>
<path d="M17.7065 41.8517L17.8062 42.0221L17.9809 42.0742L17.8655 42.2307L17.8764 42.4305L17.7065 42.3593L17.5381 42.4305L17.5474 42.2307L17.4336 42.0742L17.6082 42.0221L17.7065 41.8517Z" fill="black"/>
<path d="M16.3557 39.8645L16.3651 40.0661L16.1967 39.9948L16.1172 40.0278L16.376 39.6802L16.4696 39.708L16.3557 39.8645Z" fill="black"/>
<path d="M19.3466 39.6667C19.3279 39.7814 19.3061 39.9014 19.2827 40.0143L19.2172 39.9865L19.0488 40.0578L19.0582 39.8562L18.9443 39.6997L19.119 39.6493L19.2172 39.4755L19.3154 39.6493L19.3466 39.6667Z" fill="black"/>
<path d="M13.3343 44.6644L13.3436 44.8643L13.1752 44.793L13.0068 44.8643L13.0162 44.6644V44.6557C13.0786 44.5584 13.144 44.4524 13.2142 44.3411L13.2797 44.4558L13.4543 44.508L13.3343 44.6644Z" fill="black"/>
<path d="M16.1967 44.2864L16.2949 44.4568L16.4695 44.5089L16.3557 44.6654L16.3651 44.8652L16.1967 44.794L16.0283 44.8652L16.0376 44.6654L15.9238 44.5089L16.0985 44.4568L16.1967 44.2864Z" fill="black"/>
</g>
<path d="M19.029 42.2559C18.8338 42.6136 18.6558 42.9826 18.4957 43.3614C18.5441 43.1876 18.5924 43.0033 18.6392 42.826C18.7545 42.3863 18.873 41.943 18.965 41.4963C18.9643 41.4945 18.9631 41.4929 18.9616 41.4918C18.9601 41.4907 18.9583 41.4901 18.9565 41.4901C18.9546 41.4901 18.9529 41.4907 18.9513 41.4918C18.9498 41.4929 18.9486 41.4945 18.9479 41.4963C18.6953 42.2455 18.4801 43.0103 18.2369 43.7664C17.9937 44.5224 17.7582 45.2733 17.5228 46.0259C17.3934 46.4379 17.2733 46.8515 17.1595 47.2687L16.9256 47.1766C16.91 47.1661 16.9053 47.1957 16.9256 47.1992L17.2063 47.3347C17.2156 47.3347 18.0623 44.9379 18.4006 43.7125C18.636 43.2432 18.8512 42.76 19.0508 42.2716C19.0517 42.27 19.0523 42.2682 19.0526 42.2663C19.0529 42.2644 19.0529 42.2625 19.0525 42.2607C19.0522 42.2588 19.0515 42.257 19.0505 42.2555C19.0496 42.2539 19.0483 42.2526 19.0469 42.2516C19.0455 42.2505 19.0439 42.2498 19.0422 42.2495C19.0405 42.2492 19.0388 42.2492 19.0371 42.2496C19.0355 42.25 19.0339 42.2508 19.0325 42.2519C19.0311 42.2529 19.0299 42.2543 19.029 42.2559Z" fill="#263238"/>
<path d="M17.3493 46.3549C16.6975 46.0072 16.0146 45.7378 15.3379 45.4632C14.6612 45.1886 13.9877 44.9418 13.3001 44.7245C13.286 44.7245 13.2798 44.7453 13.3001 44.7506C13.9674 45.0565 14.6441 45.3346 15.327 45.6057C16.0099 45.8769 16.6679 46.1567 17.354 46.3827C17.3561 46.3809 17.3578 46.3785 17.3588 46.3758C17.3598 46.373 17.36 46.37 17.3595 46.3671C17.359 46.3642 17.3578 46.3615 17.356 46.3593C17.3542 46.3572 17.3519 46.3556 17.3493 46.3549Z" fill="#263238"/>
<path d="M20.5956 36.1282C19.1315 36.2916 19.5229 37.9358 20.1684 38.6884C20.5987 39.1925 21.4703 39.7 21.9708 39.5002C22.4713 39.3003 22.0768 38.0523 22.0768 38.0523C22.0768 38.0523 22.9016 38.9457 23.2072 38.5598C23.5128 38.174 22.1111 35.9544 20.5956 36.1282Z" fill="#263238"/>
<path d="M19.8348 36.9825C19.9174 37.2154 21.0338 38.154 22.0177 37.9437C22.3295 37.8741 22.1892 36.3707 22.1892 36.3707L22.2001 36.2212L22.342 34.1354L20.0032 32.9552L19.668 32.804C19.668 32.804 19.668 33.3793 19.668 34.0937V34.1962C19.668 34.2362 19.668 34.2745 19.668 34.3127C19.668 34.4187 19.668 34.5282 19.668 34.6377C19.668 34.7194 19.668 34.8011 19.668 34.888C19.668 34.9749 19.668 35.0618 19.668 35.147C19.6869 35.7623 19.7427 36.3755 19.8348 36.9825Z" fill="#DD6A57"/>
<path d="M19.6646 34.0902C19.922 34.6292 20.2818 35.0991 20.7189 35.4672C21.1559 35.8352 21.6598 36.0925 22.1952 36.2212L22.3371 34.1354L19.9983 32.9552L19.6631 32.804C19.6631 32.804 19.6646 33.3758 19.6646 34.0902Z" fill="#263238"/>
<path d="M24.6512 30.6938C25.2468 34.3126 23.3695 35.1174 22.6695 35.2599C22.0333 35.3885 19.8551 35.7396 18.9274 32.2077C17.9997 28.6758 19.3203 27.2262 20.7595 26.8456C22.1986 26.4649 24.054 27.075 24.6512 30.6938Z" fill="#DD6A57"/>
<path d="M23.6008 29.8345C23.5229 29.8345 23.4449 29.8206 23.3732 29.8137C23.2924 29.818 23.2125 29.793 23.1455 29.7424C23.1276 29.7217 23.1163 29.6951 23.1132 29.6665C23.1101 29.638 23.1154 29.6091 23.1284 29.5842C23.1607 29.5389 23.2034 29.5043 23.2521 29.4841C23.3007 29.4639 23.3533 29.4589 23.4044 29.4695C23.5106 29.4711 23.6124 29.517 23.6897 29.5981C23.7062 29.618 23.7172 29.6427 23.7214 29.6693C23.7256 29.6959 23.7229 29.7233 23.7135 29.7482C23.7041 29.7732 23.6885 29.7945 23.6685 29.8098C23.6486 29.8252 23.625 29.8337 23.6008 29.8345Z" fill="#263238"/>
<path d="M21.3689 30.2696C21.4425 30.2463 21.5148 30.2184 21.5857 30.1862C21.6649 30.1693 21.7368 30.1235 21.7899 30.0558C21.8034 30.0312 21.8091 30.0021 21.806 29.9734C21.8028 29.9447 21.7912 29.918 21.7728 29.8977C21.7313 29.8629 21.6822 29.8412 21.6307 29.8348C21.5791 29.8283 21.527 29.8375 21.4796 29.8612C21.377 29.8928 21.2887 29.966 21.2317 30.0663C21.2199 30.0898 21.2145 30.1166 21.2161 30.1435C21.2177 30.1705 21.2263 30.1963 21.2409 30.2178C21.2554 30.2394 21.2753 30.2557 21.298 30.2649C21.3207 30.2741 21.3454 30.2758 21.3689 30.2696Z" fill="#263238"/>
<path d="M21.9801 31.1436C21.9801 31.1436 21.9645 31.1575 21.9661 31.1679C22.0066 31.4147 22.0144 31.705 21.8242 31.8197C21.8242 31.8197 21.8242 31.8353 21.8242 31.8336C22.069 31.7537 22.0534 31.3695 21.9801 31.1436Z" fill="#263238"/>
<path d="M21.7476 30.9138C21.3859 30.9434 21.4639 31.7464 21.7991 31.7203C22.1343 31.6943 22.0501 30.893 21.7476 30.9138Z" fill="#263238"/>
<path d="M21.6093 30.9765C21.5516 31.0303 21.497 31.1172 21.4221 31.1346C21.3473 31.152 21.2662 31.079 21.1961 31.006C21.1961 30.9973 21.1836 31.006 21.1836 31.0164C21.1976 31.1711 21.2662 31.3223 21.4159 31.3276C21.5656 31.3328 21.6373 31.1833 21.656 31.0251C21.6607 30.9956 21.6342 30.9556 21.6093 30.9765Z" fill="#263238"/>
<path d="M23.2743 30.8567C23.2743 30.8463 23.293 30.8654 23.2945 30.8758C23.3101 31.1261 23.3647 31.4094 23.5752 31.4685V31.4842C23.3195 31.472 23.2493 31.0879 23.2743 30.8567Z" fill="#263238"/>
<path d="M23.4463 30.567C23.8033 30.4958 23.9047 31.297 23.5741 31.3631C23.2436 31.4291 23.1469 30.6331 23.4463 30.567Z" fill="#263238"/>
<path d="M23.6021 30.6035C23.6645 30.6365 23.7315 30.7043 23.7986 30.6991C23.8656 30.6939 23.9264 30.5965 23.9654 30.5062C23.9654 30.4957 23.9763 30.5062 23.9779 30.5062C24.0013 30.6574 23.9779 30.8242 23.8469 30.8746C23.7159 30.925 23.6255 30.8034 23.5741 30.6556C23.5631 30.6348 23.5772 30.5896 23.6021 30.6035Z" fill="#263238"/>
<path d="M23.0775 32.0218C23.0775 32.0218 23.1633 32.3868 23.182 32.5624C23.182 32.578 23.1461 32.5919 23.0931 32.6024C22.9613 32.6484 22.8207 32.653 22.6867 32.6155C22.5527 32.5781 22.4306 32.5002 22.3338 32.3903C22.3198 32.3747 22.3338 32.3538 22.3541 32.3625C22.5712 32.4881 22.819 32.532 23.0604 32.4876C23.0604 32.439 22.8935 31.8689 22.9169 31.8637C23.0407 31.8579 23.1646 31.872 23.2849 31.9054C23.129 31.1389 22.8546 30.4071 22.7064 29.6458C22.7064 29.618 22.7361 29.6058 22.7454 29.6284C23.076 30.3741 23.2787 31.2518 23.4611 32.0375C23.4814 32.1313 23.143 32.0427 23.0775 32.0218Z" fill="#263238"/>
<path d="M23.0779 32.4786C23.0129 32.6384 22.9119 32.7768 22.7847 32.8801C22.7137 32.9329 22.63 32.9608 22.5446 32.9601C22.3575 32.9601 22.3154 32.7741 22.3154 32.6124C22.3164 32.5257 22.3263 32.4394 22.3451 32.3552C22.5712 32.4825 22.828 32.5258 23.0779 32.4786Z" fill="#263238"/>
<path d="M22.7847 32.8849C22.7137 32.9377 22.63 32.9655 22.5446 32.9648C22.3575 32.9648 22.3154 32.7788 22.3154 32.6172C22.4093 32.5965 22.5066 32.6117 22.5917 32.6603C22.6769 32.7088 22.7449 32.788 22.7847 32.8849Z" fill="#FF9ABB"/>
<path d="M19.16 32.0164C19.949 31.9173 19.9957 29.185 19.9973 28.8495C20.0051 29.0616 20.0534 30.1809 20.133 30.2192C20.2178 30.2099 20.3005 30.1847 20.3777 30.1444C20.3676 30.0108 20.3676 29.8765 20.3777 29.7429C20.3777 29.6803 20.4074 29.875 20.4541 30.1149L20.5976 30.0558C20.5688 29.7712 20.5746 29.4835 20.6147 29.2006C20.6303 29.0929 20.688 29.5656 20.8081 29.9724C21.4683 29.6954 22.1537 29.5001 22.8522 29.3901C23.0486 29.3657 23.2201 29.3536 23.3714 29.3501C23.3496 29.0199 23.2919 28.6705 23.3184 28.7452C23.3915 28.939 23.4469 29.1405 23.4836 29.3466H23.7097C23.6988 28.8791 23.4493 28.1525 23.5242 28.262C23.7468 28.5953 23.9104 28.9728 24.006 29.3744C24.2944 29.4109 24.3786 29.4666 24.3802 29.3831C24.3802 29.2336 24.1323 27.944 23.1562 27.0662C22.096 26.1102 20.1049 26.0233 19.1023 27.711C19.1023 27.711 18.2307 28.455 18.1668 29.5413C18.1029 30.6276 18.7032 32.072 19.16 32.0164Z" fill="#263238"/>
<path d="M19.4897 32.3816C19.4897 32.3816 18.6743 31.3144 18.2424 31.6481C17.8105 31.9818 18.4809 33.5826 19.0469 33.7512C19.1181 33.7784 19.1935 33.7892 19.2685 33.783C19.3435 33.7768 19.4166 33.7538 19.4835 33.7153C19.5503 33.6768 19.6095 33.6237 19.6575 33.5591C19.7054 33.4945 19.7412 33.4197 19.7626 33.3393L19.4897 32.3816Z" fill="#DD6A57"/>
<path d="M18.4404 32.1009V32.1166C18.838 32.2504 19.0735 32.6241 19.2496 33.0204C19.2234 32.9804 19.1897 32.9471 19.151 32.9228C19.1122 32.8985 19.0693 32.8837 19.025 32.8794C18.9807 32.8752 18.9361 32.8815 18.8941 32.898C18.8522 32.9145 18.8139 32.9408 18.7819 32.9752C18.7725 32.9752 18.7819 32.9995 18.7944 32.9961C18.8596 32.9653 18.9318 32.9578 19.0011 32.9746C19.0703 32.9914 19.1332 33.0317 19.181 33.0899C19.2617 33.1871 19.3318 33.2944 19.39 33.4097C19.4118 33.4462 19.4711 33.4097 19.4555 33.3767V33.3663C19.4134 32.8257 18.9674 32.0992 18.4404 32.1009Z" fill="#263238"/>
<path d="M35.4956 20.9828C35.3991 22.0216 35.0454 23.01 34.474 23.8375C33.9025 24.6651 33.1359 25.2993 32.2598 25.6691C31.3837 26.039 30.4326 26.13 29.5128 25.9319C28.5929 25.7339 27.7406 25.2546 27.0511 24.5477L24.5205 24.9614L25.785 22.528C25.4689 21.6698 25.3499 20.7372 25.4389 19.8147C25.5782 18.3283 26.2416 16.9644 27.283 16.0232C28.3244 15.082 29.6585 14.6405 30.9919 14.7959C32.3253 14.9512 33.5487 15.6907 34.3931 16.8516C35.2374 18.0125 35.6334 19.4998 35.4941 20.9862L35.4956 20.9828Z" fill="white"/>
<path d="M35.4963 20.9816C35.3982 22.0205 35.0454 23.0091 34.4765 23.8391C34.1975 24.2569 33.8631 24.6249 33.4849 24.9307C32.5448 25.7289 31.3815 26.1303 30.2013 26.064C29.9669 26.0567 29.7334 26.0294 29.5027 25.9823C28.5727 25.7904 27.7089 25.3137 27.008 24.6057L27.0673 24.6265L24.5414 25.0593L24.3574 25.0906L24.451 24.9168L25.7092 22.4834V22.5807C25.4123 21.7728 25.2859 20.8996 25.34 20.0286C25.3941 19.1576 25.6271 18.3121 26.0211 17.5575C26.4148 16.8062 26.9558 16.1639 27.6037 15.6786C28.251 15.201 28.9868 14.8929 29.7561 14.7773C30.5254 14.6617 31.3081 14.7417 32.0458 15.0111C32.777 15.2878 33.4435 15.7433 33.9963 16.3443C34.5435 16.9414 34.9626 17.6686 35.2224 18.4716C35.4821 19.2746 35.5757 20.1326 35.4963 20.9816ZM35.4963 20.9816C35.577 20.1332 35.4819 19.2753 35.2183 18.4743C34.9547 17.6732 34.5297 16.9503 33.9759 16.3612C33.4222 15.7722 32.7546 15.3327 32.0244 15.0766C31.2943 14.8205 30.5212 14.7547 29.7647 14.8843C29.0148 15.0087 28.3006 15.3233 27.6769 15.8037C27.0591 16.2872 26.5431 16.9147 26.1645 17.6427C25.7915 18.3733 25.5719 19.1886 25.5221 20.0274C25.4754 20.8648 25.5969 21.7032 25.8776 22.4817L25.8963 22.5321L25.873 22.5773L24.5991 25.0106L24.5087 24.8612L27.0408 24.4666H27.0751L27.1 24.4927C27.7751 25.1978 28.613 25.6793 29.5199 25.8832C29.746 25.9344 29.9754 25.9658 30.2059 25.977C30.4364 25.9944 30.6677 25.9944 30.8982 25.977C31.36 25.9372 31.8145 25.8254 32.2485 25.6451C32.6849 25.4692 33.0958 25.2227 33.4678 24.9133C33.6542 24.7596 33.8323 24.5936 34.001 24.4162C34.1658 24.2337 34.3194 24.0392 34.461 23.8339C35.0356 23.0079 35.3939 22.0207 35.4963 20.9816Z" fill="#263238"/>
<path d="M29.9686 19.2085C30.241 19.5274 30.3929 19.9509 30.3929 20.3913C30.3929 20.8316 30.241 21.2551 29.9686 21.5741C29.8415 21.7301 29.6869 21.8551 29.5143 21.9412C29.3418 22.0274 29.1551 22.0728 28.9661 22.0746C28.7735 22.0737 28.5831 22.0288 28.4066 21.9427C28.2302 21.8566 28.0714 21.7311 27.9401 21.5741C27.6723 21.2526 27.5234 20.83 27.5234 20.3913C27.5234 19.9525 27.6723 19.53 27.9401 19.2085C28.0712 19.051 28.2299 18.9253 28.4064 18.8391C28.5829 18.753 28.7734 18.7083 28.9661 18.7079C29.1552 18.7089 29.3421 18.7539 29.5148 18.8401C29.6874 18.9263 29.842 19.0518 29.9686 19.2085ZM29.9141 20.3921C29.9148 20.0889 29.8129 19.7966 29.6287 19.5735C29.5441 19.4688 29.4407 19.3852 29.3252 19.3279C29.2097 19.2706 29.0847 19.241 28.9583 19.241C28.8319 19.241 28.7069 19.2706 28.5914 19.3279C28.4759 19.3852 28.3725 19.4688 28.2878 19.5735C28.1025 19.7958 28.0004 20.0886 28.0025 20.3921C27.9998 20.6942 28.1021 20.9857 28.2878 21.2056C28.3719 21.3112 28.4752 21.3957 28.5908 21.4536C28.7063 21.5116 28.8316 21.5415 28.9583 21.5415C29.085 21.5415 29.2102 21.5116 29.3258 21.4536C29.4414 21.3957 29.5446 21.3112 29.6287 21.2056C29.8133 20.9848 29.9153 20.6939 29.9141 20.3921Z" fill="#187259"/>
<path d="M31.0949 21.8184V19.0843C31.0949 19.0151 31.1196 18.9488 31.1634 18.8999C31.2073 18.851 31.2668 18.8236 31.3288 18.8236C31.3908 18.8236 31.4503 18.851 31.4942 18.8999C31.538 18.9488 31.5627 19.0151 31.5627 19.0843V20.4244L32.9207 18.9053C32.9421 18.881 32.9675 18.8617 32.9956 18.8485C33.0238 18.8354 33.0539 18.8286 33.0844 18.8286C33.1149 18.8286 33.1451 18.8354 33.1732 18.8485C33.2013 18.8617 33.2268 18.881 33.2482 18.9053C33.2903 18.9544 33.3138 19.0198 33.3138 19.0878C33.3138 19.1558 33.2903 19.2211 33.2482 19.2703L32.3173 20.294L33.2528 21.655C33.2725 21.6807 33.2873 21.7106 33.2963 21.7428C33.3054 21.7751 33.3084 21.8091 33.3054 21.8427C33.3023 21.8763 33.2932 21.9089 33.2785 21.9385C33.2639 21.968 33.244 21.994 33.2201 22.0148C33.1799 22.055 33.1275 22.0767 33.0735 22.0756C33.0403 22.0749 33.0076 22.0661 32.9777 22.0499C32.9478 22.0337 32.9215 22.0105 32.9005 21.9818L31.9961 20.659L31.5596 21.1544V21.8184C31.5596 21.8875 31.5349 21.9538 31.4911 22.0027C31.4472 22.0516 31.3877 22.0791 31.3257 22.0791C31.2636 22.0791 31.2042 22.0516 31.1603 22.0027C31.1164 21.9538 31.0918 21.8875 31.0918 21.8184H31.0949Z" fill="#187259"/>
</svg>
