<svg width="192" height="160" viewBox="0 0 192 160" fill="none" xmlns="http://www.w3.org/2000/svg">
<path d="M167.63 133.734C170.822 135.662 175.994 135.662 179.185 133.734C182.377 131.805 182.372 128.683 179.185 126.754C175.998 124.825 170.822 124.825 167.63 126.754C164.439 128.683 164.443 131.796 167.63 133.734Z" fill="#E0E0E0"/>
<path d="M23.4078 108.307C23.4078 108.307 22.6726 101.82 19.4509 96.808C16.2293 91.7961 11.8054 88.6479 7.67564 88.3279C3.54585 88.0079 0.211748 91.7874 4.64857 94.4123C9.08539 97.0372 16.9169 99.6794 20.5277 109.44L23.4078 108.307Z" fill="#187259"/>
<path d="M23.4078 108.307C23.4078 108.307 22.6726 101.82 19.4509 96.808C16.2293 91.7961 11.8054 88.6479 7.67564 88.3279C3.54585 88.0079 0.211748 91.7874 4.64857 94.4123C9.08539 97.0372 16.9169 99.6794 20.5277 109.44L23.4078 108.307Z" fill="#263238"/>
<path d="M22.197 106.624C22.2111 106.628 22.2262 106.628 22.2403 106.624C22.2672 106.614 22.2918 106.598 22.3126 106.578C22.3333 106.558 22.3498 106.534 22.3611 106.507C22.3724 106.48 22.3782 106.452 22.3783 106.423C22.3783 106.394 22.3726 106.365 22.3614 106.339C18.0067 95.6099 9.71253 91.1255 5.92869 90.2563C5.90029 90.2499 5.87091 90.2493 5.84224 90.2543C5.81358 90.2594 5.7862 90.27 5.76168 90.2857C5.73716 90.3014 5.71598 90.3218 5.69937 90.3457C5.68276 90.3696 5.67105 90.3965 5.6649 90.425C5.65307 90.4816 5.66355 90.5407 5.69416 90.5898C5.72477 90.6389 5.77315 90.6744 5.82923 90.6887C9.5309 91.5536 17.6608 95.9429 21.9505 106.503C21.9712 106.549 22.0071 106.586 22.0521 106.608C22.0971 106.63 22.1483 106.636 22.197 106.624Z" fill="white"/>
<path d="M0.142482 106.754C0.514379 107.597 1.4398 108.051 2.30468 108.38C3.16955 108.709 4.09065 109.094 4.55336 109.889C5.4831 111.502 3.95659 113.781 4.95552 115.329C5.18915 115.643 5.484 115.906 5.82221 116.102C6.16043 116.298 6.53496 116.424 6.92312 116.471C7.5639 116.563 8.20916 116.621 8.85612 116.644C9.16432 116.641 9.47199 116.618 9.77722 116.575C10.6719 116.374 11.608 116.472 12.441 116.856C13.7384 117.578 14.1146 119.191 14.8886 120.436C15.3705 121.173 16.0069 121.797 16.7536 122.263C17.5002 122.73 18.3394 123.029 19.213 123.139C19.7882 123.217 20.8563 123.321 21.4401 122.992C21.4822 122.971 21.5226 122.946 21.5612 122.919C21.6433 122.828 21.7428 122.711 21.786 122.651C21.7949 122.639 21.8021 122.625 21.8077 122.612C22.0369 121.777 21.665 120.908 21.652 120.047C21.6476 119.995 21.6476 119.943 21.652 119.892C21.6866 118.888 21.7168 117.894 21.7385 116.89C21.7846 115.054 21.8033 113.213 21.7947 111.368C21.7947 110.17 21.9244 108.864 21.4185 107.736C20.8606 106.499 19.4638 106.469 18.9406 105.253C18.7287 104.769 18.6163 104.25 18.413 103.762C18.0958 103.044 17.5878 102.427 16.9443 101.978C16.3008 101.529 15.5464 101.265 14.7632 101.214C12.3329 101.089 10.1491 103.061 7.71881 102.879C7.09293 102.795 6.47216 102.677 5.85932 102.525C3.8874 102.157 1.61277 102.719 0.50573 104.384C0.256359 104.72 0.0928752 105.111 0.0295561 105.524C-0.033763 105.937 0.00500757 106.359 0.142482 106.754Z" fill="#37474F"/>
<path d="M22.0067 118.767C22.033 118.76 22.0577 118.749 22.0794 118.733C22.1011 118.716 22.1194 118.696 22.1331 118.673C22.1468 118.649 22.1556 118.623 22.1592 118.596C22.1628 118.57 22.1609 118.542 22.1538 118.516C18.798 105.902 5.51353 104.081 2.4043 104.328C2.3772 104.329 2.3507 104.337 2.32636 104.349C2.30203 104.361 2.28035 104.377 2.26261 104.398C2.24488 104.419 2.23144 104.442 2.2231 104.468C2.21475 104.494 2.21167 104.521 2.21403 104.548C2.21845 104.603 2.24406 104.653 2.28532 104.689C2.32658 104.724 2.38019 104.742 2.43457 104.739C5.46164 104.522 18.4694 106.304 21.7559 118.637C21.7737 118.687 21.8094 118.727 21.8559 118.751C21.9024 118.775 21.9563 118.781 22.0067 118.767Z" fill="white"/>
<path d="M7.23464 112.38C7.27631 112.372 7.31427 112.351 7.34275 112.32C8.57099 111.258 10.0177 110.479 11.5803 110.039C13.143 109.599 14.7833 109.508 16.385 109.772C16.4135 109.781 16.4435 109.783 16.473 109.779C16.5024 109.775 16.5307 109.765 16.5557 109.749C16.5808 109.733 16.6022 109.711 16.6184 109.687C16.6346 109.662 16.6452 109.634 16.6496 109.604C16.654 109.575 16.652 109.545 16.6438 109.516C16.6356 109.488 16.6213 109.461 16.6019 109.438C16.5826 109.416 16.5586 109.398 16.5316 109.385C16.5047 109.373 16.4753 109.366 16.4456 109.366C14.7798 109.09 13.0736 109.186 11.4491 109.647C9.82466 110.107 8.32202 110.921 7.04869 112.03C7.01064 112.069 6.98938 112.122 6.98938 112.177C6.98938 112.232 7.01064 112.284 7.04869 112.324C7.07253 112.348 7.10203 112.366 7.13451 112.376C7.16699 112.385 7.20142 112.387 7.23464 112.38Z" fill="white"/>
<path d="M128.214 0.300243L152.115 14.1037C152.347 14.2554 152.541 14.4597 152.68 14.7001C152.819 14.9405 152.899 15.2103 152.915 15.4875V81.1924C152.899 81.4697 152.819 81.7394 152.68 81.9798C152.541 82.2202 152.347 82.4245 152.115 82.5762L128.214 96.3797C127.966 96.5054 127.692 96.5709 127.414 96.5709C127.136 96.5709 126.862 96.5054 126.614 96.3797L102.713 82.5762C102.48 82.425 102.286 82.2209 102.147 81.9804C102.008 81.7398 101.927 81.4698 101.913 81.1924V15.4875C101.928 15.2103 102.009 14.9405 102.147 14.7001C102.286 14.4597 102.48 14.2554 102.713 14.1037L126.614 0.300243C126.862 0.176477 127.136 0.112061 127.414 0.112061C127.691 0.112061 127.965 0.176477 128.214 0.300243Z" fill="#37474F"/>
<path d="M101.913 15.4874V81.1923C101.928 81.4691 102.008 81.7385 102.146 81.9788C102.284 82.2191 102.477 82.4237 102.708 82.5761L126.614 96.3796C126.859 96.5112 127.135 96.5768 127.414 96.5698V29.0141C127.135 29.019 126.86 28.9535 126.614 28.8238L102.708 15.0247L102.492 14.8431L102.207 14.6052C102.027 14.8654 101.925 15.1714 101.913 15.4874Z" fill="#263238"/>
<path d="M149.113 21.9521L131.21 32.2875C130.977 32.4398 130.784 32.6448 130.645 32.886C130.506 33.1272 130.425 33.3976 130.41 33.6756V40.4865C130.41 40.9968 130.765 41.2044 131.206 40.9492L149.109 30.6139C149.342 30.4623 149.535 30.2579 149.674 30.0175C149.813 29.7771 149.894 29.5074 149.909 29.2301V22.4149C149.913 21.9046 149.576 21.697 149.113 21.9521Z" fill="#455A64"/>
<path d="M148.413 24.958C148.392 25.2263 148.309 25.486 148.17 25.7164C148.031 25.9469 147.84 26.1418 147.613 26.2856L132.711 34.8868C132.279 35.142 131.911 34.9604 131.911 34.4847C131.932 34.2164 132.015 33.9567 132.154 33.7263C132.293 33.4958 132.484 33.3009 132.711 33.1571L147.613 24.5515C148.054 24.2964 148.413 24.478 148.413 24.958Z" fill="#187259"/>
<path d="M148.413 28.4219C148.392 28.6902 148.309 28.9498 148.17 29.1803C148.031 29.4108 147.84 29.6057 147.613 29.7495L132.711 38.3507C132.279 38.6058 131.911 38.4242 131.911 37.9485C131.932 37.6803 132.015 37.4206 132.154 37.1901C132.293 36.9597 132.484 36.7648 132.711 36.6209L147.613 28.0154C148.054 27.7603 148.413 27.9419 148.413 28.4219Z" fill="#263238"/>
<path d="M147.613 28.0153L139.396 32.7721V34.5019L147.613 29.745C147.84 29.6012 148.031 29.4063 148.17 29.1759C148.309 28.9454 148.392 28.6857 148.413 28.4174C148.413 27.9418 148.054 27.7601 147.613 28.0153Z" fill="#187259"/>
<path d="M149.113 34.0779L131.21 44.4132C130.978 44.5651 130.785 44.7695 130.646 45.0098C130.507 45.2502 130.426 45.5198 130.41 45.797V52.6122C130.41 53.1225 130.765 53.3301 131.206 53.0749L149.109 42.7396C149.342 42.588 149.535 42.3837 149.674 42.1433C149.813 41.9029 149.894 41.6331 149.909 41.3558V34.5406C149.913 34.0303 149.576 33.84 149.113 34.0779Z" fill="#455A64"/>
<path d="M148.413 37.0792C148.393 37.3482 148.31 37.6088 148.171 37.84C148.032 38.0713 147.841 38.2669 147.613 38.4111L132.711 47.0123C132.279 47.2675 131.911 47.0858 131.911 46.6102C131.931 46.3411 132.014 46.0806 132.153 45.8493C132.292 45.6181 132.483 45.4225 132.711 45.2782L147.613 36.677C148.054 36.4349 148.413 36.6035 148.413 37.0792Z" fill="#187259"/>
<path d="M148.413 40.5472C148.392 40.8155 148.309 41.0752 148.17 41.3056C148.031 41.5361 147.84 41.731 147.613 41.8748L132.711 50.476C132.279 50.7312 131.911 50.5495 131.911 50.0739C131.932 49.8056 132.015 49.5459 132.154 49.3154C132.293 49.085 132.484 48.8901 132.711 48.7463L147.613 40.1407C148.054 39.8942 148.413 40.0672 148.413 40.5472Z" fill="#263238"/>
<path d="M147.613 40.1407L134.912 47.4922V49.222L147.613 41.8921C147.84 41.7483 148.031 41.5534 148.17 41.3229C148.309 41.0925 148.392 40.8328 148.413 40.5645C148.413 40.0672 148.054 39.8942 147.613 40.1407Z" fill="#187259"/>
<path d="M149.113 46.2034L131.21 56.5387C130.978 56.6903 130.784 56.8946 130.645 57.1351C130.506 57.3755 130.426 57.6452 130.41 57.9225V64.7377C130.41 65.248 130.765 65.4556 131.206 65.2004L149.109 54.8651C149.342 54.7128 149.536 54.5077 149.675 54.2666C149.814 54.0254 149.894 53.7549 149.909 53.477V46.6661C149.913 46.1558 149.576 45.9482 149.113 46.2034Z" fill="#455A64"/>
<path d="M148.413 49.2048C148.392 49.473 148.309 49.7327 148.17 49.9632C148.031 50.1936 147.84 50.3885 147.613 50.5324L132.711 59.1379C132.279 59.393 131.911 59.2114 131.911 58.7314C131.932 58.4631 132.015 58.2035 132.154 57.973C132.293 57.7425 132.484 57.5476 132.711 57.4038L147.613 48.8026C148.054 48.5431 148.413 48.7291 148.413 49.2048Z" fill="#187259"/>
<path d="M148.413 52.6686C148.392 52.9368 148.309 53.1965 148.17 53.427C148.031 53.6575 147.84 53.8524 147.613 53.9962L132.711 62.6017C132.279 62.8569 131.911 62.6752 131.911 62.1952C131.932 61.927 132.015 61.6673 132.154 61.4368C132.293 61.2064 132.484 61.0115 132.711 60.8676L147.613 52.2664C148.054 52.0026 148.413 52.1929 148.413 52.6686Z" fill="#263238"/>
<path d="M147.613 52.2665L142.423 55.2677V56.9974L147.613 53.992C147.84 53.8482 148.031 53.6533 148.17 53.4228C148.309 53.1923 148.392 52.9327 148.413 52.6644C148.413 52.193 148.054 52.0028 147.613 52.2665Z" fill="#187259"/>
<path d="M149.113 58.3291L131.21 68.6644C130.978 68.8161 130.784 69.0204 130.645 69.2608C130.506 69.5012 130.426 69.771 130.41 70.0482V76.8635C130.41 77.3738 130.765 77.5813 131.206 77.3262L149.109 66.9909C149.342 66.8385 149.536 66.6335 149.675 66.3923C149.814 66.1512 149.894 65.8807 149.909 65.6028V58.7918C149.913 58.2816 149.576 58.0567 149.113 58.3291Z" fill="#455A64"/>
<path d="M148.413 61.33C148.392 61.5983 148.309 61.858 148.17 62.0885C148.031 62.3189 147.84 62.5138 147.613 62.6576L132.711 71.2632C132.279 71.5183 131.911 71.3367 131.911 70.8567C131.932 70.5884 132.015 70.3287 132.154 70.0983C132.293 69.8678 132.484 69.6729 132.711 69.5291L147.613 60.9279C148.054 60.6727 148.413 60.8544 148.413 61.33Z" fill="#187259"/>
<path d="M148.413 64.7942C148.392 65.0624 148.309 65.3221 148.17 65.5526C148.031 65.783 147.84 65.9779 147.613 66.1217L132.711 74.7273C132.279 74.9824 131.911 74.8008 131.911 74.3208C131.932 74.0525 132.015 73.7929 132.154 73.5624C132.293 73.3319 132.484 73.137 132.711 72.9932L147.613 64.392C148.054 64.1368 148.413 64.3185 148.413 64.7942Z" fill="#263238"/>
<path d="M147.613 64.392L139.396 69.1272V70.857L147.613 66.1217C147.84 65.9779 148.031 65.783 148.17 65.5526C148.309 65.3221 148.392 65.0624 148.413 64.7942C148.413 64.3185 148.054 64.1368 147.613 64.392Z" fill="#187259"/>
<path d="M149.113 70.4547L131.21 80.7901C130.978 80.9417 130.784 81.146 130.645 81.3864C130.506 81.6268 130.426 81.8966 130.41 82.1739V88.9891C130.41 89.4994 130.765 89.7026 131.206 89.4475L149.109 79.1122C149.342 78.9605 149.535 78.7562 149.674 78.5158C149.813 78.2754 149.894 78.0057 149.909 77.7284V70.9131C149.913 70.4029 149.576 70.1996 149.113 70.4547Z" fill="#455A64"/>
<path d="M148.413 73.4559C148.392 73.7241 148.309 73.9838 148.17 74.2143C148.031 74.4448 147.84 74.6396 147.613 74.7835L132.711 83.389C132.279 83.6398 131.911 83.4625 131.911 82.9825C131.932 82.7142 132.015 82.4546 132.154 82.2241C132.293 81.9936 132.484 81.7987 132.711 81.6549L147.613 73.0494C148.054 72.7986 148.413 72.9759 148.413 73.4559Z" fill="#187259"/>
<path d="M148.413 76.9198C148.392 77.188 148.309 77.4477 148.17 77.6782C148.031 77.9086 147.84 78.1035 147.613 78.2474L132.711 86.8529C132.279 87.108 131.911 86.9264 131.911 86.4464C131.932 86.1781 132.015 85.9185 132.154 85.688C132.293 85.4575 132.484 85.2626 132.711 85.1188L147.613 76.5176C148.054 76.2625 148.413 76.4398 148.413 76.9198Z" fill="#263238"/>
<path d="M147.613 76.5175L136.413 82.9825V84.7122L147.613 78.2256C147.84 78.0818 148.031 77.8869 148.17 77.6565C148.309 77.426 148.392 77.1663 148.413 76.8981C148.413 76.4397 148.054 76.2624 147.613 76.5175Z" fill="#187259"/>
<path d="M123.665 33.1871C122.834 32.7071 122.164 33.1439 122.164 34.1644V73.7802C122.185 74.3185 122.332 74.8443 122.593 75.3158C122.853 75.7872 123.22 76.1914 123.665 76.496C124.49 76.976 125.161 76.5392 125.161 75.5186V35.9028C125.14 35.365 124.994 34.8394 124.734 34.368C124.474 33.8965 124.108 33.4922 123.665 33.1871Z" fill="#37474F"/>
<path d="M123.665 75.6181C123.442 75.466 123.258 75.264 123.127 75.0283C122.997 74.7925 122.923 74.5295 122.912 74.2602V34.5363C122.912 34.026 123.249 33.8055 123.665 34.0476C123.886 34.1997 124.068 34.4012 124.198 34.6361C124.328 34.8711 124.402 35.133 124.413 35.4012V75.1294C124.413 75.6353 124.062 75.8559 123.665 75.6181Z" fill="#263238"/>
<path d="M123.665 75.6179C123.442 75.4659 123.258 75.2639 123.127 75.0282C122.997 74.7924 122.923 74.5294 122.912 74.2601V55.2673L124.413 56.1322V75.125C124.413 75.6352 124.062 75.8558 123.665 75.6179Z" fill="#187259"/>
<path d="M119.163 30.5883C118.332 30.1082 117.662 30.545 117.662 31.5656V71.1814C117.682 71.72 117.827 72.2466 118.088 72.7184C118.349 73.1902 118.717 73.594 119.163 73.8971C119.989 74.3771 120.663 73.9403 120.663 72.9198V33.304C120.642 32.7657 120.495 32.2399 120.234 31.7685C119.974 31.297 119.607 30.8928 119.163 30.5883Z" fill="#37474F"/>
<path d="M119.163 73.0193C118.94 72.8672 118.756 72.6652 118.626 72.4295C118.495 72.1937 118.421 71.9307 118.41 71.6614V31.9375C118.41 31.4272 118.748 31.211 119.163 31.4488C119.385 31.6014 119.568 31.8035 119.698 32.0393C119.827 32.275 119.9 32.5378 119.911 32.8067V72.5306C119.911 73.0409 119.578 73.2571 119.163 73.0193Z" fill="#187259"/>
<path d="M114.661 27.9935C113.835 27.5092 113.161 27.9503 113.161 28.9665V68.5823C113.182 69.1206 113.329 69.6464 113.589 70.1178C113.85 70.5893 114.217 70.9934 114.661 71.298C115.491 71.778 116.162 71.3413 116.162 70.3207V30.7093C116.142 30.1706 115.996 29.644 115.736 29.1722C115.475 28.7004 115.107 28.2966 114.661 27.9935Z" fill="#37474F"/>
<path d="M114.661 70.4202C114.438 70.2695 114.255 70.0684 114.125 69.8332C113.995 69.5979 113.922 69.3353 113.913 69.0666V29.3384C113.913 28.8324 114.246 28.6119 114.661 28.8497C114.884 29.0018 115.068 29.2038 115.198 29.4395C115.329 29.6753 115.403 29.9383 115.414 30.2076V69.9315C115.414 70.4418 115.076 70.6623 114.661 70.4202Z" fill="#263238"/>
<path d="M114.661 70.4203C114.438 70.2697 114.255 70.0685 114.125 69.8333C113.995 69.598 113.922 69.3354 113.913 69.0667V38.3635L115.414 39.2284V69.9316C115.414 70.4419 115.076 70.6624 114.661 70.4203Z" fill="#187259"/>
<path d="M110.164 25.3946C109.333 24.9146 108.663 25.3514 108.663 26.372V65.9834C108.682 66.5221 108.828 67.0487 109.089 67.5205C109.35 67.9923 109.718 68.396 110.164 68.6992C110.99 69.1792 111.66 68.7424 111.66 67.7218V28.1104C111.639 27.5725 111.493 27.0469 111.233 26.5755C110.973 26.104 110.607 25.6997 110.164 25.3946Z" fill="#37474F"/>
<path d="M110.164 67.8212C109.942 67.6696 109.758 67.4683 109.628 67.2333C109.497 66.9984 109.423 66.7362 109.411 66.4677V26.7437C109.411 26.2335 109.749 26.0129 110.164 26.2508C110.386 26.4033 110.569 26.6055 110.699 26.8412C110.828 27.0769 110.901 27.3397 110.912 27.6086V67.3325C110.912 67.8428 110.575 68.0634 110.164 67.8212Z" fill="#263238"/>
<path d="M110.164 67.8214C109.942 67.6698 109.758 67.4685 109.628 67.2336C109.497 66.9986 109.423 66.7364 109.411 66.4679V59.7607L110.912 60.6256V67.3284C110.912 67.843 110.575 68.0636 110.164 67.8214Z" fill="#187259"/>
<path d="M105.662 22.7958C104.832 22.3158 104.161 22.7525 104.161 23.7731V63.3846C104.181 63.9232 104.327 64.4498 104.587 64.9216C104.848 65.3934 105.216 65.7972 105.662 66.1003C106.488 66.5846 107.163 66.1435 107.163 65.1273V25.5115C107.141 24.9733 106.994 24.4475 106.734 23.976C106.473 23.5045 106.106 23.1004 105.662 22.7958Z" fill="#37474F"/>
<path d="M105.662 65.2267C105.439 65.0746 105.256 64.8727 105.125 64.6369C104.994 64.4012 104.921 64.1381 104.91 63.8688V24.1449C104.91 23.6346 105.247 23.4141 105.662 23.6563C105.885 23.8069 106.068 24.008 106.198 24.2433C106.328 24.4785 106.401 24.7412 106.41 25.0098V64.7337C106.41 65.244 106.077 65.4645 105.662 65.2267Z" fill="#263238"/>
<path d="M105.662 65.2265C105.439 65.0745 105.256 64.8725 105.125 64.6368C104.994 64.401 104.921 64.138 104.91 63.8687V43.1418L106.41 44.0067V64.7292C106.41 65.2438 106.077 65.4644 105.662 65.2265Z" fill="#187259"/>
<path d="M124.521 81.3133L104.801 69.9271C104.447 69.7239 104.161 69.8882 104.161 70.299V77.4818C104.173 77.7038 104.237 77.9197 104.349 78.1121C104.46 78.3045 104.615 78.4679 104.801 78.5889L124.521 89.975C124.875 90.1783 125.161 90.0139 125.161 89.6075V82.4203C125.149 82.1984 125.085 81.9824 124.973 81.79C124.862 81.5977 124.707 81.4343 124.521 81.3133Z" fill="#37474F"/>
<path d="M123.712 83.4452C123.712 83.9209 123.353 84.1025 122.912 83.8474L106.41 74.3337C106.183 74.1899 105.992 73.995 105.853 73.7645C105.714 73.5341 105.631 73.2744 105.61 73.0061C105.61 72.5261 105.969 72.3445 106.41 72.5996L122.912 82.1133C123.14 82.2575 123.331 82.4531 123.47 82.6844C123.609 82.9156 123.692 83.1762 123.712 83.4452Z" fill="#263238"/>
<path d="M123.712 83.4454C123.712 83.921 123.353 84.1027 122.912 83.8475L110.912 76.9285V75.1987L122.912 82.1178C123.139 82.2616 123.33 82.4565 123.469 82.6869C123.608 82.9174 123.691 83.1771 123.712 83.4454Z" fill="#187259"/>
<path d="M123.712 86.9091C123.712 87.3848 123.353 87.5664 122.912 87.3112L106.41 77.7976C106.183 77.6538 105.992 77.4589 105.853 77.2284C105.714 76.9979 105.631 76.7382 105.61 76.47C105.61 75.99 105.969 75.8084 106.41 76.0635L122.912 85.5772C123.14 85.7214 123.331 85.917 123.47 86.1482C123.609 86.3795 123.692 86.6401 123.712 86.9091Z" fill="#263238"/>
<path d="M123.712 86.909C123.712 87.3847 123.353 87.5664 122.912 87.3112L118.41 84.7166V82.9868L122.912 85.5815C123.14 85.7253 123.33 85.9202 123.469 86.1506C123.608 86.3811 123.691 86.6408 123.712 86.909Z" fill="#187259"/>
<path d="M102.713 14.1037L126.614 0.300243C126.862 0.176477 127.136 0.112061 127.414 0.112061C127.691 0.112061 127.965 0.176477 128.214 0.300243L152.115 14.1037C152.212 14.1354 152.297 14.197 152.357 14.2797C152.417 14.3624 152.449 14.462 152.449 14.5643C152.449 14.6665 152.417 14.7661 152.357 14.8488C152.297 14.9316 152.212 14.9932 152.115 15.0248L128.214 28.824C127.966 28.9497 127.692 29.0152 127.414 29.0152C127.136 29.0152 126.862 28.9497 126.614 28.824L102.713 15.0248C102.616 14.9932 102.531 14.9316 102.471 14.8488C102.411 14.7661 102.378 14.6665 102.378 14.5643C102.378 14.462 102.411 14.3624 102.471 14.2797C102.531 14.197 102.616 14.1354 102.713 14.1037Z" fill="#455A64"/>
<path d="M127.894 25.5461L146.432 14.8389C146.573 14.7488 146.69 14.6264 146.773 14.482C146.857 14.3375 146.904 14.1752 146.912 14.0086V13.3859C146.904 13.2192 146.857 13.0569 146.773 12.9125C146.69 12.7681 146.573 12.6457 146.432 12.5556L127.894 1.83974C127.745 1.76515 127.58 1.72632 127.414 1.72632C127.247 1.72632 127.083 1.76515 126.934 1.83974L108.391 12.5556C108.251 12.6465 108.135 12.769 108.051 12.9133C107.968 13.0576 107.92 13.2195 107.911 13.3859V14.0086C107.92 14.175 107.968 14.3369 108.051 14.4812C108.135 14.6254 108.251 14.748 108.391 14.8389L126.934 25.5461C127.083 25.6207 127.247 25.6595 127.414 25.6595C127.58 25.6595 127.745 25.6207 127.894 25.5461Z" fill="#263238"/>
<path d="M146.432 13.1089L127.894 23.8118C127.745 23.8884 127.581 23.9284 127.414 23.9284C127.247 23.9284 127.082 23.8884 126.934 23.8118L108.391 13.1089C108.334 13.0885 108.284 13.0509 108.249 13.0014C108.215 12.9518 108.196 12.8927 108.196 12.8322C108.196 12.7716 108.215 12.7125 108.249 12.663C108.284 12.6134 108.334 12.5759 108.391 12.5554L126.934 2.22009C127.082 2.14349 127.247 2.10352 127.414 2.10352C127.581 2.10352 127.745 2.14349 127.894 2.22009L146.432 12.5554C146.491 12.5737 146.543 12.6104 146.58 12.6602C146.616 12.71 146.636 12.7703 146.636 12.8322C146.636 12.894 146.616 12.9543 146.58 13.0041C146.543 13.0539 146.491 13.0906 146.432 13.1089Z" fill="#455A64"/>
<path d="M127.414 23.9286V25.6583C127.581 25.6627 127.746 25.624 127.894 25.5459L146.432 14.8387C146.573 14.7486 146.69 14.6262 146.773 14.4818C146.857 14.3374 146.904 14.1751 146.912 14.0084V13.3857C146.905 13.2373 146.866 13.0922 146.799 12.9596C146.732 12.827 146.638 12.71 146.523 12.616C146.696 12.7673 146.666 12.9749 146.432 13.1089L127.894 23.8118C127.746 23.8914 127.581 23.9316 127.414 23.9286Z" fill="#37474F"/>
<path d="M127.894 20.3481L140.434 13.1091C140.576 13.0196 140.695 12.8977 140.781 12.7533C140.867 12.609 140.917 12.4463 140.927 12.2788V11.6517C140.917 11.4856 140.869 11.3241 140.785 11.1799C140.702 11.0358 140.586 10.9131 140.447 10.8214L132.391 6.16407C132.083 5.97076 131.809 5.72658 131.582 5.4419L127.742 0.252624C127.65 0.132059 127.518 0.0486634 127.369 0.0176944C127.221 -0.0132747 127.066 0.0102518 126.934 0.0839714L114.393 7.32301C114.253 7.41365 114.137 7.53615 114.053 7.68047C113.97 7.82479 113.922 7.98682 113.913 8.15329V12.2442C113.922 12.4106 113.97 12.5725 114.054 12.7167C114.137 12.861 114.253 12.9836 114.393 13.0745L126.934 20.3135C127.079 20.3955 127.242 20.4414 127.409 20.4475C127.577 20.4535 127.743 20.4194 127.894 20.3481Z" fill="#263238"/>
<path d="M126.934 18.6183L118.873 13.9739C118.72 13.8836 118.575 13.7794 118.441 13.6625C118.296 13.5322 118.166 13.3872 118.051 13.2301L114.211 8.04079C114.168 7.9856 114.137 7.92147 114.12 7.85293C114.104 7.7844 114.103 7.71315 114.118 7.64423C114.132 7.57532 114.162 7.51042 114.204 7.45415C114.246 7.39787 114.3 7.3516 114.363 7.31862L126.903 0.0795782C127.036 0.00585863 127.191 -0.0176695 127.339 0.0132995C127.488 0.0442686 127.62 0.127664 127.712 0.248229L131.552 5.43751C131.754 5.72908 132.006 5.98241 132.296 6.18563L140.404 10.7998C140.461 10.8202 140.51 10.8578 140.545 10.9073C140.58 10.9569 140.599 11.016 140.599 11.0765C140.599 11.1371 140.58 11.1962 140.545 11.2457C140.51 11.2952 140.461 11.3328 140.404 11.3533L127.863 18.5966C127.72 18.6698 127.562 18.7097 127.401 18.7135C127.24 18.7172 127.08 18.6847 126.934 18.6183Z" fill="#455A64"/>
<path d="M114.393 7.35768L126.934 0.118641C127.066 0.0449211 127.221 0.021393 127.369 0.052362C127.518 0.0833311 127.65 0.166727 127.742 0.287292L131.582 5.47657C131.7 5.62482 131.831 5.76099 131.976 5.88306C131.976 5.88306 118.479 13.667 118.475 13.667C118.328 13.5378 118.196 13.3928 118.082 13.2345L114.242 8.04526C114.204 7.99095 114.178 7.92945 114.165 7.86461C114.152 7.79977 114.153 7.73298 114.167 7.66843C114.181 7.60388 114.209 7.54296 114.248 7.48949C114.286 7.43602 114.336 7.39114 114.393 7.35768Z" fill="#37474F"/>
<path d="M137.39 10.9509C137.216 10.8614 137.023 10.8147 136.828 10.8147C136.632 10.8147 136.44 10.8614 136.266 10.9509C135.954 11.1282 135.954 11.418 136.266 11.5996C136.44 11.6871 136.633 11.7326 136.828 11.7326C137.023 11.7326 137.216 11.6871 137.39 11.5996C137.701 11.418 137.701 11.1282 137.39 10.9509Z" fill="#187259"/>
<path d="M135.141 12.2483C134.967 12.1608 134.774 12.1152 134.579 12.1152C134.384 12.1152 134.191 12.1608 134.017 12.2483C133.706 12.4299 133.706 12.7197 134.017 12.897C134.191 12.9865 134.384 13.0332 134.579 13.0332C134.775 13.0332 134.967 12.9865 135.141 12.897C135.453 12.7197 135.453 12.4299 135.141 12.2483Z" fill="#187259"/>
<path d="M132.893 13.546C132.717 13.4584 132.524 13.4128 132.328 13.4128C132.132 13.4128 131.939 13.4584 131.764 13.546C131.696 13.5697 131.638 13.6138 131.596 13.6723C131.555 13.7308 131.532 13.8007 131.532 13.8725C131.532 13.9442 131.555 14.0141 131.596 14.0726C131.638 14.1311 131.696 14.1752 131.764 14.1989C131.939 14.2865 132.132 14.3321 132.328 14.3321C132.524 14.3321 132.717 14.2865 132.893 14.1989C132.96 14.1752 133.019 14.1311 133.06 14.0726C133.102 14.0141 133.124 13.9442 133.124 13.8725C133.124 13.8007 133.102 13.7308 133.06 13.6723C133.019 13.6138 132.96 13.5697 132.893 13.546Z" fill="#263238"/>
<path d="M130.64 14.8474C130.466 14.7579 130.273 14.7112 130.078 14.7112C129.882 14.7112 129.689 14.7579 129.515 14.8474C129.447 14.87 129.388 14.9135 129.346 14.9717C129.304 15.0299 129.281 15.0999 129.281 15.1717C129.281 15.2436 129.304 15.3136 129.346 15.3718C129.388 15.43 129.447 15.4735 129.515 15.4961C129.689 15.5856 129.882 15.6323 130.078 15.6323C130.273 15.6323 130.466 15.5856 130.64 15.4961C130.708 15.4735 130.767 15.43 130.809 15.3718C130.851 15.3136 130.874 15.2436 130.874 15.1717C130.874 15.0999 130.851 15.0299 130.809 14.9717C130.767 14.9135 130.708 14.87 130.64 14.8474Z" fill="#263238"/>
<path d="M135.704 9.97388C135.529 9.88638 135.337 9.84082 135.141 9.84082C134.946 9.84082 134.754 9.88638 134.579 9.97388C134.512 9.99759 134.453 10.0417 134.411 10.1002C134.37 10.1587 134.348 10.2287 134.348 10.3004C134.348 10.3721 134.37 10.442 134.411 10.5005C134.453 10.559 134.512 10.6032 134.579 10.6269C134.754 10.7144 134.946 10.7599 135.141 10.7599C135.337 10.7599 135.529 10.7144 135.704 10.6269C135.771 10.6032 135.83 10.559 135.871 10.5005C135.913 10.442 135.935 10.3721 135.935 10.3004C135.935 10.2287 135.913 10.1587 135.871 10.1002C135.83 10.0417 135.771 9.99759 135.704 9.97388Z" fill="#187259"/>
<path d="M133.455 11.2754C133.28 11.1859 133.087 11.1392 132.89 11.1392C132.694 11.1392 132.501 11.1859 132.326 11.2754C132.258 11.298 132.199 11.3415 132.156 11.3997C132.114 11.4579 132.092 11.5279 132.092 11.5997C132.092 11.6716 132.114 11.7416 132.156 11.7998C132.199 11.858 132.258 11.9015 132.326 11.9241C132.501 12.0116 132.695 12.0572 132.89 12.0572C133.086 12.0572 133.28 12.0116 133.455 11.9241C133.523 11.9015 133.582 11.858 133.624 11.7998C133.666 11.7416 133.689 11.6716 133.689 11.5997C133.689 11.5279 133.666 11.4579 133.624 11.3997C133.582 11.3415 133.523 11.298 133.455 11.2754Z" fill="#263238"/>
<path d="M130.64 13.3555C131.079 13.3555 131.435 13.1503 131.435 12.8971C131.435 12.6439 131.079 12.4387 130.64 12.4387C130.2 12.4387 129.844 12.6439 129.844 12.8971C129.844 13.1503 130.2 13.3555 130.64 13.3555Z" fill="#187259"/>
<path d="M128.953 13.8745C128.779 13.785 128.586 13.7383 128.391 13.7383C128.195 13.7383 128.003 13.785 127.829 13.8745C127.517 14.0518 127.517 14.3415 127.829 14.5232C128.003 14.6107 128.196 14.6562 128.391 14.6562C128.586 14.6562 128.779 14.6107 128.953 14.5232C129.251 14.3415 129.251 14.0518 128.953 13.8745Z" fill="#263238"/>
<path d="M134.008 9.00098C133.834 8.91348 133.641 8.86792 133.446 8.86792C133.251 8.86792 133.058 8.91348 132.884 9.00098C132.573 9.18261 132.573 9.47234 132.884 9.64964C133.058 9.73916 133.251 9.78586 133.446 9.78586C133.642 9.78586 133.834 9.73916 134.008 9.64964C134.328 9.47234 134.328 9.19126 134.008 9.00098Z" fill="#263238"/>
<path d="M131.764 10.2981C131.589 10.2106 131.397 10.165 131.202 10.165C131.007 10.165 130.814 10.2106 130.64 10.2981C130.572 10.3218 130.513 10.366 130.472 10.4245C130.43 10.483 130.408 10.5529 130.408 10.6246C130.408 10.6963 130.43 10.7662 130.472 10.8247C130.513 10.8832 130.572 10.9274 130.64 10.9511C130.814 11.0386 131.007 11.0841 131.202 11.0841C131.397 11.0841 131.589 11.0386 131.764 10.9511C131.832 10.9274 131.89 10.8832 131.932 10.8247C131.973 10.7662 131.996 10.6963 131.996 10.6246C131.996 10.5529 131.973 10.483 131.932 10.4245C131.89 10.366 131.832 10.3218 131.764 10.2981Z" fill="#187259"/>
<path d="M129.515 11.5998C129.341 11.5103 129.149 11.4636 128.953 11.4636C128.758 11.4636 128.565 11.5103 128.391 11.5998C128.323 11.6224 128.264 11.6659 128.221 11.7241C128.179 11.7823 128.157 11.8523 128.157 11.9242C128.157 11.996 128.179 12.066 128.221 12.1242C128.264 12.1825 128.323 12.2259 128.391 12.2485C128.566 12.336 128.758 12.3816 128.953 12.3816C129.148 12.3816 129.341 12.336 129.515 12.2485C129.584 12.2259 129.643 12.1825 129.685 12.1242C129.727 12.066 129.75 11.996 129.75 11.9242C129.75 11.8523 129.727 11.7823 129.685 11.7241C129.643 11.6659 129.584 11.6224 129.515 11.5998Z" fill="#263238"/>
<path d="M128.387 16.1101C128.212 16.0226 128.02 15.9771 127.824 15.9771C127.629 15.9771 127.437 16.0226 127.262 16.1101C126.951 16.2917 126.951 16.5815 127.262 16.7588C127.436 16.8483 127.629 16.895 127.824 16.895C128.02 16.895 128.213 16.8483 128.387 16.7588C128.689 16.5901 128.689 16.3004 128.387 16.1101Z" fill="#187259"/>
<path d="M126.692 15.1457C126.518 15.0562 126.325 15.0095 126.129 15.0095C125.934 15.0095 125.741 15.0562 125.567 15.1457C125.499 15.1683 125.44 15.2118 125.398 15.27C125.356 15.3282 125.333 15.3982 125.333 15.4701C125.333 15.5419 125.356 15.6119 125.398 15.6701C125.44 15.7283 125.499 15.7718 125.567 15.7944C125.741 15.8839 125.934 15.9306 126.129 15.9306C126.325 15.9306 126.518 15.8839 126.692 15.7944C126.76 15.7718 126.819 15.7283 126.861 15.6701C126.903 15.6119 126.926 15.5419 126.926 15.4701C126.926 15.3982 126.903 15.3282 126.861 15.27C126.819 15.2118 126.76 15.1683 126.692 15.1457Z" fill="#263238"/>
<path d="M127.267 12.897C127.092 12.8095 126.9 12.7639 126.704 12.7639C126.509 12.7639 126.317 12.8095 126.142 12.897C126.075 12.9207 126.016 12.9648 125.974 13.0233C125.933 13.0818 125.911 13.1518 125.911 13.2235C125.911 13.2952 125.933 13.3651 125.974 13.4236C126.016 13.4821 126.075 13.5263 126.142 13.55C126.317 13.6375 126.509 13.683 126.704 13.683C126.9 13.683 127.092 13.6375 127.267 13.55C127.334 13.5263 127.393 13.4821 127.434 13.4236C127.476 13.3651 127.498 13.2952 127.498 13.2235C127.498 13.1518 127.476 13.0818 127.434 13.0233C127.393 12.9648 127.334 12.9207 127.267 12.897Z" fill="#263238"/>
<path d="M132.33 8.02786C132.156 7.93831 131.962 7.8916 131.766 7.8916C131.57 7.8916 131.376 7.93831 131.202 8.02786C131.134 8.05042 131.074 8.09391 131.032 8.15213C130.99 8.21036 130.967 8.28036 130.967 8.35219C130.967 8.42402 130.99 8.49402 131.032 8.55224C131.074 8.61047 131.134 8.65395 131.202 8.67652C131.376 8.76607 131.57 8.81278 131.766 8.81278C131.962 8.81278 132.156 8.76607 132.33 8.67652C132.399 8.65395 132.458 8.61047 132.5 8.55224C132.542 8.49402 132.565 8.42402 132.565 8.35219C132.565 8.28036 132.542 8.21036 132.5 8.15213C132.458 8.09391 132.399 8.05042 132.33 8.02786Z" fill="#187259"/>
<path d="M129.515 10.1079C129.955 10.1079 130.311 9.90271 130.311 9.64955C130.311 9.39639 129.955 9.19116 129.515 9.19116C129.076 9.19116 128.719 9.39639 128.719 9.64955C128.719 9.90271 129.076 10.1079 129.515 10.1079Z" fill="#263238"/>
<path d="M127.829 10.6267C127.655 10.5372 127.462 10.4905 127.267 10.4905C127.071 10.4905 126.878 10.5372 126.704 10.6267C126.393 10.804 126.393 11.0937 126.704 11.2754C126.879 11.3629 127.071 11.4084 127.267 11.4084C127.462 11.4084 127.654 11.3629 127.829 11.2754C128.14 11.0937 128.14 10.804 127.829 10.6267Z" fill="#187259"/>
<path d="M125.58 11.9241C125.405 11.8366 125.212 11.791 125.016 11.791C124.82 11.791 124.627 11.8366 124.451 11.9241C124.383 11.9467 124.324 11.9902 124.282 12.0484C124.24 12.1066 124.217 12.1766 124.217 12.2485C124.217 12.3203 124.24 12.3903 124.282 12.4485C124.324 12.5067 124.383 12.5502 124.451 12.5728C124.626 12.6623 124.82 12.7091 125.016 12.7091C125.212 12.7091 125.405 12.6623 125.58 12.5728C125.648 12.5502 125.708 12.5067 125.75 12.4485C125.792 12.3903 125.814 12.3203 125.814 12.2485C125.814 12.1766 125.792 12.1066 125.75 12.0484C125.708 11.9902 125.648 11.9467 125.58 11.9241Z" fill="#263238"/>
<path d="M125.005 14.1729C124.83 14.0833 124.637 14.0366 124.44 14.0366C124.244 14.0366 124.051 14.0833 123.876 14.1729C123.808 14.1954 123.749 14.2389 123.707 14.2972C123.664 14.3554 123.642 14.4254 123.642 14.4972C123.642 14.569 123.664 14.639 123.707 14.6973C123.749 14.7555 123.808 14.799 123.876 14.8215C124.051 14.9111 124.244 14.9578 124.44 14.9578C124.637 14.9578 124.83 14.9111 125.005 14.8215C125.073 14.799 125.132 14.7555 125.174 14.6973C125.216 14.639 125.239 14.569 125.239 14.4972C125.239 14.4254 125.216 14.3554 125.174 14.2972C125.132 14.2389 125.073 14.1954 125.005 14.1729Z" fill="#187259"/>
<path d="M123.314 13.1999C123.14 13.1104 122.948 13.0637 122.752 13.0637C122.556 13.0637 122.364 13.1104 122.19 13.1999C121.878 13.3772 121.878 13.667 122.19 13.8486C122.364 13.9361 122.557 13.9817 122.752 13.9817C122.947 13.9817 123.14 13.9361 123.314 13.8486C123.63 13.667 123.63 13.3772 123.314 13.1999Z" fill="#263238"/>
<path d="M127.388 18.7304V20.4602C127.563 20.4683 127.738 20.4295 127.894 20.3478L140.434 13.1087C140.577 13.0183 140.695 12.8956 140.781 12.7506C140.867 12.6055 140.917 12.4423 140.927 12.2741V11.6514C140.919 11.5035 140.879 11.3591 140.811 11.2273C140.743 11.0955 140.649 10.9793 140.534 10.886C140.707 11.0373 140.677 11.2406 140.447 11.3746L127.907 18.618C127.747 18.702 127.568 18.7409 127.388 18.7304Z" fill="#37474F"/>
<path d="M129.926 5.24285C129.863 5.16404 129.775 5.10967 129.676 5.08914C129.577 5.06861 129.475 5.08321 129.386 5.13042L118.462 11.4181C118.421 11.4397 118.384 11.4703 118.356 11.5077C118.327 11.5451 118.308 11.5884 118.298 11.6344C118.289 11.6804 118.29 11.7279 118.301 11.7735C118.312 11.8192 118.333 11.8617 118.363 11.8981C118.426 11.9769 118.514 12.0313 118.613 12.0518C118.711 12.0723 118.814 12.0577 118.903 12.0105L129.822 5.73151C129.865 5.70996 129.903 5.67905 129.932 5.64108C129.961 5.6031 129.982 5.55902 129.992 5.5121C130.002 5.46519 130.001 5.41663 129.99 5.37003C129.978 5.32342 129.957 5.27996 129.926 5.24285Z" fill="#263238"/>
<path d="M129.926 5.24285C129.863 5.16404 129.775 5.10967 129.676 5.08914C129.577 5.06861 129.475 5.08321 129.386 5.13042L121.26 9.80077L121.714 10.4062L129.822 5.73151C129.865 5.70996 129.903 5.67905 129.932 5.64108C129.961 5.6031 129.982 5.55902 129.992 5.5121C130.002 5.46519 130.001 5.41663 129.989 5.37003C129.978 5.32342 129.956 5.27996 129.926 5.24285Z" fill="#187259"/>
<path d="M129.022 4.03227C128.96 3.95449 128.872 3.90079 128.774 3.8803C128.677 3.8598 128.575 3.87377 128.486 3.91984L117.576 10.2032C117.534 10.2258 117.499 10.2571 117.471 10.295C117.443 10.3328 117.423 10.3763 117.414 10.4223C117.404 10.4684 117.405 10.516 117.416 10.5618C117.427 10.6076 117.447 10.6505 117.476 10.6875C117.539 10.7663 117.627 10.8207 117.726 10.8412C117.825 10.8618 117.928 10.8472 118.017 10.8L128.927 4.49931C128.966 4.47658 129 4.44593 129.026 4.40936C129.052 4.37278 129.07 4.3311 129.079 4.28703C129.088 4.24297 129.088 4.1975 129.078 4.1536C129.068 4.10971 129.049 4.06836 129.022 4.03227Z" fill="#263238"/>
<path d="M129.022 4.03227C128.96 3.95449 128.872 3.90079 128.774 3.8803C128.677 3.8598 128.575 3.87377 128.486 3.91984L125.77 5.48527L126.224 6.07771L128.936 4.51228C128.976 4.48898 129.011 4.45724 129.037 4.41925C129.064 4.38126 129.082 4.33794 129.09 4.29228C129.098 4.24662 129.097 4.19971 129.085 4.15482C129.073 4.10992 129.052 4.0681 129.022 4.03227Z" fill="#187259"/>
<path d="M128.119 2.82122C128.056 2.74241 127.967 2.68804 127.869 2.66751C127.77 2.64698 127.667 2.66158 127.578 2.70879L116.655 8.99213C116.613 9.01475 116.578 9.04606 116.55 9.0839C116.522 9.12175 116.502 9.16521 116.493 9.21129C116.483 9.25736 116.484 9.30495 116.495 9.35074C116.506 9.39653 116.526 9.43943 116.555 9.47647C116.618 9.55528 116.706 9.60965 116.805 9.63018C116.904 9.65071 117.007 9.63611 117.096 9.5889L128.006 3.28825C128.046 3.26704 128.082 3.23751 128.109 3.20163C128.137 3.16574 128.157 3.12433 128.168 3.08014C128.179 3.03596 128.18 2.99001 128.171 2.94537C128.163 2.90072 128.145 2.8584 128.119 2.82122Z" fill="#263238"/>
<path d="M128.118 2.82122C128.056 2.74241 127.967 2.68804 127.868 2.66751C127.77 2.64698 127.667 2.66158 127.578 2.70879L121.9 5.96506L122.354 6.57047L128.036 3.30123C128.076 3.27756 128.11 3.24554 128.136 3.20738C128.163 3.16922 128.18 3.12582 128.188 3.08018C128.196 3.03455 128.194 2.98776 128.182 2.94305C128.17 2.89834 128.148 2.85678 128.118 2.82122Z" fill="#187259"/>
<path d="M127.219 1.61028C127.156 1.53147 127.068 1.4771 126.969 1.45657C126.87 1.43604 126.768 1.45064 126.678 1.49785L115.755 7.7812C115.714 7.80381 115.678 7.83512 115.65 7.87297C115.622 7.91081 115.603 7.95428 115.593 8.00035C115.584 8.04643 115.585 8.09401 115.595 8.1398C115.606 8.18559 115.627 8.22849 115.656 8.26553C115.718 8.34434 115.807 8.39871 115.906 8.41924C116.004 8.43977 116.107 8.42517 116.196 8.37797L127.107 2.07732C127.147 2.05611 127.182 2.02658 127.21 1.99069C127.238 1.95481 127.258 1.91339 127.268 1.86921C127.279 1.82502 127.28 1.77908 127.272 1.73443C127.263 1.68979 127.245 1.64747 127.219 1.61028Z" fill="#263238"/>
<path d="M127.219 1.61028C127.156 1.53147 127.068 1.4771 126.969 1.45657C126.87 1.43604 126.768 1.45064 126.679 1.49785L116.758 7.20173L117.212 7.80715L127.115 2.09029C127.157 2.06853 127.193 2.03793 127.221 2.00065C127.25 1.96338 127.27 1.92033 127.279 1.87455C127.289 1.82877 127.289 1.78138 127.279 1.73572C127.268 1.69005 127.248 1.64723 127.219 1.61028Z" fill="#187259"/>
<path d="M106.047 82.3339C106.08 82.3224 106.115 82.3192 106.15 82.3245C106.185 82.3298 106.218 82.3434 106.246 82.3642C106.334 82.4225 106.407 82.5006 106.459 82.5922C106.512 82.6837 106.543 82.7863 106.548 82.8917C106.551 82.9252 106.546 82.9589 106.534 82.9903C106.522 83.0216 106.503 83.05 106.479 83.0734L106.445 83.095L93.4456 90.5978L92.5807 90.1048L106.047 82.3339Z" fill="#455A64"/>
<path d="M107.802 83.35C107.835 83.3376 107.87 83.3334 107.905 83.338C107.94 83.3425 107.973 83.3555 108.001 83.376C108.09 83.4338 108.164 83.5117 108.218 83.6033C108.271 83.6949 108.302 83.7977 108.308 83.9035C108.311 83.9381 108.306 83.9729 108.293 84.0051C108.281 84.0374 108.261 84.0663 108.235 84.0895L108.2 84.1111L95.2012 91.6139L94.3363 91.121L107.802 83.35Z" fill="#455A64"/>
<path d="M109.558 84.362C109.591 84.3505 109.627 84.3473 109.661 84.3526C109.696 84.3578 109.729 84.3714 109.757 84.3922C109.845 84.4494 109.919 84.5266 109.971 84.6175C110.024 84.7085 110.054 84.8106 110.06 84.9155C110.063 84.9497 110.058 84.984 110.046 85.0162C110.034 85.0483 110.015 85.0774 109.991 85.1014L109.952 85.1231L96.957 92.6259L96.0922 92.1329L109.558 84.362Z" fill="#455A64"/>
<path d="M111.314 85.3741C111.348 85.3636 111.384 85.3609 111.419 85.3661C111.454 85.3714 111.488 85.3844 111.517 85.4043C111.605 85.4627 111.678 85.5407 111.731 85.6323C111.783 85.7239 111.814 85.8265 111.82 85.9319C111.823 85.9655 111.818 85.9993 111.806 86.0308C111.794 86.0622 111.775 86.0906 111.751 86.1135L111.716 86.1352L98.7169 93.638L97.8521 93.145L111.314 85.3741Z" fill="#455A64"/>
<path d="M22.4391 127.922C22.4825 128.517 22.6656 129.094 22.9737 129.606C23.2817 130.118 23.706 130.549 24.2121 130.867L73.9425 159.568C74.4926 159.847 75.1008 159.992 75.7177 159.992C76.3346 159.992 76.9428 159.847 77.4929 159.568L145.507 120.298C146.043 120.014 146.491 119.59 146.804 119.071C147.116 118.552 147.282 117.957 147.282 117.351C147.282 116.744 147.116 116.15 146.804 115.63C146.491 115.111 146.043 114.687 145.507 114.404L95.7937 85.7025C95.2437 85.4254 94.6365 85.281 94.0207 85.281C93.4048 85.281 92.7976 85.4254 92.2477 85.7025L24.2294 124.972C23.7195 125.288 23.2915 125.72 22.9804 126.232C22.6692 126.745 22.4837 127.324 22.4391 127.922Z" fill="#187259"/>
<path opacity="0.7" d="M75.7154 156.151V159.991C75.0958 160.001 74.4842 159.852 73.9381 159.559L24.2292 130.867C23.7079 130.594 23.2685 130.187 22.9559 129.688C22.6434 129.19 22.469 128.617 22.4505 128.029C22.432 127.441 22.5702 126.858 22.8508 126.341C23.1314 125.824 23.5444 125.39 24.0476 125.085C23.2519 125.656 23.3125 126.49 24.2292 127.018L73.9597 155.719C74.4986 156.01 75.1029 156.159 75.7154 156.151Z" fill="black"/>
<path d="M20.7917 125.037C20.2948 124.7 19.8849 124.25 19.5955 123.724C19.3061 123.197 19.1455 122.61 19.1268 122.01V62.7053C19.1605 62.0902 19.3386 61.4918 19.6466 60.9583C19.9546 60.4249 20.384 59.9715 20.8998 59.6349L88.9181 20.3651C89.4313 20.0434 90.0225 19.8676 90.6281 19.8565C91.2337 19.8455 91.8309 19.9996 92.3555 20.3024C92.8801 20.6051 93.3123 21.0451 93.6057 21.575C93.8992 22.1049 94.0427 22.7047 94.0209 23.31V82.6321C93.9879 83.2473 93.8101 83.846 93.502 84.3795C93.1939 84.9131 92.7642 85.3663 92.2479 85.7024L24.2296 124.972C23.7021 125.253 23.1158 125.405 22.5184 125.416C21.9211 125.427 21.3294 125.298 20.7917 125.037Z" fill="#187259"/>
<path opacity="0.7" d="M24.0175 125.085C23.5092 125.313 22.957 125.428 22.3997 125.421C21.8424 125.413 21.2935 125.284 20.7915 125.042C20.2948 124.704 19.8851 124.254 19.5957 123.728C19.3064 123.202 19.1456 122.615 19.1266 122.014V62.7053C19.1506 62.0942 19.3292 61.4991 19.6455 60.9756L22.9753 62.8956C22.6576 63.4188 22.4776 64.0139 22.452 64.6254V123.952C22.4391 124.998 23.1396 125.47 24.0175 125.085Z" fill="black"/>
<path opacity="0.5" d="M22.4391 64.6298V123.952C22.4391 125.081 23.2304 125.539 24.2121 124.972L92.2304 85.7026C92.7467 85.3665 93.1764 84.9132 93.4845 84.3797C93.7926 83.8462 93.9704 83.2475 94.0034 82.6323V23.3102C94.0034 22.1772 93.2077 21.7188 92.2304 22.2853L24.2294 61.5551C23.7095 61.89 23.2763 62.3431 22.9651 62.8775C22.6539 63.4119 22.4737 64.0124 22.4391 64.6298Z" fill="black"/>
<path d="M24.2293 127.022L73.9597 155.723C74.5098 156.002 75.118 156.148 75.7349 156.148C76.3518 156.148 76.96 156.002 77.51 155.723L145.502 116.436C146.484 115.87 146.484 114.953 145.502 114.386L95.7935 85.7025C95.2436 85.4254 94.6364 85.281 94.0206 85.281C93.4047 85.281 92.7975 85.4254 92.2476 85.7025L24.2293 124.972C23.2476 125.539 23.2476 126.456 24.2293 127.022Z" fill="#187259"/>
<path opacity="0.3" d="M24.2293 127.022L73.9597 155.723C74.5098 156.002 75.118 156.148 75.7349 156.148C76.3518 156.148 76.96 156.002 77.51 155.723L145.502 116.436C146.484 115.87 146.484 114.953 145.502 114.386L95.7935 85.7025C95.2436 85.4254 94.6364 85.281 94.0206 85.281C93.4047 85.281 92.7975 85.4254 92.2476 85.7025L24.2293 124.972C23.2476 125.539 23.2476 126.456 24.2293 127.022Z" fill="black"/>
<path d="M25.1851 64.846L90.7644 26.9945C91.3525 26.6572 91.8282 26.934 91.8282 27.6129V78.9651C91.8081 79.3342 91.7012 79.6933 91.5164 80.0133C91.3316 80.3334 91.074 80.6054 90.7644 80.8073L25.1851 118.659C24.597 118.996 24.1169 118.724 24.1169 118.045V66.7055C24.1359 66.3333 24.2426 65.9709 24.4282 65.6477C24.6138 65.3246 24.8731 65.0499 25.1851 64.846Z" fill="#FAFAFA"/>
<path d="M68.4506 56.8331L68.0182 68.6906C68.0182 73.5729 64.9522 82.3903 58.6429 88.9072C58.1903 89.3401 57.6176 89.6264 56.9996 89.7288C56.6796 89.7591 56.3726 89.7721 56.0699 89.7721C54.7204 89.792 53.3897 89.4549 52.2126 88.7947L52.1736 88.7731L52.1001 88.7256C49.2936 87.0304 47.9098 83.5709 47.9098 80.3103L47.4773 68.976C47.4746 68.6699 47.5891 68.3744 47.7974 68.1501C47.9522 67.9661 48.1456 67.8185 48.3638 67.7176C51.2525 66.4203 55.5812 61.3219 57.6137 56.2753C57.7607 55.9164 57.977 55.7996 58.2191 55.912L58.2537 55.9337C58.3365 55.9802 58.411 56.0401 58.4743 56.111L58.5132 56.1585C60.6754 58.6667 64.9089 58.6623 67.7371 56.5001C67.9533 56.3358 68.1306 56.2839 68.2517 56.3358C68.3987 56.4223 68.4593 56.578 68.4506 56.8331Z" fill="#187259"/>
<path opacity="0.2" d="M57.9724 55.8945C57.8908 55.9287 57.8179 55.9805 57.7588 56.0464C57.6997 56.1122 57.656 56.1903 57.6308 56.2751C55.5983 61.3217 51.2696 66.4374 48.3809 67.7174C48.1627 67.8183 47.9693 67.9659 47.8144 68.1499C47.6061 68.3742 47.4916 68.6697 47.4944 68.9758L47.9269 80.3101C47.9269 83.5836 49.3107 87.0432 52.1302 88.7254L52.2037 88.7729L52.2426 88.7945C53.4197 89.4547 54.7505 89.7919 56.1 89.7719C56.4027 89.7719 56.7097 89.7719 57.0297 89.7286C57.3678 89.6814 57.6936 89.5698 57.9897 89.4L57.9724 55.8945Z" fill="black"/>
<path opacity="0.3" d="M29.9979 125.487L93.134 89.0367C93.4089 88.898 93.7125 88.8257 94.0205 88.8257C94.3284 88.8257 94.6321 88.898 94.907 89.0367L98.1373 90.9005C98.2447 90.9366 98.338 91.0054 98.4041 91.0974C98.4702 91.1893 98.5058 91.2997 98.5058 91.413C98.5058 91.5262 98.4702 91.6366 98.4041 91.7286C98.338 91.8205 98.2447 91.8894 98.1373 91.9254L34.9796 128.371C34.7047 128.51 34.4011 128.582 34.0931 128.582C33.7852 128.582 33.4815 128.51 33.2066 128.371L29.985 126.512C29.878 126.475 29.7855 126.405 29.7206 126.312C29.6556 126.219 29.6214 126.108 29.6228 125.995C29.6243 125.882 29.6613 125.772 29.7286 125.68C29.7959 125.589 29.8901 125.522 29.9979 125.487Z" fill="black"/>
<path opacity="0.3" d="M38.3225 130.274L101.459 93.8238C101.733 93.683 102.037 93.6096 102.345 93.6096C102.653 93.6096 102.957 93.683 103.232 93.8238L123.093 105.292C123.201 105.328 123.294 105.397 123.36 105.489C123.426 105.581 123.462 105.691 123.462 105.805C123.462 105.918 123.426 106.028 123.36 106.12C123.294 106.212 123.201 106.281 123.093 106.317L60.0309 142.733C59.7552 142.871 59.4509 142.943 59.1423 142.943C58.8337 142.943 58.5294 142.871 58.2536 142.733L38.3225 131.312C38.2077 131.282 38.106 131.215 38.0334 131.121C37.9608 131.027 37.9214 130.912 37.9214 130.793C37.9214 130.674 37.9608 130.559 38.0334 130.465C38.106 130.371 38.2077 130.304 38.3225 130.274Z" fill="black"/>
<path d="M94.9156 110.239L96.8918 109.098C96.974 109.05 96.9697 108.968 96.8918 108.916L94.6086 107.597C94.5595 107.573 94.5055 107.56 94.4507 107.56C94.3959 107.56 94.3419 107.573 94.2929 107.597L92.3166 108.739C92.2301 108.791 92.2345 108.868 92.3166 108.92L94.6042 110.244C94.653 110.267 94.7064 110.278 94.7604 110.277C94.8144 110.277 94.8674 110.264 94.9156 110.239ZM91.0236 105.707L89.0344 106.845C88.9479 106.897 88.9523 106.974 89.0344 107.031L91.322 108.349C91.3711 108.374 91.4251 108.387 91.4799 108.387C91.5346 108.387 91.5887 108.374 91.6377 108.349L93.6139 107.208C93.6961 107.16 93.6918 107.078 93.6139 107.026L91.3307 105.707C91.2819 105.682 91.2278 105.669 91.1728 105.669C91.1179 105.669 91.0637 105.682 91.015 105.707H91.0236ZM84.6365 109.392L81.2894 111.325C81.2073 111.372 81.2116 111.454 81.2894 111.506L83.577 112.804C83.6253 112.828 83.6786 112.841 83.7327 112.841C83.7868 112.841 83.8401 112.828 83.8884 112.804L87.2355 110.871C87.3176 110.823 87.3133 110.741 87.2355 110.689L84.9522 109.392C84.902 109.366 84.8464 109.352 84.79 109.352C84.7336 109.352 84.678 109.366 84.6279 109.392H84.6365ZM88.1263 107.355L86.1457 108.497C86.0636 108.544 86.0679 108.626 86.1457 108.678L88.4333 109.975C88.4824 110 88.5364 110.013 88.5912 110.013C88.6459 110.013 88.7 110 88.749 109.975L90.7253 108.834C90.8074 108.786 90.8031 108.704 90.7253 108.652L88.442 107.333C88.3913 107.312 88.3364 107.303 88.2816 107.307C88.2268 107.311 88.1736 107.327 88.1263 107.355ZM80.3856 111.852L78.3921 112.977C78.3099 113.029 78.3143 113.111 78.3921 113.163L80.6754 114.482C80.7244 114.506 80.7785 114.519 80.8332 114.519C80.888 114.519 80.942 114.506 80.9911 114.482L82.9673 113.34C83.0538 113.292 83.0495 113.21 82.9673 113.158L80.6797 111.861C80.6344 111.838 80.5845 111.825 80.5337 111.823C80.4828 111.822 80.4322 111.832 80.3856 111.852ZM77.497 113.517L75.5207 114.659C75.4385 114.706 75.4429 114.789 75.5207 114.84L77.804 116.159C77.8527 116.185 77.9069 116.198 77.9618 116.198C78.0168 116.198 78.0709 116.185 78.1197 116.159L80.0959 115.018C80.1824 114.97 80.1781 114.888 80.0959 114.836L77.791 113.526C77.7432 113.501 77.6903 113.487 77.6363 113.485C77.5824 113.484 77.5288 113.495 77.4797 113.517H77.497ZM86.4874 118.884L88.4679 117.742C88.5501 117.695 88.5458 117.612 88.4679 117.56L86.1803 116.242C86.1316 116.216 86.0774 116.203 86.0225 116.203C85.9675 116.203 85.9134 116.216 85.8646 116.242L83.8452 117.379C83.763 117.426 83.7673 117.509 83.8452 117.56L86.1284 118.858C86.1785 118.891 86.2362 118.91 86.2959 118.915C86.3556 118.919 86.4156 118.909 86.4701 118.884H86.4874ZM83.5987 120.553L85.5749 119.411C85.6614 119.364 85.6571 119.282 85.5749 119.23L83.2873 117.932C83.2383 117.908 83.1842 117.895 83.1295 117.895C83.0747 117.895 83.0207 117.908 82.9716 117.932L80.9694 119.031C80.8873 119.078 80.8916 119.161 80.9694 119.212L83.2527 120.536C83.302 120.565 83.3577 120.582 83.4149 120.585C83.4721 120.588 83.5293 120.577 83.5814 120.553H83.5987ZM80.71 122.222L82.6862 121.081C82.7727 121.033 82.7684 120.951 82.6862 120.899L80.3856 119.58C80.3369 119.555 80.2828 119.541 80.2278 119.541C80.1728 119.541 80.1187 119.555 80.07 119.58L78.0937 120.722C78.0116 120.769 78.0159 120.851 78.0937 120.903L80.377 122.222C80.426 122.247 80.4801 122.259 80.5348 122.259C80.5896 122.259 80.6436 122.247 80.6927 122.222H80.71ZM77.791 123.887L79.7673 122.75C79.8537 122.698 79.8451 122.616 79.7673 122.564L77.4797 121.245C77.4306 121.22 77.3766 121.208 77.3218 121.208C77.267 121.208 77.213 121.22 77.164 121.245L75.1964 122.382C75.1142 122.43 75.1185 122.512 75.1964 122.564L77.4797 123.883C77.5275 123.908 77.5807 123.922 77.6348 123.922C77.6889 123.923 77.7425 123.911 77.791 123.887ZM92.0139 111.908L93.9902 110.767C94.0723 110.719 94.068 110.637 93.9902 110.585L91.7069 109.266C91.6578 109.242 91.6038 109.229 91.549 109.229C91.4943 109.229 91.4403 109.242 91.3912 109.266L89.415 110.382C89.3285 110.43 89.3328 110.512 89.415 110.564L91.7026 111.883C91.7506 111.912 91.8052 111.93 91.8616 111.935C91.918 111.939 91.9747 111.93 92.0269 111.908H92.0139ZM89.3458 117.219L93.7566 114.672C93.8431 114.624 93.8345 114.542 93.7566 114.49L88.2041 111.286C88.1551 111.261 88.1011 111.249 88.0463 111.249C87.9915 111.249 87.9375 111.261 87.8885 111.286L85.6095 112.605C85.523 112.652 85.5273 112.734 85.6095 112.786L88.5501 114.482C88.6409 114.533 88.6452 114.616 88.5501 114.663L86.7252 115.718C86.643 115.766 86.6474 115.848 86.7252 115.9L89.0128 117.219C89.0654 117.249 89.125 117.265 89.1858 117.265C89.2465 117.265 89.3062 117.249 89.3587 117.219H89.3458ZM74.578 115.186L72.6017 116.328C72.5196 116.376 72.5239 116.458 72.6017 116.51L74.885 117.829C74.9341 117.853 74.9881 117.866 75.0429 117.866C75.0976 117.866 75.1517 117.853 75.2007 117.829L77.1769 116.687C77.2634 116.639 77.2591 116.557 77.1769 116.505L74.8893 115.186C74.8428 115.164 74.7918 115.152 74.7402 115.152C74.6885 115.152 74.6375 115.164 74.591 115.186H74.578ZM71.7023 116.869L69.726 118.01C69.6439 118.058 69.6482 118.14 69.726 118.192L72.0093 119.511C72.058 119.536 72.1122 119.549 72.1671 119.549C72.2221 119.549 72.2762 119.536 72.325 119.511L74.3012 118.373C74.3877 118.322 74.3791 118.239 74.3012 118.188L72.0136 116.89C71.9668 116.863 71.9144 116.847 71.8605 116.843C71.8065 116.84 71.7524 116.848 71.7023 116.869ZM57.2675 135.572C57.3162 135.597 57.3704 135.61 57.4253 135.61C57.4803 135.61 57.5344 135.597 57.5832 135.572L59.5594 134.434C59.6416 134.382 59.6372 134.3 59.5594 134.248L57.2718 132.929C57.2236 132.905 57.1703 132.892 57.1161 132.892C57.062 132.892 57.0086 132.905 56.9604 132.929L54.9799 134.071C54.8977 134.119 54.902 134.201 54.9799 134.253L57.2675 135.572ZM48.5884 130.214L46.6122 131.351C46.53 131.403 46.5343 131.481 46.6122 131.537L48.8955 132.856C48.9445 132.88 48.9985 132.893 49.0533 132.893C49.1081 132.893 49.1621 132.88 49.2111 132.856L51.1874 131.714C51.2739 131.667 51.2695 131.584 51.1874 131.533L48.8998 130.214C48.8526 130.187 48.7998 130.172 48.7457 130.17C48.6915 130.167 48.6376 130.178 48.5884 130.201V130.214ZM53.2415 134.127C53.2905 134.152 53.3445 134.164 53.3993 134.164C53.4541 134.164 53.5081 134.152 53.5571 134.127L55.5334 132.986C55.6156 132.938 55.6112 132.856 55.5334 132.804L53.2501 131.485C53.2011 131.461 53.147 131.448 53.0923 131.448C53.0375 131.448 52.9835 131.461 52.9344 131.485L50.9582 132.627C50.8717 132.679 50.876 132.756 50.9582 132.808L53.2415 134.127ZM62.3659 136.583L64.3422 135.446C64.4287 135.394 64.4243 135.312 64.3422 135.26L62.0546 133.941C62.0055 133.917 61.9515 133.904 61.8967 133.904C61.842 133.904 61.7879 133.917 61.7389 133.941L59.7626 135.083C59.6805 135.13 59.6848 135.213 59.7626 135.265L62.0459 136.583C62.0963 136.608 62.1517 136.619 62.2075 136.617C62.2633 136.615 62.3177 136.599 62.3659 136.571V136.583ZM59.1616 138.248C59.2106 138.273 59.2646 138.285 59.3194 138.285C59.3742 138.285 59.4282 138.273 59.4772 138.248L61.4535 137.107C61.54 137.059 61.5313 136.977 61.4535 136.925L59.1659 135.606C59.1168 135.582 59.0628 135.569 59.008 135.569C58.9533 135.569 58.8992 135.582 58.8502 135.606L56.874 136.748C56.7918 136.8 56.7961 136.878 56.874 136.929L59.1616 138.248ZM51.4771 128.544L49.5009 129.686C49.4187 129.734 49.423 129.816 49.5009 129.868L51.7885 131.187C51.8364 131.212 51.8899 131.225 51.9441 131.225C51.9984 131.225 52.0519 131.212 52.0998 131.187L54.0804 130.049C54.1626 129.997 54.1582 129.92 54.0804 129.863L51.7928 128.566C51.7454 128.538 51.6923 128.522 51.6375 128.518C51.5827 128.514 51.5278 128.523 51.4771 128.544ZM65.9249 120.203L63.953 121.331C63.8665 121.379 63.8751 121.461 63.953 121.513L66.2406 122.832C66.2896 122.856 66.3436 122.869 66.3984 122.869C66.4532 122.869 66.5072 122.856 66.5563 122.832L68.5325 121.69C68.6147 121.643 68.6103 121.561 68.5325 121.509L66.2492 120.19C66.1991 120.164 66.1435 120.15 66.0871 120.15C66.0306 120.15 65.9751 120.164 65.9249 120.19V120.203ZM54.3701 126.875L52.3896 128.017C52.3074 128.064 52.3117 128.147 52.3896 128.198L54.6772 129.517C54.7262 129.542 54.7802 129.554 54.835 129.554C54.8898 129.554 54.9438 129.542 54.9928 129.517L56.9691 128.376C57.0513 128.328 57.0469 128.246 56.9691 128.194L54.6815 126.875C54.6342 126.849 54.5814 126.834 54.5274 126.832C54.4733 126.829 54.4194 126.84 54.3701 126.862V126.875ZM68.8136 118.533L66.8373 119.675C66.7509 119.727 66.7595 119.805 66.8373 119.857L69.1249 121.18C69.174 121.204 69.228 121.217 69.2828 121.217C69.3375 121.217 69.3916 121.204 69.4406 121.18L71.4169 120.038C71.5033 119.991 71.4947 119.909 71.4169 119.857L69.1422 118.529C69.0922 118.501 69.0362 118.486 68.979 118.484C68.9217 118.483 68.865 118.495 68.8136 118.52V118.533ZM63.0362 121.872L61.06 123.014C60.9735 123.061 60.9778 123.143 61.06 123.195L63.3476 124.492C63.3966 124.517 63.4506 124.53 63.5054 124.53C63.5602 124.53 63.6142 124.517 63.6632 124.492L65.6395 123.351C65.7216 123.299 65.7173 123.221 65.6395 123.169L63.3562 121.846C63.3056 121.823 63.2502 121.812 63.1947 121.814C63.1391 121.817 63.0848 121.832 63.0362 121.859V121.872ZM60.1475 123.541L58.1713 124.652C58.0848 124.7 58.0891 124.782 58.1713 124.834L60.4589 126.153C60.5076 126.178 60.5618 126.192 60.6167 126.192C60.6717 126.192 60.7258 126.178 60.7745 126.153L62.7508 125.011C62.833 124.964 62.8286 124.882 62.7508 124.83L60.4675 123.532C60.4186 123.506 60.3638 123.491 60.3081 123.491C60.2523 123.49 60.1971 123.503 60.1475 123.528V123.541ZM57.2588 125.206L55.3042 126.335C55.2177 126.382 55.222 126.464 55.3042 126.516L57.5918 127.84C57.6408 127.864 57.6949 127.877 57.7496 127.877C57.8044 127.877 57.8584 127.864 57.9075 127.84L59.8837 126.698C59.9659 126.65 59.9616 126.568 59.8837 126.516L57.6004 125.197C57.5485 125.168 57.4899 125.152 57.4302 125.151C57.3705 125.151 57.3115 125.165 57.2588 125.193V125.206ZM72.0266 127.238L74.0028 126.097C74.085 126.049 74.0807 125.967 74.0028 125.915L71.7196 124.596C71.6705 124.572 71.6165 124.559 71.5617 124.559C71.507 124.559 71.4529 124.572 71.4039 124.596L69.4276 125.738C69.3412 125.785 69.3498 125.868 69.4276 125.92L71.7152 127.238C71.7631 127.264 71.816 127.277 71.8699 127.279C71.9239 127.28 71.9775 127.269 72.0266 127.247V127.238ZM97.4021 102.032L95.4215 103.173C95.3394 103.221 95.3437 103.303 95.4215 103.355L97.7091 104.652C97.7582 104.677 97.8122 104.689 97.867 104.689C97.9217 104.689 97.9758 104.677 98.0248 104.652L100.001 103.51C100.083 103.459 100.079 103.381 100.001 103.329L97.7135 102.006C97.6643 101.983 97.6104 101.972 97.5562 101.975C97.5021 101.977 97.4493 101.992 97.4021 102.019V102.032ZM93.9037 104.051L91.9274 105.193C91.8409 105.24 91.8453 105.322 91.9274 105.374L94.215 106.693C94.2638 106.719 94.3179 106.732 94.3729 106.732C94.4278 106.732 94.482 106.719 94.5307 106.693L96.507 105.556C96.5891 105.504 96.5848 105.422 96.507 105.37L94.2237 104.042C94.1744 104.017 94.1198 104.003 94.0642 104.002C94.0086 104.001 93.9536 104.014 93.9037 104.038V104.051ZM100.278 100.349L98.3016 101.491C98.2151 101.539 98.2194 101.621 98.3016 101.673L100.589 102.992C100.638 103.016 100.692 103.029 100.747 103.029C100.802 103.029 100.856 103.016 100.905 102.992L102.881 101.85C102.963 101.802 102.959 101.72 102.881 101.668L100.598 100.349C100.548 100.324 100.493 100.311 100.438 100.311C100.382 100.311 100.327 100.324 100.278 100.349ZM85.3241 115.77L87.3003 114.629C87.3825 114.581 87.3782 114.499 87.3003 114.447L85.0171 113.15C84.968 113.125 84.914 113.113 84.8592 113.113C84.8045 113.113 84.7504 113.125 84.7014 113.15L82.7208 114.274C82.6386 114.326 82.643 114.404 82.7208 114.456L85.0084 115.779C85.0598 115.804 85.1166 115.816 85.1738 115.815C85.231 115.813 85.2871 115.798 85.3371 115.77H85.3241ZM103.487 98.6888C103.437 98.6644 103.383 98.6517 103.329 98.6517C103.274 98.6517 103.22 98.6644 103.171 98.6888L101.195 99.8304C101.108 99.8823 101.112 99.9602 101.195 100.012L103.482 101.335C103.531 101.36 103.585 101.372 103.64 101.372C103.695 101.372 103.749 101.36 103.798 101.335L105.774 100.194C105.856 100.146 105.852 100.064 105.774 100.012L103.487 98.6888ZM74.9066 125.556L76.8829 124.415C76.9694 124.367 76.9607 124.285 76.8829 124.233L74.5953 122.936C74.5462 122.911 74.4922 122.899 74.4374 122.899C74.3827 122.899 74.3287 122.911 74.2796 122.936L72.3034 124.077C72.2169 124.129 72.2255 124.207 72.3034 124.259L74.5866 125.582C74.6394 125.605 74.6969 125.614 74.7542 125.61C74.8114 125.605 74.8667 125.587 74.9153 125.556H74.9066ZM110.336 105.102L112.313 103.96C112.395 103.913 112.39 103.831 112.313 103.779L110.029 102.46C109.98 102.435 109.926 102.423 109.871 102.423C109.817 102.423 109.763 102.435 109.714 102.46L107.737 103.601C107.651 103.649 107.66 103.731 107.737 103.783L110.025 105.08C110.072 105.11 110.127 105.127 110.182 105.131C110.238 105.135 110.294 105.125 110.345 105.102H110.336ZM104.183 104.886L106.159 103.744C106.241 103.696 106.237 103.614 106.159 103.562L103.876 102.243C103.827 102.219 103.773 102.206 103.718 102.206C103.663 102.206 103.609 102.219 103.56 102.243L101.575 103.376C101.489 103.424 101.493 103.506 101.575 103.558L103.863 104.855C103.911 104.887 103.966 104.906 104.023 104.911C104.081 104.916 104.138 104.908 104.191 104.886H104.183ZM106.751 100.561C106.702 100.537 106.648 100.524 106.594 100.524C106.539 100.524 106.485 100.537 106.436 100.561L104.46 101.703C104.373 101.755 104.377 101.833 104.46 101.885L106.747 103.208C106.796 103.232 106.85 103.245 106.905 103.245C106.96 103.245 107.014 103.232 107.063 103.208L109.039 102.066C109.121 102.019 109.117 101.936 109.039 101.885L106.751 100.561ZM107.357 100.211L112.909 103.415C112.958 103.441 113.012 103.454 113.067 103.454C113.122 103.454 113.176 103.441 113.225 103.415L115.201 102.274C115.288 102.226 115.279 102.144 115.201 102.092L109.649 98.8877C109.6 98.8623 109.546 98.8491 109.491 98.8491C109.436 98.8491 109.382 98.8623 109.333 98.8877L107.357 100.029C107.27 100.09 107.279 100.172 107.366 100.224L107.357 100.211ZM100.667 103.895L98.6908 105.037C98.6043 105.085 98.6086 105.167 98.6908 105.219L100.978 106.538C101.027 106.563 101.081 106.576 101.136 106.576C101.191 106.576 101.245 106.563 101.294 106.538L103.27 105.4C103.352 105.348 103.348 105.271 103.27 105.214L100.983 103.895C100.934 103.871 100.88 103.858 100.825 103.858C100.77 103.858 100.716 103.871 100.667 103.895ZM78.9197 116.436L76.9261 117.599C76.844 117.647 76.8483 117.729 76.9261 117.781L79.2094 119.1C79.2585 119.124 79.3125 119.137 79.3673 119.137C79.422 119.137 79.476 119.124 79.5251 119.1L81.5013 117.958C81.5878 117.906 81.5835 117.829 81.5013 117.777L79.2137 116.453C79.1673 116.433 79.117 116.423 79.0662 116.424C79.0155 116.424 78.9655 116.436 78.9197 116.458V116.436ZM107.141 106.741C107.19 106.765 107.244 106.778 107.298 106.778C107.353 106.778 107.407 106.765 107.456 106.741L109.433 105.599C109.515 105.552 109.51 105.469 109.433 105.418L107.149 104.12C107.101 104.095 107.046 104.082 106.991 104.082C106.936 104.082 106.882 104.095 106.834 104.12L104.857 105.262C104.771 105.309 104.775 105.392 104.857 105.444L107.141 106.741ZM81.8084 114.767L79.8321 115.909C79.75 115.956 79.7543 116.038 79.8321 116.09L82.1154 117.431C82.1637 117.455 82.217 117.468 82.2711 117.468C82.3251 117.468 82.3785 117.455 82.4268 117.431L84.4073 116.289C84.4895 116.242 84.4852 116.159 84.4073 116.107L82.1154 114.797C82.0681 114.773 82.016 114.759 81.9629 114.758C81.9097 114.756 81.8569 114.767 81.8084 114.789V114.767ZM60.1562 133.868C60.2052 133.892 60.2592 133.905 60.314 133.905C60.3688 133.905 60.4228 133.892 60.4718 133.868L62.4481 132.726C62.5303 132.679 62.5259 132.596 62.4481 132.545L60.1648 131.226C60.1158 131.201 60.0617 131.188 60.007 131.188C59.9522 131.188 59.8982 131.201 59.8491 131.226L57.8729 132.367C57.7864 132.415 57.7907 132.497 57.8729 132.549L60.1562 133.868ZM55.8102 129.781L53.8339 130.923C53.7474 130.97 53.7517 131.053 53.8339 131.104L56.1215 132.402C56.1702 132.427 56.2244 132.44 56.2794 132.44C56.3343 132.44 56.3884 132.427 56.4372 132.402L58.4134 131.26C58.4956 131.213 58.4913 131.13 58.4134 131.079L56.1302 129.76C56.0774 129.74 56.0206 129.733 55.9647 129.741C55.9089 129.749 55.8558 129.77 55.8102 129.803V129.781ZM63.3605 132.207L65.3368 131.066C65.4189 131.018 65.4146 130.936 65.3368 130.884L63.0535 129.587C63.0045 129.562 62.9504 129.55 62.8957 129.55C62.8409 129.55 62.7869 129.562 62.7378 129.587L60.7486 130.707C60.6621 130.754 60.6664 130.836 60.7486 130.888L63.0362 132.212C63.085 132.24 63.1399 132.256 63.1963 132.259C63.2527 132.262 63.309 132.252 63.3605 132.229V132.207ZM66.2492 130.538L68.2255 129.396C68.3076 129.349 68.3033 129.267 68.2255 129.215L65.9422 127.896C65.8935 127.87 65.8393 127.857 65.7844 127.857C65.7294 127.857 65.6752 127.87 65.6265 127.896L63.6503 129.037C63.5638 129.085 63.5681 129.167 63.6503 129.219L65.9379 130.516C65.9825 130.548 66.0341 130.568 66.0883 130.576C66.1425 130.583 66.1977 130.578 66.2492 130.56V130.538ZM69.1379 128.873L71.1142 127.731C71.1963 127.68 71.192 127.602 71.1142 127.55L68.8309 126.227C68.7818 126.202 68.7278 126.189 68.673 126.189C68.6183 126.189 68.5642 126.202 68.5152 126.227L66.5476 127.386C66.4611 127.433 66.4654 127.515 66.5476 127.567L68.8352 128.886C68.8825 128.91 68.9346 128.924 68.9877 128.925C69.0409 128.927 69.0937 128.916 69.1422 128.895L69.1379 128.873ZM58.6988 128.112L56.7226 129.254C56.6361 129.301 56.6404 129.383 56.7226 129.435L59.0102 130.754C59.0592 130.779 59.1133 130.791 59.168 130.791C59.2228 130.791 59.2768 130.779 59.3259 130.754L61.3021 129.613C61.3843 129.561 61.38 129.483 61.3021 129.431L59.0188 128.108C58.9672 128.087 58.9113 128.078 58.8557 128.082C58.8001 128.087 58.7464 128.104 58.6988 128.134V128.112ZM61.5875 126.443L59.6286 127.606C59.5421 127.654 59.5464 127.736 59.6286 127.788L61.9162 129.107C61.9652 129.131 62.0193 129.144 62.074 129.144C62.1288 129.144 62.1828 129.131 62.2319 129.107L64.2081 127.965C64.2903 127.917 64.2859 127.835 64.2081 127.783L61.9248 126.464C61.873 126.436 61.8151 126.422 61.7562 126.422C61.6973 126.422 61.6393 126.436 61.5875 126.464V126.443ZM73.1423 119.77L71.166 120.912C71.0839 120.959 71.0882 121.042 71.166 121.093L73.4493 122.412C73.4981 122.438 73.5522 122.451 73.6072 122.451C73.6621 122.451 73.7163 122.438 73.765 122.412L75.7412 121.271C75.8277 121.223 75.8234 121.141 75.7412 121.089L73.4666 119.801C73.4172 119.773 73.3619 119.758 73.3055 119.757C73.2491 119.755 73.1931 119.767 73.1423 119.792V119.77ZM70.2536 121.439L68.2774 122.603C68.1952 122.65 68.1995 122.732 68.2774 122.784L70.5606 124.103C70.6097 124.128 70.6637 124.14 70.7185 124.14C70.7732 124.14 70.8273 124.128 70.8763 124.103L72.8526 122.962C72.939 122.914 72.9347 122.832 72.8526 122.78L70.565 121.461C70.5168 121.436 70.4634 121.424 70.4093 121.424C70.3551 121.424 70.3018 121.436 70.2536 121.461V121.439ZM76.031 118.105L74.0547 119.243C73.9726 119.295 73.9769 119.377 74.0547 119.429L76.338 120.726C76.3871 120.75 76.4411 120.763 76.4959 120.763C76.5506 120.763 76.6046 120.75 76.6537 120.726L78.6299 119.584C78.7164 119.537 78.7121 119.455 78.6299 119.403L76.3423 118.084C76.2908 118.065 76.2356 118.06 76.1814 118.067C76.1272 118.075 76.0756 118.095 76.031 118.127V118.105ZM64.4762 124.774L62.5 125.95C62.4135 126.002 62.4221 126.08 62.5 126.131L64.7876 127.455C64.8366 127.479 64.8906 127.492 64.9454 127.492C65.0002 127.492 65.0542 127.479 65.1033 127.455L67.0795 126.313C67.1617 126.265 67.1573 126.183 67.0795 126.131L64.7962 124.834C64.7498 124.803 64.6965 124.783 64.6409 124.776C64.5853 124.769 64.5288 124.776 64.4762 124.795V124.774ZM67.3649 123.109L65.3887 124.25C65.3065 124.298 65.3108 124.38 65.3887 124.432L67.6719 125.729C67.7207 125.755 67.7748 125.768 67.8298 125.768C67.8847 125.768 67.9389 125.755 67.9876 125.729L69.9639 124.592C70.0504 124.54 70.0417 124.458 69.9639 124.406L67.6763 123.087C67.6245 123.07 67.5695 123.065 67.5155 123.072C67.4615 123.08 67.41 123.1 67.3649 123.13V123.109ZM65.2503 134.906L67.2265 133.764C67.313 133.716 67.3087 133.634 67.2265 133.582L64.9389 132.285C64.8902 132.26 64.836 132.246 64.7811 132.246C64.7261 132.246 64.672 132.26 64.6233 132.285L62.6557 133.396C62.5735 133.444 62.5778 133.526 62.6557 133.578L64.9389 134.897C64.9867 134.922 65.0396 134.936 65.0936 134.937C65.1476 134.939 65.2012 134.928 65.2503 134.906ZM48.2987 133.176L46.0111 131.857C45.962 131.833 45.908 131.82 45.8532 131.82C45.7985 131.82 45.7445 131.833 45.6954 131.857L43.7192 132.999C43.637 133.046 43.6413 133.128 43.7192 133.18L46.0024 134.499C46.0515 134.524 46.1055 134.536 46.1603 134.536C46.2151 134.536 46.2691 134.524 46.3181 134.499L48.2944 133.357C48.3852 133.327 48.3852 133.245 48.303 133.193L48.2987 133.176ZM52.6231 134.447L50.3355 133.128C50.2872 133.104 50.2339 133.091 50.1798 133.091C50.1257 133.091 50.0724 133.104 50.0241 133.128L46.9971 134.884C46.9149 134.932 46.9192 135.014 46.9971 135.066L49.2803 136.363C49.3294 136.387 49.3834 136.4 49.4382 136.4C49.4929 136.4 49.547 136.387 49.596 136.363L52.6231 134.607C52.7096 134.599 52.7096 134.516 52.6317 134.465L52.6231 134.447ZM44.7873 130.624L42.4997 129.306C42.4506 129.281 42.3966 129.268 42.3418 129.268C42.2871 129.268 42.2331 129.281 42.184 129.306L39.7624 130.707C39.6759 130.754 39.6802 130.836 39.7624 130.888L42.05 132.207C42.099 132.232 42.153 132.244 42.2078 132.244C42.2626 132.244 42.3166 132.232 42.3656 132.207L44.7959 130.802C44.8911 130.776 44.8867 130.707 44.7959 130.642L44.7873 130.624ZM46.6511 129.548C46.6998 129.573 46.754 129.586 46.8089 129.586C46.8639 129.586 46.918 129.573 46.9668 129.548L48.943 128.406C49.0295 128.358 49.0209 128.276 48.943 128.224L46.6554 126.927C46.6064 126.903 46.5524 126.89 46.4976 126.89C46.4428 126.89 46.3888 126.903 46.3397 126.927L44.3635 128.069C44.2813 128.116 44.2857 128.198 44.3635 128.25L46.6511 129.548ZM56.6577 135.896L54.3701 134.599C54.3214 134.573 54.2673 134.56 54.2123 134.56C54.1573 134.56 54.1032 134.573 54.0545 134.599L50.2533 136.761C50.1712 136.808 50.1755 136.891 50.2533 136.942L52.5409 138.261C52.5892 138.286 52.6425 138.298 52.6966 138.298C52.7507 138.298 52.804 138.286 52.8523 138.261L56.6577 136.065C56.7529 136.043 56.7485 135.961 56.6577 135.896ZM58.5561 138.573L56.2685 137.254C56.2195 137.229 56.1655 137.217 56.1107 137.217C56.0559 137.217 56.0019 137.229 55.9529 137.254L53.5182 138.659C53.4361 138.707 53.4404 138.789 53.5182 138.841L55.8058 140.16C55.8549 140.184 55.9089 140.197 55.9637 140.197C56.0184 140.197 56.0725 140.184 56.1215 140.16L58.5518 138.754C58.6513 138.72 58.6426 138.638 58.5561 138.586V138.573ZM68.139 117.15C68.188 117.174 68.242 117.187 68.2968 117.187C68.3516 117.187 68.4056 117.174 68.4547 117.15L70.4309 116.008C70.5174 115.956 70.5131 115.878 70.4309 115.826L68.1433 114.503C68.0943 114.479 68.0402 114.466 67.9855 114.466C67.9307 114.466 67.8767 114.479 67.8276 114.503L65.8514 115.645C65.7692 115.692 65.7735 115.774 65.8514 115.826L68.139 117.15ZM62.3616 120.484C62.4103 120.509 62.4645 120.522 62.5194 120.522C62.5744 120.522 62.6285 120.509 62.6773 120.484L64.6535 119.342C64.74 119.295 64.7357 119.212 64.6535 119.16L62.3659 117.842C62.3169 117.817 62.2629 117.804 62.2081 117.804C62.1533 117.804 62.0993 117.817 62.0502 117.842L60.061 118.996C59.9789 119.044 59.9832 119.126 60.061 119.178L62.3616 120.484ZM49.5484 127.896C49.5975 127.92 49.6515 127.933 49.7063 127.933C49.761 127.933 49.8151 127.92 49.8641 127.896L51.8404 126.754C51.9269 126.707 51.9225 126.624 51.8404 126.573L49.5528 125.249C49.5037 125.225 49.4497 125.212 49.3949 125.212C49.3402 125.212 49.2861 125.225 49.2371 125.249L47.2522 126.382C47.17 126.43 47.1744 126.512 47.2522 126.564L49.5484 127.896ZM65.2503 118.815C65.2993 118.839 65.3534 118.852 65.4081 118.852C65.4629 118.852 65.5169 118.839 65.566 118.815L67.5422 117.673C67.6287 117.625 67.6244 117.543 67.5422 117.491L65.2503 116.194C65.2016 116.169 65.1474 116.155 65.0924 116.155C65.0375 116.155 64.9834 116.169 64.9346 116.194L62.9584 117.331C62.8762 117.383 62.8805 117.465 62.9584 117.517L65.2503 118.815ZM59.4729 122.149C59.522 122.173 59.576 122.186 59.6308 122.186C59.6855 122.186 59.7395 122.173 59.7886 122.149L61.7648 121.007C61.8513 120.959 61.8427 120.877 61.7648 120.825L59.4772 119.502C59.4282 119.478 59.3742 119.465 59.3194 119.465C59.2646 119.465 59.2106 119.478 59.1616 119.502L57.1853 120.644C57.1031 120.691 57.1075 120.773 57.1853 120.825L59.4729 122.149ZM60.1432 138.78C60.0941 138.756 60.0401 138.743 59.9853 138.743C59.9306 138.743 59.8766 138.756 59.8275 138.78L56.8004 140.536C56.714 140.584 56.7183 140.666 56.8004 140.718L59.088 142.037C59.1371 142.061 59.1911 142.074 59.2459 142.074C59.3006 142.074 59.3547 142.061 59.4037 142.037L62.4308 140.281C62.513 140.233 62.5086 140.151 62.4308 140.099L60.1432 138.78ZM55.3258 124.544C55.3749 124.569 55.4289 124.581 55.4837 124.581C55.5384 124.581 55.5925 124.569 55.6415 124.544L57.6177 123.403C57.7042 123.355 57.6999 123.273 57.6177 123.221L55.3042 121.924C55.2555 121.898 55.2013 121.885 55.1464 121.885C55.0914 121.885 55.0373 121.898 54.9885 121.924L53.0123 123.061C52.9301 123.113 52.9344 123.191 53.0123 123.247L55.3258 124.544ZM52.4371 126.209C52.4862 126.234 52.5402 126.246 52.595 126.246C52.6497 126.246 52.7038 126.234 52.7528 126.209L54.7291 125.068C54.8155 125.02 54.8112 124.938 54.7291 124.886L52.4415 123.567C52.3924 123.543 52.3384 123.53 52.2836 123.53C52.2288 123.53 52.1748 123.543 52.1258 123.567L50.1495 124.709C50.0674 124.756 50.0717 124.838 50.1495 124.89L52.4371 126.209ZM113.683 107.895C113.634 107.871 113.58 107.858 113.526 107.858C113.471 107.858 113.417 107.871 113.368 107.895L108.494 110.702C108.408 110.75 108.416 110.832 108.494 110.884L110.782 112.181C110.83 112.206 110.885 112.22 110.94 112.22C110.995 112.22 111.049 112.206 111.097 112.181L115.962 109.374C116.049 109.327 116.04 109.245 115.962 109.193L113.683 107.895ZM107.296 111.584C107.248 111.559 107.193 111.545 107.138 111.545C107.084 111.545 107.029 111.559 106.981 111.584L105.004 112.726C104.922 112.773 104.927 112.856 105.004 112.907L107.288 114.226C107.336 114.252 107.391 114.265 107.446 114.265C107.5 114.265 107.555 114.252 107.603 114.226L109.58 113.085C109.666 113.037 109.662 112.955 109.58 112.903L107.296 111.584ZM68.1606 133.236L70.1412 132.095C70.2233 132.047 70.219 131.965 70.1412 131.913L67.8449 130.594C67.7959 130.57 67.7418 130.557 67.6871 130.557C67.6323 130.557 67.5783 130.57 67.5292 130.594L65.553 131.736C65.4708 131.783 65.4752 131.866 65.553 131.917L67.8363 133.241C67.8845 133.263 67.9371 133.274 67.9903 133.274C68.0434 133.273 68.0957 133.26 68.1433 133.236H68.1606ZM101.519 114.923C101.47 114.898 101.416 114.886 101.361 114.886C101.306 114.886 101.252 114.898 101.203 114.923L99.227 116.064C99.1405 116.112 99.1492 116.194 99.227 116.246L101.51 117.543C101.559 117.568 101.613 117.58 101.668 117.58C101.723 117.58 101.777 117.568 101.826 117.543L103.802 116.402C103.889 116.354 103.88 116.272 103.802 116.22L101.519 114.923ZM116.572 106.231C116.523 106.206 116.469 106.193 116.414 106.193C116.36 106.193 116.305 106.206 116.256 106.231L114.263 107.355C114.181 107.402 114.185 107.485 114.263 107.537L116.546 108.855C116.595 108.88 116.649 108.893 116.704 108.893C116.759 108.893 116.813 108.88 116.862 108.855L118.838 107.714C118.925 107.666 118.916 107.584 118.838 107.532L116.572 106.231ZM121.761 105.88L116.209 102.676C116.16 102.651 116.106 102.637 116.051 102.637C115.996 102.637 115.942 102.651 115.893 102.676L113.917 103.813C113.835 103.865 113.839 103.947 113.917 103.999L119.465 107.204C119.514 107.228 119.568 107.241 119.623 107.241C119.678 107.241 119.732 107.228 119.781 107.204L121.757 106.062C121.826 106.014 121.822 105.932 121.731 105.88H121.761ZM90.7339 121.154C90.6856 121.13 90.6323 121.117 90.5782 121.117C90.5242 121.117 90.4708 121.13 90.4225 121.154L87.9879 122.559C87.9014 122.607 87.9101 122.689 87.9879 122.741L90.2755 124.06C90.3243 124.085 90.3784 124.099 90.4334 124.099C90.4883 124.099 90.5425 124.085 90.5912 124.06L93.0258 122.655C93.108 122.607 93.1037 122.525 93.0258 122.473L90.7339 121.154ZM98.0335 116.938C97.9844 116.913 97.9304 116.901 97.8756 116.901C97.8209 116.901 97.7668 116.913 97.7178 116.938L94.6907 118.693C94.6086 118.741 94.6129 118.823 94.6907 118.875L96.974 120.194C97.023 120.218 97.0771 120.231 97.1318 120.231C97.1866 120.231 97.2406 120.218 97.2897 120.194L100.317 118.438C100.403 118.391 100.399 118.309 100.317 118.257L98.0335 116.938ZM84.0441 125.016C83.9953 124.99 83.9412 124.977 83.8862 124.977C83.8313 124.977 83.7771 124.99 83.7284 125.016L67.4125 134.404C67.3303 134.452 67.3346 134.534 67.4125 134.586L69.6958 135.883C69.7448 135.907 69.7988 135.92 69.8536 135.92C69.9084 135.92 69.9624 135.907 70.0114 135.883L86.2798 126.486C86.3663 126.438 86.3619 126.356 86.2798 126.304L84.0441 125.016ZM66.8633 134.936C66.8145 134.911 66.7604 134.897 66.7054 134.897C66.6505 134.897 66.5963 134.911 66.5476 134.936L64.0827 136.328C64.0005 136.376 64.0049 136.458 64.0827 136.51L66.3703 137.829C66.4185 137.854 66.4718 137.866 66.526 137.866C66.5801 137.866 66.6335 137.854 66.6817 137.829L69.1163 136.423C69.1985 136.376 69.1941 136.294 69.1163 136.242L66.8633 134.936ZM87.3911 123.087C87.3424 123.062 87.2883 123.048 87.2333 123.048C87.1784 123.048 87.1242 123.062 87.0755 123.087L84.6408 124.492C84.5587 124.54 84.563 124.622 84.6408 124.674L86.9241 125.993C86.9732 126.017 87.0272 126.03 87.082 126.03C87.1367 126.03 87.1908 126.017 87.2398 125.993L89.6744 124.588C89.7566 124.54 89.7523 124.458 89.6744 124.406L87.3911 123.087ZM63.5162 136.869C63.4672 136.845 63.4131 136.832 63.3584 136.832C63.3036 136.832 63.2496 136.845 63.2005 136.869L60.7702 138.274C60.6837 138.322 60.6924 138.404 60.7702 138.456L63.0578 139.775C63.1069 139.799 63.1609 139.812 63.2157 139.812C63.2704 139.812 63.3245 139.799 63.3735 139.775L65.8038 138.369C65.8903 138.322 65.886 138.24 65.8038 138.188L63.5162 136.869ZM94.081 119.221C94.0319 119.197 93.9779 119.184 93.9231 119.184C93.8684 119.184 93.8143 119.197 93.7653 119.221L91.3307 120.626C91.2485 120.674 91.2528 120.756 91.3307 120.808L93.6183 122.105C93.667 122.131 93.7211 122.144 93.7761 122.144C93.8311 122.144 93.8852 122.131 93.9339 122.105L96.3643 120.704C96.4507 120.652 96.4421 120.57 96.3643 120.518L94.081 119.221ZM104.421 113.253C104.372 113.229 104.318 113.216 104.263 113.216C104.208 113.216 104.154 113.229 104.105 113.253L102.129 114.395C102.046 114.443 102.051 114.525 102.129 114.577L104.412 115.9C104.461 115.924 104.515 115.937 104.57 115.937C104.625 115.937 104.679 115.924 104.728 115.9L106.704 114.758C106.79 114.711 106.782 114.629 106.704 114.577L104.421 113.253ZM110.721 108.652L112.697 107.511C112.78 107.463 112.775 107.381 112.697 107.329L110.414 106.01C110.365 105.985 110.311 105.971 110.256 105.971C110.201 105.971 110.147 105.985 110.099 106.01L108.122 107.152C108.036 107.199 108.044 107.281 108.122 107.333L110.41 108.652C110.458 108.676 110.512 108.688 110.566 108.688C110.619 108.688 110.673 108.676 110.721 108.652ZM97.8043 108.566L99.7805 107.428C99.8627 107.377 99.8584 107.294 99.7805 107.242L97.4972 105.924C97.4485 105.898 97.3944 105.885 97.3394 105.885C97.2844 105.885 97.2303 105.898 97.1816 105.924L95.2053 107.065C95.1188 107.113 95.1275 107.195 95.2053 107.247L97.4929 108.566C97.5408 108.591 97.5939 108.605 97.6481 108.605C97.7022 108.606 97.7557 108.594 97.8043 108.57V108.566ZM91.2572 119.896L97.0345 116.562C97.121 116.514 97.1167 116.432 97.0345 116.38L94.7469 115.061C94.6979 115.037 94.6439 115.024 94.5891 115.024C94.5343 115.024 94.4803 115.037 94.4313 115.061L88.6452 118.382C88.5631 118.434 88.5674 118.516 88.6452 118.568L90.9285 119.887C90.9785 119.915 91.0345 119.93 91.0918 119.932C91.149 119.933 91.2057 119.921 91.2572 119.896ZM107.517 110.321C107.566 110.347 107.62 110.36 107.675 110.36C107.73 110.36 107.784 110.347 107.833 110.321L109.809 109.184C109.891 109.132 109.887 109.05 109.809 108.998L107.525 107.679C107.476 107.655 107.422 107.642 107.368 107.642C107.313 107.642 107.259 107.655 107.21 107.679L105.234 108.821C105.147 108.868 105.151 108.951 105.234 109.002L107.517 110.321ZM104.568 108.44L106.544 107.303C106.626 107.251 106.622 107.169 106.544 107.117L104.261 105.798C104.212 105.774 104.158 105.761 104.103 105.761C104.048 105.761 103.994 105.774 103.945 105.798L101.956 106.922C101.869 106.97 101.874 107.052 101.956 107.104L104.243 108.423C104.292 108.452 104.347 108.468 104.404 108.47C104.46 108.473 104.517 108.461 104.568 108.436V108.44ZM88.3685 121.565L90.3447 120.423C90.4312 120.376 90.4225 120.293 90.3447 120.242L88.0571 118.923C88.0081 118.898 87.954 118.886 87.8993 118.886C87.8445 118.886 87.7905 118.898 87.7414 118.923L85.7652 120.064C85.6787 120.112 85.6873 120.194 85.7652 120.246L88.0485 121.565C88.0984 121.589 88.1534 121.602 88.209 121.601C88.2646 121.6 88.3192 121.586 88.3685 121.561V121.565ZM101.143 114.006C101.192 114.03 101.246 114.043 101.301 114.043C101.355 114.043 101.409 114.03 101.458 114.006L103.435 112.864C103.521 112.817 103.512 112.734 103.435 112.683L101.143 111.368C101.094 111.344 101.04 111.331 100.985 111.331C100.93 111.331 100.876 111.344 100.827 111.368L98.8508 112.51C98.7643 112.561 98.7729 112.639 98.8508 112.691L101.143 114.006ZM73.938 129.902L75.9142 128.761C75.9964 128.709 75.9921 128.631 75.9142 128.579L73.605 127.247C73.556 127.223 73.5019 127.21 73.4472 127.21C73.3924 127.21 73.3384 127.223 73.2893 127.247L71.3044 128.393C71.2179 128.441 71.2223 128.523 71.3044 128.575L73.592 129.894C73.6426 129.922 73.6994 129.938 73.7574 129.94C73.8155 129.941 73.873 129.928 73.925 129.902H73.938ZM76.8267 128.233L78.8029 127.091C78.8851 127.044 78.8808 126.962 78.8029 126.91L76.4937 125.591C76.4446 125.566 76.3906 125.554 76.3358 125.554C76.2811 125.554 76.2271 125.566 76.178 125.591L74.2018 126.733C74.1153 126.78 74.1196 126.862 74.2018 126.914L76.4894 128.233C76.5395 128.259 76.5951 128.272 76.6515 128.272C76.7079 128.272 76.7635 128.259 76.8137 128.233H76.8267ZM71.032 131.572L73.0126 130.43C73.0947 130.382 73.0904 130.3 73.0126 130.248L70.725 128.929C70.6762 128.904 70.6221 128.891 70.5671 128.891C70.5122 128.891 70.458 128.904 70.4093 128.929L68.433 130.071C68.3509 130.119 68.3552 130.201 68.433 130.253L70.7206 131.572C70.7688 131.596 70.8222 131.609 70.8763 131.609C70.9304 131.609 70.9838 131.596 71.032 131.572ZM82.5911 124.899L84.5673 123.762C84.6495 123.71 84.6452 123.628 84.5673 123.576L82.284 122.257C82.235 122.232 82.181 122.22 82.1262 122.22C82.0714 122.22 82.0174 122.232 81.9684 122.257L79.9921 123.398C79.9056 123.446 79.91 123.528 79.9921 123.58L82.2797 124.899C82.3283 124.923 82.3818 124.935 82.4359 124.934C82.4901 124.934 82.5432 124.92 82.5911 124.895V124.899ZM79.7024 126.568L81.6786 125.427C81.7608 125.379 81.7565 125.297 81.6786 125.245L79.3954 123.926C79.3463 123.902 79.2923 123.889 79.2375 123.889C79.1827 123.889 79.1287 123.902 79.0797 123.926L77.1034 125.068C77.0169 125.12 77.0213 125.197 77.1034 125.249L79.391 126.573C79.4402 126.595 79.4938 126.606 79.5477 126.604C79.6017 126.603 79.6546 126.589 79.7024 126.564V126.568ZM85.4798 123.234L87.456 122.092C87.5382 122.045 87.5339 121.963 87.456 121.911L85.1727 120.613C85.124 120.588 85.0699 120.575 85.0149 120.575C84.9599 120.575 84.9058 120.588 84.8571 120.613L82.8808 121.755C82.7943 121.803 82.803 121.885 82.8808 121.937L85.1684 123.256C85.2188 123.275 85.2731 123.283 85.3271 123.279C85.3811 123.274 85.4333 123.258 85.4798 123.23V123.234ZM98.6951 98.5591C98.7441 98.5835 98.7982 98.5961 98.8529 98.5961C98.9077 98.5961 98.9617 98.5835 99.0108 98.5591L100.987 97.4174C101.074 97.3699 101.069 97.2877 100.987 97.2358L100.377 96.8855C100.328 96.8612 100.274 96.8485 100.219 96.8485C100.165 96.8485 100.111 96.8612 100.062 96.8855L98.0854 98.0272C98.0032 98.0747 98.0075 98.1569 98.0854 98.2088L98.6951 98.5591ZM84.4808 107.731C84.5299 107.755 84.5839 107.768 84.6387 107.768C84.6935 107.768 84.7475 107.755 84.7965 107.731L86.7728 106.589C86.8593 106.542 86.8549 106.46 86.7728 106.408L84.4852 105.089C84.4361 105.065 84.3821 105.052 84.3273 105.052C84.2726 105.052 84.2185 105.065 84.1695 105.089L82.1932 106.231C82.1111 106.278 82.1154 106.36 82.1932 106.412L84.4808 107.731ZM90.2582 104.397C90.307 104.422 90.3611 104.436 90.4161 104.436C90.471 104.436 90.5252 104.422 90.5739 104.397L92.5501 103.255C92.6366 103.208 92.6323 103.126 92.5501 103.074L90.2625 101.755C90.2138 101.729 90.1597 101.716 90.1047 101.716C90.0497 101.716 89.9956 101.729 89.9469 101.755L87.9706 102.896C87.8885 102.944 87.8928 103.026 87.9706 103.078L90.2582 104.397ZM80.9521 109.768C81.0012 109.792 81.0552 109.805 81.11 109.805C81.1647 109.805 81.2188 109.792 81.2678 109.768L83.2484 108.626C83.3305 108.579 83.3262 108.497 83.2484 108.445L80.9608 107.147C80.9117 107.123 80.8577 107.11 80.8029 107.11C80.7482 107.11 80.6942 107.123 80.6451 107.147L78.6559 108.263C78.5737 108.311 78.578 108.393 78.6559 108.445L80.9521 109.768ZM87.3695 106.058C87.4186 106.082 87.4726 106.095 87.5274 106.095C87.5821 106.095 87.6362 106.082 87.6852 106.058L89.6614 104.916C89.7479 104.868 89.7436 104.786 89.6614 104.734L87.3739 103.437C87.3248 103.413 87.2708 103.4 87.216 103.4C87.1612 103.4 87.1072 103.413 87.0582 103.437L85.0819 104.579C84.9998 104.631 85.0041 104.708 85.0819 104.76L87.3695 106.058ZM75.1964 113.102C75.2454 113.126 75.2994 113.139 75.3542 113.139C75.409 113.139 75.463 113.126 75.5121 113.102L77.4883 111.96C77.5748 111.913 77.5705 111.831 77.4883 111.779L75.2007 110.46C75.152 110.434 75.0978 110.421 75.0429 110.421C74.9879 110.421 74.9338 110.434 74.885 110.46L72.9088 111.597C72.8266 111.649 72.8309 111.731 72.9088 111.783L75.1964 113.102ZM78.0851 111.433C78.1341 111.457 78.1881 111.47 78.2429 111.47C78.2977 111.47 78.3517 111.457 78.4007 111.433L80.377 110.291C80.4635 110.239 80.4592 110.161 80.377 110.11L78.0894 108.786C78.0403 108.762 77.9863 108.749 77.9316 108.749C77.8768 108.749 77.8228 108.762 77.7737 108.786L75.7672 109.95C75.685 109.997 75.6894 110.079 75.7672 110.131L78.0851 111.433ZM92.9264 101.889C92.9751 101.914 93.0293 101.928 93.0842 101.928C93.1392 101.928 93.1933 101.914 93.242 101.889L95.2183 100.752C95.3048 100.7 95.3005 100.622 95.2183 100.566L94.6086 100.215C94.5595 100.191 94.5055 100.178 94.4507 100.178C94.3959 100.178 94.3419 100.191 94.2929 100.215L92.3166 101.357C92.2345 101.405 92.2388 101.487 92.3166 101.539L92.9264 101.889ZM101.575 96.8855C101.624 96.9109 101.678 96.9242 101.733 96.9242C101.788 96.9242 101.842 96.9109 101.891 96.8855L103.871 95.7439C103.954 95.6963 103.949 95.6142 103.871 95.5623L103.262 95.212C103.213 95.1866 103.159 95.1733 103.104 95.1733C103.049 95.1733 102.995 95.1866 102.946 95.212L100.97 96.3493C100.888 96.4012 100.892 96.4834 100.97 96.5353L101.575 96.8855ZM106.38 99.6575C106.428 99.6829 106.482 99.6961 106.537 99.6961C106.592 99.6961 106.646 99.6829 106.695 99.6575L108.671 98.5158C108.754 98.4683 108.749 98.3861 108.671 98.3342L106.388 97.0369C106.339 97.0115 106.285 96.9982 106.23 96.9982C106.175 96.9982 106.121 97.0115 106.073 97.0369L104.096 98.1785C104.01 98.2261 104.014 98.3083 104.096 98.3602L106.38 99.6575ZM113.601 106.987L115.578 105.846C115.664 105.798 115.655 105.716 115.578 105.664L113.29 104.367C113.241 104.342 113.187 104.33 113.132 104.33C113.077 104.33 113.023 104.342 112.974 104.367L110.998 105.508C110.911 105.556 110.92 105.638 110.998 105.69L113.281 107.009C113.333 107.033 113.391 107.044 113.448 107.04C113.506 107.037 113.561 107.018 113.61 106.987H113.601ZM95.8064 100.22C95.8555 100.244 95.9095 100.257 95.9642 100.257C96.019 100.257 96.073 100.244 96.1221 100.22L98.0983 99.078C98.1848 99.0304 98.1805 98.9483 98.0983 98.8964L97.4886 98.5461C97.4399 98.5207 97.3857 98.5074 97.3308 98.5074C97.2758 98.5074 97.2217 98.5207 97.1729 98.5461L95.1967 99.6877C95.1145 99.7353 95.1188 99.8175 95.1967 99.8694L95.8064 100.22ZM72.2861 114.767C72.3351 114.791 72.3891 114.804 72.4439 114.804C72.4987 114.804 72.5527 114.791 72.6017 114.767L74.578 113.625C74.6645 113.578 74.6602 113.496 74.578 113.444L72.2904 112.125C72.2413 112.1 72.1873 112.088 72.1325 112.088C72.0778 112.088 72.0238 112.1 71.9747 112.125L70.0071 113.266C69.9249 113.314 69.9293 113.396 70.0071 113.448L72.2861 114.767Z" fill="#263238"/>
<path opacity="0.3" d="M85.0994 132.112L104.602 120.847C104.932 120.68 105.297 120.594 105.666 120.594C106.036 120.594 106.4 120.68 106.73 120.847L117.917 127.307C118.505 127.645 118.505 128.194 117.917 128.536L98.4099 139.779C98.0806 139.947 97.716 140.035 97.3461 140.035C96.9762 140.035 96.6116 139.947 96.2823 139.779L85.0994 133.34C84.5113 132.998 84.5113 132.436 85.0994 132.112Z" fill="black"/>
<path d="M20.7915 125.033C20.9636 125.131 21.1464 125.21 21.3363 125.267C21.1458 125.213 20.9628 125.136 20.7915 125.037C20.7321 125.006 20.6757 124.97 20.6228 124.929C20.6768 124.967 20.7331 125.002 20.7915 125.033Z" fill="#187259"/>
<path opacity="0.3" d="M94.0033 23.0291C93.8779 22.1123 93.1385 21.775 92.2433 22.2939L24.2294 61.5551C23.7074 61.8734 23.2757 62.32 22.9753 62.8525L19.6455 60.9367C19.9441 60.3961 20.3757 59.9406 20.8996 59.6135L88.9179 20.3609C89.4101 20.0515 89.9749 19.8768 90.5558 19.8541C91.1368 19.8314 91.7135 19.9617 92.2283 20.2318C92.7431 20.5019 93.178 20.9024 93.4895 21.3933C93.801 21.8842 93.9782 22.4482 94.0033 23.0291Z" fill="black"/>
<path d="M23.8962 125.202C23.9045 125.2 23.9131 125.2 23.9214 125.202H23.8962Z" fill="#187259"/>
<path opacity="0.5" d="M147.28 117.353C147.235 117.948 147.052 118.525 146.744 119.036C146.436 119.548 146.012 119.98 145.507 120.298L77.4885 159.567C76.9424 159.86 76.3307 160.009 75.7112 160V156.164C76.3307 156.173 76.9424 156.024 77.4885 155.732L145.507 116.436C146.419 115.904 146.48 115.074 145.684 114.503C146.144 114.831 146.526 115.256 146.802 115.749C147.078 116.242 147.241 116.789 147.28 117.353Z" fill="black"/>
<path d="M190.818 83.7261L182.874 79.1423C182.696 79.0471 182.441 79.112 182.13 79.3498C181.966 79.4709 181.801 79.592 181.637 79.7044L181.451 79.8212C181.343 79.8904 181.235 79.9639 181.122 80.0288C181.01 80.0936 180.967 80.1152 180.889 80.1628L180.599 80.3228L180.331 80.4569L180.063 80.5866L179.764 80.712C179.682 80.7466 179.6 80.7855 179.514 80.8158L179.189 80.9369L178.96 81.019L178.61 81.1272L178.402 81.1877L178.026 81.2828L177.836 81.3261C177.706 81.3563 177.572 81.3823 177.438 81.4039L177.274 81.4342L176.841 81.4947H176.698C176.551 81.4947 176.4 81.525 176.266 81.5336H176.149H175.682H175.587C175.427 81.5336 175.267 81.5336 175.107 81.5336H175.034C174.869 81.5336 174.701 81.5336 174.536 81.4991H174.489L173.974 81.4299H173.948L173.71 81.3823L168.78 78.5368C168.417 78.3336 168.084 78.4806 167.868 79.0125C165.005 86.1218 158.908 93.3306 154.843 95.1339C154.762 95.1682 154.684 95.2087 154.609 95.2549C154.56 95.2836 154.512 95.3154 154.467 95.3501L154.402 95.3933L154.225 95.5447C154.164 95.6009 154.108 95.6615 154.052 95.722C153.762 96.0386 153.6 96.4517 153.598 96.8809L154.186 104.103C154.186 108.76 156.166 113.673 160.21 116.021L168.158 120.6L168.214 120.631C170.267 121.767 172.626 122.228 174.956 121.949C175.826 121.805 176.633 121.401 177.269 120.791C186.16 111.61 190.48 99.1685 190.48 92.31L191.068 84.3532C191.064 84.0375 190.973 83.8169 190.818 83.7261Z" fill="#187259"/>
<path opacity="0.4" d="M176.664 83.1075C176.585 83.0674 176.496 83.0487 176.408 83.0533C176.319 83.0578 176.233 83.0855 176.158 83.1335L176.072 83.1983C176.021 83.2485 175.977 83.3035 175.938 83.3627C175.894 83.4375 175.857 83.5156 175.825 83.5962C175.08 85.4228 174.184 87.1845 173.148 88.8633C172.251 90.3392 171.265 91.7588 170.195 93.1142C169.676 93.7629 169.157 94.3812 168.634 94.9607C168.635 94.9678 168.635 94.9752 168.634 94.9823L168.201 95.4623C168.05 95.6137 167.907 95.7694 167.769 95.9164C167.695 95.9986 167.622 96.0764 167.544 96.1499C165.875 97.8278 164.24 99.0819 162.843 99.7002C162.605 99.8062 162.387 99.9525 162.199 100.133L162.039 100.293C162.03 100.306 162.02 100.319 162.009 100.332L162.039 100.293L154.099 95.7175C154.106 95.7055 154.114 95.6951 154.125 95.6872C154.14 95.6635 154.157 95.6418 154.177 95.6223L154.225 95.5791C154.238 95.5636 154.253 95.5492 154.268 95.5359L154.316 95.4926C154.357 95.4527 154.4 95.4152 154.445 95.3802L154.51 95.3369C154.558 95.3067 154.605 95.2677 154.653 95.2418C154.727 95.1938 154.805 95.1533 154.886 95.1207C158.951 93.3174 165.053 86.1087 167.911 78.9994C168.067 78.6188 168.279 78.4329 168.521 78.4329C168.629 78.4371 168.733 78.4699 168.824 78.528L173.706 81.408L176.664 83.1075Z" fill="white"/>
<path opacity="0.1" d="M190.818 83.7261L182.874 79.1422C182.701 79.0514 182.441 79.1163 182.134 79.3498C181.974 79.4752 181.806 79.5963 181.637 79.7087L181.455 79.8255C181.347 79.8946 181.239 79.9682 181.127 80.033C181.014 80.0979 180.971 80.1195 180.893 80.1671L180.603 80.3271C180.517 80.3747 180.426 80.4136 180.335 80.4568L180.067 80.5909L179.765 80.7163C179.687 80.7552 179.6 80.7898 179.518 80.8244L179.194 80.9411L178.965 81.0233L178.61 81.1314L178.402 81.192L178.03 81.2871L177.845 81.3303L177.442 81.4082L177.274 81.4385C177.135 81.4644 176.997 81.4817 176.841 81.499H176.699L176.266 81.5422H176.149C175.994 81.5422 175.838 81.5422 175.682 81.5422H175.592C175.427 81.5422 175.267 81.5422 175.107 81.5422H175.038C174.869 81.5422 174.701 81.5206 174.536 81.5076H174.489C174.316 81.5076 174.143 81.4687 173.979 81.4428H173.953C173.872 81.4324 173.792 81.415 173.715 81.3909L176.673 83.0947L176.724 83.125C176.837 83.1954 176.936 83.2846 177.019 83.3888C177.039 83.4068 177.058 83.4271 177.075 83.4493C180.102 86.9867 186.087 86.9823 190.078 83.9293C190.381 83.7001 190.632 83.6266 190.8 83.7044H190.826C190.905 83.7515 190.965 83.8251 190.995 83.912C190.958 83.8319 190.896 83.7665 190.818 83.7261Z" fill="black"/>
<path opacity="0.2" d="M168.032 120.579L160.192 116.064C156.153 113.712 154.168 108.799 154.168 104.142L153.58 96.92C153.585 96.6425 153.653 96.3698 153.778 96.1225C153.904 95.8752 154.085 95.6599 154.307 95.4929C154.208 95.5745 154.117 95.6642 154.034 95.761L161.978 100.336C161.692 100.655 161.538 101.071 161.546 101.499L162.129 108.721C162.116 113.335 164.062 118.205 168.032 120.579Z" fill="black"/>
<path d="M191.051 84.3961L190.463 92.353C190.463 99.2288 186.139 111.653 177.256 120.833C176.619 121.447 175.808 121.85 174.934 121.988C172.608 122.275 170.25 121.821 168.197 120.691L168.14 120.661L168.037 120.596C164.063 118.222 162.112 113.357 162.112 108.738L161.528 101.516C161.522 101.09 161.677 100.676 161.961 100.357C162.01 100.301 162.062 100.248 162.117 100.197C162.305 100.017 162.523 99.8705 162.761 99.765C164.162 99.1423 165.788 97.8882 167.466 96.2147L167.691 95.9812L168.123 95.5228L168.556 95.0428C169.083 94.459 169.602 93.8406 170.121 93.192C171.191 91.8363 172.177 90.4167 173.075 88.9411C174.109 87.2637 175.003 85.5034 175.747 83.6783C175.782 83.597 175.821 83.5176 175.864 83.4404C175.903 83.3826 175.948 83.329 175.998 83.2804C176.025 83.2561 176.054 83.2344 176.084 83.2156C176.158 83.1658 176.243 83.1371 176.332 83.1325C176.42 83.1279 176.508 83.1477 176.586 83.1896L176.642 83.2156C176.755 83.2848 176.855 83.3742 176.936 83.4794L176.992 83.5442C180.02 87.0773 186.005 87.0729 189.996 84.0242C190.294 83.795 190.549 83.7215 190.718 83.795H190.74C190.78 83.8123 190.815 83.8409 190.839 83.8772C190.968 84.0204 191.043 84.2038 191.051 84.3961Z" fill="#187259"/>
<path d="M178.597 110.494L173.866 113.223L174.597 104.665C174.03 104.366 173.671 103.627 173.671 102.572C173.671 100.686 174.817 98.4982 176.231 97.6809C177.645 96.8636 178.791 97.7284 178.791 99.6139C178.761 100.731 178.442 101.822 177.866 102.779L178.597 110.494Z" fill="#455A64"/>
<path d="M178.597 110.494L174.311 108.016L173.866 113.223L178.597 110.494Z" fill="#37474F"/>
<path d="M176.231 97.6809C175.201 98.3761 174.432 99.3959 174.048 100.578L177.866 102.779C178.442 101.822 178.761 100.731 178.791 99.6139C178.791 97.7284 177.646 96.8636 176.231 97.6809Z" fill="#37474F"/>
<path d="M182.182 63.5439C180.884 62.7828 179.215 62.8693 177.645 63.7731L165.213 70.9559C163.917 71.7769 162.84 72.9005 162.074 74.2302C161.309 75.5598 160.878 77.0555 160.819 78.5885V93.819C160.837 94.012 160.907 94.1968 161.02 94.3541C161.133 94.5115 161.286 94.6358 161.464 94.7142C161.945 94.9561 162.477 95.082 163.016 95.082C163.555 95.082 164.087 94.9561 164.568 94.7142C164.746 94.6358 164.899 94.5115 165.012 94.3541C165.126 94.1968 165.195 94.012 165.213 93.819V78.5885C165.272 77.8261 165.502 77.0867 165.884 76.4245C166.266 75.7623 166.792 75.194 167.423 74.7614L179.847 67.5699V82.8134C179.865 83.0069 179.935 83.192 180.049 83.3493C180.163 83.5067 180.317 83.6308 180.495 83.7086C180.976 83.9518 181.507 84.0785 182.045 84.0785C182.584 84.0785 183.115 83.9518 183.596 83.7086C183.773 83.6302 183.926 83.5059 184.04 83.3485C184.153 83.1912 184.222 83.0065 184.24 82.8134V67.5699C184.249 65.7753 183.496 64.3007 182.182 63.5439Z" fill="#37474F"/>
<path d="M179.847 67.5702V82.8007C179.865 82.9942 179.935 83.1793 180.049 83.3367C180.163 83.4941 180.317 83.6181 180.495 83.6959C180.697 83.8104 180.914 83.8963 181.14 83.951V66.8264L179.847 67.5702Z" fill="#263238"/>
</svg>
