<svg width="199" height="198" viewBox="0 0 199 198" fill="none" xmlns="http://www.w3.org/2000/svg">
<path d="M188.425 197.198C188.425 197.259 146.78 197.311 95.4212 197.311C44.0623 197.311 2.40906 197.259 2.40906 197.198C2.40906 197.137 44.0449 197.085 95.4212 197.085C146.798 197.085 188.425 197.137 188.425 197.198Z" fill="#263238"/>
<path d="M179.545 27.124H11.3146C8.23339 27.124 5.7356 29.6218 5.7356 32.703V146.548C5.7356 149.63 8.23339 152.127 11.3146 152.127H179.545C182.627 152.127 185.124 149.63 185.124 146.548V32.703C185.124 29.6218 182.627 27.124 179.545 27.124Z" fill="#263238"/>
<path d="M185.124 32.703L185.098 32.3117C185.091 32.1511 185.072 31.9912 185.042 31.8333C185.009 31.611 184.96 31.3915 184.894 31.1767C184.685 30.4499 184.331 29.7734 183.851 29.1886C183.372 28.6039 182.778 28.1233 182.106 27.7763C181.638 27.5367 181.139 27.3626 180.624 27.2588C180.049 27.1642 179.466 27.1293 178.884 27.1545H174.845H164.769L100.565 27.1936H56.2117H12.0059C11.4593 27.172 10.912 27.2011 10.3709 27.2806C9.83255 27.3718 9.31175 27.5464 8.82718 27.798C7.84811 28.3005 7.04227 29.0852 6.51383 30.0505C6.25736 30.5366 6.07002 31.0562 5.95724 31.5942C5.86759 32.1431 5.83263 32.6995 5.85288 33.2553V43.487C5.85288 48.076 5.85288 52.7143 5.85288 57.4019V86.1013C5.85288 105.604 5.85288 125.793 5.85288 146.474C5.84916 147.747 6.29112 148.981 7.10209 149.962C7.91305 150.943 9.04184 151.609 10.2926 151.845C10.9214 151.938 11.5578 151.97 12.1928 151.94H62.9299H119.172H170.048H178.897C179.377 151.956 179.856 151.934 180.332 151.875C181.494 151.714 182.572 151.183 183.408 150.361C184.244 149.538 184.792 148.468 184.972 147.309C185.026 146.846 185.045 146.38 185.029 145.913C185.029 145.444 185.029 144.979 185.029 144.509V141.722C185.029 134.326 185.029 127.234 185.029 120.445C185.029 93.3414 185.059 71.4037 185.068 56.2409C185.068 48.666 185.068 42.7609 185.089 38.7864C185.089 36.7949 185.089 35.2729 185.089 34.2467C185.089 33.2205 185.089 32.703 185.089 32.703C185.089 32.703 185.089 33.2248 185.089 34.2467C185.089 35.2686 185.089 36.7949 185.089 38.7864C185.089 42.7782 185.089 48.666 185.089 56.2409C185.089 71.4037 185.116 93.3414 185.133 120.445C185.133 127.223 185.133 134.315 185.133 141.722C185.133 142.648 185.133 143.574 185.133 144.509V145.913C185.147 146.388 185.127 146.864 185.072 147.335C184.935 148.3 184.553 149.214 183.962 149.989C183.372 150.764 182.592 151.374 181.698 151.762C181.245 151.953 180.77 152.086 180.284 152.158C179.8 152.218 179.311 152.241 178.823 152.227H170.066H119.189H62.9473H12.2015C11.5519 152.257 10.901 152.223 10.2578 152.127C8.94907 151.881 7.76786 151.184 6.91888 150.158C6.06989 149.132 5.60663 147.841 5.60937 146.509C5.60937 125.828 5.60937 105.634 5.60937 86.1361C5.60937 76.387 5.60937 66.8205 5.60937 57.4367V33.2987C5.59068 32.7282 5.62855 32.1572 5.72243 31.5942C5.83983 31.0337 6.03447 30.4922 6.30076 29.9853C6.85572 28.9803 7.69535 28.1619 8.71412 27.6328C9.21967 27.3727 9.76238 27.1923 10.323 27.0979C10.877 27.0158 11.4375 26.9852 11.9972 27.0066H31.5171H56.216H100.57L164.774 27.0458H174.849H178.884C179.466 27.0261 180.049 27.0639 180.624 27.1588C181.145 27.2635 181.649 27.4421 182.119 27.6893C182.795 28.041 183.392 28.5278 183.872 29.1194C184.352 29.7111 184.706 30.395 184.911 31.1289C184.975 31.3438 185.021 31.5633 185.05 31.7855C185.08 31.9449 185.097 32.1062 185.102 32.2682C185.124 32.5682 185.124 32.703 185.124 32.703Z" fill="#263238"/>
<path d="M176.11 84.8271C177.056 84.8271 177.981 85.1077 178.767 85.6333C179.554 86.1589 180.167 86.9059 180.529 87.7799C180.891 88.6539 180.986 89.6157 180.801 90.5435C180.617 91.4714 180.161 92.3237 179.492 92.9926C178.823 93.6616 177.971 94.1171 177.043 94.3017C176.115 94.4863 175.154 94.3915 174.28 94.0295C173.406 93.6675 172.658 93.0544 172.133 92.2678C171.607 91.4812 171.327 90.5564 171.327 89.6104C171.327 88.3418 171.831 87.1252 172.728 86.2281C173.625 85.3311 174.841 84.8271 176.11 84.8271Z" fill="#455A64"/>
<path d="M15.2151 76.8177V102.356C15.2157 102.59 15.1701 102.821 15.081 103.038C14.9919 103.254 14.861 103.451 14.6958 103.616C14.5306 103.782 14.3343 103.913 14.1183 104.003C13.9022 104.092 13.6706 104.139 13.4367 104.139C13.2025 104.139 12.9707 104.093 12.7544 104.003C12.5381 103.913 12.3415 103.782 12.176 103.616C12.0104 103.451 11.8791 103.254 11.7895 103.038C11.6999 102.822 11.6538 102.59 11.6538 102.356V76.8307C11.6538 76.3579 11.8416 75.9044 12.176 75.57C12.5103 75.2357 12.9638 75.0479 13.4367 75.0479C13.9068 75.0478 14.3579 75.234 14.6912 75.5657C15.0245 75.8973 15.2128 76.3475 15.2151 76.8177Z" fill="#455A64"/>
<path d="M168.344 31.1726H18.533V148.292H168.344V31.1726Z" fill="#EBEBEB"/>
<path d="M115.124 115.718L126.708 136.134L155.19 135.712L153.577 113.557L115.124 115.718Z" fill="#E0E0E0"/>
<path d="M77.4754 46.7744L73.2922 79.0439L81.9325 81.105L98.826 79.4265L95.7256 44.1741L77.4754 46.7744Z" fill="#E0E0E0"/>
<path d="M51.2329 112.818H31.265V88.7756L52.9635 88.9931L51.2329 112.818Z" fill="#F5F5F5"/>
<path d="M133.435 113.557C133.435 112.874 136.953 88.9931 136.953 88.9931C136.953 88.9931 150.72 85.223 150.772 85.7622C150.824 86.3015 153.511 112.922 153.511 112.922L133.435 113.557Z" fill="#F5F5F5"/>
<path d="M33.561 52.3924C33.6002 52.9751 43.0971 72.0733 43.0971 72.0733L54.0942 69.1599V47.1874L42.7535 46.9265L33.561 52.3924Z" fill="#E0E0E0"/>
<path d="M100.717 92.2412H85.5111V99.4161H100.717V92.2412Z" fill="#E0E0E0"/>
<path d="M100.787 101.795L85.4721 102.569L84.6937 117.11L102.183 115.718L100.787 101.795Z" fill="#E0E0E0"/>
<path d="M162.134 74.8304L160.008 45.3135H168.305L168.344 74.2434L162.134 74.8304Z" fill="#E0E0E0"/>
<path d="M128.156 40.478L131.613 77.2611L149.75 75.6348L146.585 44.2611L132.226 40.478H128.156Z" fill="#E0E0E0"/>
<path d="M44.8234 47.0569L18.6373 46.6612L18.6634 44.9219L43.4058 45.2958L46.2627 31.1853L47.9716 31.5288L44.8234 47.0569Z" fill="white"/>
<path d="M31.1389 75.4694L18.4503 47.0135L18.846 46.8352L31.3868 74.9519L54.0419 68.9468L54.1506 69.3686L31.1389 75.4694Z" fill="white"/>
<path d="M52.9679 88.5583H18.6547V89.428H52.9679V88.5583Z" fill="white"/>
<path d="M31.4782 75.2131H31.0433V112.822H31.4782V75.2131Z" fill="white"/>
<path d="M51.3503 112.626H18.6547V113.061H51.3503V112.626Z" fill="white"/>
<path d="M49.6542 146.844L18.5154 139.974L18.8893 138.273L48.0671 144.713L53.0721 75.0738L53.8244 46.1091L54.9941 31.2898L56.7247 31.4246L55.5594 46.2222L54.8114 75.1608L49.6542 146.844Z" fill="white"/>
<path d="M54.6202 48.1138L44.0275 47.0441L44.2057 45.3134L53.5678 46.2614L55.1159 42.9566L69.0699 46.3396L131.817 39.1865L153.677 44.8655L168.279 44.4437L168.331 46.1787L153.481 46.6136L131.691 40.952L68.9612 48.1007L56.0899 44.9829L54.6202 48.1138Z" fill="white"/>
<path d="M127.573 114.91L125.847 114.684L130.735 77.2525L126.978 40.513V31.1726H128.717V40.4695L132.487 77.2743L127.573 114.91Z" fill="white"/>
<path d="M50.4935 120.058L50.3892 118.323L152.955 112.087L166.913 83.6663L168.474 84.4316L154.072 113.762L153.568 113.792L50.4935 120.058Z" fill="white"/>
<path d="M101.848 116.766L95.2909 44.2133L94.9343 31.3725L95.804 31.3464L96.1606 44.1655L102.714 116.688L101.848 116.766Z" fill="white"/>
<path d="M88.0812 147.827L80.4976 116.857V81.8268L71.9617 79.7048L75.6665 46.4526L75.323 31.1898L77.0623 31.1506L77.4102 46.5309L77.4059 46.5874L73.8576 78.3829L82.2369 80.4701V116.644L89.7727 147.414L88.0812 147.827Z" fill="white"/>
<path d="M81.3672 88.7756H52.9635V89.2105H81.3672V88.7756Z" fill="white"/>
<path d="M53.9807 74.921L53.8931 75.3469L72.8632 79.2513L72.9509 78.8254L53.9807 74.921Z" fill="white"/>
<path d="M81.3194 103.39L74.5707 101.899V88.9929H75.0055V101.551L81.4151 102.964L81.3194 103.39Z" fill="white"/>
<path d="M70.7832 147.805L66.9914 135.634H49.637V133.895H68.2698L72.4443 147.288L70.7832 147.805Z" fill="white"/>
<path d="M126.582 136.356L114.937 115.823L115.315 115.61L126.834 135.917L168.248 135.299L168.257 135.734L126.582 136.356Z" fill="white"/>
<path d="M146.958 136.134H146.524V147.857H146.958V136.134Z" fill="white"/>
<path d="M154.973 135.73L153.359 113.574L145.045 31.1941L145.48 31.1506L153.794 113.535L155.407 135.695L154.973 135.73Z" fill="white"/>
<path d="M168.328 74.0178L81.3512 80.9241L81.3856 81.3575L168.362 74.4512L168.328 74.0178Z" fill="white"/>
<path d="M160.437 46.0294L159.571 46.1072L162.154 74.8779L163.02 74.8001L160.437 46.0294Z" fill="white"/>
<path d="M161.426 62.1915L148.683 65.3452L148.787 65.7673L161.531 62.6137L161.426 62.1915Z" fill="white"/>
<path d="M155.825 63.6419L153.568 50.8489L147.206 50.1749L147.25 49.7444L153.938 50.4532L156.251 63.5636L155.825 63.6419Z" fill="white"/>
<path d="M112.756 42.6894L111.89 42.7637L114.91 77.9956L115.776 77.9213L112.756 42.6894Z" fill="white"/>
<path d="M129.651 61.9534L114.24 65.3447L114.333 65.7694L129.745 62.3781L129.651 61.9534Z" fill="white"/>
<path d="M126.287 136.083L124.704 148.357L125.566 148.468L127.15 136.194L126.287 136.083Z" fill="white"/>
<path d="M54.6942 89.7322L52.9635 116.727L79.9453 115.414V104.821L72.8792 103.26V90.8932L54.6942 89.7322Z" fill="#E0E0E0"/>
<path d="M47.2627 96.3074C47.2632 95.3649 47.0465 94.435 46.6293 93.5899C46.2121 92.7449 45.6057 92.0073 44.8572 91.4346C44.1087 90.862 43.2382 90.4695 42.3134 90.2879C41.3887 90.1062 40.4344 90.1401 39.5249 90.3871C38.6154 90.634 37.775 91.0873 37.0691 91.7118C36.3632 92.3362 35.8108 93.115 35.4547 93.9876C35.0986 94.8602 34.9485 95.8031 35.016 96.7431C35.0835 97.6832 35.3668 98.595 35.8438 99.4078V99.4295C36.0786 99.8252 36.37 100.108 36.67 100.525L40.227 105.239C40.3304 105.376 40.4641 105.487 40.6176 105.563C40.7712 105.64 40.9404 105.68 41.1119 105.68C41.2834 105.68 41.4526 105.64 41.6062 105.563C41.7597 105.487 41.8934 105.376 41.9968 105.239L45.4755 100.604C45.7938 100.227 46.0914 99.8338 46.367 99.4252C46.942 98.486 47.2516 97.4085 47.2627 96.3074ZM41.1315 98.9773C40.597 98.9781 40.0743 98.8204 39.6296 98.524C39.1849 98.2276 38.8381 97.8059 38.6332 97.3123C38.4282 96.8187 38.3744 96.2754 38.4785 95.7512C38.5825 95.227 38.8398 94.7454 39.2177 94.3675C39.5956 93.9896 40.0772 93.7323 40.6014 93.6282C41.1256 93.5242 41.6689 93.578 42.1625 93.783C42.6561 93.9879 43.0778 94.3347 43.3742 94.7794C43.6706 95.2241 43.8284 95.7468 43.8275 96.2813C43.8263 96.9959 43.5419 97.681 43.0366 98.1864C42.5312 98.6917 41.8462 98.9761 41.1315 98.9773Z" fill="#187259"/>
<path d="M104.962 74.7346C104.964 73.7913 104.749 72.8602 104.332 72.0137C103.916 71.1672 103.31 70.4282 102.561 69.8542C101.813 69.2802 100.942 68.8866 100.016 68.7042C99.091 68.5217 98.1358 68.5552 97.2254 68.8022C96.315 69.0491 95.4739 69.5028 94.7674 70.1279C94.061 70.753 93.5083 71.5327 93.1524 72.4063C92.7965 73.2799 92.6469 74.2238 92.7154 75.1647C92.7839 76.1055 93.0685 77.0178 93.5471 77.8307V77.8568C93.782 78.2525 94.0776 78.5351 94.3777 78.9525L97.9434 83.6575C98.0467 83.7944 98.1804 83.9054 98.334 83.9819C98.4875 84.0584 98.6567 84.0982 98.8283 84.0982C98.9998 84.0982 99.169 84.0584 99.3225 83.9819C99.4761 83.9054 99.6098 83.7944 99.7132 83.6575L103.222 79.0265C103.534 78.6504 103.825 78.257 104.092 77.8481C104.657 76.9076 104.958 75.8318 104.962 74.7346ZM98.8304 77.4045C98.2964 77.4045 97.7743 77.2461 97.3302 76.9494C96.8861 76.6527 96.54 76.231 96.3356 75.7375C96.1313 75.2441 96.0778 74.7012 96.182 74.1774C96.2862 73.6535 96.5433 73.1724 96.921 72.7947C97.2987 72.4171 97.7798 72.1599 98.3036 72.0557C98.8274 71.9515 99.3704 72.005 99.8638 72.2094C100.357 72.4138 100.779 72.7599 101.076 73.2039C101.372 73.648 101.531 74.1701 101.531 74.7042C101.531 75.0592 101.461 75.4106 101.325 75.7386C101.189 76.0665 100.99 76.3643 100.738 76.6151C100.487 76.866 100.189 77.0648 99.8608 77.2002C99.5327 77.3357 99.1811 77.4051 98.8261 77.4045H98.8304Z" fill="#187259"/>
<path d="M79.506 127.846C79.5081 127.199 79.3607 126.56 79.0755 125.979C78.7902 125.398 78.3747 124.891 77.8613 124.497C77.3479 124.103 76.7505 123.833 76.1156 123.707C75.4807 123.582 74.8254 123.605 74.2008 123.774C73.5762 123.944 72.9991 124.255 72.5144 124.684C72.0298 125.113 71.6507 125.647 71.4066 126.247C71.1626 126.846 71.0602 127.494 71.1074 128.139C71.1546 128.785 71.3502 129.411 71.6789 129.968C71.8398 130.238 72.0441 130.433 72.2485 130.716L74.688 133.951C74.759 134.044 74.8505 134.119 74.9553 134.171C75.0601 134.223 75.1755 134.25 75.2924 134.25C75.4093 134.25 75.5246 134.223 75.6295 134.171C75.7343 134.119 75.8258 134.044 75.8968 133.951L78.2971 130.773C78.5156 130.514 78.7203 130.244 78.9102 129.964C79.2942 129.324 79.4999 128.593 79.506 127.846ZM75.3011 129.677C74.9345 129.678 74.5759 129.57 74.2707 129.367C73.9655 129.164 73.7274 128.875 73.5866 128.536C73.4457 128.198 73.4084 127.825 73.4794 127.466C73.5504 127.106 73.7264 126.776 73.9853 126.516C74.2442 126.257 74.5743 126.08 74.9337 126.008C75.2932 125.936 75.6659 125.972 76.0046 126.113C76.3433 126.253 76.6329 126.49 76.8366 126.795C77.0404 127.099 77.1491 127.458 77.1491 127.824C77.1497 128.067 77.1023 128.308 77.0097 128.533C76.9171 128.758 76.7811 128.962 76.6094 129.134C76.4377 129.306 76.2338 129.443 76.0093 129.536C75.7848 129.629 75.5441 129.677 75.3011 129.677Z" fill="#187259"/>
<path d="M155.781 51.5231C155.777 50.4757 155.382 49.4676 154.673 48.6962C153.964 47.9249 152.993 47.4458 151.95 47.3528C150.907 47.2598 149.866 47.5595 149.032 48.1933C148.198 48.8271 147.631 49.7494 147.441 50.7795C147.262 51.7654 147.444 52.7829 147.954 53.6451C148.115 53.9147 148.32 54.1104 148.524 54.3974L150.963 57.6283C151.034 57.7211 151.126 57.7964 151.231 57.8482C151.335 57.9 151.451 57.9269 151.568 57.9269C151.685 57.9269 151.8 57.9 151.905 57.8482C152.01 57.7964 152.101 57.7211 152.172 57.6283L154.573 54.4496C154.791 54.191 154.996 53.921 155.186 53.6408C155.57 53.0007 155.775 52.2695 155.781 51.5231ZM151.576 53.3538C151.21 53.3547 150.851 53.2466 150.546 53.0434C150.24 52.8402 150.002 52.5509 149.862 52.2123C149.721 51.8736 149.684 51.5008 149.755 51.1411C149.826 50.7813 150.003 50.4509 150.262 50.1915C150.522 49.9322 150.852 49.7557 151.212 49.6844C151.572 49.613 151.944 49.6501 152.283 49.7908C152.622 49.9316 152.911 50.1697 153.114 50.4749C153.317 50.7802 153.425 51.139 153.425 51.5057C153.425 51.9959 153.23 52.4659 152.883 52.8125C152.537 53.1591 152.067 53.3538 151.576 53.3538Z" fill="#187259"/>
<path d="M66.2609 53.5233C66.2622 52.3774 65.9993 51.2467 65.4925 50.2189C64.9858 49.1911 64.2488 48.2941 63.3391 47.5974C62.4293 46.9007 61.3711 46.4232 60.2467 46.202C59.1224 45.9808 57.9622 46.0218 56.8562 46.3218C55.7503 46.6218 54.7285 47.1728 53.8701 47.932C53.0118 48.6911 52.34 49.638 51.9071 50.6989C51.4741 51.7599 51.2916 52.9064 51.3738 54.0494C51.456 55.1923 51.8006 56.3009 52.3808 57.289L52.4026 57.3151C52.6852 57.7978 53.0461 58.1413 53.4071 58.6457L57.7337 64.3813C57.8594 64.547 58.0218 64.6815 58.2081 64.774C58.3945 64.8665 58.5997 64.9147 58.8078 64.9147C59.0158 64.9147 59.221 64.8665 59.4074 64.774C59.5937 64.6815 59.7561 64.547 59.8818 64.3813L64.1389 58.7284C64.5267 58.2709 64.8882 57.7918 65.2216 57.2934C65.8981 56.1519 66.2569 54.8502 66.2609 53.5233ZM58.8034 56.7672C58.1539 56.7672 57.519 56.5746 56.979 56.2136C56.439 55.8527 56.0182 55.3397 55.7699 54.7395C55.5215 54.1394 55.4568 53.4791 55.5838 52.8421C55.7108 52.2051 56.0239 51.6202 56.4835 51.1612C56.9431 50.7022 57.5285 50.3899 58.1656 50.2637C58.8027 50.1375 59.463 50.2032 60.0628 50.4523C60.6626 50.7015 61.1751 51.1229 61.5353 51.6634C61.8955 52.2039 62.0873 52.839 62.0865 53.4885C62.0853 54.3585 61.7389 55.1924 61.1233 55.8072C60.5078 56.4219 59.6734 56.7672 58.8034 56.7672Z" fill="#187259"/>
<path d="M101.392 133.233C101.392 133.233 101.392 148.522 101.2 149.383C101.009 150.244 100.561 154.827 101.679 156.954C102.796 159.08 105.453 163.389 107.766 163.989C110.08 164.589 111.389 163.989 111.389 163.989C111.389 163.989 112.811 154.032 112.345 151.175C111.88 148.318 110.823 142.082 110.823 142.082L103.657 133.951L101.392 133.233Z" fill="#FFBE9D"/>
<path d="M119.403 112.248L126.156 110.174L138.927 109.321L146.654 110.787L138.262 124.236L126.156 123.323L119.403 112.248Z" fill="#FFBE9D"/>
<path d="M146.137 84.4919C146.208 87.7255 145.594 90.9376 144.335 93.9167C143.076 96.8959 141.2 99.5747 138.831 101.777C137.741 98.6257 136.653 95.4716 135.566 92.3147" fill="#263238"/>
<path d="M121.516 65.6723C124.321 64.1416 127.708 63.9329 130.839 64.5504C133.97 65.1678 136.892 66.5941 139.657 68.1943C141.205 69.0901 142.753 70.0772 143.871 71.4817C145.906 74.0429 147.915 78.2478 148.115 81.5135C148.272 84.1529 147.245 90.7625 146.145 93.1628C145.119 95.3631 140.327 97.0372 137.961 97.5808L116.267 72.334C116.657 70.9312 117.322 69.6198 118.223 68.4762C119.124 67.3325 120.243 66.3794 121.516 65.6723Z" fill="#263238"/>
<path d="M117.772 69.09L122.99 68.1594C120.146 74.9342 119.377 90.4232 117.746 97.5894C115.828 94.8064 111.376 86.3314 111.615 82.957C111.854 79.5827 111.589 68.5029 117.772 69.09Z" fill="#263238"/>
<path d="M142.449 80.3566C142.356 78.4566 141.657 76.6364 140.453 75.1634C139.249 73.6904 137.605 72.6423 135.761 72.1729L123.777 69.1291C118.598 68.5725 115.137 74.9429 114.798 80.1435C114.424 85.9182 114.189 92.0103 114.863 96.3239C116.22 104.99 122.86 106.112 122.86 106.112C122.86 106.112 122.86 110.234 122.86 112.765L133.565 121.249L139.792 111.513L142.471 80.4784C142.479 80.3131 142.462 80.5523 142.449 80.3566Z" fill="#FFBE9D"/>
<path d="M117.402 86.6706C117.399 86.9607 117.508 87.2407 117.708 87.4511C117.908 87.6615 118.182 87.7855 118.472 87.7968C118.613 87.808 118.756 87.7909 118.89 87.7465C119.025 87.7021 119.149 87.6312 119.256 87.5381C119.363 87.4449 119.45 87.3314 119.513 87.2041C119.575 87.0767 119.612 86.9382 119.62 86.7967C119.624 86.5066 119.514 86.2265 119.314 86.0162C119.114 85.8058 118.84 85.6818 118.55 85.6704C118.409 85.6586 118.266 85.6753 118.131 85.7195C117.997 85.7637 117.872 85.8345 117.765 85.9278C117.658 86.021 117.571 86.1348 117.508 86.2624C117.446 86.39 117.41 86.5288 117.402 86.6706Z" fill="#263238"/>
<path d="M116.098 83.5181C116.237 83.6659 117.081 83.0441 118.272 83.0484C119.463 83.0528 120.342 83.6572 120.472 83.5094C120.538 83.4441 120.398 83.1832 120.016 82.9049C119.499 82.5446 118.884 82.3532 118.255 82.357C117.631 82.3516 117.022 82.5451 116.515 82.9093C116.159 83.1919 116.033 83.4398 116.098 83.5181Z" fill="#263238"/>
<path d="M127.83 86.6706C127.827 86.9559 127.935 87.2313 128.13 87.4395C128.325 87.6476 128.593 87.7725 128.878 87.7881C129.019 87.8 129.162 87.7833 129.297 87.7391C129.431 87.6949 129.556 87.6241 129.663 87.5308C129.77 87.4376 129.857 87.3238 129.92 87.1962C129.982 87.0686 130.018 86.9298 130.026 86.788C130.03 86.4983 129.922 86.2183 129.723 86.0078C129.523 85.7973 129.25 85.6731 128.96 85.6618C128.82 85.6524 128.678 85.6711 128.545 85.717C128.411 85.7628 128.288 85.8348 128.183 85.9288C128.078 86.0227 127.992 86.1367 127.932 86.2641C127.871 86.3915 127.836 86.5297 127.83 86.6706Z" fill="#263238"/>
<path d="M127.456 83.518C127.595 83.6659 128.439 83.0441 129.63 83.0484C130.822 83.0528 131.704 83.6572 131.83 83.5093C131.896 83.4441 131.756 83.1832 131.374 82.9049C130.858 82.5446 130.242 82.3531 129.613 82.357C128.989 82.3522 128.38 82.5456 127.873 82.9093C127.517 83.1919 127.391 83.4398 127.456 83.518Z" fill="#263238"/>
<path d="M123.72 92.9147C123.72 92.8451 122.981 92.7147 121.777 92.5581C121.472 92.5277 121.181 92.4625 121.133 92.2581C121.107 91.9414 121.178 91.6242 121.338 91.3493L122.246 89.0273C123.507 85.7181 124.421 83.0004 124.29 82.9395C124.16 82.8786 123.025 85.5485 121.764 88.8403L120.894 91.1797C120.704 91.5478 120.647 91.9703 120.733 92.3755C120.779 92.4813 120.848 92.5754 120.936 92.6507C121.023 92.726 121.126 92.7806 121.238 92.8104C121.406 92.8575 121.58 92.8824 121.755 92.8843C122.964 92.9756 123.716 92.9799 123.72 92.9147Z" fill="#263238"/>
<path d="M134.357 103.008C134.357 103.008 131.535 108.961 122.864 108.13V106.095C126.907 106.15 130.886 105.081 134.357 103.008Z" fill="#EB996E"/>
<path d="M127.834 79.1959C127.952 79.5221 129.139 79.3699 130.548 79.5438C131.956 79.7177 133.083 80.1004 133.27 79.8091C133.357 79.6699 133.157 79.3742 132.7 79.0481C132.093 78.6554 131.402 78.4125 130.682 78.3393C129.966 78.2485 129.238 78.332 128.56 78.5828C128.043 78.7872 127.782 79.0437 127.834 79.1959Z" fill="#263238"/>
<path d="M116.489 79.8609C116.698 80.1349 117.524 79.8609 118.516 79.8609C119.507 79.8609 120.346 80.0479 120.538 79.7609C120.625 79.6261 120.49 79.3522 120.124 79.0956C119.633 78.7848 119.061 78.6275 118.48 78.6437C117.899 78.66 117.336 78.8491 116.863 79.1869C116.511 79.4478 116.398 79.7261 116.489 79.8609Z" fill="#263238"/>
<path d="M117.137 72.2081C117.668 70.9036 119.098 70.1208 120.503 70.0339C121.919 70.0315 123.306 70.436 124.499 71.1992C129.661 74.1822 132.326 81.3875 137.414 84.4749C138.67 85.2359 140.301 84.5401 141.366 85.5446C142.432 86.5491 143.127 88.1536 142.536 89.4973C143.267 88.5903 143.863 87.5827 144.306 86.5056C144.525 85.9649 144.625 85.3835 144.6 84.8007C144.576 84.2179 144.426 83.6471 144.162 83.1269C143.728 82.3616 142.941 81.7789 142.727 80.9223C142.54 80.17 142.836 79.3829 142.806 78.6046C142.718 77.8159 142.445 77.0591 142.01 76.3956C140.014 72.8603 137.266 69.6686 133.726 67.6988C131.418 66.3618 128.788 65.6807 126.121 65.729C123.443 65.7922 120.876 66.8118 118.885 68.6033C117.742 69.6643 116.546 70.7774 117.146 72.2081" fill="#263238"/>
<path d="M141.262 86.6356C141.353 86.3877 145.871 84.7571 145.932 89.5621C145.989 94.2279 141.279 93.3104 141.271 93.1756C141.262 93.0408 141.262 86.6356 141.262 86.6356Z" fill="#FFBE9D"/>
<path d="M142.693 91.3929C142.714 91.3929 142.775 91.4494 142.914 91.5103C143.11 91.5882 143.328 91.5882 143.523 91.5103C144.015 91.3233 144.423 90.5363 144.436 89.697C144.446 89.2955 144.364 88.897 144.197 88.5317C144.152 88.3864 144.072 88.2544 143.965 88.1468C143.857 88.0393 143.725 87.9594 143.58 87.9142C143.486 87.8944 143.388 87.9063 143.301 87.948C143.215 87.9896 143.144 88.0588 143.101 88.1447C143.041 88.2751 143.071 88.3664 143.049 88.3751C143.027 88.3838 142.945 88.2969 142.984 88.1055C143.007 87.9891 143.07 87.8844 143.162 87.8098C143.287 87.7162 143.442 87.6727 143.597 87.6881C143.791 87.722 143.973 87.8054 144.126 87.9304C144.278 88.0553 144.396 88.2175 144.467 88.4012C144.671 88.805 144.773 89.2532 144.763 89.7057C144.763 90.645 144.267 91.5321 143.593 91.7321C143.468 91.7695 143.336 91.7783 143.208 91.758C143.079 91.7377 142.956 91.6887 142.849 91.6147C142.706 91.506 142.68 91.4016 142.693 91.3929Z" fill="#EB996E"/>
<path d="M143.119 84.2356C143.02 84.193 142.925 84.1406 142.836 84.0791C142.658 83.966 142.38 83.8138 142.053 83.5834C141.135 82.908 140.29 82.1385 139.531 81.2874C138.431 80.0111 137.403 78.674 136.453 77.2825C135.302 75.5847 134.014 73.9849 132.6 72.4993C131.844 71.7579 131.01 71.1004 130.113 70.5382C129.27 70.0229 128.368 69.6126 127.425 69.3163C125.831 68.8035 124.153 68.5984 122.481 68.7118C121.353 68.7793 120.239 68.9972 119.168 69.3597C118.785 69.4772 118.503 69.6033 118.298 69.6815C118.199 69.7259 118.095 69.7608 117.989 69.7859C118.083 69.7309 118.18 69.6829 118.281 69.6424C118.562 69.5033 118.853 69.3828 119.15 69.2815C120.221 68.8844 121.342 68.6413 122.481 68.5596C124.174 68.4269 125.876 68.6203 127.495 69.1293C128.453 69.4256 129.371 69.8374 130.23 70.3555C131.141 70.9272 131.988 71.5948 132.757 72.3471C134.181 73.8446 135.473 75.4624 136.618 77.1825C137.561 78.5745 138.577 79.9157 139.662 81.2004C140.403 82.0544 141.226 82.8336 142.119 83.5268C142.44 83.7703 142.706 83.9312 142.875 84.0573C142.961 84.1101 143.043 84.1697 143.119 84.2356Z" fill="#455A64"/>
<path d="M143.227 92.2192C143.457 92.1792 143.693 92.2279 143.887 92.3552C144.082 92.4826 144.221 92.6792 144.276 92.9052C144.332 93.1312 144.299 93.3698 144.185 93.5726C144.071 93.7754 143.884 93.9274 143.662 93.9977C143.438 94.076 143.192 94.0641 142.976 93.9646C142.76 93.8651 142.591 93.6857 142.505 93.4642C142.419 93.2428 142.422 92.9964 142.514 92.7772C142.605 92.5579 142.779 92.3828 142.997 92.2888" fill="white"/>
<path d="M143.006 92.2885C142.799 92.4472 142.647 92.666 142.571 92.9147C142.537 93.0426 142.536 93.1771 142.568 93.3055C142.6 93.434 142.664 93.5523 142.753 93.6495C142.858 93.7717 142.997 93.8603 143.152 93.904C143.306 93.9478 143.471 93.9449 143.624 93.8957C143.777 93.8465 143.913 93.7532 144.013 93.6274C144.113 93.5016 144.174 93.3489 144.188 93.1886C144.204 93.0584 144.188 92.9262 144.14 92.804C144.092 92.6818 144.015 92.5734 143.914 92.4885C143.711 92.329 143.464 92.235 143.206 92.2189C143.206 92.2189 143.28 92.1711 143.427 92.1667C143.56 92.1687 143.691 92.1979 143.813 92.2525C143.934 92.307 144.043 92.3858 144.132 92.484C144.222 92.5822 144.29 92.6976 144.334 92.8233C144.377 92.949 144.394 93.0822 144.384 93.2147C144.37 93.4152 144.296 93.6067 144.171 93.7645C144.047 93.9224 143.878 94.0393 143.686 94.1002C143.495 94.1611 143.29 94.1631 143.097 94.106C142.904 94.0489 142.733 93.9354 142.606 93.78C142.5 93.6577 142.428 93.5102 142.396 93.3517C142.364 93.1933 142.373 93.0293 142.423 92.8755C142.485 92.6737 142.61 92.497 142.78 92.3711C142.923 92.2885 143.001 92.2755 143.006 92.2885Z" fill="#263238"/>
<path d="M141.945 85.5573C142.019 86.8314 142.075 88.1664 141.488 89.31C140.901 90.4536 139.409 91.2146 138.305 90.5797C137.401 90.0666 137.127 88.9056 136.974 87.875C136.54 84.9051 136.331 81.896 135.861 78.926L141.945 85.5573Z" fill="#263238"/>
<path d="M118.302 69.9902C118.302 70.0163 118.715 69.9119 119.463 69.8858C120.52 69.8688 121.569 70.0609 122.551 70.4511C123.229 70.7143 123.877 71.048 124.486 71.4469C125.182 71.9164 125.849 72.4261 126.486 72.9732C127.954 74.2165 129.268 75.6311 130.4 77.1868C130.995 78.0173 131.521 78.8739 132.087 79.6697C132.626 80.4418 133.255 81.1469 133.961 81.77C135.169 82.8 136.492 83.6858 137.905 84.4094C139.101 85.0443 140.079 85.4835 140.788 85.7922L141.584 86.1314C141.675 86.1758 141.771 86.2094 141.871 86.2314C141.789 86.1706 141.7 86.1209 141.605 86.0836L140.831 85.6966C140.153 85.3661 139.17 84.8965 137.992 84.2486C136.61 83.5055 135.312 82.6147 134.122 81.5917C133.435 80.9742 132.824 80.278 132.3 79.5175C131.739 78.7348 131.213 77.8782 130.617 77.0346C129.474 75.4599 128.141 74.0329 126.647 72.7862C126.002 72.2379 125.324 71.7296 124.616 71.2643C123.991 70.8627 123.323 70.5317 122.625 70.2772C121.618 69.894 120.543 69.7266 119.468 69.7858C119.175 69.8013 118.884 69.8405 118.598 69.9032C118.496 69.9201 118.397 69.9493 118.302 69.9902Z" fill="#455A64"/>
<path d="M142.071 82.6742C142.204 82.7839 142.35 82.8773 142.506 82.9525L143.688 83.6483L144.088 83.8744C144.244 83.9668 144.417 84.0247 144.597 84.044C144.708 84.0548 144.82 84.0288 144.915 83.97C144.964 83.9337 145.005 83.8874 145.034 83.8342C145.064 83.781 145.083 83.7221 145.089 83.6613C145.077 83.4461 145 83.2397 144.867 83.0699C144.432 82.3959 143.997 81.6567 143.497 80.874L143.31 81.0479C144.225 81.7219 145.346 82.0557 146.48 81.9915C146.628 81.9908 146.775 81.9659 146.915 81.9176C146.994 81.8949 147.068 81.8551 147.13 81.8011C147.192 81.747 147.242 81.6799 147.276 81.6045C147.303 81.5252 147.31 81.4404 147.296 81.3577C147.283 81.275 147.249 81.197 147.198 81.1305C147.118 81.0257 147.029 80.9282 146.932 80.8392C146.317 80.243 145.782 79.5691 145.341 78.8346C144.954 78.1421 144.616 77.4228 144.332 76.6821C144.352 76.8981 144.402 77.1103 144.48 77.3126C144.66 77.8721 144.894 78.4124 145.18 78.9259C145.608 79.6916 146.141 80.394 146.763 81.0131C146.937 81.1784 147.111 81.3654 147.041 81.5132C146.971 81.661 146.724 81.735 146.476 81.735C145.401 81.7869 144.341 81.471 143.471 80.8392L142.914 80.4304L143.288 81.0131L144.689 83.1873C144.793 83.3112 144.861 83.4618 144.884 83.6222C144.882 83.6534 144.873 83.6837 144.858 83.7111C144.843 83.7385 144.822 83.7623 144.796 83.7808C144.771 83.7994 144.742 83.8124 144.712 83.8187C144.681 83.8251 144.649 83.8248 144.619 83.8178C144.319 83.7605 144.034 83.6437 143.78 83.4743L142.558 82.8482C142.404 82.7696 142.24 82.7112 142.071 82.6742Z" fill="#455A64"/>
<path d="M128.269 95.1194C128.181 94.7641 127.972 94.4509 127.677 94.234C127.382 94.0171 127.021 93.9104 126.656 93.9322C126.389 93.9672 126.136 94.0667 125.917 94.2221C125.698 94.3774 125.52 94.5839 125.399 94.8237C125.285 95.0663 125.22 95.3292 125.208 95.5972C125.196 95.8652 125.237 96.1329 125.329 96.3847L125.356 96.4978C125.604 96.7675 125.929 96.954 126.287 97.0318C126.645 97.1097 127.018 97.075 127.356 96.9326C127.687 96.7733 127.955 96.5092 128.121 96.1812C128.286 95.8533 128.338 95.48 128.269 95.1194Z" fill="#EB996E"/>
<path d="M124.486 96.5242C124.486 96.3415 125.695 96.3981 126.608 95.4066C127.521 94.4152 127.447 93.1194 127.617 93.1194C127.695 93.1194 127.839 93.4194 127.826 93.963C127.8 94.6719 127.526 95.3493 127.052 95.8763C126.597 96.3875 125.96 96.6999 125.277 96.746C124.769 96.7546 124.477 96.6068 124.486 96.5242Z" fill="#263238"/>
<path d="M110.832 161.459L111.397 164.75L110.867 166.542C110.867 166.542 105.401 173.499 103.648 178.622C101.896 183.744 101.761 197.237 101.761 197.237L164.03 197.198C164.03 197.198 161.856 177.156 154.029 170.847V169.408L155.964 166.542C155.964 166.542 156.616 164.324 153.79 164.655C152.668 164.785 110.832 161.459 110.832 161.459Z" fill="#455A64"/>
<path d="M154.377 168.921H153.942L152.676 168.89C151.581 168.864 149.993 168.842 148.028 168.855C146.063 168.868 143.727 168.912 141.131 168.964C138.535 169.016 135.683 169.068 132.683 169.021C129.862 168.982 127.045 168.802 124.242 168.481C121.953 168.218 119.685 167.804 117.45 167.242C115.944 166.867 114.461 166.402 113.01 165.851C112.493 165.664 112.106 165.481 111.836 165.372L111.536 165.237C111.467 165.207 111.432 165.19 111.436 165.185L111.545 165.216L111.854 165.329C112.128 165.424 112.519 165.594 113.041 165.764C114.5 166.275 115.985 166.71 117.489 167.068C119.722 167.604 121.986 167.999 124.268 168.251C126.843 168.551 129.691 168.716 132.687 168.773C135.683 168.829 138.531 168.773 141.127 168.734C143.723 168.694 146.063 168.66 148.028 168.673C149.993 168.686 151.585 168.725 152.681 168.781C153.229 168.803 153.655 168.834 153.942 168.855L154.272 168.881C154.342 168.908 154.381 168.916 154.377 168.921Z" fill="#263238"/>
<path d="M154.377 171.808C154.341 171.815 154.304 171.815 154.268 171.808H153.938L152.672 171.778C151.576 171.751 149.989 171.73 148.024 171.743C146.058 171.756 143.723 171.799 141.127 171.852C138.531 171.904 135.679 171.956 132.678 171.908C129.678 171.86 126.821 171.678 124.238 171.369C121.949 171.105 119.68 170.691 117.446 170.13C115.939 169.753 114.457 169.287 113.006 168.734C112.489 168.547 112.102 168.368 111.832 168.26L111.532 168.125C111.462 168.094 111.428 168.077 111.432 168.073L111.541 168.103L111.849 168.216C112.123 168.312 112.515 168.477 113.037 168.651C114.496 169.163 115.981 169.598 117.485 169.956C119.718 170.492 121.982 170.887 124.264 171.138C126.838 171.438 129.687 171.604 132.683 171.66C135.679 171.717 138.527 171.66 141.123 171.621C143.719 171.582 146.058 171.547 148.024 171.56C149.989 171.573 151.581 171.612 152.677 171.669C153.224 171.691 153.651 171.721 153.938 171.743L154.268 171.769C154.342 171.799 154.381 171.804 154.377 171.808Z" fill="#263238"/>
<path d="M113.498 175.191C113.532 174.883 113.614 174.582 113.741 174.299C113.999 173.599 114.328 172.927 114.724 172.295C115.115 171.66 115.57 171.068 116.081 170.525C116.278 170.287 116.512 170.08 116.772 169.912C116.824 169.96 115.815 170.947 114.915 172.412C114.015 173.878 113.563 175.191 113.498 175.191Z" fill="#263238"/>
<path d="M115.711 179.196C115.683 179.076 115.676 178.953 115.689 178.83C115.693 178.498 115.714 178.165 115.754 177.835C115.887 176.744 116.123 175.668 116.459 174.621C116.788 173.576 117.198 172.558 117.685 171.577C117.868 171.16 118.093 170.764 118.359 170.395C118.208 170.821 118.031 171.238 117.829 171.643C117.391 172.636 117.007 173.652 116.676 174.686C116.345 175.723 116.091 176.783 115.915 177.856C115.78 178.67 115.746 179.2 115.711 179.196Z" fill="#263238"/>
<path d="M117.185 163.45C117.25 163.648 117.292 163.852 117.311 164.059C117.413 164.544 117.55 165.02 117.72 165.485C118.107 166.581 118.624 167.385 118.59 167.42C118.098 166.891 117.735 166.255 117.529 165.564C117.348 165.086 117.229 164.588 117.176 164.081C117.127 163.873 117.13 163.656 117.185 163.45Z" fill="#263238"/>
<path d="M119.029 164.755C119.251 165.208 119.406 165.692 119.489 166.19C119.647 166.67 119.731 167.172 119.737 167.677C119.355 166.744 119.116 165.759 119.029 164.755Z" fill="#263238"/>
<path d="M130.156 164.32C130.307 165.794 130.307 167.281 130.156 168.755C130.005 167.281 130.005 165.794 130.156 164.32Z" fill="#263238"/>
<path d="M131.548 165.455C131.873 166.567 131.843 167.752 131.461 168.846C131.396 168.846 131.522 168.081 131.543 167.15C131.565 166.22 131.487 165.463 131.548 165.455Z" fill="#263238"/>
<path d="M135.309 175.721C135.149 175.095 135.027 174.459 134.944 173.817C134.785 173.188 134.669 172.548 134.596 171.904C134.89 172.49 135.082 173.123 135.166 173.773C135.325 174.41 135.374 175.069 135.309 175.721Z" fill="#263238"/>
<path d="M98.0042 132.363C97.8825 131.968 102.457 118.883 105.17 116.901C107.884 114.918 120.133 112.078 120.133 112.078C120.133 112.078 125.29 117.166 132.204 116.109C139.118 115.052 144.428 110.174 144.428 110.174C144.428 110.174 157.512 111.887 159.734 113.47C161.956 115.052 167.996 129.398 167.996 129.398L157.334 138.282L156.39 146.326C156.39 146.326 156.886 163.081 155.773 164.798C154.659 166.516 111.089 162.146 111.089 162.146C111.089 162.146 108.867 161.75 110.593 157.797C112.319 153.845 113.558 151.201 113.558 151.201C113.558 151.201 110.471 147.77 109.975 141.699C109.48 135.629 108.266 134.977 108.266 134.977L98.0042 132.363Z" fill="#187259"/>
<path d="M156.334 146.017C156.268 146.017 156.925 140.556 157.799 133.842C158.673 127.128 159.425 121.666 159.486 121.688C159.547 121.71 158.882 127.145 158.012 133.881C157.142 140.617 156.394 146.026 156.334 146.017Z" fill="#263238"/>
<path d="M109.632 137.203C109.575 137.225 108.762 135.268 107.81 132.829C106.857 130.389 106.14 128.398 106.196 128.376C106.253 128.354 107.066 130.311 108.023 132.746C108.979 135.181 109.693 137.181 109.632 137.203Z" fill="#263238"/>
<g opacity="0.3">
<path d="M123.447 144.174C123.249 143.041 122.778 141.973 122.072 141.065C121.051 139.908 119.433 139.417 117.894 139.425C116.35 139.508 114.826 139.808 113.367 140.317L110.588 144.665C110.679 144.928 110.828 145.167 111.024 145.364C111.219 145.561 111.457 145.712 111.719 145.805C112.242 145.987 112.791 146.085 113.345 146.096C116.221 146.305 119.097 146.425 121.972 146.457C122.344 146.495 122.718 146.426 123.051 146.257C123.66 145.831 123.616 144.904 123.447 144.174Z" fill="black"/>
</g>
<path d="M104.457 124.236C104.55 124.379 104.625 124.533 104.683 124.693C104.818 124.989 105.001 125.423 105.218 125.967C105.653 127.05 106.236 128.576 106.823 130.241C107.41 131.907 107.897 133.464 108.223 134.59C108.388 135.146 108.519 135.603 108.597 135.92C108.653 136.081 108.688 136.247 108.701 136.416C108.623 136.267 108.56 136.109 108.514 135.947L108.079 134.642C107.714 133.533 107.21 132.003 106.618 130.324C106.027 128.646 105.479 127.128 105.079 126.032C104.892 125.519 104.735 125.084 104.609 124.728C104.539 124.571 104.488 124.406 104.457 124.236Z" fill="#263238"/>
<path d="M104.436 125.619L109.31 143.4C109.395 143.691 109.574 143.946 109.818 144.125C110.063 144.304 110.359 144.398 110.662 144.391H121.233C121.437 144.398 121.639 144.359 121.825 144.276C122.011 144.193 122.176 144.069 122.307 143.913C122.438 143.758 122.532 143.574 122.582 143.377C122.632 143.179 122.636 142.973 122.594 142.774L118.32 125.002C118.242 124.702 118.065 124.437 117.818 124.25C117.571 124.063 117.269 123.965 116.959 123.971H105.784C105.578 123.964 105.373 124.005 105.185 124.09C104.998 124.175 104.832 124.302 104.702 124.462C104.571 124.621 104.48 124.809 104.433 125.009C104.387 125.21 104.388 125.419 104.436 125.619Z" fill="#263238"/>
<path d="M108.105 128.941C108.105 128.941 106.844 128.341 105.849 128.941C104.853 129.541 103.24 132.194 103.24 132.194L102.244 136.412L102.926 142.143L103.196 144.8L109.632 145.53V143.404L117.002 137.895C117.002 137.895 119.59 137.177 119.389 136.407C119.189 135.638 118.859 135.103 118.128 135.242C117.398 135.381 109.501 137.416 109.501 137.416C109.501 137.416 108.24 137.682 108.305 137.347C108.371 137.012 112.023 135.29 112.619 134.89C113.215 134.49 116.006 133.829 115.663 132.568C115.621 132.34 115.529 132.125 115.392 131.939C115.256 131.752 115.079 131.599 114.875 131.491C114.671 131.382 114.444 131.322 114.213 131.313C113.982 131.305 113.753 131.349 113.541 131.442L107.166 133.764L106.105 134.029L106.24 132.368L107.366 130.842C107.467 130.873 107.573 130.885 107.678 130.875C107.783 130.865 107.886 130.834 107.979 130.783C108.071 130.733 108.153 130.664 108.219 130.582C108.285 130.499 108.334 130.404 108.362 130.302C108.451 130.074 108.475 129.826 108.429 129.585C108.384 129.344 108.272 129.121 108.105 128.941Z" fill="#FFBE9D"/>
<path d="M107.249 133.733C106.759 134.014 106.234 134.227 105.688 134.368C105.167 134.587 104.618 134.734 104.057 134.803C104.548 134.525 105.073 134.311 105.618 134.168C106.14 133.951 106.688 133.805 107.249 133.733Z" fill="#EB996E"/>
<path d="M108.701 137.564C108.244 137.816 107.754 138.002 107.244 138.116C106.756 138.303 106.244 138.417 105.723 138.455C106.667 138.02 107.671 137.727 108.701 137.586V137.564Z" fill="#EB996E"/>
<path d="M116.598 137.96C116.485 138.05 116.361 138.124 116.228 138.182C115.98 138.312 115.619 138.49 115.163 138.699C113.981 139.233 112.772 139.707 111.541 140.117C110.309 140.53 109.057 140.877 107.788 141.156C107.301 141.265 106.918 141.339 106.627 141.382C106.484 141.415 106.338 141.431 106.192 141.43C106.701 141.255 107.219 141.11 107.745 140.995C108.706 140.747 110.027 140.378 111.462 139.899C112.897 139.421 114.176 138.921 115.098 138.547C115.586 138.323 116.087 138.127 116.598 137.96Z" fill="#EB996E"/>
<path d="M104.927 141.078C104.905 141.134 104.492 140.917 104.361 140.412C104.231 139.908 104.448 139.512 104.496 139.543C104.544 139.573 104.457 139.925 104.579 140.343C104.701 140.76 104.962 141.025 104.927 141.078Z" fill="#EB996E"/>
<path d="M103.657 137.725C103.657 137.751 103.54 137.725 103.392 137.651C103.207 137.524 103.068 137.341 102.996 137.128C102.924 136.916 102.922 136.686 102.992 136.473C103.053 136.312 103.131 136.238 103.157 136.251C103.183 136.264 103.061 136.638 103.214 137.055C103.366 137.473 103.657 137.664 103.657 137.725Z" fill="#EB996E"/>
<path d="M102.922 133.62C102.926 133.69 102.918 133.761 102.9 133.829C102.87 133.99 102.831 134.181 102.787 134.42C102.679 134.968 102.526 135.725 102.353 136.621V136.594C102.635 138.612 103.022 141.534 103.444 144.813V144.839V144.869C103.361 145.091 103.27 145.326 103.183 145.565C102.234 148.248 101.792 151.083 101.879 153.927C101.903 154.788 101.974 155.648 102.092 156.501C102.131 156.784 102.161 157.014 102.187 157.197C102.205 157.278 102.213 157.362 102.209 157.445C102.18 157.367 102.158 157.287 102.144 157.206C102.109 157.049 102.052 156.819 102 156.514C101.853 155.66 101.758 154.797 101.718 153.931C101.582 151.062 102.008 148.194 102.97 145.487C103.057 145.248 103.148 145.009 103.231 144.787V144.843C102.796 141.56 102.448 138.638 102.213 136.612L102.731 134.438C102.792 134.203 102.84 134.003 102.879 133.855C102.887 133.776 102.902 133.697 102.922 133.62Z" fill="#EB996E"/>
<path d="M110.693 142.782C110.275 143.213 109.773 143.553 109.219 143.782C108.695 144.076 108.116 144.258 107.518 144.317C107.518 144.256 108.249 144.004 109.119 143.578C109.988 143.152 110.654 142.726 110.693 142.782Z" fill="#EB996E"/>
<path d="M151.489 151.818C151.489 151.818 153.172 152.253 153.337 153.349C153.503 154.445 152.159 173.352 152.159 173.352H153.759C153.759 173.352 154.398 154.623 154.372 153.284C154.346 151.944 153.711 151.857 153.472 151.762C152.821 151.574 152.128 151.594 151.489 151.818Z" fill="#263238"/>
<path d="M150.642 151.783L158.343 152.079L156.808 142.782L157.334 138.282L167.539 129.759C167.539 129.759 171.109 150.466 171.431 152.857C171.814 155.727 171.257 159.532 169.866 160.893C168.679 162.05 160.125 160.893 156.821 160.893C154.994 160.893 150.629 160.924 150.629 160.924L149.098 153.784L150.642 151.783Z" fill="#FFBE9D"/>
<path d="M169.866 152.105C169.835 152.144 169.313 151.67 168.309 151.236C167.008 150.647 165.581 150.39 164.156 150.488C163.376 150.54 162.607 150.704 161.873 150.975C161.199 151.218 160.617 151.54 160.099 151.74C159.692 151.914 159.261 152.028 158.821 152.079C158.661 152.109 158.498 152.109 158.338 152.079C158.925 152.014 159.497 151.855 160.034 151.61C160.538 151.392 161.108 151.062 161.799 150.796C162.55 150.506 163.34 150.332 164.143 150.279C165.603 150.178 167.064 150.463 168.379 151.105C168.772 151.301 169.148 151.53 169.5 151.792C169.634 151.882 169.757 151.987 169.866 152.105Z" fill="#EB996E"/>
<path d="M142.701 168.929C142.419 169.29 139.166 197.311 139.166 197.311L172.966 197.198L167.609 169.016L142.701 168.929Z" fill="#187259"/>
<path d="M148.306 197.237C148.245 197.237 147.893 190.941 147.524 183.166C147.154 175.391 146.906 169.103 146.971 169.103C147.037 169.103 147.38 175.399 147.75 183.174C148.119 190.949 148.367 197.233 148.306 197.237Z" fill="#263238"/>
<path d="M134.531 152.253C135.464 152.117 136.388 151.921 137.296 151.666C137.722 151.459 138.133 151.224 138.527 150.962L142.875 150.609L150.637 151.783C150.637 151.783 151.942 152.723 151.755 155.606C151.596 157.536 151.181 159.437 150.52 161.259C150.52 161.259 147.041 164.089 146.111 164.263C145.18 164.437 139.875 164.142 139.349 163.728C139.038 163.493 138.777 163.197 138.583 162.859C138.3 162.714 138.072 162.481 137.934 162.194C137.795 161.907 137.755 161.583 137.818 161.272C137.818 161.272 135.996 158.919 135.761 157.919C135.527 156.919 135.818 156.684 135.818 156.684C135.818 156.684 135.292 155.332 135.7 154.862C135.803 154.747 135.928 154.655 136.068 154.59C136.207 154.525 136.359 154.488 136.512 154.483C136.666 154.478 136.82 154.504 136.963 154.559C137.107 154.614 137.238 154.698 137.349 154.806C137.762 155.275 140.349 154.923 140.349 154.923L142.641 153.392C141.461 153.692 140.263 153.908 139.053 154.04C137.822 154.075 134.118 154.901 134.531 152.253Z" fill="#FFBE9D"/>
<path d="M143.527 157.797C143.527 157.832 143.053 157.915 142.314 158.171C141.945 158.297 141.505 158.463 141.01 158.606C140.465 158.789 139.897 158.892 139.323 158.91C138.734 158.929 138.153 158.778 137.648 158.476C137.249 158.223 136.895 157.906 136.6 157.536C136.403 157.293 136.222 157.038 136.057 156.771C135.939 156.584 135.883 156.475 135.896 156.467C135.909 156.458 136.205 156.849 136.722 157.432C137.018 157.774 137.366 158.067 137.753 158.302C138.229 158.572 138.771 158.705 139.318 158.684C140.492 158.654 141.492 158.206 142.271 158.006C142.674 157.864 143.1 157.794 143.527 157.797Z" fill="#EB996E"/>
<path d="M145.11 155.727C145.132 155.727 145.215 155.779 145.276 155.94C145.35 156.15 145.35 156.379 145.276 156.588C145.205 156.8 145.062 156.98 144.871 157.097C144.723 157.184 144.619 157.184 144.606 157.158C144.593 157.132 144.923 156.927 145.063 156.514C145.202 156.101 145.054 155.753 145.11 155.727Z" fill="#EB996E"/>
<path d="M144.936 160.871C144.58 160.974 144.215 161.04 143.845 161.067C143.167 161.163 142.227 161.276 141.192 161.385C140.702 161.45 140.209 161.488 139.714 161.498C139.303 161.506 138.894 161.441 138.505 161.306C138.133 161.206 137.811 160.972 137.601 160.65C137.891 160.868 138.214 161.038 138.557 161.154C138.933 161.262 139.324 161.308 139.714 161.289C140.149 161.289 140.649 161.215 141.166 161.163C142.206 161.05 143.145 160.963 143.828 160.911C144.195 160.86 144.566 160.847 144.936 160.871Z" fill="#EB996E"/>
<path d="M146.945 159.01C146.972 159.01 147.054 159.097 147.111 159.293C147.185 159.549 147.185 159.82 147.111 160.076C147.038 160.332 146.897 160.564 146.702 160.746C146.55 160.876 146.428 160.915 146.415 160.893C146.402 160.872 146.75 160.545 146.893 160.024C146.952 159.689 146.969 159.349 146.945 159.01Z" fill="#EB996E"/>
<path d="M145.697 163.241C145.361 163.34 145.013 163.393 144.663 163.398C142.981 163.532 141.288 163.427 139.636 163.085C139.288 163.038 138.949 162.942 138.627 162.802C138.975 162.813 139.321 162.855 139.662 162.928C140.297 163.024 141.175 163.133 142.149 163.194C143.123 163.254 144.01 163.254 144.654 163.241C145.001 163.208 145.35 163.208 145.697 163.241Z" fill="#EB996E"/>
<path d="M153.055 151.657C153.055 151.657 154.577 152.797 154.859 153.488C155.142 154.179 158.182 168.925 158.182 168.925H159.486C159.486 168.925 156.386 152.949 155.629 152.331C155.357 152.111 155.066 151.916 154.759 151.749C154.504 151.613 154.222 151.535 153.933 151.517C153.644 151.5 153.355 151.545 153.085 151.649L153.055 151.657Z" fill="#263238"/>
<path d="M123.36 154.553C122.927 154.611 122.488 154.611 122.055 154.553C119.987 154.359 117.993 153.683 116.233 152.579C115.859 152.367 115.512 152.108 115.202 151.81C115.224 151.779 115.637 152.057 116.315 152.44C117.205 152.946 118.142 153.365 119.111 153.692C120.081 154.018 121.078 154.253 122.09 154.397C122.873 154.493 123.36 154.519 123.36 154.553Z" fill="#263238"/>
<g opacity="0.3">
<path d="M130.982 154.318C130.184 154.249 129.381 154.28 128.591 154.41C124.525 154.845 120.329 154.845 116.602 152.762C117.137 153.88 118.053 154.771 119.185 155.275C120.474 155.716 121.828 155.938 123.19 155.932C126.461 156.065 129.737 155.92 132.983 155.497C132.757 155.165 132.461 154.887 132.115 154.683C131.769 154.479 131.382 154.355 130.982 154.318Z" fill="black"/>
</g>
<path d="M118.568 112.574C118.568 111.031 117.955 109.551 116.864 108.46C115.772 107.369 114.293 106.756 112.749 106.756H77.3274C75.8125 106.797 74.3735 107.428 73.3166 108.514C72.2597 109.601 71.6683 111.056 71.6683 112.572C71.6683 114.087 72.2597 115.543 73.3166 116.629C74.3735 117.715 75.8125 118.346 77.3274 118.388H98.4998C100.487 120.305 103.883 122.893 103.883 122.893V118.175L113.176 118.362C116.354 118.266 118.568 115.618 118.568 112.574Z" fill="white"/>
<path d="M118.568 112.574C118.568 112.574 118.568 112.678 118.568 112.891C118.559 113.204 118.525 113.515 118.463 113.822C118.367 114.322 118.21 114.809 117.994 115.27C117.688 115.899 117.273 116.469 116.767 116.953C116.127 117.555 115.349 117.991 114.502 118.222C114.265 118.285 114.026 118.336 113.784 118.375C113.532 118.404 113.278 118.42 113.023 118.422L111.419 118.396L103.887 118.262L103.97 118.179C103.97 119.666 103.97 121.245 103.97 122.888V123.075L103.827 122.962C102.087 121.619 100.23 120.157 98.4258 118.457L98.4954 118.488H85.6677H78.6885C78.0884 118.488 77.5014 118.509 76.8839 118.466C75.6988 118.372 74.5687 117.926 73.6389 117.186C72.7091 116.445 72.022 115.443 71.6658 114.309C71.5236 113.834 71.4389 113.343 71.4136 112.848C71.3916 112.356 71.4266 111.862 71.518 111.378C71.6201 110.898 71.7792 110.433 71.9919 109.991C72.4086 109.122 73.032 108.368 73.8075 107.796C74.583 107.223 75.487 106.85 76.4404 106.708C76.9028 106.645 77.3697 106.62 77.8362 106.634H87.1331L105.218 106.66H112.175C112.671 106.644 113.167 106.67 113.658 106.738C114.114 106.81 114.561 106.934 114.989 107.108C115.735 107.419 116.408 107.881 116.967 108.465C117.416 108.926 117.78 109.462 118.046 110.047C118.154 110.281 118.248 110.521 118.328 110.765C118.389 110.991 118.442 111.2 118.481 111.382C118.535 111.669 118.565 111.96 118.572 112.252C118.572 112.448 118.572 112.548 118.572 112.548C118.572 112.548 118.572 112.448 118.546 112.252C118.527 111.96 118.49 111.669 118.433 111.382C118.389 111.2 118.333 110.995 118.268 110.774C118.188 110.533 118.092 110.297 117.981 110.069C117.713 109.493 117.346 108.967 116.898 108.517C116.342 107.954 115.678 107.51 114.945 107.212C114.525 107.045 114.088 106.927 113.641 106.86C113.155 106.794 112.665 106.771 112.175 106.791H105.218H87.1331H77.8362C77.3813 106.774 76.926 106.798 76.4751 106.86C75.3231 107.041 74.2534 107.568 73.4077 108.371C72.562 109.174 71.9803 110.215 71.7397 111.356C71.5595 112.295 71.6072 113.262 71.8789 114.178C72.0261 114.636 72.2275 115.074 72.479 115.483C72.9484 116.251 73.5947 116.897 74.3639 117.365C75.1331 117.833 76.0031 118.111 76.9013 118.175C77.484 118.218 78.0971 118.175 78.6885 118.196H85.672H98.4998H98.5389L98.5693 118.222C100.357 119.914 102.209 121.379 103.94 122.727L103.792 122.797C103.792 121.153 103.792 119.575 103.792 118.088V118.005H103.879L111.406 118.175C112.51 118.175 113.554 118.309 114.45 118.022C115.281 117.827 116.054 117.435 116.702 116.879C117.204 116.408 117.618 115.851 117.924 115.235C118.282 114.5 118.491 113.703 118.542 112.887C118.555 112.674 118.568 112.574 118.568 112.574Z" fill="#263238"/>
<path d="M110.923 114.387C110.831 114.394 110.738 114.394 110.645 114.387C110.227 114.331 109.835 114.153 109.518 113.874C109.201 113.596 108.974 113.23 108.865 112.822C108.756 112.415 108.77 111.984 108.906 111.585C109.042 111.185 109.293 110.835 109.627 110.578C109.962 110.321 110.365 110.169 110.786 110.141C111.207 110.113 111.626 110.21 111.992 110.42C112.358 110.631 112.653 110.944 112.84 111.322C113.028 111.7 113.099 112.125 113.045 112.544C112.973 113.055 112.719 113.523 112.329 113.862C111.939 114.201 111.44 114.387 110.923 114.387ZM110.923 110.548C110.51 110.548 110.112 110.698 109.802 110.971C109.492 111.244 109.292 111.621 109.24 112.03C109.184 112.478 109.306 112.929 109.58 113.287C109.855 113.644 110.259 113.879 110.706 113.939C111.154 113.997 111.607 113.875 111.964 113.6C112.322 113.324 112.556 112.918 112.615 112.47C112.644 112.248 112.629 112.023 112.572 111.807C112.514 111.591 112.414 111.389 112.278 111.211C112.142 111.034 111.972 110.885 111.778 110.774C111.585 110.662 111.371 110.59 111.149 110.561C111.073 110.552 110.996 110.548 110.919 110.548H110.923Z" fill="#263238"/>
<path d="M113.828 114.887C113.777 114.886 113.728 114.868 113.689 114.835L112.293 113.67C112.271 113.651 112.253 113.629 112.24 113.604C112.226 113.578 112.218 113.551 112.215 113.522C112.213 113.494 112.216 113.465 112.224 113.438C112.233 113.411 112.246 113.385 112.265 113.363C112.283 113.341 112.305 113.323 112.331 113.31C112.356 113.296 112.384 113.288 112.412 113.286C112.441 113.283 112.469 113.286 112.497 113.294C112.524 113.303 112.549 113.317 112.571 113.335L113.967 114.5C114.012 114.538 114.04 114.591 114.045 114.648C114.051 114.706 114.034 114.764 113.998 114.809C113.977 114.834 113.951 114.854 113.922 114.867C113.892 114.881 113.86 114.888 113.828 114.887Z" fill="#263238"/>
<path d="M77.7535 114.313L78.0405 113.665C78.3442 113.861 78.6967 113.968 79.0581 113.974C79.4233 113.974 79.5625 113.87 79.5625 113.722C79.5625 113.23 77.8231 113.587 77.8231 112.439C77.8231 111.887 78.258 111.434 79.1929 111.434C79.5834 111.43 79.969 111.522 80.3148 111.704L80.0451 112.356C79.7802 112.204 79.4809 112.122 79.1755 112.117C78.8059 112.117 78.6754 112.239 78.6754 112.395C78.6754 112.865 80.4148 112.513 80.4148 113.652C80.4148 114.191 79.9799 114.652 79.045 114.652C78.5912 114.662 78.1437 114.545 77.7535 114.313Z" fill="#263238"/>
<path d="M83.7718 111.482V114.578H82.9021V113.37H81.7106V114.578H80.8409V111.482H81.7106V112.648H82.9021V111.482H83.7718Z" fill="#263238"/>
<path d="M84.2284 113.031C84.2022 112.682 84.2815 112.334 84.456 112.031C84.6305 111.729 84.8921 111.486 85.2068 111.334C85.5214 111.182 85.8745 111.128 86.22 111.18C86.5655 111.232 86.8875 111.386 87.144 111.623C87.4004 111.861 87.5795 112.17 87.6579 112.51C87.7363 112.851 87.7103 113.207 87.5834 113.532C87.4564 113.858 87.2344 114.137 86.9463 114.335C86.6581 114.532 86.3171 114.639 85.9678 114.64C85.7461 114.656 85.5233 114.627 85.3133 114.554C85.1034 114.481 84.9108 114.365 84.7476 114.214C84.5844 114.063 84.454 113.88 84.3647 113.676C84.2754 113.473 84.229 113.253 84.2284 113.031ZM86.7853 113.031C86.7793 112.866 86.725 112.707 86.6293 112.573C86.5335 112.439 86.4004 112.336 86.2467 112.277C86.0929 112.218 85.9252 112.206 85.7644 112.242C85.6037 112.278 85.457 112.36 85.3427 112.478C85.2283 112.597 85.1514 112.746 85.1214 112.908C85.0914 113.07 85.1097 113.237 85.174 113.389C85.2383 113.541 85.3458 113.67 85.4831 113.761C85.6204 113.852 85.7814 113.9 85.946 113.9C86.0592 113.902 86.1714 113.88 86.2759 113.836C86.3803 113.793 86.4747 113.728 86.5533 113.647C86.6319 113.565 86.693 113.469 86.7329 113.363C86.7728 113.257 86.7906 113.144 86.7853 113.031Z" fill="#263238"/>
<path d="M90.9161 112.63C90.9161 113.33 90.3856 113.77 89.5421 113.77H89.0029V114.578H88.1332V111.482H89.5508C90.3856 111.482 90.9161 111.922 90.9161 112.63ZM90.0465 112.63C90.0465 112.343 89.8682 112.174 89.5029 112.174H89.0029V113.078H89.4855C89.8508 113.078 90.0291 112.913 90.0291 112.63H90.0465Z" fill="#263238"/>
</svg>
