<svg width="109" height="81" viewBox="0 0 109 81" fill="none" xmlns="http://www.w3.org/2000/svg">
<path d="M108.708 71.1826H0V71.237H108.708V71.1826Z" fill="#EBEBEB"/>
<path d="M97.8131 74.6802H90.6123V74.7345H97.8131V74.6802Z" fill="#EBEBEB"/>
<path d="M72.0104 75.2717H70.1211V75.3261H72.0104V75.2717Z" fill="#EBEBEB"/>
<path d="M90.3958 72.6614H86.2236V72.7157H90.3958V72.6614Z" fill="#EBEBEB"/>
<path d="M20.7945 73.0283H11.4043V73.0827H20.7945V73.0283Z" fill="#EBEBEB"/>
<path d="M24.1096 73.0283H22.7334V73.0827H24.1096V73.0283Z" fill="#EBEBEB"/>
<path d="M48.9524 73.9453H28.585V73.9997H48.9524V73.9453Z" fill="#EBEBEB"/>
<path d="M51.5267 61.4851H9.54591C9.21703 61.4845 8.90183 61.3535 8.66948 61.1207C8.43714 60.888 8.30664 60.5725 8.30664 60.2437V1.23057C8.3095 0.903584 8.44126 0.590931 8.6733 0.360522C8.90534 0.130114 9.21891 0.000560147 9.54591 0H51.5267C51.8559 0 52.1717 0.130795 52.4045 0.36361C52.6373 0.596426 52.7681 0.912191 52.7681 1.24144V60.2437C52.7681 60.5729 52.6373 60.8887 52.4045 61.1215C52.1717 61.3543 51.8559 61.4851 51.5267 61.4851ZM9.54591 0.0434833C9.23145 0.0440592 8.93007 0.169381 8.70792 0.391941C8.48576 0.614501 8.36099 0.916113 8.36099 1.23057V60.2437C8.36099 60.5581 8.48576 60.8597 8.70792 61.0823C8.93007 61.3049 9.23145 61.4302 9.54591 61.4308H51.5267C51.8413 61.4302 52.1429 61.3049 52.3654 61.0824C52.5879 60.8599 52.7132 60.5583 52.7138 60.2437V1.23057C52.7132 0.915913 52.5879 0.614306 52.3654 0.391808C52.1429 0.16931 51.8413 0.044058 51.5267 0.0434833H9.54591Z" fill="#EBEBEB"/>
<path d="M98.5545 61.4851H56.5715C56.2424 61.4845 55.927 61.3536 55.6943 61.1209C55.4616 60.8882 55.3307 60.5727 55.3301 60.2437V1.23057C55.3335 0.903386 55.4658 0.590735 55.6981 0.360386C55.9305 0.130038 56.2443 0.000554038 56.5715 0H98.5545C98.8811 0.00113154 99.1941 0.130938 99.4257 0.361285C99.6572 0.591633 99.7887 0.90396 99.7915 1.23057V60.2437C99.7915 60.5722 99.6614 60.8873 99.4295 61.12C99.1976 61.3527 98.8829 61.484 98.5545 61.4851ZM56.5715 0.0434833C56.2569 0.044058 55.9553 0.16931 55.7328 0.391808C55.5103 0.614306 55.385 0.915913 55.3844 1.23057V60.2437C55.385 60.5583 55.5103 60.8599 55.7328 61.0824C55.9553 61.3049 56.2569 61.4302 56.5715 61.4308H98.5545C98.8691 61.4302 99.1707 61.3049 99.3932 61.0824C99.6157 60.8599 99.741 60.5583 99.7415 60.2437V1.23057C99.741 0.915913 99.6157 0.614306 99.3932 0.391808C99.1707 0.16931 98.8691 0.044058 98.5545 0.0434833H56.5715Z" fill="#EBEBEB"/>
<path d="M69.1953 49.4443H95.3156C95.3161 49.9062 95.1381 50.3504 94.8189 50.6842C94.4996 51.018 94.0638 51.2157 93.6024 51.2358C90.7955 51.3619 86.4777 51.8055 85.108 53.3578C82.5555 56.2538 82.8033 66.4245 85.8602 68.7791C86.819 69.5183 89.6128 70.9859 89.6128 70.9859H74.8959C74.8959 70.9859 77.5049 69.4879 78.4159 68.7791C81.4597 66.4049 81.5445 56.2407 78.979 53.3578C77.6636 51.8794 73.6175 51.4011 70.8999 51.2511C70.4386 51.2249 70.0049 51.0231 69.6879 50.6871C69.3708 50.351 69.1946 49.9063 69.1953 49.4443Z" fill="#F5F5F5"/>
<path d="M92.0784 51.3291C89.4237 51.5465 86.2451 52.0661 85.1059 53.3576C84.7338 53.8037 84.4398 54.3094 84.2362 54.8534H79.8553C79.6507 54.3099 79.3567 53.8043 78.9856 53.3576C77.842 52.0727 74.6373 51.5443 72.0283 51.3291H92.0784Z" fill="#E6E6E6"/>
<path d="M80.3205 49.4578L80.6749 45.3987H75.5265L75.1699 49.4578H80.3205Z" fill="#EBEBEB"/>
<path d="M80.3242 49.4578L80.6786 45.3987H80.9547L80.6003 49.4578H80.3242Z" fill="#E0E0E0"/>
<path d="M79.8319 49.0445L80.1145 45.8115H76.0141L75.7314 49.0445H79.8319Z" fill="#F0F0F0"/>
<path d="M79.5161 48.7789L79.7531 46.0786H76.3288L76.0918 48.7789H79.5161Z" fill="#FAFAFA"/>
<path d="M81.9919 49.4442H87.1643L86.5903 42.8848H81.418L81.9919 49.4442Z" fill="#E6E6E6"/>
<path d="M81.9898 49.4442H81.7419L81.168 42.8848H81.4158L81.9898 49.4442Z" fill="#E0E0E0"/>
<path d="M82.4595 48.7765H86.5773L86.1208 43.5542H82.0029L82.4595 48.7765Z" fill="#F0F0F0"/>
<path d="M82.7616 48.3467H86.2011L85.8184 43.9854H82.3789L82.7616 48.3467Z" fill="#FAFAFA"/>
<path d="M84.4984 45.9466C84.4431 46.0024 84.3772 46.0467 84.3046 46.0769C84.232 46.1071 84.1542 46.1227 84.0756 46.1227C83.9969 46.1227 83.9191 46.1071 83.8465 46.0769C83.7739 46.0467 83.7081 46.0024 83.6527 45.9466C83.5969 45.8912 83.5526 45.8253 83.5224 45.7527C83.4921 45.6802 83.4766 45.6023 83.4766 45.5237C83.4766 45.4451 83.4921 45.3672 83.5224 45.2947C83.5526 45.2221 83.5969 45.1562 83.6527 45.1008C83.7651 44.9892 83.9171 44.9265 84.0756 44.9265C84.234 44.9265 84.386 44.9892 84.4984 45.1008C84.6101 45.2133 84.6728 45.3653 84.6728 45.5237C84.6728 45.6822 84.6101 45.8342 84.4984 45.9466Z" fill="#EBEBEB"/>
<path d="M84.2474 46.6807C84.2878 46.6397 84.3361 46.607 84.3893 46.5848C84.4425 46.5625 84.4995 46.551 84.5572 46.551C84.6149 46.551 84.672 46.5625 84.7251 46.5848C84.7783 46.607 84.8266 46.6397 84.867 46.6807C84.93 46.7414 84.9733 46.8197 84.9911 46.9054C85.0089 46.991 85.0005 47.0801 84.9669 47.1608C84.9333 47.2416 84.8761 47.3104 84.8029 47.3582C84.7296 47.406 84.6436 47.4305 84.5561 47.4287C84.4688 47.4301 84.3832 47.4052 84.3102 47.3572C84.2373 47.3093 84.1805 47.2405 84.1472 47.1598C84.1138 47.0791 84.1056 46.9903 84.1235 46.9048C84.1414 46.8194 84.1845 46.7413 84.2474 46.6807Z" fill="#F0F0F0"/>
<path d="M40.4119 69.6445H45.4407L42.7926 48.0747C42.7285 47.624 42.5069 47.2105 42.167 46.9077C41.8271 46.6048 41.391 46.4321 40.9359 46.4202H18.9639L22.1773 69.6445H40.4119Z" fill="#F5F5F5"/>
<path d="M24.4331 69.6449H19.3956L16.741 48.0751C16.7084 47.8678 16.7218 47.6558 16.7802 47.4543C16.8386 47.2527 16.9406 47.0664 17.0789 46.9085C17.2173 46.7507 17.3886 46.6252 17.5808 46.5409C17.773 46.4566 17.9813 46.4155 18.1911 46.4206H19.9305C20.3855 46.4325 20.8217 46.6052 21.1616 46.9081C21.5015 47.2109 21.7231 47.6244 21.7872 48.0751L24.4331 69.6449Z" fill="#F0F0F0"/>
<path d="M26.2899 69.6189L25.3767 59.1829C25.3565 58.9563 25.2591 58.7435 25.1008 58.5801C24.9425 58.4166 24.7329 58.3125 24.5071 58.285L24.1309 58.235C23.8289 58.1968 23.5491 58.0562 23.3382 57.8366C23.1273 57.617 22.9981 57.3317 22.9721 57.0283L22.8047 55.1259C22.7887 54.9417 22.8112 54.7562 22.8707 54.5812C22.9302 54.4061 23.0254 54.2453 23.1503 54.109C23.2752 53.9727 23.427 53.8638 23.5962 53.7892C23.7654 53.7146 23.9482 53.676 24.1331 53.6758H15.7191C15.5342 53.676 15.3514 53.7146 15.1822 53.7892C15.0131 53.8638 14.8612 53.9727 14.7363 54.109C14.6114 54.2453 14.5162 54.4061 14.4567 54.5812C14.3972 54.7562 14.3748 54.9417 14.3907 55.1259L14.5581 57.0283C14.5841 57.3317 14.7133 57.617 14.9242 57.8366C15.1351 58.0562 15.4149 58.1968 15.717 58.235L16.0931 58.285C16.3191 58.3121 16.5289 58.4161 16.6873 58.5796C16.8456 58.7431 16.9429 58.9562 16.9627 59.1829L17.8759 69.6189C17.9085 69.9857 18.0772 70.327 18.3488 70.5756C18.6204 70.8243 18.9752 70.9623 19.3435 70.9625H27.7618C27.3925 70.9644 27.036 70.8272 26.7633 70.5783C26.4906 70.3293 26.3216 69.9868 26.2899 69.6189Z" fill="#E6E6E6"/>
<path d="M49.4593 56.573C49.5288 55.7832 49.8913 55.0481 50.4756 54.5121C51.0598 53.9762 51.8234 53.6783 52.6162 53.677H45.2893C44.4961 53.6778 43.732 53.9754 43.1473 54.5114C42.5626 55.0474 42.1998 55.7829 42.1302 56.573L41.4062 64.8348H48.7353L49.4593 56.573Z" fill="#E6E6E6"/>
<path d="M55.8759 53.677H52.6146C51.8215 53.6778 51.0573 53.9754 50.4726 54.5114C49.8879 55.0474 49.5251 55.7829 49.4556 56.573L48.7316 64.8348H31.2775L30.5535 56.573C30.4839 55.7829 30.1211 55.0474 29.5364 54.5114C28.9518 53.9754 28.1876 53.6778 27.3944 53.677H24.1332C23.9483 53.6772 23.7655 53.7158 23.5963 53.7904C23.4271 53.865 23.2753 53.9739 23.1504 54.1102C23.0255 54.2466 22.9303 54.4073 22.8708 54.5824C22.8113 54.7575 22.7888 54.943 22.8048 55.1272L22.9722 57.0295C22.9982 57.3329 23.1274 57.6182 23.3382 57.8378C23.5491 58.0574 23.829 58.198 24.131 58.2362L24.5072 58.2862C24.733 58.3137 24.9426 58.4178 25.1009 58.5813C25.2592 58.7447 25.3566 58.9575 25.3768 59.1841L26.29 69.6201C26.3215 69.9869 26.4896 70.3285 26.761 70.5773C27.0323 70.8261 27.3872 70.964 27.7553 70.9637H52.2559C52.6241 70.9635 52.979 70.8255 53.2506 70.5769C53.5222 70.3282 53.6909 69.9869 53.7234 69.6201L54.6344 59.1841C54.6547 58.9575 54.7521 58.7447 54.9104 58.5813C55.0686 58.4178 55.2782 58.3137 55.5041 58.2862L55.8802 58.2384C56.1823 58.1993 56.4619 58.0581 56.6727 57.8383C56.8835 57.6184 57.0128 57.333 57.039 57.0295L57.2064 55.1272C57.2224 54.9428 57.1999 54.7571 57.1403 54.5819C57.0806 54.4067 56.9852 54.2458 56.8601 54.1094C56.735 53.9731 56.5829 53.8642 56.4134 53.7898C56.244 53.7153 56.0609 53.6769 55.8759 53.677Z" fill="#F0F0F0"/>
<path d="M85.3702 16.5871C85.3702 16.5871 85.6267 14.9086 84.4005 13.8303C83.1743 12.7519 83.283 12.1127 83.633 12.03C83.9831 11.9474 84.307 13.0236 84.844 13.3193C84.844 13.3193 84.8614 11.7844 84.3157 11.2191C83.77 10.6538 83.4808 9.19712 84.0004 9.17104C84.5201 9.14495 84.5766 10.0407 84.6831 10.6669C84.7897 11.293 85.3702 12.1888 85.3702 12.1888C85.3702 12.1888 85.4832 10.8147 85.8376 10.2494C86.192 9.68414 85.2484 8.39051 85.6202 7.82523C85.992 7.25995 86.6312 8.33833 86.5768 9.54934C86.5225 10.7603 85.7072 12.054 85.9028 13.3193C85.9028 13.3193 86.2594 12.4301 86.5812 12.3497C86.9029 12.2692 87.2225 11.68 87.4378 11.4626C87.653 11.2452 87.9226 11.9996 87.4378 12.6997C86.953 13.3998 85.7159 15.2717 85.9028 16.7871L85.3702 16.5871Z" fill="#E6E6E6"/>
<path d="M84.64 15.8237L84.2378 18.3414C84.2085 18.5241 84.2193 18.711 84.2693 18.8892C84.3193 19.0674 84.4074 19.2326 84.5275 19.3733C84.6476 19.5141 84.7969 19.6271 84.965 19.7046C85.133 19.7821 85.3159 19.8221 85.501 19.822H85.9358C86.1209 19.8221 86.3039 19.782 86.472 19.7046C86.6401 19.6271 86.7895 19.5141 86.9098 19.3734C87.0301 19.2327 87.1184 19.0675 87.1687 18.8894C87.219 18.7112 87.2301 18.5243 87.2011 18.3414L86.7989 15.8237H84.64Z" fill="#E6E6E6"/>
<path d="M90.7083 18.8938H62.3486V20.3505H90.7083V18.8938Z" fill="#E0E0E0"/>
<path d="M64.9035 13.5208H63.6533V18.8909H64.9035V13.5208Z" fill="#EBEBEB"/>
<path d="M70.9445 13.5208H69.6943V18.8909H70.9445V13.5208Z" fill="#EBEBEB"/>
<path d="M77.8033 13.3851L76.5713 13.5974L77.4835 18.8895L78.7155 18.6772L77.8033 13.3851Z" fill="#EBEBEB"/>
<path d="M66.4513 14.2302H65.2012V18.8938H66.4513V14.2302Z" fill="#EBEBEB"/>
<path d="M69.3214 14.2302H68.0713V18.8938H69.3214V14.2302Z" fill="#EBEBEB"/>
<path d="M76.5714 14.2302H75.3213V18.8938H76.5714V14.2302Z" fill="#EBEBEB"/>
<path d="M72.5846 14.0645L71.3643 14.3357L72.376 18.8882L73.5964 18.617L72.5846 14.0645Z" fill="#EBEBEB"/>
<path d="M67.5283 13.2559H66.9043V18.8934H67.5283V13.2559Z" fill="#EBEBEB"/>
<path d="M74.9589 13.2559H74.335V18.8934H74.9589V13.2559Z" fill="#EBEBEB"/>
<path d="M62.3464 31.2268L90.7061 31.2268V29.7701L62.3464 29.7701V31.2268Z" fill="#E0E0E0"/>
<path d="M88.1493 29.771H89.3994V24.4008H88.1493V29.771Z" fill="#EBEBEB"/>
<path d="M82.1073 29.771H83.3574V24.4008H82.1073V29.771Z" fill="#EBEBEB"/>
<path d="M74.3442 29.5552L75.5762 29.7676L76.4884 24.4755L75.2564 24.2631L74.3442 29.5552Z" fill="#EBEBEB"/>
<path d="M86.6034 29.771H87.8535V25.1074H86.6034V29.771Z" fill="#EBEBEB"/>
<path d="M83.7303 29.771H84.9805V25.1074H83.7303V29.771Z" fill="#EBEBEB"/>
<path d="M76.4833 29.771H77.7334V25.1074H76.4833V29.771Z" fill="#EBEBEB"/>
<path d="M79.4574 29.4951L80.6777 29.7664L81.6895 25.2139L80.4691 24.9427L79.4574 29.4951Z" fill="#EBEBEB"/>
<path d="M85.5215 29.771H86.1455V24.1334H85.5215V29.771Z" fill="#EBEBEB"/>
<path d="M78.0909 29.771H78.7148V24.1334H78.0909V29.771Z" fill="#EBEBEB"/>
<path d="M65.0696 29.7205H71.1572V25.5178H65.0696V29.7205Z" fill="#EBEBEB"/>
<path d="M50.498 10.1973H15.8594C15.6048 10.1973 15.3984 10.4036 15.3984 10.6582V11.1517C15.3984 11.4063 15.6048 11.6126 15.8594 11.6126H50.498C50.7526 11.6126 50.9589 11.4063 50.9589 11.1517V10.6582C50.9589 10.4036 50.7526 10.1973 50.498 10.1973Z" fill="#E0E0E0"/>
<path d="M48.8488 11.323H17.5127V39.1304H48.8488V11.323Z" fill="#E6E6E6"/>
<path d="M48.0241 12.083H18.2969V38.3794H48.0241V12.083Z" fill="#F0F0F0"/>
<path d="M25.2737 12.083L18.2969 38.3229V25.9933L21.9799 12.083H25.2737Z" fill="white"/>
<path d="M27.7426 12.083L20.7049 38.3816H19.583L26.6207 12.083H27.7426Z" fill="white"/>
<path d="M48.0237 28.6797V32.8802L46.5996 38.3829H45.4756L48.0237 28.6797Z" fill="white"/>
<path d="M28.6651 11.6118H28.165V38.9692H28.6651V11.6118Z" fill="#E6E6E6"/>
<path d="M38.3682 11.6118H37.8682V38.9692H38.3682V11.6118Z" fill="#E6E6E6"/>
<path d="M43.7422 10.6536C43.7422 10.6536 44.464 20.0611 48.6101 24.8551C48.6101 24.8551 45.5902 36.963 45.5924 41.1852L51.2039 40.1482L49.1819 24.9291L50.1494 10.6536H43.7422Z" fill="#E0E0E0"/>
<path d="M22.6101 10.6536C22.6101 10.6536 21.8883 20.0611 17.7422 24.8551C17.7422 24.8551 20.7621 36.963 20.7599 41.1852L15.1484 40.1482L17.1704 24.9291L16.2116 10.6536H22.6101Z" fill="#E0E0E0"/>
<path d="M54.3539 80.9994C77.6353 80.9994 96.5086 79.8975 96.5086 78.5383C96.5086 77.179 77.6353 76.0771 54.3539 76.0771C31.0725 76.0771 12.1992 77.179 12.1992 78.5383C12.1992 79.8975 31.0725 80.9994 54.3539 80.9994Z" fill="#F5F5F5"/>
<path d="M83.7194 72.2975C83.7194 72.2279 83.4845 65.3554 82.3714 64.2749C81.2995 63.2313 80.0624 64.2358 80.0102 64.2749L79.8711 64.1075C79.8863 64.0966 81.3104 62.9334 82.5236 64.1075C83.6998 65.2511 83.9281 71.9931 83.9368 72.278L83.7194 72.2975Z" fill="#187259"/>
<path d="M83.8165 73.6498C83.7839 73.3128 83.0491 65.388 86.0429 61.9485L86.2059 62.0898C83.2752 65.4532 84.0318 73.5476 84.0318 73.628L83.8165 73.6498Z" fill="#187259"/>
<path d="M83.7461 72.7843L83.5287 72.7691C83.5287 72.6778 84.1135 63.4833 81.9307 61.4766L82.0785 61.3157C84.3375 63.3942 83.7722 72.3995 83.7461 72.7843Z" fill="#187259"/>
<path d="M84.0328 72.7785H83.8154C83.8154 72.5241 83.8893 66.5496 85.5939 65.5734C85.7573 65.4676 85.9437 65.4027 86.1375 65.3842C86.3312 65.3656 86.5266 65.394 86.7071 65.4668C87.7398 65.9017 88.2507 67.7258 88.2724 67.804L88.055 67.8606C88.055 67.8432 87.5528 66.0538 86.6179 65.6668C86.4676 65.607 86.3051 65.5845 86.1442 65.6012C85.9832 65.6178 85.8288 65.6732 85.6939 65.7625C84.1046 66.6757 84.035 72.7176 84.0328 72.7785Z" fill="#187259"/>
<path d="M83.374 72.782L83.1566 72.7711C83.1566 72.7233 83.411 68.0662 82.1587 66.4291C81.8565 66.0377 81.5325 65.8529 81.1912 65.8747C80.3759 65.9312 79.691 67.127 79.6845 67.14L79.4932 67.0335C79.5236 66.9792 80.2454 65.729 81.1738 65.6573C81.5912 65.629 81.9826 65.8421 82.3304 66.2965C83.6328 67.9988 83.3849 72.5885 83.374 72.782Z" fill="#187259"/>
<path d="M83.6087 73.4175C83.5739 72.9653 82.7847 62.3076 84.1761 60.4226L84.3522 60.5531C83.0064 62.3707 83.8152 73.2914 83.8239 73.4023L83.6087 73.4175Z" fill="#187259"/>
<path d="M87.0733 66.5609C87.0733 66.5609 86.2406 66.8675 86.4885 67.5915C86.7363 68.3155 89.3692 69.5091 89.3692 69.5091C89.3692 69.5091 90.4715 68.4981 89.4584 66.8566C88.4452 65.2151 87.0951 66.0435 87.0733 66.5609Z" fill="#187259"/>
<path opacity="0.2" d="M87.0733 66.5609C87.0733 66.5609 86.2406 66.8675 86.4885 67.5915C86.7363 68.3155 89.3692 69.5091 89.3692 69.5091C89.3692 69.5091 90.4715 68.4981 89.4584 66.8566C88.4452 65.2151 87.0951 66.0435 87.0733 66.5609Z" fill="white"/>
<path d="M83.4549 65.1834C83.4549 65.1834 84.342 65.1465 84.392 65.9096C84.442 66.6727 82.4722 68.7882 82.4722 68.7882C82.4722 68.7882 81.0655 68.2794 81.3677 66.3727C81.67 64.466 83.2353 64.7116 83.4549 65.1834Z" fill="#187259"/>
<path opacity="0.2" d="M83.4549 65.1834C83.4549 65.1834 84.342 65.1465 84.392 65.9096C84.442 66.6727 82.4722 68.7882 82.4722 68.7882C82.4722 68.7882 81.0655 68.2794 81.3677 66.3727C81.67 64.466 83.2353 64.7116 83.4549 65.1834Z" fill="white"/>
<path d="M82.7048 61.5278C82.7048 61.5278 83.2962 61.4647 83.2483 61.106C83.2005 60.7472 80.9503 59.8189 79.624 61.3234C79.624 61.3234 80.4741 62.7844 81.7025 62.8018C82.9309 62.8192 82.7048 61.5278 82.7048 61.5278Z" fill="#187259"/>
<path opacity="0.2" d="M82.7048 61.5278C82.7048 61.5278 83.2962 61.4647 83.2483 61.106C83.2005 60.7472 80.9503 59.8189 79.624 61.3234C79.624 61.3234 80.4741 62.7844 81.7025 62.8018C82.9309 62.8192 82.7048 61.5278 82.7048 61.5278Z" fill="white"/>
<path d="M83.8071 60.6594C83.8071 60.6594 83.2722 60.9181 83.1222 60.5876C82.9722 60.2572 84.3897 58.2809 86.3095 58.8483C86.3095 58.8483 86.3617 60.5376 85.3268 61.2029C84.2919 61.8682 83.8071 60.6594 83.8071 60.6594Z" fill="#187259"/>
<path opacity="0.2" d="M83.8071 60.6594C83.8071 60.6594 83.2722 60.9181 83.1222 60.5876C82.9722 60.2572 84.3897 58.2809 86.3095 58.8483C86.3095 58.8483 86.3617 60.5376 85.3268 61.2029C84.2919 61.8682 83.8071 60.6594 83.8071 60.6594Z" fill="white"/>
<path d="M81.0103 66.2707C81.0103 66.2707 81.4169 65.9424 80.9777 65.7815C80.5385 65.6206 78.3687 65.6663 78.3535 67.8057C78.3535 67.8057 80.869 68.2231 81.1799 67.4078C81.4908 66.5925 81.0103 66.2707 81.0103 66.2707Z" fill="#187259"/>
<path opacity="0.2" d="M81.0103 66.2707C81.0103 66.2707 81.4169 65.9424 80.9777 65.7815C80.5385 65.6206 78.3687 65.6663 78.3535 67.8057C78.3535 67.8057 80.869 68.2231 81.1799 67.4078C81.4908 66.5925 81.0103 66.2707 81.0103 66.2707Z" fill="white"/>
<path d="M86.1365 61.4728C86.1365 61.4728 85.7299 61.1423 86.1691 60.9814C86.6083 60.8206 88.7781 60.8662 88.7911 63.0078C88.7911 63.0078 86.2756 63.4252 85.9647 62.6099C85.6538 61.7946 86.1365 61.4728 86.1365 61.4728Z" fill="#187259"/>
<path opacity="0.2" d="M86.1365 61.4728C86.1365 61.4728 85.7299 61.1423 86.1691 60.9814C86.6083 60.8206 88.7781 60.8662 88.7911 63.0078C88.7911 63.0078 86.2756 63.4252 85.9647 62.6099C85.6538 61.7946 86.1365 61.4728 86.1365 61.4728Z" fill="white"/>
<path d="M84.8072 63.1966C84.8072 63.1966 84.7724 62.7944 85.0964 62.9531C85.4203 63.1118 86.5443 64.325 85.3768 65.4773C85.3768 65.4773 83.8071 64.3141 84.0897 63.7075C84.3724 63.1009 84.8072 63.1966 84.8072 63.1966Z" fill="#187259"/>
<path opacity="0.2" d="M84.8072 63.1966C84.8072 63.1966 84.7724 62.7944 85.0964 62.9531C85.4203 63.1118 86.5443 64.325 85.3768 65.4773C85.3768 65.4773 83.8071 64.3141 84.0897 63.7075C84.3724 63.1009 84.8072 63.1966 84.8072 63.1966Z" fill="white"/>
<path d="M80.6443 63.7667C80.6443 63.7667 80.8878 63.4471 80.5312 63.4079C80.1747 63.3688 78.5745 63.7949 78.9463 65.3929C78.9463 65.3929 80.903 65.2473 80.9791 64.582C81.0552 63.9167 80.6443 63.7667 80.6443 63.7667Z" fill="#187259"/>
<path opacity="0.2" d="M80.6443 63.7667C80.6443 63.7667 80.8878 63.4471 80.5312 63.4079C80.1747 63.3688 78.5745 63.7949 78.9463 65.3929C78.9463 65.3929 80.903 65.2473 80.9791 64.582C81.0552 63.9167 80.6443 63.7667 80.6443 63.7667Z" fill="white"/>
<path d="M87.233 78.7083H80.5409L79.8213 71.3835H87.9548L87.233 78.7083Z" fill="#263238"/>
<path d="M88.3076 70.5752H79.4609V72.1906H88.3076V70.5752Z" fill="#263238"/>
<path opacity="0.2" d="M88.3076 70.5752H79.4609V72.1906H88.3076V70.5752Z" fill="white"/>
<path d="M71.8352 78.7038H51.6525C51.3629 78.7086 51.0755 78.6517 50.8096 78.5369C50.5436 78.4221 50.3051 78.252 50.11 78.0379C49.9148 77.8238 49.7674 77.5707 49.6777 77.2952C49.5879 77.0198 49.5578 76.7284 49.5893 76.4405L54.8072 16.8425C54.8704 16.23 55.1556 15.6618 55.609 15.2452C56.0624 14.8287 56.6527 14.5925 57.2684 14.5814H77.4445C77.7343 14.576 78.0218 14.6324 78.288 14.7468C78.5543 14.8612 78.793 15.031 78.9885 15.245C79.1839 15.4589 79.3315 15.7121 79.4214 15.9875C79.5114 16.263 79.5415 16.5545 79.51 16.8425L74.292 76.4405C74.2299 77.0528 73.9457 77.6212 73.493 78.0383C73.0404 78.4553 72.4506 78.692 71.8352 78.7038Z" fill="#187259"/>
<path opacity="0.4" d="M71.8352 78.7038H51.6525C51.3629 78.7086 51.0755 78.6517 50.8096 78.5369C50.5436 78.4221 50.3051 78.252 50.11 78.0379C49.9148 77.8238 49.7674 77.5707 49.6777 77.2952C49.5879 77.0198 49.5578 76.7284 49.5893 76.4405L54.8072 16.8425C54.8704 16.23 55.1556 15.6618 55.609 15.2452C56.0624 14.8287 56.6527 14.5925 57.2684 14.5814H77.4445C77.7343 14.576 78.0218 14.6324 78.288 14.7468C78.5543 14.8612 78.793 15.031 78.9885 15.245C79.1839 15.4589 79.3315 15.7121 79.4214 15.9875C79.5114 16.263 79.5415 16.5545 79.51 16.8425L74.292 76.4405C74.2299 77.0528 73.9457 77.6212 73.493 78.0383C73.0404 78.4553 72.4506 78.692 71.8352 78.7038Z" fill="white"/>
<path d="M69.6594 78.7038H49.4768C49.1871 78.7086 48.8998 78.6517 48.6338 78.5369C48.3678 78.4221 48.1293 78.252 47.9342 78.0379C47.739 77.8238 47.5917 77.5707 47.5019 77.2952C47.4121 77.0198 47.382 76.7284 47.4135 76.4405L52.6315 16.8425C52.6946 16.23 52.9798 15.6618 53.4332 15.2452C53.8867 14.8287 54.4769 14.5925 55.0926 14.5814H75.2688C75.5585 14.576 75.846 14.6324 76.1123 14.7468C76.3785 14.8612 76.6173 15.031 76.8127 15.245C77.0081 15.4589 77.1557 15.7121 77.2457 15.9875C77.3356 16.263 77.3658 16.5545 77.3342 16.8425L72.1162 76.4405C72.0542 77.0528 71.7699 77.6212 71.3172 78.0383C70.8646 78.4553 70.2748 78.692 69.6594 78.7038Z" fill="#263238"/>
<path d="M69.6594 78.7038H49.4768C49.1871 78.7086 48.8998 78.6517 48.6338 78.5369C48.3678 78.4221 48.1293 78.252 47.9342 78.0379C47.739 77.8238 47.5917 77.5707 47.5019 77.2952C47.4121 77.0198 47.382 76.7284 47.4135 76.4405L52.6315 16.8425C52.6946 16.23 52.9798 15.6618 53.4332 15.2452C53.8867 14.8287 54.4769 14.5925 55.0926 14.5814H75.2688C75.5585 14.576 75.846 14.6324 76.1123 14.7468C76.3785 14.8612 76.6173 15.031 76.8127 15.245C77.0081 15.4589 77.1557 15.7121 77.2457 15.9875C77.3356 16.263 77.3658 16.5545 77.3342 16.8425L72.1162 76.4405C72.0542 77.0528 71.7699 77.6212 71.3172 78.0383C70.8646 78.4553 70.2748 78.692 69.6594 78.7038Z" fill="#187259"/>
<path d="M76.5095 16.7414L71.2915 76.4524C71.248 76.9437 70.9415 77.322 70.6001 77.322H48.7194C48.4064 77.322 48.202 76.972 48.2411 76.522L53.483 16.6631C53.5178 16.2718 53.7461 15.9304 54.0178 15.9304H59.4858C59.6402 15.9304 59.7685 16.0761 59.8076 16.2848L59.9642 17.0892C60.0033 17.3067 60.1316 17.4415 60.2859 17.4415H69.5957C69.6864 17.428 69.7712 17.388 69.8393 17.3265C69.9074 17.265 69.9557 17.1847 69.9783 17.0958L70.2762 16.287C70.2982 16.1967 70.3462 16.1148 70.4142 16.0515C70.4822 15.9881 70.5672 15.946 70.6588 15.9304H76.0486C76.3421 15.9304 76.5464 16.3065 76.5095 16.7414Z" fill="#263238"/>
<path d="M76.2539 19.6609L71.7707 70.8949H48.7334L53.2165 19.6609H76.2539Z" fill="#187259"/>
<path opacity="0.6" d="M55.8711 18.3367H56.1559L56.2037 17.7888H55.9189L55.8711 18.3367Z" fill="white"/>
<path opacity="0.6" d="M55.4062 18.337H55.6911L55.7563 17.6064H55.4715L55.4062 18.337Z" fill="white"/>
<path opacity="0.6" d="M54.9424 18.3362H55.2272L55.3076 17.4231H55.0228L54.9424 18.3362Z" fill="white"/>
<path opacity="0.6" d="M54.4814 18.3365H54.7663L54.8619 17.2407H54.5771L54.4814 18.3365Z" fill="white"/>
<path opacity="0.6" d="M73.7799 18.1372H73.6104L73.6604 17.5894H73.8278L73.7799 18.1372Z" fill="white"/>
<path opacity="0.6" d="M73.877 18.3366H75.2228L75.3054 17.3887H73.9617L73.877 18.3366Z" fill="white"/>
<path opacity="0.6" d="M65.0493 16.0076C65.0275 16.2598 64.8688 16.4642 64.6927 16.4642C64.5166 16.4642 64.3948 16.2598 64.4166 16.0076C64.4383 15.7554 64.5992 15.551 64.7731 15.551C64.9471 15.551 65.071 15.7554 65.0493 16.0076Z" fill="#263238"/>
<path opacity="0.6" d="M65.6891 16.0084C65.676 16.1692 65.5738 16.2997 65.4608 16.2997C65.3477 16.2997 65.2716 16.1692 65.2847 16.0084C65.2977 15.8475 65.4021 15.7148 65.5129 15.7148C65.6238 15.7148 65.7043 15.8475 65.6891 16.0084Z" fill="#263238"/>
<path opacity="0.7" d="M76.2539 19.6609L75.632 26.7682L75.5255 27.9944L75.0276 33.6885L74.9494 34.5734L74.2428 42.6461L74.1667 43.5309L73.4883 51.2818L73.3905 52.3971L71.7729 70.8949H48.7334L53.2165 19.6609H76.2539Z" fill="white"/>
<path d="M54.2672 32.2942L53.6562 33.4161L54.8781 34.1922L54.2672 32.2942Z" fill="#187259"/>
<path d="M56.0492 54.7253L56.8363 53.8491L55.7861 52.675L56.0492 54.7253Z" fill="#187259"/>
<path d="M65.0844 21.7724L65.0257 20.3613L63.7451 20.9049L65.0844 21.7724Z" fill="#187259"/>
<path d="M52.0599 54.1836L51.4512 55.3033L52.6709 56.0795L52.0599 54.1836Z" fill="#187259"/>
<path d="M52.8044 49.3772L52.3434 50.5947L51.3955 49.7903L52.1565 48.4814L52.8044 49.3772Z" fill="#187259"/>
<path d="M62.2858 66.6577L63.262 66.7447L63.1403 68.297L61.9814 67.8665L62.2858 66.6577Z" fill="#187259"/>
<path d="M54.3528 40.3088L54.9637 40.4806C54.9637 40.4806 54.0484 41.3503 54.4746 42.0329C54.9007 42.7156 54.1702 43.3266 54.1702 43.3266L53.6201 42.8091C53.7625 42.6467 53.8599 42.4499 53.9026 42.2382C53.9453 42.0265 53.9319 41.8073 53.8636 41.6025C53.6201 40.9133 54.3528 40.3088 54.3528 40.3088Z" fill="#187259"/>
<path d="M62.6825 35.4043L63.2935 35.5761C63.2935 35.5761 62.3782 36.4457 62.8043 37.1284C63.2304 37.8111 62.4999 38.422 62.4999 38.422L61.9629 37.9046C62.1047 37.7419 62.2017 37.5451 62.2444 37.3335C62.2871 37.1219 62.274 36.9029 62.2064 36.6979C61.9629 36.0065 62.6825 35.4043 62.6825 35.4043Z" fill="#187259"/>
<path d="M54.4125 27.2249L53.8516 28.3967L55.1039 29.0664L54.4125 27.2249Z" fill="#187259"/>
<path d="M65.3744 27.821L64.8135 28.9929L66.0658 29.6626L65.3744 27.821Z" fill="#187259"/>
<path d="M60.0937 25.9596L60.4329 24.6291L59.1045 24.4138L60.0937 25.9596Z" fill="#187259"/>
<path d="M59.8398 31.2524L60.0181 29.8936L61.0943 30.2545L60.6508 31.8286L59.8398 31.2524Z" fill="#187259"/>
<path d="M72.625 29.2932L72.8033 27.9343L73.8773 28.2952L73.4338 29.8693L72.625 29.2932Z" fill="#187259"/>
<path d="M71.7305 37.3044L71.9088 35.9456L72.985 36.3065L72.5414 37.8806L71.7305 37.3044Z" fill="#187259"/>
<path d="M68.704 35.6214L68.0866 35.7193C68.0866 35.7193 68.7736 34.5039 68.2192 34.0299C67.6648 33.556 68.2301 32.6667 68.2301 32.6667L68.8649 32.9255C68.8649 32.9255 68.5105 33.6277 68.8932 34.18C69.2758 34.7322 68.704 35.6214 68.704 35.6214Z" fill="#187259"/>
<path d="M63.569 51.7361L62.958 52.8579L64.1777 53.6341L63.569 51.7361Z" fill="#187259"/>
<path d="M59.7613 56.0798L59.1504 57.2017L60.3701 57.9779L59.7613 56.0798Z" fill="#187259"/>
<path d="M66.6696 46.4077L67.6458 46.4925L67.5241 48.047L66.3652 47.6144L66.6696 46.4077Z" fill="#187259"/>
<path d="M70.3173 59.5042L71.2913 59.5889L71.1696 61.1413L70.0107 60.7108L70.3173 59.5042Z" fill="#187259"/>
<path d="M65.5 60.896L66.111 61.0699C66.111 61.0699 65.1957 61.9396 65.6218 62.6223C66.0479 63.305 65.3174 63.9268 65.3174 63.9268L64.7695 63.4093C64.9138 63.2436 65.0118 63.0428 65.0534 62.827C65.095 62.6113 65.0788 62.3884 65.0065 62.1809C64.7695 61.5004 65.5 60.896 65.5 60.896Z" fill="#187259"/>
<path d="M70.8872 54.6631L70.5024 54.7892C70.5024 54.7892 70.6676 53.639 70.1893 53.2412C69.711 52.8433 69.8762 51.9976 69.8762 51.9976L70.3545 52.1932C70.3236 52.5992 70.4342 53.0033 70.6676 53.3368C71.0503 53.8173 70.8872 54.6631 70.8872 54.6631Z" fill="#187259"/>
<path d="M71.1562 23.7285L70.7713 23.8568C70.7713 23.8568 70.9366 22.7067 70.4583 22.3088C69.98 21.9109 70.143 21.0652 70.143 21.0652L70.6213 21.2609C70.5917 21.667 70.7031 22.0709 70.9366 22.4045C71.3127 22.8828 71.1562 23.7285 71.1562 23.7285Z" fill="#187259"/>
<path d="M56.0145 67.3525L55.4405 67.683C55.4405 67.683 55.8754 66.2503 55.2427 66.0067C54.61 65.7632 54.9948 64.6892 54.9948 64.6892H55.6471C55.6471 64.6892 55.4405 65.5023 55.9123 65.8893C56.3841 66.2763 56.0145 67.3525 56.0145 67.3525Z" fill="#187259"/>
<path d="M55.7659 21.7724C55.7659 22.1289 55.5615 22.4246 55.3093 22.4246C55.0571 22.4246 54.8506 22.1354 54.8506 21.7724C54.8506 21.4093 55.055 21.1201 55.3093 21.1201C55.5637 21.1201 55.7659 21.4158 55.7659 21.7724Z" fill="#187259"/>
<path d="M60.8313 46.6459C60.8313 47.0046 60.6139 47.2981 60.3726 47.2981C60.1313 47.2981 59.916 47.009 59.916 46.6459C59.916 46.2828 60.1204 45.9937 60.3726 45.9937C60.6248 45.9937 60.8313 46.2893 60.8313 46.6459Z" fill="#187259"/>
<path d="M72.8179 44.796C73.0701 44.796 73.2745 44.506 73.2745 44.1481C73.2745 43.7903 73.0701 43.5002 72.8179 43.5002C72.5657 43.5002 72.3613 43.7903 72.3613 44.1481C72.3613 44.506 72.5657 44.796 72.8179 44.796Z" fill="#187259"/>
<path d="M75.0491 22.2426C75.0491 22.6013 74.8447 22.8948 74.5904 22.8948C74.336 22.8948 74.1338 22.6057 74.1338 22.2426C74.1338 21.8795 74.3382 21.5903 74.5904 21.5903C74.8426 21.5903 75.0491 21.886 75.0491 22.2426Z" fill="#187259"/>
<path d="M50.9939 62.4765L51.4787 61.2394L50.1895 60.7285L50.9939 62.4765Z" fill="#187259"/>
<path d="M69.2409 68.5081L68.9844 69.8756L70.3215 69.9256L69.2409 68.5081Z" fill="#187259"/>
<path d="M50.4581 69.5223C50.4342 69.1657 50.6212 68.8505 50.8734 68.82C51.1256 68.7896 51.3473 69.0505 51.3691 69.4071C51.3908 69.7636 51.206 70.0767 50.9538 70.1093C50.7016 70.1419 50.4799 69.8767 50.4581 69.5223Z" fill="#187259"/>
<g opacity="0.5">
<path d="M54.2672 32.2942L53.6562 33.4161L54.8781 34.1922L54.2672 32.2942Z" fill="white"/>
<path d="M56.0492 54.7253L56.8363 53.8491L55.7861 52.675L56.0492 54.7253Z" fill="white"/>
<path d="M65.0844 21.7724L65.0257 20.3613L63.7451 20.9049L65.0844 21.7724Z" fill="white"/>
<path d="M52.0599 54.1836L51.4512 55.3033L52.6709 56.0795L52.0599 54.1836Z" fill="white"/>
<path d="M52.8044 49.3772L52.3434 50.5947L51.3955 49.7903L52.1565 48.4814L52.8044 49.3772Z" fill="white"/>
<path d="M62.2858 66.6577L63.262 66.7447L63.1403 68.297L61.9814 67.8665L62.2858 66.6577Z" fill="white"/>
<path d="M54.3528 40.3088L54.9637 40.4806C54.9637 40.4806 54.0484 41.3503 54.4746 42.0329C54.9007 42.7156 54.1702 43.3266 54.1702 43.3266L53.6201 42.8091C53.7625 42.6467 53.8599 42.4499 53.9026 42.2382C53.9453 42.0265 53.9319 41.8073 53.8636 41.6025C53.6201 40.9133 54.3528 40.3088 54.3528 40.3088Z" fill="white"/>
<path d="M62.6825 35.4043L63.2935 35.5761C63.2935 35.5761 62.3782 36.4457 62.8043 37.1284C63.2304 37.8111 62.4999 38.422 62.4999 38.422L61.9629 37.9046C62.1047 37.7419 62.2017 37.5451 62.2444 37.3335C62.2871 37.1219 62.274 36.9029 62.2064 36.6979C61.9629 36.0065 62.6825 35.4043 62.6825 35.4043Z" fill="white"/>
<path d="M54.4125 27.2249L53.8516 28.3967L55.1039 29.0664L54.4125 27.2249Z" fill="white"/>
<path d="M65.3744 27.821L64.8135 28.9929L66.0658 29.6626L65.3744 27.821Z" fill="white"/>
<path d="M60.0937 25.9584L60.4329 24.6278L59.1045 24.4126L60.0937 25.9584Z" fill="white"/>
<path d="M59.8398 31.2524L60.0181 29.8936L61.0943 30.2545L60.6508 31.8286L59.8398 31.2524Z" fill="white"/>
<path d="M72.625 29.2932L72.8033 27.9343L73.8773 28.2952L73.4338 29.8693L72.625 29.2932Z" fill="white"/>
<path d="M71.7305 37.3044L71.9088 35.9456L72.985 36.3065L72.5414 37.8806L71.7305 37.3044Z" fill="white"/>
<path d="M68.704 35.6204L68.0866 35.7183C68.0866 35.7183 68.7736 34.5029 68.2192 34.029C67.6648 33.555 68.2301 32.6658 68.2301 32.6658L68.8649 32.9245C68.8649 32.9245 68.5105 33.6267 68.8932 34.179C69.2758 34.7312 68.704 35.6204 68.704 35.6204Z" fill="white"/>
<path d="M63.569 51.7361L62.958 52.8579L64.1777 53.6341L63.569 51.7361Z" fill="white"/>
<path d="M59.7613 56.0798L59.1504 57.2017L60.3701 57.9779L59.7613 56.0798Z" fill="white"/>
<path d="M66.6696 46.4065L67.6458 46.4913L67.5241 48.0458L66.3652 47.6131L66.6696 46.4065Z" fill="white"/>
<path d="M70.3173 59.5042L71.2913 59.5889L71.1696 61.1413L70.0107 60.7108L70.3173 59.5042Z" fill="white"/>
<path d="M65.5 60.896L66.111 61.0699C66.111 61.0699 65.1957 61.9396 65.6218 62.6223C66.0479 63.305 65.3174 63.9268 65.3174 63.9268L64.7695 63.4093C64.9138 63.2436 65.0118 63.0428 65.0534 62.827C65.095 62.6113 65.0788 62.3884 65.0065 62.1809C64.7695 61.5004 65.5 60.896 65.5 60.896Z" fill="white"/>
<path d="M70.8872 54.6631L70.5024 54.7892C70.5024 54.7892 70.6676 53.639 70.1893 53.2412C69.711 52.8433 69.8762 51.9976 69.8762 51.9976L70.3545 52.1932C70.3236 52.5992 70.4342 53.0033 70.6676 53.3368C71.0503 53.8173 70.8872 54.6631 70.8872 54.6631Z" fill="white"/>
<path d="M71.1562 23.7285L70.7713 23.8568C70.7713 23.8568 70.9366 22.7067 70.4583 22.3088C69.98 21.9109 70.143 21.0652 70.143 21.0652L70.6213 21.2609C70.5917 21.667 70.7031 22.0709 70.9366 22.4045C71.3127 22.8828 71.1562 23.7285 71.1562 23.7285Z" fill="white"/>
<path d="M56.0145 67.3525L55.4405 67.683C55.4405 67.683 55.8754 66.2503 55.2427 66.0067C54.61 65.7632 54.9948 64.6892 54.9948 64.6892H55.6471C55.6471 64.6892 55.4405 65.5023 55.9123 65.8893C56.3841 66.2763 56.0145 67.3525 56.0145 67.3525Z" fill="white"/>
<path d="M55.7659 21.7714C55.7659 22.1279 55.5615 22.4236 55.3093 22.4236C55.0571 22.4236 54.8506 22.1345 54.8506 21.7714C54.8506 21.4083 55.055 21.1191 55.3093 21.1191C55.5637 21.1191 55.7659 21.4148 55.7659 21.7714Z" fill="white"/>
<path d="M60.8313 46.6459C60.8313 47.0046 60.6139 47.2981 60.3726 47.2981C60.1313 47.2981 59.916 47.009 59.916 46.6459C59.916 46.2828 60.1204 45.9937 60.3726 45.9937C60.6248 45.9937 60.8313 46.2893 60.8313 46.6459Z" fill="white"/>
<path d="M72.8179 44.796C73.0701 44.796 73.2745 44.506 73.2745 44.1481C73.2745 43.7903 73.0701 43.5002 72.8179 43.5002C72.5657 43.5002 72.3613 43.7903 72.3613 44.1481C72.3613 44.506 72.5657 44.796 72.8179 44.796Z" fill="white"/>
<path d="M75.0491 22.2426C75.0491 22.6013 74.8447 22.8948 74.5904 22.8948C74.336 22.8948 74.1338 22.6057 74.1338 22.2426C74.1338 21.8795 74.3382 21.5903 74.5904 21.5903C74.8426 21.5903 75.0491 21.886 75.0491 22.2426Z" fill="white"/>
<path d="M50.9939 62.4765L51.4787 61.2394L50.1895 60.7285L50.9939 62.4765Z" fill="white"/>
<path d="M69.2409 68.5081L68.9844 69.8756L70.3215 69.9256L69.2409 68.5081Z" fill="white"/>
<path d="M50.4581 69.5223C50.4342 69.1657 50.6212 68.8505 50.8734 68.82C51.1256 68.7896 51.3473 69.0505 51.3691 69.4071C51.3908 69.7636 51.206 70.0767 50.9538 70.1093C50.7016 70.1419 50.4799 69.8767 50.4581 69.5223Z" fill="white"/>
</g>
<path d="M65.1306 62.355H56.2165C55.9171 62.3646 55.6191 62.3101 55.3426 62.1951C55.066 62.08 54.8172 61.9072 54.6129 61.6881C54.4086 61.469 54.2536 61.2087 54.1582 60.9247C54.0628 60.6408 54.0292 60.3397 54.0598 60.0417C54.1326 59.4078 54.4352 58.8226 54.9104 58.3967C55.3855 57.9708 56.0003 57.7338 56.6383 57.7306H65.5524C65.8516 57.721 66.1494 57.7755 66.4258 57.8904C66.7022 58.0053 66.9509 58.1779 67.1551 58.3968C67.3593 58.6157 67.5144 58.8756 67.61 59.1593C67.7055 59.443 67.7393 59.7439 67.7091 60.0417C67.6368 60.676 67.3344 61.2617 66.8592 61.6881C66.384 62.1144 65.769 62.3517 65.1306 62.355Z" fill="#187259"/>
<path d="M55.5703 26.3684C55.575 26.1916 55.6465 26.0232 55.7703 25.897C55.8941 25.7708 56.0611 25.6961 56.2377 25.6879C56.3187 25.6847 56.3992 25.7019 56.4718 25.738C56.5444 25.7741 56.6067 25.8279 56.653 25.8944L56.5356 26.014C56.5016 25.9644 56.4557 25.9242 56.4022 25.8968C56.3486 25.8695 56.2891 25.856 56.229 25.8575C56.0972 25.8645 55.973 25.9211 55.8811 26.0158C55.7892 26.1105 55.7364 26.2365 55.7333 26.3684C55.7202 26.4291 55.7206 26.492 55.7346 26.5525C55.7485 26.613 55.7757 26.6697 55.8141 26.7185C55.8526 26.7674 55.9013 26.8071 55.9569 26.8349C56.0124 26.8627 56.0734 26.8778 56.1355 26.8793C56.1998 26.8789 56.2631 26.8642 56.321 26.8364C56.3789 26.8086 56.4299 26.7683 56.4704 26.7184L56.566 26.8402C56.511 26.9076 56.4417 26.9621 56.3631 26.9997C56.2846 27.0373 56.1987 27.057 56.1116 27.0576C55.7659 27.0489 55.5333 26.7619 55.5703 26.3684Z" fill="#187259"/>
<path d="M56.7292 26.368C56.7345 26.1911 56.8064 26.0226 56.9306 25.8965C57.0547 25.7703 57.222 25.6956 57.3988 25.6875C57.482 25.689 57.5638 25.7087 57.6385 25.7455C57.7131 25.7822 57.7787 25.8349 57.8306 25.8999C57.8826 25.9649 57.9195 26.0406 57.9388 26.1215C57.9581 26.2024 57.9593 26.2866 57.9423 26.368C57.9376 26.5448 57.8661 26.7132 57.7423 26.8394C57.6185 26.9656 57.4515 27.0404 57.2749 27.0485C57.1917 27.047 57.1098 27.0272 57.0351 26.9905C56.9603 26.9538 56.8946 26.9011 56.8425 26.8362C56.7905 26.7712 56.7533 26.6956 56.7337 26.6147C56.7141 26.5338 56.7126 26.4496 56.7292 26.368ZM57.7793 26.368C57.7927 26.3078 57.7928 26.2453 57.7793 26.1851C57.7659 26.1249 57.7393 26.0683 57.7015 26.0195C57.6637 25.9707 57.6157 25.9309 57.5607 25.9028C57.5057 25.8747 57.4453 25.8591 57.3836 25.8571C57.2524 25.8647 57.1289 25.9216 57.0378 26.0163C56.9467 26.111 56.8947 26.2366 56.8922 26.368C56.8787 26.4284 56.8788 26.4911 56.8923 26.5514C56.9059 26.6118 56.9327 26.6685 56.9707 26.7173C57.0087 26.7661 57.0571 26.8059 57.1123 26.8339C57.1675 26.8618 57.2282 26.8772 57.2901 26.8789C57.4209 26.8708 57.5438 26.8137 57.6345 26.719C57.7251 26.6244 57.7768 26.499 57.7793 26.368Z" fill="#187259"/>
<path d="M59.2363 25.7024L59.1146 27.033H58.9798L58.384 26.0416L58.2949 27.033H58.1318L58.2536 25.7024H58.3862L58.9819 26.6938L59.0732 25.7024H59.2363Z" fill="#187259"/>
<path d="M60.3108 26.3598H60.4674L60.4217 26.8794C60.2977 26.988 60.1387 27.0482 59.9738 27.049C59.8903 27.0482 59.808 27.0289 59.7328 26.9924C59.6576 26.956 59.5914 26.9033 59.539 26.8383C59.4866 26.7732 59.4493 26.6973 59.4298 26.6161C59.4102 26.5349 59.4089 26.4503 59.4259 26.3685C59.4313 26.1908 59.5038 26.0218 59.6289 25.8955C59.754 25.7692 59.9223 25.6951 60.0999 25.688C60.1819 25.6843 60.2635 25.7013 60.3372 25.7374C60.4109 25.7734 60.4744 25.8275 60.5217 25.8945L60.4087 26.012C60.372 25.9626 60.3241 25.9229 60.2688 25.896C60.2136 25.8691 60.1527 25.8559 60.0912 25.8576C59.9583 25.8631 59.8324 25.9189 59.7391 26.0138C59.6459 26.1087 59.5922 26.2355 59.589 26.3685C59.5781 26.4293 59.5803 26.4918 59.5954 26.5517C59.6106 26.6116 59.6383 26.6675 59.6768 26.7159C59.7152 26.7642 59.7636 26.8038 59.8185 26.832C59.8735 26.8602 59.9339 26.8764 59.9956 26.8794C60.0943 26.8812 60.191 26.8515 60.2717 26.7946L60.3108 26.3598Z" fill="#187259"/>
<path d="M61.4808 27.0338L61.2634 26.6251H61.1916H60.909L60.872 27.0294H60.709L60.8307 25.6989H61.2764C61.338 25.6908 61.4005 25.6975 61.459 25.7184C61.5174 25.7393 61.57 25.7738 61.6125 25.819C61.655 25.8643 61.6861 25.9189 61.7032 25.9786C61.7204 26.0382 61.7232 26.1011 61.7113 26.162C61.7087 26.2526 61.6797 26.3406 61.628 26.4151C61.5763 26.4896 61.504 26.5474 61.4199 26.5816L61.6504 27.0294L61.4808 27.0338ZM61.5569 26.1641C61.5743 25.975 61.4743 25.8663 61.2656 25.8663H60.9873L60.9329 26.4642H61.2112C61.2538 26.4693 61.2971 26.4655 61.3382 26.453C61.3793 26.4405 61.4173 26.4196 61.4498 26.3916C61.4824 26.3635 61.5087 26.329 61.5271 26.2902C61.5456 26.2514 61.5557 26.2092 61.5569 26.1663V26.1641Z" fill="#187259"/>
<path d="M62.6648 26.7003H62.0582L61.9017 27.033H61.7451L62.3843 25.7024H62.5452L62.9431 27.033H62.7713L62.6648 26.7003ZM62.6213 26.5481L62.4343 25.8959L62.1278 26.5481H62.6213Z" fill="#187259"/>
<path d="M63.3777 25.8723H62.9863L63.0015 25.707H63.9473L63.9321 25.8723H63.5407L63.4342 27.0376H63.2668L63.3777 25.8723Z" fill="#187259"/>
<path d="M64.027 26.459L64.0966 25.7024H64.2597L64.1901 26.4503C64.164 26.746 64.2684 26.8851 64.4727 26.8851C64.6771 26.8851 64.8097 26.7525 64.8358 26.4503L64.9054 25.7024H65.0619L64.9945 26.459C64.9576 26.8438 64.7576 27.0482 64.4575 27.0482C64.1575 27.0482 63.9923 26.8438 64.027 26.459Z" fill="#187259"/>
<path d="M65.3981 25.7024H65.5612L65.4546 26.8677H66.0721L66.0591 27.033H65.2764L65.3981 25.7024Z" fill="#187259"/>
<path d="M67.0096 26.7003H66.4031L66.2465 27.033H66.0791L66.7183 25.7024H66.8792L67.2771 27.033H67.1053L67.0096 26.7003ZM66.9662 26.5481L66.7792 25.8959L66.4748 26.5481H66.9662Z" fill="#187259"/>
<path d="M67.7224 25.8723H67.3311L67.3463 25.707H68.292L68.2681 25.8723H67.8768L67.7702 27.0376H67.6159L67.7224 25.8723Z" fill="#187259"/>
<path d="M68.4704 25.7024H68.6334L68.5117 27.033H68.3486L68.4704 25.7024Z" fill="#187259"/>
<path d="M68.8229 26.368C68.8292 26.191 68.9018 26.0229 69.0262 25.8968C69.1506 25.7708 69.3178 25.6961 69.4947 25.6875C69.5779 25.689 69.6597 25.7087 69.7344 25.7455C69.809 25.7822 69.8746 25.8349 69.9266 25.8999C69.9785 25.9649 70.0154 26.0406 70.0347 26.1215C70.054 26.2024 70.0552 26.2866 70.0383 26.368C70.0335 26.5448 69.962 26.7132 69.8382 26.8394C69.7144 26.9656 69.5474 27.0404 69.3708 27.0485C69.2874 27.0473 69.2053 27.0277 69.1303 26.9912C69.0553 26.9546 68.9893 26.902 68.937 26.837C68.8847 26.772 68.8473 26.6963 68.8276 26.6152C68.8079 26.5342 68.8063 26.4498 68.8229 26.368ZM69.8752 26.368C69.8883 26.3078 69.888 26.2455 69.8744 26.1854C69.8608 26.1253 69.8342 26.069 69.7965 26.0203C69.7588 25.9716 69.7108 25.9317 69.6561 25.9035C69.6013 25.8754 69.5411 25.8595 69.4795 25.8571C69.3481 25.8647 69.2244 25.9215 69.1329 26.0161C69.0415 26.1108 68.989 26.2364 68.986 26.368C68.9729 26.4286 68.9732 26.4912 68.9871 26.5516C69.0009 26.612 69.0279 26.6686 69.0661 26.7174C69.1043 26.7661 69.1527 26.8059 69.208 26.8338C69.2633 26.8617 69.3241 26.8772 69.386 26.8789C69.5168 26.8708 69.6398 26.8137 69.7304 26.719C69.821 26.6244 69.8727 26.499 69.8752 26.368Z" fill="#187259"/>
<path d="M71.3313 25.7024L71.2117 27.033H71.0769L70.4812 26.0416L70.392 27.033H70.2246L70.3464 25.7024H70.4812L71.0769 26.6938L71.166 25.7024H71.3313Z" fill="#187259"/>
<path d="M71.4648 26.8811L71.5301 26.742C71.5767 26.7911 71.6331 26.83 71.6956 26.8562C71.7581 26.8824 71.8254 26.8953 71.8932 26.8942C72.091 26.8942 72.1845 26.805 72.1932 26.6898C72.2236 26.3658 71.5127 26.5702 71.5583 26.0767C71.572 25.9643 71.6289 25.8617 71.717 25.7907C71.8051 25.7196 71.9174 25.6857 72.0301 25.6962C72.159 25.6927 72.2851 25.7342 72.3867 25.8136L72.3193 25.9658C72.2329 25.8964 72.1257 25.8581 72.0149 25.8571C71.8214 25.8571 71.7301 25.9527 71.7192 26.0745C71.6888 26.4006 72.3997 26.1963 72.3562 26.6854C72.3421 26.7986 72.284 26.9017 72.1945 26.9725C72.105 27.0433 71.9913 27.076 71.8779 27.0637C71.8003 27.0629 71.7236 27.0463 71.6526 27.0149C71.5816 26.9835 71.5177 26.938 71.4648 26.8811Z" fill="#187259"/>
<path d="M57.0163 60.0813H57.2837L57.2294 60.6792C57.0787 60.7981 56.893 60.8639 56.7011 60.8662C56.301 60.8662 56.038 60.5488 56.0771 60.1052C56.0837 59.9042 56.1668 59.7132 56.3094 59.5714C56.4521 59.4296 56.6435 59.3476 56.8446 59.3421C56.9438 59.3368 57.0428 59.3575 57.1316 59.4021C57.2204 59.4467 57.2961 59.5137 57.3511 59.5965L57.1337 59.7987C57.1003 59.7469 57.0542 59.7045 56.9998 59.6756C56.9454 59.6467 56.8844 59.6322 56.8228 59.6335C56.7 59.6369 56.5833 59.6881 56.4976 59.7762C56.4119 59.8643 56.364 59.9824 56.3641 60.1052C56.3507 60.1611 56.3501 60.2193 56.3622 60.2754C56.3744 60.3315 56.399 60.3842 56.4343 60.4295C56.4696 60.4749 56.5146 60.5116 56.5661 60.5372C56.6175 60.5627 56.6741 60.5763 56.7315 60.577C56.8144 60.5781 56.8959 60.5555 56.9663 60.5118L57.0163 60.0813Z" fill="white"/>
<path d="M57.6153 59.3677H57.9088L57.774 60.8418H57.4805L57.6153 59.3677Z" fill="white"/>
<path d="M58.4843 59.6416L58.4495 60.0308H59.0365L59.0104 60.3047H58.4234L58.3755 60.8418H58.082L58.2168 59.3677H59.1735L59.1495 59.6416H58.4843Z" fill="white"/>
<path d="M59.6165 59.6438H59.21L59.236 59.3677H60.3405L60.3144 59.6438H59.91L59.7992 60.8418H59.5078L59.6165 59.6438Z" fill="white"/>
<path d="M60.7891 60.6946L60.913 60.4381C61.0255 60.5352 61.1688 60.5891 61.3174 60.5903C61.4891 60.5903 61.5674 60.5229 61.5761 60.4337C61.6 60.1576 60.8456 60.3467 60.8956 59.7989C60.9032 59.7308 60.9241 59.665 60.9572 59.6051C60.9902 59.5452 61.0348 59.4924 61.0884 59.4498C61.1419 59.4072 61.2033 59.3755 61.2691 59.3567C61.3349 59.3379 61.4038 59.3322 61.4717 59.3401C61.6272 59.3338 61.7803 59.3797 61.9066 59.4706L61.7935 59.7293C61.6945 59.6563 61.5752 59.616 61.4522 59.6141C61.2782 59.6141 61.2043 59.6902 61.1956 59.7815C61.1717 60.0532 61.924 59.8663 61.8761 60.4076C61.8681 60.4757 61.8466 60.5416 61.8131 60.6014C61.7795 60.6612 61.7345 60.7139 61.6806 60.7563C61.6266 60.7987 61.5649 60.83 61.4988 60.8486C61.4328 60.8671 61.3637 60.8724 61.2956 60.8642C61.1117 60.8713 60.9316 60.811 60.7891 60.6946Z" fill="white"/>
<path d="M63.0369 60.5678L63.0108 60.8418H62.0303L62.1651 59.3677H63.1217L63.0978 59.6416H62.4303L62.4021 59.9612H62.9891L62.9652 60.2265H62.3781L62.3455 60.5678H63.0369Z" fill="white"/>
<path d="M64.5411 59.3677L64.4063 60.8418H64.165L63.6149 59.946L63.5323 60.8418H63.2432L63.378 59.3677H63.6215L64.1693 60.2613L64.252 59.3677H64.5411Z" fill="white"/>
<path d="M65.0775 59.6438H64.6709L64.697 59.3677H65.8015L65.7754 59.6438H65.371L65.2601 60.8418H64.9688L65.0775 59.6438Z" fill="white"/>
<path d="M70.0491 44.2145C71.1665 38.7391 68.7289 33.6181 64.6044 32.7764C60.4799 31.9346 56.2305 35.6909 55.1131 41.1663C53.9957 46.6417 56.4334 51.7627 60.5579 52.6044C64.6823 53.4461 68.9317 49.6898 70.0491 44.2145Z" fill="#187259"/>
<path opacity="0.3" d="M70.0491 44.2145C71.1665 38.7391 68.7289 33.6181 64.6044 32.7764C60.4799 31.9346 56.2305 35.6909 55.1131 41.1663C53.9957 46.6417 56.4334 51.7627 60.5579 52.6044C64.6823 53.4461 68.9317 49.6898 70.0491 44.2145Z" fill="white"/>
<path d="M50.6318 43.2764L53.1843 41.4849L54.8845 42.4306L59.7633 41.5175L59.5459 43.4003L54.8367 43.5938C54.8367 43.5938 52.6147 44.9461 52.1798 45.0048C51.745 45.0635 50.6318 43.2764 50.6318 43.2764Z" fill="#E4897B"/>
<path d="M70.1801 42.553C70.1693 42.6791 70.1562 42.8074 70.1432 42.9335L57.8135 43.8749H57.7266V43.4836V41.903V41.2181L57.9875 41.1659L69.9301 38.7004C70.2123 39.964 70.2967 41.2636 70.1801 42.553Z" fill="#187259"/>
<path opacity="0.2" d="M70.1801 42.553C70.1693 42.6791 70.1562 42.8074 70.1432 42.9335L57.8135 43.8749H57.7266V43.4836V41.903V41.2181L57.9875 41.1659L69.9301 38.7004C70.2123 39.964 70.2967 41.2636 70.1801 42.553Z" fill="black"/>
<path d="M57.1713 41.1382L58.0127 40.9817L57.7801 44.3842L56.8408 44.2647L57.1713 41.1382Z" fill="#187259"/>
<path opacity="0.5" d="M57.1713 41.1382L58.0127 40.9817L57.7801 44.3842L56.8408 44.2647L57.1713 41.1382Z" fill="white"/>
<path d="M44.6523 37.861L44.6865 37.8567L44.6844 37.8525L44.6886 37.8503L44.6865 37.8418L44.6523 37.861Z" fill="#263238"/>
<path d="M57.96 35.0869L57.836 35.1043L48.9329 35.7305L44.7585 37.7742L44.6846 37.7785L46.0499 45.949L54.5161 45.3533L59.1297 43.1139L57.96 35.0869Z" fill="#263238"/>
<path opacity="0.2" d="M45.7628 38.3518L46.1302 38.6475L46.5824 38.5105L46.415 38.9519L46.6825 39.3389L46.2128 39.3171L45.928 39.6911L45.8041 39.2367L45.3584 39.0802L45.7519 38.8236L45.7628 38.3518Z" fill="white"/>
<path opacity="0.2" d="M50.6316 38.6877V39.1595L51.0208 39.4248L50.5729 39.5705L50.4403 40.0227L50.162 39.6422L49.6924 39.6574L49.9685 39.2748L49.8098 38.8312L50.2577 38.9747L50.6316 38.6877Z" fill="white"/>
<path opacity="0.2" d="M50.8289 43.7617V44.2335L51.2181 44.4988L50.7724 44.6466L50.6397 45.0988L50.3614 44.7183L49.8896 44.7314L50.1658 44.3487L50.0071 43.9052L50.4549 44.0509L50.8289 43.7617Z" fill="white"/>
<path opacity="0.2" d="M48.6824 42.6428L48.6846 43.1124L49.0737 43.3799L48.6259 43.5255L48.4932 43.9778L48.215 43.5973L47.7432 43.6125L48.0193 43.2298L47.8606 42.7863L48.3106 42.9298L48.6824 42.6428Z" fill="white"/>
<path opacity="0.2" d="M51.013 42.3196L51.0151 42.5957L51.2412 42.7522L50.9803 42.837L50.9021 43.1023L50.739 42.8805L50.4629 42.887L50.626 42.6653L50.5325 42.4044L50.7955 42.4892L51.013 42.3196Z" fill="white"/>
<path opacity="0.2" d="M47.1926 44.4988V44.7749L47.4209 44.9293L47.16 45.0162L47.0818 45.2793L46.9187 45.0575L46.6426 45.0662L46.8035 44.8423L46.7122 44.5814L46.9752 44.6662L47.1926 44.4988Z" fill="white"/>
<path opacity="0.2" d="M46.6866 41.8311L46.6887 42.1072L46.9148 42.2615L46.6539 42.3485L46.5757 42.6138L46.4126 42.3898L46.1387 42.3985L46.2996 42.1746L46.2061 41.9158L46.4691 42.0006L46.6866 41.8311Z" fill="white"/>
<path opacity="0.2" d="M52.26 37.4622V37.7383L52.4883 37.8948L52.2274 37.9796L52.1491 38.2449L51.9861 38.0231L51.71 38.0318L51.8708 37.8078L51.7795 37.547L52.0426 37.6317L52.26 37.4622Z" fill="white"/>
<path opacity="0.2" d="M47.4178 39.6851L47.733 40.2242L48.3548 40.2699L47.9396 40.7352L48.0874 41.3396L47.5178 41.0896L46.9873 41.4179L47.0504 40.7982L46.5742 40.3938L47.183 40.2612L47.4178 39.6851Z" fill="white"/>
<path opacity="0.2" d="M51.5585 40.5323L52.139 40.7563L52.6542 40.4062L52.6194 41.0281L53.1108 41.4085L52.5086 41.5694L52.2998 42.1543L51.9607 41.6325L51.3389 41.6129L51.7324 41.1302L51.5585 40.5323Z" fill="white"/>
<path opacity="0.2" d="M52.9022 43.114L53.2174 43.6532L53.8392 43.6989L53.424 44.1641L53.5718 44.7685L53.0022 44.5185L52.4717 44.8446L52.5347 44.225L52.0586 43.8228L52.6674 43.6902L52.9022 43.114Z" fill="white"/>
<path opacity="0.2" d="M54.0552 37.4851L54.2704 37.746L54.4878 37.5677L54.4443 38.0243L54.6161 38.3852L54.3748 38.4069L54.2639 38.8092L54.1573 38.3656L53.916 38.2526L54.0921 37.9569L54.0552 37.4851Z" fill="white"/>
<path opacity="0.2" d="M56.5765 37.3669L56.6221 37.8387L56.8461 38.0692L56.6308 38.2583L56.6048 38.7214L56.4286 38.3671L56.1873 38.4258L56.2939 38.017L56.1699 37.5887L56.4134 37.6909L56.5765 37.3669Z" fill="white"/>
<path opacity="0.2" d="M57.1566 42.4272L57.2 42.8969L57.424 43.1273L57.2087 43.3165L57.1827 43.7796L57.0065 43.4252L56.7652 43.4839L56.8718 43.0751L56.75 42.6468L56.9913 42.749L57.1566 42.4272Z" fill="white"/>
<path opacity="0.2" d="M55.9498 41.5044L55.9932 41.974L56.2172 42.2045L56.0019 42.3936L55.9758 42.8589L55.7997 42.5023L55.5606 42.561L55.6649 42.1523L55.541 41.724L55.7845 41.8262L55.9498 41.5044Z" fill="white"/>
<path opacity="0.2" d="M57.1122 40.968L57.1383 41.242L57.2687 41.3768L57.1426 41.4876L57.1274 41.7594L57.0231 41.5529L56.8839 41.5855L56.9448 41.3463L56.873 41.0963L57.0165 41.155L57.1122 40.968Z" fill="white"/>
<path opacity="0.2" d="M55.3612 43.5002L55.3873 43.7764L55.5178 43.9112L55.3917 44.0199L55.3764 44.2938L55.2721 44.0851L55.1329 44.1199L55.1938 43.8807L55.1221 43.6285L55.2634 43.6894L55.3612 43.5002Z" fill="white"/>
<path opacity="0.2" d="M54.8544 40.8784L54.8805 41.1545L55.0109 41.2893L54.8848 41.4002L54.8696 41.672L54.7653 41.4633L54.6261 41.4981L54.687 41.2589L54.6152 41.0067L54.7587 41.0676L54.8544 40.8784Z" fill="white"/>
<path opacity="0.2" d="M57.2958 35.9915L57.3219 36.2676L57.4523 36.4024L57.3262 36.5111L57.3132 36.785L57.2088 36.5763L57.0675 36.6089L57.1284 36.3719L57.0566 36.1197L57.2001 36.1806L57.2958 35.9915Z" fill="white"/>
<path opacity="0.2" d="M55.0264 38.6626L55.2373 39.1735L55.5591 39.1605L55.3916 39.6649L55.5243 40.2563L55.209 40.0584L54.9677 40.4367L54.9416 39.8106L54.6611 39.4518L54.9612 39.2627L55.0264 38.6626Z" fill="white"/>
<path opacity="0.2" d="M57.2238 39.1257L57.5412 39.2975L57.7717 38.8975L57.813 39.5236L58.0999 39.8606L57.8064 40.0737L57.7543 40.6803L57.5325 40.1889L57.2129 40.228L57.3694 39.7084L57.2238 39.1257Z" fill="white"/>
<path opacity="0.2" d="M58.1533 41.5823L58.3642 42.091L58.686 42.0802L58.5186 42.5846L58.6512 43.1759L58.336 42.9781L58.0946 43.3564L58.0686 42.7302L57.7881 42.3715L58.086 42.1823L58.1533 41.5823Z" fill="white"/>
<path opacity="0.2" d="M53.1475 37.2064L57.9632 35.1235L59.1351 43.1788L54.5237 45.4464L53.1475 37.2064Z" fill="black"/>
<path opacity="0.2" d="M44.6484 37.8127L48.9315 35.7299L57.8956 35.0994L53.1429 37.1518L44.6484 37.8127Z" fill="white"/>
<path d="M57.5438 43.9828L56.3894 35.6819L47.6493 36.2972L46.8535 36.7864L54.8522 36.4407L56.4437 44.4742L57.5438 43.9828Z" fill="#187259"/>
<path d="M53.283 35.4229L49.3021 37.4122L50.3739 45.6436L49.1086 45.7327L47.6562 37.5557L52.122 35.5055L53.283 35.4229Z" fill="#187259"/>
<path opacity="0.2" d="M56.3928 35.7542L54.8535 36.4586L56.445 44.503L57.5451 44.0181L56.3928 35.7542Z" fill="black"/>
<path opacity="0.1" d="M47.6611 37.5911L49.3048 37.4324L50.3745 45.6442L49.1091 45.7333L47.6611 37.5911Z" fill="black"/>
<path d="M50.7095 36.2567C50.7095 36.2567 48.2071 34.6305 47.2113 35.1523C46.4221 35.5632 46.6156 36.6177 48.6962 36.7416C47.9266 36.8655 47.02 37.0525 46.4873 37.3003L48.0549 37.3764C48.9733 37.0546 49.9163 36.8081 50.8747 36.6394C50.9261 36.8128 50.9387 36.9954 50.9117 37.1742L51.9683 37.0068C51.9683 37.0068 51.6335 36.7307 51.3618 36.5285C52.5728 36.322 55.1578 35.7458 55.3405 34.5718C55.5666 33.0477 51.8749 34.3196 50.7095 36.2567ZM47.2309 35.4545C47.4483 35.0414 50.5682 36.3981 50.5682 36.3981C49.1746 36.6938 47.0091 35.8741 47.233 35.4545H47.2309ZM50.9835 36.3024C50.9835 36.3024 54.0403 33.7695 54.8535 34.2283C55.6666 34.687 51.9618 36.3263 50.9856 36.3089L50.9835 36.3024Z" fill="#187259"/>
<path opacity="0.1" d="M50.7095 36.2567C50.7095 36.2567 48.2071 34.6305 47.2113 35.1523C46.4221 35.5632 46.6156 36.6177 48.6962 36.7416C47.9266 36.8655 47.02 37.0525 46.4873 37.3003L48.0549 37.3764C48.9733 37.0546 49.9163 36.8081 50.8747 36.6394C50.9261 36.8128 50.9387 36.9954 50.9117 37.1742L51.9683 37.0068C51.9683 37.0068 51.6335 36.7307 51.3618 36.5285C52.5728 36.322 55.1578 35.7458 55.3405 34.5718C55.5666 33.0477 51.8749 34.3196 50.7095 36.2567ZM47.2309 35.4545C47.4483 35.0414 50.5682 36.3981 50.5682 36.3981C49.1746 36.6938 47.0091 35.8741 47.233 35.4545H47.2309ZM50.9835 36.3024C50.9835 36.3024 54.0403 33.7695 54.8535 34.2283C55.6666 34.687 51.9618 36.3263 50.9856 36.3089L50.9835 36.3024Z" fill="black"/>
<path d="M55.709 43.3176L58.5484 42.0261L60.0443 43.2697H65.0078L64.4491 45.0786L59.7899 44.4025C59.7899 44.4025 57.3548 45.3221 56.92 45.3113C56.4852 45.3004 55.709 43.3176 55.709 43.3176Z" fill="#E4897B"/>
<path d="M70.1649 42.6841C70.1649 42.7689 70.1497 42.8493 70.141 42.9319C69.9991 44.1905 69.6792 45.4224 69.1909 46.591L62.601 45.4387L62.5293 45.4257L62.6467 44.8104L62.9467 43.2624L63.0337 42.8037H63.2837L70.1649 42.6841Z" fill="#187259"/>
<path d="M62.529 42.4192H63.3835L62.529 45.7217L61.6289 45.4326L62.529 42.4192Z" fill="#187259"/>
<path opacity="0.7" d="M62.529 42.4192H63.3835L62.529 45.7217L61.6289 45.4326L62.529 42.4192Z" fill="white"/>
<path d="M42.5833 15.8736L39.644 15.3649C39.2074 15.2893 38.7923 15.5819 38.7167 16.0185L38.2079 18.9578C38.1324 19.3944 38.425 19.8095 38.8616 19.8851L41.8008 20.3939C42.2374 20.4694 42.6526 20.1768 42.7282 19.7402L43.2369 16.8009C43.3125 16.3644 43.0198 15.9492 42.5833 15.8736Z" fill="#187259"/>
<path opacity="0.6" d="M42.1168 17.204C41.8885 16.6301 41.2472 16.7235 40.858 17.0714C40.6145 16.6148 40.0383 16.3105 39.6296 16.7736C38.9404 17.5541 39.9079 18.5564 40.3775 18.9629C40.4297 19.0108 40.4753 19.0499 40.5123 19.0803L40.6754 19.0151C41.2559 18.789 42.5038 18.1715 42.1168 17.204Z" fill="white"/>
<path d="M40.8733 19.8721C40.8733 19.8721 40.0449 21.1266 38.6426 21.3201C38.6426 21.3201 39.4514 21.0244 39.6383 19.6003L40.8733 19.8721Z" fill="#187259"/>
<path d="M41.8711 28.5412L42.6755 26.5171C42.6755 26.5171 42.6038 25.7366 42.6755 25.63C42.7473 25.5235 44.7149 24.1973 44.7149 24.1973C44.7149 24.1973 45.0193 24.9234 44.9997 25.2474C44.9801 25.5713 43.6561 26.3692 43.6561 26.3692L42.8538 28.3543L41.8711 28.5412Z" fill="#B97964"/>
<path d="M43.4373 27.4245C43.4373 27.4245 40.8 33.4295 39.7108 33.947C38.9651 34.3014 36.4104 33.947 34.8755 33.673C34.1689 33.5513 33.6797 33.4556 33.6797 33.4556L34.6146 32.2098L35.3342 31.251C35.3342 31.251 37.704 32.2316 38.6215 32.4033C39.539 32.5751 42.2633 26.8005 42.2633 26.8005L43.4373 27.4245Z" fill="#187259"/>
<path opacity="0.2" d="M34.8755 33.6715C34.1689 33.5497 33.6797 33.454 33.6797 33.454L34.6146 32.2083C34.7544 32.422 34.8496 32.6618 34.8944 32.9132C34.9392 33.1647 34.9328 33.4226 34.8755 33.6715Z" fill="black"/>
<path d="M34.9605 22.0051C36.0476 22.5639 36.665 23.3422 36.8281 24.8446C36.9911 26.3469 36.1389 26.8231 36.8281 27.4253C37.5173 28.0276 37.102 28.9472 36.6107 29.0668C36.1193 29.1864 36.9585 29.7864 36.9585 29.7864L36.6237 30.0256C36.6237 30.0256 36.6998 30.2648 36.0541 30.0256C35.4084 29.7864 35.6888 30.3191 34.6691 30.4387C33.6495 30.5583 31.7079 30.7344 30.8926 29.7864C30.0773 28.8385 30.41 27.3949 29.9686 26.7905C29.5273 26.186 30.5774 22.9531 31.8754 22.24C33.1733 21.5268 34.9605 22.0051 34.9605 22.0051Z" fill="#263238"/>
<path d="M22.9221 22.2455L23.6287 20.1822C23.6287 20.1822 24.1918 19.6387 24.2026 19.5104C24.2135 19.3822 23.5895 17.0928 23.5895 17.0928C23.5895 17.0928 22.8851 17.4493 22.6872 17.7059C22.4894 17.9624 22.9786 19.4322 22.9786 19.4322L22.2959 21.4628L22.9221 22.2455Z" fill="#B97964"/>
<path d="M28.4791 76.3396H27.042L27.4812 74.3524L27.8899 72.5283L29.6901 72.2522L29.0487 74.4177L28.4791 76.3396Z" fill="#B97964"/>
<path opacity="0.2" d="M29.0332 74.4605L27.4678 74.391L27.883 72.5473L29.6854 72.2625L29.0332 74.4605Z" fill="black"/>
<path d="M25.5025 76.3396H24.0654L24.5046 74.3524L24.9133 72.5283L26.7136 72.2522L26.0722 74.4177L25.5025 76.3396Z" fill="#B97964"/>
<path opacity="0.2" d="M26.0598 74.4605L24.4922 74.391L24.9075 72.5473L26.7098 72.2625L26.0598 74.4605Z" fill="black"/>
<path d="M22.8999 38.3552C22.8999 38.3552 22.8281 38.5096 22.7129 38.7901C22.1715 40.1272 20.6888 44.3494 21.2432 49.2456C21.5693 52.1415 24.7697 57.3552 25.2458 60.1946C25.8002 63.4993 24.35 69.3261 24.7218 73.6026L27.009 73.8027L27.6982 73.3678L29.655 73.0765C29.655 73.0765 34.7577 61.4752 34.6555 57.4639C34.5816 54.3135 29.655 43.0188 29.655 43.0188L30.1246 38.8422" fill="#263238"/>
<path opacity="0.2" d="M28.0564 73.3204L27.6977 73.3725L27.1106 73.7443C27.4846 72.4398 30.7067 61.1581 30.7654 58.6753C30.8284 56.038 27.0693 46.6761 27.0693 46.6761L28.0325 44.9368L27.889 47.5827C27.889 47.5827 31.4416 54.864 31.722 58.6709C31.996 62.33 28.3543 72.4985 28.0564 73.3204Z" fill="black"/>
<path d="M26.6365 76.2779C26.6365 76.1192 28.5933 76.2431 28.5933 76.2431C28.5933 76.2431 29.7912 77.4606 30.9544 77.7346C32.1176 78.0085 31.4697 78.7086 30.1674 78.7086H26.9496C26.0213 78.7042 26.5996 77.9194 26.6365 76.2779Z" fill="#263238"/>
<path d="M28.8059 76.4953L28.7907 76.4822C28.7897 76.4772 28.7897 76.472 28.7907 76.467C28.7895 76.462 28.7895 76.4568 28.7907 76.4518C28.7885 76.4447 28.7885 76.4371 28.7907 76.4301C28.7907 76.4083 28.9625 75.9561 29.2255 75.8474C29.2651 75.8292 29.3081 75.8198 29.3516 75.8198C29.3952 75.8198 29.4382 75.8292 29.4777 75.8474C29.5669 75.8887 29.6082 75.9452 29.606 76.0104C29.606 76.1126 29.4603 76.217 29.3016 76.3018C29.4481 76.2753 29.5992 76.292 29.7365 76.3496C29.7616 76.3634 29.7838 76.382 29.8017 76.4044C29.8196 76.4268 29.8329 76.4525 29.8408 76.4801C29.8569 76.5167 29.8609 76.5575 29.8523 76.5966C29.8437 76.6356 29.8229 76.671 29.793 76.6975C29.7425 76.7317 29.682 76.7478 29.6212 76.7431C29.3371 76.7085 29.0612 76.6246 28.8059 76.4953ZM28.9842 76.4627C29.2712 76.5823 29.6364 76.691 29.7191 76.6149C29.7191 76.6149 29.7517 76.5888 29.7321 76.5127C29.7285 76.4982 29.7218 76.4846 29.7124 76.4729C29.703 76.4613 29.6912 76.4518 29.6778 76.4453C29.6058 76.4115 29.5266 76.3966 29.4473 76.4018C29.2912 76.4061 29.1361 76.4265 28.9842 76.4627ZM29.2538 75.943C29.1003 76.0426 28.9829 76.189 28.919 76.3605C29.2081 76.2518 29.4864 76.0996 29.4908 76.0126C29.4908 75.9844 29.4495 75.9604 29.4234 75.9474C29.3951 75.933 29.3638 75.9256 29.3321 75.9257C29.305 75.9251 29.2781 75.9311 29.2538 75.943Z" fill="#187259"/>
<path d="M27.0098 73.0456L30.2384 72.6064L29.9666 73.8088L27.3033 74.1436L27.0098 73.0456Z" fill="#187259"/>
<path d="M23.6614 76.2779C23.6614 76.1192 25.6182 76.2431 25.6182 76.2431C25.6182 76.2431 26.8161 77.4606 27.9815 77.7346C29.1468 78.0085 28.4815 78.7042 27.177 78.7042H23.9593C23.0462 78.7042 23.6223 77.9194 23.6614 76.2779Z" fill="#263238"/>
<path d="M25.8286 76.4955L25.8133 76.4825C25.8122 76.4775 25.8122 76.4723 25.8133 76.4672C25.8133 76.4672 25.8133 76.4672 25.8133 76.452C25.8123 76.4448 25.8123 76.4375 25.8133 76.4303C25.8133 76.4085 25.9851 75.9563 26.2482 75.8476C26.2877 75.8293 26.3307 75.8198 26.3743 75.8198C26.4178 75.8198 26.4609 75.8293 26.5004 75.8476C26.5895 75.8889 26.633 75.9454 26.6287 76.0107C26.6287 76.1129 26.483 76.2172 26.3243 76.302C26.4708 76.2756 26.6218 76.2922 26.7591 76.3498C26.7849 76.3628 26.8075 76.3811 26.8255 76.4036C26.8436 76.4262 26.8565 76.4523 26.8635 76.4803C26.8802 76.5168 26.8846 76.5578 26.876 76.597C26.8673 76.6362 26.8461 76.6716 26.8156 76.6977C26.7652 76.7319 26.7046 76.748 26.6439 76.7434C26.3598 76.7087 26.0839 76.6248 25.8286 76.4955ZM26.0068 76.4629C26.2938 76.5825 26.6591 76.6912 26.7417 76.6151C26.7417 76.6151 26.7743 76.589 26.7548 76.5129C26.7512 76.4984 26.7445 76.4848 26.7351 76.4732C26.7257 76.4615 26.7138 76.4521 26.7004 76.4455C26.6285 76.4117 26.5492 76.3968 26.4699 76.402C26.3139 76.4063 26.1587 76.4267 26.0068 76.4629ZM26.2764 75.9433C26.1235 76.043 26.0068 76.1894 25.9438 76.3607C26.2308 76.252 26.5091 76.0998 26.5156 76.0128C26.5156 75.9846 26.4721 75.9607 26.446 75.9476C26.4177 75.9332 26.3864 75.9258 26.3547 75.9259C26.3276 75.9253 26.3008 75.9313 26.2764 75.9433Z" fill="#187259"/>
<path d="M24.249 73.0456L27.6972 72.6064L27.4081 73.8088L24.5643 74.1436L24.249 73.0456Z" fill="#187259"/>
<path d="M23.3155 37.4153L22.9785 38.385L29.7814 40.183L30.1793 39.035L23.3155 37.4153Z" fill="black"/>
<path d="M25.6465 37.7695L25.3125 37.6721L24.8158 39.3753L25.1497 39.4727L25.6465 37.7695Z" fill="#263238"/>
<path d="M28.5302 38.7248L27.0371 38.3506L26.7533 39.4831L28.2464 39.8573L28.5302 38.7248Z" fill="white"/>
<path d="M29.8515 38.7312L29.5176 38.6338L29.0205 40.3369L29.3545 40.4343L29.8515 38.7312Z" fill="#263238"/>
<path d="M35.3349 31.2444C35.0392 31.6292 34.7653 31.9901 34.5131 32.3315C33.5217 33.6577 32.8151 34.5991 32.2759 35.3579C31.6679 36.1745 31.1407 37.0483 30.7018 37.9669C30.5257 38.3387 30.3518 38.7452 30.1583 39.2257L23.3184 37.4016C23.8852 35.2484 24.5645 33.1265 25.3534 31.0444C25.5425 30.5574 25.7143 30.1377 25.8665 29.7768C26.0187 29.4159 26.1513 29.1246 26.2622 28.8637C26.2622 28.8506 26.2622 28.8376 26.2796 28.8224C26.4476 28.4472 26.744 28.1442 27.1154 27.968C27.4869 27.7919 27.909 27.7541 28.3059 27.8614C28.7972 27.994 29.3734 28.1614 29.906 28.3419C30.8976 28.7092 31.8623 29.1451 32.7933 29.6464C33.6777 30.1175 34.5271 30.6515 35.3349 31.2444Z" fill="#187259"/>
<path d="M30.9157 31.0019C29.7656 29.6974 29.8634 28.7951 29.8634 28.7951C31.3723 28.743 31.8723 26.7949 31.8723 26.7949L33.1768 28.4625C32.9442 28.6469 32.7261 28.849 32.5246 29.0669C31.6766 30.004 32.0897 30.391 32.0897 30.391C31.9332 31.1454 30.9157 31.0019 30.9157 31.0019Z" fill="#B97964"/>
<path opacity="0.2" d="M33.1789 28.4625C32.9462 28.6469 32.7282 28.849 32.5266 29.0669C31.9266 28.2277 31.8613 26.7949 31.8613 26.7949L33.1789 28.4625Z" fill="black"/>
<path d="M34.6005 22.31C36.3615 22.7449 36.6985 23.8189 36.3855 25.6648C35.9941 27.9715 35.1005 29.4587 33.0155 28.439C30.1869 27.054 31.6762 21.5969 34.6005 22.31Z" fill="#B97964"/>
<path d="M35.272 25.2874C35.348 25.5849 35.4605 25.8719 35.6069 26.1418C35.5377 26.2022 35.4531 26.2423 35.3626 26.2577C35.272 26.273 35.179 26.263 35.0938 26.2288L35.272 25.2874Z" fill="#A24E3F"/>
<path d="M34.2289 24.8812C34.1984 25.0269 34.0941 25.1269 33.9962 25.0986C33.8984 25.0704 33.8462 24.9421 33.8788 24.7964C33.9115 24.6508 34.0136 24.5507 34.1115 24.579C34.2093 24.6073 34.2615 24.7355 34.2289 24.8812Z" fill="#263238"/>
<path d="M34.0713 24.5792L34.4148 24.5227C34.4148 24.5227 34.1974 24.7553 34.0713 24.5792Z" fill="#263238"/>
<path d="M36.0443 25.246C36.0117 25.3916 35.9073 25.4938 35.8116 25.4634C35.716 25.4329 35.6616 25.3068 35.6921 25.1612C35.7225 25.0155 35.829 24.9155 35.9269 24.9438C36.0247 24.972 36.0769 25.1003 36.0443 25.246Z" fill="#263238"/>
<path d="M35.8828 24.944L36.2263 24.8896C36.2263 24.8896 36.0111 25.1201 35.8828 24.944Z" fill="#263238"/>
<path d="M33.6802 23.82C33.6681 23.82 33.6561 23.8173 33.6452 23.812C33.6343 23.8067 33.6247 23.799 33.6171 23.7896C33.6048 23.7727 33.5995 23.7517 33.6023 23.731C33.6052 23.7103 33.6159 23.6916 33.6324 23.6787C33.7659 23.5948 33.917 23.543 34.0739 23.5272C34.2308 23.5113 34.3892 23.5319 34.5368 23.5874C34.5465 23.5911 34.5554 23.5967 34.5629 23.6038C34.5705 23.6109 34.5766 23.6195 34.5808 23.629C34.585 23.6385 34.5874 23.6487 34.5877 23.6591C34.5879 23.6695 34.5862 23.6798 34.5825 23.6895C34.5788 23.6993 34.5732 23.7081 34.566 23.7157C34.5589 23.7232 34.5503 23.7293 34.5408 23.7335C34.5313 23.7378 34.5211 23.7401 34.5107 23.7404C34.5003 23.7407 34.49 23.7389 34.4803 23.7352C34.3577 23.6895 34.2265 23.672 34.0962 23.684C33.966 23.6961 33.8401 23.7374 33.728 23.8048C33.7143 23.8153 33.6974 23.8207 33.6802 23.82Z" fill="#263238"/>
<path d="M36.4728 24.2942C36.4617 24.2943 36.4507 24.292 36.4406 24.2875C36.4305 24.283 36.4215 24.2764 36.4141 24.2681C36.3427 24.1772 36.2516 24.1037 36.1477 24.0532C36.0437 24.0027 35.9296 23.9766 35.814 23.9768C35.8037 23.9779 35.7933 23.977 35.7834 23.9742C35.7735 23.9713 35.7642 23.9665 35.7561 23.96C35.748 23.9536 35.7413 23.9456 35.7363 23.9365C35.7313 23.9275 35.7282 23.9175 35.727 23.9072C35.7259 23.8969 35.7268 23.8865 35.7297 23.8766C35.7326 23.8667 35.7374 23.8574 35.7438 23.8493C35.7503 23.8413 35.7583 23.8345 35.7673 23.8295C35.7764 23.8246 35.7863 23.8214 35.7966 23.8203C35.9367 23.8174 36.0756 23.8467 36.2026 23.9059C36.3296 23.9651 36.4414 24.0525 36.5293 24.1616C36.5369 24.1687 36.5429 24.1773 36.547 24.1868C36.5512 24.1964 36.5533 24.2066 36.5533 24.217C36.5533 24.2274 36.5512 24.2377 36.547 24.2472C36.5429 24.2568 36.5369 24.2654 36.5293 24.2725C36.514 24.2868 36.4937 24.2946 36.4728 24.2942Z" fill="#263238"/>
<path d="M31.9579 24.8062C31.9579 24.8062 33.1319 23.5604 33.2798 22.4146C33.2798 22.4146 37.1172 21.8407 36.4258 25.4237C36.4258 25.4237 37.5324 22.3625 34.5234 21.5537C31.5144 20.7449 30.449 25.178 31.697 26.8782C31.6861 26.876 31.223 25.5867 31.9579 24.8062Z" fill="#263238"/>
<path d="M32.1512 25.2482C32.1846 25.0413 32.1347 24.8296 32.0125 24.6593C31.8903 24.4891 31.7057 24.3741 31.499 24.3394C30.9381 24.2677 30.4119 25.3243 31.6968 25.9244C31.8773 26.0092 32.0338 25.8461 32.1512 25.2482Z" fill="#B97964"/>
<path d="M37.4833 26.2138C37.0245 25.779 37.0963 25.0397 37.4529 24.2918C37.8094 23.5439 36.8854 22.9873 36.8854 22.9873C36.8854 22.9873 36.8093 22.0438 36.0853 21.6633C35.9527 21.5937 35.3505 21.6633 35.3505 21.6633C34.5591 20.7936 33.2872 20.0805 32.2871 21.2132C31.7 21.8807 31.1152 21.1958 30.1825 22.5895C29.5085 23.5939 29.9781 24.481 29.7824 24.8049C28.878 26.2921 30.0542 26.6943 30.3347 27.2117C30.3347 27.2117 30.9565 26.9139 30.9043 26.7378C30.4825 25.3115 31.2217 24.3875 31.7935 24.6158C32.3653 24.8441 32.7762 24.781 33.1915 24.257C33.6068 23.7331 33.3176 23.17 34.2786 23.0395C35.2396 22.9091 35.3352 22.359 35.3352 22.359C35.3516 22.6039 35.4338 22.8398 35.5731 23.0418C35.7123 23.2439 35.9036 23.4046 36.1266 23.507C36.9267 23.9266 36.6115 24.4332 36.5006 25.1485C36.3897 25.8637 36.7419 26.1399 37.3702 26.6573C37.9986 27.1748 37.3333 27.5531 37.3333 27.5531C37.4528 27.4929 37.5554 27.4039 37.6319 27.294C37.7083 27.1842 37.7562 27.057 37.7711 26.9241C37.7859 26.7911 37.7674 26.6565 37.7172 26.5325C37.6669 26.4084 37.5866 26.2989 37.4833 26.2138Z" fill="#263238"/>
<path d="M34.9626 27.0267C34.8069 27.1675 34.6616 27.3193 34.5278 27.4811L34.4321 27.4246C33.9973 27.1659 33.8864 26.9028 33.8907 26.6919C33.8945 26.5879 33.9236 26.4864 33.9755 26.3962C34.0027 26.3445 34.0371 26.2969 34.0777 26.2549C34.2721 26.5324 34.5243 26.7646 34.8169 26.9354C34.9039 26.9941 34.9626 27.0267 34.9626 27.0267Z" fill="#263238"/>
<path d="M34.816 26.9354L34.6834 27.0658C34.279 26.8223 34.0311 26.5962 33.9746 26.3962C34.0018 26.3445 34.0362 26.2969 34.0768 26.2549C34.2712 26.5324 34.5233 26.7646 34.816 26.9354Z" fill="white"/>
<path d="M34.4321 27.4243C33.9973 27.1656 33.8864 26.9025 33.8907 26.6917C34.0528 26.7925 34.1956 26.9213 34.3125 27.0721C34.3887 27.1739 34.4306 27.2972 34.4321 27.4243Z" fill="#DE5753"/>
<path d="M30.4937 27.814C30.4937 27.814 31.7242 29.3859 33.1809 29.4163C33.1809 29.4163 32.4569 30.5904 32.6852 31.1926C32.6852 31.1926 31.7677 32.1384 30.5111 31.3078C29.2544 30.4773 29.0479 28.264 29.0479 28.264C29.0479 28.264 29.9501 28.2205 30.4937 27.814Z" fill="#187259"/>
<path d="M27.8951 27.8135C27.8951 27.8135 25.1969 27.1612 23.3054 26.8677C21.4139 26.5742 23.7142 20.6322 23.7142 20.6322L22.5662 20.0735C22.5662 20.0735 19.929 25.7763 21.1226 27.5569C21.7683 28.5223 25.8731 29.7854 25.8731 29.7854L27.8951 27.8135Z" fill="#187259"/>
<path d="M36.622 29.617C36.622 29.617 36.7677 29.2453 37.1917 29.617C37.6156 29.9888 37.7308 29.3996 37.9896 29.4518C38.2483 29.504 38.2744 29.0496 38.9071 28.9039C39.5397 28.7583 39.6224 28.7561 39.7376 28.4691C39.8528 28.1821 40.3116 28.1821 40.3116 28.1821C40.3116 28.1821 39.8767 27.7821 40.1963 27.4233C40.5159 27.0646 40.1681 26.2645 40.1681 26.2645C40.1681 26.2645 40.7703 26.0884 40.9986 26.5189C41.2269 26.9494 41.2008 27.0646 41.2008 27.0646C41.2008 27.0646 41.2856 26.3689 41.0856 26.2275C41.0856 26.2275 42.0031 26.8059 41.6291 27.4799C41.4393 27.8593 41.1108 28.1513 40.7116 28.2952C40.7116 28.2952 40.5116 28.9996 40.1963 29.0648C39.9168 29.1487 39.6613 29.2977 39.4506 29.4996C39.2223 29.6714 39.2506 29.6627 38.8201 29.7388C38.3896 29.8149 38.2461 30.4367 37.9896 30.441C37.7898 30.4128 37.5871 30.4128 37.3873 30.441C37.1286 30.5041 37.0308 30.9672 36.622 30.7367C36.2133 30.5063 36.0002 30.6085 35.8045 30.441C35.6089 30.2736 34.6979 30.5041 34.6675 29.9301C34.637 29.3561 36.1133 28.9865 36.622 29.617Z" fill="#263238"/>
<path opacity="0.2" d="M27.8888 29.5681C27.8149 29.666 26.4669 31.3922 25.3516 31.0487C25.5407 30.5617 25.7125 30.1421 25.8647 29.7812C25.8712 29.7855 27.2431 30.1725 27.8888 29.5681Z" fill="black"/>
<path opacity="0.2" d="M29.4688 28.2141C29.4688 28.2141 29.9188 30.1295 31.1102 30.6274C32.3017 31.1253 32.5256 30.5383 32.5256 30.5383C32.5256 30.5383 32.4082 32.2189 31.1102 31.5906C30.4825 31.3116 29.9735 30.8198 29.6731 30.202C29.3728 29.5842 29.3004 28.8801 29.4688 28.2141Z" fill="black"/>
<path opacity="0.7" d="M30.0351 36.8259L28.872 35.7236L27.1152 36.0736L28.0219 34.6082L27.2848 33.2168L29.0089 33.4124L30.3112 32.2036L30.47 33.7886L32.0114 34.4343L30.3852 35.2192L30.0351 36.8259Z" fill="white"/>
</svg>
