<svg width="48" height="16" viewBox="0 0 48 16" fill="none" xmlns="http://www.w3.org/2000/svg">
<path fill-rule="evenodd" clip-rule="evenodd" d="M7.97576 2.83544C7.96817 2.83544 7.96059 2.83541 7.953 2.83538C7.93785 2.83531 7.92271 2.83525 7.90759 2.83544H7.97576Z" fill="white"/>
<path d="M14.145 12.3713C14.145 11.579 13.4965 10.9367 12.6965 10.9367C12.3761 10.9367 12.0799 11.0397 11.8401 11.2141C11.7298 11.3401 11.6134 11.4606 11.4912 11.5752C10.5749 12.4348 9.33753 12.962 7.97576 12.962C5.15211 12.962 2.86309 10.6951 2.86309 7.89873C2.86309 5.10236 5.15211 2.83544 7.97576 2.83544H7.90759C7.92271 2.83525 7.93785 2.83531 7.953 2.83538C7.96059 2.83541 7.96817 2.83544 7.97576 2.83544H16.0197C16.8103 2.83544 17.4512 2.20071 17.4512 1.41772C17.4512 0.634736 16.8103 0 16.0197 0H8.00984C7.97571 0 7.94163 0.000211459 7.90759 0.000633132C3.531 0.0548583 0 3.5853 0 7.93249C0 12.3135 3.61295 15.9325 8.00984 15.865C12.4067 15.7975 14.1476 16.4726 14.145 12.3713Z" fill="white"/>
<path d="M10.907 7.15612C10.907 8.23738 10.0219 9.11392 8.93013 9.11392C7.83831 9.11392 6.95323 8.23738 6.95323 7.15612C6.95323 6.07485 7.83831 5.19831 8.93013 5.19831C10.0219 5.19831 10.907 6.07485 10.907 7.15612Z" fill="white"/>
<path d="M12.9902 8.8914C13.2641 9.03353 13.5758 9.11392 13.9065 9.11392C14.9983 9.11392 15.8834 8.23738 15.8834 7.15612C15.8834 6.07485 14.9983 5.19831 13.9065 5.19831C13.3976 5.19831 12.9336 5.38872 12.5833 5.70152C12.1819 6.05985 11.9296 6.5788 11.9296 7.15612C11.9296 7.90992 12.3597 8.56423 12.9902 8.8914Z" fill="white"/>
<path d="M20.3143 5.26582C18.7331 5.26582 17.4512 6.53529 17.4512 8.10127V14.5823C17.4512 15.3653 18.0922 16 18.8828 16C19.6734 16 20.3143 15.3653 20.3143 14.5823V7.96625C20.3143 7.96625 20.2567 6.78305 20.5529 6.24473C20.8491 5.7064 21.8481 5.26582 21.8481 5.26582H20.3143Z" fill="white"/>
<path fill-rule="evenodd" clip-rule="evenodd" d="M27.1994 16C30.1736 16 32.5847 13.6122 32.5847 10.6667C32.5847 7.72115 30.1736 5.33333 27.1994 5.33333C24.2251 5.33333 21.814 7.72115 21.814 10.6667C21.814 13.6122 24.2251 16 27.1994 16ZM27.1994 13.1646C28.5924 13.1646 29.7216 12.0462 29.7216 10.6667C29.7216 9.28712 28.5924 8.16878 27.1994 8.16878C25.8064 8.16878 24.6771 9.28712 24.6771 10.6667C24.6771 12.0462 25.8064 13.1646 27.1994 13.1646Z" fill="white"/>
<path d="M37.6996 15.5713C38.4267 15.2637 38.7643 14.4307 38.4538 13.7106L37.152 10.6926L35.8503 13.7106C35.5398 14.4307 35.8774 15.2637 36.6045 15.5713C36.7833 15.6469 36.969 15.6837 37.1521 15.6855C37.3351 15.6837 37.5208 15.6469 37.6996 15.5713Z" fill="white"/>
<path fill-rule="evenodd" clip-rule="evenodd" d="M32.7146 7.62271C32.404 6.90267 32.7416 6.06962 33.4687 5.76205C34.1958 5.45448 35.0369 5.78885 35.3475 6.5089L37.152 10.6926L35.8503 13.7106C35.5398 14.4307 35.8774 15.2637 36.6045 15.5713C36.7833 15.6469 36.969 15.6837 37.1521 15.6855C36.5909 15.6911 36.055 15.3674 35.8208 14.8244L32.7146 7.62271ZM40.2865 10.6438L38.4833 14.8244C38.2491 15.3674 37.7132 15.6911 37.1521 15.6855C37.3351 15.6837 37.5208 15.6469 37.6996 15.5713C38.4267 15.2637 38.7643 14.4307 38.4538 13.7106L37.152 10.6926L38.9566 6.5089C39.2672 5.78885 40.1083 5.45448 40.8354 5.76205C41.0552 5.85503 41.2394 5.99604 41.3809 6.16744C40.9818 5.73694 40.3373 5.58011 39.7637 5.82273C39.0367 6.1303 38.699 6.96335 39.0096 7.6834L40.2865 10.6438ZM43.4471 15.7462C42.8859 15.7517 42.35 15.4281 42.1158 14.8851L40.2865 10.6438L41.5895 7.62271C41.8062 7.12035 41.7074 6.56299 41.3809 6.16744C41.4877 6.28268 41.577 6.41753 41.6425 6.56958L43.4471 10.7533L42.1454 13.7713C41.8348 14.4913 42.1724 15.3244 42.8995 15.632C43.0783 15.7076 43.264 15.7444 43.4471 15.7462ZM43.4471 15.7462C44.0082 15.7517 44.5441 15.4281 44.7783 14.8851L47.8846 7.6834C48.1951 6.96335 47.8575 6.1303 47.1304 5.82273C46.4034 5.51516 45.5622 5.84954 45.2516 6.56958L43.4471 10.7533L44.7488 13.7713C45.0594 14.4913 44.7217 15.3244 43.9947 15.632C43.8158 15.7076 43.6301 15.7444 43.4471 15.7462Z" fill="white"/>
<path d="M39.7637 5.82273C39.0367 6.1303 38.699 6.96335 39.0096 7.6834L40.2865 10.6438L41.5895 7.62271C41.8062 7.12035 41.7074 6.56299 41.3809 6.16744C40.9818 5.73694 40.3373 5.58011 39.7637 5.82273Z" fill="white"/>
<path d="M43.9947 15.632C44.7217 15.3244 45.0594 14.4913 44.7488 13.7713L43.4471 10.7533L42.1454 13.7713C41.8348 14.4913 42.1724 15.3244 42.8995 15.632C43.0783 15.7076 43.264 15.7444 43.4471 15.7462C43.6301 15.7444 43.8158 15.7076 43.9947 15.632Z" fill="white"/>
</svg>
