<svg width="47" height="47" viewBox="0 0 47 47" fill="none" xmlns="http://www.w3.org/2000/svg">
<rect width="47" height="47" rx="23.5" fill="#B3B3B3" fill-opacity="0.41"/>
<path d="M28.7505 22.698C28.7503 21.3564 28.2172 20.0697 27.2685 19.121C26.3198 18.1724 25.0332 17.6393 23.6915 17.639M32.2185 22.344C32.2185 21.281 32.0092 20.2284 31.6023 19.2463C31.1955 18.2643 30.5992 17.3719 29.8475 16.6203C29.0958 15.8687 28.2034 15.2725 27.2213 14.8658C26.2392 14.4591 25.1866 14.2499 24.1235 14.25M23.5305 31.717C23.2305 31.58 22.9315 31.443 22.6325 31.28C21.1659 30.4514 19.8185 29.4273 18.6275 28.236C17.0842 26.7826 15.8162 25.0623 14.8845 23.158C14.3862 22.1351 14.0495 21.0411 13.8865 19.915C13.6667 18.7771 13.7928 17.5995 14.2485 16.534C14.5297 16.076 14.8692 15.6565 15.2585 15.286C15.4165 15.1092 15.6086 14.9662 15.8232 14.8655C16.0379 14.7648 16.2706 14.7085 16.5075 14.7C17.0005 14.774 17.4475 15.032 17.7555 15.423C18.4295 16.172 19.1525 16.846 19.8635 17.557C20.1435 17.797 20.3185 18.137 20.3505 18.505C20.3385 18.815 20.2195 19.11 20.0135 19.341C19.7765 19.641 19.4895 19.915 19.2155 20.201C19.0499 20.3606 18.9231 20.5561 18.8451 20.7725C18.767 20.9889 18.7398 21.2204 18.7655 21.449C18.9375 21.984 19.2325 22.472 19.6265 22.872C20.0993 23.5169 20.5946 24.145 21.1115 24.755C22.0758 25.8673 23.218 26.8118 24.4915 27.55C24.6679 27.6832 24.8764 27.7672 25.0958 27.7936C25.3152 27.8199 25.5377 27.7876 25.7405 27.7C26.1635 27.463 26.5405 27.15 26.8505 26.777C27.1191 26.4503 27.5036 26.24 27.9235 26.19C28.2975 26.21 28.6495 26.37 28.9095 26.64C29.2455 26.926 29.5325 27.263 29.8445 27.575C30.1565 27.887 30.4065 28.112 30.6685 28.398C30.9825 28.6753 31.2775 28.9707 31.5535 29.284C31.7675 29.561 31.8705 29.909 31.8405 30.257C31.7291 30.6737 31.489 31.0446 31.1545 31.317C30.6835 31.8068 30.1112 32.1878 29.4777 32.4336C28.8442 32.6794 28.1647 32.784 27.4865 32.74C26.1135 32.6638 24.7683 32.3161 23.5305 31.717Z" stroke="black" stroke-width="1.5" stroke-miterlimit="10" stroke-linecap="round"/>
</svg>
