<svg width="17" height="17" viewBox="0 0 17 17" fill="none" xmlns="http://www.w3.org/2000/svg">
<path d="M8.33333 0C3.73333 0 0 3.73333 0 8.33333C0 12.9333 3.73333 16.6667 8.33333 16.6667C12.9333 16.6667 16.6667 12.9333 16.6667 8.33333C16.6667 3.73333 12.9333 0 8.33333 0ZM8.33333 15C4.65833 15 1.66667 12.0083 1.66667 8.33333C1.66667 4.65833 4.65833 1.66667 8.33333 1.66667C12.0083 1.66667 15 4.65833 15 8.33333C15 12.0083 12.0083 15 8.33333 15ZM11.8083 10.6333L10.8917 9.71667C11.4833 8.60833 11.3333 7.20833 10.4 6.275C10.1295 6.00218 9.80757 5.78581 9.45279 5.63846C9.09801 5.49111 8.71749 5.41572 8.33333 5.41667C8.30833 5.41667 8.28333 5.425 8.25833 5.425L9.16667 6.33333L8.28333 7.21667L5.925 4.85833L8.28333 2.5L9.16667 3.38333L8.36667 4.18333C9.425 4.19167 10.475 4.58333 11.2833 5.38333C12.7 6.80833 12.875 9.01667 11.8083 10.6333ZM10.7417 11.8083L8.38333 14.1667L7.5 13.2833L8.29167 12.4917C7.20263 12.4832 6.16077 12.0461 5.39167 11.275C4.71337 10.596 4.28994 9.70385 4.19279 8.74902C4.09564 7.79418 4.3307 6.83505 4.85833 6.03333L5.775 6.95C5.18333 8.05833 5.33333 9.45833 6.26667 10.3917C6.85 10.975 7.625 11.2583 8.4 11.2333L7.5 10.3333L8.38333 9.45L10.7417 11.8083Z" fill="#8A8A8A"/>
</svg>
