<svg width="32" height="32" viewBox="0 0 32 32" fill="none" xmlns="http://www.w3.org/2000/svg">
<path d="M0 8C0 3.58172 3.58172 0 8 0H24C28.4183 0 32 3.58172 32 8V24C32 28.4183 28.4183 32 24 32H8C3.58172 32 0 28.4183 0 24V8Z" fill="#B3B3B3"/>
<path d="M7.00977 15.22V19.71C7.00977 24.2 8.80977 26 13.2998 26H18.6898C23.1798 26 24.9798 24.2 24.9798 19.71V15.22" stroke="white" stroke-width="1.5" stroke-linecap="round" stroke-linejoin="round"/>
<path d="M16.0005 16C17.8305 16 19.1805 14.51 19.0005 12.68L18.3405 6H13.6705L13.0005 12.68C12.8205 14.51 14.1705 16 16.0005 16Z" stroke="white" stroke-width="1.5" stroke-linecap="round" stroke-linejoin="round"/>
<path d="M22.3098 16C24.3298 16 25.8098 14.36 25.6098 12.35L25.3298 9.6C24.9698 7 23.9698 6 21.3498 6H18.2998L18.9998 13.01C19.1698 14.66 20.6598 16 22.3098 16Z" stroke="white" stroke-width="1.5" stroke-linecap="round" stroke-linejoin="round"/>
<path d="M9.64037 16C11.2904 16 12.7804 14.66 12.9404 13.01L13.1604 10.8L13.6404 6H10.5904C7.97037 6 6.97037 7 6.61037 9.6L6.34037 12.35C6.14037 14.36 7.62037 16 9.64037 16Z" stroke="white" stroke-width="1.5" stroke-linecap="round" stroke-linejoin="round"/>
<path d="M16 21C14.33 21 13.5 21.83 13.5 23.5V26H18.5V23.5C18.5 21.83 17.67 21 16 21Z" stroke="white" stroke-width="1.5" stroke-linecap="round" stroke-linejoin="round"/>
</svg>
