<svg width="32" height="32" viewBox="0 0 32 32" fill="none" xmlns="http://www.w3.org/2000/svg">
<path d="M29.9304 11.2626V24.7167C29.9271 24.8971 29.8882 25.0751 29.816 25.2404C29.7437 25.4058 29.6396 25.5553 29.5094 25.6803C29.3793 25.8053 29.2258 25.9034 29.0577 25.969C28.8895 26.0345 28.7101 26.0663 28.5297 26.0623H1.90205C1.53776 26.0695 1.18551 25.9318 0.922645 25.6795C0.659775 25.4272 0.507769 25.0809 0.5 24.7167V5.8827C0.507769 5.51842 0.659775 5.17212 0.922645 4.91981C1.18551 4.66751 1.53776 4.52983 1.90205 4.53701H28.5297C28.9013 4.53738 29.2576 4.68526 29.5202 4.94816C29.7828 5.21105 29.9304 5.56746 29.9304 5.93906V11.2626Z" fill="#187259" fill-opacity="0.51"/>
<path d="M15.2176 19.3354C16.4923 19.3607 17.7249 18.879 18.6447 17.996C19.5644 17.113 20.096 15.901 20.1226 14.6262C20.0956 13.3518 19.5639 12.1401 18.6442 11.2574C17.7245 10.3747 16.4921 9.89315 15.2176 9.91846C13.943 9.89278 12.7103 10.3742 11.7905 11.257C10.8708 12.1398 10.3391 13.3517 10.3125 14.6262C10.3391 15.901 10.8707 17.113 11.7904 17.996C12.7102 18.879 13.9428 19.3607 15.2176 19.3354Z" fill="white"/>
<path d="M15.2168 14.6262L21.5239 8.57275" stroke="#191919" stroke-linecap="round" stroke-linejoin="round"/>
<path d="M22.3469 3.74796C22.0883 3.99323 21.8822 4.2884 21.741 4.61561C21.5998 4.94282 21.5265 5.29528 21.5254 5.65165V8.57271H25.2679C26.0056 8.57379 26.7154 8.29128 27.2505 7.78361L30.6338 4.53565H25.7301V0.5L22.3469 3.74796Z" fill="#FF808C" stroke="#191919" stroke-linecap="round" stroke-linejoin="round"/>
<path d="M19.4217 31.4439H11.0137C12.2109 29.8861 12.9397 28.0195 13.1146 26.0626H17.3194C17.4991 28.019 18.2278 29.885 19.4217 31.4453" fill="white"/>
<path d="M19.4217 31.4439H11.0137C12.2109 29.8861 12.9397 28.0195 13.1146 26.0626H17.3194C17.4991 28.019 18.2278 29.885 19.4217 31.4453" stroke="#191919" stroke-linecap="round" stroke-linejoin="round"/>
<path d="M8.94531 31.5L22.2232 31.4437" stroke="#191919" stroke-linecap="round" stroke-linejoin="round"/>
<path d="M1.90205 26.0623H28.5297C28.8938 26.0691 29.2456 25.9312 29.5082 25.679C29.7708 25.4267 29.9226 25.0806 29.9304 24.7166V22.0252H0.5V24.7166C0.507769 25.0809 0.659775 25.4272 0.922645 25.6795C1.18551 25.9318 1.53776 26.0694 1.90205 26.0623Z" fill="white" stroke="#191919" stroke-linecap="round" stroke-linejoin="round"/>
<path d="M29.9304 11.2626V24.7167C29.9271 24.8971 29.8882 25.0751 29.816 25.2404C29.7437 25.4058 29.6396 25.5553 29.5094 25.6803C29.3793 25.8053 29.2258 25.9034 29.0577 25.969C28.8895 26.0345 28.7101 26.0663 28.5297 26.0623H1.90205C1.53776 26.0695 1.18551 25.9318 0.922645 25.6795C0.659775 25.4272 0.507769 25.0809 0.5 24.7167V5.8827C0.507769 5.51842 0.659775 5.17212 0.922645 4.91981C1.18551 4.66751 1.53776 4.52983 1.90205 4.53701H15.7985" stroke="#191919" stroke-linecap="round" stroke-linejoin="round"/>
</svg>
