<svg width="44" height="46" viewBox="0 0 44 46" fill="none" xmlns="http://www.w3.org/2000/svg">
<rect width="43.3943" height="46" rx="7.63359" fill="#187259"/>
<path d="M21.6972 12.6968C19.683 12.6968 17.7513 13.4966 16.3271 14.9204C14.9029 16.3441 14.1027 18.2752 14.1027 20.2886V24.1149C14.1029 24.2832 14.0639 24.4492 13.9888 24.5997L12.126 28.323C12.035 28.5049 11.9921 28.707 12.0012 28.9102C12.0103 29.1134 12.0713 29.3108 12.1783 29.4838C12.2852 29.6568 12.4347 29.7996 12.6124 29.8987C12.7901 29.9977 12.9901 30.0496 13.1936 30.0496H30.2008C30.4042 30.0496 30.6043 29.9977 30.782 29.8987C30.9597 29.7996 31.1091 29.6568 31.2161 29.4838C31.323 29.3108 31.384 29.1134 31.3931 28.9102C31.4023 28.707 31.3593 28.5049 31.2683 28.323L29.4066 24.5997C29.3311 24.4492 29.2918 24.2833 29.2916 24.1149V20.2886C29.2916 18.2752 28.4915 16.3441 27.0672 14.9204C25.643 13.4966 23.7113 12.6968 21.6972 12.6968ZM21.6972 33.3033C21.0238 33.3036 20.3669 33.0952 19.817 32.7067C19.2671 32.3182 18.8513 31.7688 18.6269 31.1342H24.7675C24.543 31.7688 24.1272 32.3182 23.5773 32.7067C23.0274 33.0952 22.3705 33.3036 21.6972 33.3033Z" fill="white"/>
</svg>
