<svg width="32" height="32" viewBox="0 0 32 32" fill="none" xmlns="http://www.w3.org/2000/svg">
<path d="M16.1601 0.960093C15.7426 1.01009 2.73006 9.73509 2.65506 10.0001C2.58006 10.2676 2.55006 13.0476 2.55006 13.0476L4.22756 13.5801L4.23506 15.7901L5.13256 17.6276V25.3951L4.46256 26.8576L2.62506 27.4001V28.7151L1.18506 29.1526C1.18506 29.1526 1.20506 30.2801 1.20506 30.4676C1.20506 30.6551 1.26756 31.0526 2.02006 31.0526C2.77256 31.0526 30.2376 30.9251 30.5151 30.9251C30.7926 30.9251 31.0801 30.8701 31.0951 30.3726C31.1101 29.8751 31.0801 29.1726 31.0801 29.1726L29.6851 28.4826L29.6801 27.3801L27.4101 26.6801L26.8626 25.1301L26.8701 17.8276L27.7401 15.9926L28.0026 15.4951V13.5201L29.4651 12.9676C29.4651 12.9676 29.4926 10.1101 29.4501 10.0276C29.4126 9.94759 16.5051 0.920093 16.1601 0.960093Z" fill="#D7F5ED"/>
<path d="M3.8323 10.5804C3.7548 10.7729 3.7348 12.1929 3.8048 12.2629C3.8748 12.3329 28.0398 12.2954 28.1223 12.2279C28.2048 12.1604 28.2173 10.6179 28.1773 10.5229C28.1373 10.4279 21.3248 5.77539 21.3248 5.77539L10.7923 5.82789C10.7898 5.82789 3.8773 10.4654 3.8323 10.5804ZM1.1848 29.1579C1.1623 29.1029 1.1848 28.8429 1.1848 28.7379C1.1848 28.6329 1.2848 28.5129 1.5098 28.5129C1.7348 28.5129 30.2948 28.4729 30.4348 28.4779C30.7873 28.4904 31.0248 28.5654 31.0598 28.7904C31.0948 29.0154 31.0823 29.1779 31.0823 29.1779L1.1848 29.1579ZM29.6823 27.3829L2.6273 27.4029C2.6273 27.4029 2.6373 27.1254 2.6373 27.0304C2.6373 26.9354 2.6873 26.7804 3.0098 26.7804C3.3323 26.7804 28.9898 26.6829 29.2098 26.6829C29.4298 26.6829 29.6698 26.7854 29.6998 26.9379C29.7298 27.0904 29.6823 27.3829 29.6823 27.3829ZM27.0648 25.7079L26.8648 25.1229L5.1273 25.1179L4.9648 25.7704L27.0648 25.7079ZM4.8773 17.0954L27.1923 17.1729L26.8723 17.8279L5.1348 17.9104L4.8773 17.0954ZM4.3898 16.1754C4.3898 16.1754 4.1923 16.0329 4.1598 15.8454C4.1273 15.6579 4.2148 15.5479 4.2148 15.5479L28.0048 15.4954C28.0048 15.4954 28.0948 15.6804 28.0173 15.8104C27.9398 15.9429 27.7198 16.0629 27.7198 16.0629L4.3898 16.1754ZM2.5498 13.0479L29.4673 12.9679C29.4673 12.9679 29.4848 13.2254 29.4673 13.3329C29.4523 13.4404 29.3123 13.5354 28.9548 13.5354H28.5973C28.5973 13.5354 3.3998 13.6604 3.1198 13.6604C2.8398 13.6604 2.6398 13.5054 2.5923 13.3804C2.5648 13.2979 2.5498 13.0479 2.5498 13.0479Z" fill="#C2E3DA"/>
<path d="M4.50244 11.2576L10.1649 7.43512L10.5449 11.3326L4.50244 11.2576ZM21.8874 7.30762L27.5574 11.3076H21.7349L21.8874 7.30762Z" fill="#6B837C"/>
<path d="M8.35238 16.157L9.28488 16.1545L10.0149 17.907L9.94738 25.122L9.33988 26.757L8.25488 26.7595L7.65738 25.132L7.62988 17.892L8.35238 16.157ZM13.3174 16.132L12.3899 17.867L12.4599 25.122L13.0099 26.7445L19.0674 26.7195L19.6124 25.122L19.6274 17.852L18.9199 16.1045L13.3174 16.132ZM22.8424 16.087L23.6649 16.082L24.3924 17.8345L24.3899 25.1245L23.9674 26.7045L22.5949 26.707L22.1749 25.1245L22.1424 17.842L22.8424 16.087Z" fill="#58746D"/>
<path d="M13.6548 26.7422V21.1797L18.5348 21.2272L18.5448 26.7272L13.6548 26.7422Z" fill="#3EC6A0"/>
<path d="M15.815 20.9275L15.8125 26.735L16.3175 26.7325V21.0125L15.815 20.9275Z" fill="#ABD5C9"/>
<path d="M13.6548 21.445V20.05H18.5348V21.445C18.5348 21.445 13.6973 21.4025 13.6548 21.445Z" fill="#9FC6BB"/>
<path d="M13.6552 20.0499H18.5352C18.5352 20.0499 18.5552 19.6149 18.1027 19.5724C17.6502 19.5299 14.3252 19.5649 14.0452 19.5724C13.6277 19.5849 13.6552 20.0499 13.6552 20.0499Z" fill="#D9F3EC"/>
<path d="M16.0974 2.77749C12.4749 2.79999 9.60736 5.66499 9.72986 9.28749C9.85236 12.91 13.1749 15.4575 16.0974 15.435C19.1649 15.4125 22.3949 13.2175 22.5399 9.26749C22.6874 5.31999 19.3624 2.75499 16.0974 2.77749Z" fill="#D7F5ED"/>
<path d="M16.1199 3.64464C13.0874 3.66464 10.6599 6.15214 10.7624 9.30714C10.8624 12.4621 13.5324 14.4621 15.9799 14.4846C18.8024 14.5096 21.3999 12.6646 21.5199 9.22714C21.6399 5.78964 18.8524 3.62714 16.1199 3.64464Z" fill="#C2E3DA"/>
<path d="M15.2452 5.40759C15.2452 5.40759 15.1902 4.44259 15.2577 4.36009C15.3252 4.27759 15.6002 4.27759 16.1327 4.27759C16.6677 4.27759 16.8852 4.27759 16.9677 4.34509C17.0502 4.41259 17.0077 5.46759 17.0077 5.46759C17.0077 5.46759 17.7327 5.74009 18.1852 6.09009C18.6652 6.46009 19.0077 6.95259 18.9802 7.03509C18.9527 7.11759 17.9952 7.95259 17.8577 7.92509C17.7202 7.89759 16.9402 6.98509 16.0102 6.92509C14.5327 6.83009 14.5452 7.98009 15.4627 8.29509C16.3802 8.61009 19.2727 8.86009 19.1602 11.1626C19.0652 13.1001 17.1077 13.2376 17.1077 13.2376C17.1077 13.2376 17.1627 13.9626 17.1077 14.0051C17.0527 14.0476 15.3277 14.0726 15.2727 13.9926C15.2177 13.9126 15.2602 13.1701 15.2602 13.1701C15.2602 13.1701 14.4927 13.0201 13.8627 12.5951C13.2327 12.1701 12.7802 11.6101 12.7677 11.5401C12.7552 11.4726 13.8777 10.5276 13.9577 10.5001C14.0377 10.4726 15.1802 11.5976 16.2577 11.6901C17.3527 11.7851 17.8177 10.7051 16.2977 10.2401C14.7777 9.77509 12.9852 9.37759 13.0677 7.47509C13.1502 5.54259 15.2452 5.40759 15.2452 5.40759Z" fill="#187259"/>
</svg>
