<svg width="16" height="19" viewBox="0 0 16 19" fill="none" xmlns="http://www.w3.org/2000/svg">
<path d="M7.42857 13.9722H8.57143V7.96713H7.42857V13.9722ZM8 6.2919C8.19962 6.2919 8.36686 6.22923 8.50171 6.10388C8.63581 5.97853 8.70286 5.82344 8.70286 5.6386C8.70286 5.45306 8.63543 5.29761 8.50057 5.17226C8.36571 5.04691 8.19886 4.98459 8 4.9853C7.80114 4.986 7.63429 5.04868 7.49943 5.17332C7.36457 5.29796 7.29714 5.45341 7.29714 5.63966C7.29714 5.82592 7.36457 5.98101 7.49943 6.10494C7.63429 6.22888 7.80114 6.2912 8 6.2919ZM8 18.9989C5.70362 18.3651 3.79619 17.0723 2.27771 15.1205C0.759238 13.1688 0 10.9695 0 8.5227V2.77787L8 0L16 2.77787V8.5227C16 10.9688 15.2408 13.1677 13.7223 15.1195C12.2038 17.0712 10.2964 18.3637 8 18.9989ZM8 17.8719C9.98095 17.2876 11.619 16.1191 12.9143 14.3663C14.2095 12.6136 14.8571 10.666 14.8571 8.52376V3.50341L8 1.13452L1.14286 3.50341V8.5227C1.14286 10.665 1.79048 12.6125 3.08571 14.3653C4.38095 16.118 6.01905 17.2876 8 17.8719Z" fill="#8A8A8A"/>
</svg>
