<svg width="19" height="19" viewBox="0 0 19 19" fill="none" xmlns="http://www.w3.org/2000/svg">
<path d="M10.928 19H8.07438C7.89924 19 7.73028 18.9353 7.60007 18.8181C7.46985 18.701 7.38759 18.5399 7.36914 18.3657L7.15785 16.3764C6.86289 16.276 6.57474 16.1567 6.2952 16.0191L4.74055 17.2763C4.60448 17.3859 4.43274 17.4414 4.25828 17.4321C4.08381 17.4229 3.9189 17.3495 3.79518 17.2262L1.77729 15.2085C1.65393 15.0848 1.5806 14.9199 1.57135 14.7455C1.5621 14.571 1.6176 14.3993 1.72719 14.2632L2.985 12.7068C2.84716 12.4274 2.72763 12.1392 2.62718 11.8443L0.634342 11.6316C0.460254 11.6132 0.299143 11.531 0.182029 11.4009C0.064914 11.2708 7.64984e-05 11.1019 0 10.9269V8.07311C7.64984e-05 7.89807 0.064914 7.72924 0.182029 7.59913C0.299143 7.46903 0.460254 7.38685 0.634342 7.36841L2.62387 7.15714C2.72433 6.86217 2.84385 6.57404 2.98169 6.29458L1.72388 4.73818C1.61429 4.60213 1.55879 4.43041 1.56804 4.25596C1.57729 4.08151 1.65062 3.91662 1.77398 3.79291L3.79187 1.77522C3.91559 1.65188 4.0805 1.57855 4.25497 1.5693C4.42943 1.56006 4.60117 1.61555 4.73724 1.72513L6.29378 2.98234C6.57332 2.84475 6.86147 2.7254 7.15643 2.62503L7.36772 0.635698C7.38587 0.461048 7.46819 0.299345 7.59874 0.181905C7.72929 0.0644658 7.89878 -0.000353187 8.07438 1.44753e-06H10.928C11.1031 -3.87775e-05 11.2721 0.0647398 11.4023 0.181854C11.5325 0.298968 11.6148 0.460129 11.6332 0.63428L11.844 2.62361C12.1391 2.72398 12.4275 2.84333 12.7072 2.98092L14.2632 1.72371C14.3993 1.61413 14.571 1.55864 14.7455 1.56789C14.92 1.57713 15.0849 1.65046 15.2086 1.77381L17.2265 3.79149C17.3498 3.9152 17.4232 4.08009 17.4324 4.25454C17.4417 4.42899 17.3862 4.60071 17.2766 4.73677L16.0188 6.29316C16.1564 6.57271 16.2759 6.86083 16.3766 7.15572L18.3661 7.36699C18.5401 7.38554 18.7011 7.46777 18.8181 7.59786C18.9352 7.72795 18.9999 7.89672 19 8.07169V10.9255C19.0003 11.1004 18.936 11.2693 18.8193 11.3996C18.7027 11.53 18.5419 11.6126 18.368 11.6316L16.3785 11.8429C16.2778 12.1378 16.1583 12.4259 16.0207 12.7054L17.2785 14.2618C17.3881 14.3979 17.4436 14.5696 17.4343 14.744C17.4251 14.9185 17.3517 15.0834 17.2284 15.2071L15.2105 17.2262C15.0868 17.3495 14.9219 17.4229 14.7474 17.4321C14.5729 17.4414 14.4012 17.3859 14.2651 17.2763L12.709 16.0191C12.4293 16.1567 12.141 16.276 11.8459 16.3764L11.6351 18.3657C11.6166 18.5402 11.5341 18.7016 11.4035 18.8188C11.2729 18.9359 11.1034 19.0005 10.928 19ZM8.71109 17.5821H10.2894L10.4827 15.7596C10.4979 15.6169 10.556 15.4823 10.6493 15.3733C10.7427 15.2644 10.8668 15.1863 11.0055 15.1494C11.5049 15.0163 11.9843 14.8171 12.4311 14.5572C12.5555 14.4847 12.699 14.4518 12.8425 14.4629C12.9861 14.474 13.1229 14.5285 13.2347 14.6191L14.6603 15.7709L15.7763 14.655L14.6225 13.2338C14.5318 13.122 14.4773 12.9853 14.4662 12.8417C14.4552 12.6982 14.4881 12.5547 14.5606 12.4303C14.8199 11.9839 15.0185 11.5048 15.1509 11.0058C15.1878 10.8671 15.266 10.7429 15.375 10.6495C15.4841 10.5562 15.6189 10.4982 15.7616 10.4831L17.5838 10.2893V8.71117L15.7616 8.51739C15.6189 8.50231 15.4841 8.44427 15.375 8.35093C15.266 8.25759 15.1878 8.13335 15.1509 7.99465C15.0185 7.49547 14.82 7.01623 14.5606 6.56965C14.4881 6.44527 14.4552 6.30178 14.4662 6.15826C14.4773 6.01473 14.5318 5.87797 14.6225 5.76617L15.7744 4.3407L14.6584 3.2248L13.2328 4.37662C13.121 4.46729 12.9842 4.52178 12.8407 4.53284C12.6971 4.5439 12.5536 4.511 12.4292 4.43853C11.9827 4.17938 11.5035 3.98086 11.0046 3.84821C10.8659 3.81133 10.7417 3.73327 10.6484 3.62432C10.555 3.51538 10.4969 3.38069 10.4818 3.23804L10.2903 1.41791H8.71109L8.51776 3.2404C8.50256 3.38311 8.4444 3.51785 8.35097 3.6268C8.25754 3.73575 8.13324 3.81378 7.9945 3.85057C7.49586 3.98382 7.01722 4.18298 6.57125 4.44279C6.44686 4.51526 6.30335 4.54815 6.15981 4.53709C6.01628 4.52603 5.8795 4.47154 5.76769 4.38087L4.34349 3.22716L3.22796 4.34306L4.38036 5.76853C4.47097 5.88039 4.52538 6.01717 4.53635 6.1607C4.54733 6.30422 4.51435 6.44768 4.44181 6.57201C4.18283 7.01864 3.98431 7.49767 3.85143 7.99654C3.81455 8.13518 3.73647 8.25936 3.62752 8.35269C3.51856 8.44602 3.38386 8.50411 3.24119 8.51928L1.41852 8.71306V10.2907L3.24119 10.4845C3.38386 10.4997 3.51856 10.5578 3.62752 10.6511C3.73647 10.7444 3.81455 10.8686 3.85143 11.0072C3.98427 11.5056 4.18264 11.9841 4.44134 12.4303C4.51388 12.5547 4.54686 12.6981 4.53588 12.8417C4.52491 12.9852 4.4705 13.122 4.37989 13.2338L3.22796 14.6569L4.34396 15.7728L5.77005 14.621C5.88187 14.5303 6.01864 14.4759 6.16218 14.4648C6.30572 14.4537 6.44922 14.4866 6.57361 14.5591C7.01998 14.8183 7.49894 15.0169 7.99781 15.1494C8.13655 15.1862 8.26085 15.2643 8.35428 15.3732C8.44771 15.4822 8.50587 15.6169 8.52107 15.7596L8.71109 17.5821Z" fill="#8A8A8A"/>
<path d="M9.50156 13.3196C8.64748 13.3195 7.8126 13.0662 7.10249 12.5917C6.39239 12.1171 5.83896 11.4427 5.51218 10.6537C5.1854 9.86469 5.09995 8.99649 5.26663 8.15891C5.43331 7.32133 5.84464 6.55198 6.4486 5.94814C7.05257 5.34431 7.82204 4.9331 8.65972 4.76653C9.49741 4.59996 10.3657 4.6855 11.1547 5.01233C11.9438 5.33916 12.6182 5.89261 13.0927 6.6027C13.5672 7.31278 13.8205 8.1476 13.8205 9.0016C13.8192 10.1465 13.3638 11.2442 12.5541 12.0537C11.7444 12.8632 10.6466 13.3185 9.50156 13.3196ZM9.50156 6.10151C8.92794 6.1016 8.36723 6.27177 7.89032 6.59049C7.41342 6.90921 7.04174 7.36218 6.82229 7.89211C6.60284 8.42204 6.54547 9.00514 6.65744 9.56768C6.7694 10.1302 7.04567 10.6469 7.45132 11.0525C7.85696 11.458 8.37376 11.7341 8.93637 11.846C9.49898 11.9579 10.0821 11.9004 10.6121 11.6809C11.142 11.4614 11.595 11.0897 11.9137 10.6128C12.2323 10.1359 12.4024 9.57517 12.4024 9.0016C12.4015 8.23264 12.0956 7.49542 11.5518 6.95173C11.0079 6.40803 10.2706 6.10226 9.50156 6.10151Z" fill="#8A8A8A"/>
</svg>
