<svg width="20" height="20" viewBox="0 0 20 20" fill="none" xmlns="http://www.w3.org/2000/svg">
<path d="M9.9974 17.0827H5.83073C3.33073 17.0827 1.66406 15.8327 1.66406 12.916V7.08268C1.66406 4.16602 3.33073 2.91602 5.83073 2.91602H14.1641C16.6641 2.91602 18.3307 4.16602 18.3307 7.08268V9.58268" stroke="#B3B3B3" stroke-width="1.5" stroke-miterlimit="10" stroke-linecap="round" stroke-linejoin="round"/>
<path d="M14.1693 7.5L11.5609 9.58333C10.7026 10.2667 9.29427 10.2667 8.43593 9.58333L5.83594 7.5" stroke="#B3B3B3" stroke-width="1.5" stroke-miterlimit="10" stroke-linecap="round" stroke-linejoin="round"/>
<path d="M16.0066 12.3076L13.0566 15.2576C12.9399 15.3743 12.8316 15.5909 12.8066 15.7493L12.6482 16.8743C12.5899 17.2826 12.8732 17.5659 13.2816 17.5076L14.4066 17.3493C14.5649 17.3243 14.7899 17.2159 14.8982 17.0993L17.8483 14.1493C18.3566 13.6409 18.5983 13.0493 17.8483 12.2993C17.1066 11.5576 16.5149 11.7993 16.0066 12.3076Z" stroke="#B3B3B3" stroke-width="1.5" stroke-miterlimit="10" stroke-linecap="round" stroke-linejoin="round"/>
<path d="M15.582 12.7324C15.832 13.6324 16.532 14.3324 17.432 14.5824" stroke="#B3B3B3" stroke-width="1.5" stroke-miterlimit="10" stroke-linecap="round" stroke-linejoin="round"/>
</svg>
