<svg width="50" height="50" viewBox="0 0 50 50" fill="none" xmlns="http://www.w3.org/2000/svg">
<rect width="50" height="50" rx="25" fill="white"/>
<g clip-path="url(#clip0_43_10954)">
<path d="M33.0319 14.1302C32.8028 13.901 31.5069 14.8251 30.1374 16.1941C28.7679 17.5632 27.8434 18.8588 28.0725 19.088C28.3016 19.3172 29.5975 18.3931 30.967 17.024C32.3365 15.655 33.261 14.3593 33.0319 14.1302Z" fill="#187259" fill-opacity="0.72"/>
<path d="M15.4526 28.2895C13.9272 29.4841 12.8538 30.6606 13.0538 30.9137C13.2538 31.1688 14.6526 30.4087 16.1756 29.2141C17.701 28.02 18.7756 26.847 18.5756 26.5919C18.3764 26.3356 16.9788 27.0969 15.4526 28.2895ZM33.4284 28.2895C34.9534 29.4841 36.0276 30.6606 35.828 30.9137C35.628 31.1688 34.2291 30.4087 32.7061 29.2141C31.1803 28.02 30.1061 26.847 30.3053 26.5919C30.5045 26.3356 31.9022 27.0969 33.4284 28.2895ZM24.9729 33.4821C24.9741 35.4169 24.712 36.988 24.3874 36.988C24.0639 36.9895 23.8002 35.4177 23.8002 33.4837C23.7971 31.5458 24.0588 29.9759 24.3823 29.9759C24.7069 29.9759 24.9698 31.5462 24.9729 33.4821Z" fill="#187259" fill-opacity="0.72"/>
<path d="M20.3953 19.0878C20.6244 18.8586 19.6997 17.5631 18.33 16.1942C16.9604 14.8254 15.6643 13.9015 15.4353 14.1307C15.2062 14.3599 16.1309 15.6553 17.5005 17.0242C18.8702 18.3931 20.1663 19.317 20.3953 19.0878Z" fill="#187259" fill-opacity="0.72"/>
<path d="M33.9844 20.5172L26.4648 20.4816L24.1758 12.875L21.8867 20.4816L14.3672 20.5172L20.4719 25.3738L17.3852 33.6551L24.1758 28.393L30.9668 33.6551L27.8805 25.3738L33.9844 20.5172Z" fill="#187259" fill-opacity="0.72"/>
<path d="M31.3127 21.5742L26.465 20.6824L24.176 16.6113L21.8869 20.6824L17.2158 21.625L20.4721 25.5742L19.6186 30.8355L24.176 28.5945L28.8596 30.8836L27.8807 25.5742L31.3127 21.5742Z" fill="#187259"/>
</g>
<defs>
<clipPath id="clip0_43_10954">
<rect width="25" height="25" fill="white" transform="translate(12 12.5)"/>
</clipPath>
</defs>
</svg>
