<svg width="20" height="20" viewBox="0 0 20 20" fill="none" xmlns="http://www.w3.org/2000/svg">
<path d="M19.1544 3.97289C19.1999 4.0825 19.2119 4.20313 19.1888 4.31955C19.1657 4.43596 19.1087 4.54291 19.0248 4.62689L16.6248 7.02689C16.569 7.08257 16.5027 7.1267 16.4298 7.15677C16.3569 7.18683 16.2788 7.20223 16.2 7.20209H12.8484L11.2248 8.82569C11.4078 9.20884 11.4495 9.64436 11.3424 10.0553C11.2354 10.4662 10.9865 10.826 10.6398 11.0712C10.2932 11.3163 9.87095 11.431 9.44786 11.395C9.02477 11.359 8.62804 11.1746 8.32779 10.8743C8.02753 10.574 7.84309 10.1773 7.80707 9.75423C7.77104 9.33114 7.88575 8.90894 8.13091 8.56224C8.37608 8.21555 8.73591 7.96668 9.14682 7.85964C9.55773 7.7526 9.99325 7.79427 10.3764 7.97729L12 6.35369V3.00209C11.9999 2.92324 12.0153 2.84514 12.0453 2.77225C12.0754 2.69936 12.1195 2.63311 12.1752 2.57729L14.5752 0.177287C14.6591 0.0931592 14.7661 0.0358419 14.8827 0.0126018C14.9992 -0.0106384 15.12 0.00124532 15.2298 0.0467464C15.3395 0.0922474 15.4333 0.169317 15.4992 0.268184C15.5651 0.36705 15.6002 0.483263 15.6 0.602087V3.60209H18.6C18.7187 3.60211 18.8348 3.63735 18.9335 3.70336C19.0322 3.76936 19.109 3.86316 19.1544 3.97289ZM17.1516 4.80209H15C14.8409 4.80209 14.6883 4.73887 14.5757 4.62635C14.4632 4.51383 14.4 4.36122 14.4 4.20209V2.05049L13.2 3.25049V6.00209H15.9516L17.1516 4.80209ZM18.7284 6.62009C19.0344 7.55849 19.2 8.56169 19.2 9.60209C19.1996 11.63 18.5569 13.6057 17.3643 15.2459C16.1717 16.886 14.4903 18.1063 12.5612 18.7319C10.6322 19.3574 8.55459 19.356 6.62641 18.7279C4.69822 18.0997 3.01847 16.8771 1.82806 15.2353C0.637637 13.5936 -0.00230265 11.617 6.22584e-06 9.58907C0.00231511 7.56115 0.646754 5.58604 1.84091 3.94699C3.03506 2.30795 4.71759 1.08915 6.6472 0.465397C8.57681 -0.158359 10.6544 -0.155037 12.582 0.474888L11.6124 1.44449C9.83111 1.00528 7.95501 1.16133 6.27075 1.88879C4.5865 2.61625 3.18672 3.87511 2.2853 5.47303C1.38388 7.07095 1.03039 8.92004 1.27885 10.7378C1.5273 12.5555 2.36403 14.2419 3.66119 15.5393C4.95835 16.8368 6.6446 17.6738 8.46229 17.9226C10.28 18.1714 12.1291 17.8183 13.7272 16.9172C15.3253 16.0161 16.5845 14.6166 17.3123 12.9324C18.04 11.2483 18.1965 9.37226 17.7576 7.59089L18.7284 6.62009ZM15.48 8.40209C15.56 8.79089 15.6 9.19089 15.6 9.60209C15.5997 10.8402 15.2165 12.048 14.5027 13.0597C13.789 14.0714 12.7797 14.8375 11.6134 15.253C10.4471 15.6684 9.18075 15.7129 7.98813 15.3803C6.79551 15.0477 5.735 14.3543 4.95203 13.3951C4.16907 12.436 3.702 11.2581 3.61487 10.0231C3.52775 8.788 3.82484 7.55622 4.46541 6.49668C5.10598 5.43713 6.05864 4.60169 7.19275 4.10494C8.32687 3.60819 9.58688 3.47446 10.8 3.72209V4.95329C9.78057 4.6903 8.70294 4.76977 7.73311 5.17945C6.76328 5.58914 5.95505 6.30632 5.4329 7.22053C4.91075 8.13474 4.70365 9.19526 4.84351 10.2387C4.98336 11.2822 5.46241 12.2508 6.20686 12.9952C6.95131 13.7397 7.91987 14.2187 8.96335 14.3586C10.0068 14.4984 11.0674 14.2913 11.9816 13.7692C12.8958 13.247 13.6129 12.4388 14.0226 11.469C14.4323 10.4991 14.5118 9.42152 14.2488 8.40209H15.48Z" fill="#B3B3B3"/>
</svg>
