<svg width="20" height="20" viewBox="0 0 20 20" fill="none" xmlns="http://www.w3.org/2000/svg">
<mask id="mask0_43_10933" style="mask-type:luminance" maskUnits="userSpaceOnUse" x="2" y="2" width="16" height="16">
<path d="M2.08301 2.08301H17.9163V17.9163H2.08301V2.08301Z" fill="white"/>
</mask>
<g mask="url(#mask0_43_10933)">
<path d="M11.4913 2.19969L11.0163 2.13302C9.58878 1.9269 8.13205 2.13082 6.81595 2.72099C5.49986 3.31117 4.37864 4.26329 3.58301 5.46636C2.73647 6.61634 2.23183 7.98197 2.12716 9.4061C2.02249 10.8302 2.32204 12.255 2.99134 13.5164C3.05984 13.6428 3.10248 13.7816 3.11679 13.9246C3.1311 14.0677 3.11678 14.2122 3.07467 14.3497C2.73301 15.5247 2.41634 16.708 2.08301 17.9497L2.49967 17.8247C3.62467 17.5247 4.74967 17.2247 5.87467 16.9497C6.11213 16.9003 6.35894 16.9236 6.58301 17.0164C7.59234 17.509 8.69536 17.78 9.81805 17.8112C10.9407 17.8424 12.0571 17.6331 13.0923 17.1974C14.1274 16.7616 15.0574 16.1095 15.8198 15.2848C16.5821 14.4601 17.1593 13.4818 17.5125 12.4156C17.8656 11.3495 17.9867 10.2201 17.8675 9.10336C17.7483 7.98658 17.3916 6.90822 16.8213 5.94065C16.251 4.97308 15.4804 4.13869 14.5611 3.49346C13.6418 2.84824 12.5951 2.40711 11.4913 2.19969ZM13.5913 13.133C13.2885 13.4042 12.9191 13.5902 12.521 13.6722C12.1228 13.7542 11.71 13.7292 11.3247 13.5997C9.5788 13.1073 8.06405 12.0119 7.04967 10.508C6.66232 9.97602 6.35099 9.39263 6.12467 8.77469C6.00205 8.41617 5.97994 8.03092 6.06074 7.66072C6.14153 7.29052 6.32215 6.94952 6.58301 6.67469C6.71 6.51262 6.88285 6.39255 7.07905 6.33012C7.27526 6.26769 7.48571 6.2658 7.68301 6.32469C7.84968 6.36636 7.96634 6.60802 8.11634 6.79136C8.23856 7.1358 8.38023 7.47191 8.54134 7.79969C8.66336 7.96678 8.71432 8.17536 8.6831 8.37989C8.65187 8.58442 8.54099 8.76829 8.37467 8.89136C7.99967 9.22469 8.05801 9.49969 8.32467 9.87469C8.91389 10.7243 9.72744 11.3936 10.6747 11.808C10.9413 11.9247 11.1413 11.9497 11.3163 11.6747C11.3913 11.5664 11.4913 11.4747 11.5747 11.3747C12.058 10.7664 11.908 10.7747 12.6747 11.108C12.9191 11.2108 13.1552 11.3302 13.383 11.4664C13.608 11.5997 13.9497 11.7414 13.9997 11.9414C14.0478 12.1583 14.0351 12.3844 13.9631 12.5946C13.891 12.8049 13.7624 12.9912 13.5913 13.133Z" fill="#138A54"/>
</g>
</svg>
